<svg viewBox="0 0 18 17"><path fill="#4A90E2" d="M9.583 13.166c.807-.8 1.21-1.77 1.21-2.911 0-1.134-.403-2.105-1.21-2.911-.806-.807-1.776-1.21-2.91-1.21-1.141 0-2.115.404-2.92 1.21-.801.807-1.201 1.777-1.201 2.91 0 1.141.4 2.111 1.2 2.912.807.806 1.78 1.21 2.92 1.21 1.135 0 2.105-.404 2.911-1.21zM11.058.113A.355.355 0 0111.332 0h5.293a.385.385 0 01.388.397V5.68a.373.373 0 01-.115.274.373.373 0 01-.273.114h-1.759a.324.324 0 01-.264-.114.359.359 0 01-.123-.274V4.291L12.201 6.55c.75 1.103 1.125 2.338 1.125 3.705 0 1.84-.649 3.408-1.947 4.707-1.298 1.298-2.867 1.947-4.707 1.947-1.84 0-3.408-.65-4.706-1.947C.656 13.663 0 12.095 0 10.255c0-1.84.655-3.412 1.965-4.716C3.264 4.24 4.833 3.59 6.672 3.59a6.54 6.54 0 013.752 1.154l2.212-2.212h-1.304a.353.353 0 01-.274-.113.385.385 0 01-.114-.284V.397c0-.113.038-.208.114-.284z"/></svg>