<?xml version="1.0" encoding="UTF-8"?>
<svg width="12px" height="20px" viewBox="0 0 12 20" version="1.1" xmlns="http://www.w3.org/2000/svg" xmlns:xlink="http://www.w3.org/1999/xlink">
    <!-- Generator: Sketch 49 (51002) - http://www.bohemiancoding.com/sketch -->
    <title>Shape</title>
    <desc>Created with Sketch.</desc>
    <defs></defs>
    <g id="Symbols" stroke="none" stroke-width="1" fill="none" fill-rule="evenodd">
        <g id="RECAP-GLOBAL-NOGRAP" transform="translate(-69.000000, -132.000000)" fill="#4A90E2" fill-rule="nonzero">
            <g id="RECAP-GLOBAL">
                <g id="noun_791680_cc" transform="translate(69.000000, 132.000000)">
                    <path d="M12,6 C12,2.7 9.3,0 6,0 C2.7,0 0,2.7 0,6 C0,9 2.2,11.4 5,11.9 L5,15 L2,15 L2,17 L5,17 L5,20 L7,20 L7,17 L10,17 L10,15 L7,15 L7,11.9 C9.8,11.4 12,9 12,6 Z M2,6 C2,3.8 3.8,2 6,2 C8.2,2 10,3.8 10,6 C10,8.2 8.2,10 6,10 C3.8,10 2,8.2 2,6 Z" id="Shape"></path>
                </g>
            </g>
        </g>
    </g>
</svg>