<svg fill="none" viewBox="0 0 14 19"><path fill="#0084FF" fill-rule="evenodd" d="M1.94.5A1.688 1.688 0 00.25 2.188v14.624c0 .932.755 1.688 1.687 1.688h10.126c.932 0 1.688-.756 1.688-1.688V5.68L8.818.51 1.94.5zm-.565 1.688c0-.311.252-.563.563-.563l6.077.01v4.833h4.61v10.344a.562.562 0 01-.562.563H1.937a.563.563 0 01-.562-.563V2.188zm10.499 3.155H9.14V2.477l2.734 2.866z" clip-rule="evenodd"/><path fill="#0084FF" fill-rule="evenodd" d="M7.003 7.249c.311 0 .563.252.563.563v5.39l1.287-1.287a.563.563 0 11.796.795l-2.433 2.435a.3.3 0 01-.424 0l-2.44-2.435a.563.563 0 01.796-.796l1.293 1.291V7.812c0-.311.252-.563.562-.563z" clip-rule="evenodd"/></svg>