<svg fill="none" viewBox="0 0 23 23"><path fill="#EDF6FF" d="M8.952 18.75a1 1 0 00-.517 1.931l.517-1.931zm4.141-15.455a8 8 0 015.657 9.798l1.932.517c1.43-5.334-1.736-10.818-7.071-12.247l-.518 1.932zM3.295 8.952a8 8 0 019.798-5.657l.518-1.932C8.276-.067 2.793 3.099 1.363 8.434l1.932.518zm5.14 11.73c5.334 1.429 10.818-1.737 12.247-7.072l-1.932-.517a8 8 0 01-9.798 5.657l-.517 1.931z"/><path fill="url(#paint0_linear_109_2811)" d="M11.023 3.022a1 1 0 100-2v2zm0 16a8 8 0 01-8-8h-2c0 5.523 4.477 10 10 10v-2zm8-8a8 8 0 01-8 8v2c5.523 0 10-4.477 10-10h-2zm-8-10c-5.523 0-10 4.478-10 10h2a8 8 0 018-8v-2z"/><defs><linearGradient id="paint0_linear_109_2811" x1="13.523" x2="20.023" y1="6.022" y2="11.023" gradientUnits="userSpaceOnUse"><stop stop-color="#0084FF"/><stop offset="1" stop-color="#0084FF" stop-opacity="0"/></linearGradient></defs></svg>