<svg fill="none" viewBox="0 0 14 17"><path stroke="#D1D5DA" stroke-width="1.5" d="M1.8 7.316a.95.95 0 00-.95.95V14c0 .966.783 1.75 1.75 1.75H11A1.75 1.75 0 0012.75 14V8.266a.95.95 0 00-.95-.95h-10z"/><path fill="#D1D5DA" d="M9.517 4.467a.75.75 0 101.5 0h-1.5zm-5.434 0c0-1.5 1.217-2.717 2.717-2.717V.25a4.217 4.217 0 00-4.217 4.217h1.5zM6.8 1.75c1.5 0 2.717 1.216 2.717 2.717h1.5A4.217 4.217 0 006.8.25v1.5zM2.583 4.467v2.166h1.5V4.467h-1.5z"/><path stroke="#D1D5DA" stroke-linecap="round" stroke-width="1.5" d="M6.8 10.666v2.6"/></svg>