<svg fill="none" viewBox="0 0 24 24"><circle cx="12.045" cy="12" r="10" stroke="#fff" stroke-opacity=".2" stroke-width="3" transform="rotate(-180 12.045 12)"/><path fill="url(#paint0_linear_1014_22343)" d="M12.045 3.5a1.5 1.5 0 000-3v3zm0 17a8.5 8.5 0 01-8.5-8.5h-3c0 6.351 5.15 11.5 11.5 11.5v-3zm8.5-8.5a8.5 8.5 0 01-8.5 8.5v3c6.352 0 11.5-5.149 11.5-11.5h-3zM12.045.5C5.695.5.545 5.649.545 12h3a8.5 8.5 0 018.5-8.5v-3z"/><defs><linearGradient id="paint0_linear_1014_22343" x1="14.823" x2="22.045" y1="6.444" y2="12" gradientUnits="userSpaceOnUse"><stop stop-color="#fff"/><stop offset="1" stop-color="#fff" stop-opacity="0"/></linearGradient></defs></svg>