<svg fill="none" viewBox="0 0 22 22"><path fill="#fff" d="M0 0h22v22H0z"/><path fill="#EDF6FF" d="M8.934 18.71a1 1 0 10-.517 1.931l.517-1.931zm4.132-15.42a7.981 7.981 0 015.644 9.776l1.932.517C22.068 8.26 18.908 2.785 13.584 1.36l-.518 1.932zM3.291 8.934a7.981 7.981 0 019.775-5.643l.518-1.932C8.259-.068 2.786 3.092 1.359 8.417l1.932.517zm5.126 11.707c5.325 1.427 10.798-1.733 12.225-7.058l-1.932-.517a7.981 7.981 0 01-9.776 5.643l-.517 1.932z"/><path fill="url(#paint0_linear_1014_22281)" d="M11 3.019a1 1 0 100-2v2zm0 15.963A7.981 7.981 0 013.019 11h-2c0 5.513 4.468 9.982 9.981 9.982v-2zM18.982 11A7.981 7.981 0 0111 18.982v2c5.513 0 9.982-4.47 9.982-9.982h-2zM11 1.019c-5.513 0-9.981 4.468-9.981 9.981h2A7.981 7.981 0 0111 3.019v-2z"/><defs><linearGradient id="paint0_linear_1014_22281" x1="13.495" x2="19.982" y1="6.01" y2="11" gradientUnits="userSpaceOnUse"><stop stop-color="#0084FF"/><stop offset="1" stop-color="#0084FF" stop-opacity="0"/></linearGradient></defs></svg>