<?xml version="1.0" encoding="UTF-8"?>
<svg width="111px" height="14px" viewBox="0 0 111 14" version="1.1" xmlns="http://www.w3.org/2000/svg" xmlns:xlink="http://www.w3.org/1999/xlink">
    <!-- Generator: Sketch 46.2 (44496) - http://www.bohemiancoding.com/sketch -->
    <title>360-learning-logo</title>
    <desc>Created with Sketch.</desc>
    <defs></defs>
    <g id="Page-1" stroke="none" stroke-width="1" fill="none" fill-rule="evenodd">
        <g id="360-learning-logo" fill-rule="nonzero" fill="#999999">
            <path d="M4.43322333,2.6990714 C3.58765297,2.6990714 2.99367011,3.00676934 2.68517221,3.85247619 C2.45908555,4.48667925 2.14872173,4.73672237 1.75376979,4.73672237 L0.936188147,4.73672237 C0.751773574,4.73672237 0.231183366,4.56314127 0.231183366,3.6980106 C0.231183366,1.44885584 2.27560393,0.0454079261 4.19345329,0.0454079261 L5.13853909,0.0454079261 C7.43641309,0.0454079261 9.28460161,0.968501737 9.28460161,4.1595575 C9.28460161,5.17853714 8.98885413,6.17840128 8.33951581,6.85176029 C9.12848675,7.52419436 9.42423423,8.40874884 9.42423423,9.56184533 C9.42423423,12.5802449 7.92994752,13.6571878 5.43335363,13.6571878 L3.96798859,13.6571878 C2.04982826,13.6571878 0.00602965607,12.2531232 0.00602965607,9.90808259 C0.00602965607,9.0426436 0.527241836,8.87029575 0.710101479,8.87029575 L1.52830509,8.87029575 C1.92418999,8.87029575 2.24699325,9.11972224 2.51475201,9.90808259 C2.75483304,10.6008654 3.36094433,11.0038326 4.20806962,11.0038326 L5.19482752,11.0038326 C6.28141186,11.0038326 6.83030178,10.6585202 6.83030178,9.56184533 C6.83030178,8.46547873 6.28141186,8.12047473 5.19482752,8.12047473 L3.9546162,8.12047473 C3.60102536,8.12047473 3.30527788,7.73569815 3.30527788,7.23592024 L3.30527788,6.46667539 C3.30527788,6.0054368 3.58765297,5.58212091 3.92507255,5.58212091 L4.94044114,5.58212091 C6.15328572,5.58212091 6.6900472,5.19796095 6.6900472,4.14075031 C6.6900472,3.08323135 6.15328572,2.6990714 4.94044114,2.6990714 L4.43322333,2.6990714" id="Fill-1"></path>
            <path d="M16.0676245,5.23619196 C18.5645294,5.23619196 20.0591271,6.31313474 20.0591271,9.44715231 C20.0591271,12.5802449 18.5645294,13.6571878 16.0676245,13.6571878 L14.5593433,13.6571878 C12.0633715,13.6571878 10.5687738,12.5802449 10.5687738,9.0426436 L10.5687738,4.89026302 C10.5687738,1.16058171 12.0633715,0.0454079261 14.5301108,0.0454079261 L16.2790948,0.0454079261 C18.3384427,0.0454079261 19.9023902,1.44885584 19.9023902,3.31385065 C19.9023902,4.178673 19.382422,4.35132916 19.1983183,4.35132916 L18.3801148,4.35132916 C17.9851628,4.35132916 17.7307765,4.10190267 17.4490234,3.4673913 C17.2378639,2.9870372 16.7443296,2.6990714 16.0390138,2.6990714 L14.7708137,2.6990714 C13.7125291,2.6990714 13.1636392,3.10203853 13.1636392,4.89026302 L13.1636392,5.23619196 L16.0676245,5.23619196 L16.0676245,5.23619196 Z M13.1636392,7.88923881 L13.1636392,9.0426436 C13.1636392,10.6585202 13.7125291,11.0038326 14.7988025,11.0038326 L15.8281654,11.0038326 C16.9131949,11.0038326 17.4639507,10.6585202 17.4639507,9.44715231 C17.4639507,8.23516775 16.9131949,7.88923881 15.8281654,7.88923881 L13.1636392,7.88923881 L13.1636392,7.88923881 Z" id="Fill-2"></path>
            <path d="M26.6564609,0.0454079261 C29.3928248,0.0454079261 31.6070436,1.67978344 31.6070436,6.85176029 C31.6070436,12.0234288 29.3928248,13.6571878 26.6564609,13.6571878 L26.1778538,13.6571878 C23.4414899,13.6571878 21.227893,12.0234288 21.227893,6.85176029 C21.227893,1.67978344 23.4414899,0.0454079261 26.1778538,0.0454079261 L26.6564609,0.0454079261 L26.6564609,0.0454079261 Z M23.8230693,6.85176029 C23.8230693,10.0233922 24.9646982,11.0038326 26.4170019,11.0038326 C27.8699275,11.0038326 29.0121782,10.0233922 29.0121782,6.85176029 C29.0121782,3.6792034 27.8699275,2.6990714 26.4170019,2.6990714 C24.9646982,2.6990714 23.8230693,3.6792034 23.8230693,6.85176029 L23.8230693,6.85176029 Z" id="Fill-3"></path>
            <path d="M42.588758,10.9774668 L36.5135131,10.9774668 L36.5135131,0.967065749 C36.5135131,0.462056724 36.2281645,0.0536852294 35.8557925,0.0536852294 L34.5400359,0.0536852294 C34.1692404,0.0536852294 33.8832612,0.462056724 33.8832612,0.967065749 L33.8832612,12.784277 C33.8832612,13.2705819 34.183429,13.6590024 34.5400359,13.6590024 L42.588758,13.6590024 C42.9463108,13.6590024 43.2467939,13.2705819 43.2467939,12.7655729 L43.2467939,11.8718316 C43.2467939,11.3658874 42.9463108,10.9774668 42.588758,10.9774668" id="Fill-1"></path>
            <path d="M48.6636877,4.02985196 C45.4999443,4.02985196 43.5702941,5.76153414 43.5702941,8.94215579 C43.5702941,12.1402345 45.4826026,13.8360673 48.6636877,13.8360673 C51.5231643,13.8360673 53.4357881,13.2004418 53.4357881,11.3624583 C53.4357881,11.0622585 53.2024644,10.8328223 52.8991436,10.8328223 L51.5947379,10.8328223 C51.1479546,10.8328223 50.8254003,11.0092637 50.5942837,11.2923182 C50.2900169,11.6626581 49.6285128,11.8746372 48.8780932,11.8746372 C47.4122527,11.8746372 46.7696667,11.2564687 46.6441763,9.84337869 L53.2210672,9.84337869 C53.5247033,9.84337869 53.7570811,9.61363075 53.7570811,9.31249574 L53.7570811,8.81839741 C53.7570811,5.70853936 51.844142,4.02985196 48.6636877,4.02985196 L48.6636877,4.02985196 Z M46.6262042,8.0234758 C46.6977777,6.69829471 47.3769389,5.99097034 48.6636877,5.99097034 C49.9860656,5.99097034 50.6292822,6.69829471 50.6828836,8.0234758 L46.6262042,8.0234758 L46.6262042,8.0234758 Z" id="Fill-2"></path>
            <path d="M60.0568431,4.02985196 C57.1614219,4.02985196 55.3033454,4.66578925 55.3033454,6.50346097 C55.3033454,6.80366079 55.5350926,7.03372046 55.8387288,7.03372046 L57.143765,7.03372046 C57.5905484,7.03372046 57.912472,6.8569673 58.1442192,6.57453632 C58.4481707,6.20326117 59.1093597,5.99097034 59.8421222,5.99097034 C61.0396403,5.99097034 61.6302015,6.41524026 61.6302015,7.79310439 L58.7341499,7.79310439 C56.3930302,7.79310439 54.6055814,8.80094031 54.6055814,10.7969729 C54.6055814,12.7936289 56.3930302,13.8360673 58.7341499,13.8360673 C60.1101291,13.8360673 61.0932417,13.4298779 61.8978932,12.865016 L61.8978932,13.128743 C61.8978932,13.4298779 62.1296404,13.6590024 62.4335918,13.6590024 L64.1132073,13.6590024 C64.417474,13.6590024 64.6498518,13.4298779 64.6498518,13.128743 L64.6498518,7.79310439 C64.6498518,5.09037091 62.6309711,4.02985196 60.0568431,4.02985196 L60.0568431,4.02985196 Z M61.6302015,11.0974844 C61.0030653,11.4862167 60.1101291,11.8746372 59.037786,11.8746372 C58.1085901,11.8746372 57.6264929,11.4163883 57.6264929,10.7969729 C57.6264929,10.2143421 58.1085901,9.75422277 58.9488708,9.75422277 L61.6302015,9.75422277 L61.6302015,11.0974844 L61.6302015,11.0974844 Z" id="Fill-3"></path>
            <path d="M72.6900064,4.02985196 C70.7244119,4.02985196 69.8131882,4.56042317 68.8121034,5.2848929 L68.8121034,4.73655285 C68.8121034,4.43635305 68.579095,4.20660511 68.2760894,4.20660511 L66.3281517,4.20660511 C66.0238851,4.20660511 65.7918225,4.43635305 65.7918225,4.73655285 L65.7918225,13.128743 C65.7918225,13.4298779 66.0238851,13.6590024 66.3281517,13.6590024 L68.2760894,13.6590024 C68.579095,13.6590024 68.8121034,13.4298779 68.8121034,13.128743 L68.8121034,7.61666296 C69.4550048,6.8569673 70.169795,6.34416492 71.0636771,6.34416492 C71.5278022,6.34416492 71.9935036,6.3971597 72.403712,6.3971597 L72.6900064,6.3971597 C72.9936426,6.3971597 73.2269662,6.16834697 73.2269662,5.86752369 L73.2269662,4.56042317 C73.2269662,4.25959989 72.9936426,4.02985196 72.6900064,4.02985196" id="Fill-4"></path>
            <path d="M80.441431,4.02985196 C79.1013962,4.02985196 78.2071988,4.59502564 77.3858364,5.2848929 L77.3858364,4.73655285 C77.3858364,4.43635305 77.152828,4.20660511 76.8495072,4.20660511 L74.9006235,4.20660511 C74.5973027,4.20660511 74.3652402,4.43635305 74.3652402,4.73655285 L74.3652402,13.128743 C74.3652402,13.4298779 74.5973027,13.6590024 74.9006235,13.6590024 L76.8495072,13.6590024 C77.152828,13.6590024 77.3858364,13.4298779 77.3858364,13.128743 L77.3858364,7.35168909 C78.0293684,6.71512833 78.8510462,6.11441698 79.7266406,6.11441698 C80.7088075,6.11441698 81.3882839,6.71512833 81.3882839,8.18214838 L81.3882839,13.128743 C81.3882839,13.4298779 81.620977,13.6590024 81.9246131,13.6590024 L83.8725507,13.6590024 C84.1768175,13.6590024 84.4085647,13.4298779 84.4085647,13.128743 L84.4085647,8.18214838 C84.4085647,5.2490435 82.7639479,4.02985196 80.441431,4.02985196" id="Fill-5"></path>
            <path d="M86.0665222,4.41889595 C85.7632014,4.41889595 85.5308236,4.64864388 85.5308236,4.94884369 L85.5308236,13.128743 C85.5308236,13.4298779 85.7632014,13.6590024 86.0665222,13.6590024 L88.0154058,13.6590024 C88.3187266,13.6590024 88.5504738,13.4298779 88.5504738,13.128743 L88.5504738,4.94884369 C88.5504738,4.64864388 88.3187266,4.41889595 88.0154058,4.41889595 L86.0665222,4.41889595 Z" id="Fill-6"></path>
            <path d="M87.5862794,1.00306365 L86.4959639,1.00306365 C85.8704041,1.00306365 85.4951944,1.375274 85.4951944,1.99281898 L85.4951944,2.29364226 C85.4951944,2.91181073 85.8704041,3.2824624 86.4959639,3.2824624 L87.5862794,3.2824624 C88.2105779,3.2824624 88.586103,2.91181073 88.586103,2.29364226 L88.586103,1.99281898 C88.586103,1.375274 88.2105779,1.00306365 87.5862794,1.00306365" id="Fill-7"></path>
            <path d="M95.7489234,4.02985196 C94.4095193,4.02985196 93.5156372,4.59502564 92.6933288,5.2848929 L92.6933288,4.73655285 C92.6933288,4.43635305 92.4615816,4.20660511 92.1573148,4.20660511 L90.2093772,4.20660511 C89.9051105,4.20660511 89.6730479,4.43635305 89.6730479,4.73655285 L89.6730479,13.128743 C89.6730479,13.4298779 89.9051105,13.6590024 90.2093772,13.6590024 L92.1573148,13.6590024 C92.4615816,13.6590024 92.6933288,13.4298779 92.6933288,13.128743 L92.6933288,7.35168909 C93.3371762,6.71512833 94.1585386,6.11441698 95.0347638,6.11441698 C96.0175611,6.11441698 96.6967222,6.71512833 96.6967222,8.18214838 L96.6967222,13.128743 C96.6967222,13.4298779 96.9284694,13.6590024 97.2327361,13.6590024 L99.1806738,13.6590024 C99.4843099,13.6590024 99.7173183,13.4298779 99.7173183,13.128743 L99.7173183,8.18214838 C99.7173183,5.2490435 98.0736475,4.02985196 95.7489234,4.02985196" id="Fill-8"></path>
            <path d="M110.139201,8.19835855 L107.073517,8.19835855 C106.615698,8.19835855 106.229137,8.59394894 106.229137,9.06186163 L106.229137,9.5553365 C106.229137,10.0238727 106.615698,10.4188396 107.073517,10.4188396 L108.16131,10.4188396 C108.089106,10.9356945 107.776956,11.3926965 106.611599,11.3926965 L105.359849,11.3926965 C104.197645,11.3926965 103.679918,11.0264091 103.679918,8.85455855 C103.679918,6.83732806 104.095171,6.31548539 105.698168,6.31548539 L106.787222,6.31548539 C107.465753,6.31548539 107.930509,6.49348549 108.096042,6.81893575 C108.352698,7.31895703 108.701423,7.56242126 109.163025,7.56242126 L109.888536,7.56242126 C110.234423,7.56242126 110.783049,7.29994126 110.783049,6.59511076 C110.783049,5.03581747 108.826282,3.99026174 106.998475,3.99026174 L105.635738,3.99026174 C102.452131,3.99026174 100.838098,5.6271768 100.838098,8.85455855 C100.838098,12.0367389 102.380873,13.7179201 105.298365,13.7179201 L106.673083,13.7179201 C109.452473,13.7179201 110.983266,12.3129352 110.983266,9.76357479 L110.983266,9.06186163 C110.983266,8.59394894 110.595759,8.19835855 110.139201,8.19835855" id="Fill-9"></path>
        </g>
    </g>
</svg>