<svg id="Calque_1" data-name="Calque 1" xmlns="http://www.w3.org/2000/svg" viewBox="0 0 1920 1102"><title>CONCRET</title><path d="M1598.22,1052.77H1662V961.23h-63.82Zm-110.23,0h71.55V659.52H1615V593.11H1431.26v66.41H1488Zm-212.74,0h145v-67h-74.14V849.05h58.67V781.36h-58.67V659.52H1419V593.11H1275.25Zm-130.87-254V658.87h10.32q13.53,0,20.3,16.12t6.77,53.51q0,41.91-7.09,56.09t-17.41,14.18Zm-71.56,254h71.56V852.93h16.11l25.79,199.84h71.56L1225.61,831a146.44,146.44,0,0,0,9.67-12.57,89.92,89.92,0,0,0,9.67-19.34q4.5-11.93,7.41-30t2.9-44.48q0-38.68-7.74-64.14t-21-40.62q-13.21-15.14-30.94-21a118.39,118.39,0,0,0-37.07-5.81h-85.74Zm-42.23-20q22.26-25.77,22.25-65.76V890.31h-67v74.14q0,10.32-3.87,17.73t-14.83,7.42q-9.66,0-14.5-7.1t-4.84-18V678.22q0-10.32,3.55-16.77T966.45,655q10.31,0,14.82,6.76t4.52,17.73v76.72h67V672.41q0-39.31-22.25-62.53t-62.85-23.21q-42.56,0-67.7,24.17t-25.14,64.8V970.9q0,40.61,22.57,64.15t68.33,23.53q42.56,0,64.79-25.79m-373.58,20h61.24v-274h2.57l61.9,274h70.91V593.11H791.1V837.45h-1.94L733.72,593.11H657ZM529,982.18a30.38,30.38,0,0,1-4.2-15.15V676.28a23.94,23.94,0,0,1,4.2-13.86q4.19-6.12,14.5-6.13t14.83,5.81a22.46,22.46,0,0,1,4.51,14.18V966.39A33.72,33.72,0,0,1,559,982.18q-3.87,7.43-14.83,7.42T529,982.18m81.87,51.25q24.81-25.14,24.82-70.27V678.86q0-43.83-24.49-68t-67-24.17q-42.56,0-67.37,24.5t-24.82,69v283q0,44.49,21.59,70t69.95,25.46q42.56,0,67.37-25.15m-198.56-.64Q434.6,1007,434.59,967V890.31h-67v74.14q0,10.32-3.87,17.73t-14.83,7.42q-9.68,0-14.51-7.1t-4.83-18V678.22q0-10.32,3.55-16.77T348.21,655q10.29,0,14.82,6.76t4.52,17.73v76.72h67V672.41q0-39.31-22.24-62.53T349.5,586.67q-42.56,0-67.7,24.17t-25.14,64.8V970.9q0,40.61,22.57,64.15t68.33,23.53q42.56,0,64.79-25.79"/><path d="M1841.58,490.84q24.48-24.49,24.5-69v-372h-67.69V422.5a36.48,36.48,0,0,1-3.87,17.08q-3.87,7.43-14.83,7.41-9,0-13.54-6.12t-4.51-17.08V49.87h-72.85V425.08q0,45.78,22.56,68t63.83,22.24q41.89,0,66.4-24.49m-280.43-48.36V116.27H1574q13.55,0,18.7,7.09t5.16,17.41v274a38,38,0,0,1-4.84,19.34q-4.83,8.38-19,8.38Zm-70.92,67h89.61q38.69,0,64.15-21.6t25.47-64.79V133.68q0-40-25.47-61.89t-62.86-21.92h-90.9Zm-205,0h71.56V116.27h55.44V49.87H1228.51v66.4h56.73Zm-109-2.58A81,81,0,0,0,1203,485a91.41,91.41,0,0,0,15.8-31.27,129.92,129.92,0,0,0,5.15-36.42,173.63,173.63,0,0,0-4.19-38,314.76,314.76,0,0,0-10.64-36.74,332.34,332.34,0,0,0-14.5-34.49q-8.07-16.44-15.79-31.27L1155,231.67q-4.52-7.74-10.32-20t-11.27-25.47a245.29,245.29,0,0,1-9.35-26.75,89.63,89.63,0,0,1-3.87-24.5q0-12.9,2.9-21.27t13.86-8.39q5.8,0,9.35,5.8a53.58,53.58,0,0,1,5.8,15.15,140.36,140.36,0,0,1,3.22,21.93q1,12.56,1,26.1h65.11Q1222.05,104.68,1203,74t-65.43-30.62q-23.86,0-40.3,8.06a75.6,75.6,0,0,0-26.75,21.27,86.75,86.75,0,0,0-15.15,31,140.44,140.44,0,0,0-4.84,37.07A189.69,189.69,0,0,0,1063.79,211a636.68,636.68,0,0,0,28,61.89l32.24,60.6q15.47,29,23.2,50.29t7.74,38q0,12.88-3.22,20.95t-12.89,8.06q-12.92,0-17.73-17.09t-4.84-58.35h-67q-1.93,38.69,3.87,65.44t17.73,43.2q11.92,16.43,29,23.84a93.56,93.56,0,0,0,37.72,7.42q22.55,0,38.67-8.38m-281.73,2.58h145.06v-67H965.47V305.81h58.67V238.12H965.47V116.27h72.85V49.87H894.55Zm-83.8-297.84h36.11l23.85-79.95V48.58H806.89V135h20ZM764.66,489.55q22.25-25.79,22.25-65.76V347.07h-67V421.2q0,10.32-3.87,17.73t-14.83,7.42q-9.67,0-14.5-7.09t-4.84-18.06V135q0-10.31,3.55-16.76t15.15-6.45q10.31,0,14.83,6.77t4.51,17.73V213h67v-83.8q0-39.31-22.25-62.54T701.81,43.42q-42.55,0-67.69,24.18T609,132.39V427.65q0,40.62,22.57,64.15t68.34,23.53q42.54,0,64.78-25.78m-298.8,91.54H502l23.85-79.94V418H462v87h20Zm-147-245,18.69-189.54h2.58l18.06,189.54ZM237,509.53h62.53l12.25-110.24h52.87l11.6,110.24h71.56L395,49.87H289.88Zm-53.5,100.89q18-11.94,18-35.13,0-11.61-5.15-18.7a39.44,39.44,0,0,0-12.57-11.28,46.4,46.4,0,0,0-16.44-5.48,117.69,117.69,0,0,0-16.76-1.29l3.87-23.86q38-3.22,57.7-28.36t19.66-62.53V347.07H164.81V421.2q0,10.32-3.87,17.73t-14.83,7.42q-9.66,0-14.5-7.09t-4.84-18.06V135q0-10.31,3.55-16.76t15.15-6.45q10.31,0,14.82,6.77t4.52,17.73V213h67.05v-83.8q0-39.31-22.25-62.54T146.76,43.42q-42.55,0-67.7,24.18T53.92,132.39V427.65Q53.92,464.4,72,487T126.77,514L117.1,565l19.35,1.29a71.39,71.39,0,0,1,12.88,2.26q5.82,1.61,5.81,8.7,0,11.61-16.76,11.61A125.68,125.68,0,0,1,120,587.21q-10.65-1.61-21.6-4.19v33.53a169.33,169.33,0,0,0,23.53,4.51,175.8,175.8,0,0,0,19.66,1.29q23.85,0,41.91-11.93"/></svg>
