<?xml version="1.0" encoding="UTF-8"?>
<svg width="247px" height="95px" viewBox="0 0 247 95" version="1.1" xmlns="http://www.w3.org/2000/svg" xmlns:xlink="http://www.w3.org/1999/xlink">
    <!-- Generator: sketchtool 42 (36781) - http://www.bohemiancoding.com/sketch -->
    <title>E9579D51-B77A-4116-8C2E-6EF11DC08097</title>
    <desc>Created with sketchtool.</desc>
    <defs></defs>
    <g id="En-Marche" stroke="none" stroke-width="1" fill="none" fill-rule="evenodd">
        <g id="Je-donne---Step-#1" transform="translate(-667.000000, -654.000000)" fill="#FEFEFE">
            <g id="Page-1" transform="translate(667.000000, 654.000000)">
                <path d="M116.383303,39.0921519 C116.395169,39.0934254 116.406951,39.0946988 116.418817,39.0960572 C116.40611,39.2307891 116.39155,39.3654361 116.38162,39.5004227 C116.377665,39.5536533 116.38061,39.6080724 116.387343,39.6610483 C116.389951,39.6814236 116.407624,39.7062136 116.42555,39.7170804 C116.482187,39.7514638 116.531251,39.7370313 116.566596,39.6804048 C116.75233,39.3829249 116.920391,39.0722011 117.12809,38.7912761 C117.350264,38.4909097 117.458153,38.1099759 117.767681,37.8722636 C117.785859,37.8582556 117.794275,37.8242967 117.797304,37.7984879 C117.823814,37.5656997 117.956866,37.4054138 118.130397,37.2628713 C118.18695,37.2164325 118.230459,37.1306863 118.242157,37.0568257 C118.272537,36.8658919 118.333804,36.6921072 118.432014,36.5258785 C118.555641,36.3163521 118.666391,36.099185 118.781686,35.8847346 C118.935188,35.5992252 119.074214,35.3046318 119.244295,35.0296497 C119.425653,34.7364147 119.516711,34.3802708 119.827333,34.1712538 C119.879763,34.1359366 119.903495,34.0292207 119.907198,33.953832 C119.915445,33.787773 119.957187,33.6393727 120.031329,33.4893592 C120.174984,33.1985862 120.280685,32.8879473 120.433261,32.6025228 C120.687836,32.126504 120.84361,31.5988677 121.182425,31.165807 C121.262374,31.0635058 121.306135,30.9236801 121.33904,30.7939571 C121.512824,30.1090912 121.800808,29.4674379 122.071372,28.8199267 C122.154856,28.6199937 122.231018,28.4268525 122.278229,28.2111287 C122.375935,27.7638052 122.504611,27.3264147 122.788219,26.9431037 C122.997938,26.6596318 123.098253,26.3185996 123.052892,25.949042 C123.043635,25.8739929 123.069303,25.7906238 123.09354,25.7159991 C123.352995,24.91805 123.617668,24.1219687 123.875608,23.3235103 C123.959344,23.064319 124.103421,22.8312761 124.197929,22.5832913 C124.300936,22.3128937 124.282338,21.9974155 124.337965,21.7057087 C124.378445,21.4936354 124.447033,21.2861466 124.514021,21.0802708 C124.674508,20.5875273 124.736279,20.0765308 124.785258,19.5649401 C124.818669,19.2147391 124.808991,18.8619911 124.888687,18.5141671 C124.923865,18.360588 124.904677,18.1907936 124.890286,18.030168 C124.87093,17.8146139 124.813114,17.6015219 124.806382,17.3863074 C124.796704,17.0749893 124.675434,16.8088365 124.535145,16.5447212 C124.423132,16.3339214 124.244215,16.2327239 124.012279,16.2203289 C123.791115,16.2083584 123.590906,16.260655 123.403826,16.3902931 C123.044897,16.6389571 122.746477,16.9500206 122.470191,17.2836667 C121.829927,18.0569955 121.291155,18.8955255 120.867174,19.8104629 C120.571363,20.4486354 120.28868,21.0895246 120.049675,21.753336 C119.848456,22.3121296 119.653718,22.8732154 119.466553,23.4365085 C119.321719,23.8728803 119.197925,24.3173172 119.086922,24.7637918 C118.969944,25.234462 118.748023,25.6762672 118.710237,26.1686711 C118.706197,26.2205433 118.669757,26.2691046 118.655703,26.3211466 C118.514825,26.844538 118.360818,27.3648731 118.238706,27.8926792 C117.927747,29.2371117 117.696064,30.5989482 117.374501,31.9414281 C117.292869,32.2820357 117.247088,32.6318123 117.192638,32.9786175 C117.108734,33.5133003 117.053106,34.0535013 116.946985,34.5835996 C116.728682,35.6740197 116.584353,36.7725049 116.51888,37.8824513 C116.512484,37.9905255 116.49136,38.0975809 116.47941,38.2054004 C116.446757,38.5009276 116.415283,38.7965398 116.383303,39.0921519 M90.2153572,48.1461019 C90.3017862,48.0088231 90.3792945,47.8646676 90.4759906,47.7352842 C91.0106383,47.0202797 91.4521245,46.2452529 91.8952938,45.472773 C92.0969334,45.1212985 92.3361068,44.794529 92.5238604,44.4344799 C92.6989064,44.0988811 92.8976005,43.7759321 93.0811463,43.4446631 C93.1860056,43.2554272 93.3217504,43.0710304 93.3725811,42.8664281 C93.479965,42.4339616 93.7980775,42.1886935 94.1035664,41.9257668 C94.1385756,41.8957131 94.2183562,41.8749982 94.252103,41.8944397 C94.4390151,42.0021743 94.6117047,41.8926568 94.7911269,41.8835728 C94.9881378,41.8734701 95.1556938,41.8296631 95.3110472,41.7055433 C95.3676005,41.660378 95.4773409,41.614958 95.5266567,41.6405121 C95.7176083,41.7395022 95.8915603,41.6414459 96.0730022,41.632277 C96.2037817,41.625655 96.3363286,41.6556238 96.4543163,41.667849 C96.5014441,41.7229473 96.5494134,41.7580098 96.5686853,41.8051278 C96.6600795,42.0286622 96.8769514,42.2156908 96.8479173,42.4686845 C96.8113933,42.7878981 96.8397541,43.1161108 96.708133,43.4267498 C96.5287109,43.8499625 96.3836247,44.2877775 96.2107667,44.7139616 C95.9337228,45.3968749 95.833408,46.1235103 95.6952226,46.8390241 C95.6542383,47.0511823 95.5988632,47.2594352 95.5612451,47.4704897 C95.518746,47.7083718 95.5258151,47.9553378 95.5120976,48.1983986 C95.5081422,48.2673351 95.538607,48.3041805 95.599873,48.3067274 C95.6243627,48.3076613 95.6576046,48.3156416 95.6722478,48.3030769 C95.8156509,48.1802306 95.974118,48.069185 96.0939572,47.9256238 C96.6656339,47.2407578 97.2186277,46.5398463 97.7059794,45.7907131 C97.8521596,45.5658204 97.931856,45.2975451 98.0720611,45.0678132 C98.2850618,44.7188007 98.4536277,44.3584969 98.540225,43.9545559 C98.6283371,43.5433986 98.8675105,43.2209589 99.1841923,42.9504763 C99.3137095,42.8398552 99.4382615,42.7817006 99.6176836,42.7933315 C99.9361327,42.8140465 100.260809,42.8272055 100.539284,42.6085103 C100.597941,42.5625809 100.686137,42.5372815 100.761879,42.534395 C101.029244,42.5242073 101.297115,42.5293012 101.564818,42.5259053 C101.750131,42.523613 101.867361,42.6299044 101.94386,42.7808517 C102.017076,42.9253467 102.081456,43.0768034 102.12749,43.2319106 C102.157365,43.3323441 102.179414,43.4548508 102.150044,43.5503601 C101.99671,44.0487918 102.080025,44.5782958 101.936791,45.0780858 C101.862312,45.3377864 101.819813,45.6071653 101.770329,45.8735728 C101.745755,46.0061823 101.707464,46.1466872 101.727324,46.2754763 C101.834372,46.9678132 101.875356,47.6736488 102.112342,48.3411957 C102.157534,48.4683718 102.198939,48.5991135 102.262393,48.7170357 C102.662474,49.460311 103.138717,50.1469598 103.760299,50.7223083 C103.820639,50.7781707 103.962948,50.7981215 103.981967,50.7534656 C104.001997,50.7064325 104.021521,50.658975 104.036838,50.6103289 C104.044748,50.5850295 104.047526,50.5561644 104.045085,50.5295916 C104.020427,50.2607221 103.947211,49.9855702 103.98222,49.7251055 C104.014452,49.4853557 104.067471,49.2478132 104.071258,49.0031394 C104.075381,48.7316381 104.082282,48.4601367 104.087332,48.1885505 C104.088846,48.107134 104.079421,48.0243592 104.09053,47.9443861 C104.120153,47.7316336 104.206666,47.5134477 104.179231,47.3098642 C104.151964,47.1070447 104.006036,46.922563 103.926845,46.7239884 C103.863896,46.5659097 103.886365,46.3994263 103.956889,46.2486488 C104.071679,46.0030411 104.192359,45.7578579 104.399385,45.5740554 C104.795342,45.222496 105.036199,44.7826434 105.177161,44.2723262 C105.328391,43.7249088 105.493675,43.1805478 105.676295,42.6429786 C105.964784,41.7940063 106.322534,40.9755121 106.84094,40.239538 C107.012283,39.9962225 107.208789,39.7721787 107.449982,39.5921117 C107.585727,39.4908293 107.719957,39.412639 107.889701,39.509252 C108.182566,39.4898105 108.471813,39.4568704 108.738842,39.3175541 C108.808861,39.2809634 108.894953,39.2249312 108.960595,39.239109 C109.280559,39.3083003 109.600691,39.1443637 109.956254,39.2626256 C110.080469,39.4269017 110.231362,39.6137605 110.367612,39.8108919 C110.460016,39.9445201 110.512025,40.0848552 110.462709,40.2664504 C110.414066,40.4456685 110.402284,40.6416962 110.410111,40.8288097 C110.444279,41.651294 110.358354,42.106513 110.018361,42.7771162 C109.993788,42.8254227 109.960882,42.8701635 109.941526,42.9203378 C109.655393,43.6621698 109.198927,44.3000027 108.719234,44.9195827 C108.348944,45.3978937 108.071059,45.9128803 107.939438,46.5082645 C107.89879,46.692067 107.827088,46.869672 107.761194,47.0469374 C107.6852,47.2514549 107.618632,47.4552082 107.625954,47.6786577 C107.629573,47.7862225 107.627721,47.8993905 107.598939,48.0016068 C107.388295,48.7499759 107.532119,49.5103155 107.467571,50.2317721 C107.612152,50.329319 107.719115,50.3476568 107.813118,50.2765979 C108.071143,50.0815889 108.324791,49.8803825 108.575831,49.6762046 C108.764258,49.5229651 108.939893,49.3533405 109.131938,49.2051099 C109.582682,48.8575407 109.993198,48.4741448 110.348508,48.0227462 C110.58137,47.7268794 110.873057,47.4779607 111.139329,47.2090063 C111.786662,46.5551278 112.376012,45.8517542 112.93313,45.1181573 C113.097319,44.9020089 113.17811,44.6710885 113.09976,44.4379607 C112.994648,44.1252842 112.99793,43.7980054 112.905695,43.4853289 C112.805885,43.1468436 112.751014,42.792143 112.790652,42.4384611 C112.828186,42.1030322 112.638665,41.8030054 112.670897,41.4756416 C112.699931,41.1805389 112.815647,40.8991895 112.792672,40.5931349 C112.776514,40.377496 112.795197,40.1588856 112.802266,39.9418034 C112.806726,39.8063074 112.789474,39.6607936 112.831973,39.537353 C113.022757,38.983908 112.963679,38.4106819 112.986401,37.8441626 C112.996247,37.6000831 112.955431,37.3479383 113.002559,37.112773 C113.071567,36.7690241 113.084443,36.4084656 113.200075,36.08263 C113.31983,35.7451635 113.277751,35.3798508 113.42856,35.0555433 C113.439332,35.0322815 113.440595,35.0017185 113.43807,34.9753155 C113.38017,34.3705925 113.578023,33.7948195 113.643076,33.2041046 C113.70207,32.6685728 113.815345,32.1363521 113.941411,31.6116872 C114.143977,30.7685728 114.340146,29.9259678 114.489019,29.070034 C114.576879,28.565235 114.678119,28.0559366 114.813528,27.562429 C115.063894,26.6496139 115.32579,25.7393458 115.589789,24.8302663 C115.680258,24.5186086 115.796983,24.2112806 115.834265,23.8909634 C115.882318,23.4775987 116.033968,23.1077015 116.203208,22.7382288 C116.336933,22.4460125 116.493296,22.1690777 116.526538,21.8299133 C116.546483,21.6260751 116.725905,21.4433762 116.778587,21.2368213 C116.962385,20.5174021 117.380897,19.9071609 117.668881,19.2366425 C117.9365,18.6135818 118.328081,18.0590331 118.743983,17.5250295 C118.992919,17.2053065 119.238909,16.8831215 119.491884,16.5665398 C120.087461,15.8208874 120.785542,15.1884879 121.587555,14.6765576 C121.695949,14.6072815 121.83506,14.5667855 121.963904,14.5544754 C122.233963,14.5287516 122.495017,14.4768794 122.751695,14.3892654 C122.877846,14.3461376 123.011235,14.3221966 123.14294,14.297916 C123.406939,14.249185 123.678429,14.2289794 123.935275,14.155798 C124.411182,14.0201323 124.891128,14.0251412 125.37688,14.0435639 C126.122256,14.0719196 126.696289,14.4499669 127.217977,14.9388052 C127.274278,14.9916113 127.30752,15.0712449 127.346064,15.1414549 C127.410107,15.2582735 127.458665,15.3855344 127.534743,15.4933539 C127.595167,15.5789303 127.686982,15.6418391 127.737897,15.6896363 C127.824663,16.2033494 127.905033,16.6838677 127.987169,17.1640465 C128.023441,17.3763744 128.092197,17.5852216 127.942903,17.7910125 C127.905874,17.8419508 127.916646,17.954185 127.94467,18.0216783 C127.998699,18.151571 128.006778,18.278832 128.003833,18.4166202 C127.993397,18.9043548 128.018392,19.3954853 127.823064,19.8593637 C127.830722,20.0971609 127.606781,20.3127149 127.756412,20.5642654 C127.723001,20.781008 127.657864,20.9820447 127.510422,21.1525183 C127.419027,21.2583003 127.360286,21.3977864 127.40876,21.5299714 C127.523971,21.8439214 127.358435,22.1138945 127.294475,22.3971117 C127.273857,22.4887158 127.172616,22.5716604 127.091405,22.6373709 C126.925616,22.7715934 126.854757,22.9237292 126.936725,23.133765 C126.975858,23.2341135 126.99412,23.3345469 126.961972,23.4483092 C126.822524,23.9420715 126.702012,24.4415219 126.556842,24.9335013 C126.365722,25.5808427 126.180409,26.2297122 125.829475,26.81805 C125.679339,27.0698552 125.589628,27.3514593 125.546035,27.6560706 C125.497056,27.9980366 125.431077,28.3493414 125.201329,28.6394352 C125.139979,28.7168615 125.122643,28.8397078 125.110103,28.9448105 C125.064322,29.3297346 124.946166,29.6795112 124.707666,29.9921028 C124.612653,30.1165621 124.558708,30.2783762 124.508214,30.4306819 C124.388712,30.7911555 124.255576,31.1454316 124.082129,31.482983 C123.93334,31.7723977 123.841693,32.081084 123.736245,32.3878177 C123.55211,32.9236041 123.327075,33.449118 123.073763,33.9558695 C122.553169,34.9973038 122.005057,36.024815 121.462246,37.0548731 C121.348971,37.2698329 121.212469,37.4727373 121.081857,37.6781037 C120.791517,38.1347659 120.518596,38.6002574 120.291373,39.0936801 C120.201494,39.2886041 120.05565,39.4565308 119.95483,39.6472949 C119.752013,40.0309455 119.411346,40.3116157 119.209959,40.6980679 C119.022626,41.057353 118.805418,41.4011868 118.595279,41.7480769 C118.511543,41.8862046 118.420317,42.0218704 118.317056,42.1455657 C118.1256,42.3747033 117.961578,42.6148776 117.829705,42.8881618 C117.714326,43.1274021 117.527245,43.3325139 117.364823,43.5473038 C117.267117,43.6765174 117.149045,43.7901948 117.052433,43.9200876 C116.935624,44.0772324 116.876882,44.2571296 116.914584,44.4562136 C117.000004,44.9076971 117.036696,45.3682645 117.228489,45.7980143 C117.338061,46.0434522 117.40202,46.3110483 117.473049,46.5723619 C117.83366,47.8994754 117.832061,47.8998999 118.375461,49.0767453 C118.487895,49.5894397 118.789091,50.0180009 119.026918,50.4680411 C119.263988,50.9165532 119.554413,51.3477462 119.910227,51.7206148 C120.283631,52.1118213 120.656193,52.5043012 121.039611,52.8854048 C121.527636,53.3704227 122.11303,53.7091626 122.762383,53.9068034 C123.45575,54.117773 124.155766,54.3240733 124.892811,54.3270447 C124.968468,54.3273843 125.044209,54.3715308 125.119361,54.397 C125.176756,54.4163566 125.216477,54.5645022 125.17036,54.6050831 C124.951047,54.7981394 124.805961,55.0697256 124.512927,55.188412 C124.368262,55.2469062 124.252126,55.3761197 124.121262,55.4706953 C123.790947,55.7094263 123.441275,55.9002752 123.02167,55.9140286 C122.505284,56.1118391 121.974844,56.0704942 121.435905,56.0489303 C120.910598,56.0277909 120.435365,55.8606282 119.959207,55.6803065 C119.425653,55.4781662 118.975667,55.1244844 118.500181,54.8180903 C118.455158,54.7891403 118.403822,54.7584924 118.376303,54.7151948 C118.178198,54.4037918 117.855036,54.2553065 117.564948,54.0610617 C117.456049,53.9882198 117.341091,53.8938141 117.282854,53.7809008 C117.140461,53.5050697 116.92805,53.3039482 116.680713,53.1379741 C116.44945,52.9827819 116.251598,52.8124781 116.19698,52.5190733 C116.187639,52.4691537 116.152882,52.4190643 116.117957,52.3797569 C115.553349,51.7448954 115.243989,50.9631618 114.86621,50.217 C114.509385,49.5120983 114.329879,48.74658 114.039201,48.0201144 C113.844715,48.0776747 113.735396,48.239319 113.621447,48.3861063 C113.204703,48.9229964 112.745797,49.4121743 112.180516,49.7958248 C112.026509,49.9003333 111.892868,50.0411778 111.766633,50.1807489 C110.851513,51.1920447 109.782133,52.002134 108.600573,52.6673887 C108.318816,52.8259768 108.036134,52.9826971 107.754882,53.1418794 C107.395533,53.3452082 107.014555,53.4590554 106.598484,53.4384254 C106.41031,53.4291716 106.221041,53.4138052 106.033624,53.4243324 C105.7262,53.4417364 105.458245,53.3396899 105.183389,53.2154853 C104.870915,53.0742163 104.643944,52.8810751 104.527976,52.5458159 C104.466963,52.3693995 104.351331,52.2120849 104.258254,52.0473843 C104.175528,51.9009366 103.949315,51.8487248 103.850515,51.9863432 C103.682117,52.2209991 103.458176,52.3445246 103.200236,52.4291671 C103.062639,52.4742475 102.991022,52.5852931 102.905855,52.6909053 C102.861841,52.7455791 102.770952,52.7890465 102.700597,52.7899803 C102.405375,52.7939705 102.109649,52.7848865 101.814595,52.7694352 C101.738097,52.7653601 101.663197,52.7223172 101.588298,52.6949803 C100.606189,52.3370536 99.9167766,51.6339348 99.3854952,50.7593235 C99.1191391,50.3208293 98.8933466,49.8572904 98.6483664,49.4055523 C98.6099909,49.3348329 98.5674918,49.2665755 98.5183443,49.1826122 C98.442519,49.2016291 98.3529763,49.1987426 98.2998734,49.2417855 C98.0271214,49.4628579 97.7610179,49.6942029 97.5603882,49.9877775 C97.2073507,50.5042922 96.7522311,50.93158 96.3498778,51.4050518 C95.8695954,51.9702976 95.2241133,52.3205836 94.6168383,52.7191761 C94.5948734,52.7336086 94.5668492,52.7448999 94.5410972,52.7460885 C94.0632553,52.7673977 93.5809531,52.8623128 93.1239821,52.618403 C92.4207684,52.2429875 92.5730921,52.3891805 92.3010134,51.7077954 C92.2310792,51.5327373 92.1695606,51.3521609 92.1261357,51.1687828 C91.9814703,50.5577775 91.9150707,50.5514951 91.5149896,50.9602752 C91.1367892,51.3467274 90.7656581,51.7400563 90.3955368,52.134319 C90.1356608,52.411084 89.8804976,52.6914996 89.5201385,52.8407489 C89.4956489,52.8508517 89.4741889,52.8686801 89.451719,52.883622 C89.2510052,53.0170804 89.0938005,53.2230411 88.8493252,53.2822145 C88.4756693,53.37263 88.0988155,53.2806863 87.7233923,53.2797525 C87.6133153,53.2794129 87.035411,52.9816783 86.9387991,52.8875273 C86.7585354,52.7119598 86.6639432,52.4952172 86.6150482,52.2465532 C86.5421684,51.8752976 86.4575068,51.5116828 86.4756846,51.1242967 C86.4935259,50.7471832 86.4979862,50.3667587 86.4484179,49.9870134 C86.4244332,49.8034656 86.4728233,49.6103244 86.4878874,49.4196452 C86.4860359,49.4254182 86.4846052,49.4329741 86.4832587,49.4405299 C86.4363834,49.4474066 86.3703204,49.4372189 86.3460833,49.4645559 C86.2753075,49.5447837 86.2161453,49.6369821 86.1614434,49.7298597 C85.9693978,50.0556104 85.7808867,50.3833986 85.5916182,50.7106774 C85.4560417,50.9449937 85.3153317,51.1762538 85.310703,51.4621877 C85.3093565,51.5414817 85.2787235,51.6201814 85.2622288,51.6993056 C85.1659535,52.1607221 84.8358066,52.4328177 84.4758683,52.6765576 C84.3434897,52.7661242 84.1575875,52.8027149 84.0648468,52.919109 C83.8288713,53.2153155 83.5301991,53.2518213 83.195592,53.2205791 C83.1153906,53.2130232 83.034516,53.2129383 82.9538938,53.2112404 C82.6803845,53.2052976 82.423454,53.1583494 82.1970724,52.9805746 C82.1178809,52.9184298 82.000903,52.9052708 81.8879647,52.8650295 C81.6291828,52.4514102 81.5865995,52.0182645 81.6938151,51.5441135 C81.9567207,50.38221 82.3070652,49.2470492 82.6962901,48.1238588 C82.8205896,47.765168 82.9166124,47.4001948 83.0058185,47.0333539 C83.1266676,46.5361957 83.2630857,46.0405657 83.240195,45.5181081 C83.2343882,45.3869419 83.2885851,45.2535684 83.3105501,45.1204495 C83.3235943,45.0418347 83.3563313,44.9503155 83.3306635,44.8840956 C83.2195766,44.5973977 83.3000305,44.2817498 83.2032502,44.0038811 C83.1113511,43.7397659 83.1373555,43.4669911 83.0717133,43.2053378 C83.0590897,43.1548239 83.0322437,43.1048195 83.0010216,43.0627954 C82.9524632,42.9973396 82.8899347,42.9420715 82.799887,42.9723798 C82.6510979,43.0224692 82.4845518,43.0402976 82.4140284,43.2235907 C82.3714451,43.3343816 82.2633879,43.3420223 82.1562564,43.3722458 C81.88544,43.4486533 81.6375984,43.2077998 81.3716632,43.3358248 C81.0847729,43.2034701 80.7549627,43.156437 80.532284,42.8965666 C80.4424046,42.7917185 80.3674209,42.6822011 80.3582478,42.5399133 C80.3371245,42.2137382 80.3474758,41.8981752 80.4914679,41.5881305 C80.6389947,41.2706148 80.7447797,40.9331483 80.8641139,40.6026434 C81.0067596,40.2071072 81.262596,39.9030054 81.5916489,39.6526434 C81.7018942,39.5688499 81.8078475,39.5153646 81.9563841,39.5286086 C82.3066444,39.559681 82.6517712,39.5479651 82.9559978,39.3228177 C83.013561,39.2801993 83.1063017,39.2773128 83.1837259,39.2725585 C83.3443811,39.2626256 83.5058778,39.2667006 83.6667013,39.2597391 C84.1155092,39.2402127 84.510625,39.3892073 84.8697218,39.6483137 C85.1543398,39.8536801 85.4425766,40.0570089 85.5919548,40.3960036 C86.1970417,41.1238275 86.4876349,41.988336 86.6636908,42.9030188 C86.6737054,42.9550608 86.6886853,43.0122815 86.7200758,43.0520134 C86.7498673,43.0899625 86.8022127,43.1135639 86.849088,43.1318168 C86.8634788,43.13742 86.9020226,43.1099133 86.9132996,43.0887739 C86.9886199,42.9471653 87.0748805,42.8087828 87.1290775,42.6587694 C87.2637282,42.2859008 87.5282328,42.0270492 87.8312812,41.7974021 C87.920824,41.7295693 88.0217279,41.6914504 88.1315524,41.725664 C88.3745129,41.8012225 88.6091419,41.7200608 88.8383006,41.672773 C89.013515,41.6366068 89.1564972,41.4210527 89.3443351,41.4709723 C89.6609327,41.5551055 89.9804758,41.4163834 90.2892468,41.5221653 C90.5050247,41.7689616 90.6628185,42.044538 90.7408318,42.3689303 C90.7803013,42.5331215 90.7788707,42.6844084 90.7353616,42.8467319 C90.5811024,43.4221653 90.4553722,44.0022681 90.4523426,44.6042744 C90.4514168,44.7917274 90.4124523,44.980454 90.3767698,45.1658695 C90.2175453,45.9925139 90.0918151,46.8221296 90.1251412,47.6683852 C90.1316213,47.8325764 90.1444131,47.9937962 90.2470843,48.1302261 C90.2302529,48.1236041 90.2127483,48.1186801 90.1952437,48.113756 C90.2066891,48.1085773 90.2182185,48.1033986 90.229748,48.0982198 C90.2249511,48.1141805 90.2201541,48.1301412 90.2153572,48.1461019" id="Fill-1"></path>
                <path d="M160.720081,9.14789723 C160.611855,9.30911707 160.521807,9.4400286 160.435042,9.57306256 C160.124504,10.0492511 159.44275,11.4464048 159.257184,11.9733619 C159.185314,12.1772851 159.105955,12.3787462 159.023313,12.5785943 C158.639811,13.5062663 158.414775,14.4876783 158.070743,15.4287641 C157.979517,16.073134 157.659132,16.6644433 157.640197,17.3262172 C157.637925,17.405681 157.613183,17.4883709 157.582045,17.5623164 C157.381247,18.03842 157.373841,18.5723387 157.144935,19.0395282 C157.107569,19.4162172 156.979651,19.7790679 156.981166,20.1619544 C156.982596,20.5146175 156.986131,20.8660071 156.893727,21.2135764 C156.852742,21.3674951 156.873613,21.5373744 156.858213,21.6991886 C156.837763,21.914403 156.811169,22.1290232 156.783397,22.3433887 C156.772962,22.4238713 156.74317,22.5021466 156.73669,22.5826291 C156.680137,23.2852386 156.626529,23.9880179 156.573258,24.690882 C156.567114,24.7719589 156.586891,24.8596577 156.563243,24.9341975 C156.360762,25.5710965 156.460825,26.2266729 156.438439,26.8744388 C156.43179,27.064269 156.438271,27.2546086 156.436419,27.4447784 C156.435409,27.553277 156.449716,27.6670393 156.423122,27.7694254 C156.263814,28.3832324 156.322303,29.0090947 156.309342,29.6309669 C156.301348,30.0100331 156.323817,30.3887596 156.235958,30.7654486 C156.193711,30.946874 156.210795,31.1435809 156.210374,31.3334111 C156.20827,32.2296711 156.19977,33.1261859 156.213825,34.0222761 C156.22022,34.427151 156.287546,34.8306676 156.302442,35.2357971 C156.316327,35.6148633 156.177216,35.9825532 156.204988,36.3679866 C156.226448,36.6651269 156.212394,36.9653235 156.205914,37.2639071 C156.202379,37.4260608 156.209785,37.5966193 156.163415,37.748076 C156.031625,38.17842 156.048625,38.608 156.143217,39.035118 C156.20381,39.3088266 156.112752,39.5246354 155.935266,39.6995237 C155.709052,39.9224638 155.523655,40.2105201 155.174994,40.2706273 C155.009878,40.4060384 154.844763,40.5414495 154.649603,40.7014808 C154.439212,40.7040277 154.19785,40.6995282 153.957414,40.7116685 C153.680623,40.7257614 153.419569,40.7009714 153.206989,40.4958597 C152.762557,40.3825219 152.650965,40.0278213 152.60106,39.6347471 C152.505122,38.8802654 152.495696,38.1213691 152.498052,37.3622181 C152.500409,36.6022181 152.49435,35.8418785 152.512107,35.0822181 C152.523468,34.5944835 152.576402,34.1120974 152.80514,33.663076 C152.965796,33.3475979 153.036151,33.008773 153.026725,32.6437998 C153.014943,32.1854397 152.971013,31.7202878 153.118288,31.269908 C153.133352,31.2237239 153.123926,31.1618338 153.107263,31.1138668 C152.968741,30.7164629 153.059378,30.3047962 153.028829,29.9009401 C153.007958,29.6249392 153.202528,29.3924906 153.173999,29.1068963 C153.149846,28.8661278 153.14446,28.6104173 153.19933,28.3777989 C153.269265,28.0812529 153.261859,27.7932815 153.260344,27.4949526 C153.258072,27.0629106 153.306799,26.6303592 153.339451,26.198487 C153.363773,25.8756229 153.395584,25.5532681 153.426722,25.2309982 C153.45786,24.9072002 153.500275,24.584336 153.522913,24.2600286 C153.545635,23.9352967 153.547992,23.6092064 153.563645,23.2839651 C153.568779,23.1760608 153.569115,23.0623834 153.603535,22.9625442 C153.676163,22.7517444 153.683484,22.5369544 153.68037,22.3195326 C153.67347,21.8300152 153.718409,21.3479687 153.824447,20.8679598 C154.011275,20.0215344 154.166628,19.1679777 154.355391,18.3219768 C154.449395,17.9002073 154.618634,17.4957569 154.6714,17.0635451 C154.724082,16.6323521 154.856797,16.2211948 154.976047,15.8080849 C155.09555,15.3938713 155.146886,14.9573298 155.354668,14.5704531 C155.447409,14.0611546 155.610589,13.5786836 155.876188,13.132294 C155.915236,13.0667534 155.917593,12.9765925 155.928197,12.8967042 C155.989968,12.4305335 156.1704,12.0072359 156.412434,11.6136524 C156.567956,11.3606586 156.675508,11.0884781 156.805783,10.8264004 C156.927389,10.5816416 157.014997,10.3301761 157.111356,10.0783709 C157.188612,9.87657015 157.275041,9.67638248 157.379059,9.48757105 C157.548634,9.17964879 157.741858,8.88505541 157.914127,8.57857641 C158.113915,8.22311171 158.33996,7.89056926 158.619529,7.59224039 C158.76613,7.4356899 158.899266,7.25969794 159.006986,7.07385791 C159.284619,6.59486774 159.66829,6.22310277 160.096227,5.90117248 C160.508258,5.91704826 160.908676,5.93309383 161.272317,5.71185165 C161.317257,5.68442985 161.37238,5.65904558 161.423042,5.65853619 C161.769683,5.65505541 162.116409,5.6584513 162.429556,5.65947006 C162.943754,6.05305362 163.273901,6.54834406 163.593949,7.04770956 C163.943873,7.59368365 164.273599,8.1529017 164.61073,8.70728061 C164.806984,9.02997498 164.973951,9.37219571 165.254025,9.63707507 C165.310662,9.69056032 165.344577,9.77002413 165.38371,9.84048883 C165.806345,10.6002341 166.34032,11.2788177 166.870339,11.9631743 C167.269326,12.4784155 167.704164,12.9541796 168.176114,13.3986166 C168.298647,13.5140769 168.471084,13.5273208 168.622229,13.4363959 C168.69107,13.3950509 168.758563,13.3508195 168.823111,13.3031072 C169.082819,13.1111546 169.323423,12.8842243 169.603749,12.7309848 C170.201094,12.4043852 170.690633,11.9454307 171.19995,11.5067668 C171.485746,11.2606497 171.79923,11.0469634 172.082838,10.7984692 C172.447994,10.4784915 172.806754,10.149345 173.147757,9.80355853 C173.487751,9.45879088 173.88598,9.17981859 174.192984,8.79531903 C174.479201,8.43696783 174.817848,8.12165952 175.127713,7.7820706 C175.455335,7.42312511 175.783294,7.06409473 176.097956,6.69377301 C176.395534,6.34357194 176.675523,5.97817426 176.964938,5.62084182 C177.015769,5.55801787 177.076783,5.50368365 177.130054,5.44281233 C177.378148,5.15917069 177.633143,4.88113226 177.870381,4.58849151 C178.108292,4.29491689 178.340396,3.99489008 178.552723,3.68229848 C178.795936,3.32437176 179.013481,2.94904111 179.297005,2.61938517 C179.702473,2.14803575 179.983724,1.58516711 180.38633,1.11093119 C180.61389,0.842825737 180.823777,0.55774084 181.114118,0.353478105 C181.173027,0.312048257 181.266273,0.282758713 181.332588,0.297615728 C181.464041,0.327244861 181.577821,0.351270777 181.718195,0.301690795 C181.915458,0.23199017 182.145627,0.274014298 182.323534,0.120605004 C182.383201,0.0691572833 182.461719,0.0400375335 182.527025,0.00327703307 C182.657468,0.0414807864 182.76906,0.139282395 182.913473,0.0672895442 C183.11629,-0.0339079535 183.327524,-0.000118856121 183.550623,0.0371510277 C183.920071,0.518008937 184.059856,1.0983664 184.210917,1.67184718 C184.327558,2.11467113 184.401279,2.56895621 184.470961,3.0196756 C184.553519,3.55376408 184.565806,4.10304915 184.448744,4.63662824 C184.395304,4.8798588 184.383017,5.12020286 184.381082,5.36275424 C184.377379,5.82476497 184.381334,6.28601162 184.232377,6.73138248 C184.234986,7.300958 184.014579,7.84820554 184.065831,8.42287489 C184.070712,8.47661483 184.072563,8.53324129 184.061455,8.58536819 C183.901136,9.33645398 183.980412,10.0995103 183.947927,10.8568785 C183.944477,10.93821 183.963833,11.0240411 183.944393,11.1005335 C183.81538,11.608983 183.876141,12.1261769 183.864444,12.6398901 C183.855186,13.0457837 183.862845,13.4497248 183.759921,13.8517131 C183.70059,14.083143 183.716075,14.3363065 183.714056,14.5798767 C183.710773,14.9603012 183.709259,15.3365657 183.603726,15.7100286 C183.553653,15.8873789 183.559712,16.0893494 183.579068,16.2762082 C183.609533,16.5706318 183.684937,16.8590277 183.591439,17.1577811 C183.570821,17.2237462 183.624008,17.313143 183.64328,17.3916729 C183.656072,17.4439696 183.686284,17.4988132 183.67871,17.5478838 C183.654388,17.7062172 183.587652,17.8631072 183.591187,18.0193181 C183.594721,18.1762931 183.693437,18.3312306 183.696046,18.4879508 C183.701095,18.7848365 183.70261,19.0902967 183.639829,19.3775889 C183.574944,19.6746443 183.565771,19.9666908 183.564172,20.2651895 C183.560722,20.8894388 183.549529,21.5136881 183.541113,22.1379374 C183.539599,22.246521 183.558955,22.3622359 183.528911,22.4624996 C183.361607,23.0208686 183.408314,23.5940098 183.415888,24.1610384 C183.421358,24.5684602 183.351003,24.9666282 183.337791,25.3701448 C183.31389,26.1006854 183.311702,26.8322449 183.272064,27.5618517 C183.225273,28.4243226 183.176462,29.2882368 182.970363,30.133134 C182.946041,30.2328883 182.941497,30.352084 182.971961,30.4480179 C183.056791,30.7151046 183.075138,30.9730223 182.991402,31.2457971 C182.944611,31.3982726 182.932155,31.5650956 182.92719,31.7261457 C182.918185,32.024899 182.884607,32.3136345 182.810549,32.6077185 C182.7391,32.8913601 182.762495,33.2001314 182.750882,33.4982055 C182.740362,33.7683485 182.75753,34.0367936 182.667819,34.3034558 C182.617998,34.4516014 182.638112,34.624622 182.632221,34.7866059 C182.61337,35.3008284 182.633651,35.8146265 182.531822,36.3272359 C182.474679,36.6151224 182.517179,36.9227051 182.510614,37.2213735 C182.498159,37.7897605 182.547222,38.3595058 182.425868,38.9251761 C182.381181,39.1332592 182.411898,39.3579821 182.409626,39.5751492 C182.40323,40.1975308 182.436051,40.8210161 182.28903,41.4362663 C182.245773,41.617437 182.26008,41.8146533 182.262436,42.0043137 C182.266223,42.3034066 182.264035,42.5951135 182.162963,42.8873298 C182.103296,43.0600956 182.121474,43.2618114 182.113395,43.4508776 C182.097152,43.8290947 182.100771,44.2045952 182.006431,44.5805201 C181.941967,44.8374191 181.972516,45.119193 181.96612,45.3900152 C181.956021,45.822227 182.015099,46.2574102 181.887939,46.6839339 C181.833321,46.8670572 182.003738,47.0486524 181.908557,47.2400956 C181.831385,47.3954576 181.88087,47.5534513 181.891557,47.7156899 C181.905612,47.9275934 181.848048,48.1431475 181.842157,48.3576828 C181.826504,48.9263244 181.849479,49.4940322 181.752783,50.0615702 C181.698839,50.3784066 181.743273,50.711798 181.738308,51.0377185 C181.732922,51.3889383 181.769194,51.7425353 181.641528,52.0853503 C181.583291,52.241731 181.628904,52.4071957 181.677463,52.5646801 C181.759684,52.8311725 181.747734,53.0973253 181.692358,53.3686568 C181.654825,53.5529687 181.628568,53.7432234 181.627894,53.9310161 C181.61931,56.2659446 181.614682,58.600958 181.612494,60.9359714 C181.611231,62.2393986 181.610558,63.5429106 181.620994,64.8462529 C181.626464,65.5209312 181.645651,66.1975621 181.768436,66.8624772 C181.82844,67.1867846 181.83795,67.5088847 181.838539,67.8344656 C181.839296,68.2961367 181.837529,68.7578928 181.839296,69.2196488 C181.84039,69.5174683 181.831722,69.8137596 181.917983,70.1076738 C181.96267,70.259555 181.951645,70.4300286 181.953833,70.5922672 C181.96065,71.1081028 181.959809,71.6241081 181.966036,72.1400286 C181.969571,72.4372538 181.947606,72.7360071 182.061302,73.0244879 C182.099256,73.1207614 182.091345,73.2382592 182.091766,73.3460786 C182.096647,74.5679196 182.100266,75.7897605 182.100266,77.0116014 C182.100266,77.1461635 182.093197,77.2857346 182.057935,77.4141841 C181.925388,77.8964004 181.947858,78.3815031 182.042619,78.8606631 C182.090588,79.1032994 182.115246,79.3429643 182.114573,79.586874 C182.112974,80.1843807 182.108009,80.7818025 182.09934,81.3792243 C182.097321,81.5142958 182.095553,81.655395 182.056925,81.7823164 C181.99953,81.9710429 181.98657,82.1418561 182.060123,82.3330447 C182.106578,82.4538534 182.091766,82.6002163 182.097068,82.7353727 C182.117266,83.2501895 182.124587,83.7657703 182.156483,84.2798231 C182.174829,84.5744164 182.244763,84.8656988 182.266812,85.1602922 C182.288945,85.4576872 182.227427,85.7706184 182.296435,86.0534111 C182.452125,86.692008 182.38926,87.3469902 182.5006,87.9886434 C182.611434,88.6273253 182.69921,89.2682994 182.917933,89.8812574 C183.035836,90.2116774 183.071351,90.5682458 183.233184,90.8843181 C183.32643,91.5192645 183.721041,92.0246577 183.956932,92.5982234 C184.22354,92.9354352 184.421477,93.3284245 184.770559,93.5990769 C184.868602,93.6750599 185.044994,93.6864361 185.033717,93.8642958 C185.024123,94.0156676 184.853706,94.0515791 184.791851,94.1711144 C184.699194,94.3505022 184.545019,94.4608686 184.352805,94.4989875 C184.180031,94.533286 184.073657,94.6349929 183.970986,94.7692154 C183.8498,94.9276336 183.676942,94.9723744 183.473451,94.9823923 C183.231248,94.9943628 182.999565,94.9277185 182.753996,94.9423208 C182.495129,94.9576872 182.240808,94.8172672 181.999783,94.7012976 C181.879355,94.6433128 181.770456,94.5581609 181.646745,94.5105335 C181.486595,94.4488981 181.373404,94.3403995 181.281505,94.2043941 C181.056134,93.870748 180.834549,93.5346399 180.578207,93.2235764 C180.544292,93.1824013 180.496071,93.1374057 180.491021,93.0902029 C180.454581,92.7486613 180.215997,92.5078079 180.074361,92.219412 C179.942572,91.950882 179.810361,91.6764093 179.78402,91.3795237 C179.749095,90.9854307 179.560668,90.6611233 179.378301,90.3344388 C179.29709,90.1890947 179.221853,90.0551269 179.21874,89.8854173 C179.217309,89.8049348 179.207883,89.7224147 179.186928,89.6449884 C179.016932,89.0172583 178.871004,88.3874057 178.955834,87.7281787 C178.962567,87.6761367 178.95129,87.6193405 178.938245,87.5673834 C178.831366,87.139756 178.862588,86.7038088 178.865366,86.2706631 C178.867806,85.8902386 178.881692,85.5138892 178.771952,85.1400018 C178.719774,84.9621421 178.727853,84.7640769 178.72272,84.5748409 C178.714641,84.276597 178.735764,83.975891 178.613316,83.6925889 C178.533956,82.8807167 178.540436,82.0688445 178.612054,81.2569723 C178.728695,81.029193 178.711611,80.7803592 178.711443,80.5378079 C178.71119,80.0223119 178.696884,79.5068159 178.688384,78.9913199 C178.500294,78.4646175 178.576708,77.9167757 178.568545,77.3766595 C178.565683,77.1894611 178.608435,77.0013289 178.63141,76.8137909 C178.654469,76.6259982 178.696884,76.43863 178.699493,76.2505827 C178.709591,75.5178347 178.712537,74.784832 178.705973,74.052084 C178.70429,73.8648007 178.65632,73.6781117 178.632251,73.4907435 C178.608183,73.3030357 178.577718,73.1154978 178.567619,72.9268561 C178.551629,72.6298856 178.567787,72.3341037 178.464022,72.0427364 C178.411761,71.896034 178.430191,71.7209759 178.429602,71.5586524 C178.426488,70.798143 178.428171,70.0376336 178.427582,69.2771242 C178.42733,69.0597873 178.427666,68.8454218 178.520071,68.6387819 C178.549694,68.5725621 178.547926,68.4690724 178.517546,68.4027676 C178.410667,68.1696399 178.427414,67.9260697 178.42733,67.6825845 C178.42733,67.4108284 178.426067,67.1407703 178.3425,66.8762306 C178.310689,66.7755424 178.310941,66.6622046 178.309342,66.5544701 C178.304545,66.2288043 178.268863,65.9072985 178.235032,65.5834155 C178.187315,65.1273476 178.224091,64.6621957 178.224765,64.2008642 C178.349232,63.8767265 178.199265,63.5570036 178.207933,63.2337998 C178.216601,62.909832 178.347465,62.5929955 178.260784,62.2641886 C178.183612,61.9715478 178.327099,61.681454 178.248918,61.3769276 C178.183107,61.1207927 178.19674,60.836387 178.215676,60.5674325 C178.240418,60.2167221 178.267937,59.8688132 178.213908,59.5194611 C178.330045,59.1756273 178.251695,58.8184647 178.255734,58.4717444 C178.260447,58.0679732 178.206587,57.6668338 178.289565,57.2614495 C178.320703,57.1093986 178.279551,56.9378213 178.251274,56.7788088 C178.188661,56.4271644 178.181508,56.0733977 178.246561,55.7260831 C178.302273,55.428773 178.306817,55.1327364 178.30707,54.8344075 C178.30808,53.9108954 178.306986,52.9874683 178.307827,52.0640411 C178.307996,51.7930492 178.308416,51.5252833 178.382643,51.257008 C178.432043,51.0782994 178.420429,50.881168 178.426572,50.692017 C178.435409,50.421874 178.409573,50.1497784 178.528234,49.8916908 C178.560382,49.8218204 178.56055,49.7316595 178.557773,49.6514316 C178.537996,49.0844879 178.50812,48.5172895 178.669533,47.9626559 C178.636628,47.3947784 178.741319,46.8313155 178.71624,46.2623342 C178.697136,45.8293584 178.698819,45.393496 178.724571,44.9609446 C178.741908,44.6716148 178.865281,44.3917936 178.75066,44.0922761 C178.715482,44.0003324 178.742833,43.8758731 178.764882,43.7712797 C178.865281,43.2940724 178.917627,42.8168651 178.906013,42.3250554 C178.897177,41.9493852 178.979314,41.5717623 179.016259,41.1945639 C179.040075,40.9522672 179.062124,40.7093762 179.072812,40.4662306 C179.097891,39.8989473 179.032248,39.325042 179.20073,38.7687105 C179.204686,38.3071242 179.209062,37.845538 179.212344,37.3839517 C179.214448,37.0851984 179.159409,36.7728615 179.22766,36.4905782 C179.370222,35.9002878 179.325114,35.306092 179.356757,34.7132547 C179.366771,34.5252922 179.401528,34.3374147 179.440661,34.1528481 C179.463888,34.0435004 179.475839,33.9403503 179.438641,33.8346533 C179.391682,33.7015344 179.404221,33.5714718 179.437968,33.4359759 C179.490313,33.2256005 179.527763,33.0114897 179.57245,32.7992466 C179.594752,32.6931251 179.633717,32.5884468 179.640281,32.4815612 C179.676636,31.886941 179.707774,31.2918114 179.736219,30.6966819 C179.760709,30.1833083 179.712151,29.6661993 179.845118,29.158429 C179.885261,29.004765 179.866326,28.834546 179.86885,28.671798 C179.872217,28.4547158 179.885009,28.2438311 179.951156,28.0304844 C180.005942,27.8537283 180.005353,27.6563423 180.01015,27.4676157 C180.019912,27.0876157 180.015704,26.7072761 180.01907,26.3271912 C180.020248,26.1914406 180.001145,26.0488981 180.03506,25.9212976 C180.211957,25.2545147 180.149597,24.5744879 180.158686,23.8990456 C180.162726,23.5995282 180.154983,23.3001805 180.249071,23.0129732 C180.301332,22.8534513 180.298302,22.6952029 180.298639,22.5317757 C180.29948,22.1245237 180.331376,21.7165925 180.315639,21.3102744 C180.299901,20.9047203 180.425631,20.5033262 180.337014,20.0980268 C180.477724,19.7029151 180.322539,19.2972761 180.386751,18.8908731 C180.453824,18.4668114 180.405265,18.0243271 180.408127,17.5898231 C180.41082,17.1824861 180.415196,16.7751492 180.417805,16.3678123 C180.41831,16.2866506 180.43573,16.1973387 180.4088,16.1257703 C180.275917,15.7722583 180.377241,15.4190009 180.435898,15.0800912 C180.510798,14.648134 180.528555,14.2195728 180.530322,13.7854084 C180.531669,13.4620349 180.489001,13.132294 180.639474,12.8241171 C180.661607,12.7786971 180.674314,12.7078928 180.655043,12.6657837 C180.520813,12.3716997 180.691567,12.07821 180.651508,11.7932949 C180.609093,11.4920795 180.668928,11.201731 180.665562,10.9064584 C180.663374,10.7159491 180.693923,10.5329955 180.742397,10.3459669 C180.795753,10.1395818 180.787589,9.91723592 180.809134,9.70219124 C180.838673,9.40819214 180.771684,9.10366577 180.918958,8.82112779 C180.952284,8.75720018 180.92022,8.6616908 180.932423,8.58290617 C180.974502,8.31148972 180.754516,8.06036372 180.873345,7.78461752 C180.984516,7.52652994 180.93074,7.24798213 180.973576,6.98140483 C180.986536,6.90117694 180.972903,6.8105067 181.005387,6.74055139 C181.198358,6.32404558 181.146265,5.90066309 181.078014,5.46794191 C181.040565,5.23107864 181.059163,4.98530116 181.048559,4.74376854 C181.047718,4.72458177 181.018936,4.70123503 180.997813,4.68977391 C180.975511,4.6777185 180.935874,4.66396515 180.922913,4.6746622 C180.861311,4.72543074 180.79651,4.77721805 180.75014,4.84131546 C180.035649,5.82841555 179.212007,6.72340214 178.428256,7.65217784 C177.573055,8.66568097 176.673756,9.63486774 175.698548,10.5329106 C175.341387,10.8617176 175.016205,11.225672 174.671583,11.568487 C173.673569,12.5612752 172.565056,13.4206899 171.451831,14.2742466 C170.938222,14.6680849 170.443549,15.0879017 169.894847,15.4341126 C169.599121,15.6208016 169.318205,15.836101 169.008088,15.9934155 C168.674743,16.1625308 168.325156,16.3164495 167.932397,16.2869902 C167.852027,16.2809625 167.770142,16.276378 167.690278,16.2847828 C166.922263,16.3651805 166.269039,16.0514853 165.644007,15.6637596 C165.323538,15.4650152 165.03042,15.2238222 164.786197,14.9286345 C163.735248,13.6580626 162.750951,12.3399482 161.876563,10.9364272 C161.56249,10.4322225 161.277787,9.90968007 160.944779,9.41770063 C160.886122,9.33110545 160.810886,9.2559714 160.720081,9.14789723" id="Fill-3"></path>
                <path d="M4.66870395,13.4048226 C4.54987465,13.3673829 4.4235554,13.3349522 4.30312712,13.2874097 C4.17992167,13.2387636 4.0639537,13.1718646 3.94226307,13.1190585 C3.72741094,13.0257565 3.59696801,12.873366 3.57121605,12.6317484 C3.55413223,12.4712078 3.53191486,12.3098181 3.49320276,12.1536072 C3.46593598,12.0432408 3.45827772,11.9392417 3.50161843,11.8371104 C3.578706,11.6556001 3.5888048,11.473071 3.55093428,11.279845 C3.52518232,11.1489334 3.50481639,11.0101265 3.51971213,10.87913 C3.5656617,10.4751041 3.61851213,10.0711631 3.6893721,9.67087265 C3.79103342,9.09696738 4.0495629,8.58843298 4.42406034,8.1524008 C5.04690429,7.42712377 5.78277073,6.84107819 6.64773359,6.42873235 C7.15839663,6.18533199 7.66224296,5.92546157 8.21102899,5.77502368 C8.34046204,5.73953664 8.46913768,5.69963494 8.60033802,5.67178865 C9.81034348,5.41480474 11.0189183,5.14984048 12.2321217,4.90915684 C12.7841898,4.79972431 13.3496389,4.75914343 13.9021278,4.65123905 C14.4039544,4.55318275 14.9188252,4.56880384 15.4161915,4.44324084 C15.5451196,4.4106403 15.6828842,4.41174397 15.81703,4.40308445 C15.924414,4.39603798 16.0341544,4.40987623 16.1396869,4.39340617 C16.8570389,4.28176631 17.5746433,4.17572967 18.3030198,4.17819169 C18.6646413,4.03055541 19.0464603,4.08072967 19.4209578,4.06578776 C19.823816,4.04965728 20.2297881,4.07308892 20.6164883,3.91815147 C20.6897888,3.88877703 20.7740297,3.88164567 20.8539786,3.87595755 C21.5509646,3.82646247 22.2482031,3.78129714 22.9451891,3.73112288 C23.2133125,3.71185121 23.4890099,3.71558668 23.7466978,3.65047051 C24.1185864,3.55648928 24.4909799,3.54333021 24.8680021,3.54103798 C25.2985479,3.53832127 25.7226137,3.51565371 26.1474368,3.40681546 C26.5095632,3.31410769 26.8920556,3.29305317 27.2673104,3.26359383 C28.0989472,3.19813807 28.931089,3.15093521 29.756414,3.01110947 C30.152708,2.94387087 30.5601949,2.94387087 30.9626324,2.91356256 C31.4990474,2.87315147 32.0378188,2.87051966 32.5717932,2.78978239 C32.8103775,2.75361618 33.0546004,2.75488963 33.2963827,2.74105139 C33.6443707,2.72110054 33.9884876,2.70446068 34.3363915,2.63705228 C34.7545663,2.55597542 35.1886467,2.54018454 35.6154055,2.49934897 C36.3374702,2.43032752 37.0659309,2.43041242 37.7916985,2.40027391 C38.3016883,2.3790496 38.8135295,2.39874576 39.3200689,2.30391555 C39.4762637,2.2747109 39.6412951,2.29262422 39.8023711,2.29143566 C40.3676518,2.287021 40.9328484,2.28303083 41.4981292,2.28056881 C41.6057656,2.28005943 41.7149169,2.27666354 41.8207861,2.29253932 C42.6223789,2.41224441 43.4298627,2.38643566 44.2359159,2.41165013 C44.744475,2.42761081 45.2505094,2.52677078 45.7574695,2.59069839 C45.8102358,2.59732038 45.862413,2.61514879 45.912907,2.6332319 C46.6986784,2.91424173 47.4871428,3.18973324 48.2263755,3.58467516 C48.439292,3.69843744 48.6437929,3.83062243 48.8421503,3.96900492 C49.2891067,4.28066265 49.6545994,4.65548391 49.9020201,5.16333914 C50.0537547,5.47465728 50.2625476,5.76203441 50.4111683,6.06995666 C50.3125367,6.28703887 50.0710068,6.34009964 49.9759097,6.54954111 C49.9049656,6.70566711 49.6996232,6.69556434 49.5574825,6.76568945 C49.4630586,6.81229803 49.3433878,6.82172163 49.304339,6.93964388 C49.2552757,7.08821403 49.1495748,7.15112288 49.0062559,7.1686966 C48.2797309,7.25749911 47.6185956,7.09390214 47.0326123,6.6448807 C46.84023,6.49749911 46.6341302,6.362937 46.4643019,6.19212377 C46.2102327,5.93658311 45.9087833,5.75948749 45.5903343,5.61686014 C44.8759278,5.29696738 44.1386307,5.06129267 43.3555523,4.95491644 C41.8557111,4.75116309 40.3506522,4.72314701 38.8421428,4.73970197 C38.7081653,4.74114522 38.5684651,4.73639097 38.4417251,4.77196291 C38.1767997,4.84650268 37.908508,4.83003262 37.6403847,4.84446515 C36.5669656,4.90253485 35.4938832,4.96714164 34.4207166,5.03005049 C34.2597247,5.03947408 34.0979755,5.06986729 33.938246,5.06078329 C33.2062508,5.01918365 32.4926859,5.13803977 31.781814,5.29119437 C31.6769547,5.31386193 31.569739,5.33169035 31.46286,5.33771805 C30.5218195,5.39120331 29.5897837,5.5293311 28.6541292,5.6335849 C28.360338,5.66627033 28.0620866,5.65650715 27.7676222,5.68452324 C27.4734103,5.71253932 27.181723,5.76602458 26.8882685,5.80337936 C26.7019455,5.82706568 26.5132661,5.86577882 26.3277847,5.85584584 C25.7301036,5.82400938 25.152031,5.95636416 24.5671418,6.03684674 C24.1943275,6.08812466 23.8183152,6.15697632 23.4446593,6.15188248 C22.6875854,6.14144013 21.9491942,6.28644459 21.2030607,6.36641778 C20.5617864,6.43509964 19.9234576,6.53672163 19.2759557,6.53222207 C19.1683193,6.5315429 19.058074,6.52364745 18.9534672,6.54317382 C18.0806777,6.70549732 17.1941707,6.74650268 16.315322,6.85364298 C15.0377387,7.0094294 13.7534229,7.12005049 12.494859,7.41481367 C12.1028569,7.50667248 11.6994096,7.54793253 11.302274,7.61839723 C10.5076661,7.75949643 9.72298879,7.93693164 8.97332065,8.25003262 C8.77563649,8.33263762 8.56574961,8.38765103 8.35838743,8.4435983 C7.83552167,8.58478239 7.45403922,8.90594861 7.18423274,9.37008177 C7.1442583,9.43884853 7.12263002,9.52001028 7.10066511,9.59777614 C7.06085898,9.73896023 7.07945761,9.88243655 7.20047499,9.96487176 C7.72628624,10.3228834 7.81953189,10.8955152 7.91303002,11.4526957 C7.99365216,11.9328744 8.01098845,12.4238351 8.05508658,12.9102113 C8.06484876,13.0182855 8.08555131,13.1286519 8.07402184,13.2349433 C8.0159537,13.7709844 8.07646239,14.311525 8.0334583,14.8436609 C7.97909305,15.5163016 7.90915881,16.1923382 7.77105761,16.8551309 C7.61048658,17.6256582 7.52683479,18.4078164 7.39832746,19.183013 C7.2168014,20.2781023 7.03855744,21.3725974 6.72246477,22.4406046 C6.60068998,22.8521014 6.58815063,23.2969629 6.46166307,23.7065071 C6.32482422,24.1498405 6.32255199,24.6149075 6.181337,25.0550996 C6.04904262,25.4675304 6.05922559,25.91392 5.90976324,26.3249075 C5.89158538,26.3747422 5.88990225,26.4314535 5.8855261,26.4854482 C5.80902763,27.4340049 5.61193257,28.3622712 5.42880753,29.2932542 C5.33497278,29.7704616 5.26941468,30.253357 5.18382729,30.7322623 C5.1363629,30.9974812 5.06045353,31.257861 5.02132065,31.523929 C4.96645046,31.8974768 4.86588317,32.2601577 4.8387847,32.6431291 C4.81437925,32.9873025 4.6931094,33.3269763 4.68048589,33.6820165 C4.67577312,33.8142864 4.61644262,33.9440943 4.58589373,34.0759397 C4.54533019,34.2507431 4.60971009,34.3569495 4.76523172,34.3543177 C5.14174893,34.3478655 5.52642934,34.3781738 5.89251111,34.3100013 C6.37414007,34.220265 6.85509578,34.213643 7.33773462,34.2038798 C7.84923922,34.1935223 8.35906068,34.1935223 8.86711486,34.1084553 C9.13077789,34.0643088 9.403614,34.0731381 9.67249475,34.0639692 C10.3718372,34.0401979 11.066551,33.967441 11.7632004,33.9036832 C12.7870511,33.8098718 13.7668038,33.5060246 14.7760113,33.3524455 C15.4622252,33.1047154 16.1810079,32.9833972 16.883969,32.8006984 C17.1702702,32.7263284 17.4605268,32.667155 17.7471646,32.5940585 C17.9023496,32.5544115 18.0622474,32.5178208 18.2051455,32.4486296 C18.5459803,32.2837592 18.9338586,32.257441 19.2660252,32.0677806 C19.3306576,32.0309352 19.4271854,32.0169272 19.4993919,32.0339915 C19.7525353,32.0937592 19.9742883,31.961744 20.2111895,31.9291434 C20.3667111,31.9076644 20.5144903,31.8291345 20.66572,31.7761586 C20.9297196,31.8914491 21.1922886,31.7335402 21.4603278,31.774206 C21.7018576,31.8108816 21.7929994,31.8786296 21.764891,32.1268691 C21.7524358,32.2370657 21.7432627,32.3266323 21.8078109,32.4294428 C21.9250413,32.6164714 21.8680672,32.8333838 21.7322382,32.9515608 C21.4934856,33.1593043 21.3360283,33.4755465 20.9903966,33.5534821 C20.9152447,33.5704616 20.8246079,33.6110424 20.7832869,33.6705554 C20.5795435,33.9635357 20.2632825,34.0556492 19.9535857,34.1312078 C19.6318545,34.2097377 19.3906614,34.4472802 19.0743162,34.5273382 C18.7887724,34.5996707 18.4892586,34.6488262 18.2265213,34.77371 C17.6614089,35.0423248 17.0565745,35.177651 16.4637745,35.3458324 C16.0255704,35.470122 15.5979701,35.6375393 15.144197,35.7102113 C14.8006692,35.7652248 14.456889,35.8303409 14.1213561,35.9216055 C13.7817837,36.0138887 13.4409489,36.0814669 13.0912777,36.1116903 C12.9843987,36.1209441 12.8746583,36.1335089 12.7734178,36.1667887 C11.8917919,36.4566278 10.9754934,36.4715697 10.0634869,36.5232721 C9.47237005,36.5567216 8.88150566,36.596029 8.29013632,36.6268467 C7.91387158,36.646458 7.53693359,36.6552873 7.16024807,36.6685313 C7.10647193,36.6704839 7.0499186,36.659702 6.9991721,36.6726912 C6.3114433,36.848004 5.60688317,36.7616635 4.9113278,36.8132811 C4.77718198,36.8232989 4.64320446,36.8363731 4.50914279,36.8474097 C4.3228198,36.8626912 4.2197278,36.9842641 4.16544671,37.1454839 C4.12286341,37.2721506 4.08490872,37.4077315 4.08373053,37.5397466 C4.07994348,37.9490362 4.02238027,38.3491568 3.93603547,38.7478342 C3.75097482,39.6024097 3.77689509,40.4741345 3.74617789,41.3405107 C3.72404467,41.9646752 3.73246034,42.5898584 3.71470327,43.2142775 C3.70544603,43.5396037 3.69038198,43.8674768 3.64014041,44.1882185 C3.56827056,44.6466635 3.54596903,45.1049388 3.54470668,45.5675438 C3.54285523,46.2735492 3.51760821,46.9795545 3.51844978,47.6855599 C3.51887056,48.11913 3.55758266,48.5526153 3.5643152,48.9863552 C3.57155267,49.4476019 3.56103308,49.9091032 3.5586767,50.3705197 C3.55539458,50.9940049 3.49555915,51.6190183 3.61034893,52.2391926 C3.5699537,52.9774589 3.70923308,53.6934821 3.86382899,54.4093356 C3.97802968,54.9379906 4.08701264,55.468853 4.16712985,56.0035357 C4.23639083,56.4657163 4.42995131,56.8846841 4.56123581,57.3247913 C4.59153223,57.4264982 4.64328862,57.5303275 4.71145557,57.6103856 C5.09790327,58.0645009 5.49840514,58.5008727 6.07588862,58.7210112 C6.47824194,58.8744205 6.86999152,59.0562703 7.27226068,59.2098494 C7.72923172,59.3843132 8.21372201,59.4304973 8.69543513,59.4771908 C9.12370872,59.5187055 9.5529922,59.5517306 9.9826123,59.5758414 C10.2779183,59.5924812 10.5783578,59.6208369 10.8696242,59.5857744 C11.6967166,59.4861899 12.5307939,59.4499388 13.3525002,59.3005197 C13.7227057,59.2331962 14.0972873,59.1905777 14.4689234,59.1306403 C14.6009653,59.1093311 14.7297251,59.0683257 14.8605888,59.0392909 C15.3072927,58.9402158 15.7535758,58.8394428 16.2012896,58.745122 C16.6477411,58.6510559 17.0783711,58.4970523 17.5344164,58.4330398 C18.0125949,58.3658861 18.4854716,58.2523785 18.9561602,58.1399745 C19.4252498,58.0279951 19.8840723,57.8688977 20.355939,57.7730487 C20.8571765,57.6712569 21.3423401,57.5145366 21.8371816,57.3926242 C22.3586167,57.2642596 22.8901506,57.1747779 23.4066205,57.0294339 C23.9271298,56.8829861 24.4633765,56.8356984 24.9889353,56.7215965 C25.9587574,56.5109665 26.9394358,56.3508503 27.9158222,56.171038 C28.3910552,56.0835089 28.8642685,55.9775572 29.3431203,55.9208458 C29.6575298,55.883576 29.9805234,55.9194026 30.2916508,55.922374 C30.3058733,55.9778119 30.3243878,56.0078655 30.3174869,56.029769 C30.2458695,56.2583123 30.1707176,56.4856671 30.0948082,56.7127672 C30.086645,56.7373025 30.0721701,56.771601 30.0526457,56.7784777 C29.7838491,56.873223 29.7194692,57.195408 29.461108,57.3089155 C29.2911114,57.3836251 29.1254068,57.4833794 28.9825087,57.6022355 C28.7286079,57.8136296 28.4499649,57.960332 28.1252041,58.004903 C27.8521155,58.0424276 27.6016651,58.126391 27.392704,58.3111273 C27.2882655,58.4034106 27.1722975,58.4551979 27.036216,58.484063 C26.5104048,58.5957878 25.9847619,58.7091256 25.4622327,58.8356224 C25.0445629,58.936735 24.6326157,59.0616189 24.2163765,59.1690987 C23.3840665,59.3841434 22.5506624,59.5948584 21.7175108,59.8064223 C21.6394133,59.8262882 21.5551724,59.8282408 21.4815353,59.8580398 C21.1066171,60.0095813 20.7188229,60.1091658 20.3248011,60.1977136 C19.9319574,60.2859218 19.5498017,60.4217574 19.161166,60.5301711 C19.032827,60.5659978 18.8972505,60.5745724 18.7679016,60.6074276 C18.2749956,60.732651 17.7673622,60.768987 17.2747087,60.920189 C16.7129626,61.0925304 16.1205833,61.1631649 15.5414167,61.277861 C15.278427,61.3299879 15.0129125,61.3713329 14.752784,61.4352605 C13.2818086,61.7968378 11.7850811,61.9615384 10.2763193,62.0033928 C9.22848385,62.0325125 8.17997516,61.9746975 7.13256051,61.9274946 C6.99976119,61.9215518 6.86755097,61.8864044 6.73677141,61.8571997 C6.36984807,61.7753588 6.00275642,61.6941971 5.63802116,61.6034419 C5.45607431,61.5581917 5.27412746,61.5048762 5.1007646,61.433987 C4.27703853,61.0970299 3.5018709,60.6666859 2.76785591,60.162651 C2.2725094,59.8224678 1.87756187,59.3822757 1.56828589,58.8651667 C1.30344467,58.4222578 1.09456767,57.9554929 0.94291724,57.458929 C0.665284191,56.5495947 0.50218845,55.6164044 0.341785724,54.6822802 C0.259396286,54.2029504 0.186853186,53.7219227 0.110438876,53.2415742 C0.101939046,53.1880889 0.091671925,53.1340943 0.0906620443,53.0801845 C0.0825829983,52.6463597 0.117255571,52.2067618 0.0581775469,51.7802382 C0.00162422487,51.3716278 0.0101240545,50.96913 0.0172773765,50.5630666 C0.0293117888,49.8841434 0.0460589779,49.2053901 0.0616279727,48.5265518 C0.0728208177,48.0377985 0.0160991823,47.5518467 0.0017083816,47.0652158 C-0.0118408518,46.6069406 0.059692368,46.1465429 0.082667155,45.6865697 C0.126092027,44.8190049 0.158744838,43.9508458 0.201580613,43.0831962 C0.216223884,42.786735 0.347087598,42.5103945 0.331771073,42.2025572 C0.311657615,41.7964937 0.33572644,41.3881381 0.340523373,40.9808012 C0.344310426,40.6557297 0.337998671,40.3333749 0.458511107,40.0180666 C0.514222862,39.872298 0.500673629,39.6977493 0.509257615,39.5358503 C0.535009574,39.0502382 0.488891687,38.5594473 0.647611278,38.0842775 C0.689100545,37.9601577 0.670838535,37.8150684 0.676645349,37.6794875 C0.688174821,37.4081559 0.698946882,37.1385223 0.784786746,36.8755107 C0.8261077,36.7486743 0.840666814,36.6093579 0.845716218,36.4747958 C0.8755077,35.6879683 1.0812709,34.926525 1.16845727,34.1481872 C1.17148692,34.1212748 1.17594722,34.0936832 1.18537278,34.0685536 C1.44440719,33.3767261 1.4720106,32.6398181 1.60413666,31.9229459 C1.75141094,31.1244875 1.8860617,30.3241613 2.02214313,29.5240049 C2.21932235,29.1264312 2.2355646,28.6824187 2.29093973,28.2587815 C2.33991894,27.8837055 2.37669543,27.5053186 2.45874825,27.1367797 C2.56495404,26.659912 2.58060719,26.1704794 2.67923888,25.695055 C2.77778641,25.220055 2.9164767,24.7534598 3.0372416,24.2831291 C3.05079083,24.2306626 3.07056767,24.1781113 3.07334484,24.1248807 C3.11028964,23.4155643 3.31470634,22.7399522 3.47451997,22.0549164 C3.57289918,21.633147 3.64821945,21.2059441 3.73607908,20.7816278 C3.89530361,20.0126287 4.05191928,19.244139 4.10855676,18.4573963 C4.12782865,18.1898003 4.16544671,17.9087904 4.26845455,17.6657297 C4.4198525,17.3084821 4.31692882,16.9008056 4.52387022,16.5637636 C4.53725114,16.541945 4.54288964,16.5108727 4.54112235,16.4848092 C4.50804876,15.9925751 4.66054075,15.5196126 4.68932235,15.0353588 C4.71818811,14.5482185 4.70741605,14.0586162 4.71019322,13.5700326 C4.71052985,13.5182453 4.68486204,13.4662882 4.66870395,13.4048226" id="Fill-5"></path>
                <path d="M39.6390565,35.5094124 C40.5328851,36.3459048 40.9301891,37.3702748 40.9372582,38.5671559 C40.9390255,38.8648056 40.9498817,39.1637288 40.9822821,39.4591711 C40.9975986,39.598063 41.0019748,39.7222676 40.9526589,39.8544526 C40.8841553,40.0378307 40.8856702,40.2301229 40.9571192,40.4114634 C40.9807673,40.4714857 41.0570133,40.5103686 41.117017,40.5663159 C41.4822572,39.5504357 41.5098606,39.5081568 42.2148415,38.8782194 C42.4457676,38.863702 42.6835104,38.8495241 42.9210848,38.8335634 C43.0836756,38.8226966 43.2335587,38.7843231 43.3759519,38.6906814 C43.4596037,38.635668 43.5777598,38.6088405 43.6795052,38.6110478 C44.6677577,38.6326117 44.5858732,38.3902301 45.2750327,39.3812355 C45.4600092,39.6472185 45.6851284,39.8922319 45.8260909,40.1796939 C45.9545983,40.4419415 45.9847264,40.7515617 46.0746899,41.0350335 C46.2467063,41.5768476 46.336754,42.1363204 46.4498606,42.7135366 C46.519879,42.6756725 46.6160702,42.6574196 46.6434211,42.6035947 C46.8634909,42.1697699 47.1103226,41.7443499 47.213078,41.2620487 C47.3121305,40.7971515 47.6528811,40.5368566 47.9938,40.2737601 C48.027631,40.2476966 48.108169,40.2434517 48.1439356,40.2661193 C48.3368228,40.3884562 48.5080817,40.2277458 48.6908702,40.2352167 C48.8868712,40.2431122 49.0598974,40.1861461 49.2013649,40.0379155 C49.2332603,40.0045509 49.3159863,39.9735634 49.3445996,39.9913919 C49.6101141,40.1571113 49.8599754,39.9211819 50.1213662,39.9685545 C50.2304334,39.9883356 50.3318422,40.0024285 50.4072466,40.0888539 C50.5490507,40.2511774 50.7189632,40.398559 50.8206245,40.5838047 C50.9217809,40.7679468 50.9614187,40.9889343 51.0138483,41.197357 C51.1327618,41.6694705 51.2707788,42.1392069 51.3482872,42.6186215 C51.4172116,43.0446358 51.4091325,43.4829602 51.4456565,43.9149173 C51.4935417,44.4809272 51.562971,45.0445599 51.6456971,45.6066644 C51.6732163,45.7936081 51.6895427,45.9841175 51.6888695,46.172929 C51.6862606,46.8516823 51.6774242,47.5304357 51.6636225,48.2091041 C51.6603403,48.3704937 51.6382071,48.5331568 51.6087523,48.6921693 C51.4943833,49.3080139 51.4611414,49.9295465 51.4717451,50.5542203 C51.4735124,50.6623794 51.4766262,50.7737645 51.5031356,50.877424 C51.5784558,51.1716778 51.5549761,51.4710255 51.5676838,51.7687601 C51.5779509,52.0108021 51.5285509,52.2577681 51.6282766,52.4933579 C51.673048,52.599055 51.6432565,52.7046671 51.6084998,52.8089209 C51.5635601,52.9435679 51.59251,53.0716778 51.6328211,53.2052212 C51.6874388,53.3859674 51.7612443,53.5762221 51.7515662,53.7583266 C51.7253935,54.2525983 51.8606334,54.7253061 51.8997662,55.2098146 C51.925939,55.5333579 51.9931802,55.8572408 52.164355,56.1344303 C52.2866347,56.3324106 52.2563383,56.4967717 52.1410436,56.6589254 C51.9528691,56.92355 51.7379328,57.1722989 51.4391765,57.3083043 C51.2634572,57.3882775 51.0961536,57.4702033 50.9745472,57.6186037 C50.8371192,57.7862757 50.6641771,57.8036796 50.4670821,57.7982462 C50.2572794,57.7924732 50.0631298,57.635668 49.8406194,57.740601 C49.8070409,57.7563919 49.7304582,57.7231122 49.6978054,57.6891533 C49.601446,57.5887198 49.5000371,57.5118029 49.3550351,57.5028038 C49.304541,57.4996626 49.2390671,57.4868432 49.2083499,57.4527994 C48.8452136,57.0494526 48.4899039,56.6413517 48.4821615,56.0483445 C48.4803942,55.9144616 48.4734092,55.7732775 48.4301526,55.6490728 C48.3658569,55.4642516 48.3532334,55.2776475 48.3523076,55.087987 C48.3486047,54.2765393 48.18391,53.4797788 48.1384654,52.6714723 C48.1204558,52.3509004 48.0214875,52.0352525 47.9633352,51.7166332 C47.9195737,51.4767136 47.8761489,51.2363695 47.8443376,50.9946671 C47.826833,50.8613785 47.8029325,50.7167136 47.8349962,50.5908959 C47.9704886,50.0590996 47.9090541,49.5105786 47.9906862,48.974962 C48.0435366,48.6279021 48.0126511,48.2734562 48.1179311,47.9275 C48.1703608,47.7554133 48.1247478,47.5525938 48.119446,47.3636975 C48.1190252,47.3473972 48.0899911,47.3286349 48.0707192,47.3166644 C48.0152599,47.2821962 47.9602214,47.2880541 47.9268112,47.341794 C47.6167778,47.8402256 47.2010436,48.6738315 47.0451012,49.1584249 C46.9036337,49.5981077 46.665386,49.9876162 46.4564248,50.392576 C46.3946538,50.5122811 46.3048586,50.6179781 46.2483894,50.7397207 C45.884664,51.524256 45.48837,52.2964812 45.2470926,53.1317002 C45.0935908,53.6629021 44.7314644,53.9967181 44.286107,54.26771 C44.1487632,54.3512489 43.9780092,54.4080451 43.8829121,54.5264768 C43.7244449,54.723693 43.5323993,54.7540862 43.3124136,54.7465304 C43.1512535,54.7410121 42.9896725,54.7213159 42.8292698,54.7291265 C42.6594415,54.7374464 42.5135979,54.6989879 42.377264,54.5961774 C42.3141465,54.54855 42.2336926,54.5244392 42.1619911,54.4880183 C41.8213247,54.3147431 41.5829928,53.899256 41.5526122,53.5137377 C41.5174347,53.0669236 41.6823819,52.6599263 41.768895,52.2397699 C41.8777938,51.7111148 42.0110139,51.1890818 42.0235533,50.6453999 C42.0336521,50.2086037 42.2092872,49.8015214 42.2525437,49.3696492 C42.2685335,49.2097878 42.3205424,49.0538315 42.3515962,48.8952435 C42.4712671,48.2839835 42.5916112,47.6728083 42.7070742,47.0606993 C42.837938,46.3662399 42.9106494,45.6661774 42.8781649,44.9583043 C42.8762293,44.9174687 42.8338984,44.863559 42.7959437,44.8430139 C42.7393904,44.812366 42.6939458,44.8465795 42.6662582,44.9052435 C42.631754,44.9782551 42.5809233,45.0445599 42.555003,45.1199486 C42.5289144,45.1957618 42.5431369,45.2888092 42.5079594,45.3578307 C42.1856391,45.9905697 42.0429935,46.6827368 41.8453093,47.3569057 C41.7614892,47.6427547 41.6626051,47.9241041 41.5679288,48.2066421 C41.4476688,48.5656725 41.3493737,48.9349754 41.1966293,49.2794884 C41.0081182,49.7043141 40.896863,50.1452703 40.7825782,50.5931032 C40.6027352,51.2976653 40.4274368,52.0080853 40.0138064,52.6314008 C39.8678787,52.8512846 39.8340477,53.1437556 39.708065,53.3808735 C39.4241202,53.9154714 39.3298647,54.5074598 39.186125,55.08145 C39.1017158,55.4183222 39.1121512,55.7807484 39.0927952,56.1323928 C39.0707461,56.5314097 38.9218729,56.873206 38.6250521,57.1287466 C38.4452933,57.2835143 38.2885935,57.4782685 38.0399104,57.54729 C37.9406054,57.5748816 37.8315383,57.6382998 37.7698514,57.7188673 C37.5558409,57.9986886 37.2730742,58.0021693 36.9708674,57.9582775 C36.8934432,57.947071 36.8118112,57.9097163 36.740278,57.9245733 C36.6058797,57.9525045 36.4874712,57.9744929 36.3576173,57.8922274 C36.222125,57.8063963 36.0662667,57.7540147 35.9232845,57.6792203 C35.6133352,57.5172364 35.441908,57.26229 35.4122848,56.9067404 C35.3966317,56.7187779 35.3583403,56.5376072 35.393602,56.3427681 C35.431725,56.131374 35.4211213,55.9108959 35.4299577,55.6943231 C35.4420763,55.3965036 35.432819,55.0967315 35.5455049,54.8111372 C35.5746231,54.7372766 35.5873308,54.6522096 35.5878357,54.5721515 C35.5918753,53.9741354 35.7722231,53.3937779 35.7595996,52.793979 C35.7579165,52.7147699 35.7819853,52.6335232 35.8023512,52.5554178 C35.8976167,52.1895107 35.9817734,51.8196984 36.0995087,51.4611774 C36.1506759,51.3054759 36.1827397,51.1633579 36.1897247,50.9962802 C36.2041155,50.6491354 36.1783635,50.2898503 36.3337168,49.960534 C36.362246,49.4473302 36.6035233,48.9653686 36.5531134,48.4406189 C36.7117489,47.9689298 36.6668092,47.4766108 36.7076252,46.9921872 C36.7369117,46.644618 36.8329345,46.3023972 36.9049727,45.9589879 C37.0104211,45.4555474 37.0987857,44.9505786 37.156433,44.438139 C37.201541,44.0370845 37.3032865,43.642567 37.3795325,43.2450782 C37.3998984,43.1387869 37.441556,43.0307976 37.4349076,42.9261193 C37.4015816,42.4062087 37.5272276,41.9026832 37.5726722,41.3911774 C37.608523,40.9874911 37.6218197,40.5815125 37.6384828,40.176298 C37.6416807,40.0976832 37.6137407,40.0177949 37.6007805,39.938416 C37.5748603,39.7794035 37.5207475,39.6187779 37.5289107,39.4615483 C37.5536528,38.9869727 37.3560528,38.5628262 37.254139,38.1177949 C37.2182041,37.9609897 37.1178892,37.8313517 36.9729713,37.7347386 C36.7532381,37.588206 36.6792644,37.3530407 36.6630221,37.100811 C36.6525867,36.938912 36.6542698,36.775315 36.662938,36.6131613 C36.6734575,36.4157752 36.7538272,36.2464902 36.8998391,36.1116734 C37.017911,36.0025804 37.1332058,35.8901765 37.2564112,35.7874508 C37.2932719,35.7568029 37.3719584,35.7250514 37.399141,35.7431345 C37.6395768,35.9034205 37.8633495,35.687357 38.099325,35.7197029 C38.2307778,35.7377011 38.3601267,35.6706323 38.4710453,35.5859048 C38.5118613,35.5547475 38.560588,35.5135724 38.6062851,35.5127234 C38.9509911,35.5066108 39.2959495,35.5094124 39.6390565,35.5094124" id="Fill-7"></path>
                <path d="M56.6755849,38.8959714 C56.8113297,38.9233083 56.9549852,38.9998007 57.0627058,38.9644835 C57.3129038,38.8825576 57.6068632,38.9353637 57.8163293,38.7315255 C57.9322132,38.6187819 58.0455723,38.6243852 58.1747528,38.7059714 C58.2467068,38.7513065 58.3231212,38.733563 58.3975157,38.6895013 C58.5753389,38.5841439 58.7659539,38.6923029 58.9330891,38.6239607 C59.1952373,38.9133753 59.4030203,39.189546 59.5594677,39.5089294 C59.6970639,39.7896845 59.7353552,39.7863735 60.0458936,39.5714138 C60.09016,39.5407659 60.1365304,39.5130894 60.1824799,39.48363 C60.3305116,39.5034111 60.4669297,39.6495192 60.6306987,39.5159759 C60.7480132,39.4203816 60.8963815,39.534908 61.0178196,39.4776023 C61.138837,39.4204665 61.2482407,39.3389651 61.3670701,39.2764808 C61.4111682,39.2532189 61.4890132,39.2263914 61.5147651,39.2472761 C61.7225481,39.4156273 61.9272172,39.1925174 62.1344111,39.2516059 C62.2338002,39.2799616 62.3440455,39.2696041 62.4446128,39.2763959 C62.8117886,39.6634424 63.1299852,40.0578749 63.2733041,40.5727766 C63.3239665,40.7548811 63.4224298,40.9197516 63.6039559,41.0351269 C63.8226793,40.5765121 63.9298108,40.0823253 64.0761593,39.6036747 C64.2183842,39.1384379 64.413207,38.6923878 64.5319522,38.2176425 C64.6126585,37.8949482 64.8650445,37.6681877 65.1241631,37.4683396 C65.2081515,37.4034781 65.3027436,37.3525398 65.3895092,37.2971868 C65.7183937,37.4303056 66.0209372,37.3109401 66.3214609,37.2140724 C66.446097,37.173916 66.5535651,37.068983 66.6787062,37.0440232 C66.7723726,37.0253458 66.9040779,37.1383441 66.980408,37.1044701 C67.2173934,36.9991126 67.4482353,37.0494567 67.6771416,37.0695773 C67.9551954,37.3067802 68.1347859,37.6062127 68.2627883,37.9397739 C68.5248523,38.6226023 68.7630159,39.313496 68.9337699,40.0260384 C68.9969716,40.289899 69.0497379,40.5553727 69.039639,40.8307793 C69.032654,41.0199303 69.0485597,41.2059401 69.1005685,41.3936479 C69.1503051,41.5732904 69.1675573,41.7671108 69.1677256,41.9547337 C69.1683988,42.7693226 69.1855668,43.5855246 69.1424786,44.3981609 C69.1051971,45.1003458 69.0851678,45.8058418 68.9816551,46.5040366 C68.9579229,46.6642377 68.9574179,46.8289383 68.9570813,46.9915165 C68.9561556,47.4265299 68.9532101,47.8601001 68.8390094,48.2853503 C68.8116585,48.3873968 68.8150247,48.5001403 68.817297,48.6076202 C68.824282,48.9326068 68.8503706,49.2575085 68.8461627,49.5821555 C68.8331184,50.5896309 68.9388193,51.5839473 69.1351569,52.5707078 C69.2035764,52.9147113 69.2224275,53.2667802 69.3062476,53.6100197 C69.3596871,53.8288847 69.296822,54.0535228 69.1460132,54.219412 C68.9851055,54.3964227 68.8141832,54.5978838 68.6049695,54.6880447 C68.3238019,54.8092779 68.1177021,55.0107391 67.8919096,55.1836747 C67.5696735,55.3069455 67.2605658,55.0389249 66.9450622,55.1711948 C66.6782012,54.9986836 66.3322329,54.9693092 66.1210837,54.6933083 C65.9416615,54.4587373 65.759883,54.2460697 65.7438932,53.9136122 C65.729839,53.6222449 65.6091583,53.33716 65.5469665,53.0468114 C65.4846905,52.7556988 65.4276322,52.4650107 65.4169443,52.1631162 C65.406593,51.8677587 65.3284114,51.5750331 65.3131791,51.2795058 C65.2992091,51.00758 65.2509873,50.7433798 65.2174087,50.4759535 C65.1738155,50.1288088 65.197127,49.7713914 65.2106762,49.4191528 C65.2294431,48.9309088 65.2604128,48.4430045 65.2975259,47.9558642 C65.3118326,47.7679866 65.3594653,47.5829106 65.3877419,47.3959669 C65.4079396,47.2631028 65.4430329,47.1286256 65.3720046,46.9800554 C65.3070356,47.0265791 65.2077307,47.0587551 65.1902261,47.1162306 C65.0086159,47.7122091 64.7011072,48.2586926 64.5397787,48.8643494 C64.4358452,49.2547918 64.2645862,49.6274906 64.1163862,50.0052833 C63.9678496,50.3840947 63.8307583,50.7604441 63.8210803,51.1789026 C63.8168724,51.3618561 63.7312009,51.5448097 63.6707764,51.7236881 C63.645866,51.7973789 63.6043767,51.8789651 63.5458878,51.9252341 C63.2953532,52.1237239 63.114837,52.4138177 62.777116,52.5023655 C62.6824397,52.5271555 62.5946643,52.6156184 62.5251508,52.6942332 C62.3490949,52.8929777 62.1318022,52.9676872 61.8754609,52.9542735 C61.7410626,52.947227 61.6038871,52.9241349 61.4726026,52.9423029 C61.0615811,52.9990143 60.7558397,52.7502654 60.4214009,52.5884513 C60.3566844,52.5571242 60.3163733,52.4701895 60.2700029,52.4050733 C60.0872987,52.1482592 60.0247702,51.8485719 60.0777048,51.5516014 C60.1929154,50.9054486 60.1350155,50.2509759 60.2057913,49.6035496 C60.235162,49.334765 60.2242217,49.0612261 60.2262414,48.7898945 C60.2265781,48.7467668 60.198638,48.7034692 60.1836581,48.6596622 C60.134174,48.6844522 60.0675218,48.6954888 60.0457252,48.7330134 C59.9779791,48.8495773 59.905436,48.9708105 59.8737089,49.0998543 C59.6801484,49.8870214 59.3352741,50.6328436 59.2439641,51.4475174 C59.0176666,52.0899348 58.9010254,52.7541707 58.8515413,53.4324147 C58.8329426,53.6877006 58.7232022,53.8987551 58.5298101,54.0670214 C58.3477791,54.2255246 58.1824953,54.3952341 57.9535048,54.5027989 C57.7391576,54.603487 57.5589781,54.7783753 57.3505218,54.9301716 C57.0433498,54.9301716 56.7152227,54.9744879 56.404516,54.9193896 C55.9823859,54.8445103 55.5798643,54.6926291 55.3199883,54.2946309 C55.160343,54.0501269 55.0889781,53.798916 55.192575,53.5260563 C55.2625934,53.3419142 55.2847266,53.157857 55.2760585,52.9681117 C55.2558609,52.525118 55.3907641,52.1157435 55.524405,51.7039071 C55.6245515,51.3951358 55.7098864,51.0814406 55.8012806,50.7697828 C55.8088547,50.7438892 55.809023,50.7155335 55.8177753,50.6901492 C56.0985222,49.8702967 56.2461331,49.0161457 56.4608169,48.1793986 C56.5082813,47.9943226 56.5535576,47.8142556 56.5642455,47.624765 C56.5841907,47.2726962 56.6459617,46.9279285 56.7101733,46.581378 C56.7689147,46.2643718 56.7560387,45.9394701 56.8373341,45.6174549 C56.9086149,45.3355112 56.8704919,45.0246175 56.8742789,44.7263735 C56.8773086,44.4828034 56.9008724,44.2342243 56.8630861,43.9962574 C56.7402172,43.2217399 56.7517467,42.4249794 56.4932172,41.67279 C56.4052735,41.4169946 56.3147208,41.1621332 56.2252622,40.9069321 C56.1448925,40.6776247 56.0611566,40.449336 55.984574,40.2187551 C55.870205,39.8741573 55.9609259,39.5755737 56.2081784,39.3248722 C56.3573883,39.1735853 56.5210731,39.0368159 56.6755849,38.8959714" id="Fill-9"></path>
                <path d="M210.195432,42.3805117 L210.170602,42.2806966 L210.142281,42.362813 L210.195432,42.3805117 Z M210.223313,43.0085206 C210.204715,42.9608083 210.186202,42.9130112 210.167689,42.865214 C210.14309,42.902399 210.102936,42.9372069 210.097018,42.9771935 C210.080027,43.0922292 210.138609,43.1951247 210.173184,43.1516573 C210.202855,43.1143025 210.207589,43.0570818 210.223313,43.0085206 L210.223313,43.0085206 Z M207.985191,42.4017601 C207.986167,42.3523499 207.948605,42.3025152 207.927751,42.2528503 C207.902141,42.2934312 207.85714,42.3337574 207.855921,42.3746778 C207.854701,42.4234937 207.890921,42.4729039 207.911044,42.5219745 C207.937507,42.4819879 207.98446,42.4420862 207.985191,42.4017601 L207.985191,42.4017601 Z M207.893698,43.5373454 C207.962706,43.4566081 208.022289,43.4069433 208.052922,43.3432703 C208.070006,43.3078682 208.043581,43.2470818 208.026834,43.201492 C208.021027,43.1857011 207.973647,43.1669388 207.964978,43.1740702 C207.930474,43.202256 207.883262,43.2375733 207.878634,43.275013 C207.869461,43.3487887 207.88545,43.4257055 207.893698,43.5373454 L207.893698,43.5373454 Z M219.317048,48.7549593 C219.371161,49.3777654 218.997926,49.7651515 218.554925,50.0864875 C218.119245,50.4025599 217.65167,50.6739763 217.198486,50.9655983 C217.08538,51.0384401 216.97404,51.1139987 216.861523,51.1876895 C216.748837,51.2614651 216.644735,51.3671622 216.521193,51.4018003 C216.072049,51.527618 215.703105,51.8105804 215.291411,52.0082212 C215.145735,52.0781765 215.005867,52.161206 214.857583,52.2244544 C214.43419,52.4050308 214.002971,52.5510541 213.530684,52.4997761 C213.424225,52.4882301 213.314401,52.4883999 213.207943,52.4997761 C212.729007,52.5507994 212.311673,52.3858441 211.907805,52.1497449 C211.738734,52.0508396 211.604841,51.9296912 211.511343,51.7578592 C211.228997,51.239307 211.131712,50.7256787 211.325188,50.1261345 C211.563857,49.3862551 211.944329,48.7419701 212.416869,48.1499817 C212.97466,47.4512775 213.50914,46.7388199 213.946586,45.9570013 C214.237432,45.4371756 214.511025,44.9066528 214.576247,44.2997225 C214.634147,43.7607949 214.513298,43.2747583 214.105727,42.8951828 C213.58648,42.4116081 212.985601,42.054021 212.337173,41.7786993 C211.891311,41.5893785 211.439894,41.412962 210.987047,41.24113 C210.863841,41.1943517 210.727002,41.1831452 210.595718,41.1596287 C210.534957,41.1486769 210.429003,41.2394321 210.424964,41.3018315 C210.418063,41.4100755 210.409563,41.5184044 210.408385,41.6267332 C210.404345,41.9768494 210.508616,42.3217869 210.440869,42.6764026 C210.37489,43.0225286 210.513076,43.3745125 210.427573,43.7225912 C210.522501,44.0760183 210.380277,44.4191729 210.378088,44.7701381 C210.376321,45.0642221 210.301506,45.3598342 210.240913,45.6508619 C210.186043,45.9144678 210.026734,46.1498029 210.0232,46.4291997 C209.864227,46.7430648 209.729577,47.0727207 209.541991,47.3681631 C208.763878,48.5936546 207.799695,49.6312685 206.562002,50.4088423 C205.900698,50.8242444 205.18848,51.146769 204.542745,51.5880648 C204.389664,51.6926582 204.200564,51.7439361 204.027622,51.8188155 C203.830611,51.9042221 203.623333,51.971206 203.438104,52.0774124 C203.172169,52.2298878 202.899921,52.3186055 202.592244,52.2910987 C202.485365,52.2815054 202.376972,52.2897404 202.269251,52.2897404 C201.457054,52.2896555 201.45352,52.296702 200.725396,51.9281631 C200.390115,51.7584535 200.071582,51.5549549 199.745475,51.3668226 C199.532222,51.0235831 199.313919,50.6833999 199.107651,50.3358307 C198.998331,50.1516037 198.876893,49.9642355 198.819582,49.761416 C198.72457,49.4244589 198.673402,49.0745125 198.611884,48.7285563 C198.597998,48.6506206 198.596483,48.5574884 198.625938,48.4869388 C198.757391,48.1733284 198.701679,47.843248 198.725664,47.5207234 C198.76589,46.9809468 198.769425,46.4371801 198.921665,45.9112417 C199.041756,45.4962641 199.157219,45.0799281 199.278994,44.6654598 C199.301464,44.5888825 199.345057,44.5186725 199.378299,44.4452364 C199.783766,43.5488914 200.335498,42.7507726 200.983504,42.0177699 C201.36221,41.5892936 201.825829,41.2587038 202.270934,40.9096063 C202.639288,40.6206162 203.08473,40.4925063 203.541196,40.4395304 C203.756469,40.4145706 203.959623,40.3656698 204.168416,40.3151559 C204.800938,40.1621711 205.442044,40.1311836 206.084665,40.2682078 C206.286977,40.3114205 206.421207,40.4367288 206.495518,40.6225688 C206.631347,40.9626671 206.597684,41.3149906 206.548452,41.6662954 C206.544834,41.6921041 206.534482,41.7230916 206.516389,41.7396466 C206.301032,41.9367779 206.162425,42.2169388 205.874778,42.336559 C205.75233,42.3875822 205.635352,42.4519343 205.515849,42.5102587 C205.335333,42.8748923 204.999464,42.8522248 204.673609,42.8530737 C204.485182,42.8535831 204.296671,42.8529039 204.108244,42.8501023 C203.815463,42.8456877 203.592279,42.9726939 203.420683,43.207265 C203.276944,43.4038021 203.131353,43.5991506 202.980459,43.7901693 C202.483093,44.4195974 202.449767,44.432332 202.324205,45.1556564 C202.232054,45.6868584 202.115665,46.2189942 202.136872,46.766836 C202.150506,47.1194991 202.13115,47.4733508 202.141922,47.8261836 C202.167253,48.6568181 202.567082,49.2543248 203.278627,49.6722739 C203.850472,49.4825286 204.396817,49.2718986 204.872134,48.9020013 C205.380862,48.5060407 205.916519,48.1466707 206.338902,47.6437395 C206.51622,47.432685 206.66846,47.2144991 206.772478,46.9638825 C206.906876,46.6400845 207.034962,46.3126358 207.144366,45.9796689 C207.1904,45.8395885 207.273126,45.7490031 207.378827,45.6646153 C207.478637,45.5849817 207.490924,45.468248 207.439756,45.3726537 C207.256295,45.0302632 207.30418,44.7275197 207.465845,44.3750264 C207.707711,43.8478146 207.69189,43.2703436 207.58804,42.7011926 C207.563887,42.568668 207.518779,42.4363132 207.518864,42.3038735 C207.518948,42.0280424 207.475439,41.7651157 207.375376,41.5086412 C207.262522,41.2197359 207.269928,40.9257368 207.351392,40.6291059 C207.415772,40.3945349 207.434539,40.1387395 207.540239,39.9261568 C207.707038,39.5909826 207.872911,39.2513088 208.135901,38.9689406 C208.387277,38.6990523 208.659524,38.5144008 209.040754,38.5193248 C209.201157,38.5214473 209.387732,38.5370684 209.517754,38.4648208 C209.921286,38.2406921 210.353262,38.2853481 210.780021,38.2711702 C211.132217,38.2593695 211.480037,38.2839897 211.799916,38.4636323 C211.89291,38.5158441 211.99617,38.5607547 212.100019,38.5801962 C212.952611,38.7394634 213.73468,39.1102945 214.542416,39.4033597 C214.666463,39.4483552 214.79051,39.5144053 214.891582,39.5987082 C215.081776,39.7572962 215.285688,39.8589182 215.526797,39.9298923 C216.017599,40.0743025 216.461694,40.3210139 216.893839,40.6074571 C217.477466,40.9943338 217.780346,41.5433642 217.934437,42.1932525 C218.021539,42.5606877 218.061598,42.9378861 218.066058,43.3222158 C218.072959,43.9128458 217.913734,44.4454062 217.631052,44.9505447 C217.591498,45.0212641 217.536039,45.0846823 217.506163,45.1588825 C217.14673,46.0505581 216.544757,46.7871265 215.999926,47.5599459 C215.859974,47.7583508 215.703021,47.9446153 215.553896,48.136483 C215.237298,48.543735 214.957898,48.9735697 214.790342,49.4668226 C214.765684,49.5393248 214.772332,49.6294857 214.788238,49.7064875 C214.796148,49.7446912 214.854469,49.790366 214.896463,49.7985161 C214.944012,49.8077699 215.001659,49.7855268 215.050049,49.7653213 C215.571484,49.5479844 216.093929,49.3331944 216.611493,49.1069433 C216.830721,49.0110943 217.02849,48.8389227 217.290806,48.9664383 C217.500188,48.9205938 217.711506,48.8820505 217.918195,48.8261881 C218.046534,48.7914651 218.166625,48.6933239 218.292692,48.6886546 C218.610468,48.6769388 218.92959,48.7012194 219.248039,48.7141238 C219.271519,48.7150576 219.293989,48.7407815 219.317048,48.7549593 L219.317048,48.7549593 Z" id="Fill-11"></path>
                <path d="M246.909843,54.4624048 C246.911694,54.4810822 246.923897,54.5168239 246.914724,54.5236157 C246.742119,54.6535085 246.590805,54.7995317 246.474164,54.9869848 C246.438902,55.0436962 246.333622,55.0557516 246.260995,55.089286 C246.139725,55.1452332 246.018791,55.2020295 245.897774,55.2584861 C245.751594,55.6614084 245.37272,55.6189598 245.076152,55.6349205 C244.600498,55.6605594 244.114998,55.7795853 243.640943,55.6060554 C243.298425,55.7057248 243.018436,55.5416184 242.727758,55.3979723 C242.220125,55.1469312 241.721328,54.8823065 241.258466,54.5529053 C241.170522,54.490336 241.082915,54.4263235 240.990343,54.371395 C240.314059,53.9708499 239.698116,53.4944066 239.168265,52.908361 C239.1139,52.8482538 239.06248,52.7794021 238.995576,52.7378025 C238.407236,52.3716408 238.048813,51.790689 237.629375,51.2658543 C237.443978,51.0338302 237.247556,50.8106354 237.053154,50.5859973 C236.590461,50.0511448 236.262249,49.4276595 235.906014,48.8225121 C235.809907,48.6592547 235.723057,48.4885264 235.610624,48.3374942 C235.269789,47.8794736 235.02523,47.3693262 234.787823,46.8537453 C234.708548,46.6816586 234.616985,46.515345 234.527863,46.3480974 C234.363337,46.0392413 234.156985,45.7527131 234.055997,45.4102377 C234.0257,45.307597 233.872872,45.2712609 233.784759,45.3339151 C233.499636,45.5368195 233.202816,45.7256309 232.934861,45.9495049 C232.47688,46.3320518 231.97236,46.6432002 231.475751,46.9668284 C231.341016,47.0546122 231.197277,47.138151 231.046131,47.1887498 C230.375402,47.4133029 229.783949,47.7865112 229.193505,48.1646434 C228.851408,48.3836783 228.489281,48.5251171 228.07826,48.5989777 C227.600923,48.6848937 227.136125,48.7724227 226.645492,48.7517078 C226.202996,48.7330304 225.804429,48.6268239 225.41411,48.4229008 C225.158274,48.2891877 224.967322,48.1337408 224.915903,47.8334593 C224.889393,47.678437 224.838983,47.5271501 224.68708,47.4235755 C224.55588,47.5937096 224.429645,47.7677489 224.292385,47.9323646 C224.153947,48.0985085 223.993797,48.2469088 223.862597,48.4183164 C223.665838,48.6753003 223.47354,48.9376327 223.302786,49.212445 C223.143898,49.4683253 222.960016,49.6979723 222.739525,49.8993485 C222.660081,49.9719357 222.584256,50.0744915 222.489916,50.1000456 C222.160275,50.1891028 221.966798,50.4748668 221.676962,50.648227 C221.499476,50.6527265 221.311891,50.6521323 221.124979,50.6633387 C220.768238,50.6847328 220.455848,50.5712252 220.143206,50.4030438 C219.927765,50.2871591 219.801782,50.1396926 219.793114,49.9070742 C219.777966,49.5003315 219.753729,49.0904477 219.787139,48.6864218 C219.818193,48.3107516 219.918423,47.9412788 219.912533,47.5590715 C219.911354,47.4806265 219.941651,47.3986157 219.970432,47.3233119 C220.329024,46.3853673 220.733481,45.4757784 221.358934,44.6753673 C221.874226,44.0158856 222.354592,43.3313592 222.957912,42.7435308 C223.172007,42.5348534 223.400072,42.3496926 223.631418,42.1663146 C223.97907,41.8907382 224.388997,41.7759571 224.822489,41.7267167 C225.008054,41.7056622 225.196734,41.6831644 225.375146,41.630613 C226.169501,41.396891 226.121532,41.4681197 226.310632,40.6992904 C226.488371,39.9767301 226.876418,39.4334727 227.450956,39.0082225 C227.611106,39.0936291 227.73448,39.1884593 227.908937,39.0492279 C228.027513,38.9546524 228.213752,39.1153628 228.361952,38.9853852 C228.461257,38.8981957 228.59271,38.8482761 228.709856,38.7816318 C228.854522,38.8202601 228.97293,38.9329187 229.154793,38.8247596 C229.308968,38.7331555 229.510187,38.8025165 229.689945,38.8239955 C229.801285,39.2629991 229.815339,39.5950322 229.714519,39.9251975 C229.596195,40.313008 229.463732,40.6964888 229.341452,41.0831957 C229.300805,41.2115603 229.273285,41.3441698 229.239034,41.4746568 C229.204614,41.6056533 229.187446,41.7449696 229.131061,41.8655237 C228.957698,42.2361001 228.889194,42.642588 228.743435,43.0174093 C228.48541,43.6812207 228.442406,44.391471 228.236727,45.0643664 C228.148783,45.3519133 228.188926,45.6561001 228.212995,45.9536649 C228.218297,46.0194602 228.322988,46.1091117 228.377353,46.0907739 C228.530097,46.0392413 228.705733,46.0181019 228.830116,45.9265827 C229.267142,45.6045675 229.776879,45.4194066 230.230989,45.1254924 C231.252063,44.4646524 232.209009,43.7240938 233.131282,42.9331063 C233.356402,42.7399651 233.588169,42.5537006 233.826501,42.3773691 C233.956271,42.2813503 234.101694,42.2289687 234.279264,42.2596166 C234.521299,42.301471 234.777893,42.2558811 234.985003,42.1500992 C235.398044,41.9390447 235.828085,42.0389687 236.250047,42.0121412 C236.342872,42.0061984 236.460775,42.0729276 236.533402,42.1422038 C236.668474,42.2710777 236.798159,42.4142994 236.895865,42.5730572 C237.278021,43.193571 237.672632,43.8019446 237.924513,44.5014978 C238.180518,45.2126819 238.567134,45.8719088 238.951309,46.5220518 C239.267065,47.0565648 239.588712,47.5862386 239.875771,48.1374763 C239.962537,48.3039598 240.07295,48.4634817 240.197755,48.6032225 C240.70118,49.1671948 241.209823,49.7268374 241.726125,50.2788391 C242.03902,50.6133342 242.289386,51.0068329 242.659591,51.2871635 C242.755025,51.5326014 242.966764,51.6489106 243.173284,51.7817748 C243.921017,52.2628025 244.664457,52.7507918 245.403353,53.2456577 C245.649175,53.4102735 245.880859,53.5976416 246.110943,53.7846702 C246.38117,54.0042994 246.642645,54.2348803 246.909843,54.4624048" id="Fill-13"></path>
                <path d="M190.23101,44.1369915 C190.228232,43.8830639 190.149882,43.4313257 190.02937,42.9860398 C189.999915,42.8772015 189.852641,42.8207449 189.780687,42.8971524 C189.285004,43.423685 188.745812,43.9174473 188.490985,44.6274428 C188.463971,44.7028315 188.42467,44.7755036 188.380824,44.8426573 C187.876136,45.6168351 187.542875,46.463685 187.277108,47.3481443 C187.121418,47.8661872 187.007891,48.3927198 186.89369,48.9178092 C186.814667,49.2811693 186.765351,49.6610845 186.792197,50.0407449 C186.79388,50.0642614 186.809702,50.1027198 186.825271,50.1063704 C186.872735,50.1176618 186.939387,50.1371032 186.97002,50.1142659 C187.098949,50.018332 187.226446,49.9169647 187.338543,49.8017592 C188.342533,48.7698333 189.120141,47.5751595 189.796256,46.3080684 C190.02735,45.6733767 190.254405,45.0377511 190.23101,44.1369915 M185.606513,54.2220183 L184.602692,54.2220183 C184.398023,54.1226886 184.196888,54.0424607 184.013763,53.9319245 C183.777367,53.789382 183.598534,53.5981935 183.564871,53.2964687 C183.541139,53.0834616 183.464472,52.8758878 183.447641,52.6629656 C183.424161,52.3659951 183.431735,52.066223 183.431062,51.7677243 C183.43022,51.3876394 183.432492,51.0075545 183.437542,50.6275545 C183.439309,50.4925679 183.422141,50.3455259 183.468259,50.2253963 C183.569247,49.9625545 183.56243,49.6935152 183.567564,49.423542 C183.571267,49.232693 183.590034,49.0487207 183.649869,48.8638995 C183.841915,48.2713168 184.029753,47.6770362 184.201432,47.078256 C184.343741,46.5816072 184.551945,46.1138235 184.753585,45.6410308 C185.147943,44.7165849 185.652294,43.8530103 186.226748,43.037912 C186.708714,42.3539799 187.238228,41.7006957 187.818068,41.0939352 C188.137358,40.7597797 188.52288,40.5093329 188.88871,40.2337565 C189.199248,39.9998646 189.527964,39.8461157 189.930233,39.8652176 C190.085587,39.8726037 190.260549,39.8414464 190.398145,39.7712364 C190.752108,39.59066 191.125932,39.5983856 191.502113,39.5962632 C191.636595,39.5954991 191.77234,39.5887073 191.905392,39.603819 C192.211638,39.638542 192.47042,39.7656332 192.646224,40.0335688 C192.690827,40.1014017 192.747043,40.1642256 192.778013,40.2379164 C192.965767,40.6858342 193.22539,41.103189 193.35718,41.5741988 C193.444534,41.8862811 193.508241,42.2049004 193.732014,42.4565357 C193.908574,42.9705036 194.07714,43.4921971 193.933064,44.039954 C193.820967,44.4661381 193.783349,44.8936805 193.796057,45.329458 C193.804893,45.6316921 193.747751,45.9177958 193.656104,46.2070407 C193.525577,46.618962 193.423495,47.0405617 193.43452,47.4817726 C193.437886,47.6144669 193.414154,47.7538682 193.373254,47.8805349 C193.278577,48.1741095 193.276894,48.480164 193.327472,48.7673713 C193.416342,49.271576 193.477187,49.7847797 193.642471,50.272769 C193.693807,50.4243105 193.773671,50.5666832 193.84714,50.7099048 C193.888209,50.7899629 194.052146,50.8421747 194.131674,50.8042256 C194.22837,50.7579567 194.329947,50.7156778 194.414441,50.6515804 C194.554814,50.5451193 194.692242,50.5414687 194.865016,50.5639665 C195.098551,50.5943597 195.33461,50.5112453 195.564021,50.4546189 C195.690762,50.4233767 195.805383,50.3418753 195.925559,50.2831265 C196.167509,50.4220183 196.396584,50.2304902 196.633485,50.2552802 C196.737082,50.266147 196.839501,50.2888995 196.938301,50.3055393 C196.999567,50.4788995 197.06117,50.6289129 197.104426,50.7841899 C197.134218,50.8911604 197.113768,51.0022909 197.040299,51.0909236 C196.781012,51.4036001 196.510111,51.7008253 196.159935,51.9195206 C195.635134,52.2473088 195.121441,52.5931801 194.601016,52.9283543 C194.258751,53.1487475 193.883159,53.2947708 193.50033,53.4265313 C193.053374,53.5802802 192.593626,53.5340112 192.146501,53.4817145 C191.800785,53.4412185 191.484861,53.2451059 191.21943,53.0137609 C190.956441,52.7845384 190.71247,52.5314598 190.571255,52.1936537 C190.446114,51.894391 190.294295,51.6063347 190.150724,51.3151372 C190.048389,51.1075634 189.716223,51.0274205 189.524346,51.1833767 C189.210862,51.4381533 188.904615,51.7034571 188.610488,51.9808164 C188.31535,52.2591095 188.017014,52.5268753 187.673487,52.7473534 C187.40267,52.9211381 187.166863,53.1493418 186.903537,53.3362855 C186.486793,53.6320675 186.060034,53.9135018 185.606513,54.2220183" id="Fill-15"></path>
                <path d="M75.3746067,44.7750027 C75.5160915,44.4751457 75.4498744,44.2615442 75.4561544,44.0523575 C75.4572626,44.0144084 75.4173661,43.9754406 75.3879979,43.9216157 C75.323166,44.1703646 75.321596,44.4045961 75.3746067,44.7750027 M74.0899769,52.5024334 C73.7578945,52.4826524 73.4648607,52.4594754 73.1713221,52.4496273 C72.9510839,52.4422413 72.7514642,52.3979249 72.5663194,52.2641269 C72.4384011,52.1717587 72.2841418,52.1164057 72.1393923,52.0433092 C72.066765,51.8910036 71.9968308,51.7453199 71.9278222,51.5992118 C71.822458,51.3762717 71.7603504,51.1467096 71.7690185,50.8940554 C71.7792015,50.597 71.7807163,50.3003691 71.683347,50.0087471 C71.6422785,49.8858159 71.66458,49.7403021 71.6635701,49.6050608 C71.6603722,49.171151 71.6650849,48.7371564 71.6563326,48.3034164 C71.6502734,48.0062761 71.6288975,47.7093905 71.6107197,47.4125049 C71.5907745,47.0870089 71.5693146,46.7560795 71.6665156,46.4444218 C71.7414151,46.2043324 71.7499991,45.9662806 71.7562267,45.7233047 C71.7625384,45.479395 71.7702809,45.2352306 71.7681769,44.9913208 C71.7643899,44.5572413 71.7632117,44.1244352 71.9283272,43.7123441 C71.9581187,43.2192609 72.107581,42.7540241 72.2802706,42.2993995 C72.5826458,41.5031483 73.0416366,40.8145469 73.7063064,40.2715442 C73.8858127,40.1248418 74.0726406,40.0593861 74.2980965,40.0679607 C74.5946648,40.0793369 74.8859313,40.0709321 75.1512774,39.8960438 C75.2352659,39.8406908 75.3552734,39.8226077 75.4595435,39.8200608 C75.8087098,39.811571 76.1589701,39.8049491 76.5072948,39.8242207 C76.6634897,39.8328803 76.8344962,39.8733762 76.9672113,39.9530098 C77.5280318,40.2894576 78.0118488,40.7068972 78.2978134,41.3223172 C78.4455926,41.6403423 78.6406679,41.9381618 78.6985677,42.2921832 C78.7768335,42.7710036 78.8656188,43.2450697 78.8756335,43.7368794 C78.8912866,44.507916 78.7444332,45.2379473 78.4912056,45.9573664 C78.3473817,46.3658919 78.2245129,46.7809544 78.0062945,47.1590867 C77.9536124,47.2504361 77.8984056,47.358765 77.8984897,47.4591135 C77.8989105,47.8159366 77.7582846,48.1482243 77.7411166,48.5002931 C77.7371613,48.5814549 77.7430522,48.6678803 77.7176369,48.7425049 C77.4479987,49.5345112 77.5674171,50.3527507 77.5558035,51.1613119 C77.5521848,51.4117587 77.6632717,51.6365666 77.8223279,51.826227 C77.8670151,51.8795424 77.9801217,51.9355746 78.029101,51.9141805 C78.3413224,51.7775809 78.6680188,51.8520357 78.9857105,51.833613 C79.3882321,51.8101814 79.5101752,51.8697793 79.5071456,52.3382422 C79.5062199,52.4723798 79.5646246,52.6248552 79.4782798,52.7338633 C79.1964389,53.0895827 78.981671,53.5035416 78.6107923,53.7825139 C78.5269722,53.8455076 78.4221129,53.8793816 78.3302979,53.9326122 C78.2146665,53.9995961 78.0631844,54.0466291 77.9966165,54.1484209 C77.8367187,54.3930098 77.6100004,54.4199223 77.3624113,54.4186488 C77.0668529,54.4171206 76.771042,54.4152529 76.475736,54.4037918 C75.7942349,54.3773887 75.2609337,54.0199714 74.760117,53.600664 C74.6802522,53.5338499 74.6263078,53.4316336 74.5714376,53.3390956 C74.4201238,53.083555 74.2746168,52.8243637 74.0899769,52.5024334" id="Fill-17"></path>
            </g>
        </g>
    </g>
</svg>