<svg xmlns="http://www.w3.org/2000/svg" xmlns:xlink="http://www.w3.org/1999/xlink" width="434" height="533" version="1.1" viewBox="0 0 434 533"><title>Group 18</title><desc>Created with Sketch.</desc><defs><rect id="path-1" width="255" height="351" x="31" y="34"/><filter id="filter-2" width="206.7%" height="177.5%" x="-53.3%" y="-25.4%" filterUnits="objectBoundingBox"><feOffset dx="0" dy="47" in="SourceAlpha" result="shadowOffsetOuter1"/><feGaussianBlur in="shadowOffsetOuter1" result="shadowBlurOuter1" stdDeviation="37.5"/><feColorMatrix in="shadowBlurOuter1" type="matrix" values="0 0 0 0 0 0 0 0 0 0 0 0 0 0 0 0 0 0 0.09 0"/></filter><rect id="path-3" width="255" height="351" x="0" y="0"/><filter id="filter-4" width="206.7%" height="177.5%" x="-53.3%" y="-25.4%" filterUnits="objectBoundingBox"><feOffset dx="0" dy="47" in="SourceAlpha" result="shadowOffsetOuter1"/><feGaussianBlur in="shadowOffsetOuter1" result="shadowBlurOuter1" stdDeviation="37.5"/><feColorMatrix in="shadowBlurOuter1" type="matrix" values="0 0 0 0 0 0 0 0 0 0 0 0 0 0 0 0 0 0 0.09 0"/></filter></defs><g id="🎀-Site-pages" fill="none" fill-rule="evenodd" stroke="none" stroke-width="1"><g id="ADI---Comment-participer-2" transform="translate(-701.000000, -556.000000)"><g id="Group-18" transform="translate(775.000000, 583.000000)"><g id="Rectangle"><use fill="#000" fill-opacity="1" filter="url(#filter-2)" xlink:href="#path-1"/><use fill="#FAFBFC" fill-rule="evenodd" xlink:href="#path-1"/></g><g id="Rectangle"><use fill="#000" fill-opacity="1" filter="url(#filter-4)" xlink:href="#path-3"/><use fill="#FFF" fill-rule="evenodd" xlink:href="#path-3"/></g><rect id="Rectangle" width="192" height="12" x="32" y="34" fill="#EBEFF3"/><rect id="Rectangle" width="148" height="12" x="32" y="52" fill="#EBEFF3"/><g id="Group-6" transform="translate(32.000000, 101.000000)"><rect id="Rectangle" width="112.32" height="7.687" x="54.72" y="1.922" fill="#EBEFF3"/><g id="Group" fill="#EBEFF3" transform="translate(0.000000, 18.256241)"><rect id="Rectangle" width="192" height="3.843" x="0" y="0"/><rect id="Rectangle" width="192" height="3.843" x="0" y="7.687"/><rect id="Rectangle" width="192" height="3.843" x="0" y="15.374"/><rect id="Rectangle" width="157.44" height="3.843" x="0" y="23.061"/></g><text id="1.-Constat-:" fill="#0096FF" font-family="GillSans-Bold, Gill Sans" font-size="9.6" font-weight="bold" letter-spacing="-.48"><tspan x="0" y="9.005">1. Constat :</tspan></text></g><rect id="Rectangle" width="49" height="4" x="32" y="78" fill="#EBEFF3"/><g id="Group-20" transform="translate(32.000000, 162.000000)"><rect id="Rectangle" width="191.239" height="32.279" x="1.121" y=".783" fill="#FFF" stroke="#EBEFF3" stroke-width=".96" rx="1.92"/><rect id="Rectangle" width="157.603" height="3.799" x="10.251" y="9.799" fill="#EBEFF3"/><rect id="Rectangle" width="123.968" height="3.799" x="10.251" y="18.347" fill="#EBEFF3"/><rect id="Rectangle" width="1.922" height="33.239" x=".641" y=".303" fill="#00D661" rx=".96"/></g><g id="Group-19" transform="translate(73.000000, 199.000000)"><rect id="Rectangle" width="149.561" height="25.746" x=".8" y=".658" fill="#FFF" stroke="#EBEFF3" stroke-width=".96" rx="1.92"/><rect id="Rectangle" width="85.327" height="3.815" x="9.907" y="11.624" fill="#EBEFF3"/></g><g id="Group-12" transform="translate(63.000000, 242.000000)"><rect id="Rectangle" width="239.696" height="39.45" x="1.28" y="1.632" fill="#FFF" stroke="#EBEFF3" stroke-width="1.536" rx="3.072"/><rect id="Rectangle" width="86.044" height="6.306" x="15.877" y="18.205" fill="#EBEFF3"/></g><g id="Group-9" transform="translate(222.000000, 290.000000)"><rect id="Rectangle" width="81.667" height="24.348" x=".579" y=".291" fill="#0056FF"/><text id="Envoyer" fill="#FFF" font-family="Roboto-Regular, Roboto" font-size="12.163" font-weight="normal"><tspan x="19.842" y="16.515">Envoyer</tspan></text></g></g></g></g></svg>