<svg xmlns:xlink="http://www.w3.org/1999/xlink" viewBox="0 0 434 533"><defs><path id="b" d="M31 34h255v351H31z"/><filter id="a" width="206.7%" height="177.5%" x="-53.3%" y="-25.4%" filterUnits="objectBoundingBox"><feOffset dy="47" in="SourceAlpha" result="shadowOffsetOuter1"/><feGaussianBlur in="shadowOffsetOuter1" result="shadowBlurOuter1" stdDeviation="37.5"/><feColorMatrix in="shadowBlurOuter1" values="0 0 0 0 0 0 0 0 0 0 0 0 0 0 0 0 0 0 0.09 0"/></filter><path id="d" d="M0 0h255v351H0z"/><filter id="c" width="206.7%" height="177.5%" x="-53.3%" y="-25.4%" filterUnits="objectBoundingBox"><feOffset dy="47" in="SourceAlpha" result="shadowOffsetOuter1"/><feGaussianBlur in="shadowOffsetOuter1" result="shadowBlurOuter1" stdDeviation="37.5"/><feColorMatrix in="shadowBlurOuter1" values="0 0 0 0 0 0 0 0 0 0 0 0 0 0 0 0 0 0 0.09 0"/></filter></defs><g fill="none" fill-rule="evenodd" transform="translate(74 27)"><use fill="#000" filter="url(#a)" xlink:href="#b"/><use fill="#FAFBFC" xlink:href="#b"/><use fill="#000" filter="url(#c)" xlink:href="#d"/><use fill="#FFF" xlink:href="#d"/><path fill="#EBEFF3" d="M32 34h192v12H32zm0 18h148v12H32zm54.72 50.922h112.32v7.687H86.72zM32 119.256h192v3.843H32zm0 7.687h192v3.843H32zm0 7.687h192v3.843H32zm0 7.687h157.44v3.843H32z"/><text fill="#0096FF" font-family="GillSans-Bold, Gill Sans" font-size="9.6" font-weight="bold" letter-spacing="-.48" transform="translate(32 101)"><tspan x="0" y="9.005">1. Constat :</tspan></text><path fill="#EBEFF3" d="M32 78h49v4H32z"/><g transform="translate(32 162)"><rect width="191.239" height="32.279" x="1.121" y=".783" fill="#FFF" stroke="#EBEFF3" stroke-width=".96" rx="1.92"/><path fill="#EBEFF3" d="M10.251 9.799h157.603v3.799H10.251zm0 8.548h123.968v3.799H10.251z"/><rect width="1.922" height="33.239" x=".641" y=".303" fill="#00D661" rx=".96"/></g><g transform="translate(73 199)"><rect width="149.561" height="25.746" x=".8" y=".658" fill="#FFF" stroke="#EBEFF3" stroke-width=".96" rx="1.92"/><path fill="#EBEFF3" d="M9.907 11.624h85.327v3.815H9.907z"/></g><g transform="translate(63 242)"><rect width="239.696" height="39.45" x="1.28" y="1.632" fill="#FFF" stroke="#EBEFF3" stroke-width="1.536" rx="3.072"/><path fill="#EBEFF3" d="M15.877 18.205h86.044v6.306H15.877z"/></g><path fill="#0056FF" d="M222.579 290.291h81.667v24.348h-81.667z"/><text fill="#FFF" font-family="Roboto-Regular, Roboto" font-size="12.163" transform="translate(222 290)"><tspan x="19.842" y="16.515">Envoyer</tspan></text></g></svg>