<svg xmlns:xlink="http://www.w3.org/1999/xlink" viewBox="0 0 377 177"><defs><linearGradient id="c" x1="0%" y1="0%" y2="100%"><stop offset="0%" stop-color="#FAFBFC"/><stop offset="100%" stop-color="#FFF"/></linearGradient><path id="b" d="M0 0h300v109a6 6 0 01-6 6H0V0z"/><filter id="a" width="121%" height="154.8%" x="-6.8%" y="-14.3%" filterUnits="objectBoundingBox"><feOffset dx="11" dy="15" in="SourceAlpha" result="shadowOffsetOuter1"/><feGaussianBlur in="shadowOffsetOuter1" result="shadowBlurOuter1" stdDeviation="8"/><feColorMatrix in="shadowBlurOuter1" values="0 0 0 0 0.556389192 0 0 0 0 0.562905632 0 0 0 0 0.578709609 0 0 0 0.1 0"/></filter><linearGradient id="d" x1="50%" x2="0%" y1="50%" y2="50%"><stop offset="0%" stop-color="#EAEDEF"/><stop offset="100%" stop-color="#FAFBFC"/></linearGradient><linearGradient id="e" x1="0%" x2="67.585%" y1="50%" y2="50%"><stop offset="0%" stop-color="#FAFBFC"/><stop offset="100%" stop-color="#EAEDEF"/></linearGradient></defs><g fill="none" fill-rule="evenodd" transform="translate(39 22)"><use fill="#000" filter="url(#a)" xlink:href="#b"/><use fill="url(#c)" xlink:href="#b"/><path fill="url(#d)" d="M0 23h239a6 6 0 010 12H0V23z"/><path fill="url(#e)" d="M0 43h101a6 6 0 010 12H0V43z"/><g transform="translate(124 74)"><path fill="#1D5FD1" d="M97.377 15.686h-2.505V20h-1.414V9.336h3.53c1.202 0 2.126.273 2.773.82.647.547.97 1.343.97 2.388 0 .664-.179 1.243-.538 1.736-.359.493-.858.862-1.498 1.106l2.505 4.526V20h-1.509l-2.314-4.314zm-2.505-1.15h2.16c.699 0 1.254-.18 1.667-.542.413-.361.619-.845.619-1.45 0-.66-.197-1.165-.59-1.516-.393-.352-.96-.53-1.703-.535h-2.153v4.043zm10.906 5.61c-1.074 0-1.948-.352-2.622-1.058-.674-.705-1.011-1.649-1.011-2.83v-.25c0-.786.15-1.488.45-2.105.3-.618.72-1.101 1.26-1.45a3.167 3.167 0 011.754-.524c1.03 0 1.831.34 2.403 1.018.571.678.857 1.65.857 2.915v.564H103.5c.02.781.248 1.412.685 1.893.437.481.992.722 1.666.722.479 0 .884-.098 1.216-.293a3.07 3.07 0 00.871-.777l.828.645c-.664 1.02-1.66 1.53-2.988 1.53zm-.169-7.104c-.547 0-1.005.199-1.377.597-.37.398-.6.956-.688 1.674h3.97v-.103c-.04-.689-.225-1.222-.557-1.6-.332-.379-.781-.568-1.348-.568zm.66-4.292h1.64l-1.963 2.153h-1.091l1.414-2.153zm10.861 7.375c0 1.207-.276 2.178-.827 2.916-.552.737-1.3 1.105-2.241 1.105-.962 0-1.72-.305-2.271-.915v3.816h-1.355V12.075h1.238l.066.88c.552-.684 1.318-1.026 2.3-1.026.952 0 1.705.359 2.26 1.076.553.718.83 1.717.83 2.996v.124zm-1.355-.153c0-.894-.19-1.6-.57-2.117-.382-.518-.904-.776-1.568-.776-.82 0-1.436.363-1.846 1.09v3.788c.405.722 1.025 1.084 1.86 1.084.65 0 1.166-.258 1.55-.773.383-.515.574-1.28.574-2.296zm2.718-.008c0-.776.152-1.474.457-2.094.306-.62.73-1.099 1.275-1.436.544-.337 1.166-.505 1.864-.505 1.079 0 1.952.373 2.618 1.12.667.747 1 1.741 1 2.981v.095c0 .772-.148 1.464-.443 2.077a3.365 3.365 0 01-1.267 1.432c-.55.342-1.18.512-1.893.512-1.075 0-1.945-.373-2.612-1.12-.666-.747-1-1.736-1-2.966v-.096zm1.362.161c0 .88.204 1.585.612 2.117.407.532.953.799 1.637.799.688 0 1.235-.27 1.64-.81.405-.54.608-1.295.608-2.267 0-.869-.206-1.573-.619-2.113-.412-.54-.96-.809-1.644-.809-.67 0-1.209.266-1.619.798-.41.533-.615 1.294-.615 2.285zm8.833-4.05l.044.996c.605-.761 1.396-1.142 2.373-1.142 1.675 0 2.52.945 2.534 2.834V20h-1.355v-5.244c-.005-.571-.135-.994-.392-1.267-.256-.274-.655-.41-1.197-.41-.44 0-.825.117-1.157.351a2.397 2.397 0 00-.777.923V20h-1.355v-7.925h1.282zm6.665 3.897c0-1.216.288-2.194.864-2.934.576-.74 1.33-1.11 2.263-1.11.928 0 1.663.318 2.205.953V8.75h1.355V20h-1.245l-.066-.85c-.542.664-1.296.996-2.263.996-.918 0-1.666-.375-2.245-1.127-.579-.752-.868-1.734-.868-2.945v-.102zm1.355.153c0 .899.186 1.602.557 2.11.37.508.883.762 1.538.762.86 0 1.487-.386 1.882-1.158V14.2c-.405-.747-1.028-1.12-1.868-1.12-.664 0-1.181.256-1.552.769-.371.512-.557 1.272-.557 2.277zm11.265-2.834a4.06 4.06 0 00-.667-.051c-.889 0-1.492.378-1.809 1.135V20h-1.355v-7.925h1.318l.022.916c.445-.708 1.075-1.062 1.89-1.062.264 0 .464.034.6.102v1.26zm4.394 6.855c-1.074 0-1.948-.352-2.622-1.058-.674-.705-1.01-1.649-1.01-2.83v-.25c0-.786.15-1.488.45-2.105.3-.618.72-1.101 1.26-1.45a3.167 3.167 0 011.754-.524c1.03 0 1.83.34 2.402 1.018.571.678.857 1.65.857 2.915v.564h-5.369c.02.781.248 1.412.685 1.893.437.481.993.722 1.666.722.479 0 .884-.098 1.216-.293.332-.196.623-.455.872-.777l.827.645c-.664 1.02-1.66 1.53-2.988 1.53zm-.168-7.104c-.547 0-1.006.199-1.377.597-.371.398-.6.956-.689 1.674h3.97v-.103c-.039-.689-.225-1.222-.557-1.6-.332-.379-.78-.568-1.347-.568z"/><path fill="#FFF" d="M77 6h15v19H77z"/><rect width="85" height="30" fill="#EBF9F1" rx="5"/><path fill="#1DD16E" d="M15.564 17.217h-4.467L10.093 20h-1.45l4.072-10.664h1.23L18.026 20h-1.442l-1.019-2.783zm-4.043-1.157h3.626l-1.816-4.988-1.81 4.988zm14.422.065c0 1.207-.276 2.178-.828 2.916-.552.737-1.299 1.105-2.241 1.105-.962 0-1.719-.305-2.27-.915v3.816h-1.355V12.075h1.237l.066.88c.552-.684 1.319-1.026 2.3-1.026.952 0 1.705.359 2.26 1.076.554.718.83 1.717.83 2.996v.124zm-1.355-.153c0-.894-.19-1.6-.571-2.117-.381-.518-.904-.776-1.568-.776-.82 0-1.435.363-1.845 1.09v3.788c.405.722 1.025 1.084 1.86 1.084.65 0 1.166-.258 1.549-.773s.575-1.28.575-2.296zm9.77.153c0 1.207-.275 2.178-.827 2.916-.552.737-1.3 1.105-2.241 1.105-.962 0-1.72-.305-2.271-.915v3.816h-1.355V12.075h1.238l.066.88c.552-.684 1.318-1.026 2.3-1.026.952 0 1.705.359 2.26 1.076.553.718.83 1.717.83 2.996v.124zm-1.355-.153c0-.894-.19-1.6-.57-2.117-.382-.518-.904-.776-1.568-.776-.82 0-1.436.363-1.846 1.09v3.788c.405.722 1.025 1.084 1.86 1.084.65 0 1.166-.258 1.55-.773.383-.515.574-1.28.574-2.296zm6.907-2.681a4.06 4.06 0 00-.666-.051c-.889 0-1.492.378-1.81 1.135V20H36.08v-7.925h1.318l.022.916c.444-.708 1.074-1.062 1.89-1.062.263 0 .463.034.6.102v1.26zm.74 2.673c0-.776.152-1.474.458-2.094.305-.62.73-1.099 1.274-1.436.545-.337 1.166-.505 1.864-.505 1.08 0 1.952.373 2.619 1.12.666.747 1 1.741 1 2.981v.095c0 .772-.148 1.464-.444 2.077a3.365 3.365 0 01-1.267 1.432c-.55.342-1.18.512-1.893.512-1.074 0-1.945-.373-2.611-1.12-.667-.747-1-1.736-1-2.966v-.096zm1.362.161c0 .88.204 1.585.612 2.117.407.532.953.799 1.637.799.688 0 1.235-.27 1.64-.81.406-.54.608-1.295.608-2.267 0-.869-.206-1.573-.619-2.113-.412-.54-.96-.809-1.644-.809-.669 0-1.208.266-1.619.798-.41.533-.615 1.294-.615 2.285zm12.444 3.091c-.527.62-1.301.93-2.322.93-.844 0-1.488-.245-1.93-.736-.442-.49-.665-1.217-.67-2.179v-5.156h1.355v5.12c0 1.201.488 1.802 1.465 1.802 1.035 0 1.724-.386 2.065-1.158v-5.764h1.355V20h-1.289l-.029-.784zm5.991-1.054l1.963-6.087h1.384L60.953 20H59.92l-2.871-7.925h1.384l2.014 6.087zm7.845 1.984c-1.075 0-1.949-.352-2.623-1.058-.673-.705-1.01-1.649-1.01-2.83v-.25c0-.786.15-1.488.45-2.105.3-.618.72-1.101 1.26-1.45a3.167 3.167 0 011.754-.524c1.03 0 1.831.34 2.402 1.018.572.678.857 1.65.857 2.915v.564h-5.368c.02.781.247 1.412.684 1.893.438.481.993.722 1.667.722.478 0 .884-.098 1.216-.293a3.07 3.07 0 00.871-.777l.828.645c-.664 1.02-1.66 1.53-2.988 1.53zm-.169-7.104c-.547 0-1.006.199-1.377.597-.371.398-.6.956-.688 1.674h3.97v-.103c-.04-.689-.225-1.222-.557-1.6-.332-.379-.782-.568-1.348-.568zm8.657.249a4.06 4.06 0 00-.666-.051c-.889 0-1.492.378-1.81 1.135V20H72.95v-7.925h1.318l.022.916c.444-.708 1.074-1.062 1.89-1.062.263 0 .464.034.6.102v1.26z"/></g></g></svg>