<svg xmlns:xlink="http://www.w3.org/1999/xlink" viewBox="0 0 530 385"><defs><path id="a" d="M.603.419h3.754v5.564H.603z"/><path id="c" d="M0 .08h24.021v31.782H0z"/><path id="e" d="M.317.351h69.86v64H.317z"/></defs><g fill="none" fill-rule="evenodd"><path stroke="#B1D8FF" stroke-dasharray="5 5" stroke-linecap="round" stroke-width=".5" d="M350.1 291.49c24.335 9.565 22.65 10.07 56.56 14.05m-41.81-101.01c-33.226 23.51-2.951 31.655-47.822 57.316"/><path stroke="#B1D8FF" stroke-dasharray="5 5" stroke-linecap="round" stroke-width=".5" d="M115.11 291.49c0 23.544 52.604 42.629 117.496 42.629 64.89 0 117.493-19.085 117.493-42.628s-52.603-42.628-117.493-42.628c-64.892 0-117.495 19.085-117.495 42.628z"/><path fill="#061D83" d="M357.419 376.5c.303 1.262 1.733 4.077-1.125 4.046-2.858-.031-8.849-2.623-8.541-3.967.307-1.344 1.885-2.415 3.083-2.046 1.197.368 3.367 1.885 4.304 1.447m13.008-3.857c.303 1.262 1.733 4.076-1.125 4.045-2.858-.031-8.85-2.623-8.541-3.967.307-1.343 1.886-2.414 3.083-2.046 1.197.368 3.367 1.885 4.304 1.448"/><path fill="#EBF8FF" d="M352.331 333.546c-.448 4.896.853 42.285 1.312 43.35.433 1.005 4.357-.456 4.357-.456l2.351-36.374 1.362.831c.096 4.997 1.92 32.434 2.721 32.517.991.102 3.96-.474 3.96-.474l.533-41.144-16.596 1.75z"/><path fill="#FEC553" d="M345.071 331.035c-1.738.108-5.129-.411-4.812.229.317.64 4.671.219 1.881 1.418-2.789 1.2-3.84 1.889-3.224 2.716.615.827 2.017.925 3.373.2 1.355-.724 4.59-2.542 4.59-2.542M338 304.006c.514.392 1.591 1.038 2.76 1.7-.376.547-1.219 1.925-.7 2.725.657 1.011 3.83 1.948 4.681.403.082-.152.145-.292.185-.426.29-.912-.506-1.735-1.112-2.06-3.354-1.825-7.094-3.326-5.814-2.343m19.207-3.325c.624.06.845.321.841.733h.003c.08 3.71-1.57 4.605 2.832 3.912 1.846-.29 2.45-.955 2.53-1.626-.483-.527-.856-1.345-.804-2.623.137-3.366 1.9-4.869 1.827-5.645-.07-.775 1.457-4.828-.943-5.39-2.398-.56-9.373-1.038-10.658 3.216-1 3.311 2.004 7.194 4.372 7.423"/><path fill="#061D82" d="M357.19 293.011c-.962-3.137-4.957-2.78-4.933-5.516.034-4.005 3.4.376 9.401.151 7.592-.286 3.996 11.815-.507 12.704-1.125.223-2.05.246-2.803.155-1.648-.196-2.596-1.993-1.889-3.496.577-1.227 1.096-2.804.73-3.998"/><path fill="#FEC553" d="M357.888 295.636c.062-.903-.455-1.676-1.157-1.725-.701-.048-1.322.644-1.385 1.547-.063.904.454 1.676 1.156 1.725.702.05 1.323-.643 1.386-1.547"/><path fill="#D5EDF7" d="M362.147 311.26c-10.4.523-17.53-4.228-17.53-4.228l-.958 2.553s8.964 6.052 18.277 7.952"/><path fill="#D5EDF7" d="M368.927 308.435c-.313-6.649-9.766-5.48-12.446-4.34-3.935 1.672-.013 17.46-11.41 26.94l1.808 2.021s2.962-2.52 6.083-6.045a341.912 341.912 0 00-.637 7.984l16.623-1.478s.338-17.469-.021-25.082"/><path fill="#061D83" d="M425.757 293.97c1.184 2.314-1.27 3.798-3.27 5.09-2.001 1.29-4.358 1.15-5.245.801-.885-.35-1.143-3.06.857-3.706 2-.645 3.222-2.185 3.222-2.185m-4.926-1.08c1.184 2.313-1.27 3.798-3.27 5.09-2 1.29-4.358 1.15-5.244.801-.886-.35-1.144-3.06.856-3.706 2-.646 3.222-2.186 3.222-2.186"/><path fill="#EBF8FF" d="M420.358 221.936c6.123 1.225 7.89 1.221 7.645 8.99-.245 7.767-1.423 23.754-1.423 23.754l-18.388-1.845.762-28.737s.882-3.088 7.438-2.576"/><path fill="#D5EDF7" d="M408.192 252.835l3.767 40.054s.264.697 2.147.697c1.439 0 2.288-.697 2.288-.697l-.199-30.92 2.274 1.062 2.853 30.94s.43.57 2.154.57c1.418 0 2.28-.57 2.28-.57l.825-39.29"/><path fill="#EBF8FF" d="M426.001 223.534c11.436 6.413 10.302 37.315 10.302 37.315l-2.25.997s-3.54-26.35-7.468-27.49"/><path fill="#FEC553" d="M436.303 260.85c1.376 3.273 1.267 4.85-1.583 5.855-2.85 1.005-1.135-3.746-.667-4.859"/><path fill="#EBF8FF" d="M410.304 222.505c-11.436 5.678-10.301 33.036-10.301 33.036l2.249.883s3.54-23.328 7.468-24.337"/><path fill="#FEC553" d="M400.003 255.542c-1.377 2.898-1.267 4.295 1.582 5.185 2.849.89 1.135-3.317.667-4.302m16.658-49.386c4.887-1.825 5.28 3.49 4.69 6.725-.219.933-.558 1.706-.927 2.42-.803 1.569-1.742 2.853-1.837 4.922v.024c-.006.368 0 .695.024.98 0 .084.006.167.018.25.023.25.06.506.106.78.006.005.006.017.006.023.84 4.578-5.416 2.717-4.369.476l.006-.006c1.064-2.247.433-3.092-.339-3.365a5.386 5.386 0 01-.57-.185c-.067-.012-.12-.041-.167-.065-.434-.172-.946-.416-1.308-.81-.006 0-.013-.005-.024-.017-.999-.79-1.795-1.92-2.022-3.174-.38-2.176.714-6.743 6.713-8.978"/><path fill="#0147AB" d="M421.584 209.072l-.884 7.444a2.09 2.09 0 00.37 1.45.621.621 0 00.986.03c.72-.872 1.902-3.115 2.402-8.687.652-7.26-1.255-3.037-8.392-5.332-8.574-2.757-6.096 4.475-2.758 5.425 2.692.767 8.276-.33 8.276-.33"/><path fill="#FEC553" d="M420.606 213.007c0-.972.503-1.76 1.122-1.76.619 0 1.12.788 1.12 1.76s-.501 1.76-1.12 1.76c-.62 0-1.122-.788-1.122-1.76"/><path fill="#061D83" d="M48.534 217.935c-1.183 2.313 1.27 3.798 3.271 5.09 2 1.29 4.358 1.15 5.244.801.886-.35 1.144-3.06-.857-3.706-2-.646-3.222-2.185-3.222-2.185m4.927-1.08c-1.183 2.313 1.27 3.798 3.27 5.09 2 1.29 4.359 1.15 5.245.801.885-.35 1.144-3.06-.857-3.706-2.001-.646-3.222-2.186-3.222-2.186"/><path fill="#EBF8FF" d="M53.935 145.9c-6.125 1.226-7.891 1.222-7.646 8.99.245 7.768 1.422 23.755 1.422 23.755L66.1 176.8l-.762-28.737s-.882-3.09-7.438-2.576"/><path fill="#D5EDF7" d="M66.1 176.8l-3.768 40.054s-.263.697-2.146.697c-1.44 0-2.29-.697-2.29-.697l.2-30.922-2.273 1.063-2.853 30.94s-.43.571-2.155.571c-1.417 0-2.28-.57-2.28-.57l-.824-39.29"/><path fill="#EBF8FF" d="M48.291 147.499c-11.436 6.413-10.302 37.315-10.302 37.315l2.25.998s3.54-26.351 7.468-27.49"/><path fill="#FEC553" d="M37.99 184.814c-1.378 3.274-1.268 4.851 1.581 5.855 2.85 1.006 1.135-3.745.668-4.858"/><path fill="#EBF8FF" d="M63.987 146.47c11.436 5.678 10.302 33.036 10.302 33.036l-2.25.883s-3.54-23.328-7.468-24.337"/><path fill="#FEC553" d="M74.29 179.506c1.376 2.898 1.266 4.294-1.583 5.185-2.85.89-1.136-3.317-.668-4.302m-16.657-49.386c-4.887-1.824-5.28 3.49-4.691 6.726.22.932.559 1.706.927 2.42.803 1.569 1.743 2.852 1.837 4.92v.026c.006.368 0 .695-.023.98 0 .084-.006.167-.018.25-.024.25-.06.506-.107.78-.006.005-.006.017-.006.023-.838 4.578 5.416 2.717 4.37.476l-.006-.007c-1.064-2.246-.434-3.091.339-3.365a5.81 5.81 0 00.559-.178c.006 0 .01-.006.01-.006.067-.012.12-.042.167-.066.435-.172.947-.416 1.309-.809.006 0 .012-.006.023-.018.999-.79 1.796-1.92 2.022-3.173.38-2.177-.713-6.744-6.712-8.978"/><path fill="#0147AB" d="M52.708 133.037l.883 7.444a2.084 2.084 0 01-.369 1.45.62.62 0 01-.986.029c-.72-.871-1.902-3.114-2.403-8.686-.65-7.26 1.255-3.037 8.393-5.332 8.573-2.757 6.096 4.474 2.758 5.425-2.693.767-8.276-.33-8.276-.33"/><path fill="#FEC553" d="M53.686 136.972c0-.972-.502-1.76-1.121-1.76-.62 0-1.122.788-1.122 1.76s.502 1.76 1.122 1.76c.619 0 1.12-.788 1.12-1.76"/><path fill="#EBF8FF" d="M465.386 170.002c1.098 2.147-1.178 3.525-3.034 4.724-1.857 1.197-4.045 1.069-4.867.744-.823-.326-1.062-2.84.795-3.44 1.856-.599 2.99-2.028 2.99-2.028M456.698 169c1.098 2.148-1.178 3.525-3.034 4.724-1.857 1.197-4.045 1.068-4.867.743-.823-.324-1.062-2.84.795-3.44 1.856-.597 2.99-2.027 2.99-2.027m7.793-65.841c5.684 1.136 7.322 1.132 7.095 8.34-.227 7.21-1.32 22.045-1.32 22.045l-17.064-1.712.707-26.667s.818-2.866 6.902-2.391"/><path fill="#EBF8FF" d="M449.086 131.832L452.582 169s.245.647 1.992.647c1.335 0 2.124-.647 2.124-.647l-.185-28.693 2.11.986 2.647 28.71s.398.53 2 .53c1.315 0 2.116-.53 2.116-.53l.763-36.46m-.537-28.903c10.611 5.951 9.56 34.628 9.56 34.628l-2.088.925s-3.286-24.45-6.93-25.509m9.018 24.584c1.277 3.038 1.175 4.501-1.469 5.434-2.643.933-1.052-3.476-.619-4.509m-22.038-36.507c-10.611 5.27-9.559 30.656-9.559 30.656l2.087.82s3.286-21.648 6.93-22.583"/><path fill="#EBF8FF" d="M441.487 134.342c-1.278 2.69-1.176 3.985 1.468 4.812 2.643.826 1.053-3.078.62-3.993m15.457-45.826c4.535-1.694 4.898 3.238 4.353 6.239-.205.865-.519 1.584-.86 2.245-.746 1.456-1.618 2.648-1.706 4.569v.021c-.006.342 0 .646.023.91 0 .078.004.156.016.233.022.23.055.468.1.721.005.007.005.017.005.023.778 4.248-5.026 2.521-4.055.441l.005-.005c.988-2.085.403-2.87-.315-3.123a5.244 5.244 0 01-.518-.165c-.005 0-.01-.005-.01-.005-.06-.011-.11-.04-.155-.061-.404-.16-.877-.386-1.214-.75-.006 0-.01-.007-.023-.017-.926-.734-1.666-1.782-1.875-2.947-.353-2.017.662-6.255 6.23-8.33"/><path fill="#EBF8FF" d="M461.514 91.22l-.82 6.908c-.057.476.065.954.342 1.345.22.31.672.321.915.028.668-.809 1.766-2.89 2.23-8.06.605-6.738-1.165-2.819-7.788-4.949-7.955-2.557-5.657 4.153-2.56 5.035 2.499.711 7.68-.307 7.68-.307"/><path fill="#EBF8FF" d="M460.606 94.873c0-.901.467-1.633 1.04-1.633.576 0 1.042.732 1.042 1.633 0 .9-.466 1.632-1.041 1.632-.574 0-1.041-.731-1.041-1.632m58.17 191.93c1.098 2.147-1.18 3.525-3.035 4.723-1.857 1.197-4.044 1.068-4.866.744-.824-.325-1.063-2.84.795-3.439 1.854-.599 2.99-2.028 2.99-2.028m-4.572-1.003c1.098 2.147-1.179 3.525-3.035 4.723-1.857 1.198-4.044 1.07-4.866.744-.823-.324-1.063-2.84.794-3.439 1.856-.598 2.991-2.028 2.991-2.028m7.793-65.84c5.683 1.135 7.32 1.131 7.094 8.34-.227 7.208-1.32 22.044-1.32 22.044l-17.064-1.712.707-26.667s.819-2.865 6.902-2.39"/><path fill="#EBF8FF" d="M502.475 248.632l3.497 37.168s.244.647 1.992.647c1.334 0 2.124-.647 2.124-.647l-.185-28.693 2.109.986 2.648 28.71s.398.53 2 .53c1.315 0 2.116-.53 2.116-.53l.763-36.459M519 221.441c10.612 5.951 9.56 34.627 9.56 34.627l-2.088.926s-3.285-24.452-6.93-25.509"/><g transform="translate(525 255.649)"><mask id="b" fill="#fff"><use xlink:href="#a"/></mask><path fill="#EBF8FF" d="M3.56.419C4.839 3.458 4.738 4.92 2.094 5.854c-2.643.933-1.053-3.476-.62-4.51" mask="url(#b)"/></g><path fill="#EBF8FF" d="M504.436 220.487c-10.612 5.269-9.56 30.656-9.56 30.656l2.088.82s3.285-21.648 6.93-22.584"/><path fill="#EBF8FF" d="M494.876 251.143c-1.277 2.69-1.176 3.985 1.468 4.812 2.643.826 1.053-3.078.62-3.993m15.457-45.828c4.535-1.693 4.899 3.24 4.354 6.24-.205.866-.52 1.583-.862 2.245-.744 1.457-1.616 2.65-1.704 4.57v.021c-.006.342 0 .646.022.91 0 .077.005.155.016.232a9.955 9.955 0 00.105.745c.778 4.248-5.026 2.52-4.055.441l.006-.006c.987-2.085.402-2.869-.315-3.123a4.832 4.832 0 01-.53-.17c-.06-.01-.11-.039-.154-.06-.403-.16-.877-.387-1.214-.75-.005 0-.011-.007-.022-.018-.926-.733-1.666-1.782-1.876-2.946-.353-2.019.663-6.256 6.229-8.33"/><path fill="#EBF8FF" d="M514.903 208.021l-.82 6.908c-.056.475.066.954.341 1.345.221.31.673.321.916.027.668-.808 1.765-2.889 2.23-8.06.604-6.738-1.165-2.818-7.788-4.948-7.955-2.557-5.656 4.153-2.56 5.035 2.499.711 7.68-.307 7.68-.307"/><path fill="#EBF8FF" d="M513.995 211.673c0-.902.466-1.633 1.041-1.633.574 0 1.04.731 1.04 1.633 0 .901-.466 1.632-1.04 1.632-.575 0-1.04-.73-1.04-1.632M11.672 321.016c-.302 1.261-1.733 4.076 1.125 4.045 2.858-.03 8.849-2.623 8.542-3.967-.308-1.343-1.886-2.415-3.083-2.046-1.197.368-3.368 1.884-4.304 1.447M.944 316.638c-.302 1.261-1.733 4.076 1.125 4.045 2.858-.03 8.85-2.623 8.542-3.967-.308-1.343-1.886-2.415-3.083-2.046-1.197.368-3.368 1.884-4.304 1.447"/><path fill="#EBF8FF" d="M16.76 278.062c.449 4.895-.852 42.285-1.311 43.348-.433 1.006-4.357-.454-4.357-.454L8.74 284.582l-1.362.831c-.095 4.996-1.92 32.434-2.721 32.516-.991.103-3.958-.474-3.958-.474l-.535-41.143 16.596 1.75zm7.262-2.512c1.737.107 5.128-.41 4.812.23-.318.64-4.672.217-1.882 1.417 2.789 1.2 3.84 1.89 3.224 2.716-.614.827-2.016.924-3.373.2-1.355-.724-4.59-2.542-4.59-2.542m8.879-29.05c-.514.393-1.591 1.04-2.76 1.7.376.548 1.219 1.926.7 2.725-.657 1.012-3.83 1.95-4.681.404a2.263 2.263 0 01-.184-.427c-.291-.912.506-1.734 1.11-2.06 3.355-1.825 7.095-3.325 5.815-2.342m-19.207-3.326c-.624.06-.845.322-.841.733h-.002c-.081 3.709 1.569 4.606-2.832 3.913-1.847-.292-2.45-.956-2.53-1.627.482-.526.855-1.344.804-2.622-.138-3.366-1.9-4.87-1.828-5.645.07-.775-1.457-4.83.943-5.391 2.399-.561 9.373-1.037 10.658 3.217 1 3.31-2.004 7.193-4.372 7.422"/><path fill="#EBF8FF" d="M11.903 237.527c.961-3.137 4.955-2.781 4.933-5.516-.034-4.005-3.402.376-9.403.15-7.592-.285-3.996 11.815.507 12.705 1.126.222 2.05.245 2.803.155 1.65-.197 2.596-1.993 1.89-3.497-.577-1.227-1.096-2.803-.73-3.997"/><path fill="#EBF8FF" d="M11.205 240.152c-.063-.903.454-1.676 1.156-1.725.702-.05 1.323.644 1.386 1.547.062.904-.455 1.676-1.156 1.725-.702.049-1.323-.644-1.386-1.547m-4.26 15.624c10.4.522 17.53-4.228 17.53-4.228l.96 2.552s-8.966 6.052-18.279 7.953"/><g transform="translate(0 247.649)"><mask id="d" fill="#fff"><use xlink:href="#c"/></mask><path fill="#EBF8FF" d="M.165 5.302C.478-1.348 9.932-.178 12.612.96c3.935 1.673.012 17.46 11.41 26.94l-1.809 2.022s-2.962-2.52-6.083-6.046c.235 2.585.455 5.278.637 7.985L.144 30.384s-.338-17.47.021-25.082" mask="url(#d)"/></g><path fill="#EBF8FF" d="M104.398 144.852c-1.14 2.23 1.224 3.661 3.15 4.905 1.929 1.243 4.202 1.11 5.055.773.855-.338 1.103-2.949-.825-3.572-1.928-.622-3.106-2.106-3.106-2.106m4.747-1.04c-1.14 2.23 1.224 3.66 3.151 4.903 1.928 1.244 4.201 1.111 5.055.773.854-.337 1.103-2.949-.825-3.57-1.929-.623-3.106-2.107-3.106-2.107m-8.093-68.376c-5.901 1.18-7.604 1.176-7.367 8.662.235 7.486 1.37 22.893 1.37 22.893l17.722-1.778-.735-27.694s-.85-2.976-7.168-2.482"/><path fill="#EBF8FF" d="M121.325 105.212l-3.63 38.6s-.256.671-2.07.671c-1.386 0-2.206-.672-2.206-.672l.193-29.799-2.19 1.024-2.75 29.816s-.414.55-2.077.55c-1.367 0-2.198-.55-2.198-.55l-.793-37.863m.558-30.015c-11.02 6.181-9.927 35.96-9.927 35.96l2.168.962s3.412-25.394 7.197-26.49m15.864-11.251c4.479 2.563 5.876 17.828 13.881-3.784l1.923 1.399s-.718 16.539-10.949 14.676c-8.649-1.574-7.154-11.288-12.37-9.824"/><path fill="#EBF8FF" d="M133.455 66.085c.126.615.238 1.83.324 3.13.637-.097 2.2-.252 2.68.537.607 1.004.09 4.175-1.62 4.27a2.3 2.3 0 01-.452-.02c-.92-.13-1.305-1.174-1.335-1.841-.183-3.706.082-7.612.403-6.076m-39.22 46.85c-1.326 3.154-1.22 4.674 1.525 5.643 2.745.968 1.093-3.61.643-4.682m16.793-38.584c.314.592 1.09 1.497-.88 1.662-1.97.166-3.938-.682-2.409-1.662m-.686 0a6.526 6.526 0 01-.827-.5c-.343-.212-.888-.676-1.475-1.315l-.01-.009a.488.488 0 00-.01-.013c-2.07-2.265-4.602-6.672-.355-9.747 5.729-4.149 4.228 0 4.228 0 5.473 2.095 7.036 5.5 6.17 7.871v.001l-.005.012a3.568 3.568 0 01-.362.723c-.7 1.255-1.894 2.113-3.081 2.738"/><path fill="#EBF8FF" d="M102.966 65.409c.235-1.178.803-3.844 3.4-3.775 2.598.069 2.667-.796 6.165-.312 3.498.485.346 1.87 3.602 2.39 3.255.519.83 2.944-.837 2.742-1.668-.202-12.795-2.37-9.207 2.937.275.409.539.772.794 1.1 2.895 1.624 4.388 1.14 7.33.424 2.95-.72 2.717-1.11 2.863-1.447.657.986 1.23 2.832-.136 3.969v-.001c-.937 1.006-2.66 2.109-4.41 2.398-3.358.554-4.85-.468-7.098-2.39-2.24-1.913-2.702-6.857-2.466-8.035"/><path fill="#EBF8FF" d="M105.123 69.833c-.114-.624.24-1.212.79-1.313.55-.101 1.09.324 1.203.948.114.625-.239 1.213-.789 1.313-.55.102-1.09-.323-1.204-.948m8.291 2.382c-.856-.209-1.669.378-.895.791.774.412 2.305-.447.895-.79"/><path fill="#061D82" d="M101.874 378.98c3.224-.938 3.708-3.516 3.086-3.742-.787-.288-2.918 1.222-3.163.767-.378-.7-.066-1.512-.066-1.512l-3.586-.002v6.491l1.618.31s.083-.644.202-1.385v-.003c.035-.215.07-.437.11-.654-.01 0 .005 0 0 0 .108-.768.214-1.11.335-1.467.126-.382.241-.408.292.176 0 0-.25 1.433 1.172 1.02"/><path fill="#EBF8FF" d="M97.512 363.691l-.132-5.269c-.415-11.047-1.397-9.549-.526-21.011l15.973 1.162-2.941 38.952H106.2l-1.224-32.293-1.988-1.151-1.294 31.043-3.548-.633-.59-9.051a71.9 71.9 0 01-.044-1.749"/><path fill="#061D82" d="M106.2 377.525v6.493l1.617.631s.474-3.599.737-3.561c.263.037.128 3.193 4.273 2.509 4.144-.684 3.724-2.547 3.461-2.509-.264.037-4.094.773-4.967-.437-.873-1.21-1.435-3.126-1.435-3.126"/><path fill="#FEC553" d="M86.081 307.55c-1.918-3.885-3.92-5.086-1.83-1.61 2.092 3.476-5.964-1.58-5.585-.222.38 1.36 5.594 3.156 5.594 3.156m23.763-12.663c5.762 2.147 6.242 5.938 5.872 8.03-.42 2.397-3.05 4.329-4.956 4.194-.27 1.008-.557 2.598 0 3.858l.06.067.019.027c-.011.005-.018.005-.03.009-1.975.43-2.71 1.065-3.734-.209l.004-.004c.118-.488.239-1.101.344-1.883.034-.35.049-.678.049-.986 0-2.345-.9-3.597-2.05-5.23-1.067-1.514-1.657-10.14 4.422-7.873m21.01 14.694c2.333-3.65 4.456-4.626 1.996-1.4-2.46 3.226 6.102-.918 5.575.392-.525 1.31-5.906 2.525-5.906 2.525"/><path fill="#061D82" d="M100.308 302.296c.038-6.732 4.373-7.26 8.859-6.876 1.806.37 4.029 1.441 3.882 4.481-.345 7.127.912 9.038.912 9.038-1.9.938-6.82.715-10.67.096l-.171-2.655-.96 2.455a26.18 26.18 0 01-1.743-.392c-.067-1.115-.127-3-.11-6.147"/><path fill="#D5EDF7" d="M112.826 338.573h.001s-.002.01 0 0"/><path fill="#D5EDF7" d="M84.26 308.875l1.82-1.324c2.195 17.702 8.172 6.675 14.28 4.954.1-.04.21-.076.33-.11 5.564-1.958 9.415-1.061 12.607.83 5.913 3.192 11.72 14.593 15.736-2.32l1.666 1.517s-1.603 12.655-9.261 11.672c-3.46-.445-7.774-4.556-9.37-5.873l1.207 22.503-16.922-2.793s3.232-13.488 3.565-20.248c-1.495.667-4.887 4.022-8.114 4.08-7.721.137-7.544-12.888-7.544-12.888"/><path fill="#EBF8FF" d="M142.033 285.818c0 18.148 40.55 32.86 90.571 32.86 50.022 0 90.573-14.712 90.573-32.86s-40.55-32.86-90.573-32.86c-50.02 0-90.57 14.712-90.57 32.86"/><path fill="#EBF8FF" d="M142.033 285.818c0 18.148 40.55 32.86 90.571 32.86 50.022 0 90.573-14.712 90.573-32.86s-40.55-32.86-90.573-32.86c-50.02 0-90.57 14.712-90.57 32.86"/><path fill="#EBF8FF" d="M323.177 32v253.82h-181.14V32c0 18.15 40.55 32.86 90.57 32.86 7.13 0 14.06-.3 20.71-.86V32h69.86z"/><path fill="#EBF8FF" d="M253.316 64v120.34H142.037V32c0 18.15 40.55 32.86 90.57 32.86 7.13 0 14.06-.3 20.71-.86"/><path fill="#FF6955" d="M323.177 224.67v39.71c0 18.14-40.55 32.86-90.57 32.86-29.042 0-54.881-4.96-71.458-12.675a2.467 2.467 0 01-1.412-2.243V247.39c.05-1.699.43-2.9 2.69-1.949.01.01.03.01.04.01 16.61 7.38 41.86 12.08 70.14 12.08 29.45 0 55.62-5.1 72.16-13 11.55-5.51 18.41-12.39 18.41-19.86"/><path stroke="#FFF" stroke-linecap="round" stroke-width="7" d="M163.403 77.56s32.35 17.722 94.134 10.41m-94.134 62.42s32.35 17.722 94.134 10.41"/><path fill="#FFF" d="M323.177 143.044v39.71c0 18.14-40.55 32.86-90.57 32.86-29.042 0-54.881-4.96-71.458-12.674a2.467 2.467 0 01-1.412-2.243v-34.933c.05-1.699.43-2.9 2.69-1.949.01.01.03.01.04.01 16.61 7.38 41.86 12.08 70.14 12.08 29.45 0 55.62-5.1 72.16-13 11.55-5.51 18.41-12.39 18.41-19.86m-146.001 77.601v14.214a1.733 1.733 0 01-2.115 1.692c-4.915-1.135-9.5-2.444-13.703-3.894a2.42 2.42 0 01-1.622-2.296v-14.417c.05-1.699.429-2.9 2.69-1.949.01.01.03.01.04.01 3.975 1.763 8.435 3.376 13.317 4.801a1.922 1.922 0 011.393 1.84m146-150.173v39.71c0 18.141-40.55 32.86-90.57 32.86-29.041 0-54.88-4.96-71.457-12.675a2.466 2.466 0 01-1.412-2.24V93.194c.05-1.7.43-2.9 2.69-1.95.01.01.03.01.04.01 16.61 7.38 41.86 12.08 70.14 12.08 29.45 0 55.62-5.1 72.16-13 11.55-5.51 18.41-12.39 18.41-19.86"/><path stroke="#B1D8FF" stroke-linecap="round" stroke-width="7" d="M173.673 115.508s42.528 16.824 104.594 4.061m-104.594 68.86s57.954 23.716 130.691-4.388m-29.618 48.41a206.11 206.11 0 0029.618-8.976m-116.832 8.238c10.572 2.59 26.668 5.37 46.45 5.124"/><path stroke="#FFF" stroke-linecap="round" stroke-width="7" d="M195.846 275.159c23.372 4.479 63.058 7.156 108.519-10.41"/><g transform="translate(253 -.351)"><mask id="f" fill="#fff"><use xlink:href="#e"/></mask><path fill="#D5EDF7" d="M70.177 32.35c0 15.56-29.82 28.6-69.86 32v-64c40.04 3.4 69.86 16.44 69.86 32" mask="url(#f)"/></g><path fill="#FFF" d="M265.726 225.28v14.588c0 .789-.577 1.46-1.36 1.567a222.195 222.195 0 01-14.721 1.5 1.584 1.584 0 01-1.69-1.578v-14.61c0-.828.648-1.511 1.475-1.568 4.995-.34 9.842-.831 14.512-1.457a1.57 1.57 0 011.784 1.559"/><path stroke="#FF6955" stroke-linecap="round" stroke-linejoin="round" stroke-width="3" d="M251.95 233.776l4.174 4.328 6.62-9.687"/><path fill="#061D83" d="M396.467 193.93c1.14 2.23-1.224 3.66-3.151 4.903-1.928 1.244-4.201 1.111-5.054.773-.855-.337-1.104-2.949.825-3.572 1.928-.62 3.106-2.105 3.106-2.105m-4.749-1.04c1.141 2.23-1.223 3.66-3.15 4.903-1.929 1.244-4.202 1.11-5.055.773-.854-.337-1.103-2.949.825-3.572 1.928-.622 3.106-2.105 3.106-2.105"/><path fill="#EBF8FF" d="M379.54 154.29l3.63 38.599s.254.672 2.07.672c1.385 0 2.204-.672 2.204-.672l-.192-29.8 2.191 1.025 2.75 29.816s.412.55 2.075.55c1.367 0 2.2-.55 2.2-.55l.792-37.863"/><path fill="#D5EDF7" d="M391.263 124.512c5.902 1.18 7.604 1.176 7.368 8.662-.236 7.485-1.371 22.893-1.371 22.893l-17.721-1.778.735-27.694s.85-2.977 7.168-2.482"/><path fill="#D5EDF7" d="M396.701 126.051c11.021 6.18 9.928 35.96 9.928 35.96l-2.168.961s-3.412-25.394-7.197-26.49M381.4 125.23c-4.478 2.564-5.875 17.828-13.88-3.783l-1.923 1.398s.719 16.539 10.95 14.677c8.649-1.575 7.153-11.288 12.37-9.825"/><path fill="#FEC553" d="M367.41 115.162c-.128.614-.239 1.83-.325 3.13-.638-.096-2.199-.253-2.68.538-.608 1.002-.09 4.175 1.621 4.268.168.007.317.003.451-.02.921-.13 1.305-1.173 1.334-1.841.183-3.705-.082-7.611-.402-6.075m39.22 46.85c1.327 3.154 1.221 4.674-1.524 5.643-2.747.968-1.094-3.61-.644-4.683m-16.794-38.583c-.314.592-1.089 1.496.88 1.662 1.97.165 3.94-.682 2.41-1.662m.687 0c.274-.138.55-.306.827-.5.343-.212.888-.676 1.475-1.315l.009-.009a.064.064 0 01.01-.013c2.07-2.266 4.603-6.672.356-9.747-5.73-4.149-4.23 0-4.23 0-5.472 2.094-7.034 5.5-6.17 7.871a3.598 3.598 0 00.368.735c.7 1.256 1.895 2.114 3.082 2.738"/><path fill="#0147AB" d="M397.899 114.486c-.236-1.178-.805-3.845-3.4-3.775-2.599.069-2.668-.797-6.166-.312-3.498.484-.347 1.87-3.602 2.39-3.255.519-.83 2.943.837 2.742 1.668-.202 12.796-2.37 9.207 2.937-.275.408-.54.77-.793 1.1-2.896 1.623-4.39 1.14-7.33.423-2.952-.72-2.717-1.11-2.863-1.446-.657.985-1.232 2.83.136 3.969v-.002c.936 1.007 2.66 2.11 4.409 2.398 3.358.555 4.849-.468 7.099-2.39 2.238-1.912 2.7-6.857 2.466-8.034"/><path fill="#FEC553" d="M395.74 118.91c.115-.625-.238-1.213-.789-1.313-.55-.101-1.089.323-1.203.948-.115.624.238 1.213.79 1.313.55.1 1.088-.323 1.202-.948m-8.29 2.382c.856-.209 1.668.379.895.79-.775.414-2.305-.445-.895-.79"/><path stroke="#B1D8FF" stroke-dasharray="5 5" stroke-linecap="round" stroke-width=".5" d="M335.34 367.76c-19.187-11.599-53.075.632-72.596-35.059m-134.387 36.033c18.58-16.924 39.816-.513 69.32-36.032M74.32 232.452c22.355 15.697 40.151 14.889 55.476 38.393"/></g></svg>