<svg xmlns="http://www.w3.org/2000/svg" xmlns:xlink="http://www.w3.org/1999/xlink" width="530" height="385" viewBox="0 0 530 385">
  <defs>
    <polygon id="hp-illustration-rapports-a" points=".603 .419 4.357 .419 4.357 5.983 .603 5.983"/>
    <polygon id="hp-illustration-rapports-c" points="0 .08 24.021 .08 24.021 31.862 0 31.862"/>
    <polygon id="hp-illustration-rapports-e" points=".317 .351 70.177 .351 70.177 64.351 .317 64.351"/>
  </defs>
  <g fill="none" fill-rule="evenodd" transform="translate(0 -1)">
    <path stroke="#B1D8FF" stroke-dasharray="5 5" stroke-linecap="round" stroke-width=".5" d="M350.0997 292.4908C374.4347 302.0548 372.7497 302.5598 406.6597 306.5408M364.8507 205.5308C331.6237 229.0408 361.8987 237.1848 317.0277 262.8458"/>
    <path stroke="#B1D8FF" stroke-dasharray="5 5" stroke-linecap="round" stroke-width=".5" d="M115.1105,292.4908 C115.1105,316.0338 167.7145,335.1188 232.6055,335.1188 C297.4955,335.1188 350.0995,316.0338 350.0995,292.4908 C350.0995,268.9478 297.4955,249.8628 232.6055,249.8628 C167.7145,249.8628 115.1105,268.9478 115.1105,292.4908 Z"/>
    <path fill="#061D83" d="M357.419 377.5005C357.722 378.7625 359.152 381.5765 356.294 381.5455 353.436 381.5145 347.445 378.9225 347.753 377.5785 348.06 376.2355 349.638 375.1645 350.836 375.5325 352.033 375.9005 354.203 377.4175 355.14 376.9805M368.1476 373.1226C368.4506 374.3846 369.8806 377.1986 367.0226 377.1676 364.1646 377.1366 358.1736 374.5446 358.4816 373.2006 358.7886 371.8576 360.3676 370.7866 361.5646 371.1546 362.7616 371.5226 364.9316 373.0396 365.8686 372.6026"/>
    <path fill="#EBF8FF" d="M352.3311,334.5464 C351.8831,339.4424 353.1841,376.8314 353.6431,377.8954 C354.0761,378.9014 358.0001,377.4404 358.0001,377.4404 L360.3511,341.0664 L361.7131,341.8974 C361.8091,346.8944 363.6331,374.3314 364.4341,374.4144 C365.4251,374.5164 368.3931,373.9404 368.3931,373.9404 L368.9271,332.7964 L352.3311,334.5464 Z"/>
    <path fill="#FEC553" d="M345.0714 332.0347C343.3334 332.1427 339.9424 331.6237 340.2594 332.2637 340.5764 332.9047 344.9304 332.4827 342.1404 333.6817 339.3514 334.8817 338.3004 335.5707 338.9164 336.3977 339.5314 337.2247 340.9334 337.3227 342.2894 336.5977 343.6444 335.8737 346.8794 334.0557 346.8794 334.0557M338.0001 305.0054C338.5141 305.3984 339.5911 306.0444 340.7591 306.7054 340.3841 307.2534 339.5411 308.6314 340.0591 309.4314 340.7171 310.4424 343.8901 311.3794 344.7411 309.8344 344.8231 309.6824 344.8861 309.5424 344.9261 309.4084 345.2161 308.4964 344.4201 307.6734 343.8141 307.3484 340.4601 305.5234 336.7201 304.0224 338.0001 305.0054M357.2071 301.6802C357.8311 301.7402 358.0521 302.0012 358.0481 302.4132L358.0511 302.4122C358.1311 306.1222 356.4811 307.0182 360.8831 306.3252 362.7291 306.0342 363.3321 305.3702 363.4121 304.6992 362.9301 304.1722 362.5571 303.3542 362.6091 302.0762 362.7461 298.7102 364.5081 297.2072 364.4361 296.4312 364.3651 295.6562 365.8931 291.6032 363.4931 291.0412 361.0951 290.4802 354.1201 290.0032 352.8351 294.2572 351.8351 297.5682 354.8391 301.4512 357.2071 301.6802"/>
    <path fill="#061D82" d="M357.1895,294.0113 C356.2275,290.8743 352.2335,291.2303 352.2565,288.4953 C352.2905,284.4903 355.6575,288.8713 361.6585,288.6463 C369.2505,288.3603 365.6545,300.4613 361.1515,301.3503 C360.0255,301.5733 359.1015,301.5963 358.3485,301.5053 C356.7005,301.3093 355.7525,299.5123 356.4595,298.0093 C357.0355,296.7823 357.5545,295.2053 357.1895,294.0113"/>
    <path fill="#FEC553" d="M357.8878,296.6363 C357.9498,295.7333 357.4328,294.9603 356.7308,294.9113 C356.0298,294.8633 355.4088,295.5553 355.3458,296.4583 C355.2828,297.3623 355.7998,298.1343 356.5018,298.1833 C357.2038,298.2333 357.8248,297.5403 357.8878,296.6363"/>
    <path fill="#D5EDF7" d="M362.1466,312.2603 C351.7476,312.7833 344.6166,308.0323 344.6166,308.0323 L343.6586,310.5853 C343.6586,310.5853 352.6226,316.6373 361.9356,318.5373"/>
    <path fill="#D5EDF7" d="M368.9268,309.4351 C368.6138,302.7861 359.1608,303.9551 356.4808,305.0941 C352.5458,306.7671 356.4678,322.5551 345.0718,332.0351 L346.8788,334.0561 C346.8788,334.0561 349.8408,331.5361 352.9618,328.0111 C352.7268,330.5961 352.5068,333.2881 352.3248,335.9951 L368.9478,334.5171 C368.9478,334.5171 369.2858,317.0481 368.9268,309.4351"/>
    <path fill="#061D83" d="M425.7569 294.9703C426.9409 297.2843 424.4869 298.7683 422.4869 300.0593 420.4859 301.3503 418.1289 301.2103 417.2419 300.8613 416.3569 300.5113 416.0989 297.8003 418.0989 297.1553 420.0999 296.5103 421.3209 294.9703 421.3209 294.9703M416.3946 293.8892C417.5786 296.2032 415.1256 297.6882 413.1246 298.9792 411.1246 300.2692 408.7666 300.1302 407.8806 299.7812 406.9946 299.4302 406.7366 296.7202 408.7366 296.0752 410.7376 295.4292 411.9586 293.8892 411.9586 293.8892"/>
    <path fill="#EBF8FF" d="M420.3575,222.9361 C426.4815,224.1611 428.2475,224.1571 428.0035,231.9251 C427.7575,239.6931 426.5805,255.6801 426.5805,255.6801 L408.1915,253.8351 L408.9535,225.0981 C408.9535,225.0981 409.8365,222.0101 416.3915,222.5221"/>
    <path fill="#D5EDF7" d="M408.1915,253.8355 L411.9595,293.8895 C411.9595,293.8895 412.2225,294.5865 414.1065,294.5865 C415.5445,294.5865 416.3945,293.8895 416.3945,293.8895 L416.1955,262.9685 L418.4685,264.0305 L421.3215,294.9705 C421.3215,294.9705 421.7515,295.5415 423.4765,295.5415 C424.8945,295.5415 425.7565,294.9705 425.7565,294.9705 L426.5805,255.6805"/>
    <path fill="#EBF8FF" d="M426.0011,224.5338 C437.4371,230.9468 436.3031,261.8488 436.3031,261.8488 L434.0531,262.8458 C434.0531,262.8458 430.5121,236.4968 426.5851,235.3568"/>
    <path fill="#FEC553" d="M436.3028,261.8492 C437.6788,265.1232 437.5698,266.7002 434.7198,267.7052 C431.8708,268.7102 433.5848,263.9592 434.0528,262.8462"/>
    <path fill="#EBF8FF" d="M410.3038,223.5054 C398.8678,229.1834 400.0028,256.5414 400.0028,256.5414 L402.2518,257.4244 C402.2518,257.4244 405.7928,234.0964 409.7198,233.0874"/>
    <path fill="#FEC553" d="M400.003 256.5416C398.626 259.4396 398.736 260.8366 401.585 261.7266 404.434 262.6166 402.72 258.4096 402.252 257.4246M418.9102 208.0386C423.7972 206.2136 424.1892 211.5286 423.6002 214.7636 423.3812 215.6966 423.0422 216.4696 422.6732 217.1836 421.8702 218.7526 420.9312 220.0366 420.8362 222.1056L420.8362 222.1296C420.8302 222.4976 420.8362 222.8246 420.8602 223.1096 420.8602 223.1936 420.8662 223.2766 420.8782 223.3596 420.9012 223.6096 420.9372 223.8656 420.9842 224.1396 420.9902 224.1446 420.9902 224.1566 420.9902 224.1626 421.8292 228.7406 415.5742 226.8796 416.6212 224.6386L416.6272 224.6326C417.6912 222.3856 417.0602 221.5406 416.2882 221.2676 416.1032 221.2196 415.9192 221.1606 415.7292 221.0886 415.7232 221.0886 415.7172 221.0826 415.7172 221.0826 415.6512 221.0706 415.5982 221.0416 415.5512 221.0176 415.1172 220.8456 414.6052 220.6016 414.2432 220.2086 414.2372 220.2086 414.2302 220.2026 414.2192 220.1906 413.2202 219.4006 412.4242 218.2706 412.1972 217.0166 411.8172 214.8406 412.9112 210.2736 418.9102 208.0386"/>
    <path fill="#0147AB" d="M421.5841,210.0718 L420.7001,217.5158 C420.6401,218.0278 420.7721,218.5448 421.0691,218.9658 C421.3081,219.3008 421.7941,219.3118 422.0561,218.9958 C422.7761,218.1238 423.9581,215.8808 424.4581,210.3088 C425.1101,203.0488 423.2031,207.2718 416.0661,204.9768 C407.4921,202.2198 409.9701,209.4518 413.3081,210.4018 C416.0001,211.1688 421.5841,210.0718 421.5841,210.0718"/>
    <path fill="#FEC553" d="M420.6056,214.0074 C420.6056,213.0354 421.1086,212.2474 421.7276,212.2474 C422.3466,212.2474 422.8486,213.0354 422.8486,214.0074 C422.8486,214.9794 422.3466,215.7664 421.7276,215.7664 C421.1086,215.7664 420.6056,214.9794 420.6056,214.0074"/>
    <path fill="#061D83" d="M48.5343 218.9351C47.3513 221.2481 49.8043 222.7331 51.8053 224.0241 53.8053 225.3151 56.1633 225.1751 57.0493 224.8261 57.9353 224.4761 58.1933 221.7651 56.1923 221.1201 54.1923 220.4741 52.9703 218.9351 52.9703 218.9351M57.8966 217.8541C56.7136 220.1681 59.1666 221.6531 61.1666 222.9441 63.1676 224.2341 65.5256 224.0951 66.4116 223.7461 67.2966 223.3951 67.5556 220.6851 65.5546 220.0401 63.5536 219.3941 62.3326 217.8541 62.3326 217.8541"/>
    <path fill="#EBF8FF" d="M53.9347,146.9009 C47.8097,148.1259 46.0437,148.1219 46.2887,155.8899 C46.5337,163.6579 47.7107,179.6449 47.7107,179.6449 L66.0997,177.7999 L65.3377,149.0629 C65.3377,149.0629 64.4557,145.9739 57.8997,146.4869"/>
    <path fill="#D5EDF7" d="M66.0997,177.8004 L62.3317,217.8544 C62.3317,217.8544 62.0687,218.5514 60.1857,218.5514 C58.7467,218.5514 57.8967,217.8544 57.8967,217.8544 L58.0967,186.9324 L55.8227,187.9954 L52.9697,218.9354 C52.9697,218.9354 52.5407,219.5064 50.8147,219.5064 C49.3977,219.5064 48.5347,218.9354 48.5347,218.9354 L47.7107,179.6454"/>
    <path fill="#EBF8FF" d="M48.2911,148.4986 C36.8551,154.9116 37.9891,185.8136 37.9891,185.8136 L40.2391,186.8116 C40.2391,186.8116 43.7791,160.4606 47.7071,159.3216"/>
    <path fill="#FEC553" d="M37.9894,185.814 C36.6124,189.088 36.7224,190.665 39.5714,191.669 C42.4204,192.675 40.7064,187.924 40.2394,186.811"/>
    <path fill="#EBF8FF" d="M63.9874,147.4703 C75.4234,153.1483 74.2894,180.5063 74.2894,180.5063 L72.0394,181.3893 C72.0394,181.3893 68.4984,158.0613 64.5714,157.0523"/>
    <path fill="#FEC553" d="M74.2892 180.5064C75.6662 183.4044 75.5562 184.8004 72.7072 185.6914 69.8572 186.5804 71.5712 182.3744 72.0392 181.3894M55.3819 132.0035C50.4949 130.1785 50.1029 135.4935 50.6909 138.7285 50.9109 139.6615 51.2499 140.4345 51.6179 141.1485 52.4209 142.7175 53.3609 144.0015 53.4549 146.0695L53.4549 146.0945C53.4609 146.4625 53.4549 146.7895 53.4319 147.0745 53.4319 147.1585 53.4259 147.2415 53.4139 147.3245 53.3899 147.5745 53.3549 147.8305 53.3069 148.1045 53.3009 148.1095 53.3009 148.1215 53.3009 148.1275 52.4629 152.7055 58.7169 150.8445 57.6709 148.6035L57.6649 148.5975C56.6009 146.3505 57.2309 145.5055 58.0039 145.2325 58.1879 145.1845 58.3719 145.1245 58.5629 145.0535 58.5689 145.0535 58.5739 145.0475 58.5739 145.0475 58.6399 145.0355 58.6939 145.0065 58.7399 144.9825 59.1749 144.8105 59.6869 144.5665 60.0489 144.1735 60.0549 144.1735 60.0609 144.1675 60.0719 144.1555 61.0709 143.3645 61.8679 142.2355 62.0939 140.9815 62.4749 138.8055 61.3809 134.2385 55.3819 132.0035"/>
    <path fill="#0147AB" d="M52.7081,134.0367 L53.5911,141.4807 C53.6521,141.9927 53.5201,142.5097 53.2221,142.9307 C52.9841,143.2657 52.4981,143.2757 52.2361,142.9597 C51.5161,142.0887 50.3341,139.8457 49.8331,134.2737 C49.1821,127.0137 51.0881,131.2367 58.2261,128.9417 C66.7991,126.1847 64.3221,133.4157 60.9841,134.3667 C58.2911,135.1337 52.7081,134.0367 52.7081,134.0367"/>
    <path fill="#FEC553" d="M53.6857,137.9722 C53.6857,137.0002 53.1837,136.2122 52.5647,136.2122 C51.9447,136.2122 51.4427,137.0002 51.4427,137.9722 C51.4427,138.9442 51.9447,139.7312 52.5647,139.7312 C53.1837,139.7312 53.6857,138.9442 53.6857,137.9722"/>
    <path fill="#EBF8FF" d="M465.3858 171.0025C466.4838 173.1495 464.2078 174.5275 462.3518 175.7255 460.4948 176.9235 458.3068 176.7945 457.4848 176.4695 456.6618 176.1445 456.4228 173.6295 458.2798 173.0305 460.1358 172.4315 461.2698 171.0025 461.2698 171.0025M456.6983 169.9996C457.7963 172.1476 455.5203 173.5246 453.6643 174.7236 451.8073 175.9206 449.6193 175.7916 448.7973 175.4666 447.9743 175.1426 447.7353 172.6266 449.5923 172.0276 451.4483 171.4296 452.5823 169.9996 452.5823 169.9996M460.3751 104.1587C466.0591 105.2947 467.6971 105.2907 467.4701 112.4997 467.2431 119.7087 466.1491 134.5437 466.1491 134.5437L449.0861 132.8317 449.7931 106.1647C449.7931 106.1647 450.6111 103.2987 456.6951 103.7737"/>
    <path fill="#EBF8FF" d="M449.086 132.8316L452.582 169.9996C452.582 169.9996 452.827 170.6466 454.574 170.6466 455.909 170.6466 456.698 169.9996 456.698 169.9996L456.513 141.3066 458.623 142.2926 461.27 171.0026C461.27 171.0026 461.668 171.5326 463.27 171.5326 464.585 171.5326 465.386 171.0026 465.386 171.0026L466.149 134.5436M465.6124 105.6402C476.2234 111.5912 475.1724 140.2682 475.1724 140.2682L473.0844 141.1932C473.0844 141.1932 469.7984 116.7422 466.1544 115.6842"/>
    <path fill="#EBF8FF" d="M475.172 140.2681C476.449 143.3061 476.347 144.7691 473.703 145.7021 471.06 146.6351 472.651 142.2261 473.084 141.1931M451.046 104.6861C440.435 109.9551 441.487 135.3421 441.487 135.3421L443.574 136.1621C443.574 136.1621 446.86 114.5141 450.504 113.5791"/>
    <path fill="#EBF8FF" d="M441.4874 135.3423C440.2094 138.0323 440.3114 139.3273 442.9554 140.1543 445.5984 140.9803 444.0084 137.0763 443.5744 136.1613M459.0323 90.3345C463.5673 88.6405 463.9303 93.5725 463.3853 96.5735 463.1803 97.4395 462.8663 98.1575 462.5243 98.8185 461.7793 100.2755 460.9073 101.4675 460.8193 103.3875L460.8193 103.4095C460.8133 103.7515 460.8193 104.0555 460.8423 104.3195 460.8423 104.3975 460.8463 104.4745 460.8583 104.5515 460.8803 104.7825 460.9133 105.0205 460.9573 105.2735 460.9633 105.2795 460.9633 105.2905 460.9633 105.2965 461.7413 109.5445 455.9373 107.8175 456.9083 105.7375L456.9133 105.7315C457.9013 103.6475 457.3163 102.8625 456.5983 102.6095 456.4283 102.5645 456.2573 102.5105 456.0803 102.4435 456.0753 102.4435 456.0693 102.4385 456.0693 102.4385 456.0093 102.4275 455.9593 102.3995 455.9153 102.3775 455.5113 102.2175 455.0383 101.9915 454.7013 101.6275 454.6953 101.6275 454.6903 101.6215 454.6783 101.6105 453.7523 100.8775 453.0123 99.8285 452.8033 98.6645 452.4503 96.6465 453.4653 92.4085 459.0323 90.3345"/>
    <path fill="#EBF8FF" d="M461.5138,92.2203 L460.6938,99.1283 C460.6368,99.6043 460.7588,100.0823 461.0358,100.4733 C461.2568,100.7833 461.7078,100.7943 461.9508,100.5013 C462.6188,99.6923 463.7168,97.6113 464.1808,92.4403 C464.7858,85.7033 463.0158,89.6223 456.3928,87.4923 C448.4378,84.9353 450.7358,91.6453 453.8328,92.5273 C456.3318,93.2383 461.5138,92.2203 461.5138,92.2203"/>
    <path fill="#EBF8FF" d="M460.6056 95.8726C460.6056 94.9716 461.0726 94.2396 461.6466 94.2396 462.2216 94.2396 462.6876 94.9716 462.6876 95.8726 462.6876 96.7736 462.2216 97.5046 461.6466 97.5046 461.0726 97.5046 460.6056 96.7736 460.6056 95.8726M518.7755 287.8033C519.8735 289.9503 517.5965 291.3283 515.7405 292.5263 513.8835 293.7233 511.6965 293.5943 510.8745 293.2703 510.0515 292.9453 509.8125 290.4303 511.6695 289.8313 513.5245 289.2323 514.6595 287.8033 514.6595 287.8033M510.088 286.8003C511.186 288.9473 508.909 290.3253 507.053 291.5233 505.196 292.7213 503.009 292.5923 502.187 292.2673 501.364 291.9433 501.124 289.4273 502.981 288.8283 504.837 288.2303 505.972 286.8003 505.972 286.8003M513.7648 220.9595C519.4478 222.0955 521.0858 222.0915 520.8588 229.3005 520.6318 236.5085 519.5388 251.3445 519.5388 251.3445L502.4748 249.6325 503.1818 222.9655C503.1818 222.9655 504.0008 220.0995 510.0838 220.5745"/>
    <path fill="#EBF8FF" d="M502.4747 249.6324L505.9717 286.8004C505.9717 286.8004 506.2157 287.4474 507.9637 287.4474 509.2977 287.4474 510.0877 286.8004 510.0877 286.8004L509.9027 258.1074 512.0117 259.0934 514.6597 287.8034C514.6597 287.8034 515.0577 288.3334 516.6597 288.3334 517.9747 288.3334 518.7757 287.8034 518.7757 287.8034L519.5387 251.3444M519.0011 222.441C529.6131 228.392 528.5611 257.068 528.5611 257.068L526.4731 257.994C526.4731 257.994 523.1881 233.542 519.5431 232.485"/>
    <g transform="translate(525 256.649)">
      <mask id="hp-illustration-rapports-b" fill="#fff">
        <use xlink:href="#hp-illustration-rapports-a"/>
      </mask>
      <path fill="#EBF8FF" d="M3.5607,0.4189 C4.8377,3.4579 4.7367,4.9209 2.0927,5.8539 C-0.5503,6.7869 1.0397,2.3779 1.4727,1.3449" mask="url(#hp-illustration-rapports-b)"/>
    </g>
    <path fill="#EBF8FF" d="M504.4356,221.4869 C493.8236,226.7559 494.8756,252.1429 494.8756,252.1429 L496.9636,252.9629 C496.9636,252.9629 500.2486,231.3149 503.8936,230.3789"/>
    <path fill="#EBF8FF" d="M494.8761 252.1431C493.5991 254.8331 493.7001 256.1281 496.3441 256.9551 498.9871 257.7811 497.3971 253.8771 496.9641 252.9621M512.421 207.1343C516.956 205.4413 517.32 210.3733 516.775 213.3743 516.57 214.2403 516.255 214.9573 515.913 215.6193 515.169 217.0763 514.297 218.2683 514.209 220.1883L514.209 220.2103C514.203 220.5523 514.209 220.8563 514.231 221.1203 514.231 221.1973 514.236 221.2753 514.247 221.3523 514.27 221.5833 514.303 221.8213 514.347 222.0743 514.352 222.0803 514.352 222.0913 514.352 222.0973 515.13 226.3453 509.326 224.6173 510.297 222.5383L510.303 222.5323C511.29 220.4473 510.705 219.6633 509.988 219.4093 509.817 219.3653 509.646 219.3113 509.47 219.2443 509.464 219.2443 509.458 219.2383 509.458 219.2383 509.398 219.2283 509.348 219.2003 509.304 219.1783 508.901 219.0183 508.427 218.7923 508.09 218.4283 508.085 218.4283 508.079 218.4223 508.068 218.4113 507.142 217.6783 506.402 216.6293 506.192 215.4653 505.839 213.4463 506.855 209.2093 512.421 207.1343"/>
    <path fill="#EBF8FF" d="M514.9025,209.0211 L514.0835,215.9291 C514.0265,216.4041 514.1485,216.8831 514.4245,217.2741 C514.6455,217.5841 515.0965,217.5951 515.3395,217.3011 C516.0085,216.4931 517.1055,214.4121 517.5695,209.2411 C518.1745,202.5031 516.4055,206.4231 509.7825,204.2931 C501.8265,201.7361 504.1255,208.4461 507.2215,209.3281 C509.7205,210.0391 514.9025,209.0211 514.9025,209.0211"/>
    <path fill="#EBF8FF" d="M513.9952 212.6734C513.9952 211.7714 514.4612 211.0404 515.0362 211.0404 515.6102 211.0404 516.0762 211.7714 516.0762 212.6734 516.0762 213.5744 515.6102 214.3054 515.0362 214.3054 514.4612 214.3054 513.9952 213.5744 513.9952 212.6734M11.673 322.0162C11.371 323.2772 9.94 326.0922 12.798 326.0612 15.656 326.0302 21.647 323.4382 21.34 322.0942 21.032 320.7512 19.454 319.6792 18.257 320.0482 17.06 320.4162 14.889 321.9322 13.953 321.4952M.9444 317.6382C.6424 318.8992-.7886 321.7142 2.0694 321.6832 4.9274 321.6522 10.9184 319.0602 10.6114 317.7162 10.3034 316.3732 8.7254 315.3012 7.5284 315.6702 6.3314 316.0382 4.1604 317.5542 3.2244 317.1172"/>
    <path fill="#EBF8FF" d="M16.7608 279.0621C17.2088 283.9571 15.9078 321.3471 15.4488 322.4101 15.0158 323.4161 11.0918 321.9561 11.0918 321.9561L8.7408 285.5821 7.3788 286.4131C7.2838 291.4091 5.4588 318.8471 4.6578 318.9291 3.6668 319.0321.6998 318.4551.6998 318.4551L.1648 277.3121 16.7608 279.0621zM24.0216 276.5503C25.7586 276.6573 29.1496 276.1393 28.8336 276.7793 28.5156 277.4203 24.1616 276.9973 26.9516 278.1973 29.7406 279.3973 30.7916 280.0863 30.1756 280.9133 29.5616 281.7403 28.1596 281.8373 26.8026 281.1133 25.4476 280.3893 22.2126 278.5713 22.2126 278.5713M31.0919 249.5211C30.5779 249.9141 29.5009 250.5601 28.3329 251.2211 28.7079 251.7691 29.5509 253.1471 29.0329 253.9461 28.3749 254.9581 25.2019 255.8951 24.3509 254.3501 24.2699 254.1981 24.2059 254.0581 24.1669 253.9231 23.8759 253.0111 24.6729 252.1891 25.2779 251.8631 28.6319 250.0381 32.3719 248.5381 31.0919 249.5211M11.8849 246.1949C11.2609 246.2559 11.0399 246.5169 11.0439 246.9279L11.0419 246.9279C10.9609 250.6369 12.6109 251.5339 8.2099 250.8409 6.3629 250.5489 5.7599 249.8849 5.6799 249.2139 6.1619 248.6879 6.5349 247.8699 6.4839 246.5919 6.3459 243.2259 4.5839 241.7219 4.6559 240.9469 4.7269 240.1719 3.1989 236.1179 5.5989 235.5559 7.9979 234.9949 14.9719 234.5189 16.2569 238.7729 17.2569 242.0839 14.2529 245.9659 11.8849 246.1949"/>
    <path fill="#EBF8FF" d="M11.9034,238.5269 C12.8644,235.3899 16.8584,235.7459 16.8364,233.0109 C16.8024,229.0059 13.4344,233.3869 7.4334,233.1609 C-0.1586,232.8759 3.4374,244.9759 7.9404,245.8659 C9.0664,246.0879 9.9904,246.1109 10.7434,246.0209 C12.3924,245.8239 13.3394,244.0279 12.6324,242.5239 C12.0564,241.2969 11.5374,239.7209 11.9034,238.5269"/>
    <path fill="#EBF8FF" d="M11.2052 241.1519C11.1422 240.2489 11.6592 239.4759 12.3612 239.4269 13.0632 239.3779 13.6842 240.0709 13.7472 240.9739 13.8092 241.8779 13.2922 242.6499 12.5912 242.6989 11.8892 242.7479 11.2682 242.0549 11.2052 241.1519M6.9454 256.7759C17.3454 257.2979 24.4754 252.5479 24.4754 252.5479L25.4344 255.0999C25.4344 255.0999 16.4694 261.1519 7.1564 263.0529"/>
    <g transform="translate(0 248.649)">
      <mask id="hp-illustration-rapports-d" fill="#fff">
        <use xlink:href="#hp-illustration-rapports-c"/>
      </mask>
      <path fill="#EBF8FF" d="M0.1651,5.3017 C0.4781,-1.3473 9.9321,-0.1783 12.6121,0.9607 C16.5471,2.6337 12.6241,18.4217 24.0211,27.9017 L22.2131,29.9227 C22.2131,29.9227 19.2511,27.4027 16.1301,23.8767 C16.3651,26.4617 16.5851,29.1547 16.7671,31.8617 L0.1441,30.3837 C0.1441,30.3837 -0.1939,12.9137 0.1651,5.3017" mask="url(#hp-illustration-rapports-d)"/>
    </g>
    <path fill="#EBF8FF" d="M104.3976 145.8521C103.2576 148.0821 105.6216 149.5131 107.5486 150.7571 109.4766 152.0001 111.7496 151.8671 112.6026 151.5301 113.4576 151.1921 113.7056 148.5811 111.7776 147.9581 109.8496 147.3361 108.6716 145.8521 108.6716 145.8521M113.4191 144.8111C112.2791 147.0411 114.6431 148.4721 116.5701 149.7151 118.4981 150.9591 120.7711 150.8261 121.6251 150.4881 122.4791 150.1511 122.7281 147.5391 120.8001 146.9171 118.8711 146.2951 117.6941 144.8111 117.6941 144.8111M109.6007 76.4351C103.6997 77.6151 101.9967 77.6111 102.2337 85.0971 102.4687 92.5831 103.6047 107.9901 103.6047 107.9901L121.3257 106.2121 120.5907 78.5181C120.5907 78.5181 119.7407 75.5421 113.4227 76.0361"/>
    <path fill="#EBF8FF" d="M121.3253 106.2124L117.6943 144.8114C117.6943 144.8114 117.4393 145.4834 115.6253 145.4834 114.2393 145.4834 113.4193 144.8114 113.4193 144.8114L113.6123 115.0124 111.4213 116.0364 108.6723 145.8524C108.6723 145.8524 108.2583 146.4024 106.5953 146.4024 105.2283 146.4024 104.3973 145.8524 104.3973 145.8524L103.6043 107.9894M104.1622 77.9742C93.1422 84.1552 94.2352 113.9342 94.2352 113.9342L96.4032 114.8962C96.4032 114.8962 99.8152 89.5022 103.6002 88.4052M119.464 77.1548C123.943 79.7178 125.34 94.9828 133.345 73.3708L135.268 74.7698C135.268 74.7698 134.55 91.3088 124.319 89.4458 115.67 87.8718 117.165 78.1578 111.949 79.6218"/>
    <path fill="#EBF8FF" d="M133.4552 67.0845C133.5812 67.6995 133.6932 68.9145 133.7792 70.2155 134.4162 70.1185 135.9782 69.9625 136.4592 70.7525 137.0662 71.7555 136.5492 74.9275 134.8382 75.0215 134.6702 75.0275 134.5202 75.0235 134.3872 75.0015 133.4662 74.8715 133.0822 73.8275 133.0522 73.1605 132.8692 69.4555 133.1342 65.5485 133.4552 67.0845M94.2355 113.9341C92.9085 117.0891 93.0145 118.6091 95.7595 119.5781 98.5055 120.5461 96.8535 115.9681 96.4035 114.8961M113.1964 76.3121C113.5104 76.9041 114.2864 77.8091 112.3164 77.9741 110.3464 78.1401 108.3784 77.2921 109.9074 76.3121M109.2208 76.3121C108.9468 76.1741 108.6698 76.0071 108.3938 75.8121 108.0508 75.6001 107.5058 75.1361 106.9188 74.4971L106.9098 74.4881C106.9068 74.4841 106.9038 74.4801 106.8998 74.4751 104.8298 72.2101 102.2968 67.8031 106.5438 64.7281 112.2728 60.5791 110.7718 64.7281 110.7718 64.7281 116.2448 66.8231 117.8078 70.2281 116.9418 72.5991L116.9428 72.6001 116.9368 72.6121C116.8438 72.8661 116.7228 73.1081 116.5748 73.3351 115.8748 74.5901 114.6808 75.4481 113.4938 76.0731"/>
    <path fill="#EBF8FF" d="M102.9659,66.4087 C103.2009,65.2307 103.7689,62.5647 106.3659,62.6337 C108.9639,62.7027 109.0329,61.8377 112.5309,62.3217 C116.0289,62.8067 112.8769,64.1917 116.1329,64.7117 C119.3879,65.2307 116.9639,67.6557 115.2959,67.4537 C113.6279,67.2517 102.5009,65.0837 106.0889,70.3907 C106.3639,70.7997 106.6279,71.1627 106.8829,71.4917 C109.7779,73.1147 111.2709,72.6317 114.2129,71.9147 C117.1629,71.1947 116.9299,70.8047 117.0759,70.4677 C117.7329,71.4537 118.3069,73.2997 116.9399,74.4367 L116.9399,74.4357 C116.0029,75.4417 114.2799,76.5447 112.5309,76.8337 C109.1719,77.3877 107.6809,76.3657 105.4319,74.4437 C103.1929,72.5307 102.7299,67.5867 102.9659,66.4087"/>
    <path fill="#EBF8FF" d="M105.1232 70.8326C105.0092 70.2086 105.3622 69.6206 105.9122 69.5196 106.4632 69.4186 107.0022 69.8436 107.1162 70.4676 107.2302 71.0926 106.8772 71.6806 106.3272 71.7806 105.7762 71.8826 105.2372 71.4576 105.1232 70.8326M113.4142 73.2154C112.5582 73.0064 111.7452 73.5934 112.5192 74.0064 113.2932 74.4184 114.8242 73.5594 113.4142 73.2154"/>
    <path fill="#061D82" d="M101.8741,379.9791 C105.0981,379.0421 105.5821,376.4641 104.9601,376.2381 C104.1731,375.9501 102.0421,377.4601 101.7971,377.0051 C101.4191,376.3051 101.7311,375.4931 101.7311,375.4931 L98.1451,375.4911 L98.1451,381.9821 L99.7631,382.2921 C99.7631,382.2921 99.8461,381.6481 99.9651,380.9071 L99.9651,380.9041 C100.0001,380.6891 100.0351,380.4671 100.0741,380.2501 C100.0641,380.2501 100.0801,380.2501 100.0741,380.2501 C100.1831,379.4821 100.2891,379.1391 100.4101,378.7831 C100.5361,378.4011 100.6511,378.3751 100.7021,378.9591 C100.7021,378.9591 100.4521,380.3921 101.8741,379.9791"/>
    <path fill="#EBF8FF" d="M97.5118,364.691 L97.3798,359.422 C96.9648,348.375 95.9828,349.873 96.8538,338.411 L112.8268,339.573 L109.8858,378.525 L106.1998,378.525 L104.9758,346.232 L102.9878,345.081 L101.6938,376.124 L98.1458,375.491 L97.5558,366.44 C97.5358,365.938 97.5218,365.357 97.5118,364.691"/>
    <path fill="#061D82" d="M106.2003,378.525 L106.2003,385.018 L107.8173,385.649 C107.8173,385.649 108.2913,382.05 108.5543,382.088 C108.8173,382.125 108.6823,385.281 112.8273,384.597 C116.9713,383.913 116.5513,382.05 116.2883,382.088 C116.0243,382.125 112.1943,382.861 111.3213,381.651 C110.4483,380.441 109.8863,378.525 109.8863,378.525"/>
    <path fill="#FEC553" d="M86.0812 308.5503C84.1632 304.6653 82.1602 303.4643 84.2512 306.9403 86.3432 310.4163 78.2872 305.3593 78.6662 306.7183 79.0452 308.0773 84.2602 309.8743 84.2602 309.8743M108.0226 297.2105C113.7846 299.3585 114.2646 303.1495 113.8946 305.2415 113.4746 307.6375 110.8446 309.5695 108.9386 309.4345 108.6696 310.4435 108.3816 312.0325 108.9386 313.2925L108.9996 313.3605 109.0176 313.3875C109.0066 313.3915 108.9996 313.3915 108.9876 313.3955 107.0126 313.8255 106.2786 314.4615 105.2536 313.1875L105.2576 313.1835C105.3756 312.6945 105.4966 312.0815 105.6016 311.2995 105.6356 310.9505 105.6506 310.6215 105.6506 310.3145 105.6506 307.9695 104.7506 306.7175 103.6006 305.0835 102.5336 303.5695 101.9436 294.9445 108.0226 297.2105M129.0333 311.9048C131.3663 308.2548 133.4893 307.2788 131.0293 310.5058 128.5683 313.7308 137.1313 309.5868 136.6043 310.8968 136.0793 312.2068 130.6983 313.4218 130.6983 313.4218"/>
    <path fill="#061D82" d="M100.3077,303.2964 C100.3457,296.5644 104.6807,296.0354 109.1667,296.4204 C110.9727,296.7904 113.1957,297.8614 113.0487,300.9014 C112.7037,308.0284 113.9607,309.9394 113.9607,309.9394 C112.0607,310.8774 107.1407,310.6544 103.2917,310.0354 L103.1197,307.3804 L102.1607,309.8354 C101.5267,309.7134 100.9367,309.5814 100.4167,309.4434 C100.3497,308.3284 100.2897,306.4434 100.3077,303.2964"/>
    <path fill="#D5EDF7" d="M112.8263,339.5728 L112.8273,339.5728 C112.8273,339.5728 112.8253,339.5828 112.8263,339.5728"/>
    <path fill="#D5EDF7" d="M84.2599,309.8746 L86.0809,308.5506 C88.2749,326.2526 94.2519,315.2256 100.3599,313.5046 C100.4599,313.4646 100.5709,313.4286 100.6899,313.3956 C106.2539,311.4366 110.1049,312.3336 113.2969,314.2256 C119.2099,317.4166 125.0179,328.8176 129.0329,311.9046 L130.6989,313.4216 C130.6989,313.4216 129.0959,326.0766 121.4379,325.0936 C117.9789,324.6486 113.6639,320.5376 112.0679,319.2206 L113.2749,341.7236 L96.3529,338.9306 C96.3529,338.9306 99.5849,325.4426 99.9179,318.6826 C98.4229,319.3496 95.0309,322.7046 91.8039,322.7626 C84.0829,322.8996 84.2599,309.8746 84.2599,309.8746"/>
    <path fill="#EBF8FF" d="M142.0333,286.8179 C142.0333,304.9659 182.5833,319.6779 232.6043,319.6779 C282.6263,319.6779 323.1773,304.9659 323.1773,286.8179 C323.1773,268.6699 282.6263,253.9579 232.6043,253.9579 C182.5833,253.9579 142.0333,268.6699 142.0333,286.8179"/>
    <path fill="#EBF8FF" d="M142.0333,286.8179 C142.0333,304.9659 182.5833,319.6779 232.6043,319.6779 C282.6263,319.6779 323.1773,304.9659 323.1773,286.8179 C323.1773,268.6699 282.6263,253.9579 232.6043,253.9579 C182.5833,253.9579 142.0333,268.6699 142.0333,286.8179"/>
    <path fill="#EBF8FF" d="M323.1768,32.9996 L323.1768,286.8196 L142.0368,286.8196 L142.0368,32.9996 C142.0368,51.1496 182.5868,65.8596 232.6068,65.8596 C239.7368,65.8596 246.6668,65.5596 253.3168,64.9996 L253.3168,32.9996 L323.1768,32.9996 Z"/>
    <path fill="#EBF8FF" d="M253.3165,64.9996 L253.3165,185.3396 L142.0375,185.3396 L142.0375,32.9996 C142.0375,51.1496 182.5875,65.8596 232.6065,65.8596 C239.7365,65.8596 246.6675,65.5596 253.3165,64.9996"/>
    <path fill="#FF6955" d="M323.1768,225.6695 L323.1768,265.3795 C323.1768,283.5195 282.6268,298.2395 232.6068,298.2395 C203.5648,298.2395 177.7258,293.2795 161.1488,285.5645 C160.2808,285.1605 159.7368,284.2795 159.7368,283.3225 L159.7368,248.3895 C159.7868,246.6905 160.1668,245.4895 162.4268,246.4405 C162.4368,246.4495 162.4568,246.4495 162.4668,246.4495 C179.0768,253.8295 204.3268,258.5295 232.6068,258.5295 C262.0568,258.5295 288.2268,253.4295 304.7668,245.5295 C316.3168,240.0195 323.1768,233.1395 323.1768,225.6695"/>
    <path stroke="#FFF" stroke-linecap="round" stroke-width="7" d="M163.4034 78.5601C163.4034 78.5601 195.7524 96.2821 257.5374 88.9691M163.4034 151.3902C163.4034 151.3902 195.7524 169.1122 257.5374 161.7992"/>
    <path fill="#FFF" d="M323.1768 144.0445L323.1768 183.7545C323.1768 201.8945 282.6268 216.6145 232.6068 216.6145 203.5648 216.6145 177.7258 211.6545 161.1488 203.9395 160.2808 203.5355 159.7368 202.6545 159.7368 201.6975L159.7368 166.7645C159.7868 165.0655 160.1668 163.8645 162.4268 164.8155 162.4368 164.8245 162.4568 164.8245 162.4668 164.8245 179.0768 172.2045 204.3268 176.9045 232.6068 176.9045 262.0568 176.9045 288.2268 171.8045 304.7668 163.9045 316.3168 158.3945 323.1768 151.5145 323.1768 144.0445M177.1759 221.6461L177.1759 235.8601C177.1759 236.9701 176.1429 237.8011 175.0609 237.5521 170.1459 236.4171 165.5609 235.1081 161.3579 233.6581 160.3809 233.3221 159.7359 232.3941 159.7359 231.3621L159.7359 216.9451C159.7859 215.2461 160.1649 214.0451 162.4259 214.9961 162.4359 215.0051 162.4559 215.0051 162.4659 215.0051 166.4409 216.7691 170.9009 218.3821 175.7829 219.8071 176.6039 220.0461 177.1759 220.7921 177.1759 221.6461M323.1768 71.4742L323.1768 111.1842C323.1768 129.3252 282.6268 144.0442 232.6068 144.0442 203.5648 144.0442 177.7258 139.0842 161.1488 131.3692 160.2808 130.9652 159.7368 130.0842 159.7368 129.1282L159.7368 94.1952C159.7868 92.4952 160.1668 91.2942 162.4268 92.2452 162.4368 92.2542 162.4568 92.2542 162.4668 92.2542 179.0768 99.6342 204.3268 104.3342 232.6068 104.3342 262.0568 104.3342 288.2268 99.2352 304.7668 91.3342 316.3168 85.8252 323.1768 78.9452 323.1768 71.4742"/>
    <path stroke="#B1D8FF" stroke-linecap="round" stroke-width="7" d="M173.673 116.5083C173.673 116.5083 216.201 133.3323 278.267 120.5693M173.673 189.4283C173.673 189.4283 231.627 213.1453 304.364 185.0413M274.7462 233.4517C284.2482 231.3407 294.1612 228.4177 304.3642 224.4747M187.5323 232.7134C198.1043 235.3024 214.2003 238.0834 233.9823 237.8374"/>
    <path stroke="#FFF" stroke-linecap="round" stroke-width="7" d="M195.8458,276.1587 C219.2178,280.6377 258.9038,283.3147 304.3648,265.7497"/>
    <g transform="translate(253 .649)">
      <mask id="hp-illustration-rapports-f" fill="#fff">
        <use xlink:href="#hp-illustration-rapports-e"/>
      </mask>
      <path fill="#D5EDF7" d="M70.1768,32.3506 C70.1768,47.9106 40.3568,60.9506 0.3168,64.3506 L0.3168,0.3506 C40.3568,3.7506 70.1768,16.7906 70.1768,32.3506" mask="url(#hp-illustration-rapports-f)"/>
    </g>
    <path fill="#FFF" d="M265.7257,226.2808 L265.7257,240.8678 C265.7257,241.6568 265.1487,242.3288 264.3667,242.4348 C259.6317,243.0798 254.7157,243.5858 249.6447,243.9348 C248.7337,243.9978 247.9557,243.2698 247.9557,242.3568 L247.9557,227.7478 C247.9557,226.9188 248.6027,226.2358 249.4297,226.1788 C254.4247,225.8398 259.2717,225.3478 263.9417,224.7218 C264.8887,224.5948 265.7257,225.3258 265.7257,226.2808"/>
    <polyline stroke="#FF6955" stroke-linecap="round" stroke-linejoin="round" stroke-width="3" points="251.95 234.776 256.124 239.104 262.744 229.417"/>
    <path fill="#061D83" d="M396.4669 194.9293C397.6069 197.1593 395.2429 198.5893 393.3159 199.8333 391.3879 201.0773 389.1149 200.9443 388.2619 200.6063 387.4069 200.2693 387.1579 197.6573 389.0869 197.0343 391.0149 196.4133 392.1929 194.9293 392.1929 194.9293M387.4444 193.8882C388.5854 196.1182 386.2214 197.5482 384.2934 198.7922 382.3654 200.0362 380.0924 199.9022 379.2394 199.5652 378.3854 199.2282 378.1364 196.6162 380.0644 195.9932 381.9924 195.3712 383.1704 193.8882 383.1704 193.8882"/>
    <path fill="#EBF8FF" d="M379.5392,155.2896 L383.1702,193.8886 C383.1702,193.8886 383.4242,194.5606 385.2392,194.5606 C386.6252,194.5606 387.4442,193.8886 387.4442,193.8886 L387.2522,164.0896 L389.4432,165.1136 L392.1922,194.9296 C392.1922,194.9296 392.6052,195.4796 394.2682,195.4796 C395.6352,195.4796 396.4672,194.9296 396.4672,194.9296 L397.2602,157.0666"/>
    <path fill="#D5EDF7" d="M391.2628,125.5123 C397.1648,126.6923 398.8668,126.6883 398.6308,134.1743 C398.3948,141.6593 397.2598,157.0673 397.2598,157.0673 L379.5388,155.2893 L380.2738,127.5953 C380.2738,127.5953 381.1238,124.6183 387.4418,125.1133"/>
    <path fill="#D5EDF7" d="M396.7013 127.0513C407.7223 133.2313 406.6293 163.0113 406.6293 163.0113L404.4613 163.9723C404.4613 163.9723 401.0493 138.5783 397.2643 137.4813M381.3995 126.231C376.9205 128.795 375.5245 144.059 367.5195 122.448L365.5965 123.846C365.5965 123.846 366.3145 140.385 376.5455 138.523 385.1945 136.948 383.6985 127.235 388.9155 128.698"/>
    <path fill="#FEC553" d="M367.4093 116.1617C367.2823 116.7757 367.1713 117.9917 367.0853 119.2927 366.4473 119.1957 364.8863 119.0387 364.4053 119.8297 363.7973 120.8317 364.3153 124.0047 366.0263 124.0977 366.1943 124.1047 366.3433 124.1007 366.4773 124.0787 367.3983 123.9477 367.7823 122.9047 367.8113 122.2367 367.9943 118.5317 367.7293 114.6257 367.4093 116.1617M406.629 163.0113C407.956 166.1663 407.85 167.6863 405.105 168.6553 402.358 169.6233 404.011 165.0453 404.461 163.9723M387.6671 125.3892C387.3531 125.9812 386.5781 126.8852 388.5471 127.0512 390.5171 127.2162 392.4861 126.3692 390.9571 125.3892M391.6436 125.3892C391.9176 125.2512 392.1936 125.0832 392.4706 124.8892 392.8136 124.6772 393.3586 124.2132 393.9456 123.5742L393.9546 123.5652C393.9576 123.5602 393.9606 123.5562 393.9646 123.5522 396.0346 121.2862 398.5676 116.8802 394.3206 113.8052 388.5916 109.6562 390.0916 113.8052 390.0916 113.8052 384.6186 115.8992 383.0566 119.3052 383.9216 121.6762 383.9226 121.6802 383.9246 121.6842 383.9266 121.6882 384.0206 121.9422 384.1416 122.1852 384.2896 122.4112 384.9896 123.6672 386.1836 124.5252 387.3706 125.1492"/>
    <path fill="#0147AB" d="M397.8985,115.4859 C397.6635,114.3079 397.0945,111.6409 394.4985,111.7109 C391.9005,111.7799 391.8315,110.9139 388.3335,111.3989 C384.8355,111.8829 387.9865,113.2689 384.7315,113.7889 C381.4755,114.3079 383.9005,116.7319 385.5685,116.5309 C387.2365,116.3289 398.3635,114.1609 394.7745,119.4679 C394.4995,119.8759 394.2355,120.2389 393.9815,120.5679 C391.0865,122.1909 389.5925,121.7089 386.6515,120.9909 C383.7005,120.2719 383.9345,119.8819 383.7885,119.5449 C383.1315,120.5299 382.5565,122.3759 383.9245,123.5139 L383.9245,123.5119 C384.8615,124.5189 386.5845,125.6219 388.3335,125.9099 C391.6925,126.4649 393.1825,125.4419 395.4325,123.5199 C397.6715,121.6079 398.1335,116.6629 397.8985,115.4859"/>
    <path fill="#FEC553" d="M395.7403 119.9097C395.8553 119.2847 395.5023 118.6967 394.9513 118.5967 394.4013 118.4957 393.8623 118.9197 393.7483 119.5447 393.6333 120.1687 393.9863 120.7577 394.5373 120.8577 395.0873 120.9587 395.6263 120.5347 395.7403 119.9097M387.4503 122.2915C388.3063 122.0835 389.1183 122.6705 388.3453 123.0825 387.5703 123.4955 386.0403 122.6365 387.4503 122.2915"/>
    <path stroke="#B1D8FF" stroke-dasharray="5 5" stroke-linecap="round" stroke-width=".5" d="M335.3409 368.7603C316.1529 357.1613 282.2649 369.3923 262.7439 333.7013M128.3566 369.7339C146.9366 352.8099 168.1726 369.2209 197.6766 333.7019M74.3204 233.4517C96.6754 249.1487 114.4714 248.3407 129.7964 271.8447"/>
  </g>
</svg>
