<svg xmlns:xlink="http://www.w3.org/1999/xlink" viewBox="0 0 1363 497"><defs><path id="a" d="M.85.867h86.809v93.784H.85z"/><path id="c" d="M.608.251H30.44V21H.608z"/><path id="e" d="M.317.209h65.697v86.923H.317z"/><path id="g" d="M.645.067h101.746V37H.645z"/></defs><g fill="none" fill-rule="evenodd"><path stroke="#B1D8FF" stroke-dasharray="5 5" stroke-linecap="round" d="M888.198 91.994c171.014-18.394 190.635 106.935 253.504 36.712"/><path fill="#061D83" d="M1222.367 271.662c3.209 6.28-3.444 10.306-8.872 13.808-5.428 3.501-11.824 3.124-14.23 2.174-2.403-.949-3.103-8.302 2.325-10.053 5.427-1.75 8.742-5.929 8.742-5.929"/><path fill="#E6E6FC" d="M1207.716 76.235c16.616 3.322 21.406 3.31 20.742 24.386-.664 21.075-3.859 64.448-3.859 64.448l-49.888-5.004 2.069-77.965s2.392-8.378 20.18-6.989"/><path fill="#1C00FF" d="M1174.711 160.065s9.874 109.38 10.458 110.396c.585 1.013 11.398 2.751 11.398 2.751l-.143-88.371 6.17 2.883 7.737 83.939h12.035l2.233-106.594"/><path fill="#E6E6FC" d="M1223.028 80.568c31.024 17.398 27.948 101.237 27.948 101.237l-6.103 2.706s-9.607-71.488-20.261-74.579m-44.663-31.672c-12.608 7.218-16.54 50.191-39.076-10.652l-5.414 3.94s2.02 46.56 30.822 41.316c24.35-4.434 20.14-31.779 34.825-27.659"/><path fill="#FEC553" d="M1140.562 49.91c-.356 1.732-.671 5.154-.912 8.816-1.795-.273-6.192-.713-7.546 1.51-1.71 2.824-.252 11.755 4.565 12.017.472.02.892.01 1.27-.052 2.592-.368 3.673-3.306 3.757-5.185.514-10.431-.231-21.428-1.134-17.105m110.414 131.894c3.734 8.883 3.436 13.16-4.293 15.888-7.728 2.728-3.079-10.162-1.811-13.182M1197.593 75.89c-.885 1.665-3.067 4.212 2.478 4.679 5.544.466 11.09-1.92 6.784-4.68m1.933 0c.771-.387 1.55-.858 2.328-1.406.966-.598 2.5-1.903 4.152-3.704a.602.602 0 00.024-.026l.03-.034c5.827-6.377 12.957-18.784 1.002-27.441-16.128-11.681-11.904 0-11.904 0-15.41 5.896-19.806 15.483-17.37 22.159h-.002c.005.013.012.023.015.035a10.23 10.23 0 001.02 2.036c1.971 3.535 5.334 5.949 8.673 7.707"/><path fill="#0147AB" d="M1226.398 48.008c-.663-3.315-2.263-10.823-9.575-10.627-7.313.194-7.507-2.243-17.355-.878-9.847 1.365-.975 5.265-10.14 6.728-9.164 1.462-2.34 8.287 2.356 7.72 4.696-.569 36.02-6.674 25.919 8.27a59.595 59.595 0 01-2.234 3.096c-8.15 4.57-12.353 3.21-20.635 1.191-8.308-2.026-7.65-3.124-8.061-4.073-1.848 2.774-3.465 7.971.384 11.176v-.005c2.638 2.833 7.487 5.937 12.41 6.75 9.458 1.56 13.655-1.317 19.989-6.728 6.303-5.385 7.605-19.305 6.942-22.62"/><path fill="#FEC553" d="M1220.323 60.463c.322-1.758-.673-3.414-2.222-3.698-1.55-.284-3.067.911-3.39 2.67-.322 1.758.674 3.414 2.223 3.697 1.549.285 3.067-.91 3.389-2.669m-23.34 6.707c2.41-.588 4.696 1.065 2.518 2.227-2.18 1.162-6.488-1.259-2.518-2.227"/><path fill="#96644B" d="M963.194 116.5c-5.653 2.234-5.795 9.02-11.617 25.768-10.655 30.645-44.7 17.63-58.822 13.88-2.25-1.28-1.487-7.102-1.487-7.102l-.004-.006c.318-1.428.394-3.124-.02-5.117-.696-3.364-1.481-1.352-2.125 1.798-.371 1.612-2.14 7.4-9.022 8.428l.018.008a42.206 42.206 0 00-4.233.243h-.001c-8.056.131-15.557 6.53-9.778 5.856 5.779-.674 15.733-.45 19.557 0l.05-.029c14.249 1.064 25.795 12.2 47.442 8.263 40.29-7.325 39.424-44.642 39.424-44.642l-9.382-7.349z"/><path fill="#FEC553" d="M962.62 165.075c1.858-15.826-5.974-13.383-6.183-20.959-.21-7.576 5.457-7.014 5.043-20.72-.096-3.242 1.714-6.897 1.714-6.897s6.688-2.232 11.118-3.27c0 0 3.029-.949 9.015-1.085 0 0 9.135 1.136 19.034 8.133 4.38 3.096-.817 3.53-1.154 10.43-.954 19.597-10.022 9.701 4.707 70.377l-62.291-.347s16.225-12.02 18.998-35.662"/><g transform="translate(911 -.867)"><mask id="b" fill="#fff"><use xlink:href="#a"/></mask><path fill="#061D82" d="M84.035 83.527c6.148-4.209 5.628-20.94-10.666-27.928-10.435-4.474-3.7-17.033-14.403-21.144-19.536-7.502-16.481-13.049-18.061-20.792C38.493 1.841 16.577-5.995 7.357 9.5c-11.09 18.634-8.2 53.207 10.174 51.342 18.512-1.879 24.464-1.379 21.485 13.456-2.978 14.834 17.76 25.472 27.023 17.788" mask="url(#b)"/></g><path fill="#0147AB" d="M996.29 190.648c-42.822-2.129-72.005-23.715-92.94 36.072"/><path fill="#FFF" d="M1199.107 244.689c-10.348-50.523-99.493-76.489-201.18-57.592-101.686 18.897-176.48 75.319-167.058 126.023 9.423 50.704 98.465 69.705 201.18 57.592 108.983-12.852 177.64-74.358 167.058-126.023"/><path fill="#96644B" d="M973.204 115.126c-.308-1.535 2.887-.546 2.765-10.377l.004-.002c.738-7.942-1.85-11.54-5.29-16.427-2.815-3.997-5.885-28.367 10.18-22.376 15.23 5.68 18.007 17.27 17.036 22.8-.791 4.495-4.522 8.36-8.425 10.102a1.665 1.665 0 01-.5.221l-.041.013a12.11 12.11 0 01-1.42.456c-3.13 1.24-3.322 3.263-3.56 5.855v-.003c-.026 2.613.589 5.316 2.7 7.215 0 0 3.71 4.27-1.749 6.05 0 0-10.608 1.936-11.7-3.527"/><path fill="#EBF8FF" d="M965.812 218.082l42.915 4.673L992.528 257l-51.12-7.669zm192.351 4.085l-35.903 3.91 13.552 28.65 42.77-6.417zm-75.178-1.707l-53.896 3.928-1.949 28.431 64.271-4.195z"/><path fill="#5D9FFF" d="M981.467 234.989l-1.947.384-.299-1.931 5.325-7.728 2.245 1.547z"/><path fill="#96644B" d="M1025.007 165.346c-1.142-13.296-8.673-27.135-21.106-43.797-1.912-2.56-6.274-1.816-7.125.828-.719 2.23-1.137 3.034-1.418 7.157a6.12 6.12 0 001.878 4.841c36.55 34.726 7.282 71.916-4.049 83.842l-.082-.135c-3.243 2.91-5.536.921-8.99 1.516-3.455.596-2.37 10.35-2.37 10.35s10.052 1.948 10.234-.764a9.867 9.867 0 011.5-4.602c35.466-28.87 31.528-59.236 31.528-59.236"/><path fill="#5D9FFF" d="M990.238 222.261l-2.246-1.547 6.827-9.907 2.245 1.547z"/><path stroke="#B1D8FF" stroke-dasharray="5 5" stroke-linecap="round" d="M1240.793 60.516c46.84-25.004 71.023 16.925 50.504 88.664-20.519 71.738 40.574 127.303-13.375 185.33-73.305 78.844-160.548 42.983-176.565 3.43"/><path fill="#061D82" d="M987.757 67.565c-12.145 4.257-10.19 17.122-18.18 17.749-7.988.626-1.238-32.746-1.238-32.746"/><path fill="#96644B" d="M974.047 85.322c0-2.34-1.438-4.237-3.212-4.237-1.773 0-3.212 1.897-3.212 4.237s1.44 4.236 3.212 4.236c1.774 0 3.212-1.896 3.212-4.236"/><path fill="#061D82" d="M974.047 82.913c3.905-3.073 16.636-9.084 15.31-17.042-1.327-7.957-17.948-6.984-17.948-6.984"/><path fill="#EBF8FF" d="M906.822 344.139l-62.234-30.105 34.783-23.432 59.49 21.91z"/><path fill="#D5EDF7" d="M879.576 296.279l46.472 19.226-14.133 13.241-49.52-22.557z"/><path fill="#061D82" d="M1068.038 480.619c-9.387-2.727-10.798-10.236-8.987-10.897 2.295-.838 8.5 3.56 9.214 2.236 1.1-2.038.189-4.404.189-4.404l10.445-.006v18.904l-4.71.906s-.243-1.878-.589-4.037v-.01c-.102-.625-.204-1.27-.317-1.905.029 0-.018 0 0 0-.317-2.233-.625-3.233-.98-4.27-.365-1.113-.702-1.188-.851.513 0 0 .731 4.173-3.413 2.97"/><path fill="#B1D8FF" d="M1080.745 436.09l.385-15.345c1.21-32.178 4.07-27.815 1.534-61.198v-.001l-46.525 3.383 8.565 113.455h10.736l3.565-94.06 5.793-3.351 3.767 90.416 10.334-1.841 1.717-26.363c.058-1.462.1-3.154.129-5.094"/><g transform="translate(1025 476.133)"><mask id="d" fill="#fff"><use xlink:href="#c"/></mask><path fill="#061D82" d="M30.44.251v18.91l-4.711 1.84s-1.38-10.483-2.144-10.376c-.767.108-.375 9.302-12.447 7.31-12.071-1.992-10.845-7.417-10.08-7.31.767.108 11.922 2.253 14.466-1.27C18.068 5.828 19.704.25 19.704.25" mask="url(#d)"/></g><path fill="#FEC553" d="M1114.038 272.574c5.587-11.314 11.423-14.815 5.33-4.69-6.092 10.126 17.372-4.606 16.269-.646-1.106 3.959-16.293 9.194-16.293 9.194m-69.213-36.887c-16.782 6.259-18.182 17.3-17.102 23.393 1.223 6.975 8.881 12.606 14.435 12.209.782 2.942 1.62 7.57 0 11.239l-.176.199-.055.077c.033.011.055.011.087.022 5.752 1.256 7.89 3.107 10.876-.606l-.01-.011c-.342-1.421-.695-3.207-1.003-5.488a29.214 29.214 0 01-.144-2.865c0-6.831 2.623-10.479 5.973-15.239 3.107-4.407 4.826-29.53-12.88-22.93m-61.197 42.8c-6.794-10.634-12.978-13.474-5.812-4.078 7.166 9.397-17.773-2.674-16.241 1.14 1.532 3.815 17.202 7.354 17.202 7.354"/><path fill="#061D82" d="M1072.602 257.271c-.11-19.608-12.736-21.147-25.803-20.028-5.259 1.08-11.733 4.198-11.305 13.054 1.003 20.758-2.659 26.322-2.659 26.322 5.535 2.733 19.865 2.083 31.077.279l.502-7.731 2.792 7.149a76.169 76.169 0 005.077-1.14c.198-3.248.37-8.738.319-17.905"/><path fill="#4489F7" d="M1036.14 362.93h-.002s.005.028.001 0"/><path fill="#4489F7" d="M1119.343 276.432l-5.305-3.858c-6.387 51.56-23.799 19.441-41.586 14.428a10.042 10.042 0 00-.962-.319c-16.209-5.703-27.422-3.089-36.72 2.42-17.223 9.293-34.139 42.504-45.835-6.759l-4.85 4.417s4.667 36.861 26.975 33.997c10.074-1.294 22.64-13.27 27.291-17.106l-3.516 65.543 49.286-8.136s-9.415-39.283-10.383-58.974c4.354 1.941 14.234 11.715 23.634 11.883 22.487.402 21.971-37.536 21.971-37.536"/><path fill="#061D83" d="M1330.09 425.783c.824 3.45 4.74 11.149-3.079 11.063-7.818-.086-24.2-7.175-23.36-10.85.838-3.672 5.157-6.603 8.431-5.595 3.275 1.007 9.21 5.153 11.771 3.96m35.578-10.552c.826 3.45 4.74 11.15-3.077 11.063-7.818-.086-24.2-7.175-23.361-10.848.839-3.674 5.157-6.605 8.432-5.597 3.275 1.007 9.21 5.154 11.771 3.96"/><path fill="#B1D8FF" d="M1316.173 308.303c-1.226 13.389 2.332 115.65 3.586 118.558 1.186 2.75 11.92-1.244 11.92-1.244l6.427-99.481 3.725 2.272c.262 13.666 5.252 88.709 7.443 88.934 2.711.278 10.826-1.3 10.826-1.3l1.462-112.524-45.389 4.785z"/><path fill="#FEC553" d="M1296.317 301.435c-4.753.294-14.027-1.126-13.16.626.867 1.752 12.776.598 5.146 3.878-7.63 3.282-10.502 5.167-8.82 7.43 1.682 2.261 5.517 2.527 9.225.545 3.708-1.98 12.552-6.95 12.552-6.95m-24.282-79.454c1.405 1.073 4.35 2.842 7.545 4.65-1.025 1.498-3.331 5.267-1.915 7.453 1.8 2.767 10.478 5.33 12.807 1.105a6.15 6.15 0 00.503-1.167c.794-2.495-1.382-4.744-3.04-5.635-9.171-4.992-19.403-9.096-15.9-6.406m52.53-9.097c1.707.165 2.312.881 2.301 2.006l.006-.002c.22 10.146-4.29 12.597 7.746 10.7 5.051-.796 6.7-2.61 6.918-4.448-1.32-1.437-2.339-3.677-2.197-7.17.375-9.206 5.195-13.318 5-15.44-.196-2.122 3.981-13.206-2.58-14.742-6.562-1.536-25.635-2.838-29.15 8.797-2.735 9.053 5.478 19.673 11.956 20.3"/><path fill="#061D82" d="M1329.46 197.44c-2.63-8.578-13.555-7.606-13.492-15.084.092-10.958 9.303 1.027 25.715.409 20.762-.782 10.93 32.316-1.387 34.747-3.078.608-5.607.672-7.666.426-4.509-.539-7.098-5.453-5.168-9.564 1.576-3.358 2.998-7.668 1.997-10.934"/><path fill="#FEC553" d="M1331.369 204.62c.173-2.47-1.243-4.582-3.163-4.717-1.92-.135-3.615 1.76-3.79 4.23-.173 2.472 1.243 4.584 3.163 4.718 1.92.135 3.617-1.76 3.79-4.23"/><path fill="#1C00FF" d="M1343.018 247.352c-28.443 1.43-47.946-11.563-47.946-11.563l-2.62 6.98s24.516 16.553 49.988 21.75"/><g transform="translate(1296 225.133)"><mask id="f" fill="#fff"><use xlink:href="#e"/></mask><path fill="#1C00FF" d="M65.562 14.492C64.704-3.696 38.852-.498 31.52 2.619 20.759 7.195 31.488 50.375.317 76.303L5.26 81.83s8.102-6.894 16.639-16.534a918.589 918.589 0 00-1.742 21.835l45.462-4.04s.926-47.778-.057-68.6" mask="url(#f)"/></g><path fill="#B1D8FF" d="M876.103 53.18c.24-.033.44.155.44.423l-.01 4.807c0 .26-.201.504-.441.538-.248.035-.448-.153-.447-.413l.009-4.807c0-.095.026-.188.07-.27a.53.53 0 01.379-.277m-.018 9.614c.24-.034.44.146.44.414l-.009 4.807c0 .259-.202.504-.442.537-.248.035-.448-.153-.447-.412l.01-4.807c0-.268.2-.504.448-.539m-.017 9.605c.24-.034.44.154.439.414l-.008 4.807c-.001.26-.202.504-.442.537-.25.035-.448-.153-.448-.412l.01-4.807c0-.26.2-.504.449-.539m-.019 9.606c.241-.034.44.154.44.414l-.008 4.807c0 .268-.202.503-.442.537-.249.035-.448-.145-.448-.413l.01-4.806c0-.26.2-.504.448-.539m-.017 9.606c.24-.034.44.154.44.414l-.01 4.807c0 .268-.201.512-.441.546-.248.035-.448-.153-.447-.421l.009-4.807c0-.26.2-.504.449-.54m-.018 9.606c.24-.034.44.154.44.422l-.009 4.8c0 .267-.202.511-.442.545-.248.035-.448-.153-.447-.42l.01-4.8c0-.268.2-.512.448-.547m-.018 9.606c.24-.034.44.154.44.422l-.008 4.799c-.001.268-.202.512-.442.546-.25.035-.448-.153-.448-.421l.008-4.8c.002-.267.202-.511.45-.546m-.014 7.902c.24-.034.439.154.439.414-.001.268-.201.512-.441.546l-4.454.626c-.248.035-.448-.153-.447-.42 0-.26.2-.505.449-.54l4.454-.626zm-8.908 1.252c.249-.035.448.153.448.413-.001.268-.201.512-.45.547l-4.445.624c-.248.036-.45-.152-.448-.42 0-.26.202-.504.45-.539l4.445-.625zm-8.9 1.251c.248-.035.448.153.448.412 0 .268-.2.513-.45.547l-4.445.625c-.249.035-.449-.153-.449-.42.001-.26.202-.504.451-.539l4.445-.625zm-8.9 1.25c.249-.034.449.154.448.414 0 .268-.201.512-.45.547l-4.444.624c-.25.036-.45-.152-.45-.42.002-.26.203-.504.45-.54l4.447-.624zm-8.899 1.252c.248-.035.448.152.447.411 0 .268-.2.513-.449.547l-4.446.626c-.248.035-.448-.153-.448-.421.001-.26.202-.504.45-.538l4.446-.626zm-8.899 1.25c.248-.035.448.153.447.413 0 .268-.201.512-.449.547l-4.454.626c-.24.034-.44-.154-.44-.422 0-.26.202-.504.442-.538l4.454-.626zm-4.552-3.085c0 .259-.2.503-.44.537-.249.035-.45-.153-.449-.412l.01-4.808c0-.267.2-.512.448-.546.241-.034.441.154.441.422l-.01 4.807zm-.423-9.069c-.249.035-.448-.153-.448-.42l.01-4.8c0-.268.2-.512.45-.547.24-.034.438.154.438.422l-.009 4.8c0 .267-.2.511-.44.545m.017-9.605c-.248.035-.448-.153-.448-.421l.01-4.8c0-.267.201-.511.449-.546.24-.034.44.154.439.422l-.009 4.799c-.001.268-.201.512-.441.546m.017-9.606c-.248.035-.447-.153-.447-.42l.01-4.8c0-.268.2-.512.449-.547.24-.034.44.154.439.422l-.01 4.8c0 .267-.2.511-.44.545m.017-9.606c-.248.035-.448-.153-.447-.42l.01-4.799c0-.268.2-.513.448-.548.241-.033.44.155.44.423l-.01 4.798c0 .268-.2.512-.44.546m.018-9.605c-.25.035-.448-.153-.448-.421l.009-4.807c0-.26.2-.504.45-.54.24-.032.439.156.439.415l-.01 4.807c0 .268-.2.512-.44.546m.017-9.614c-.248.035-.448-.145-.448-.413l.01-4.435.447-.063.785-.11c.248-.035.448.153.448.42 0 .269-.2.514-.45.548l-.344.049-.007 3.467c0 .267-.2.503-.44.537m5.245-4.68c-.248.036-.448-.152-.447-.42 0-.268.201-.513.45-.547l4.453-.626c.24-.034.44.154.44.422s-.202.512-.442.546l-4.454.626zm8.9-1.25c-.248.035-.44-.154-.44-.422s.194-.511.442-.546l4.454-.626c.24-.034.44.154.44.422s-.202.512-.442.547l-4.454.625zm8.9-1.25c-.249.034-.44-.155-.44-.423.001-.268.193-.512.441-.546l4.454-.626c.24-.034.44.154.44.422s-.202.512-.442.546l-4.454.626zm8.899-1.252c-.24.034-.44-.154-.44-.422.002-.268.202-.513.442-.546l4.454-.626c.248-.035.44.154.44.422s-.193.511-.442.546l-4.454.626zm8.9-1.25c-.24.034-.44-.154-.439-.422 0-.268.2-.513.44-.546l4.454-.626c.249-.035.448.153.448.42-.001.269-.201.513-.45.548l-4.453.626z"/><path fill="#D7E9F2" d="M871.003 61.331l-.021 11.127-39.332 5.528.021-11.127z"/><path fill="#EBF8FF" d="M870.978 75.018l-.021 11.127-39.332 5.528.021-11.127zm-.051 27.373l-.021 11.127-39.332 5.528.021-11.128zm.025-13.687l-.021 11.127-39.331 5.528.02-11.128z"/><path fill="#FFF" d="M870.957 86.145l.02-11.127-39.332 5.528-.02 11.127 39.332-5.528zm.025-13.686l.022-11.127-39.332 5.527-.022 11.127 39.332-5.527zm-.05 27.373l.02-11.127-39.332 5.527-.02 11.127 39.332-5.527zm-.026 13.686l.022-11.127-39.333 5.527-.02 11.128 39.33-5.528zm5.18-50.723a.547.547 0 00-.45.539l-.008 4.807c-.001.259.199.447.447.413l-.007 3.847c-.25.035-.45.279-.45.538l-.01 4.808c0 .259.2.447.45.412l-.008 3.848c-.249.034-.449.279-.45.538l-.008 4.807c0 .268.198.448.447.413l-.007 3.847c-.249.035-.449.28-.45.539l-.008 4.807c-.002.268.198.456.446.42l-.006 3.84c-.248.035-.45.279-.45.547l-.007 4.798c-.001.269.199.457.447.42l-.007 3.84c-.25.035-.45.28-.45.548l-.01 4.798c0 .268.2.456.448.42l-.004 2.137-4.453.626c-.248.035-.45.279-.45.538l-3.556.5c0-.26-.2-.447-.448-.412l-4.446.625c-.247.034-.448.278-.448.538l-3.558.5c0-.26-.2-.448-.448-.413l-4.446.625c-.249.035-.448.279-.45.539l-3.555.5c0-.26-.2-.448-.449-.413l-4.446.625c-.248.035-.447.279-.448.539l-3.558.499c.001-.26-.198-.447-.447-.412l-4.446.624c-.248.036-.448.28-.45.539l-3.556.5c.001-.26-.198-.447-.447-.413l-4.454.626c-.24.034-.441.279-.441.538l-.099-3.712c.243-.034.442-.278.442-.537l.01-4.807c0-.268-.2-.456-.44-.422l.007-3.84c.24-.033.44-.277.441-.545l.01-4.8c0-.267-.2-.455-.44-.421l.006-3.84c.242-.033.441-.277.442-.545l.01-4.8c0-.267-.2-.455-.44-.421l.006-3.838c.24-.034.441-.28.441-.547l.01-4.798c0-.268-.2-.456-.44-.422l.007-3.84c.242-.033.441-.277.441-.545l.01-4.798c0-.27-.198-.457-.44-.423l.007-3.84c.24-.032.441-.277.442-.545l.008-4.807c0-.26-.198-.447-.439-.413l.007-3.848c.24-.034.44-.27.441-.537l.007-3.467.344-.05c.25-.033.45-.278.45-.546l3.558-.5c-.001.268.199.456.447.42l4.454-.625c.24-.033.44-.277.44-.546l3.566-.501c-.001.269.19.457.439.422l4.454-.625c.24-.034.441-.278.441-.547l3.565-.501c0 .269.191.458.44.423l4.453-.626c.24-.034.441-.278.441-.546l3.565-.501c0 .268.2.456.44.422l4.453-.626c.25-.035.442-.278.442-.546l3.565-.501c0 .268.2.456.44.422l4.453-.626c.25-.035.45-.28.45-.547l3.387-.476a.571.571 0 00-.071.269l-.01 4.808c0 .259.2.447.448.412l-.007 3.847z"/><path fill="#B1D8FF" d="M1199.417 285.349c.24-.034.44.146.44.414l-.009 4.807c0 .259-.202.504-.442.537-.248.035-.448-.153-.448-.412l.01-4.807a.547.547 0 01.45-.54m-.054 28.818c.24-.034.44.154.439.414l-.008 4.807c-.001.268-.202.512-.442.546-.248.035-.448-.153-.448-.421l.01-4.807c0-.26.2-.504.449-.54"/><path fill="#FFF" d="M1194.015 296.55l.021-11.776-41.614 5.849-.021 11.775 41.614-5.848zm-.027 14.48l.022-11.774-41.614 5.849-.023 11.775 41.615-5.85zm-.054 28.965l.021-11.775-41.613 5.848-.022 11.776 41.614-5.85zm.027-14.482l.022-11.775-41.614 5.848-.022 11.776 41.614-5.85zm5.456-40.164a.547.547 0 00-.45.538l-.009 4.808c0 .259.201.447.449.412l-.007 3.848c-.249.034-.449.279-.45.538l-.009 4.807c0 .26.199.448.448.413l-.008 3.847c-.248.035-.449.28-.449.539l-.009 4.807c-.001.268.199.447.447.413l-.006 3.847c-.248.035-.45.279-.45.538l-.009 4.807c0 .268.2.456.448.422l-.007 3.838c-.249.035-.449.279-.45.548l-.009 4.798c0 .268.199.456.448.42l-.008 3.84c-.248.035-.448.279-.449.547l-.009 4.799c0 .267.2.455.449.42l-.008 3.84c-.248.034-.449.279-.449.546l-.004 2.059-4.005.562c-.241.034-.441.278-.441.546l-3.566.5c.001-.267-.199-.455-.439-.421l-4.454.626c-.248.035-.441.278-.442.546l-3.564.5c.001-.267-.2-.455-.44-.421l-4.454.626c-.248.035-.449.279-.449.547l-3.557.5c0-.268-.199-.456-.447-.421l-4.446.625c-.248.035-.449.279-.449.547l-3.557.499c0-.267-.199-.455-.448-.42l-4.446.625c-.248.034-.449.279-.449.546l-3.557.5c0-.268-.199-.456-.448-.421l-4.445.625c-.249.035-.449.279-.45.547l-2.98.419.001-.622c.24-.034.442-.28.442-.547l.008-4.798c.001-.268-.199-.456-.439-.422l.008-3.84c.24-.033.44-.277.44-.545l.01-4.798c0-.27-.199-.456-.44-.423l.007-3.84c.241-.032.441-.277.442-.545l.009-4.798c0-.268-.2-.456-.44-.422l.007-3.84c.24-.033.441-.277.441-.545l.009-4.807c.001-.26-.199-.448-.439-.414l.006-3.847c.241-.034.442-.27.442-.538l.009-4.807c.001-.26-.2-.447-.44-.414l.008-3.847c.24-.034.44-.278.441-.537l.009-4.808c0-.26-.199-.447-.439-.413l.007-3.847c.24-.034.44-.28.441-.538l.009-4.807c0-.268-.199-.447-.44-.414l.007-3.847c.24-.034.442-.278.442-.537l.002-.796 2.827-.397c.249-.035.449-.28.45-.548l3.556-.5c0 .268.2.456.448.422l4.445-.625c.249-.035.449-.28.45-.547l3.557-.5c-.001.268.199.456.447.42l4.446-.624c.249-.035.449-.28.45-.547l3.556-.5c-.001.268.2.456.448.42l4.454-.625c.24-.033.441-.278.441-.546l3.565-.501c0 .268.191.457.44.422l4.453-.626c.24-.033.442-.277.442-.546l3.564-.501c0 .269.191.457.44.423l4.454-.626c.24-.034.441-.278.441-.547l3.565-.501a.433.433 0 00.152.344l-.008 4.278c-.001.259.199.447.447.413l-.007 3.847z"/><path fill="#B1D8FF" d="M1199.275 275.93l.6-.084-.01 5.118c0 .26-.2.504-.441.537-.248.035-.448-.153-.447-.412l.008-4.279a.429.429 0 01-.151-.343c0-.259.2-.503.44-.537m.126 19.025c.24-.034.439.154.439.414l-.008 4.807c-.001.259-.202.503-.442.537-.25.035-.448-.153-.448-.412l.009-4.807c0-.26.2-.504.45-.54m-.019 9.606c.24-.034.44.154.44.414l-.009 4.807c0 .268-.202.503-.442.537-.248.035-.448-.144-.447-.412l.01-4.807c0-.26.2-.504.448-.539m-.035 19.211c.24-.034.44.154.44.422l-.009 4.799c0 .268-.202.512-.442.546-.249.035-.448-.153-.448-.421l.01-4.799c0-.268.2-.512.45-.547m-.02 9.606c.241-.034.44.154.44.422l-.009 4.799c0 .268-.2.512-.44.546-.25.034-.45-.154-.448-.421l.009-4.799c0-.268.2-.512.448-.547m-.017 9.606c.24-.034.44.154.439.421l-.004 3.026-4.895.688c-.24.034-.44-.154-.44-.421 0-.269.2-.512.442-.546l4.005-.564.004-2.058c0-.267.2-.512.449-.546m-8.904 3.792c.24-.034.44.154.439.422 0 .268-.201.513-.441.546l-4.453.626c-.25.035-.44-.154-.44-.422s.193-.511.44-.546l4.455-.626zm-8.9 1.25c.24-.033.44.155.44.423s-.202.513-.442.546l-4.454.626c-.248.035-.448-.153-.447-.421 0-.268.201-.512.45-.547l4.453-.626zm-8.907 1.253c.248-.035.447.153.447.42-.001.269-.201.513-.449.548l-4.446.625c-.248.035-.448-.153-.448-.421s.202-.512.45-.547l4.446-.625zm-8.9 1.25c.249-.035.448.153.448.421-.001.268-.201.513-.45.547l-4.445.625c-.248.035-.45-.153-.448-.42 0-.269.202-.513.45-.548l4.445-.625zm-8.9 1.251c.25-.035.448.153.448.421s-.2.512-.45.547l-4.445.625c-.248.035-.449-.153-.449-.42.001-.269.202-.513.451-.548l4.445-.625zm-4.028-68.557c-.001.268-.201.512-.45.547l-2.827.398-.002.795c0 .26-.201.504-.442.537-.248.036-.448-.152-.447-.412l.003-1.755 3.717-.523c.248-.034.448.154.448.413m-3.728 6.125c.24-.034.44.146.44.414l-.009 4.807c0 .26-.202.504-.442.537-.248.035-.448-.153-.447-.412l.01-4.807c0-.268.2-.504.448-.539m-.017 9.606c.24-.034.439.154.439.414l-.008 4.807c-.001.259-.202.504-.442.537-.25.035-.448-.153-.448-.412l.009-4.807c0-.26.2-.504.45-.54m-.019 9.606c.24-.034.44.154.44.414l-.009 4.807c0 .268-.202.504-.442.537-.248.035-.448-.144-.447-.412l.01-4.807c0-.26.2-.504.448-.539m-.017 9.606c.24-.034.44.154.439.414l-.008 4.807c0 .268-.202.512-.442.546-.248.035-.448-.154-.447-.42l.009-4.808c0-.26.2-.504.449-.539m-.018 9.606c.24-.034.44.154.44.422l-.009 4.799c0 .268-.202.512-.442.546-.248.035-.448-.153-.448-.421l.01-4.8c0-.267.2-.511.45-.546m-.019 9.605c.24-.034.44.154.44.422l-.009 4.799c0 .268-.202.512-.442.546-.248.035-.447-.153-.447-.421l.009-4.799c0-.268.2-.512.45-.547m-.02 9.606c.24-.034.44.154.44.421l-.008 4.8c0 .267-.202.512-.442.546-.248.035-.448-.154-.447-.421l.009-4.8c0-.267.2-.512.449-.546m7.839-63.837c-.248.035-.448-.153-.448-.421 0-.26.2-.504.45-.538l4.445-.625c.249-.036.449.152.449.412-.001.268-.202.512-.451.547l-4.445.625zm8.9-1.251c-.249.035-.449-.153-.448-.421 0-.26.201-.504.45-.538l4.444-.625c.25-.035.45.153.45.412-.002.268-.203.512-.45.547l-4.447.625zm8.899-1.25c-.248.034-.448-.154-.447-.422 0-.26.2-.504.449-.539l4.454-.625c.24-.035.44.153.44.413 0 .268-.202.512-.442.546l-4.454.626zm8.9-1.252c-.249.035-.44-.154-.44-.422.001-.26.193-.503.441-.537l4.454-.626c.24-.034.441.154.44.413 0 .268-.202.512-.442.546l-4.453.626zm8.9-1.25c-.25.035-.44-.154-.44-.422 0-.26.192-.503.44-.538l4.454-.626c.24-.034.441.154.44.414 0 .268-.202.512-.442.546l-4.453.626z"/><path fill="#84D9F3" d="M1194.01 299.256l-.022 11.775-41.615 5.849.023-11.775z"/><path fill="#1C00FF" d="M1194.036 284.774l-.02 11.776-41.615 5.848.021-11.775z"/><path fill="#D7E9F2" d="M1193.983 313.738l-.021 11.775-41.615 5.849.022-11.776z"/><path fill="#EBF8FF" d="M1193.955 328.22l-.021 11.775-41.615 5.849.023-11.776z"/><path fill="#D5EDF7" d="M834.73 393.536l41.897 23.847c1.252.713 1.258 2.517.01 3.238l-21.71 11.92a5.126 5.126 0 01-5.004-.039l-29.94-17.04"/><path fill="#FEC553" d="M882.336 328.098c1.75-4.429 3.264-13.688 4.662-12.322 1.4 1.366-3.38 12.335 2.1 6.093 5.476-6.242 8.157-8.392 9.79-6.093 1.631 2.298.698 6.028-2.332 8.942-3.03 2.914-10.49 9.791-10.49 9.791m-46.763-17.448c4.697.781 13.415 4.247 12.964 2.345-.45-1.903-12.316-3.45-4.145-4.935 8.172-1.484 11.395-2.677 10.264-5.259-1.13-2.582-4.809-3.702-8.867-2.603-4.058 1.098-13.793 3.955-13.793 3.955"/><path fill="#EBF8FF" d="M757.22 405.377c12.822-29.33 7.372-60.033-12.173-68.577-19.545-8.546-45.784 8.305-58.606 37.635-12.823 29.33-7.372 60.032 12.173 68.577 19.544 8.546 45.784-8.305 58.606-37.635"/><path stroke="#FFF" stroke-width="5" d="M757.22 405.377c12.822-29.33 7.372-60.033-12.173-68.577-19.545-8.546-45.784 8.305-58.606 37.635-12.823 29.33-7.372 60.032 12.173 68.577 19.544 8.546 45.784-8.305 58.606-37.635z"/><path fill="#061D82" d="M849 414.53c15.515-8.508 22.021-8.007 24.773-5.254 2.752 2.752-5.755 11.76-16.765 16.014-11.01 4.254-15.425-.34-16.274-3.743-1.032-4.135 8.266-7.017 8.266-7.017"/><path fill="#FEC553" d="M787.724 301.876c-2.107-.079-2.962.695-3.134 2.068l-.006-.003c-1.93 12.334 3.168 16.06-11.195 11.775-6.028-1.798-7.74-4.279-7.706-6.555 1.844-1.536 3.453-4.099 3.852-8.382 1.05-11.284-4.151-17.086-3.565-19.641.585-2.555-2.691-16.753 5.56-17.551 8.251-.797 31.716.74 34.096 15.5 1.851 11.484-9.902 23.086-17.902 22.789"/><path fill="#4489F7" d="M731.979 322.2s12.253-29.404 34.59-18.775c27.16 12.925 27.822 9.15 21.889 47.034"/><path fill="#1C00FF" d="M780.797 375.96c47.017-23.581 67.39-40.611 71.594-4.472 3.942 33.881 3.181 39.067 3.13 44.972-.02 2.359-.977 4.575-3.262 5.162l-5.102.874a3.883 3.883 0 01-4.48-3.202l-1.93-27.958s-62.489 22.866-73.882.849"/><path fill="#1C00FF" d="M755.433 362.159c47.017-23.58 72.725-42.167 74.774-5.841 2.051 36.324 7.591 60.49 7.591 60.49l-14.214 3.653-13.449-41.04s-57.241 20.98-68.634-1.037"/><path fill="#4489F7" d="M784.793 312.378c23.22 12.862 36.004 64.712 97.543 15.72l5.861 4.442s-35.327 41.274-78.315 27.998c-30.27-9.348-34.026-27.643-34.026-27.643"/><path fill="#4489F7" d="M769.866 331.014c22.973-.06 59.379-10.54 69.438-13.953l-1.72-7.04s-43.612 10.532-55.975 5.202"/><path fill="#D5EDF7" d="M719.172 381.826V295.5c0-2.154 2.363-3.473 4.196-2.342l63.233 38.99a6.464 6.464 0 013.071 5.502v94.79l-62.432-36.543a16.303 16.303 0 01-8.067-14.07"/><path stroke="#FFF" stroke-linecap="round" stroke-linejoin="round" stroke-width="6" d="M725.873 317.973v-14.705l-15.557 12.436m70.127 36.28v-14.705l-15.557 12.436"/><path fill="#EBF8FF" d="M841.197 446.91c12.822-29.33 7.372-60.034-12.173-68.579-19.545-8.545-45.784 8.305-58.606 37.635-12.823 29.33-7.372 60.033 12.173 68.578 19.544 8.544 45.784-8.305 58.606-37.635"/><path stroke="#FFF" stroke-width="5" d="M841.197 446.91c12.822-29.33 7.372-60.034-12.173-68.579-19.545-8.545-45.784 8.305-58.606 37.635-12.823 29.33-7.372 60.033 12.173 68.578 19.544 8.544 45.784-8.305 58.606-37.635z"/><path fill="#061D82" d="M792.452 253.637c-13.063 9.31-16.595 1.134-27.757 9.384-3.916 2.894-6.748 20.878 1.832 29.973 8.58 9.095 25.152 5.052 27.112 2.004 1.959-3.048-5.783-24.824 10.946-24.533 13.429.234 32.608-1.854 31.574-14.183-1.035-12.33-31.574-11.292-43.707-2.645"/><path fill="#FEC553" d="M795.936 286.3c0-2.477-1.56-4.485-3.484-4.485s-3.485 2.008-3.485 4.485c0 2.477 1.56 4.485 3.485 4.485 1.924 0 3.484-2.008 3.484-4.485"/><path fill="#1C00FF" d="M893.76 67.301l-.021 11.525-40.737 5.725.022-11.525z"/><path fill="#FEC553" d="M1225.439 317.587l-.024 13.026-46.042 6.471.023-13.026z"/><path fill="#B1D8FF" d="M1100.681 28.12c.27.021.487.253.486.512l-.008 4.807a.446.446 0 01-.489.448.529.529 0 01-.476-.52l.008-4.808a.44.44 0 01.479-.439m-.018 9.606a.53.53 0 01.486.52l-.007 4.799a.446.446 0 01-.49.448.53.53 0 01-.476-.521l.009-4.798c0-.268.217-.468.478-.448m-.017 9.605a.53.53 0 01.485.521l-.008 4.8a.444.444 0 01-.488.446.529.529 0 01-.477-.52l.009-4.799c0-.268.218-.468.479-.448m-.018 9.606a.53.53 0 01.485.52v.589l-.965-.073.001-.588c0-.268.217-.468.48-.448m-.037 19.211c.27.021.486.253.486.521l-.009 4.807a.443.443 0 01-.488.439.528.528 0 01-.477-.512l.01-4.807c0-.268.217-.468.478-.448m-38.675 14.576c.27.02.48.252.478.52a.43.43 0 01-.48.439l-4.834-.366a.52.52 0 01-.477-.512c0-.268.218-.468.48-.448l4.833.367zm-9.66-.733a.53.53 0 01.478.52.436.436 0 01-.48.439l-4.834-.366a.514.514 0 01-.477-.512c0-.268.21-.47.478-.448l4.835.367zm-5.402-13.268a.522.522 0 01-.485-.513l.008-4.807c0-.26.218-.46.488-.438.26.019.478.252.477.51l-.01 4.809a.435.435 0 01-.478.439m.018-9.606a.528.528 0 01-.486-.512l.008-4.807a.443.443 0 01.488-.44c.261.02.478.254.477.513l-.008 4.807a.44.44 0 01-.479.439m.018-9.606a.53.53 0 01-.486-.512l.008-4.807a.44.44 0 01.489-.439c.26.02.477.244.477.512l-.009 4.807a.44.44 0 01-.479.44m.018-9.606a.53.53 0 01-.486-.513l.009-4.807c0-.268.218-.467.488-.447a.53.53 0 01.477.52l-.01 4.808a.44.44 0 01-.478.439m.017-9.606a.53.53 0 01-.485-.52l.008-4.8c0-.268.218-.468.488-.447.26.02.478.252.477.52l-.009 4.8a.442.442 0 01-.479.447m.019-9.606a.53.53 0 01-.486-.52l.007-4.428.488.037.852.065c.269.02.487.253.486.513a.444.444 0 01-.488.447l-.374-.029-.006 3.467a.442.442 0 01-.48.448m5.694-3.52a.53.53 0 01-.485-.52.44.44 0 01.487-.438l4.826.366c.27.02.486.253.486.512a.444.444 0 01-.488.447l-4.826-.366zm9.661.734a.53.53 0 01-.486-.521.442.442 0 01.488-.438l4.825.366c.27.02.486.253.486.512a.444.444 0 01-.488.447l-4.825-.366zm9.66.733a.531.531 0 01-.486-.52.443.443 0 01.488-.44l4.834.367c.262.02.478.253.477.512a.441.441 0 01-.478.448l-4.835-.367zm9.66.733a.522.522 0 01-.477-.52c0-.26.21-.46.48-.44l4.834.367c.261.02.477.253.477.512a.442.442 0 01-.478.448l-4.835-.367zm9.662.733a.523.523 0 01-.478-.521c0-.259.21-.459.48-.438l4.834.366c.26.02.478.253.477.512a.441.441 0 01-.48.448l-4.833-.367z"/><path fill="#1C00FF" d="M1095.146 35.128l-.021 11.136-42.694-3.24.022-11.136z"/><path fill="#D7E9F2" d="M1095.12 48.823l-.017 8.767-24.372-1.85-.005 2.361-18.32-1.39.02-11.127z"/><path fill="#EBF8FF" d="M1070.722 60.66l-.011 6.07 24.373 1.849-.009 5.058-42.695-3.24.021-11.127z"/><path fill="#B1D8FF" d="M1100.121 71.789l.006-2.827.965.073-.005 2.827a.446.446 0 01-.488.448.531.531 0 01-.477-.521"/><path fill="#84D9F3" d="M1112.877 58.939l-.021 10.988-11.764-.893-.965-.073-5.043-.382-24.373-1.85.011-6.07.005-2.558.004-2.36 24.373 1.848 5.044.384.964.073z"/><path fill="#FFF" d="M1095.07 76.196l-42.694-3.24-.021 11.128 42.694 3.239.02-11.127zm.056-29.932l.02-11.136-42.693-3.24-.023 11.135 42.695 3.24zm5.538-8.538a.443.443 0 00-.48.448l-.01 4.798c0 .268.218.5.479.52l-.007 3.839a.443.443 0 00-.48.448l-.008 4.799c-.001.268.217.5.477.52l-.006 3.839a.442.442 0 00-.48.448l-.001.588-5.044-.383.017-8.767-42.695-3.24-.02 11.128 18.32 1.39-.004 2.559-18.322-1.39-.02 11.127 42.694 3.24.009-5.058 5.044.383-.006 2.827c0 .268.217.5.477.52l-.007 3.839a.443.443 0 00-.48.448l-.008 4.807c0 .259.217.492.478.512l-.007 3.847a.436.436 0 00-.48.439l-.008 4.808a.525.525 0 00.477.51l-.004 2.137-4.826-.366a.444.444 0 00-.488.447l-3.861-.293c0-.268-.216-.5-.486-.521l-4.825-.366a.443.443 0 00-.488.447l-3.861-.293a.531.531 0 00-.486-.521l-4.826-.367a.445.445 0 00-.488.448l-3.861-.293a.53.53 0 00-.485-.521l-4.835-.367a.443.443 0 00-.48.448l-3.87-.294a.521.521 0 00-.476-.52l-4.834-.367a.443.443 0 00-.48.448l-3.87-.294a.529.529 0 00-.477-.52l-4.834-.367a.437.437 0 00-.48.448l-.105-3.735c.26.02.478-.18.479-.448l.009-4.807a.528.528 0 00-.478-.512l.007-3.847a.438.438 0 00.48-.44l.008-4.807a.525.525 0 00-.477-.511l.008-3.848a.44.44 0 00.478-.44l.009-4.806a.527.527 0 00-.478-.512l.008-3.848a.44.44 0 00.48-.44l.009-4.806a.522.522 0 00-.478-.512l.007-3.847a.441.441 0 00.479-.44l.009-4.807a.53.53 0 00-.477-.52l.006-3.84c.26.02.48-.18.48-.447l.009-4.798a.53.53 0 00-.477-.521l.008-3.838c.26.02.479-.18.479-.448l.006-3.467.374.028a.443.443 0 00.488-.447l3.86.293a.53.53 0 00.486.52l4.827.367a.444.444 0 00.488-.447l3.86.293c0 .268.217.5.486.52l4.826.367a.444.444 0 00.488-.447l3.86.293c0 .268.217.5.487.52l4.835.368c.26.02.478-.18.478-.448l3.87.294a.52.52 0 00.477.52l4.835.367c.26.02.478-.18.479-.448l3.869.294c-.001.268.208.5.478.52l4.834.367c.262.02.479-.18.479-.448l3.689.28a.43.43 0 00-.08.253l-.01 4.807a.529.529 0 00.478.52l-.007 3.84z"/><path fill="#B1D8FF" d="M1100.575 85.762a.52.52 0 01.485.512l-.008 4.807c0 .26-.218.46-.488.44a.528.528 0 01-.477-.513l.009-4.807c0-.268.218-.459.479-.439m-.015 7.894a.53.53 0 01.485.52.436.436 0 01-.487.439l-4.826-.366a.522.522 0 01-.486-.512.444.444 0 01.488-.447l4.826.366zm-9.661-.733a.53.53 0 01.486.52.436.436 0 01-.487.439l-4.826-.366a.522.522 0 01-.486-.512.443.443 0 01.488-.447l4.825.366zm-9.66-.734c.27.022.486.254.486.522a.438.438 0 01-.488.439l-4.826-.367a.522.522 0 01-.485-.513c0-.267.217-.466.487-.447l4.826.367zm-9.66-.732a.53.53 0 01.484.52.437.437 0 01-.486.44l-4.836-.367a.52.52 0 01-.476-.512.442.442 0 01.478-.448l4.836.367zm-24.262-5.568a.443.443 0 01-.48.448.531.531 0 01-.486-.521l.01-4.807c0-.26.218-.46.487-.44a.53.53 0 01.478.513l-.01 4.807z"/><path fill="#EBF8FF" d="M1095.07 76.196l-.021 11.127-42.694-3.239.021-11.128z"/><path stroke="#B1D8FF" stroke-dasharray="5 5" stroke-linecap="round" d="M931.59 339.693c20.28 14.577 25.11 57.382 49.994 46.9 24.884-10.483 42.166-52.085 42.166-52.085"/><path fill="#EBF8FF" d="M952.21 270.277l-13.359 42.101-7.991-2.94-4.719-1.74-36.48-13.44-4.7-1.73-5.601-2.06 9.923-40.738z"/><path fill="#FFF" d="M894.33 275.188l3.36-10.47 36.84 12.28-3.35 10.47-36.85-12.28zm32.72 25.15l-36.85-12.27 3.36-10.47 36.85 12.27-3.36 10.47zm-31.94-43.99l-10.149 36.18 4.7 1.73-.23-3.79 32.746 15.769 3.965 1.461 4.719 1.74 10.62-37.64-46.37-15.45z"/><path fill="#FEC553" d="M926.281 302.748l-1.267 4.535-36.617-13.491 1.2-3.861z"/><path fill="#84D9F3" d="M930.406 289.871l-3.357 10.469-36.654-12.872 3.166-9.871z"/><path fill="#1C00FF" d="M934.536 276.995l-3.357 10.469-36.846-12.275 3.357-10.468z"/><path stroke="#B1D8FF" stroke-dasharray="5 5" d="M810 111c-66.145 30.808-137.025 61.588-241.103 200.13C464.818 449.67 92.149 422.983 0 277.297"/><g transform="translate(476 339.362)"><mask id="h" fill="#fff"><use xlink:href="#g"/></mask><path fill="#D5EDF7" d="M.645 13.36c35.86 28.917 61.399 32.26 101.746 4.729L42.713.067" mask="url(#h)"/></g><path fill="#FFF" d="M440.78 313.581s32.268-13.49 67.628-47.843c0 0 69.196 84.575 97.29 67.647 0 0-52.555 57.687-77.33 30.917 0 0-32.75 23.782-87.588-50.72"/><path stroke="#B1D8FF" stroke-dasharray="5 5" stroke-linecap="round" d="M440.78 313.581s32.268-13.49 67.628-47.843c0 0 69.196 84.575 97.29 67.647 0 0-52.555 57.687-77.33 30.917 0 0-32.75 23.782-87.588-50.72z"/><path fill="#D7E9F2" d="M509.187 283.155s-35.644 28.405-51.24 36.096l13.757 16.251s40.003-27.607 50.306-37.887l-12.824-14.46z"/><path fill="#EBF8FF" d="M525.835 301.82s-34.269 30.05-49.487 38.467l16.216 14.167s36.951-28.038 46.76-38.791l-13.489-13.843zm23.733 20.95s-32.643 28.658-47.86 37.073c0 0 3.67 4.414 10.036 5.255 10.319 1.363 17.036-3.381 17.036-3.381l2.548 2.302s24.738-18.994 34.549-29.746l-16.31-11.503z"/><path fill="#D5EDF7" d="M291.715 311.002c-17.718 30.767-35.139 40.282-71.8 31.735l37.866-29.572"/><path fill="#FFF" d="M306.587 272.886s-26.945-.708-61.923-15.546c0 0-26.17 80.048-51.074 75.707 0 0 53.833 26.818 64.181.68 0 0 30.16 7.97 48.816-60.842"/><path stroke="#B1D8FF" stroke-dasharray="5 5" stroke-linecap="round" d="M306.587 272.886s-26.945-.708-61.923-15.546c0 0-26.17 80.048-51.074 75.707 0 0 53.833 26.818 64.181.68 0 0 30.16 7.97 48.816-60.842z"/><path fill="#D7E9F2" d="M248.955 270.073s33.525 10.485 46.875 11.668l-5.36 15.51s-36.437-8.698-46.704-13.215l5.188-13.963z"/><path fill="#EBF8FF" d="M242.19 288.123s32.995 12.05 46.274 13.86l-7.708 14.696s-34.361-9.858-44.406-14.852l5.839-13.704zm-11.22 21.664s31.438 11.503 44.718 13.312c0 0-1.408 4.194-5.749 6.572-7.035 3.853-13.185 2.314-13.185 2.314l-1.188 2.364s-23.069-6.76-33.113-11.754l8.517-12.808z"/><path stroke="#FF4E89" d="M754.359 178.301a5.5 5.5 0 11-10.267 3.943 5.5 5.5 0 0110.267-3.943z"/><path fill="#0098FF" d="M722.637 215.651a3 3 0 11-5.601 2.15 3 3 0 015.601-2.15"/><path stroke="#46C4DB" d="M363 322v14m-7-7h14"/><path fill="#045BFF" d="M386 295.5a2.5 2.5 0 105 0 2.5 2.5 0 00-5 0"/><path stroke="#0098FF" d="M99 308v12m6-6H93"/><path stroke="#FF4E89" d="M47 366a5.001 5.001 0 11-10.002-.002A5.001 5.001 0 0147 366z"/><path fill="#045BFF" d="M93 291a2 2 0 11-4 0 2 2 0 014 0"/><path stroke="#FF4E89" d="M608 388v10m5-5h-10"/><path fill="#045BFF" d="M601 379.5a1.501 1.501 0 11-3.002-.002 1.501 1.501 0 013.002.002"/><path stroke="#46C4DB" d="M1330 76v10m5-5h-10"/><path fill="#FF4E89" d="M1345 102a2 2 0 11-4 0 2 2 0 014 0"/></g></svg>