<?xml version="1.0" encoding="UTF-8"?>
<svg width="1363px" height="497px" viewBox="0 0 1363 497" version="1.1" xmlns="http://www.w3.org/2000/svg" xmlns:xlink="http://www.w3.org/1999/xlink">
    <!-- Generator: Sketch 53.2 (72643) - https://sketchapp.com -->
    <title>Group 17</title>
    <desc>Created with Sketch.</desc>
    <defs>
        <polygon id="path-1" points="0.849929679 0.867 87.6591673 0.867 87.6591673 94.6513301 0.849929679 94.6513301"></polygon>
        <polygon id="path-3" points="0.60810028 0.2513 30.4398 0.2513 30.4398 21 0.60810028 21"></polygon>
        <polygon id="path-5" points="0.3169 0.209048175 66.014 0.209048175 66.014 87.1315 0.3169 87.1315"></polygon>
        <polygon id="path-7" points="0.6449 0.0667 102.3909 0.0667 102.3909 37 0.6449 37"></polygon>
    </defs>
    <g id="🎀-Site-pages" stroke="none" stroke-width="1" fill="none" fill-rule="evenodd">
        <g id="ADI---Homepage-v2" transform="translate(-38.000000, -354.000000)">
            <g id="Group-17" transform="translate(0.000000, 330.000000)">
                <g id="Group-8">
                    <g id="Group-346" transform="translate(717.000000, 23.000000)">
                        <path d="M209.1977,92.9937 C380.2117,74.6007 399.8327,199.9287 462.7017,129.7057" id="Stroke-1" stroke="#B1D8FF" stroke-linecap="round" stroke-dasharray="5,5"></path>
                        <path d="M543.3666,272.6621 C546.5756,278.9411 539.9226,282.9681 534.4946,286.4701 C529.0666,289.9711 522.6706,289.5941 520.2656,288.6441 C517.8616,287.6951 517.1616,280.3421 522.5896,278.5911 C528.0166,276.8401 531.3316,272.6621 531.3316,272.6621" id="Fill-3" fill="#061D83"></path>
                        <path d="M528.7162,77.2354 C545.3322,80.5574 550.1222,80.5454 549.4582,101.6214 C548.7942,122.6964 545.5992,166.0694 545.5992,166.0694 L495.7112,161.0654 L497.7792,83.0994 C497.7792,83.0994 500.1712,74.7214 517.9582,76.1104" id="Fill-5" fill="#E6E6FC"></path>
                        <path d="M495.7113,161.0655 C495.7113,161.0655 505.5853,270.4455 506.1693,271.4605 C506.7543,272.4745 517.5673,274.2125 517.5673,274.2125 L517.4243,185.8405 L523.5933,188.7245 L531.3313,272.6625 L543.3663,272.6625 L545.5993,166.0695" id="Fill-7" fill="#1C00FF"></path>
                        <path d="M544.0277,81.5684 C575.0517,98.9664 571.9757,182.8054 571.9757,182.8054 L565.8727,185.5114 C565.8727,185.5114 556.2657,114.0234 545.6117,110.9324" id="Fill-9" fill="#E6E6FC"></path>
                        <path d="M500.9486,79.2603 C488.3406,86.4783 484.4086,129.4513 461.8726,68.6083 L456.4586,72.5473 C456.4586,72.5473 458.4796,119.1083 487.2806,113.8643 C511.6316,109.4303 507.4206,82.0853 522.1056,86.2053" id="Fill-11" fill="#E6E6FC"></path>
                        <path d="M461.5619,50.9107 C461.2059,52.6417 460.8909,56.0637 460.6499,59.7257 C458.8549,59.4527 454.4579,59.0127 453.1039,61.2367 C451.3939,64.0597 452.8519,72.9907 457.6689,73.2527 C458.1409,73.2737 458.5609,73.2637 458.9389,73.2007 C461.5309,72.8327 462.6119,69.8947 462.6959,68.0157 C463.2099,57.5847 462.4649,46.5877 461.5619,50.9107" id="Fill-13" fill="#FEC553"></path>
                        <path d="M571.976,182.8052 C575.71,191.6882 575.412,195.9652 567.683,198.6932 C559.955,201.4212 564.604,188.5312 565.872,185.5112" id="Fill-15" fill="#FEC553"></path>
                        <path d="M518.5931,76.8897 C517.7081,78.5547 515.5261,81.1017 521.0711,81.5687 C526.6151,82.0347 532.1601,79.6497 527.8551,76.8897" id="Fill-17" fill="#FEC553"></path>
                        <path d="M529.7875,76.8897 C530.5595,76.5017 531.3375,76.0307 532.1165,75.4827 C533.0815,74.8847 534.6155,73.5797 536.2675,71.7787 C536.2765,71.7697 536.2845,71.7617 536.2925,71.7527 C536.3035,71.7417 536.3115,71.7297 536.3225,71.7187 C542.1485,65.3417 549.2785,52.9347 537.3245,44.2777 C521.1955,32.5967 525.4205,44.2777 525.4205,44.2777 C510.0105,50.1737 505.6135,59.7607 508.0505,66.4367 L508.0485,66.4377 C508.0535,66.4497 508.0595,66.4597 508.0635,66.4717 C508.3275,67.1857 508.6675,67.8687 509.0835,68.5077 C511.0545,72.0427 514.4165,74.4567 517.7565,76.2147" id="Fill-19" fill="#FEC553"></path>
                        <path d="M547.3978,49.0083 C546.7348,45.6933 545.1348,38.1853 537.8228,38.3813 C530.5098,38.5753 530.3158,36.1383 520.4678,37.5033 C510.6208,38.8683 519.4928,42.7683 510.3278,44.2313 C501.1638,45.6933 507.9878,52.5183 512.6838,51.9503 C517.3798,51.3823 548.7048,45.2773 538.6028,60.2203 C537.8278,61.3683 537.0848,62.3903 536.3688,63.3173 C528.2188,67.8863 524.0158,66.5273 515.7338,64.5083 C507.4258,62.4823 508.0848,61.3843 507.6728,60.4353 C505.8248,63.2093 504.2078,68.4063 508.0568,71.6113 L508.0568,71.6063 C510.6948,74.4393 515.5438,77.5433 520.4678,78.3563 C529.9248,79.9163 534.1218,77.0393 540.4558,71.6283 C546.7588,66.2433 548.0608,52.3233 547.3978,49.0083" id="Fill-21" fill="#0147AB"></path>
                        <path d="M541.3226,61.4634 C541.6446,59.7054 540.6496,58.0494 539.1006,57.7654 C537.5516,57.4814 536.0336,58.6764 535.7116,60.4354 C535.3886,62.1934 536.3846,63.8494 537.9336,64.1324 C539.4826,64.4174 541.0006,63.2214 541.3226,61.4634" id="Fill-23" fill="#FEC553"></path>
                        <path d="M517.9828,68.17 C520.3928,67.582 522.6788,69.235 520.5008,70.397 C518.3218,71.559 514.0128,69.138 517.9828,68.17" id="Fill-25" fill="#FEC553"></path>
                        <path d="M284.1938,117.4995 C278.5408,119.7335 278.3988,126.5195 272.5768,143.2675 C261.9218,173.9135 227.8768,160.8975 213.7548,157.1485 C211.5058,155.8675 212.2678,150.0455 212.2678,150.0455 L212.2638,150.0395 C212.5818,148.6115 212.6578,146.9155 212.2448,144.9225 C211.5478,141.5585 210.7628,143.5705 210.1188,146.7215 L210.1188,146.7205 C209.7478,148.3335 207.9788,154.1215 201.0968,155.1495 L201.1148,155.1575 C199.5958,155.1725 198.1728,155.2565 196.8818,155.4005 L196.8808,155.4005 C188.8248,155.5315 181.3238,161.9305 187.1028,161.2555 C192.8818,160.5815 202.8358,160.8065 206.6598,161.2555 L206.7098,161.2275 C220.9588,162.2905 232.5048,173.4265 254.1518,169.4905 C294.4418,162.1655 293.5758,124.8485 293.5758,124.8485 L284.1938,117.4995 Z" id="Fill-27" fill="#96644B"></path>
                        <path d="M283.6205,166.0752 C285.4775,150.2492 277.6465,152.6922 277.4365,145.1162 C277.2265,137.5402 282.8935,138.1022 282.4805,124.3962 C282.3835,121.1542 284.1945,117.4992 284.1945,117.4992 C284.1945,117.4992 290.8815,115.2672 295.3125,114.2292 C295.3125,114.2292 298.3405,113.2802 304.3275,113.1442 C304.3275,113.1442 313.4615,114.2802 323.3605,121.2772 C327.7405,124.3732 322.5435,124.8072 322.2075,131.7072 C321.2535,151.3042 312.1855,141.4082 326.9145,202.0842 L264.6225,201.7372 C264.6225,201.7372 280.8475,189.7162 283.6205,166.0752" id="Fill-29" fill="#FEC553"></path>
                        <g id="Group-33" transform="translate(232.000000, 0.133000)">
                            <mask id="mask-2" fill="white">
                                <use xlink:href="#path-1"></use>
                            </mask>
                            <g id="Clip-32"></g>
                            <path d="M84.0346,83.5272 C90.1826,79.3182 89.6626,62.5862 73.3686,55.5992 C62.9336,51.1252 69.6696,38.5662 58.9656,34.4552 C39.4296,26.9532 42.4846,21.4062 40.9046,13.6632 C38.4926,1.8412 16.5766,-5.9948 7.3566,9.4992 C-3.7324,28.1332 -0.8434,62.7062 17.5306,60.8412 C36.0426,58.9622 41.9946,59.4622 39.0156,74.2972 C36.0376,89.1312 56.7766,99.7692 66.0386,92.0852" id="Fill-31" fill="#061D82" mask="url(#mask-2)"></path>
                        </g>
                        <path d="M317.2904,191.648 C274.4684,189.519 245.2854,167.933 224.3504,227.72" id="Fill-34" fill="#0147AB"></path>
                        <path d="M520.1068,245.689 C509.7588,195.166 420.6138,169.2 318.9268,188.097 C217.2408,206.994 142.4468,263.416 151.8688,314.12 C161.2918,364.824 250.3338,383.825 353.0488,371.712 C462.0318,358.86 530.6888,297.354 520.1068,245.689" id="Fill-36" fill="#FFFFFF"></path>
                        <path d="M294.2035,116.1265 C293.8955,114.5915 297.0905,115.5805 296.9695,105.7485 L296.9725,105.7465 C297.7105,97.8055 295.1225,94.2065 291.6825,89.3205 C288.8685,85.3225 285.7985,60.9525 301.8635,66.9435 C317.0935,72.6235 319.8705,84.2145 318.8985,89.7445 C318.1075,94.2385 314.3775,98.1035 310.4745,99.8455 C310.3325,99.9375 310.1725,100.0165 309.9745,100.0675 C309.9605,100.0715 309.9475,100.0755 309.9325,100.0795 C309.4585,100.2665 308.9845,100.4155 308.5135,100.5355 C305.3825,101.7765 305.1905,103.7995 304.9535,106.3915 L304.9535,106.3885 C304.9265,109.0015 305.5415,111.7045 307.6525,113.6035 C307.6525,113.6035 311.3635,117.8735 305.9045,119.6525 C305.9045,119.6525 295.2955,121.5895 294.2035,116.1265" id="Fill-38" fill="#96644B"></path>
                        <polygon id="Fill-40" fill="#EBF8FF" points="286.8119 219.0821 329.7269 223.7551 313.5279 258.0001 262.4079 250.3311"></polygon>
                        <polygon id="Fill-42" fill="#EBF8FF" points="479.1635 223.1665 443.2595 227.0765 456.8115 255.7275 499.5815 249.3105"></polygon>
                        <polygon id="Fill-44" fill="#EBF8FF" points="403.9848 221.4605 350.0888 225.3885 348.1398 253.8185 412.4108 249.6235"></polygon>
                        <polygon id="Fill-46" fill="#5D9FFF" points="302.4672 235.9888 300.5202 236.3728 300.2212 234.4418 305.5462 226.7138 307.7912 228.2608"></polygon>
                        <path d="M346.0072,166.3462 C344.8652,153.0502 337.3342,139.2112 324.9012,122.5492 C322.9892,119.9892 318.6272,120.7332 317.7762,123.3772 C317.0572,125.6072 316.6392,126.4112 316.3582,130.5342 C316.2362,132.3432 316.9222,134.1262 318.2362,135.3752 C354.7862,170.1012 325.5182,207.2912 314.1872,219.2172 L314.1052,219.0822 C310.8622,221.9912 308.5692,220.0032 305.1142,220.5982 C301.6602,221.1942 302.7452,230.9482 302.7452,230.9482 C302.7452,230.9482 312.7972,232.8962 312.9792,230.1842 C313.1072,228.2672 313.7622,226.7282 314.4782,225.5822 C349.9452,196.7122 346.0072,166.3462 346.0072,166.3462" id="Fill-48" fill="#96644B"></path>
                        <polygon id="Fill-50" fill="#5D9FFF" points="311.2377 223.2608 308.9917 221.7138 315.8187 211.8068 318.0637 213.3538"></polygon>
                        <path d="M561.7933,61.5161 C608.6333,36.5121 632.8163,78.4411 612.2973,150.1801 C591.7783,221.9181 652.8713,277.4831 598.9223,335.5091 C525.6173,414.3541 438.3743,378.4931 422.3573,338.9401" id="Stroke-52" stroke="#B1D8FF" stroke-linecap="round" stroke-dasharray="5,5"></path>
                        <path d="M308.7572,68.565 C296.6122,72.822 298.5672,85.687 290.5772,86.314 C282.5892,86.94 289.3392,53.568 289.3392,53.568" id="Fill-54" fill="#061D82"></path>
                        <path d="M295.0473,86.3223 C295.0473,83.9823 293.6093,82.0853 291.8353,82.0853 C290.0623,82.0853 288.6233,83.9823 288.6233,86.3223 C288.6233,88.6623 290.0623,90.5583 291.8353,90.5583 C293.6093,90.5583 295.0473,88.6623 295.0473,86.3223" id="Fill-56" fill="#96644B"></path>
                        <path d="M295.0473,83.9126 C298.9523,80.8396 311.6833,74.8286 310.3573,66.8706 C309.0303,58.9136 292.4093,59.8866 292.4093,59.8866" id="Fill-58" fill="#061D82"></path>
                        <polygon id="Fill-60" fill="#EBF8FF" points="227.8217 345.1392 165.5877 315.0342 200.3707 291.6022 259.8607 313.5122"></polygon>
                        <polygon id="Fill-64" fill="#D5EDF7" points="200.5756 297.2788 247.0476 316.5048 232.9146 329.7458 183.3946 307.1888"></polygon>
                        <path d="M389.0385,481.6187 C379.6505,478.8917 378.2405,471.3827 380.0515,470.7217 C382.3455,469.8837 388.5505,474.2827 389.2655,472.9577 C390.3645,470.9197 389.4535,468.5537 389.4535,468.5537 L399.8995,468.5477 L399.8995,487.4517 L395.1895,488.3577 C395.1895,488.3577 394.9465,486.4797 394.6005,484.3207 L394.6005,484.3117 C394.4985,483.6857 394.3955,483.0407 394.2835,482.4057 C394.3115,482.4057 394.2655,482.4057 394.2835,482.4057 C393.9655,480.1727 393.6575,479.1727 393.3025,478.1357 C392.9375,477.0227 392.6015,476.9477 392.4515,478.6487 C392.4515,478.6487 393.1835,482.8217 389.0385,481.6187" id="Fill-66" fill="#061D82"></path>
                        <path d="M401.7445,437.0909 L402.1295,421.7449 C403.3395,389.5669 406.2005,393.9299 403.6635,360.5469 L403.6635,360.5459 L357.1385,363.9289 L365.7045,477.3839 L376.4395,477.3839 L380.0055,383.3249 L385.7985,379.9729 L389.5655,470.3889 L399.8995,468.5479 L401.6165,442.1849 C401.6735,440.7229 401.7165,439.0309 401.7445,437.0909" id="Fill-68" fill="#B1D8FF"></path>
                        <g id="Group-72" transform="translate(346.000000, 477.133000)">
                            <mask id="mask-4" fill="white">
                                <use xlink:href="#path-3"></use>
                            </mask>
                            <g id="Clip-71"></g>
                            <path d="M30.4398,0.2513 L30.4398,19.1613 L25.7288,21.0003 C25.7288,21.0003 24.3498,10.5183 23.5848,10.6253 C22.8178,10.7333 23.2098,19.9273 11.1378,17.9353 C-0.9332,15.9433 0.2928,10.5183 1.0578,10.6253 C1.8248,10.7333 12.9798,12.8783 15.5238,9.3543 C18.0678,5.8293 19.7048,0.2513 19.7048,0.2513" id="Fill-70" fill="#061D82" mask="url(#mask-4)"></path>
                        </g>
                        <path d="M435.0385,273.5738 C440.6255,262.2598 446.4605,258.7588 440.3685,268.8848 C434.2755,279.0098 457.7395,264.2778 456.6365,268.2378 C455.5315,272.1968 440.3435,277.4318 440.3435,277.4318" id="Fill-73" fill="#FEC553"></path>
                        <path d="M371.1313,240.545 C354.3493,246.804 352.9493,257.845 354.0293,263.938 C355.2523,270.913 362.9103,276.544 368.4643,276.147 C369.2463,279.089 370.0843,283.717 368.4643,287.386 L368.2883,287.585 L368.2333,287.662 C368.2663,287.673 368.2883,287.673 368.3203,287.684 C374.0723,288.94 376.2103,290.791 379.1963,287.078 L379.1863,287.067 C378.8443,285.646 378.4913,283.86 378.1833,281.579 C378.0833,280.566 378.0393,279.607 378.0393,278.714 C378.0393,271.883 380.6623,268.235 384.0123,263.475 C387.1193,259.068 388.8383,233.945 371.1313,240.545" id="Fill-75" fill="#FEC553"></path>
                        <path d="M309.935,283.3443 C303.141,272.7113 296.957,269.8713 304.123,279.2673 C311.289,288.6643 286.35,276.5933 287.882,280.4073 C289.414,284.2223 305.084,287.7613 305.084,287.7613" id="Fill-77" fill="#FEC553"></path>
                        <path d="M393.602,258.271 C393.492,238.663 380.866,237.124 367.799,238.243 C362.54,239.323 356.066,242.441 356.494,251.297 C357.497,272.055 353.835,277.619 353.835,277.619 C359.37,280.352 373.7,279.702 384.912,277.898 L385.414,270.167 L388.206,277.316 C390.053,276.961 391.771,276.577 393.283,276.176 C393.481,272.928 393.653,267.438 393.602,258.271" id="Fill-79" fill="#061D82"></path>
                        <path d="M357.1391,363.9292 L357.1381,363.9292 C357.1381,363.9292 357.1431,363.9582 357.1391,363.9292" id="Fill-81" fill="#4489F7"></path>
                        <path d="M440.3432,277.4322 L435.0382,273.5742 C428.6512,325.1332 411.2392,293.0152 393.4522,288.0022 C393.1582,287.8872 392.8382,287.7802 392.4902,287.6832 C376.2812,281.9802 365.0682,284.5942 355.7692,290.1032 C338.5472,299.3962 321.6312,332.6072 309.9352,283.3442 L305.0842,287.7612 C305.0842,287.7612 309.7522,324.6222 332.0602,321.7582 C342.1342,320.4642 354.6992,308.4872 359.3512,304.6522 L355.8352,370.1952 L405.1212,362.0592 C405.1212,362.0592 395.7062,322.7762 394.7382,303.0852 C399.0922,305.0262 408.9722,314.8002 418.3722,314.9682 C440.8592,315.3702 440.3432,277.4322 440.3432,277.4322" id="Fill-83" fill="#4489F7"></path>
                        <path d="M651.0892,426.7827 C651.9142,430.2327 655.8292,437.9317 648.0112,437.8457 C640.1932,437.7597 623.8112,430.6707 624.6512,426.9967 C625.4892,423.3237 629.8082,420.3927 633.0822,421.4007 C636.3572,422.4077 642.2922,426.5537 644.8532,425.3607" id="Fill-85" fill="#061D83"></path>
                        <path d="M680.431,414.8091 C681.257,418.2591 685.171,425.9581 677.354,425.8721 C669.536,425.7861 653.154,418.6971 653.993,415.0241 C654.832,411.3501 659.15,408.4191 662.425,409.4271 C665.7,410.4341 671.635,414.5811 674.196,413.3871" id="Fill-87" fill="#061D83"></path>
                        <path d="M637.1732,309.3028 C635.9472,322.6918 639.5052,424.9528 640.7592,427.8608 C641.9452,430.6118 652.6782,426.6168 652.6782,426.6168 L659.1062,327.1358 L662.8312,329.4078 C663.0932,343.0738 668.0832,418.1168 670.2742,418.3418 C672.9852,418.6198 681.1002,417.0428 681.1002,417.0428 L682.5622,304.5178 L637.1732,309.3028 Z" id="Fill-89" fill="#B1D8FF"></path>
                        <path d="M617.3168,302.4351 C612.5638,302.7291 603.2898,301.3091 604.1568,303.0611 C605.0238,304.8131 616.9328,303.6591 609.3028,306.9391 C601.6728,310.2211 598.8008,312.1061 600.4828,314.3681 C602.1648,316.6301 605.9998,316.8961 609.7078,314.9141 C613.4158,312.9331 622.2598,307.9631 622.2598,307.9631" id="Fill-91" fill="#FEC553"></path>
                        <path d="M597.9779,228.5098 C599.3829,229.5828 602.3289,231.3518 605.5229,233.1598 C604.4979,234.6578 602.1919,238.4268 603.6079,240.6128 C605.4089,243.3798 614.0859,245.9428 616.4149,241.7178 C616.6379,241.3018 616.8109,240.9188 616.9179,240.5508 C617.7119,238.0558 615.5359,235.8068 613.8789,234.9158 C604.7069,229.9238 594.4749,225.8198 597.9779,228.5098" id="Fill-93" fill="#FEC553"></path>
                        <path d="M650.5082,219.4131 C652.2152,219.5781 652.8202,220.2941 652.8092,221.4191 L652.8152,221.4171 C653.0352,231.5631 648.5242,234.0141 660.5612,232.1171 C665.6122,231.3211 667.2602,229.5061 667.4792,227.6691 C666.1592,226.2321 665.1402,223.9921 665.2822,220.4991 C665.6572,211.2931 670.4772,207.1811 670.2812,205.0591 C670.0862,202.9371 674.2632,191.8531 667.7012,190.3171 C661.1402,188.7811 642.0672,187.4791 638.5522,199.1141 C635.8172,208.1671 644.0302,218.7871 650.5082,219.4131" id="Fill-95" fill="#FEC553"></path>
                        <path d="M650.4594,198.44 C647.8304,189.862 636.9054,190.834 636.9684,183.356 C637.0604,172.398 646.2714,184.383 662.6834,183.765 C683.4454,182.983 673.6124,216.081 661.2964,218.512 C658.2184,219.12 655.6894,219.184 653.6304,218.938 C649.1214,218.399 646.5324,213.485 648.4624,209.374 C650.0384,206.016 651.4604,201.706 650.4594,198.44" id="Fill-97" fill="#061D82"></path>
                        <path d="M652.3685,205.6206 C652.5425,203.1496 651.1265,201.0376 649.2065,200.9026 C647.2865,200.7676 645.5905,202.6626 645.4165,205.1336 C645.2435,207.6046 646.6595,209.7166 648.5795,209.8506 C650.4995,209.9856 652.1955,208.0916 652.3685,205.6206" id="Fill-99" fill="#FEC553"></path>
                        <path d="M664.0179,248.3516 C635.5749,249.7816 616.0719,236.7886 616.0719,236.7886 L613.4519,243.7696 C613.4519,243.7696 637.9679,260.3216 663.4399,265.5186" id="Fill-101" fill="#1C00FF"></path>
                        <g id="Group-105" transform="translate(617.000000, 226.133000)">
                            <mask id="mask-6" fill="white">
                                <use xlink:href="#path-5"></use>
                            </mask>
                            <g id="Clip-104"></g>
                            <path d="M65.5619,14.4915 C64.7039,-3.6945 38.8519,-0.4965 31.5199,2.6195 C20.7589,7.1935 31.4879,50.3745 0.3169,76.3025 L5.2599,81.8305 C5.2599,81.8305 13.3619,74.9355 21.8989,65.2965 C21.2539,72.3665 20.6539,79.7275 20.1569,87.1315 L65.6189,83.0915 C65.6189,83.0915 66.5449,35.3125 65.5619,14.4915" id="Fill-103" fill="#1C00FF" mask="url(#mask-6)"></path>
                        </g>
                        <path d="M197.1029,54.1807 C197.3429,54.1467 197.5429,54.3347 197.5429,54.6027 L197.5339,59.4097 C197.5339,59.6697 197.3319,59.9137 197.0919,59.9477 C196.8439,59.9827 196.6439,59.7947 196.6449,59.5347 L196.6539,54.7277 C196.6539,54.6327 196.6799,54.5397 196.7239,54.4587 C196.8039,54.3127 196.9439,54.2027 197.1029,54.1807" id="Fill-106" fill="#B1D8FF"></path>
                        <path d="M197.0854,63.795 C197.3254,63.761 197.5254,63.941 197.5244,64.209 L197.5164,69.016 C197.5164,69.275 197.3144,69.52 197.0744,69.553 C196.8264,69.588 196.6264,69.4 196.6274,69.141 L196.6364,64.334 C196.6364,64.066 196.8374,63.83 197.0854,63.795" id="Fill-108" fill="#B1D8FF"></path>
                        <path d="M197.0678,73.4004 C197.3078,73.3664 197.5078,73.5544 197.5068,73.8144 L197.4988,78.6214 C197.4978,78.8804 197.2968,79.1254 197.0568,79.1584 C196.8078,79.1934 196.6088,79.0054 196.6088,78.7464 L196.6188,73.9394 C196.6188,73.6794 196.8188,73.4354 197.0678,73.4004" id="Fill-110" fill="#B1D8FF"></path>
                        <path d="M197.0492,83.0064 C197.2902,82.9724 197.4892,83.1604 197.4892,83.4204 L197.4812,88.2274 C197.4802,88.4954 197.2792,88.7304 197.0392,88.7644 C196.7902,88.7994 196.5912,88.6194 196.5912,88.3514 L196.6002,83.5454 C196.6012,83.2854 196.8012,83.0414 197.0492,83.0064" id="Fill-112" fill="#B1D8FF"></path>
                        <path d="M197.0316,92.6119 C197.2716,92.5779 197.4716,92.7659 197.4716,93.0259 L197.4626,97.8329 C197.4626,98.1009 197.2606,98.3449 197.0206,98.3789 C196.7726,98.4139 196.5726,98.2259 196.5736,97.9579 L196.5826,93.1509 C196.5836,92.8909 196.7836,92.6469 197.0316,92.6119" id="Fill-114" fill="#B1D8FF"></path>
                        <path d="M197.0141,102.2173 C197.2541,102.1833 197.4541,102.3713 197.4531,102.6393 L197.4451,107.4383 C197.4451,107.7063 197.2431,107.9503 197.0031,107.9843 C196.7551,108.0193 196.5551,107.8313 196.5561,107.5633 L196.5651,102.7643 C196.5651,102.4963 196.7661,102.2523 197.0141,102.2173" id="Fill-116" fill="#B1D8FF"></path>
                        <path d="M196.9965,111.8228 C197.2365,111.7888 197.4365,111.9768 197.4355,112.2448 L197.4275,117.0438 C197.4265,117.3118 197.2255,117.5558 196.9855,117.5898 C196.7365,117.6248 196.5375,117.4368 196.5375,117.1688 L196.5465,112.3698 C196.5475,112.1018 196.7475,111.8578 196.9965,111.8228" id="Fill-118" fill="#B1D8FF"></path>
                        <path d="M196.9818,119.7251 C197.2218,119.6911 197.4208,119.8791 197.4208,120.1391 C197.4198,120.4071 197.2198,120.6511 196.9798,120.6851 L192.5258,121.3111 C192.2778,121.3461 192.0778,121.1581 192.0788,120.8901 C192.0788,120.6301 192.2798,120.3861 192.5278,120.3511 L196.9818,119.7251 Z" id="Fill-120" fill="#B1D8FF"></path>
                        <path d="M188.0736,120.9771 C188.3226,120.9421 188.5216,121.1301 188.5216,121.3901 C188.5206,121.6581 188.3206,121.9021 188.0716,121.9371 L183.6266,122.5611 C183.3786,122.5971 183.1776,122.4091 183.1786,122.1411 C183.1786,121.8811 183.3806,121.6371 183.6286,121.6021 L188.0736,120.9771 Z" id="Fill-122" fill="#B1D8FF"></path>
                        <path d="M179.1742,122.2281 C179.4222,122.1931 179.6222,122.3811 179.6222,122.6401 C179.6212,122.9081 179.4212,123.1531 179.1722,123.1871 L174.7272,123.8121 C174.4782,123.8471 174.2782,123.6591 174.2782,123.3911 C174.2792,123.1321 174.4802,122.8881 174.7292,122.8531 L179.1742,122.2281 Z" id="Fill-124" fill="#B1D8FF"></path>
                        <path d="M170.2748,123.4786 C170.5228,123.4436 170.7228,123.6316 170.7218,123.8916 C170.7218,124.1596 170.5208,124.4036 170.2728,124.4386 L165.8278,125.0626 C165.5788,125.0986 165.3788,124.9106 165.3788,124.6426 C165.3798,124.3826 165.5808,124.1386 165.8288,124.1036 L170.2748,123.4786 Z" id="Fill-126" fill="#B1D8FF"></path>
                        <path d="M161.3754,124.7295 C161.6234,124.6945 161.8234,124.8825 161.8224,125.1415 C161.8224,125.4095 161.6214,125.6545 161.3734,125.6885 L156.9274,126.3135 C156.6794,126.3485 156.4794,126.1605 156.4794,125.8925 C156.4804,125.6335 156.6814,125.3895 156.9294,125.3545 L161.3754,124.7295 Z" id="Fill-128" fill="#B1D8FF"></path>
                        <path d="M152.476,125.98 C152.724,125.945 152.924,126.133 152.923,126.393 C152.923,126.661 152.722,126.905 152.474,126.94 L148.02,127.566 C147.78,127.6 147.58,127.412 147.58,127.144 C147.58,126.884 147.782,126.64 148.022,126.606 L152.476,125.98 Z" id="Fill-130" fill="#B1D8FF"></path>
                        <path d="M147.9242,122.8946 C147.9242,123.1536 147.7242,123.3976 147.4832,123.4316 C147.2352,123.4666 147.0342,123.2786 147.0352,123.0196 L147.0442,118.2116 C147.0442,117.9446 147.2452,117.6996 147.4932,117.6656 C147.7342,117.6316 147.9342,117.8196 147.9342,118.0876 L147.9242,122.8946 Z" id="Fill-132" fill="#B1D8FF"></path>
                        <path d="M147.5014,113.8262 C147.2524,113.8612 147.0534,113.6732 147.0534,113.4052 L147.0624,108.6062 C147.0634,108.3382 147.2634,108.0942 147.5124,108.0592 C147.7524,108.0252 147.9514,108.2132 147.9514,108.4812 L147.9424,113.2802 C147.9414,113.5482 147.7414,113.7922 147.5014,113.8262" id="Fill-134" fill="#B1D8FF"></path>
                        <path d="M147.519,104.2207 C147.271,104.2557 147.071,104.0677 147.071,103.7997 L147.081,99.0007 C147.081,98.7327 147.282,98.4887 147.53,98.4537 C147.77,98.4197 147.97,98.6077 147.969,98.8757 L147.96,103.6747 C147.959,103.9427 147.759,104.1867 147.519,104.2207" id="Fill-136" fill="#B1D8FF"></path>
                        <path d="M147.5365,94.6153 C147.2885,94.6503 147.0885,94.4623 147.0895,94.1943 L147.0985,89.3953 C147.0985,89.1273 147.2995,88.8833 147.5475,88.8483 C147.7875,88.8143 147.9875,89.0023 147.9865,89.2703 L147.9775,94.0693 C147.9775,94.3373 147.7765,94.5813 147.5365,94.6153" id="Fill-138" fill="#B1D8FF"></path>
                        <path d="M147.5541,85.0093 C147.3061,85.0443 147.1061,84.8563 147.1071,84.5883 L147.1161,79.7903 C147.1171,79.5223 147.3171,79.2773 147.5651,79.2423 C147.8061,79.2093 148.0051,79.3973 148.0051,79.6653 L147.9951,84.4633 C147.9951,84.7313 147.7951,84.9753 147.5541,85.0093" id="Fill-140" fill="#B1D8FF"></path>
                        <path d="M147.5727,75.4038 C147.3237,75.4388 147.1247,75.2508 147.1247,74.9828 L147.1337,70.1758 C147.1347,69.9168 147.3347,69.6718 147.5837,69.6368 C147.8237,69.6038 148.0227,69.7918 148.0227,70.0508 L148.0137,74.8578 C148.0127,75.1258 147.8127,75.3698 147.5727,75.4038" id="Fill-142" fill="#B1D8FF"></path>
                        <path d="M147.5902,65.7896 C147.3422,65.8246 147.1422,65.6446 147.1422,65.3766 L147.1512,60.9416 L147.5992,60.8786 L148.3842,60.7686 C148.6322,60.7336 148.8322,60.9216 148.8322,61.1896 C148.8312,61.4576 148.6312,61.7026 148.3822,61.7366 L148.0382,61.7856 L148.0312,65.2526 C148.0302,65.5196 147.8302,65.7556 147.5902,65.7896" id="Fill-144" fill="#B1D8FF"></path>
                        <path d="M152.8363,61.1109 C152.5883,61.1459 152.3883,60.9579 152.3893,60.6899 C152.3893,60.4219 152.5903,60.1769 152.8383,60.1429 L157.2923,59.5169 C157.5323,59.4829 157.7323,59.6709 157.7323,59.9389 C157.7313,60.2069 157.5303,60.4509 157.2903,60.4849 L152.8363,61.1109 Z" id="Fill-146" fill="#B1D8FF"></path>
                        <path d="M161.7357,59.8599 C161.4877,59.8949 161.2957,59.7059 161.2967,59.4379 C161.2967,59.1699 161.4897,58.9269 161.7377,58.8919 L166.1917,58.2659 C166.4317,58.2319 166.6317,58.4199 166.6317,58.6879 C166.6317,58.9559 166.4297,59.1999 166.1897,59.2349 L161.7357,59.8599 Z" id="Fill-148" fill="#B1D8FF"></path>
                        <path d="M170.6352,58.6094 C170.3872,58.6444 170.1962,58.4554 170.1962,58.1874 C170.1972,57.9194 170.3892,57.6754 170.6372,57.6414 L175.0912,57.0154 C175.3312,56.9814 175.5312,57.1694 175.5312,57.4374 C175.5312,57.7054 175.3292,57.9494 175.0892,57.9834 L170.6352,58.6094 Z" id="Fill-150" fill="#B1D8FF"></path>
                        <path d="M179.5346,57.3584 C179.2956,57.3924 179.0956,57.2044 179.0956,56.9364 C179.0966,56.6684 179.2966,56.4234 179.5366,56.3904 L183.9906,55.7644 C184.2386,55.7294 184.4306,55.9184 184.4306,56.1864 C184.4306,56.4544 184.2376,56.6974 183.9886,56.7324 L179.5346,57.3584 Z" id="Fill-152" fill="#B1D8FF"></path>
                        <path d="M188.435,56.1079 C188.195,56.1419 187.995,55.9539 187.996,55.6859 C187.996,55.4179 188.196,55.1729 188.436,55.1399 L192.89,54.5139 C193.139,54.4789 193.338,54.6669 193.338,54.9349 C193.337,55.2029 193.137,55.4469 192.888,55.4819 L188.435,56.1079 Z" id="Fill-154" fill="#B1D8FF"></path>
                        <polygon id="Fill-156" fill="#D7E9F2" points="192.0033 62.3311 191.9823 73.4581 152.6503 78.9861 152.6713 67.8591"></polygon>
                        <polygon id="Fill-158" fill="#EBF8FF" points="191.9779 76.0176 191.9569 87.1446 152.6249 92.6726 152.6459 81.5456"></polygon>
                        <polygon id="Fill-160" fill="#EBF8FF" points="191.9272 103.3907 191.9062 114.5177 152.5742 120.0457 152.5952 108.9177"></polygon>
                        <polygon id="Fill-162" fill="#EBF8FF" points="191.9525 89.7041 191.9315 100.8311 152.5995 106.3591 152.6205 95.2311"></polygon>
                        <path d="M191.9565,87.1446 L191.9775,76.0176 L152.6455,81.5456 L152.6255,92.6726 L191.9565,87.1446 L191.9565,87.1446 Z M191.9815,73.4586 L192.0035,62.3316 L152.6715,67.8586 L152.6505,78.9856 L191.9815,73.4586 L191.9815,73.4586 Z M191.9315,100.8316 L191.9525,89.7046 L152.6205,95.2316 L152.6005,106.3586 L191.9315,100.8316 L191.9315,100.8316 Z M191.9055,114.5176 L191.9275,103.3906 L152.5955,108.9176 L152.5745,120.0456 L191.9055,114.5176 L191.9055,114.5176 Z M197.0855,63.7946 C196.8375,63.8306 196.6365,64.0656 196.6365,64.3336 L196.6275,69.1406 C196.6265,69.3996 196.8265,69.5876 197.0745,69.5536 L197.0675,73.4006 C196.8185,73.4356 196.6185,73.6796 196.6185,73.9386 L196.6085,78.7466 C196.6085,79.0056 196.8085,79.1936 197.0575,79.1586 L197.0495,83.0066 C196.8015,83.0406 196.6015,83.2856 196.6005,83.5446 L196.5915,88.3516 C196.5915,88.6196 196.7905,88.7996 197.0395,88.7646 L197.0315,92.6116 C196.7835,92.6466 196.5835,92.8916 196.5825,93.1506 L196.5735,97.9576 C196.5725,98.2256 196.7725,98.4136 197.0205,98.3786 L197.0145,102.2176 C196.7665,102.2526 196.5645,102.4966 196.5645,102.7646 L196.5565,107.5626 C196.5555,107.8316 196.7555,108.0196 197.0035,107.9836 L196.9965,111.8226 C196.7475,111.8576 196.5475,112.1026 196.5465,112.3706 L196.5375,117.1686 C196.5375,117.4366 196.7365,117.6246 196.9855,117.5896 L196.9815,119.7256 L192.5275,120.3516 C192.2795,120.3866 192.0785,120.6306 192.0785,120.8896 L188.5215,121.3896 C188.5215,121.1306 188.3225,120.9426 188.0735,120.9776 L183.6285,121.6026 C183.3805,121.6366 183.1795,121.8806 183.1795,122.1406 L179.6225,122.6406 C179.6225,122.3806 179.4225,122.1926 179.1745,122.2276 L174.7285,122.8526 C174.4795,122.8876 174.2795,123.1316 174.2785,123.3916 L170.7225,123.8916 C170.7235,123.6316 170.5225,123.4436 170.2745,123.4786 L165.8285,124.1036 C165.5805,124.1386 165.3805,124.3826 165.3795,124.6426 L161.8225,125.1416 C161.8235,124.8826 161.6235,124.6946 161.3755,124.7296 L156.9295,125.3536 C156.6815,125.3896 156.4805,125.6336 156.4795,125.8926 L152.9235,126.3926 C152.9245,126.1336 152.7245,125.9456 152.4765,125.9796 L148.0215,126.6056 C147.7815,126.6396 147.5805,126.8846 147.5805,127.1436 L147.4825,123.4316 C147.7245,123.3976 147.9245,123.1536 147.9245,122.8946 L147.9345,118.0876 C147.9345,117.8196 147.7335,117.6316 147.4935,117.6656 L147.5015,113.8266 C147.7415,113.7926 147.9415,113.5486 147.9425,113.2806 L147.9515,108.4816 C147.9515,108.2136 147.7525,108.0256 147.5125,108.0596 L147.5185,104.2206 C147.7595,104.1866 147.9595,103.9426 147.9605,103.6746 L147.9695,98.8756 C147.9705,98.6076 147.7695,98.4196 147.5295,98.4536 L147.5365,94.6156 C147.7765,94.5816 147.9775,94.3366 147.9775,94.0686 L147.9865,89.2706 C147.9875,89.0026 147.7875,88.8146 147.5475,88.8486 L147.5545,85.0096 C147.7955,84.9756 147.9955,84.7316 147.9955,84.4636 L148.0055,79.6656 C148.0055,79.3966 147.8065,79.2086 147.5645,79.2426 L147.5725,75.4036 C147.8125,75.3706 148.0135,75.1256 148.0145,74.8576 L148.0225,70.0506 C148.0225,69.7916 147.8235,69.6036 147.5835,69.6376 L147.5905,65.7896 C147.8305,65.7556 148.0305,65.5196 148.0315,65.2526 L148.0385,61.7856 L148.3825,61.7366 C148.6315,61.7026 148.8315,61.4576 148.8325,61.1896 L152.3895,60.6896 C152.3885,60.9576 152.5885,61.1456 152.8365,61.1106 L157.2905,60.4846 C157.5305,60.4516 157.7305,60.2076 157.7315,59.9386 L161.2965,59.4376 C161.2955,59.7066 161.4875,59.8946 161.7355,59.8596 L166.1895,59.2346 C166.4305,59.2006 166.6315,58.9566 166.6315,58.6876 L170.1955,58.1866 C170.1955,58.4556 170.3875,58.6446 170.6355,58.6096 L175.0895,57.9836 C175.3295,57.9496 175.5305,57.7056 175.5305,57.4376 L179.0955,56.9366 C179.0955,57.2046 179.2955,57.3926 179.5345,57.3586 L183.9885,56.7326 C184.2375,56.6976 184.4305,56.4546 184.4305,56.1866 L187.9955,55.6856 C187.9945,55.9536 188.1945,56.1416 188.4355,56.1076 L192.8885,55.4816 C193.1375,55.4466 193.3375,55.2026 193.3385,54.9346 L196.7245,54.4586 C196.6805,54.5406 196.6535,54.6326 196.6535,54.7276 L196.6445,59.5356 C196.6435,59.7946 196.8445,59.9826 197.0925,59.9476 L197.0855,63.7946 Z" id="Fill-164" fill="#FFFFFF"></path>
                        <path d="M520.4174,286.3487 C520.6574,286.3147 520.8564,286.4947 520.8564,286.7627 L520.8484,291.5697 C520.8474,291.8287 520.6464,292.0737 520.4064,292.1067 C520.1584,292.1417 519.9584,291.9537 519.9584,291.6947 L519.9674,286.8877 C519.9684,286.6197 520.1684,286.3837 520.4174,286.3487" id="Fill-166" fill="#B1D8FF"></path>
                        <path d="M520.3636,315.1656 C520.6036,315.1316 520.8036,315.3196 520.8026,315.5796 L520.7946,320.3866 C520.7936,320.6546 520.5926,320.8986 520.3526,320.9326 C520.1046,320.9676 519.9046,320.7796 519.9046,320.5116 L519.9146,315.7046 C519.9146,315.4446 520.1156,315.2006 520.3636,315.1656" id="Fill-168" fill="#B1D8FF"></path>
                        <path d="M515.015,297.5498 L515.036,285.7738 L473.422,291.6228 L473.401,303.3978 L515.015,297.5498 L515.015,297.5498 Z M514.988,312.0308 L515.01,300.2558 L473.396,306.1048 L473.373,317.8798 L514.988,312.0308 L514.988,312.0308 Z M514.934,340.9948 L514.955,329.2198 L473.342,335.0678 L473.32,346.8438 L514.934,340.9948 L514.934,340.9948 Z M514.961,326.5128 L514.983,314.7378 L473.369,320.5858 L473.347,332.3618 L514.961,326.5128 L514.961,326.5128 Z M520.417,286.3488 C520.168,286.3838 519.968,286.6198 519.967,286.8868 L519.958,291.6948 C519.958,291.9538 520.159,292.1418 520.407,292.1068 L520.4,295.9548 C520.151,295.9888 519.951,296.2338 519.95,296.4928 L519.941,301.2998 C519.941,301.5598 520.14,301.7478 520.389,301.7128 L520.381,305.5598 C520.133,305.5948 519.932,305.8398 519.932,306.0988 L519.923,310.9058 C519.922,311.1738 520.122,311.3528 520.37,311.3188 L520.364,315.1658 C520.116,315.2008 519.914,315.4448 519.914,315.7038 L519.905,320.5108 C519.905,320.7788 520.105,320.9668 520.353,320.9328 L520.346,324.7708 C520.097,324.8058 519.897,325.0498 519.896,325.3188 L519.887,330.1168 C519.887,330.3848 520.086,330.5728 520.335,330.5378 L520.327,334.3768 C520.079,334.4118 519.879,334.6558 519.878,334.9238 L519.869,339.7228 C519.869,339.9898 520.069,340.1778 520.318,340.1438 L520.31,343.9828 C520.062,344.0168 519.861,344.2618 519.861,344.5288 L519.857,346.5878 L515.852,347.1498 C515.611,347.1838 515.411,347.4278 515.411,347.6958 L511.845,348.1968 C511.846,347.9288 511.646,347.7408 511.406,347.7748 L506.952,348.4008 C506.704,348.4358 506.511,348.6788 506.51,348.9468 L502.946,349.4478 C502.947,349.1798 502.746,348.9918 502.506,349.0258 L498.052,349.6518 C497.804,349.6868 497.603,349.9308 497.603,350.1988 L494.046,350.6988 C494.046,350.4308 493.847,350.2428 493.599,350.2778 L489.153,350.9028 C488.905,350.9378 488.704,351.1818 488.704,351.4498 L485.147,351.9488 C485.147,351.6818 484.948,351.4938 484.699,351.5288 L480.253,352.1538 C480.005,352.1878 479.804,352.4328 479.804,352.6998 L476.247,353.1998 C476.247,352.9318 476.048,352.7438 475.799,352.7788 L471.354,353.4038 C471.105,353.4388 470.905,353.6828 470.904,353.9508 L467.924,354.3698 L467.925,353.7478 C468.165,353.7138 468.367,353.4688 468.367,353.2008 L468.375,348.4028 C468.376,348.1348 468.176,347.9468 467.936,347.9808 L467.944,344.1418 C468.184,344.1078 468.384,343.8638 468.384,343.5958 L468.394,338.7978 C468.394,338.5288 468.195,338.3418 467.954,338.3748 L467.961,334.5358 C468.202,334.5028 468.402,334.2578 468.403,333.9898 L468.412,329.1918 C468.412,328.9238 468.212,328.7358 467.972,328.7698 L467.979,324.9308 C468.219,324.8968 468.42,324.6528 468.42,324.3848 L468.429,319.5778 C468.43,319.3188 468.23,319.1298 467.99,319.1638 L467.996,315.3168 C468.237,315.2828 468.438,315.0468 468.438,314.7788 L468.447,309.9718 C468.448,309.7128 468.247,309.5248 468.007,309.5578 L468.015,305.7108 C468.255,305.6768 468.455,305.4328 468.456,305.1738 L468.465,300.3658 C468.465,300.1068 468.266,299.9188 468.026,299.9528 L468.033,296.1058 C468.273,296.0718 468.473,295.8268 468.474,295.5678 L468.483,290.7608 C468.483,290.4928 468.284,290.3138 468.043,290.3468 L468.05,286.4998 C468.29,286.4658 468.492,286.2218 468.492,285.9628 L468.494,285.1668 L471.321,284.7698 C471.57,284.7348 471.77,284.4898 471.771,284.2218 L475.327,283.7218 C475.327,283.9898 475.527,284.1778 475.775,284.1438 L480.22,283.5188 C480.469,283.4838 480.669,283.2398 480.67,282.9718 L484.227,282.4718 C484.226,282.7398 484.426,282.9278 484.674,282.8928 L489.12,282.2678 C489.369,282.2328 489.569,281.9888 489.57,281.7208 L493.126,281.2208 C493.125,281.4888 493.326,281.6768 493.574,281.6418 L498.028,281.0158 C498.268,280.9828 498.469,280.7378 498.469,280.4698 L502.034,279.9688 C502.034,280.2368 502.225,280.4258 502.474,280.3908 L506.927,279.7648 C507.167,279.7318 507.369,279.4878 507.369,279.2188 L510.933,278.7178 C510.933,278.9868 511.124,279.1748 511.373,279.1408 L515.827,278.5148 C516.067,278.4808 516.268,278.2368 516.268,277.9678 L519.833,277.4668 C519.832,277.6128 519.892,277.7348 519.985,277.8108 L519.977,282.0888 C519.976,282.3478 520.176,282.5358 520.424,282.5018 L520.417,286.3488 Z" id="Fill-170" fill="#FFFFFF"></path>
                        <path d="M520.2748,276.9302 L520.8758,276.8462 L520.8658,281.9642 C520.8658,282.2232 520.6648,282.4682 520.4238,282.5012 C520.1758,282.5362 519.9758,282.3482 519.9768,282.0892 L519.9848,277.8102 C519.8918,277.7352 519.8328,277.6132 519.8338,277.4672 C519.8338,277.2082 520.0338,276.9642 520.2748,276.9302" id="Fill-172" fill="#B1D8FF"></path>
                        <path d="M520.3998,295.9546 C520.6398,295.9206 520.8388,296.1086 520.8388,296.3686 L520.8308,301.1756 C520.8298,301.4346 520.6288,301.6786 520.3888,301.7126 C520.1398,301.7476 519.9408,301.5596 519.9408,301.3006 L519.9498,296.4936 C519.9508,296.2336 520.1508,295.9896 520.3998,295.9546" id="Fill-174" fill="#B1D8FF"></path>
                        <path d="M520.3812,305.5601 C520.6212,305.5261 520.8212,305.7141 520.8202,305.9741 L520.8122,310.7811 C520.8122,311.0491 520.6102,311.2841 520.3702,311.3181 C520.1222,311.3531 519.9222,311.1741 519.9232,310.9061 L519.9322,306.0991 C519.9322,305.8391 520.1332,305.5951 520.3812,305.5601" id="Fill-176" fill="#B1D8FF"></path>
                        <path d="M520.3461,324.771 C520.5861,324.737 520.7851,324.925 520.7851,325.193 L520.7771,329.992 C520.7761,330.26 520.5751,330.504 520.3351,330.538 C520.0861,330.573 519.8871,330.385 519.8871,330.117 L519.8961,325.318 C519.8971,325.05 520.0971,324.806 520.3461,324.771" id="Fill-178" fill="#B1D8FF"></path>
                        <path d="M520.3275,334.377 C520.5685,334.343 520.7675,334.531 520.7675,334.799 L520.7585,339.598 C520.7585,339.866 520.5575,340.11 520.3175,340.144 C520.0685,340.178 519.8685,339.99 519.8695,339.723 L519.8785,334.924 C519.8795,334.656 520.0795,334.412 520.3275,334.377" id="Fill-180" fill="#B1D8FF"></path>
                        <path d="M520.3099,343.9825 C520.5499,343.9485 520.7499,344.1365 520.7489,344.4045 L520.7449,347.4305 L515.8499,348.1185 C515.6099,348.1525 515.4099,347.9645 515.4109,347.6965 C515.4109,347.4285 515.6109,347.1845 515.8519,347.1505 L519.8569,346.5875 L519.8609,344.5295 C519.8609,344.2615 520.0619,344.0175 520.3099,343.9825" id="Fill-182" fill="#B1D8FF"></path>
                        <path d="M511.4056,347.7749 C511.6456,347.7409 511.8456,347.9289 511.8446,348.1969 C511.8446,348.4649 511.6436,348.7099 511.4036,348.7429 L506.9506,349.3689 C506.7016,349.4039 506.5106,349.2149 506.5106,348.9469 C506.5106,348.6789 506.7036,348.4359 506.9516,348.4009 L511.4056,347.7749 Z" id="Fill-184" fill="#B1D8FF"></path>
                        <path d="M502.5063,349.0259 C502.7463,348.9919 502.9463,349.1799 502.9453,349.4479 C502.9453,349.7159 502.7443,349.9609 502.5043,349.9939 L498.0503,350.6199 C497.8023,350.6549 497.6023,350.4669 497.6033,350.1989 C497.6033,349.9309 497.8043,349.6869 498.0523,349.6519 L502.5063,349.0259 Z" id="Fill-186" fill="#B1D8FF"></path>
                        <path d="M493.599,350.2779 C493.847,350.2429 494.046,350.4309 494.046,350.6989 C494.045,350.9669 493.845,351.2109 493.597,351.2459 L489.151,351.8709 C488.903,351.9059 488.703,351.7179 488.703,351.4499 C488.703,351.1819 488.905,350.9379 489.153,350.9029 L493.599,350.2779 Z" id="Fill-188" fill="#B1D8FF"></path>
                        <path d="M484.6986,351.5284 C484.9476,351.4934 485.1466,351.6814 485.1466,351.9494 C485.1456,352.2174 484.9456,352.4624 484.6976,352.4964 L480.2516,353.1214 C480.0036,353.1564 479.8026,352.9684 479.8036,352.7004 C479.8036,352.4324 480.0056,352.1884 480.2536,352.1534 L484.6986,351.5284 Z" id="Fill-190" fill="#B1D8FF"></path>
                        <path d="M475.7992,352.7793 C476.0482,352.7443 476.2472,352.9323 476.2472,353.2003 C476.2462,353.4683 476.0462,353.7123 475.7972,353.7473 L471.3522,354.3723 C471.1042,354.4073 470.9032,354.2193 470.9032,353.9513 C470.9042,353.6833 471.1052,353.4393 471.3542,353.4043 L475.7992,352.7793 Z" id="Fill-192" fill="#B1D8FF"></path>
                        <path d="M471.7709,284.2222 C471.7699,284.4902 471.5699,284.7342 471.3209,284.7692 L468.4939,285.1672 L468.4919,285.9622 C468.4919,286.2222 468.2909,286.4662 468.0499,286.4992 C467.8019,286.5352 467.6019,286.3472 467.6029,286.0872 L467.6059,284.3322 L471.3229,283.8092 C471.5709,283.7752 471.7709,283.9632 471.7709,284.2222" id="Fill-194" fill="#B1D8FF"></path>
                        <path d="M468.0434,290.3472 C468.2834,290.3132 468.4834,290.4932 468.4824,290.7612 L468.4744,295.5682 C468.4734,295.8272 468.2724,296.0722 468.0324,296.1052 C467.7844,296.1402 467.5844,295.9522 467.5854,295.6932 L467.5944,290.8862 C467.5944,290.6182 467.7954,290.3822 468.0434,290.3472" id="Fill-196" fill="#B1D8FF"></path>
                        <path d="M468.0258,299.9527 C468.2658,299.9187 468.4648,300.1067 468.4648,300.3667 L468.4568,305.1737 C468.4558,305.4327 468.2548,305.6777 468.0148,305.7107 C467.7658,305.7457 467.5668,305.5577 467.5668,305.2987 L467.5758,300.4917 C467.5768,300.2317 467.7768,299.9877 468.0258,299.9527" id="Fill-198" fill="#B1D8FF"></path>
                        <path d="M468.0072,309.5581 C468.2472,309.5241 468.4472,309.7121 468.4462,309.9721 L468.4382,314.7791 C468.4382,315.0471 468.2362,315.2831 467.9962,315.3161 C467.7482,315.3511 467.5482,315.1721 467.5492,314.9041 L467.5582,310.0971 C467.5592,309.8371 467.7592,309.5931 468.0072,309.5581" id="Fill-200" fill="#B1D8FF"></path>
                        <path d="M467.9897,319.1641 C468.2297,319.1301 468.4297,319.3181 468.4287,319.5781 L468.4207,324.3851 C468.4207,324.6531 468.2187,324.8971 467.9787,324.9311 C467.7307,324.9661 467.5307,324.7771 467.5317,324.5101 L467.5407,319.7031 C467.5407,319.4431 467.7417,319.1991 467.9897,319.1641" id="Fill-202" fill="#B1D8FF"></path>
                        <path d="M467.9721,328.7696 C468.2121,328.7356 468.4111,328.9236 468.4111,329.1916 L468.4031,333.9906 C468.4021,334.2586 468.2011,334.5026 467.9611,334.5366 C467.7131,334.5716 467.5131,334.3836 467.5131,334.1156 L467.5231,329.3166 C467.5231,329.0486 467.7231,328.8046 467.9721,328.7696" id="Fill-204" fill="#B1D8FF"></path>
                        <path d="M467.9545,338.375 C468.1945,338.341 468.3935,338.529 468.3935,338.797 L468.3855,343.596 C468.3845,343.864 468.1835,344.108 467.9435,344.142 C467.6945,344.177 467.4955,343.989 467.4955,343.721 L467.5045,338.922 C467.5055,338.654 467.7055,338.41 467.9545,338.375" id="Fill-206" fill="#B1D8FF"></path>
                        <path d="M467.9359,347.9805 C468.1759,347.9465 468.3759,348.1345 468.3749,348.4025 L468.3669,353.2015 C468.3669,353.4695 468.1649,353.7135 467.9249,353.7475 C467.6769,353.7825 467.4769,353.5945 467.4779,353.3265 L467.4869,348.5275 C467.4879,348.2595 467.6879,348.0155 467.9359,347.9805" id="Fill-208" fill="#B1D8FF"></path>
                        <path d="M475.7748,284.1436 C475.5268,284.1786 475.3268,283.9906 475.3268,283.7226 C475.3278,283.4626 475.5278,283.2186 475.7768,283.1846 L480.2218,282.5596 C480.4708,282.5236 480.6708,282.7116 480.6708,282.9716 C480.6698,283.2396 480.4688,283.4836 480.2198,283.5186 L475.7748,284.1436 Z" id="Fill-210" fill="#B1D8FF"></path>
                        <path d="M484.6742,282.8926 C484.4262,282.9276 484.2262,282.7396 484.2272,282.4716 C484.2272,282.2126 484.4282,281.9676 484.6762,281.9336 L489.1212,281.3086 C489.3702,281.2736 489.5702,281.4616 489.5702,281.7206 C489.5692,281.9886 489.3682,282.2326 489.1202,282.2676 L484.6742,282.8926 Z" id="Fill-212" fill="#B1D8FF"></path>
                        <path d="M493.5736,281.6421 C493.3256,281.6771 493.1256,281.4891 493.1266,281.2211 C493.1266,280.9611 493.3276,280.7171 493.5756,280.6821 L498.0296,280.0571 C498.2696,280.0221 498.4696,280.2101 498.4696,280.4701 C498.4696,280.7381 498.2676,280.9821 498.0276,281.0161 L493.5736,281.6421 Z" id="Fill-214" fill="#B1D8FF"></path>
                        <path d="M502.474,280.3911 C502.225,280.4261 502.034,280.2371 502.034,279.9691 C502.035,279.7091 502.227,279.4661 502.475,279.4321 L506.929,278.8061 C507.169,278.7721 507.37,278.9601 507.369,279.2191 C507.369,279.4871 507.167,279.7311 506.927,279.7651 L502.474,280.3911 Z" id="Fill-216" fill="#B1D8FF"></path>
                        <path d="M511.3734,279.1407 C511.1244,279.1757 510.9334,278.9867 510.9334,278.7187 C510.9344,278.4587 511.1264,278.2157 511.3744,278.1807 L515.8284,277.5547 C516.0684,277.5207 516.2694,277.7087 516.2684,277.9687 C516.2684,278.2367 516.0664,278.4807 515.8264,278.5147 L511.3734,279.1407 Z" id="Fill-218" fill="#B1D8FF"></path>
                        <g id="Group-224" transform="translate(473.000000, 285.133000)">
                            <polygon id="Fill-220" fill="#84D9F3" points="42.0101 15.1229 41.9881 26.8979 0.3731 32.7469 0.3961 20.9719"></polygon>
                            <polygon id="Fill-222" fill="#1C00FF" points="42.0365 0.641 42.0155 12.417 0.4005 18.265 0.4225 6.49"></polygon>
                        </g>
                        <polygon id="Fill-225" fill="#D7E9F2" points="514.9828 314.7378 514.9618 326.5128 473.3468 332.3618 473.3688 320.5858"></polygon>
                        <polygon id="Fill-227" fill="#EBF8FF" points="514.9554 329.2198 514.9344 340.9948 473.3194 346.8438 473.3424 335.0678"></polygon>
                        <path d="M155.7309,394.5362 L197.6269,418.3832 C198.8789,419.0962 198.8849,420.9002 197.6369,421.6212 L175.9269,433.5402 C174.3659,434.3982 172.4709,434.3832 170.9229,433.5022 L140.9829,416.4622" id="Fill-229" fill="#D5EDF7"></path>
                        <path d="M203.3363,329.0982 C205.0853,324.6692 206.6003,315.4102 207.9983,316.7762 C209.3983,318.1422 204.6183,329.1112 210.0973,322.8692 C215.5743,316.6272 218.2553,314.4772 219.8873,316.7762 C221.5193,319.0742 220.5863,322.8042 217.5563,325.7182 C214.5253,328.6322 207.0663,335.5092 207.0663,335.5092" id="Fill-231" fill="#FEC553"></path>
                        <path d="M160.3031,318.0611 C165.0001,318.8421 173.7181,322.3081 173.2671,320.4061 C172.8161,318.5031 160.9511,316.9551 169.1221,315.4711 C177.2941,313.9871 180.5171,312.7941 179.3861,310.2121 C178.2551,307.6301 174.5771,306.5101 170.5191,307.6091 C166.4611,308.7071 156.7261,311.5641 156.7261,311.5641" id="Fill-233" fill="#FEC553"></path>
                        <path d="M78.2201,406.3775 C91.0421,377.0475 85.5921,346.3445 66.0471,337.7995 C46.5021,329.2545 20.2631,346.1055 7.4411,375.4345 C-5.3819,404.7645 0.0691,435.4675 19.6141,444.0125 C39.1581,452.5575 65.3981,435.7075 78.2201,406.3775" id="Fill-235" fill="#EBF8FF"></path>
                        <path d="M78.2201,406.3775 C91.0421,377.0475 85.5921,346.3445 66.0471,337.7995 C46.5021,329.2545 20.2631,346.1055 7.4411,375.4345 C-5.3819,404.7645 0.0691,435.4675 19.6141,444.0125 C39.1581,452.5575 65.3981,435.7075 78.2201,406.3775 Z" id="Stroke-237" stroke="#FFFFFF" stroke-width="5"></path>
                        <path d="M170.0004,415.5303 C185.5154,407.0223 192.0214,407.5233 194.7734,410.2763 C197.5254,413.0283 189.0184,422.0363 178.0084,426.2903 C166.9974,430.5443 162.5834,425.9493 161.7344,422.5473 C160.7024,418.4123 170.0004,415.5303 170.0004,415.5303" id="Fill-239" fill="#061D82"></path>
                        <path d="M108.724,302.876 C106.617,302.797 105.762,303.571 105.59,304.944 L105.584,304.941 C103.654,317.275 108.752,321.001 94.389,316.716 C88.361,314.918 86.649,312.437 86.683,310.161 C88.527,308.625 90.136,306.062 90.535,301.779 C91.585,290.495 86.384,284.693 86.97,282.138 C87.555,279.583 84.279,265.385 92.53,264.587 C100.781,263.79 124.246,265.327 126.626,280.087 C128.477,291.571 116.724,303.173 108.724,302.876" id="Fill-241" fill="#FEC553"></path>
                        <path d="M52.9789,323.2002 C52.9789,323.2002 65.2319,293.7962 87.5689,304.4252 C114.7299,317.3502 115.3909,313.5742 109.4579,351.4592" id="Fill-243" fill="#4489F7"></path>
                        <path d="M101.7973,376.96 C148.8143,353.379 169.1873,336.349 173.3913,372.488 C177.3333,406.369 176.5723,411.555 176.5213,417.46 C176.5003,419.819 175.5443,422.035 173.2593,422.622 L168.1573,423.496 C166.0343,423.856 164.0243,422.419 163.6763,420.294 L161.7463,392.336 C161.7463,392.336 99.2583,415.202 87.8653,393.185" id="Fill-245" fill="#1C00FF"></path>
                        <path d="M76.433,363.1587 C123.45,339.5787 149.158,320.9917 151.207,357.3177 C153.258,393.6417 158.798,417.8077 158.798,417.8077 L144.584,421.4607 L131.135,380.4217 C131.135,380.4217 73.894,401.4017 62.501,379.3837" id="Fill-247" fill="#1C00FF"></path>
                        <path d="M105.7934,313.378 C129.0124,326.24 141.7974,378.09 203.3364,329.098 L209.1974,333.54 C209.1974,333.54 173.8704,374.814 130.8824,361.538 C100.6114,352.19 96.8564,333.895 96.8564,333.895" id="Fill-249" fill="#4489F7"></path>
                        <path d="M90.8656,332.0137 C113.8386,331.9547 150.2446,321.4747 160.3036,318.0607 L158.5836,311.0207 C158.5836,311.0207 114.9716,321.5527 102.6086,316.2227" id="Fill-251" fill="#4489F7"></path>
                        <path d="M40.1723,382.8257 L40.1723,296.5007 C40.1723,294.3467 42.5353,293.0277 44.3683,294.1587 L107.6013,333.1487 C109.5103,334.3257 110.6723,336.4087 110.6723,338.6507 L110.6723,433.4417 L48.2393,396.8957 C43.2433,393.9717 40.1723,388.6157 40.1723,382.8257" id="Fill-253" fill="#D5EDF7"></path>
                        <polyline id="Stroke-255" stroke="#FFFFFF" stroke-width="6" stroke-linecap="round" stroke-linejoin="round" points="46.8734 318.9727 46.8734 304.2677 31.3164 316.7037"></polyline>
                        <polyline id="Stroke-257" stroke="#FFFFFF" stroke-width="6" stroke-linecap="round" stroke-linejoin="round" points="101.4428 352.9844 101.4428 338.2794 85.8858 350.7154"></polyline>
                        <path d="M162.1967,447.9092 C175.0187,418.5792 169.5687,387.8762 150.0237,379.3312 C130.4787,370.7862 104.2397,387.6362 91.4177,416.9662 C78.5947,446.2962 84.0457,476.9992 103.5907,485.5442 C123.1347,494.0882 149.3747,477.2392 162.1967,447.9092" id="Fill-259" fill="#EBF8FF"></path>
                        <path d="M162.1967,447.9092 C175.0187,418.5792 169.5687,387.8762 150.0237,379.3312 C130.4787,370.7862 104.2397,387.6362 91.4177,416.9662 C78.5947,446.2962 84.0457,476.9992 103.5907,485.5442 C123.1347,494.0882 149.3747,477.2392 162.1967,447.9092 Z" id="Stroke-261" stroke="#FFFFFF" stroke-width="5"></path>
                        <path d="M113.4516,254.6368 C100.3886,263.9478 96.8566,255.7708 85.6946,264.0208 C81.7786,266.9148 78.9466,284.8988 87.5266,293.9938 C96.1066,303.0888 112.6786,299.0458 114.6386,295.9978 C116.5976,292.9498 108.8556,271.1738 125.5846,271.4648 C139.0136,271.6988 158.1926,269.6108 157.1586,257.2818 C156.1236,244.9518 125.5846,245.9898 113.4516,254.6368" id="Fill-263" fill="#061D82"></path>
                        <path d="M116.9359,287.3003 C116.9359,284.8233 115.3759,282.8153 113.4519,282.8153 C111.5279,282.8153 109.9669,284.8233 109.9669,287.3003 C109.9669,289.7773 111.5279,291.7853 113.4519,291.7853 C115.3759,291.7853 116.9359,289.7773 116.9359,287.3003" id="Fill-265" fill="#FEC553"></path>
                        <polygon id="Fill-267" fill="#1C00FF" points="214.7602 68.3013 214.7392 79.8263 174.0022 85.5513 174.0242 74.0263"></polygon>
                        <polygon id="Fill-269" fill="#FEC553" points="546.4388 318.5865 546.4148 331.6125 500.3728 338.0835 500.3958 325.0575"></polygon>
                        <path d="M421.6811,29.1202 C421.9511,29.1412 422.1681,29.3732 422.1671,29.6322 L422.1591,34.4392 C422.1581,34.7072 421.9401,34.9072 421.6701,34.8872 C421.4101,34.8672 421.1931,34.6342 421.1941,34.3662 L421.2021,29.5592 C421.2021,29.4642 421.2321,29.3772 421.2831,29.3062 C421.3691,29.1832 421.5161,29.1072 421.6811,29.1202" id="Fill-271" fill="#B1D8FF"></path>
                        <path d="M421.6635,38.7256 C421.9335,38.7466 422.1495,38.9786 422.1495,39.2466 L422.1415,44.0446 C422.1405,44.3126 421.9225,44.5126 421.6525,44.4926 C421.3925,44.4726 421.1755,44.2396 421.1755,43.9716 L421.1845,39.1736 C421.1845,38.9056 421.4025,38.7056 421.6635,38.7256" id="Fill-273" fill="#B1D8FF"></path>
                        <path d="M421.6459,48.3311 C421.9159,48.3521 422.1319,48.5841 422.1309,48.8521 L422.1229,53.6511 C422.1229,53.9191 421.9049,54.1181 421.6349,54.0981 C421.3749,54.0781 421.1569,53.8461 421.1579,53.5781 L421.1669,48.7791 C421.1669,48.5111 421.3849,48.3111 421.6459,48.3311" id="Fill-275" fill="#B1D8FF"></path>
                        <path d="M421.6283,57.9366 C421.8973,57.9576 422.1143,58.1896 422.1133,58.4576 L422.1123,59.0456 L421.1483,58.9726 L421.1493,58.3846 C421.1493,58.1166 421.3663,57.9166 421.6283,57.9366" id="Fill-277" fill="#B1D8FF"></path>
                        <path d="M421.5922,77.148 C421.8622,77.169 422.0782,77.401 422.0782,77.669 L422.0692,82.476 C422.0692,82.735 421.8512,82.935 421.5812,82.915 C421.3212,82.895 421.1042,82.662 421.1042,82.403 L421.1132,77.596 C421.1132,77.328 421.3312,77.128 421.5922,77.148" id="Fill-279" fill="#B1D8FF"></path>
                        <path d="M382.9174,91.7237 C383.1874,91.7447 383.3964,91.9757 383.3954,92.2447 C383.3954,92.5127 383.1854,92.7037 382.9154,92.6827 L378.0814,92.3167 C377.8204,92.2967 377.6034,92.0727 377.6044,91.8047 C377.6044,91.5367 377.8224,91.3367 378.0834,91.3567 L382.9174,91.7237 Z" id="Fill-281" fill="#B1D8FF"></path>
                        <path d="M373.2572,90.9908 C373.5182,91.0108 373.7352,91.2428 373.7352,91.5118 C373.7342,91.7788 373.5162,91.9698 373.2552,91.9498 L368.4212,91.5838 C368.1512,91.5628 367.9432,91.3398 367.9442,91.0718 C367.9442,90.8038 368.1532,90.6028 368.4222,90.6238 L373.2572,90.9908 Z" id="Fill-283" fill="#B1D8FF"></path>
                        <path d="M367.8549,77.7227 C367.5849,77.7017 367.3689,77.4777 367.3699,77.2097 L367.3779,72.4027 C367.3779,72.1437 367.5959,71.9437 367.8659,71.9647 C368.1259,71.9837 368.3439,72.2167 368.3429,72.4757 L368.3339,77.2837 C368.3339,77.5517 368.1159,77.7427 367.8549,77.7227" id="Fill-285" fill="#B1D8FF"></path>
                        <path d="M367.8734,68.1167 C367.6024,68.0957 367.3864,67.8637 367.3874,67.6047 L367.3954,62.7977 C367.3964,62.5377 367.6134,62.3387 367.8834,62.3587 C368.1444,62.3787 368.3614,62.6117 368.3604,62.8707 L368.3524,67.6777 C368.3524,67.9367 368.1344,68.1367 367.8734,68.1167" id="Fill-287" fill="#B1D8FF"></path>
                        <path d="M367.891,58.5113 C367.621,58.4903 367.405,58.2583 367.405,57.9993 L367.413,53.1923 C367.414,52.9243 367.632,52.7333 367.902,52.7533 C368.162,52.7733 368.379,52.9973 368.379,53.2653 L368.37,58.0723 C368.37,58.3313 368.152,58.5313 367.891,58.5113" id="Fill-289" fill="#B1D8FF"></path>
                        <path d="M367.9086,48.9058 C367.6386,48.8848 367.4226,48.6528 367.4226,48.3928 L367.4316,43.5858 C367.4316,43.3178 367.6496,43.1188 367.9196,43.1388 C368.1796,43.1588 368.3966,43.3908 368.3966,43.6588 L368.3876,48.4668 C368.3876,48.7258 368.1696,48.9258 367.9086,48.9058" id="Fill-291" fill="#B1D8FF"></path>
                        <path d="M367.9262,39.3003 C367.6562,39.2793 367.4402,39.0473 367.4412,38.7793 L367.4492,33.9803 C367.4492,33.7123 367.6672,33.5123 367.9372,33.5333 C368.1972,33.5533 368.4152,33.7853 368.4142,34.0533 L368.4052,38.8523 C368.4052,39.1203 368.1872,39.3203 367.9262,39.3003" id="Fill-293" fill="#B1D8FF"></path>
                        <path d="M367.9447,29.6944 C367.6747,29.6744 367.4577,29.4414 367.4587,29.1734 L367.4657,24.7464 L367.9537,24.7834 L368.8057,24.8484 C369.0747,24.8684 369.2927,25.1014 369.2917,25.3614 C369.2917,25.6294 369.0737,25.8284 368.8037,25.8084 L368.4297,25.7794 L368.4237,29.2464 C368.4237,29.5144 368.2057,29.7144 367.9447,29.6944" id="Fill-295" fill="#B1D8FF"></path>
                        <path d="M373.6381,26.1748 C373.3681,26.1538 373.1521,25.9218 373.1531,25.6538 C373.1531,25.3948 373.3701,25.1948 373.6401,25.2158 L378.4661,25.5818 C378.7361,25.6018 378.9521,25.8348 378.9521,26.0938 C378.9511,26.3618 378.7341,26.5618 378.4641,26.5408 L373.6381,26.1748 Z" id="Fill-297" fill="#B1D8FF"></path>
                        <path d="M383.2992,26.9077 C383.0292,26.8877 382.8132,26.6547 382.8132,26.3867 C382.8142,26.1277 383.0302,25.9277 383.3012,25.9487 L388.1262,26.3147 C388.3962,26.3347 388.6122,26.5677 388.6122,26.8267 C388.6112,27.0947 388.3942,27.2947 388.1242,27.2737 L383.2992,26.9077 Z" id="Fill-299" fill="#B1D8FF"></path>
                        <path d="M392.9594,27.6411 C392.6894,27.6201 392.4734,27.3881 392.4734,27.1201 C392.4744,26.8601 392.6914,26.6611 392.9614,26.6811 L397.7954,27.0481 C398.0574,27.0681 398.2734,27.3011 398.2724,27.5601 C398.2724,27.8281 398.0554,28.0281 397.7944,28.0081 L392.9594,27.6411 Z" id="Fill-301" fill="#B1D8FF"></path>
                        <path d="M402.6195,28.3741 C402.3495,28.3531 402.1415,28.1221 402.1425,27.8531 C402.1425,27.5941 402.3515,27.3941 402.6215,27.4141 L407.4565,27.7811 C407.7175,27.8011 407.9335,28.0341 407.9335,28.2931 C407.9325,28.5611 407.7155,28.7611 407.4545,28.7411 L402.6195,28.3741 Z" id="Fill-303" fill="#B1D8FF"></path>
                        <path d="M412.2807,29.107 C412.0107,29.086 411.8017,28.855 411.8027,28.586 C411.8027,28.327 412.0127,28.127 412.2827,28.148 L417.1167,28.514 C417.3777,28.534 417.5947,28.767 417.5937,29.026 C417.5937,29.294 417.3767,29.494 417.1147,29.474 L412.2807,29.107 Z" id="Fill-305" fill="#B1D8FF"></path>
                        <polygon id="Fill-307" fill="#1C00FF" points="416.1459 36.128 416.1249 47.264 373.4309 44.024 373.4529 32.888"></polygon>
                        <polygon id="Fill-309" fill="#D7E9F2" points="416.1205 49.8228 416.1035 58.5898 391.7305 56.7398 391.7265 59.1008 373.4055 57.7108 373.4265 46.5838"></polygon>
                        <g id="Group-319" transform="translate(367.000000, 25.133000)">
                            <polygon id="Fill-311" fill="#EBF8FF" points="24.7221 36.5267 24.7111 42.5967 49.0841 44.4457 49.0751 49.5037 6.3801 46.2637 6.4011 35.1367"></polygon>
                            <path d="M54.1215,47.6556 L54.1275,44.8286 L55.0925,44.9016 L55.0875,47.7286 C55.0865,47.9966 54.8685,48.1966 54.5995,48.1766 C54.3385,48.1556 54.1215,47.9236 54.1215,47.6556" id="Fill-313" fill="#B1D8FF"></path>
                            <polygon id="Fill-315" fill="#84D9F3" points="66.8773 34.8055 66.8563 45.7945 55.0923 44.9015 54.1273 44.8285 49.0843 44.4455 24.7113 42.5965 24.7223 36.5265 24.7273 33.9675 24.7313 31.6075 49.1043 33.4565 54.1483 33.8395 55.1123 33.9125"></polygon>
                            <path d="M49.0697,52.0628 L6.3757,48.8228 L6.3547,59.9508 L49.0487,63.1898 L49.0697,52.0628 L49.0697,52.0628 Z M49.1257,22.1308 L49.1457,10.9948 L6.4527,7.7548 L6.4307,18.8908 L49.1257,22.1308 L49.1257,22.1308 Z M54.6637,13.5928 C54.4027,13.5728 54.1847,13.7718 54.1837,14.0408 L54.1747,18.8388 C54.1747,19.1068 54.3917,19.3398 54.6527,19.3588 L54.6457,23.1978 C54.3847,23.1788 54.1677,23.3778 54.1667,23.6458 L54.1577,28.4448 C54.1567,28.7128 54.3747,28.9448 54.6347,28.9648 L54.6287,32.8038 C54.3667,32.7838 54.1487,32.9838 54.1487,33.2518 L54.1477,33.8398 L49.1037,33.4568 L49.1207,24.6898 L6.4257,21.4508 L6.4057,32.5778 L24.7267,33.9678 L24.7217,36.5268 L6.4007,35.1368 L6.3807,46.2638 L49.0747,49.5038 L49.0837,44.4458 L54.1277,44.8288 L54.1217,47.6558 C54.1217,47.9238 54.3387,48.1558 54.5987,48.1758 L54.5917,52.0148 C54.3317,51.9948 54.1137,52.1948 54.1127,52.4628 L54.1037,57.2698 C54.1037,57.5288 54.3207,57.7618 54.5817,57.7818 L54.5747,61.6288 C54.3137,61.6088 54.0957,61.7998 54.0947,62.0678 L54.0867,66.8758 C54.0857,67.1348 54.3027,67.3678 54.5637,67.3868 L54.5597,69.5228 L49.7337,69.1568 C49.4647,69.1358 49.2467,69.3358 49.2457,69.6038 L45.3847,69.3108 C45.3847,69.0428 45.1687,68.8108 44.8987,68.7898 L40.0737,68.4238 C39.8027,68.4028 39.5867,68.6028 39.5857,68.8708 L35.7247,68.5778 C35.7247,68.3098 35.5077,68.0768 35.2387,68.0568 L30.4127,67.6898 C30.1427,67.6698 29.9247,67.8698 29.9247,68.1378 L26.0637,67.8448 C26.0647,67.5768 25.8477,67.3438 25.5787,67.3238 L20.7437,66.9568 C20.4827,66.9368 20.2647,67.1368 20.2637,67.4048 L16.3947,67.1108 C16.3957,66.8428 16.1867,66.6108 15.9177,66.5908 L11.0837,66.2238 C10.8227,66.2038 10.6037,66.4038 10.6037,66.6718 L6.7347,66.3778 C6.7347,66.1098 6.5177,65.8768 6.2567,65.8578 L1.4227,65.4908 C1.1527,65.4698 0.9437,65.6708 0.9437,65.9388 L0.8377,62.2038 C1.0977,62.2238 1.3157,62.0238 1.3167,61.7558 L1.3257,56.9488 C1.3257,56.6888 1.1087,56.4568 0.8477,56.4368 L0.8547,52.5898 C1.1157,52.6088 1.3337,52.4178 1.3347,52.1498 L1.3427,47.3428 C1.3437,47.0838 1.1267,46.8508 0.8657,46.8318 L0.8737,42.9838 C1.1337,43.0038 1.3517,42.8038 1.3517,42.5448 L1.3607,37.7378 C1.3617,37.4788 1.1447,37.2458 0.8827,37.2258 L0.8907,33.3778 C1.1517,33.3978 1.3697,33.1988 1.3707,32.9388 L1.3797,28.1318 C1.3797,27.8638 1.1627,27.6398 0.9017,27.6198 L0.9087,23.7728 C1.1697,23.7918 1.3867,23.5928 1.3877,23.3338 L1.3967,18.5258 C1.3967,18.2578 1.1797,18.0258 0.9197,18.0058 L0.9257,14.1668 C1.1867,14.1868 1.4057,13.9868 1.4057,13.7188 L1.4147,8.9208 C1.4157,8.6528 1.1977,8.4198 0.9367,8.3998 L0.9447,4.5618 C1.2057,4.5818 1.4237,4.3818 1.4237,4.1138 L1.4297,0.6468 L1.8037,0.6748 C2.0737,0.6958 2.2917,0.4958 2.2917,0.2278 L6.1527,0.5208 C6.1517,0.7888 6.3687,1.0208 6.6377,1.0418 L11.4647,1.4078 C11.7337,1.4288 11.9517,1.2288 11.9527,0.9608 L15.8127,1.2538 C15.8127,1.5218 16.0297,1.7548 16.2987,1.7748 L21.1247,2.1408 C21.3937,2.1618 21.6117,1.9618 21.6127,1.6938 L25.4727,1.9868 C25.4727,2.2548 25.6897,2.4878 25.9597,2.5078 L30.7947,2.8748 C31.0547,2.8948 31.2727,2.6948 31.2727,2.4268 L35.1427,2.7208 C35.1417,2.9888 35.3497,3.2208 35.6197,3.2408 L40.4547,3.6078 C40.7157,3.6278 40.9327,3.4278 40.9337,3.1598 L44.8027,3.4538 C44.8017,3.7218 45.0107,3.9538 45.2807,3.9738 L50.1147,4.3408 C50.3767,4.3608 50.5937,4.1608 50.5937,3.8928 L54.2827,4.1728 C54.2317,4.2438 54.2027,4.3308 54.2027,4.4258 L54.1937,9.2328 C54.1927,9.5008 54.4097,9.7338 54.6707,9.7538 L54.6637,13.5928 Z" id="Fill-317" fill="#FFFFFF"></path>
                        </g>
                        <path d="M421.5746,86.7622 C421.8446,86.7832 422.0606,87.0062 422.0596,87.2742 L422.0516,92.0812 C422.0516,92.3412 421.8336,92.5402 421.5636,92.5202 C421.3036,92.5002 421.0856,92.2672 421.0866,92.0082 L421.0956,87.2012 C421.0956,86.9332 421.3136,86.7422 421.5746,86.7622" id="Fill-320" fill="#B1D8FF"></path>
                        <path d="M421.56,94.6558 C421.83,94.6768 422.046,94.9088 422.045,95.1768 C422.045,95.4448 421.828,95.6358 421.558,95.6148 L416.732,95.2488 C416.462,95.2288 416.246,95.0048 416.246,94.7368 C416.247,94.4688 416.464,94.2688 416.734,94.2898 L421.56,94.6558 Z" id="Fill-322" fill="#B1D8FF"></path>
                        <path d="M411.8988,93.9229 C412.1688,93.9439 412.3848,94.1759 412.3848,94.4439 C412.3838,94.7119 412.1678,94.9029 411.8978,94.8819 L407.0718,94.5159 C406.8018,94.4959 406.5858,94.2719 406.5858,94.0039 C406.5868,93.7359 406.8028,93.5359 407.0738,93.5569 L411.8988,93.9229 Z" id="Fill-324" fill="#B1D8FF"></path>
                        <path d="M402.2387,93.1895 C402.5087,93.2105 402.7247,93.4425 402.7247,93.7105 C402.7237,93.9795 402.5067,94.1695 402.2367,94.1495 L397.4107,93.7835 C397.1407,93.7625 396.9247,93.5385 396.9257,93.2705 C396.9257,93.0025 397.1427,92.8035 397.4127,92.8235 L402.2387,93.1895 Z" id="Fill-326" fill="#B1D8FF"></path>
                        <path d="M392.5785,92.4566 C392.8485,92.4776 393.0645,92.7096 393.0635,92.9776 C393.0635,93.2456 392.8465,93.4366 392.5765,93.4166 L387.7415,93.0496 C387.4805,93.0296 387.2645,92.8056 387.2645,92.5376 C387.2655,92.2696 387.4825,92.0696 387.7435,92.0896 L392.5785,92.4566 Z" id="Fill-328" fill="#B1D8FF"></path>
                        <path d="M368.3168,86.8887 C368.3158,87.1567 368.0978,87.3567 367.8378,87.3367 C367.5678,87.3167 367.3508,87.0837 367.3508,86.8157 L367.3608,82.0087 C367.3608,81.7487 367.5788,81.5497 367.8478,81.5697 C368.1088,81.5897 368.3258,81.8227 368.3258,82.0817 L368.3168,86.8887 Z" id="Fill-330" fill="#B1D8FF"></path>
                        <polygon id="Fill-332" fill="#EBF8FF" points="416.0697 77.1958 416.0487 88.3228 373.3547 85.0838 373.3757 73.9558"></polygon>
                        <path d="M252.5902,340.6934 C272.8692,355.2704 277.6992,398.0754 302.5842,387.5924 C327.4682,377.1104 344.7502,335.5084 344.7502,335.5084" id="Stroke-334" stroke="#B1D8FF" stroke-linecap="round" stroke-dasharray="5,5"></path>
                        <polygon id="Fill-336" fill="#EBF8FF" points="273.2104 271.2769 259.8514 313.3779 251.8604 310.4379 247.1414 308.6979 210.6614 295.2579 205.9614 293.5279 200.3604 291.4679 210.2834 250.7299"></polygon>
                        <path d="M215.3305,276.188 L218.6905,265.718 L255.5305,277.998 L252.1805,288.468 L215.3305,276.188 Z M248.0505,301.338 L211.2005,289.068 L214.5605,278.598 L251.4105,290.868 L248.0505,301.338 Z M216.1105,257.348 L205.9615,293.528 L210.6615,295.258 L210.4305,291.468 L243.1775,307.237 L247.1415,308.698 L251.8605,310.438 L262.4805,272.798 L216.1105,257.348 Z" id="Fill-338" fill="#FFFFFF"></path>
                        <polygon id="Fill-340" fill="#FEC553" points="247.2807 303.7481 246.0137 308.2831 209.3967 294.7921 210.5967 290.9311"></polygon>
                        <polygon id="Fill-342" fill="#84D9F3" points="251.4057 290.8711 248.0487 301.3401 211.3947 288.4681 214.5607 278.5971"></polygon>
                        <polygon id="Fill-344" fill="#1C00FF" points="255.5356 277.9952 252.1786 288.4642 215.3326 276.1892 218.6896 265.7212"></polygon>
                    </g>
                </g>
                <path d="M848,135 C781.855433,165.807873 710.974976,196.5883 606.896635,335.129416 C502.818293,473.670533 130.149024,446.983895 38,301.298238" id="Path-9" stroke="#B1D8FF" stroke-dasharray="5,5"></path>
                <g id="Group-18" transform="translate(478.000000, 289.000000)">
                    <g id="Group-15" transform="translate(36.000000, 74.362000)">
                        <mask id="mask-8" fill="white">
                            <use xlink:href="#path-7"></use>
                        </mask>
                        <g id="Clip-14"></g>
                        <path d="M0.6449,13.3597 C36.5059,42.2767 62.0439,45.6197 102.3909,18.0887 L42.7129,0.0667" id="Fill-13" fill="#D5EDF7" mask="url(#mask-8)"></path>
                    </g>
                    <path d="M0.7797,48.5811 C0.7797,48.5811 33.0477,35.0901 68.4077,0.7381 C68.4077,0.7381 137.6037,85.3131 165.6977,68.3851 C165.6977,68.3851 113.1427,126.0721 88.3687,99.3021 C88.3687,99.3021 55.6177,123.0841 0.7797,48.5811" id="Fill-16" fill="#FFFFFF"></path>
                    <path d="M0.7797,48.5811 C0.7797,48.5811 33.0477,35.0901 68.4077,0.7381 C68.4077,0.7381 137.6037,85.3131 165.6977,68.3851 C165.6977,68.3851 113.1427,126.0721 88.3687,99.3021 C88.3687,99.3021 55.6177,123.0841 0.7797,48.5811 Z" id="Stroke-18" stroke="#B1D8FF" stroke-linecap="round" stroke-dasharray="5,5"></path>
                    <path d="M69.1869,18.1553 C69.1869,18.1553 33.5429,46.5603 17.9469,54.2513 L31.7039,70.5023 C31.7039,70.5023 71.7069,42.8953 82.0109,32.6153 L69.1869,18.1553 Z" id="Fill-20" fill="#D7E9F2"></path>
                    <path d="M85.8354,36.8208 C85.8354,36.8208 51.5664,66.8698 36.3484,75.2858 L52.5644,89.4528 C52.5644,89.4528 89.5154,61.4148 99.3244,50.6618 L85.8354,36.8208 Z" id="Fill-22" fill="#EBF8FF"></path>
                    <path d="M109.5678,57.7696 C109.5678,57.7696 76.9248,86.4276 61.7078,94.8426 C61.7078,94.8426 65.3778,99.2566 71.7438,100.0976 C82.0628,101.4606 88.7798,96.7166 88.7798,96.7166 L91.3278,99.0186 C91.3278,99.0186 116.0658,80.0246 125.8768,69.2726 L109.5678,57.7696 Z" id="Fill-24" fill="#EBF8FF"></path>
                </g>
                <g id="Group-27" transform="translate(231.000000, 281.000000)">
                    <path d="M98.7152,54.0015 C80.9972,84.7695 63.5762,94.2835 26.9152,85.7365 L64.7812,56.1645" id="Fill-1" fill="#D5EDF7"></path>
                    <path d="M113.5873,15.8858 C113.5873,15.8858 86.6423,15.1778 51.6643,0.3408 C51.6643,0.3408 25.4933,80.3888 0.5903,76.0478 C0.5903,76.0478 54.4233,102.8658 64.7713,76.7288 C64.7713,76.7288 94.9303,84.6978 113.5873,15.8858" id="Fill-3" fill="#FFFFFF"></path>
                    <path d="M113.5873,15.8858 C113.5873,15.8858 86.6423,15.1778 51.6643,0.3408 C51.6643,0.3408 25.4933,80.3888 0.5903,76.0478 C0.5903,76.0478 54.4233,102.8658 64.7713,76.7288 C64.7713,76.7288 94.9303,84.6978 113.5873,15.8858 Z" id="Stroke-5" stroke="#B1D8FF" stroke-linecap="round" stroke-dasharray="5,5"></path>
                    <path d="M55.9545,13.0733 C55.9545,13.0733 89.4795,23.5583 102.8305,24.7413 L97.4705,40.2513 C97.4705,40.2513 61.0345,31.5533 50.7675,27.0363 L55.9545,13.0733 Z" id="Fill-7" fill="#D7E9F2"></path>
                    <path d="M49.1898,31.1231 C49.1898,31.1231 82.1848,43.1731 95.4638,44.9821 L87.7558,59.6791 C87.7558,59.6791 53.3948,49.8211 43.3508,44.8271 L49.1898,31.1231 Z" id="Fill-9" fill="#EBF8FF"></path>
                    <path d="M37.9701,52.7867 C37.9701,52.7867 69.4081,64.2897 82.6881,66.0987 C82.6881,66.0987 81.2801,70.2927 76.9391,72.6707 C69.9041,76.5237 63.7541,74.9847 63.7541,74.9847 L62.5661,77.3487 C62.5661,77.3487 39.4971,70.5897 29.4531,65.5947 L37.9701,52.7867 Z" id="Fill-11" fill="#EBF8FF"></path>
                </g>
                <g id="Group-14" transform="translate(773.249511, 220.884878) rotate(-21.000000) translate(-773.249511, -220.884878) translate(748.749511, 204.884878)">
                    <path d="M49,5.49864765 C49,8.53872633 46.5387263,11 43.5013523,11 C40.4639784,11 38,8.53872633 38,5.49864765 C38,2.46127367 40.4639784,0 43.5013523,0 C46.5387263,0 49,2.46127367 49,5.49864765 Z" id="Stroke-3" stroke="#FF4E89"></path>
                    <path d="M6,29 C6,30.6571195 4.65711948,32 3,32 C1.34533552,32 0,30.6571195 0,29 C0,27.3428805 1.34533552,26 3,26 C4.65711948,26 6,27.3428805 6,29" id="Fill-11" fill="#0098FF"></path>
                </g>
                <g id="Group-15" transform="translate(411.500000, 338.500000) scale(-1, 1) translate(-411.500000, -338.500000) translate(394.000000, 317.000000)">
                    <path d="M28,29 L28,43" id="Stroke-5" stroke="#46C4DB"></path>
                    <path d="M35,36 L21,36" id="Stroke-7" stroke="#46C4DB"></path>
                    <path d="M5,2.5 C5,3.8809329 3.8809329,5 2.5,5 C1.1190671,5 0,3.8809329 0,2.5 C0,1.1190671 1.1190671,0 2.5,0 C3.8809329,0 5,1.1190671 5,2.5" id="Fill-9" fill="#045BFF"></path>
                </g>
                <g id="Group-13" transform="translate(75.000000, 313.000000)">
                    <path d="M62,19 L62,31" id="Stroke-13" stroke="#0098FF"></path>
                    <path d="M68,25 L56,25" id="Stroke-15" stroke="#0098FF"></path>
                    <path d="M10,77 C10,79.7592593 7.76190476,82 5,82 C2.23809524,82 0,79.7592593 0,77 C0,74.2380952 2.23809524,72 5,72 C7.76190476,72 10,74.2380952 10,77 Z" id="Stroke-17" stroke="#FF4E89"></path>
                    <path d="M56,2 C56,3.1047619 55.1047619,4 54,4 C52.8952381,4 52,3.1047619 52,2 C52,0.895238095 52.8952381,0 54,0 C55.1047619,0 56,0.895238095 56,2" id="Fill-19" fill="#045BFF"></path>
                </g>
                <g id="Group-32" transform="translate(636.000000, 402.000000)">
                    <path d="M10,10 L10,20" id="Stroke-12" stroke="#FF4E89"></path>
                    <path d="M15,15 L5,15" id="Stroke-13" stroke="#FF4E89"></path>
                    <path d="M3,1.5 C3,2.32698413 2.32857143,3 1.5,3 C0.671428571,3 -9.09494702e-13,2.32698413 -9.09494702e-13,1.5 C-9.09494702e-13,0.671428571 0.671428571,-2.27373675e-13 1.5,-2.27373675e-13 C2.32857143,-2.27373675e-13 3,0.671428571 3,1.5" id="Fill-17" fill="#045BFF"></path>
                </g>
                <g id="Group-29" transform="translate(1363.000000, 100.000000)">
                    <path d="M5,0 L5,10" id="Stroke-14" stroke="#46C4DB"></path>
                    <path d="M10,5 L0,5" id="Stroke-15" stroke="#46C4DB"></path>
                    <path d="M20,26 C20,27.1047463 19.1047463,28 18,28 C16.8952537,28 16,27.1047463 16,26 C16,24.8952537 16.8952537,24 18,24 C19.1047463,24 20,24.8952537 20,26" id="Fill-16" fill="#FF4E89"></path>
                </g>
            </g>
        </g>
    </g>
</svg>