<svg viewBox="0 0 76 76"><g fill="none" fill-rule="evenodd"><circle cx="38" cy="38" r="38" fill="#F2F5FE"/><path fill="#B7C8DB" d="M57.76 34.222V44.82a1.259 1.259 0 11-2.515 0v-9.567l-4.3 1.765-12.473 5.12a1.179 1.179 0 01-.475.096c-.161 0-.323-.029-.475-.095l-12.472-5.12-8.122-3.334c-1.035-.428-1.035-1.9 0-2.328l20.595-8.464a1.26 1.26 0 01.95 0l20.596 8.464c1.036.428 1.036 1.9 0 2.328l-1.308.537zm-18.566 9.675l13.89-5.7c.009.029.009.057.009.086v8.312c0 .513-.303.979-.778 1.169l-13.843 5.68a1.18 1.18 0 01-.95 0l-13.841-5.68a1.251 1.251 0 01-.778-1.169v-8.312c0-.029 0-.057.008-.086l13.89 5.7c.38.162.778.238 1.196.238.42 0 .818-.076 1.197-.238z"/></g></svg>