<svg viewBox="0 0 16 16"><g fill="none" fill-rule="evenodd"><path fill="#FF4E89" d="M6.47 14.592a1.446 1.446 0 01-2.049-.848 3.308 3.308 0 00-2.165-2.165 1.446 1.446 0 01-.848-2.048c.5-.96.5-2.103 0-3.062a1.446 1.446 0 01.848-2.048 3.308 3.308 0 002.165-2.165 1.446 1.446 0 012.048-.848c.96.5 2.103.5 3.062 0a1.446 1.446 0 012.048.848 3.308 3.308 0 002.165 2.165 1.446 1.446 0 01.848 2.048c-.5.96-.5 2.103 0 3.062a1.446 1.446 0 01-.848 2.048 3.308 3.308 0 00-2.165 2.165 1.446 1.446 0 01-2.048.848c-.96-.5-2.103-.5-3.062 0z"/><path stroke="#FFF" stroke-width="1.632" d="M11.595 6.013l-4.351 4.352-2.32-2.32"/></g></svg>