<svg viewBox="0 0 180 180"><g fill="none" fill-rule="evenodd" transform="translate(11 11)"><path stroke="#1DD16E" stroke-linecap="round" stroke-width="2" d="M55 79.85L72.778 103 111 53"/><path stroke="#4887F7" d="M161 116a4 4 0 11-8.001-.001A4 4 0 01161 116z"/><path fill="#1DD16E" d="M21 137a2 2 0 11-4 0 2 2 0 014 0"/><path fill="#045BFF" d="M21 3a2 2 0 11-4 0 2 2 0 014 0"/><circle cx="79" cy="79" r="63.5" stroke="#EBF9F1" stroke-width="15"/><path stroke="#1DD16E" stroke-linecap="round" stroke-width="2" d="M34.276 45.298c-18.612 24.7-13.678 59.813 11.022 78.426 24.7 18.612 59.813 13.678 78.426-11.022 18.612-24.7 13.678-59.813-11.022-78.426-19.856-14.962-46.44-14.708-65.773-1.201"/></g></svg>