<svg viewBox="0 0 180 180"><g fill="none" fill-rule="evenodd" transform="translate(11 11)"><circle cx="79" cy="79" r="63.5" stroke="#FAE9E6" stroke-width="15"/><path stroke="#FF4E89" d="M161 116a4 4 0 11-8.001-.001A4 4 0 01161 116z"/><path fill="#FF4A22" d="M21 137a2 2 0 11-4 0 2 2 0 014 0"/><path fill="#FF4E89" d="M21 3a2 2 0 11-4 0 2 2 0 014 0"/><path stroke="#FF4A22" stroke-linecap="round" stroke-width="2" d="M34.276 45.298c-18.612 24.7-13.678 59.813 11.022 78.426 24.7 18.612 59.813 13.678 78.426-11.022 18.612-24.7 13.678-59.813-11.022-78.426-19.856-14.962-46.44-14.708-65.773-1.201"/><g stroke="#FF4A22" stroke-width="2"><path stroke-linecap="round" d="M52.666 50.373l56.173 56.173"/><path stroke-linejoin="round" d="M108.195 49.491l-55.95 55.952 55.95-55.952z"/></g></g></svg>