<svg xmlns="http://www.w3.org/2000/svg" xmlns:xlink="http://www.w3.org/1999/xlink" width="378" height="245" viewBox="0 0 378 245">
  <defs>
    <polygon id="no-idea-result-a" points="0 1.05 66.64 1.05 66.64 15.974 0 15.974"/>
    <polygon id="no-idea-result-c" points=".73 .44 42.75 .44 42.75 74.632 .73 74.632"/>
  </defs>
  <g fill="none" fill-rule="evenodd" transform="translate(5 5)">
    <rect width="322" height="161" y="74" fill="#EBEFF3" rx="3.9"/>
    <rect width="323.3" height="162.3" x="12.35" y="59.35" fill="#FFF" stroke="#C5D1E6" stroke-width="1.3" rx="3.9"/>
    <circle cx="300" cy="100" r="21" fill="#F2F5FE"/>
    <rect width="224" height="18" x="36" y="88" fill="#F2F5FE" rx="9"/>
    <rect width="130" height="18" x="36" y="116" fill="#F2F5FE" rx="9"/>
    <rect width="231" height="7" x="36" y="153" fill="#F2F5FE" rx="3.5"/>
    <rect width="231" height="7" x="36" y="170" fill="#F2F5FE" rx="3.5"/>
    <g fill="#045BFF" transform="rotate(45 2.762 471.203)">
      <rect width="2.595" height="46.703" x="23.071" y=".518"/>
      <polygon points="23.071 .518 25.666 .518 25.666 47.221 23.071 47.221" transform="rotate(90 24.369 23.87)"/>
    </g>
    <g transform="translate(208)">
      <path fill="#0147AB" d="M67.7400208,36.1398291 C85.3763264,31.6327863 78.6486458,0.250461538 67.7400208,0.00505982906 C56.8313958,-0.241606838 61.7327569,8.89138462 38.4481319,4.11490598 C13.4130208,-1.02208547 24.7652708,39.5893675 37.4622986,26.1416068 C37.4622986,26.1416068 40.9392569,22.0469402 44.8560486,22.4251624"/>
      <g transform="translate(0 9.687)">
        <path fill="#5D9FFF" d="M85.6695486,48.8859179 L49.6689375,48.8859179 L31.7975486,48.0636957 L22.1414375,47.8853368 L10.9686597,47.6842085 L4.88935417,48.3192171 C11.3478264,45.7893026 9.15750694,41.8755248 15.3543542,39.946465 C42.8641597,31.3763795 64.1126597,31.9772342 69.0696319,32.604653 C99.0869931,36.4109094 63.3619097,34.5539521 85.6695486,48.8859179"/>
        <path fill="#EDE5D3" d="M71.7371958,27.5645573 C69.9513208,39.1060274 65.0790292,42.9021641 55.2257514,42.4176855 C44.5041819,41.8901983 41.2180708,32.6876342 40.4900708,18.9944718 C39.8619181,7.15573675 51.0321681,1.92513846 62.0911958,4.64353162 C73.1502236,7.36192479 73.5306542,15.969959 71.7371958,27.5645573"/>
        <path fill="#0147AB" d="M41.1242903,13.5733709 C49.0678319,10.9435248 54.8893042,14.3462598 62.3715264,10.1339521 C69.8512208,5.92164444 59.3242903,30.000106 69.5390403,23.1212684 L73.5657903,18.9051658 L69.1750403,0.665747009 L40.0714708,4.97166154"/>
        <path fill="#EDE5D3" d="M75.0617292,21.9463761 C74.8822569,19.7440855 73.2986042,18.0756068 71.5253681,18.2210769 C69.7521319,18.366547 68.4604375,20.2690427 68.6399097,22.4700684 C68.8193819,24.672359 70.4017708,26.3408376 72.1762708,26.1953675 C73.9495069,26.0498974 75.2412014,24.1474017 75.0617292,21.9463761"/>
        <path fill="#5D9FFF" d="M78.1837875,48.8908513 C80.2477181,48.8908513 81.5621625,50.5112615 81.8604403,56.8664068 C82.1599819,63.2190222 90.8277319,47.1325607 90.8277319,47.1325607 L82.1068986,43.4135863"/>
        <path fill="#E2D9C7" d="M29.5369569,46.3597983 L18.3641792,46.1574051 L7.05237361,42.9229094 C13.5108458,40.3929949 16.0891792,39.6049265 22.3580681,37.9225333 C25.0248736,38.9850974 27.5020958,40.8445846 29.5369569,46.3597983"/>
        <g transform="translate(0 39.214)">
          <mask id="no-idea-result-b" fill="#fff">
            <use xlink:href="#no-idea-result-a"/>
          </mask>
          <path fill="#EDE5D3" d="M56.7852639,1.04978803 C11.5317222,2.8978906 5.86065278,-0.924810256 0.216125,11.2175145 C-2.93222222,17.9913607 28.7067083,18.5820957 66.6398056,6.01601026" mask="url(#no-idea-result-b)"/>
        </g>
        <path fill="#EDE5D3" d="M52.3530583,41.4617573 C66.6590167,41.4617573 73.4145028,42.1966974 75.1321278,48.8908513 L49.0290306,48.8908513"/>
        <path fill="#5D9FFF" d="M87.8374972,66.1963521 C89.8710944,58.7166598 90.8278583,52.1641812 90.8278583,47.166335 C90.8278583,35.7994291 82.3029278,34.6445231 73.4557056,33.1872923 C73.4557056,33.1872923 74.9154972,41.1033949 75.0949694,43.7762496 C75.2567472,46.1935829 74.8839,46.0291385 75.1328861,48.8904718 C75.7762056,56.2942667 73.5125806,64.7416513 73.5125806,64.7416513 C78.0284556,64.186335 83.2243028,65.7903009 87.8374972,66.1963521"/>
        <g transform="translate(45.5 63.248)">
          <mask id="no-idea-result-d" fill="#fff">
            <use xlink:href="#no-idea-result-c"/>
          </mask>
          <path fill="#EDE5D3" d="M34.6017389,20.6924239 C39.6332806,12.0540308 40.6911556,9.34069744 42.7500306,1.38664615 C37.8196,0.641586325 33.0421,0.459432479 28.1723361,0.44045812 C27.5454472,4.29478291 25.7621,11.2343385 24.3440167,14.739535 C18.0283639,30.3491077 3.53661389,43.9372786 1.18578056,59.3368684 C0.247975,65.4693812 0.676433333,69.6905436 3.228225,73.229894 C5.78128056,76.7692444 11.3967389,72.8516718 11.577475,69.8385436 C11.6760583,68.1713299 11.4296,66.0841504 11.1515444,64.2980308 C11.1515444,64.2929709 11.1540722,64.2929709 11.1528083,64.2879111 C10.940475,62.7712274 10.7180306,59.8390564 10.9114056,58.4564581 C13.6300306,44.5115692 28.6576694,30.8968342 34.6017389,20.6924239" mask="url(#no-idea-result-d)"/>
        </g>
      </g>
    </g>
  </g>
</svg>
