<svg xmlns:xlink="http://www.w3.org/1999/xlink" viewBox="0 0 378 245"><defs><path id="a" d="M0 1.05h66.64v14.924H0z"/><path id="c" d="M.73.44h42.02v74.192H.73z"/></defs><g fill="none" fill-rule="evenodd" transform="translate(5 5)"><rect width="322" height="161" y="74" fill="#EBEFF3" rx="3.9"/><rect width="323.3" height="162.3" x="12.35" y="59.35" fill="#FFF" stroke="#C5D1E6" stroke-width="1.3" rx="3.9"/><circle cx="300" cy="100" r="21" fill="#F2F5FE"/><rect width="224" height="18" x="36" y="88" fill="#F2F5FE" rx="9"/><rect width="130" height="18" x="36" y="116" fill="#F2F5FE" rx="9"/><rect width="231" height="7" x="36" y="153" fill="#F2F5FE" rx="3.5"/><rect width="231" height="7" x="36" y="170" fill="#F2F5FE" rx="3.5"/><g fill="#045BFF"><path d="M349.947 152.74l1.835 1.834-33.024 33.024-1.835-1.835z"/><path d="M351.783 185.764l-1.835 1.835-33.024-33.024 1.835-1.835z"/></g><path fill="#0147AB" d="M275.74 36.14c17.636-4.507 10.909-35.89 0-36.135-10.909-.247-6.007 8.886-29.292 4.11-25.035-5.137-13.683 35.474-.986 22.027 0 0 3.477-4.095 7.394-3.717"/><path fill="#5D9FFF" d="M293.67 58.573h-36.001l-17.871-.822-9.657-.179-11.172-.2-6.08.634c6.459-2.53 4.269-6.443 10.465-8.373 27.51-8.57 48.759-7.969 53.716-7.341 30.017 3.806-5.708 1.949 16.6 16.28"/><path fill="#EDE5D3" d="M279.737 37.252c-1.786 11.541-6.658 15.337-16.511 14.853-10.722-.528-14.008-9.73-14.736-23.424-.628-11.838 10.542-17.069 21.601-14.35 11.06 2.718 11.44 11.326 9.646 22.92"/><path fill="#0147AB" d="M249.124 23.26c7.944-2.63 13.765.773 21.248-3.439 7.48-4.212-3.048 19.866 7.167 12.987l4.027-4.216-4.391-18.24-29.104 4.307"/><path fill="#EDE5D3" d="M283.062 31.633c-.18-2.202-1.763-3.87-3.537-3.725-1.773.146-3.065 2.048-2.885 4.25.18 2.201 1.762 3.87 3.536 3.724 1.774-.145 3.065-2.048 2.886-4.249"/><path fill="#5D9FFF" d="M286.184 58.578c2.064 0 3.378 1.62 3.676 7.975.3 6.353 8.968-9.733 8.968-9.733l-8.721-3.72"/><path fill="#E2D9C7" d="M237.537 56.047l-11.173-.203-11.312-3.234c6.459-2.53 9.037-3.318 15.306-5 2.667 1.062 5.144 2.922 7.179 8.437"/><g transform="translate(208 48.901)"><mask id="b" fill="#fff"><use xlink:href="#a"/></mask><path fill="#EDE5D3" d="M56.785 1.05C11.532 2.898 5.861-.925.216 11.218c-3.148 6.773 28.49 7.364 66.424-5.202" mask="url(#b)"/></g><path fill="#EDE5D3" d="M260.353 51.149c14.306 0 21.062.735 22.78 7.429h-26.104"/><path fill="#5D9FFF" d="M295.837 75.883c2.034-7.48 2.99-14.032 2.99-19.03 0-11.367-8.524-12.521-17.371-13.979 0 0 1.46 7.916 1.639 10.59.162 2.417-.211 2.252.038 5.113.643 7.404-1.62 15.852-1.62 15.852 4.515-.556 9.711 1.048 14.324 1.454"/><g transform="translate(253.5 72.935)"><mask id="d" fill="#fff"><use xlink:href="#c"/></mask><path fill="#EDE5D3" d="M34.602 20.692c5.031-8.638 6.09-11.351 8.148-19.305C37.82.642 33.042.459 28.172.44c-.627 3.855-2.41 10.794-3.828 14.3C18.028 30.35 3.537 43.937 1.186 59.337.248 65.469.676 69.69 3.228 73.23c2.553 3.54 8.169-.378 8.35-3.391.098-1.668-.148-3.755-.426-5.541 0-.005.002-.005 0-.01-.212-1.517-.434-4.449-.24-5.832 2.718-13.944 17.746-27.56 23.69-37.764" mask="url(#d)"/></g></g></svg>