<svg viewBox="0 0 62 81"><g fill="none" fill-rule="evenodd"><path fill="#FFF" stroke="#E5E5E5" d="M1 5v71a4 4 0 004 4h52a4 4 0 004-4V15.015L46.886 1H5a4 4 0 00-4 4z"/><path fill="#FFF" stroke="#E5E5E5" stroke-linejoin="round" d="M61 16H46V1"/><path fill="#9EAFC4" d="M17.619 41.99V47H15.93V34.203h4.72c1.4 0 2.497.358 3.291 1.072.794.715 1.191 1.662 1.191 2.84 0 1.241-.388 2.198-1.164 2.869-.777.67-1.888 1.006-3.336 1.006H17.62zm0-1.38h3.032c.902 0 1.594-.212 2.074-.637.48-.425.72-1.038.72-1.841 0-.762-.24-1.371-.72-1.828-.48-.457-1.14-.695-1.977-.712h-3.13v5.018zM27.287 47V34.203h3.612c1.113 0 2.098.246 2.953.738a4.993 4.993 0 011.982 2.101c.466.908.702 1.951.708 3.129v.817c0 1.207-.233 2.265-.7 3.173a4.915 4.915 0 01-1.994 2.092c-.865.486-1.87.735-3.02.747h-3.541zm1.687-11.408V45.62h1.776c1.3 0 2.312-.404 3.036-1.213.724-.808 1.086-1.96 1.086-3.454v-.747c0-1.453-.342-2.582-1.024-3.388-.683-.806-1.651-1.214-2.905-1.226h-1.969zm17.174 5.757h-5.37V47H39.09V34.203h7.928v1.389h-6.24v4.377h5.37v1.38z"/></g></svg>