<svg viewBox="0 0 216 216"><g fill="none" fill-rule="evenodd"><path fill="#045BFF" d="M54 104c0 7.732-6.268 14-14 14s-14-6.268-14-14 6.268-14 14-14 14 6.268 14 14"/><path stroke="#FF4E89" d="M23 173.5a3.5 3.5 0 11-7 0 3.5 3.5 0 017 0z"/><path stroke="#46C4DB" d="M172 36v8m4-4h-8"/><path fill="#045BFF" d="M169 26a2 2 0 11-4 0 2 2 0 014 0"/><path fill="#0098FF" d="M37 194a2 2 0 11-4 0 2 2 0 014 0"/><path stroke="#FF4E89" d="M193 158v10m5-5h-10"/><path stroke="#0098FF" d="M191 182.5a3.501 3.501 0 11-7.002-.002 3.501 3.501 0 017.002.002z"/><path fill="#045BFF" d="M187 152.5a1.5 1.5 0 11-3 0 1.5 1.5 0 013 0"/><path fill="#FF4E89" d="M129 13a2.001 2.001 0 01-4 0 2 2 0 014 0"/><path fill="#FFF" d="M19 77h133V30H19z"/><path stroke="#E5E5E5" d="M19.5 76.5h132v-46h-132v46z"/><path fill="#EBF0F4" d="M94.365 47H32.636C30.076 47 28 44.985 28 42.5s2.075-4.5 4.636-4.5h61.73C96.924 38 99 40.015 99 42.5S96.925 47 94.365 47M127 45.5c0 4.695 3.804 8.5 8.5 8.5a8.5 8.5 0 10-8.5-8.5M74.938 58H30.062C28.924 58 28 57.104 28 56s.924-2 2.062-2h44.876c1.14 0 2.062.896 2.062 2s-.922 2-2.062 2m60.982 9H30.08c-1.148 0-2.08-.896-2.08-2s.932-2 2.08-2h105.84c1.15 0 2.08.896 2.08 2s-.93 2-2.08 2"/><path fill="#FFF" d="M68 130h133V83H68z"/><path stroke="#045BFF" d="M68.5 129.5h132v-46h-132v46z"/><path fill="#EBF0F4" d="M142.365 100H80.636C78.076 100 76 97.985 76 95.5c0-2.487 2.075-4.5 4.636-4.5h61.73c2.559 0 4.634 2.013 4.634 4.5 0 2.485-2.075 4.5-4.635 4.5M176 97.5a8.5 8.5 0 1017 0 8.5 8.5 0 00-8.5-8.5 8.499 8.499 0 00-8.5 8.5M123.938 110H79.062c-1.138 0-2.062-.894-2.062-2 0-1.104.924-2 2.062-2h44.876c1.14 0 2.062.896 2.062 2 0 1.106-.922 2-2.062 2m60.982 9H79.08c-1.148 0-2.08-.896-2.08-2s.932-2 2.08-2h105.84c1.15 0 2.08.896 2.08 2s-.93 2-2.08 2"/><path fill="#FFF" d="M35 182h133v-47H35z"/><path stroke="#E5E5E5" d="M35.5 181.5h132v-46h-132v46z"/><path fill="#EBF0F4" d="M110.365 152H48.636c-2.56 0-4.636-2.015-4.636-4.5s2.075-4.5 4.636-4.5h61.73c2.559 0 4.634 2.015 4.634 4.5s-2.075 4.5-4.635 4.5M143 150.5c0 4.695 3.804 8.5 8.5 8.5a8.5 8.5 0 10-8.5-8.5M91.938 163H47.062c-1.138 0-2.062-.896-2.062-2s.924-2 2.062-2h44.876c1.14 0 2.062.896 2.062 2s-.922 2-2.062 2m60.982 9H47.08c-1.148 0-2.08-.896-2.08-2s.932-2 2.08-2h105.84c1.15 0 2.08.896 2.08 2s-.93 2-2.08 2"/><path stroke="#FFF" stroke-width="2" d="M34 103.4l4.735 4.6L48 99"/></g></svg>