<svg xmlns="http://www.w3.org/2000/svg" width="216" height="216" viewBox="0 0 216 216">
  <g fill="none" fill-rule="evenodd" transform="translate(16 11)">
    <path fill="#045BFF" d="M38,93 C38,100.732265 31.7322652,107 24,107 C16.2677348,107 10,100.732265 10,93 C10,85.2677348 16.2677348,79 24,79 C31.7322652,79 38,85.2677348 38,93"/>
    <path stroke="#FF4E89" d="M7,162.499139 C7,164.433735 5.43373494,166 3.50086059,166 C1.56798623,166 0,164.433735 0,162.499139 C0,160.566265 1.56798623,159 3.50086059,159 C5.43373494,159 7,160.566265 7,162.499139 Z"/>
    <path stroke="#46C4DB" d="M156 25L156 33M160 29L152 29"/>
    <path fill="#045BFF" d="M153,15 C153,16.1047463 152.104746,17 151,17 C149.895254,17 149,16.1047463 149,15 C149,13.8952537 149.895254,13 151,13 C152.104746,13 153,13.8952537 153,15"/>
    <path fill="#0098FF" d="M21,183 C21,184.104746 20.1047463,185 19,185 C17.8968903,185 17,184.104746 17,183 C17,181.895254 17.8968903,181 19,181 C20.1047463,181 21,181.895254 21,183"/>
    <path stroke="#FF4E89" d="M177 147L177 157M182 152L172 152"/>
    <path stroke="#0098FF" d="M175,171.5 C175,173.431481 173.433333,175 171.5,175 C169.566667,175 168,173.431481 168,171.5 C168,169.566667 169.566667,168 171.5,168 C173.433333,168 175,169.566667 175,171.5 Z"/>
    <path fill="#045BFF" d="M171,141.5 C171,142.328571 170.328571,143 169.5,143 C168.671429,143 168,142.328571 168,141.5 C168,140.671429 168.671429,140 169.5,140 C170.328571,140 171,140.671429 171,141.5"/>
    <path fill="#FF4E89" d="M113,2 C113,3.10328263 112.104525,4 110.999199,4 C109.895475,4 109,3.10328263 109,2 C109,0.896717374 109.895475,0 110.999199,0 C112.104525,0 113,0.896717374 113,2"/>
    <polygon fill="#FFF" points="3 66 136 66 136 19 3 19"/>
    <path stroke="#E5E5E5" d="M3.5,65.5 L135.5,65.5 L135.5,19.5 L3.5,19.5 L3.5,65.5 Z"/>
    <path fill="#EBF0F4" d="M78.3654544 36L16.6361758 36C14.075194 36 12 33.9854053 12 31.4992087 12 29.0145947 14.075194 27 16.6361758 27L78.3654544 27C80.924806 27 83 29.0145947 83 31.4992087 83 33.9854053 80.924806 36 78.3654544 36M111 34.5C111 39.1951898 114.804432 43 119.499155 43 124.193879 43 128 39.1951898 128 34.5 128 29.8064997 124.193879 26 119.499155 26 114.804432 26 111 29.8064997 111 34.5M58.9381827 47L14.0618173 47C12.9237071 47 12 46.1043376 12 45.0007816 12 43.8956624 12.9237071 43 14.0618173 43L58.9381827 43C60.077905 43 61 43.8956624 61 45.0007816 61 46.1043376 60.077905 47 58.9381827 47M119.920417 56L14.0795826 56C12.931666 56 12 55.1043376 12 54.0007816 12 52.8956624 12.931666 52 14.0795826 52L119.920417 52C121.06996 52 122 52.8956624 122 54.0007816 122 55.1043376 121.06996 56 119.920417 56"/>
    <polygon fill="#FFF" points="52 119 185 119 185 72 52 72"/>
    <path stroke="#045BFF" d="M52.5,118.5 L184.5,118.5 L184.5,72.5 L52.5,72.5 L52.5,118.5 Z"/>
    <path fill="#EBF0F4" d="M126.365454 89L64.6361758 89C62.075194 89 60 86.9854053 60 84.4992087 60 82.0130121 62.075194 80 64.6361758 80L126.365454 80C128.924806 80 131 82.0130121 131 84.4992087 131 86.9854053 128.924806 89 126.365454 89M160 86.5C160 91.1935003 163.804432 95 168.499155 95 173.193879 95 177 91.1935003 177 86.5 177 81.8048102 173.193879 78 168.499155 78 163.804432 78 160 81.8048102 160 86.5M107.938183 99L63.0618173 99C61.9237071 99 61 98.1055512 61 97 61 95.8960125 61.9237071 95 63.0618173 95L107.938183 95C109.077905 95 110 95.8960125 110 97 110 98.1055512 109.077905 99 107.938183 99M168.920417 108L63.0795826 108C61.931666 108 61 107.104338 61 106.000782 61 104.895662 61.931666 104 63.0795826 104L168.920417 104C170.06996 104 171 104.895662 171 106.000782 171 107.104338 170.06996 108 168.920417 108"/>
    <polygon fill="#FFF" points="19 171 152 171 152 124 19 124"/>
    <path stroke="#E5E5E5" d="M19.5,170.5 L151.5,170.5 L151.5,124.5 L19.5,124.5 L19.5,170.5 Z"/>
    <path fill="#EBF0F4" d="M94.3654544 141L32.6361758 141C30.075194 141 28 138.985405 28 136.499209 28 134.014595 30.075194 132 32.6361758 132L94.3654544 132C96.924806 132 99 134.014595 99 136.499209 99 138.985405 96.924806 141 94.3654544 141M127 139.5C127 144.19519 130.804432 148 135.499155 148 140.193879 148 144 144.19519 144 139.5 144 134.8065 140.193879 131 135.499155 131 130.804432 131 127 134.8065 127 139.5M75.9381827 152L31.0618173 152C29.9237071 152 29 151.104338 29 150.000782 29 148.895662 29.9237071 148 31.0618173 148L75.9381827 148C77.077905 148 78 148.895662 78 150.000782 78 151.104338 77.077905 152 75.9381827 152M136.920417 161L31.0795826 161C29.931666 161 29 160.104338 29 159.000782 29 157.895662 29.931666 157 31.0795826 157L136.920417 157C138.06996 157 139 157.895662 139 159.000782 139 160.104338 138.06996 161 136.920417 161"/>
    <polyline stroke="#FFF" stroke-width="2" points="18 92.4 22.735 97 32 88"/>
  </g>
</svg>
