<svg xmlns="http://www.w3.org/2000/svg" xmlns:xlink="http://www.w3.org/1999/xlink" width="484" height="533" version="1.1" viewBox="0 0 484 533"><title>Group 26</title><desc>Created with Sketch.</desc><defs><rect id="path-1" width="255" height="351" x="31" y="34"/><filter id="filter-2" width="206.7%" height="177.5%" x="-53.3%" y="-25.4%" filterUnits="objectBoundingBox"><feOffset dx="0" dy="47" in="SourceAlpha" result="shadowOffsetOuter1"/><feGaussianBlur in="shadowOffsetOuter1" result="shadowBlurOuter1" stdDeviation="37.5"/><feColorMatrix in="shadowBlurOuter1" type="matrix" values="0 0 0 0 0 0 0 0 0 0 0 0 0 0 0 0 0 0 0.09 0"/></filter><rect id="path-3" width="255" height="351" x="0" y="0"/><filter id="filter-4" width="206.7%" height="177.5%" x="-53.3%" y="-25.4%" filterUnits="objectBoundingBox"><feOffset dx="0" dy="47" in="SourceAlpha" result="shadowOffsetOuter1"/><feGaussianBlur in="shadowOffsetOuter1" result="shadowBlurOuter1" stdDeviation="37.5"/><feColorMatrix in="shadowBlurOuter1" type="matrix" values="0 0 0 0 0 0 0 0 0 0 0 0 0 0 0 0 0 0 0.09 0"/></filter><rect id="path-5" width="146" height="224" x="158" y="8"/><filter id="filter-6" width="286.3%" height="221.4%" x="-93.2%" y="-39.7%" filterUnits="objectBoundingBox"><feOffset dx="0" dy="47" in="SourceAlpha" result="shadowOffsetOuter1"/><feGaussianBlur in="shadowOffsetOuter1" result="shadowBlurOuter1" stdDeviation="37.5"/><feColorMatrix in="shadowBlurOuter1" type="matrix" values="0 0 0 0 0 0 0 0 0 0 0 0 0 0 0 0 0 0 0.09 0"/></filter></defs><g id="🎀-Site-pages" fill="none" fill-rule="evenodd" stroke="none" stroke-width="1"><g id="ADI---Comment-participer-2" transform="translate(-701.000000, -1787.000000)"><g id="Group-26" transform="translate(775.000000, 1814.000000)"><g id="Rectangle"><use fill="#000" fill-opacity="1" filter="url(#filter-2)" xlink:href="#path-1"/><use fill="#FAFBFC" fill-rule="evenodd" xlink:href="#path-1"/></g><g id="Rectangle"><use fill="#000" fill-opacity="1" filter="url(#filter-4)" xlink:href="#path-3"/><use fill="#FFF" fill-rule="evenodd" xlink:href="#path-3"/></g><rect id="Rectangle" width="192" height="12" x="32" y="34" fill="#EBEFF3"/><rect id="Rectangle" width="148" height="12" x="32" y="52" fill="#EBEFF3"/><g id="Group-6" transform="translate(32.000000, 101.000000)"><rect id="Rectangle" width="112.32" height="7.687" x="54.72" y="1.922" fill="#EBEFF3"/><g id="Group" fill="#EBEFF3" transform="translate(0.000000, 18.256241)"><rect id="Rectangle" width="192" height="3.843" x="0" y="0"/><rect id="Rectangle" width="192" height="3.843" x="0" y="7.687"/><rect id="Rectangle" width="192" height="3.843" x="0" y="15.374"/><rect id="Rectangle" width="157.44" height="3.843" x="0" y="23.061"/></g><text id="1.-Constat-:" fill="#0096FF" font-family="GillSans-Bold, Gill Sans" font-size="9.6" font-weight="bold" letter-spacing="-.48"><tspan x="0" y="9.005">1. Constat :</tspan></text></g><g id="Group-6" transform="translate(32.000000, 171.000000)"><rect id="Rectangle" width="112.32" height="7.687" x="59.72" y="1.922" fill="#EBEFF3"/><g id="Group" fill="#EBEFF3" transform="translate(0.000000, 18.256241)"><rect id="Rectangle" width="192" height="3.843" x="0" y="0"/><rect id="Rectangle" width="192" height="3.843" x="0" y="7.687"/><rect id="Rectangle" width="192" height="3.843" x="0" y="15.374"/><rect id="Rectangle" width="157.44" height="3.843" x="0" y="23.061"/></g><text id="2.-Solution-:" fill="#0096FF" font-family="GillSans-Bold, Gill Sans" font-size="9.6" font-weight="bold" letter-spacing="-.48"><tspan x="0" y="9">2. Solution :</tspan></text></g><g id="Group-6" transform="translate(32.000000, 240.000000)"><rect id="Rectangle" width="112.32" height="7.687" x="54.72" y="1.922" fill="#EBEFF3"/><g id="Group" fill="#EBEFF3" transform="translate(0.000000, 18.256241)"><rect id="Rectangle" width="192" height="3.843" x="0" y="0"/><rect id="Rectangle" width="192" height="3.843" x="0" y="7.687"/><rect id="Rectangle" width="192" height="3.843" x="0" y="15.374"/><rect id="Rectangle" width="157.44" height="3.843" x="0" y="23.061"/></g><text id="3.-Risques-:" fill="#0096FF" font-family="GillSans-Bold, Gill Sans" font-size="9.6" font-weight="bold" letter-spacing="-.48"><tspan x="0" y="9">3. Risques :</tspan></text></g><g id="Group-25" transform="translate(32.000000, 78.000000)"><g id="Rectangle"><use fill="#000" fill-opacity="1" filter="url(#filter-6)" xlink:href="#path-5"/><use fill="#FFF" fill-rule="evenodd" xlink:href="#path-5"/></g><g id="Group-23" fill="#EBEFF3" transform="translate(178.000000, 34.000000)"><rect id="Rectangle" width="105" height="16" x="0" y="9"/><rect id="Rectangle" width="87" height="3.843" x="0" y="0"/></g><g id="Group-23" fill="#EBEFF3" transform="translate(178.000000, 72.000000)"><rect id="Rectangle" width="105" height="16" x="0" y="9"/><rect id="Rectangle" width="77" height="3.843" x="0" y="0"/></g><g id="Group-23" fill="#EBEFF3" transform="translate(178.000000, 110.000000)"><rect id="Rectangle" width="105" height="16" x="0" y="9"/><rect id="Rectangle" width="47" height="3.843" x="0" y="0"/></g><g id="Group-23" fill="#EBEFF3" transform="translate(178.000000, 148.000000)"><rect id="Rectangle" width="105" height="16" x="0" y="9"/><rect id="Rectangle" width="87" height="3.843" x="0" y="0"/></g><rect id="Rectangle" width="49" height="4" x="0" y="0" fill="#EBEFF3"/><g id="Group-24" transform="translate(179.000000, 191.000000)"><rect id="Rectangle" width="105" height="24" x="0" y="0" fill="#0056FF"/><text id="Publier" fill="#FFF" font-family="Roboto-Regular, Roboto" font-size="12.163" font-weight="normal"><tspan x="33.844" y="17">Publier</tspan></text></g></g></g></g></g></svg>