<svg xmlns:xlink="http://www.w3.org/1999/xlink" viewBox="0 0 70 70"><defs><circle id="b" cx="31" cy="31" r="31"/><filter id="a" width="122.6%" height="122.6%" x="-11.3%" y="-8.1%" filterUnits="objectBoundingBox"><feOffset dy="2" in="SourceAlpha" result="shadowOffsetOuter1"/><feGaussianBlur in="shadowOffsetOuter1" result="shadowBlurOuter1" stdDeviation="2"/><feColorMatrix in="shadowBlurOuter1" values="0 0 0 0 0 0 0 0 0 0 0 0 0 0 0 0 0 0 0.09 0"/></filter></defs><g fill="none" fill-rule="evenodd" transform="translate(4 2)"><use fill="#000" filter="url(#a)" xlink:href="#b"/><use fill="#FFF" xlink:href="#b"/><path stroke="#A6C0ED" d="M23.485 35.344h6.344v-2.682h-6.344v2.682zm-.09-5.543h11.08V27.12h-11.08v2.682zm-.089-5.364h16.262v-2.682H23.306v2.682zm19.568 9.861v8.789A1.913 1.913 0 0140.962 45h-19.05A1.913 1.913 0 0120 43.087V19.913c0-1.057.856-1.913 1.912-1.913h19.05c1.056 0 1.912.856 1.912 1.913v4.016m6.074 2.015a.18.18 0 010 .254l-6.074 6.076-5.763 5.767a.179.179 0 01-.1.05l-3.43.524c-.009.002-.018.002-.027.002a.179.179 0 01-.176-.206l.523-3.431a.174.174 0 01.05-.099l8.923-8.927 2.914-2.917a.173.173 0 01.127-.052.17.17 0 01.125.052l2.908 2.907z"/></g></svg>