<svg viewBox="0 0 216 216"><g fill="none" fill-rule="evenodd"><path fill="#FFF" d="M58 177h111V13H58z"/><path stroke="#E5E5E5" stroke-linejoin="round" d="M58 177h111V13H58z"/><path fill="#FFF" d="M97 134h111V65H97z"/><path stroke="#E5E5E5" stroke-linejoin="round" d="M97 133h111V64H97z"/><path fill="#EBF0F4" d="M153.238 38H73.762C71.132 38 69 35.762 69 33s2.132-5 4.762-5h79.476c2.629 0 4.762 2.238 4.762 5s-2.133 5-4.762 5m-15 16H73.762C71.132 54 69 51.762 69 49c0-2.763 2.132-5 4.763-5h64.474c2.63 0 4.763 2.237 4.763 5 0 2.762-2.134 5-4.763 5m13.892 93H75.87c-1.032 0-1.871-.894-1.871-2 0-1.104.839-2 1.871-2h76.258c1.032 0 1.871.896 1.871 2 0 1.106-.839 2-1.871 2"/><path fill="#045BFF" d="M147.147 157H75.852c-1.023 0-1.852-.896-1.852-2s.829-2 1.852-2h71.295c1.024 0 1.853.896 1.853 2s-.829 2-1.853 2"/><path fill="#EBF0F4" d="M133.138 167H75.86c-1.027 0-1.86-.896-1.86-2s.833-2 1.86-2h57.278c1.028 0 1.862.896 1.862 2s-.834 2-1.862 2"/><path stroke="#FF4E89" d="M193 23v10m5-5h-10"/><path stroke="#46C4DB" d="M46 174v10m5-5H41"/><path fill="#FF4E89" d="M64 187a2 2 0 11-4 0 2 2 0 014 0"/><path fill="#045BFF" d="M186 14.5a1.501 1.501 0 11-3.002-.002A1.501 1.501 0 01186 14.5"/><path stroke="#0098FF" d="M191 153a3 3 0 116 0 3 3 0 01-6 0zM36 40a3 3 0 116 0 3 3 0 01-6 0z"/><path fill="#46C4DB" d="M184 166.5a1.501 1.501 0 113.002.002A1.501 1.501 0 01184 166.5"/><path fill="#96ACBF" d="M181.137 81h-72.274c-1.028 0-1.863-.784-1.863-1.75v-.5c0-.966.835-1.75 1.863-1.75h72.274c1.03 0 1.863.784 1.863 1.75v.5c0 .966-.833 1.75-1.863 1.75"/><path fill="#EBF0F4" d="M196.138 93h-87.276c-1.028 0-1.862-.784-1.862-1.75v-.5c0-.966.834-1.75 1.862-1.75h87.276c1.028 0 1.862.784 1.862 1.75v.5c0 .966-.834 1.75-1.862 1.75"/><path fill="#045BFF" d="M191.141 104H108.86c-1.03 0-1.86-.784-1.86-1.75v-.5c0-.966.831-1.75 1.859-1.75h82.282c1.026 0 1.859.784 1.859 1.75v.5c0 .966-.833 1.75-1.859 1.75m-16.01 11H108.87c-1.032 0-1.869-.784-1.869-1.75v-.5c0-.968.837-1.75 1.869-1.75h66.262c1.032 0 1.869.782 1.869 1.75v.5c0 .966-.837 1.75-1.869 1.75"/><path fill="#FFF" d="M9 105h61V61H9z"/><path stroke="#E5E5E5" stroke-linejoin="round" d="M9 105h61V61H9z"/><path fill="#96ACBF" d="M58.137 73H20.863C19.833 73 19 72.216 19 71.25v-.5c0-.966.833-1.75 1.863-1.75h37.274c1.03 0 1.863.784 1.863 1.75v.5c0 .966-.833 1.75-1.863 1.75"/><path fill="#EBF0F4" d="M56.128 85H20.874C19.839 85 19 84.216 19 83.25v-.5c0-.968.84-1.75 1.874-1.75h35.254C57.16 81 58 81.782 58 82.75v.5c0 .966-.84 1.75-1.872 1.75m-7.966 11H20.84c-1.016 0-1.84-.784-1.84-1.75v-.5c0-.966.824-1.75 1.84-1.75h27.322c1.014 0 1.838.784 1.838 1.75v.5c0 .966-.824 1.75-1.838 1.75"/></g></svg>