<svg xmlns:xlink="http://www.w3.org/1999/xlink" viewBox="0 0 404 294"><defs><linearGradient id="c" x1="0%" y1="50%" y2="50%"><stop offset="0%" stop-color="#FCFDFD"/><stop offset="100%" stop-color="#FFF"/></linearGradient><rect id="b" width="304" height="39" rx="2"/><filter id="a" width="112.2%" height="194.9%" x="-8.4%" y="-29.5%" filterUnits="objectBoundingBox"><feOffset dx="-7" dy="7" in="SourceAlpha" result="shadowOffsetOuter1"/><feGaussianBlur in="shadowOffsetOuter1" result="shadowBlurOuter1" stdDeviation="5"/><feColorMatrix in="shadowBlurOuter1" values="0 0 0 0 0.455982426 0 0 0 0 0.516079885 0 0 0 0 0.605920493 0 0 0 0.08 0"/></filter><linearGradient id="d" x1="100%" x2="0%" y1="50%" y2="50%"><stop offset="0%" stop-color="#FFF"/><stop offset="100%" stop-color="#E9EBF1"/></linearGradient><rect id="f" width="304" height="39" rx="2"/><filter id="e" width="112.2%" height="194.9%" x="-8.4%" y="-29.5%" filterUnits="objectBoundingBox"><feOffset dx="-7" dy="7" in="SourceAlpha" result="shadowOffsetOuter1"/><feGaussianBlur in="shadowOffsetOuter1" result="shadowBlurOuter1" stdDeviation="5"/><feColorMatrix in="shadowBlurOuter1" values="0 0 0 0 0.455982426 0 0 0 0 0.516079885 0 0 0 0 0.605920493 0 0 0 0.08 0"/></filter><rect id="h" width="304" height="39" rx="2"/><filter id="g" width="112.2%" height="194.9%" x="-8.4%" y="-29.5%" filterUnits="objectBoundingBox"><feOffset dx="-7" dy="7" in="SourceAlpha" result="shadowOffsetOuter1"/><feGaussianBlur in="shadowOffsetOuter1" result="shadowBlurOuter1" stdDeviation="5"/><feColorMatrix in="shadowBlurOuter1" values="0 0 0 0 0.455982426 0 0 0 0 0.516079885 0 0 0 0 0.605920493 0 0 0 0.08 0"/></filter><rect id="j" width="370" height="63" x="16" y="215" rx="2"/><filter id="i" width="110%" height="158.7%" x="-6.9%" y="-18.3%" filterUnits="objectBoundingBox"><feOffset dx="-7" dy="7" in="SourceAlpha" result="shadowOffsetOuter1"/><feGaussianBlur in="shadowOffsetOuter1" result="shadowBlurOuter1" stdDeviation="5"/><feComposite in="shadowBlurOuter1" in2="SourceAlpha" operator="out" result="shadowBlurOuter1"/><feColorMatrix in="shadowBlurOuter1" values="0 0 0 0 0.455982426 0 0 0 0 0.516079885 0 0 0 0 0.605920493 0 0 0 0.08 0"/></filter><linearGradient id="k" x1="100%" x2="0%" y1="50%" y2="50%"><stop offset="0%" stop-color="#FFF"/><stop offset="100%" stop-color="#E9EBF1"/></linearGradient></defs><g fill="none" fill-rule="evenodd" transform="translate(8 8)"><g transform="translate(31 30)"><use fill="#000" filter="url(#a)" xlink:href="#b"/><use fill="url(#c)" xlink:href="#b"/><g transform="translate(17 12)"><rect width="46" height="16" fill="#2CCA9E" rx="8"/><path fill="#FFF" d="M21.444 9.869L27.85 3l1.6 1.492-7.758 8.319-.1-.093-.001.002L16 8.505l1.316-1.748 4.128 3.112z"/><rect width="195" height="8" x="60" y="4" fill="url(#d)" rx="4"/></g></g><g transform="translate(15 155)"><use fill="#000" filter="url(#e)" xlink:href="#f"/><use fill="url(#c)" xlink:href="#f"/><g transform="translate(17 12)"><rect width="46" height="16" fill="#00BEF9" rx="8"/><g fill="#FFF" transform="translate(14 6)"><circle cx="2" cy="2" r="2"/><circle cx="9" cy="2" r="2"/><circle cx="16" cy="2" r="2"/></g><rect width="195" height="8" x="60" y="4" fill="url(#d)" rx="4"/></g></g><path stroke="#FF4E89" d="M12.24 92.66a5.5 5.5 0 11-10.267 3.942 5.5 5.5 0 0110.267-3.943z"/><path fill="#0098FF" d="M43.134 114.542a3 3 0 11-5.6 2.151 3 3 0 015.6-2.15"/><g transform="translate(81 92)"><use fill="#000" filter="url(#g)" xlink:href="#h"/><use fill="url(#c)" xlink:href="#h"/><g transform="translate(17 12)"><rect width="46" height="16" fill="#2CCA9E" rx="8"/><path fill="#FFF" d="M21.444 9.869L27.85 3l1.6 1.492-7.758 8.319-.1-.093-.001.002L16 8.505l1.316-1.748 4.128 3.112z"/><rect width="195" height="8" x="60" y="4" fill="url(#d)" rx="4"/></g></g><use fill="#000" filter="url(#i)" xlink:href="#j"/><rect width="369" height="62" x="16.5" y="215.5" fill="url(#c)" stroke="#045BFF" stroke-linejoin="square" rx="2"/><g transform="translate(34 228)"><path fill="#045BFF" d="M0 0h46v16H0z"/><rect width="30" height="2" x="8" y="7" fill="#FFF" rx="1"/></g><path stroke="#46C4DB" d="M234 15v14m7-7h-14"/><path fill="#045BFF" d="M214 2.5a2.5 2.5 0 11-5 0 2.5 2.5 0 015 0"/><path stroke="#0098FF" d="M382 144v12m6-6h-12"/><path stroke="#FF4E89" d="M355 180a5.001 5.001 0 11-10.002-.002A5.001 5.001 0 01355 180z"/><path fill="#045BFF" d="M376 127a2 2 0 11-4 0 2 2 0 014 0"/><rect width="333" height="8" x="34" y="254" fill="url(#k)" rx="4"/><rect width="273" height="8" x="91" y="231" fill="url(#k)" rx="4"/></g></svg>