<svg viewBox="0 0 216 216"><g fill="none" fill-rule="evenodd"><path fill="#EBF0F4" d="M47 173h86V30H47z"/><path fill="#FFF" d="M65 188h102V18H65z"/><path stroke="#E5E5E5" d="M64.5 186.5h101v-169h-101v169z"/><path fill="#EBF0F4" d="M151.921 43H77.077C74.273 43 72 40.762 72 38s2.273-5 5.077-5h74.844c2.804 0 5.079 2.238 5.079 5s-2.275 5-5.079 5"/><path fill="#FFF" d="M72 90h86V70H72z"/><path stroke="#E5E5E5" d="M72.5 89.5h85v-19h-85v19z"/><path fill="#EBF0F4" d="M123.728 64H74.272C73.018 64 72 62.88 72 61.501 72 60.12 73.018 59 74.272 59h49.456c1.256 0 2.272 1.12 2.272 2.501 0 1.38-1.016 2.499-2.272 2.499"/><path fill="#96ACBF" d="M132.728 83H83.272C82.018 83 81 81.88 81 80.501 81 79.12 82.018 78 83.272 78h49.456c1.256 0 2.272 1.12 2.272 2.501 0 1.38-1.016 2.499-2.272 2.499"/><path fill="#FFF" d="M90 137h86v-20H90z"/><path stroke="#E5E5E5" d="M90.5 136.5h85v-19h-85v19z"/><path fill="#EBF0F4" d="M141.728 111H92.272c-1.254 0-2.272-1.12-2.272-2.5s1.018-2.5 2.272-2.5h49.456c1.256 0 2.272 1.12 2.272 2.5s-1.016 2.5-2.272 2.5"/><path fill="#96ACBF" d="M149.728 130h-49.456c-1.254 0-2.272-1.12-2.272-2.499 0-1.381 1.018-2.501 2.272-2.501h49.456c1.256 0 2.272 1.12 2.272 2.501 0 1.38-1.016 2.499-2.272 2.499"/><path fill="#045BFF" d="M91 172h87v-18H91z"/><path stroke="#46C4DB" d="M40 186v10m5-5H35"/><path stroke="#FF4E89" d="M190 36v10m5-5h-10M25 163a4 4 0 11-8.001-.001A4 4 0 0125 163z"/><path stroke="#0098FF" d="M186 63.5a3.501 3.501 0 11-7.002-.002A3.501 3.501 0 01186 63.5z"/><path fill="#045BFF" d="M59 201a2 2 0 11-4 0 2 2 0 014 0M182 29.5a1.5 1.5 0 11-3 0 1.5 1.5 0 013 0"/><path fill="#FF4E89" d="M199 137a2.001 2.001 0 01-4 0 2 2 0 014 0"/></g></svg>