<svg xmlns:xlink="http://www.w3.org/1999/xlink" viewBox="0 0 484 533"><defs><path id="b" d="M31 34h255v351H31z"/><filter id="a" width="206.7%" height="177.5%" x="-53.3%" y="-25.4%" filterUnits="objectBoundingBox"><feOffset dy="47" in="SourceAlpha" result="shadowOffsetOuter1"/><feGaussianBlur in="shadowOffsetOuter1" result="shadowBlurOuter1" stdDeviation="37.5"/><feColorMatrix in="shadowBlurOuter1" values="0 0 0 0 0 0 0 0 0 0 0 0 0 0 0 0 0 0 0.09 0"/></filter><path id="d" d="M0 0h255v351H0z"/><filter id="c" width="206.7%" height="177.5%" x="-53.3%" y="-25.4%" filterUnits="objectBoundingBox"><feOffset dy="47" in="SourceAlpha" result="shadowOffsetOuter1"/><feGaussianBlur in="shadowOffsetOuter1" result="shadowBlurOuter1" stdDeviation="37.5"/><feColorMatrix in="shadowBlurOuter1" values="0 0 0 0 0 0 0 0 0 0 0 0 0 0 0 0 0 0 0.09 0"/></filter><path id="f" d="M158 8h146v224H158z"/><filter id="e" width="286.3%" height="221.4%" x="-93.2%" y="-39.7%" filterUnits="objectBoundingBox"><feOffset dy="47" in="SourceAlpha" result="shadowOffsetOuter1"/><feGaussianBlur in="shadowOffsetOuter1" result="shadowBlurOuter1" stdDeviation="37.5"/><feColorMatrix in="shadowBlurOuter1" values="0 0 0 0 0 0 0 0 0 0 0 0 0 0 0 0 0 0 0.09 0"/></filter></defs><g fill="none" fill-rule="evenodd" transform="translate(74 27)"><use fill="#000" filter="url(#a)" xlink:href="#b"/><use fill="#FAFBFC" xlink:href="#b"/><use fill="#000" filter="url(#c)" xlink:href="#d"/><use fill="#FFF" xlink:href="#d"/><path fill="#EBEFF3" d="M32 34h192v12H32zm0 18h148v12H32zm54.72 50.922h112.32v7.687H86.72zM32 119.256h192v3.843H32zm0 7.687h192v3.843H32zm0 7.687h192v3.843H32zm0 7.687h157.44v3.843H32z"/><text fill="#0096FF" font-family="GillSans-Bold, Gill Sans" font-size="9.6" font-weight="bold" letter-spacing="-.48" transform="translate(32 101)"><tspan x="0" y="9.005">1. Constat :</tspan></text><path fill="#EBEFF3" d="M91.72 172.922h112.32v7.687H91.72zM32 189.256h192v3.843H32zm0 7.687h192v3.843H32zm0 7.687h192v3.843H32zm0 7.687h157.44v3.843H32z"/><text fill="#0096FF" font-family="GillSans-Bold, Gill Sans" font-size="9.6" font-weight="bold" letter-spacing="-.48" transform="translate(32 171)"><tspan x="0" y="9">2. Solution :</tspan></text><path fill="#EBEFF3" d="M86.72 241.922h112.32v7.687H86.72zM32 258.256h192v3.843H32zm0 7.687h192v3.843H32zm0 7.687h192v3.843H32zm0 7.687h157.44v3.843H32z"/><text fill="#0096FF" font-family="GillSans-Bold, Gill Sans" font-size="9.6" font-weight="bold" letter-spacing="-.48" transform="translate(32 240)"><tspan x="0" y="9">3. Risques :</tspan></text><g transform="translate(32 78)"><use fill="#000" filter="url(#e)" xlink:href="#f"/><use fill="#FFF" xlink:href="#f"/><path fill="#EBEFF3" d="M178 43h105v16H178zm0-9h87v3.843h-87zm0 47h105v16H178zm0-9h77v3.843h-77zm0 47h105v16H178zm0-9h47v3.843h-47zm0 47h105v16H178zm0-9h87v3.843h-87zM0 0h49v4H0z"/><path fill="#0056FF" d="M179 191h105v24H179z"/><text fill="#FFF" font-family="Roboto-Regular, Roboto" font-size="12.163" transform="translate(179 191)"><tspan x="33.844" y="17">Publier</tspan></text></g></g></svg>