<svg xmlns:xlink="http://www.w3.org/1999/xlink" viewBox="0 0 70 70"><defs><circle id="b" cx="31" cy="31" r="31"/><filter id="a" width="122.6%" height="122.6%" x="-11.3%" y="-8.1%" filterUnits="objectBoundingBox"><feOffset dy="2" in="SourceAlpha" result="shadowOffsetOuter1"/><feGaussianBlur in="shadowOffsetOuter1" result="shadowBlurOuter1" stdDeviation="2"/><feColorMatrix in="shadowBlurOuter1" values="0 0 0 0 0 0 0 0 0 0 0 0 0 0 0 0 0 0 0.09 0"/></filter></defs><g fill="none" fill-rule="evenodd" transform="translate(4 2)"><use fill="#000" filter="url(#a)" xlink:href="#b"/><use fill="#FFF" xlink:href="#b"/><path stroke="#A6C0ED" d="M17 43h5.29V27.509H17V43zm29-14.354c0-1.424-1.19-2.588-2.645-2.588H35.02l1.323-5.952v-.389c0-.517-.264-1.035-.529-1.423L34.36 17l-8.73 8.54c-.529.388-.794 1.035-.794 1.812v12.94c0 1.423 1.19 2.587 2.646 2.587h11.904a2.614 2.614 0 002.381-1.553l3.968-9.187c.133-.259.133-.647.133-.905v-2.588H46c0 .129 0 0 0 0z"/></g></svg>