<svg xmlns:xlink="http://www.w3.org/1999/xlink" viewBox="0 0 556 425"><defs><path id="b" d="M30 30h331.918v201.576H30z"/><filter id="a" width="207%" height="276.1%" x="-53.5%" y="-57.8%" filterUnits="objectBoundingBox"><feOffset dy="61" in="SourceAlpha" result="shadowOffsetOuter1"/><feGaussianBlur in="shadowOffsetOuter1" result="shadowBlurOuter1" stdDeviation="49"/><feColorMatrix in="shadowBlurOuter1" values="0 0 0 0 0 0 0 0 0 0 0 0 0 0 0 0 0 0 0.09 0"/></filter><path id="d" d="M0 0h331.918v201.576H0z"/><filter id="c" width="207%" height="276.1%" x="-53.5%" y="-57.8%" filterUnits="objectBoundingBox"><feOffset dy="61" in="SourceAlpha" result="shadowOffsetOuter1"/><feGaussianBlur in="shadowOffsetOuter1" result="shadowBlurOuter1" stdDeviation="49"/><feColorMatrix in="shadowBlurOuter1" values="0 0 0 0 0 0 0 0 0 0 0 0 0 0 0 0 0 0 0.09 0"/></filter></defs><g fill="none" fill-rule="evenodd"><g transform="translate(97 36)"><use fill="#000" filter="url(#a)" xlink:href="#b"/><use fill="#FAFBFC" xlink:href="#b"/><use fill="#000" filter="url(#c)" xlink:href="#d"/><use fill="#FFF" xlink:href="#d"/><path fill="#EBEFF3" d="M28.636 31.212h274.646v15.606H28.636zm0 28.611h192.643v15.606H28.636zm0 31.211h63.78v5.202h-63.78z"/></g><g transform="translate(70 173)"><g transform="translate(272)"><rect width="127.776" height="41.184" x=".528" y=".528" fill="#FFF" stroke="#CDD7EA" stroke-width="1.056" rx="3.168"/><text fill="#93ACD5" font-family="Roboto-Medium, Roboto" font-size="15.84" font-weight="400"><tspan x="10.56" y="26.616">Innovante</tspan></text><text fill="#93ACD5" font-family="Roboto-Medium, Roboto" font-size="15.84" font-weight="400"><tspan x="98.158" y="26.616">86</tspan></text></g><g transform="translate(136)"><rect width="127.776" height="41.184" x=".528" y=".528" fill="#FFF" stroke="#045BFF" stroke-width="1.056" rx="3.168"/><text fill="#045BFF" font-family="Roboto-Medium, Roboto" font-size="15.84" font-weight="400"><tspan x="10.56" y="26.616">Réalisable</tspan></text><text fill="#1DD16E" font-family="Roboto-Medium, Roboto" font-size="15.84" font-weight="400"><tspan x="89.992" y="27">102</tspan></text></g><rect width="127.776" height="41.184" x=".528" y=".528" fill="#FFF" stroke="#CDD7EA" stroke-width="1.056" rx="3.168"/><text fill="#93ACD5" font-family="Roboto-Medium, Roboto" font-size="15.84" font-weight="400"><tspan x="10.56" y="26.616">Essentielle</tspan></text><text fill="#93ACD5" font-family="Roboto-Medium, Roboto" font-size="15.84" font-weight="400"><tspan x="98.158" y="26.616">47</tspan></text></g><text fill="#8FE89A" font-family="Roboto-Medium, Roboto" font-size="15.84" font-weight="400" transform="translate(53 23)"><tspan x="244.572" y="132">+1</tspan></text><text fill="#8FE89A" font-family="Roboto-Medium, Roboto" font-size="15.84" font-weight="400" transform="translate(53 23)"><tspan x="297.572" y="15">+1</tspan></text><text fill="#8FE89A" font-family="Roboto-Medium, Roboto" font-size="20" font-weight="400" transform="translate(53 23)"><tspan x="401.89" y="88">+1</tspan></text><text fill="#8FE89A" font-family="Roboto-Medium, Roboto" font-size="20" font-weight="400" transform="translate(53 23)"><tspan x=".89" y="92">+1</tspan></text></g></svg>