<svg xmlns="http://www.w3.org/2000/svg" width="216" height="216" viewBox="0 0 216 216">
  <g fill="none" fill-rule="evenodd" transform="translate(17 17)">
    <polygon fill="#EBF0F4" points="30 156 116 156 116 13 30 13"/>
    <polygon fill="#FFF" points="48 171 150 171 150 1 48 1"/>
    <path stroke="#E5E5E5" d="M47.5,169.5 L148.5,169.5 L148.5,0.5 L47.5,0.5 L47.5,169.5 Z"/>
    <path fill="#EBF0F4" d="M134.921215,26 L60.076999,26 C57.2733098,26 55,23.7615615 55,20.9991208 C55,18.2384385 57.2733098,16 60.076999,16 L134.921215,16 C137.724904,16 140,18.2384385 140,20.9991208 C140,23.7615615 137.724904,26 134.921215,26"/>
    <polygon fill="#FFF" points="55 73 141 73 141 53 55 53"/>
    <path stroke="#E5E5E5" d="M55.5,72.5 L140.5,72.5 L140.5,53.5 L55.5,53.5 L55.5,72.5 Z"/>
    <path fill="#EBF0F4" d="M106.727793,47 L57.2722069,47 C56.0179629,47 55,45.880422 55,44.5009769 C55,43.119578 56.0179629,42 57.2722069,42 L106.727793,42 C107.983814,42 109,43.119578 109,44.5009769 C109,45.880422 107.983814,47 106.727793,47"/>
    <path fill="#96ACBF" d="M115.727793,66 L66.2722069,66 C65.0179629,66 64,64.880422 64,63.5009769 C64,62.119578 65.0179629,61 66.2722069,61 L115.727793,61 C116.983814,61 118,62.119578 118,63.5009769 C118,64.880422 116.983814,66 115.727793,66"/>
    <polygon fill="#FFF" points="73 120 159 120 159 100 73 100"/>
    <path stroke="#E5E5E5" d="M73.5,119.5 L158.5,119.5 L158.5,100.5 L73.5,100.5 L73.5,119.5 Z"/>
    <path fill="#EBF0F4" d="M124.727793,94 L75.2722069,94 C74.0179629,94 73,92.8799844 73,91.5 C73,90.1200156 74.0179629,89 75.2722069,89 L124.727793,89 C125.983814,89 127,90.1200156 127,91.5 C127,92.8799844 125.983814,94 124.727793,94"/>
    <path fill="#96ACBF" d="M132.727793,113 L83.2722069,113 C82.0179629,113 81,111.880422 81,110.500977 C81,109.119578 82.0179629,108 83.2722069,108 L132.727793,108 C133.983814,108 135,109.119578 135,110.500977 C135,111.880422 133.983814,113 132.727793,113"/>
    <polygon fill="#045BFF" points="74 155 161 155 161 137 74 137"/>
    <path stroke="#46C4DB" d="M23 169L23 179M28 174L18 174"/>
    <path stroke="#FF4E89" d="M173 19L173 29M178 24L168 24M8 146C8 148.208228 6.20860441 150 4.00083945 150 1.79139559 150-3.0331293e-13 148.208228-3.0331293e-13 146-3.0331293e-13 143.790092 1.79139559 142 4.00083945 142 6.20860441 142 8 143.790092 8 146z"/>
    <path stroke="#0098FF" d="M169,46.5 C169,48.4314815 167.433333,50 165.5,50 C163.566667,50 162,48.4314815 162,46.5 C162,44.5666667 163.566667,43 165.5,43 C167.433333,43 169,44.5666667 169,46.5 Z"/>
    <path fill="#045BFF" d="M42 184C42 185.104746 41.1047463 186 40 186 38.8968903 186 38 185.104746 38 184 38 182.895254 38.8968903 182 40 182 41.1047463 182 42 182.895254 42 184M165 12.5C165 13.3285714 164.328571 14 163.5 14 162.671429 14 162 13.3285714 162 12.5 162 11.6714286 162.671429 11 163.5 11 164.328571 11 165 11.6714286 165 12.5"/>
    <path fill="#FF4E89" d="M182,120 C182,121.103283 181.104525,122 179.999199,122 C178.895475,122 178,121.103283 178,120 C178,118.896717 178.895475,118 179.999199,118 C181.104525,118 182,118.896717 182,120"/>
  </g>
</svg>
