<svg viewBox="0 0 111 14"><path fill="#999" d="M4.4 2.7c-.8 0-1.4.3-1.7 1.2-.2.6-.6.8-.9.8H.9c-.1 0-.7-.1-.7-1C.2 1.4 2.3 0 4.2 0h.9c2.3 0 4.2 1 4.2 4.2 0 1-.3 2-1 2.7.8.6 1.1 1.5 1.1 2.7 0 3-1.5 4.1-4 4.1H4c-2 0-4-1.4-4-3.8 0-.9.5-1 .7-1h.8c.4 0 .7.2 1 1 .3.7.9 1.1 1.7 1.1h1c1.1 0 1.6-.3 1.6-1.4 0-1.1-.5-1.5-1.6-1.5H4c-.4 0-.7-.4-.7-.9v-.7c0-.5.3-.9.6-.9h1c1.3 0 1.8-.4 1.8-1.5 0-1-.5-1.4-1.8-1.4h-.5m11.7 2.5c2.5 0 4 1.1 4 4.2 0 3.2-1.5 4.3-4 4.3h-1.5c-2.5 0-4-1.1-4-4.7V4.9c0-3.7 1.5-4.9 3.9-4.9h1.8c2 0 3.6 1.4 3.6 3.3 0 .9-.5 1.1-.7 1.1h-.8c-.4 0-.7-.3-1-.9-.2-.5-.7-.8-1.4-.8h-1.2c-1.1 0-1.6.4-1.6 2.2v.3h2.9zm-2.9 2.7V9c0 1.7.5 2 1.6 2h1c1.1 0 1.7-.3 1.7-1.6 0-1.2-.6-1.5-1.7-1.5h-2.6zM26.7 0c2.7 0 4.9 1.7 4.9 6.9 0 5.1-2.2 6.8-4.9 6.8h-.5c-2.8 0-5-1.7-5-6.8 0-5.2 2.2-6.9 5-6.9h.5zm-2.9 6.9c0 3.1 1.2 4.1 2.6 4.1 1.5 0 2.6-1 2.6-4.1 0-3.2-1.1-4.2-2.6-4.2-1.4 0-2.6 1-2.6 4.2zM42.6 11h-6.1V1c0-.5-.3-.9-.6-.9h-1.4c-.3 0-.6.4-.6.9v11.8c0 .5.3.9.6.9h8.1c.3 0 .6-.4.6-.9v-.9c0-.5-.3-.9-.6-.9m6.1-7c-3.2 0-5.1 1.8-5.1 4.9 0 3.2 1.9 4.9 5.1 4.9 2.8 0 4.7-.6 4.7-2.4 0-.3-.2-.6-.5-.6h-1.3c-.5 0-.8.2-1 .5-.3.4-1 .6-1.7.6-1.5 0-2.1-.6-2.3-2.1h6.6c.3 0 .6-.2.6-.5v-.5c0-3.1-2-4.8-5.1-4.8zm-2.1 4c.1-1.3.8-2 2.1-2s1.9.7 2 2h-4.1zm13.5-4c-2.9 0-4.8.7-4.8 2.5 0 .3.2.5.5.5h1.3c.5 0 .8-.1 1-.4.3-.4 1-.6 1.7-.6 1.2 0 1.8.4 1.8 1.8h-2.9c-2.3 0-4.1 1-4.1 3s1.8 3 4.1 3c1.4 0 2.4-.4 3.2-.9v.2c0 .3.2.6.5.6h1.7c.3 0 .5-.3.5-.6V7.8c0-2.7-2-3.8-4.5-3.8zm1.5 7.1c-.6.4-1.5.8-2.6.8-.9 0-1.4-.5-1.4-1.1 0-.6.5-1 1.3-1h2.7v1.3zM72.7 4c-2 0-2.9.6-3.9 1.3v-.6c0-.3-.2-.5-.5-.5h-2c-.3 0-.5.2-.5.5v8.4c0 .3.2.6.5.6h2c.3 0 .5-.3.5-.6V7.6c.7-.7 1.4-1.3 2.3-1.3.4 0 .9.1 1.3.1h.3c.3 0 .5-.2.5-.5V4.6c0-.3-.2-.6-.5-.6m7.7 0c-1.3 0-2.2.6-3 1.3v-.6c0-.3-.2-.5-.6-.5h-1.9c-.3 0-.5.2-.5.5v8.4c0 .3.2.6.5.6h1.9c.4 0 .6-.3.6-.6V7.4c.6-.7 1.5-1.3 2.3-1.3 1 0 1.7.6 1.7 2.1v4.9c0 .3.2.6.5.6h2c.3 0 .5-.3.5-.6V8.2c0-3-1.6-4.2-4-4.2m5.7.4c-.3 0-.6.2-.6.5v8.2c0 .3.3.6.6.6H88c.3 0 .6-.3.6-.6V4.9c0-.3-.3-.5-.6-.5h-1.9zM87.6 1h-1.1c-.6 0-1 .4-1 1v.3c0 .6.4 1 1 1h1.1c.6 0 1-.4 1-1V2c0-.6-.4-1-1-1m8.1 3c-1.3 0-2.2.6-3 1.3v-.6c0-.3-.2-.5-.5-.5h-2c-.3 0-.5.2-.5.5v8.4c0 .3.2.6.5.6h2c.3 0 .5-.3.5-.6V7.4c.6-.7 1.5-1.3 2.3-1.3 1 0 1.7.6 1.7 2.1v4.9c0 .3.2.6.5.6h2c.3 0 .5-.3.5-.6V8.2c0-3-1.6-4.2-4-4.2m14.4 4.2h-3c-.5 0-.9.4-.9.9v.5c0 .4.4.8.9.8h1.1c-.1.5-.4 1-1.6 1h-1.2c-1.2 0-1.7-.4-1.7-2.5s.4-2.6 2-2.6h1.1c.7 0 1.1.2 1.3.5.3.5.6.8 1.1.8h.7c.3 0 .9-.3.9-1 0-1.6-2-2.6-3.8-2.6h-1.4c-3.1 0-4.8 1.6-4.8 4.9 0 3.1 1.6 4.8 4.5 4.8h1.4c2.8 0 4.3-1.4 4.3-3.9v-.7c0-.5-.4-.9-.9-.9"/></svg>