<svg viewBox="0 0 254 74"><path fill="#FEFEFE" fill-rule="evenodd" d="M196.213 43.57c-.77-.784-1.708-1.394-2.816-1.83-1.11-.438-2.392-.656-3.848-.656-2.78 0-4.964.808-6.552 2.424-1.243 1.263-1.993 2.839-2.263 4.718a11.414 11.414 0 00-.118 1.573c0 .022-.003.042-.003.064 0 1.756.367 3.284 1.084 4.592.354.645.784 1.24 1.312 1.776a7.61 7.61 0 001.622 1.245c.383.222.782.422 1.21.582a9.355 9.355 0 001.745.456 12.487 12.487 0 002.916.115c.271-.02.537-.047.796-.083 1.167-.164 2.208-.496 3.116-1.005 1.34-.75 2.358-1.788 3.053-3.115.695-1.327 1.042-2.848 1.042-4.563 0-1.286-.19-2.46-.57-3.524a7.513 7.513 0 00-1.726-2.77m-4.032 13.101c-.784.222-1.663.336-2.632.336-2.317 0-4.068-.634-5.348-1.938-1.292-1.312-1.92-3.014-1.92-5.204 0-.925.12-1.758.345-2.515.777-.22 1.64-.335 2.61-.335 1.239 0 2.327.181 3.235.539.883.348 1.637.835 2.238 1.447a5.807 5.807 0 011.346 2.166c.314.878.474 1.876.474 2.964a8.89 8.89 0 01-.348 2.54"/><path fill="#FEFEFE" fill-rule="evenodd" d="M209.398 42.526a17.812 17.812 0 00-4.022-6.187c-1.766-1.77-4.033-3.184-6.735-4.204-2.668-1.006-5.727-1.517-9.092-1.517-4.52 0-8.43.898-11.622 2.671-2.573 1.43-4.632 3.256-6.16 5.434-2.317 1.626-4.127 3.628-5.38 5.986-1.544 2.908-2.327 6.078-2.327 9.42 0 3.328.787 6.494 2.34 9.41 1.578 2.961 4.008 5.374 7.223 7.174 3.183 1.782 7.09 2.686 11.613 2.686 4.465 0 8.332-.866 11.494-2.575 2.608-1.41 4.708-3.256 6.282-5.49 2.25-1.572 4.035-3.526 5.312-5.843 1.61-2.922 2.427-6.162 2.427-9.628 0-2.551-.455-5.02-1.353-7.337m-13.463 26.836c-2.197 1.188-4.752 1.93-7.665 2.226 2.913-.296 5.468-1.038 7.665-2.225m10.927-10.672l-.001.002c-.152.275-.315.54-.483.803-.076.12-.154.24-.233.358-.066.097-.135.19-.203.286-1.423 2.014-3.316 3.67-5.695 4.956-2.93 1.583-6.496 2.374-10.698 2.374-4.253 0-7.852-.824-10.797-2.473-2.946-1.648-5.134-3.816-6.565-6.504a18.072 18.072 0 01-2.147-8.63c0-3.083.711-5.964 2.134-8.643 1.007-1.895 2.405-3.525 4.177-4.9a18.657 18.657 0 011.51-1.055c.285-.18.576-.356.878-.523v-.001c.864-.48 1.789-.88 2.762-1.22 2.36-.82 5.037-1.241 8.048-1.241 1.985 0 3.837.184 5.554.551 1.031.22 2.013.506 2.947.86 1.868.704 3.487 1.596 4.857 2.677a15.099 15.099 0 011.287 1.142 16.06 16.06 0 013.456 5.153c.064.153.131.305.192.461.066.171.125.344.187.516a18.174 18.174 0 01.57 1.933 18.91 18.91 0 01.484 4.29c0 1.512-.172 2.965-.503 4.364a17.63 17.63 0 01-1.718 4.464M90.418 72.941l2.906-4.319-5.439-.278zm34.278-21.64l3.05-5.832-4.096-1.864zm0 18.527l3.477-4.509-4.198 1.438zm41.066 2.941l4.312-3.921-7.793-.393z"/><path fill="#FEFEFE" fill-rule="evenodd" d="M209.115 35.518V72.77h13.38l4.33-3.921h.014-.014v-7.811l11.22 11.295 1.07.437h10.536l4.33-3.921V31.205h-12.592V31.2l-.006.005h-1.177v-.103l-4.329 4.416v7.406l-10.008-11.25.095-.469h-12.52V31.1l-4.329 4.418zm33.06-2.745h10.232v34.114h-8.254l-18.901-18.953v18.953h-10.234V32.773h10.222l16.934 18.97v-18.97zM4.358 31.203L0 35.519h.134v37.249h13.381v.006l4.095-3.926h.234V61.4l2.034 2.552.425.584h2.365l-.003.004.005-.004h.041l.158-.164 4.158-4.088-.037-.061h.033l.524-.562 2.104-2.505v15.613h13.775v-.391h3.541v-3.529h.788v-3.031l.125.09-.125-.365V31.205H35.766l-.008-.049v.05l-4.295 4.313h-.009l-.5.523-5.414 6.511-8.893-10.778-.5-.57H4.462v-.072l-.104.07zm32.194 1.57h9.233v34.115h-10.23v-19.72l-9.327 11.485h-.819l-9.533-11.485v19.72h-9.84V32.774h9.32l10.575 12.859 10.622-12.86zm29.775 21.175h10.058l-5.038-12.429z"/><path fill="#FEFEFE" fill-rule="evenodd" d="M60.154 35.44l.042.078h-.03l-.44.908L44.51 70.568l-1.036 2.2H57.78l.01.066 4.312-4.202-.007.022.42-.962.679-1.588h10.135l2.384 5.764.42.9h14.31l-1.032-2.159-.857-1.761h6.201l-1.033-2.413-15.165-34.257-.439-.973H64.477l-.012-.032.005-.051-4.316 4.318zm5.41-2.666H77.03l2.23 5.029 12.935 29.084H81.573l-2.804-6.666H63.826l-2.476 5.883h.04l-.174.257-.245.526H50.348l15.215-34.113zm26.571 34.113h.06-.06z"/><path fill="#FEFEFE" fill-rule="evenodd" d="M126.589 54.367a32.058 32.058 0 01-3.019 1.668c-.92.446-2.104.863-3.486 1.238-1.338.363-2.795.548-4.312.548-1.79 0-3.411-.366-4.81-1.088-1.394-.72-2.45-1.654-3.224-2.857a6.942 6.942 0 01-1.127-3.865c0-1.01.16-1.92.491-2.751l.004-.002c1.51-.688 3.164-1.036 4.916-1.036 2.015 0 3.771.309 5.22.92 1.574.663 3.14 1.509 4.765 2.514l2.492 1.577v-6.866c.787.322 1.183.658 1.773 1.022l2.557 1.577V33.699l-1.069-.39c-5.102-1.786-9.732-2.69-13.808-2.69-2.764 0-5.421.376-7.924 1.12-2.553.758-4.858 1.952-6.862 3.545a16.416 16.416 0 00-3.28 3.508c-.35.243-.694.493-1.027.758-2.042 1.624-3.65 3.687-4.78 6.131-1.124 2.426-1.693 5.268-1.693 8.449 0 2.773.48 5.365 1.425 7.705a17.158 17.158 0 004.337 6.238c1.906 1.756 4.182 3.1 6.764 3.997 2.54.882 5.434 1.329 8.603 1.329 1.681 0 3.334-.1 4.911-.297a29.64 29.64 0 004.777-1.01 27.225 27.225 0 004.728-1.9l.962-.466v-2.309a25.89 25.89 0 003.426-1.491l.903-.466v-12.7l-2.633 1.607zM90.27 50.964zm36.983 13.49c-.393.251-.895.48-1.386.696-.35.173-.625.336-.975.489v-.05a24.31 24.31 0 01-1.858.645c-1.49.445-2.99.763-4.504.952a38.045 38.045 0 01-4.705.284c-2.994 0-5.68-.412-8.054-1.236-2.375-.824-4.435-2.04-6.18-3.648a15.444 15.444 0 01-3.922-5.638c-.869-2.151-1.303-4.513-1.303-7.085 0-2.95.513-5.535 1.539-7.753 1.026-2.216 2.461-4.06 4.306-5.527.054-.043.11-.081.164-.123l-.013.004c.108-.084.22-.163.331-.245.094-.07.188-.141.284-.21.134-.095.271-.187.408-.278.105-.07.21-.144.318-.213.13-.083.264-.162.396-.242.117-.071.233-.143.351-.212.129-.074.261-.143.392-.214.125-.068.25-.138.377-.204.13-.066.265-.128.397-.192.131-.063.26-.129.393-.19.14-.062.284-.12.426-.18.13-.055.256-.113.387-.165.167-.067.339-.128.51-.19.108-.04.215-.083.325-.12.282-.099.569-.191.86-.278 2.357-.7 4.842-1.05 7.457-1.05l.09.002c3.884.012 8.467.876 13.189 2.594v9.1a12.744 12.744 0 00-2.754-1.5v-.056a34.473 34.473 0 00-2.296-1.078c-1.663-.7-3.62-1.05-5.87-1.05-2.003 0-3.873.396-5.61 1.186-1.738.792-3.136 1.921-4.194 3.389a8.265 8.265 0 00-1.48 3.66 9.876 9.876 0 00-.08.719l-.001.01a9.379 9.379 0 000 1.461 8.638 8.638 0 001.362 4.054c.926 1.443 2.213 2.588 3.86 3.437 1.234.637 2.587 1.035 4.06 1.194.49.053.994.08 1.511.08 1.672 0 3.252-.202 4.742-.607a30.07 30.07 0 001.728-.53c.361-.123.71-.25 1.035-.381.352-.142.689-.287.997-.436.614-.299 1.24-.634 1.876-1 .372-.237.743-.488 1.114-.756v.092c.05-.031 0-.06 0-.092v8.68z"/><path fill="#FEFEFE" fill-rule="evenodd" d="M170.074 68.848l-1.103-2.443-3.475-7.484c-1.309-2.835-2.343-4.722-3.159-5.722a10.696 10.696 0 00-1.044-1.113c.171-.117.338-.24.5-.358.95-.694 1.797-1.723 2.592-3.142.808-1.44 1.217-3.19 1.217-5.201 0-1.73-.461-3.555-1.371-5.424-.936-1.923-2.464-3.507-4.539-4.823-2.085-1.321-4.741-1.933-7.896-1.933h-19.373v.002l-2.984 4.311h-1.398V72.77h13.775v.174l.036.023 4.32-4.28-.027-.003v-5.968c.394.845 1.039 1.901 1.603 3.168l2.717 5.99.451.896h14.847l-1.104-2.19-.889-1.731h6.304zm-23.881-9.036zm10.121 7.075l-2.706-6.014c-.992-2.226-1.886-3.819-2.68-4.85-.795-1.03-1.568-1.717-2.321-2.006-.753-.289-1.725-.462-2.916-.462h-1.12v6.879c0 .015-.017.023 0 .04v6.413h-10.233V32.773h17.458c2.846 0 5.18.566 7 1.72 1.82 1.154 3.092 2.55 3.894 4.198.803 1.649 1.165 3.21 1.165 4.693v.003c0 1.73-.295 3.192-.965 4.388-.084.148-.148.291-.233.429-.003.005.004.01 0 .016-.077.125-.149.246-.226.364l-.065.096a10.508 10.508 0 01-.271.383c-.05.065-.098.129-.147.19-.039.05-.078.098-.118.146l-.126.146c-.045.052-.09.102-.137.152l-.107.111a8.365 8.365 0 01-.153.153l-.091.081c-.056.052-.082.104-.14.151-.002.003.025.006.025.007 0 .063-.185.126-.263.182a21.37 21.37 0 01-2.523 1.559c.601.348 1.133.735 1.62 1.154 0 0-.003-.001-.002-.002.086.074.162.154.245.23.107.099.217.195.317.297.194.196.377.397.547.606.721.882 1.7 2.598 2.942 5.285l3.474 7.376h-.064.064-11.144z"/><path fill="#FEFEFE" fill-rule="evenodd" d="M151.796 40.324c-1.042-.627-2.738-.884-5.088-.884h-2.137v5.93c0 .002-.017.002 0 .004v2.3h2.187c2.532 0 4.265-.32 5.2-.871.934-.553 1.402-1.605 1.402-3.172 0-1.583-.52-2.68-1.564-3.307zm-5.603 5.601v-.172c.155.06.278.12.373.172h-.373zm1.29-1.39a4.969 4.969 0 00.002 0 3.01 3.01 0 01-.001 0z"/><path fill="#FFF" fill-rule="evenodd" d="M74.498.574h-6.064v16.434c0 1.821-.049 2.924-.145 3.31-.126.491-.339.855-.638 1.091-.3.236-.692.388-1.175.456-.484.066-1.108.11-1.872.13l.914 4.827c.725.135 1.45.203 2.176.203 1.973 0 3.458-.417 4.454-1.25.996-.834 1.637-1.873 1.922-3.115.285-1.244.428-2.757.428-4.539V.574zm20.535 16h-9.097v-4.278h8.444V8.263h-8.444v-3.67h8.85V.572H79.873v20.034h15.16v-4.032zm26.824-16l-4.73 11.563L112.53.574h-6.312l8.894 20.293h4.003L128.182.574h-6.325zm29.312 6.063a9.39 9.39 0 00-2.133-3.28c-.938-.94-2.135-1.684-3.59-2.234C143.99.573 142.334.3 140.477.3c-2.486 0-4.592.48-6.318 1.439-1.726.959-3.005 2.22-3.838 3.786a10.61 10.61 0 00-1.247 5.052c0 1.792.418 3.474 1.255 5.045.836 1.57 2.115 2.837 3.837 3.8 1.721.964 3.825 1.446 6.311 1.446 2.456 0 4.54-.463 6.252-1.388 1.713-.924 3.001-2.172 3.867-3.743.865-1.57 1.298-3.29 1.298-5.16 0-1.378-.242-2.691-.725-3.939zm-6.064 6.606a4.384 4.384 0 01-1.785 1.82c-.784.44-1.731.659-2.843.659-1.615 0-2.89-.475-3.823-1.424-.933-.95-1.4-2.19-1.4-3.722s.464-2.77 1.392-3.714c.929-.945 2.206-1.418 3.831-1.418.851 0 1.6.129 2.248.384a4.676 4.676 0 011.647 1.07c.45.457.786.997 1.008 1.618a6.07 6.07 0 01.334 2.06c0 1.003-.203 1.89-.609 2.667zm28.44-12.67h-20.788v4.871h7.37v15.163h6.05V5.444h7.369V.574zm18.999 16.002h-9.097v-4.28h8.444V8.264h-8.444v-3.67h8.85V.572h-14.914v20.034h15.16v-4.032z"/></svg>