<svg width="254px" height="74px" viewBox="0 0 254 74" version="1.1" xmlns="http://www.w3.org/2000/svg">
    <path d="M196.213405,43.569145 C195.443564,42.7863462 194.504605,42.1764302 193.396528,41.7393968 C192.28757,41.3023634 191.00509,41.0838467 189.549088,41.0838467 C186.769206,41.0838467 184.584761,41.8920952 182.996635,43.5077146 C181.753792,44.7714256 181.00421,46.3466765 180.733797,48.2264466 L180.733797,48.225569 C180.695922,48.4853318 180.666855,48.7486049 180.646596,49.0180211 C180.628098,49.273396 180.617528,49.5331589 180.615767,49.7990647 C180.615767,49.8210041 180.613124,49.8411884 180.613124,49.8631278 C180.613124,51.6191596 180.980428,53.1470213 181.697419,54.4554887 C182.05063,55.0996303 182.481353,55.6955052 183.008967,56.2308272 C183.49342,56.7240255 184.03865,57.1320988 184.630564,57.4761091 C185.013723,57.6981361 185.412736,57.8982236 185.840817,58.0579427 C186.386047,58.260663 186.967391,58.4124838 187.58573,58.5142827 C188.203188,58.6160817 188.85764,58.6669812 189.549088,58.6669812 L189.549088,58.6669812 C189.843283,58.6669812 190.129551,58.6555727 190.409653,58.636266 C190.440482,58.6345108 190.471311,58.6318781 190.502139,58.6292453 C190.773433,58.6090611 191.038562,58.5818562 191.297524,58.5458755 C192.464616,58.3817686 193.505751,58.0500445 194.41388,57.5410498 C195.754495,56.7915989 196.771847,55.7525477 197.466818,54.4256511 C198.161788,53.0987546 198.508833,51.5779135 198.508833,49.8631278 C198.508833,48.5765998 198.318575,47.4024017 197.938059,46.3387783 C197.557543,45.2760324 196.983245,44.3528213 196.213405,43.569145 M190.62017,46.7916081 C190.150691,46.4862112 189.638051,46.2246933 189.084012,46.0061766 C189.638051,46.2246933 190.150691,46.4862112 190.62017,46.7916081 M192.180991,56.6687381 C191.397057,56.8907651 190.517994,57.0048502 189.549088,57.0048502 C187.231639,57.0048502 185.481441,56.3712395 184.200722,55.06716 C182.909433,53.7551822 182.281406,52.0526827 182.281406,49.8631278 C182.281406,48.9381616 182.400317,48.1053409 182.625808,47.3479919 C183.402695,47.1277201 184.266784,47.0127575 185.236571,47.0127575 C186.47501,47.0127575 187.562829,47.1944159 188.470958,47.5515898 C189.354425,47.8999879 190.108411,48.3870432 190.709133,48.9987144 C191.313379,49.6130184 191.753791,50.3221007 192.055033,51.1645747 C192.369487,52.0430293 192.528916,53.0408345 192.528916,54.1290301 C192.528916,55.0434654 192.411767,55.89296 192.180991,56.6687381" stroke="none" fill="#FEFEFE" fill-rule="evenodd"></path>
    <path d="M209.398377,42.5256181 C208.490247,40.1842424 207.1373,38.1026296 205.375652,36.3386996 C203.609599,34.5695042 201.343238,33.15485 198.640869,32.1351054 C195.972852,31.1285245 192.913749,30.6177746 189.548999,30.6177746 C185.028609,30.6177746 181.118629,31.5164136 177.927403,33.2891193 C175.353634,34.7186923 173.295147,36.5449303 171.766917,38.7230766 C169.450349,40.3492269 167.640255,42.3509802 166.387723,44.7090299 C164.842757,47.6173203 164.059704,50.7871288 164.059704,54.1298199 C164.059704,57.4567146 164.847161,60.6230127 166.400935,63.5392014 C167.977611,66.5001465 170.407805,68.9134834 173.622814,70.713394 C176.806113,72.4948755 180.71345,73.3987799 185.236483,73.3987799 C189.701382,73.3987799 193.568201,72.5326113 196.73036,70.8239688 C199.338481,69.41458 201.438367,67.5681578 203.0124,65.3347241 C205.261144,63.762106 207.047456,61.8077418 208.323771,59.4909383 C209.934799,56.5686066 210.751323,53.328592 210.751323,49.8630401 C210.751323,47.3119235 210.295937,44.8432992 209.398377,42.5256181 M182.169453,71.5821954 C181.598679,71.5225201 181.045521,71.4400279 180.501172,71.344372 C181.045521,71.4400279 181.598679,71.5225201 182.169453,71.5821954 C183.151572,71.6857494 184.173328,71.7366489 185.236483,71.7366489 C184.173328,71.7366489 183.151572,71.6857494 182.169453,71.5821954 M195.934976,69.3628029 C193.7382,70.5501647 191.182929,71.2917173 188.270042,71.5883384 C191.182929,71.2917173 193.7382,70.5501647 195.934976,69.3628029 C196.666941,68.9670156 197.353984,68.5370029 197.995224,68.071887 C197.353984,68.5370029 196.666941,68.9670156 195.934976,69.3628029 M206.861602,58.6914656 C206.861602,58.6914656 206.860722,58.6923431 206.860722,58.6932207 C206.70922,58.9679023 206.546267,59.2338082 206.37803,59.4962037 C206.302279,59.6164318 206.223886,59.7357823 206.144611,59.8542552 C206.078549,59.9507887 206.009845,60.0446894 205.942022,60.1403453 C204.51861,62.1543847 202.625718,63.8103727 200.246611,65.0960231 C197.31787,66.6791722 193.751412,67.4698691 189.548999,67.4698691 C185.296379,67.4698691 181.697331,66.6458243 178.751854,64.9968569 C175.806378,63.3487671 173.617529,61.1811517 172.18707,58.4931331 C170.75485,55.8068697 170.039621,52.9292944 170.039621,49.8630401 C170.039621,46.7801118 170.751327,43.8990262 172.173858,41.2197834 C173.18064,39.3250945 174.578509,37.6954338 176.350727,36.3202705 L176.350727,36.3202705 L176.351608,36.3193929 C176.558602,36.1587963 176.77088,36.00171 176.988444,35.8472565 C177.163728,35.7226405 177.341655,35.5997797 177.523985,35.4795517 C177.634969,35.4067128 177.747715,35.335629 177.861341,35.2654229 C178.145847,35.0855196 178.436519,34.9091266 178.738642,34.7415093 C178.738642,34.7415093 178.739523,34.7415093 178.739523,34.7406318 C179.602731,34.2614747 180.527596,33.8612995 181.500907,33.5216772 C183.860636,32.700265 186.538342,32.2799056 189.548999,32.2799056 C191.534378,32.2799056 193.38587,32.4641968 195.103478,32.831024 C196.134042,33.0512959 197.116162,33.337386 198.049835,33.690172 C199.918064,34.3948664 201.537019,35.2873623 202.906701,36.3676597 C203.134834,36.547563 203.355921,36.7327318 203.570843,36.923166 C203.784883,37.1136002 203.992757,37.3092999 204.193585,37.510265 C205.681298,39.0003909 206.829893,40.720442 207.64994,42.6633977 C207.71424,42.8160961 207.781183,42.9679169 207.84196,43.1241257 C207.908022,43.2952532 207.967037,43.4681359 208.028695,43.640141 C208.157295,44.0060906 208.27973,44.3737954 208.384548,44.7467657 C208.46206,45.0205697 208.533407,45.2961289 208.598588,45.5734433 C208.92097,46.9600151 209.083041,48.3895882 209.083041,49.8630401 C209.083041,51.3751054 208.911281,52.8283731 208.580091,54.2272309 C208.211025,55.7849303 207.642013,57.2750561 206.861602,58.6914656" stroke="none" fill="#FEFEFE" fill-rule="evenodd"></path>
    <polygon stroke="none" fill="#FEFEFE" fill-rule="evenodd" points="90.4177662 72.9408602 93.3244866 68.6223034 87.8845154 68.3441114"></polygon>
    <polygon stroke="none" fill="#FEFEFE" fill-rule="evenodd" points="124.695927 51.3009501 127.746222 45.4685728 123.649508 43.6054767"></polygon>
    <polygon stroke="none" fill="#FEFEFE" fill-rule="evenodd" points="124.695927 69.828182 128.172541 65.319191 123.974532 66.7566622"></polygon>
    <polygon stroke="none" fill="#FEFEFE" fill-rule="evenodd" points="165.762337 72.7686796 170.073973 68.8476652 162.28132 68.4553882"></polygon>
    <path d="M209.115015,35.5184283 L209.115015,37.0164524 L209.115015,71.2919806 L209.115015,72.7689428 L211.718732,72.7689428 L221.99531,72.7689428 L222.495618,72.7689428 L226.82487,68.8479284 L226.838963,68.8479284 L226.82487,68.8479284 L226.82487,67.0252008 L226.82487,61.0366148 L238.045692,72.3319095 L239.115893,72.7689428 L239.841692,72.7689428 L249.074494,72.7689428 L249.651433,72.7689428 L253.980685,68.8479284 L253.980685,31.205137 L253.386129,31.205137 L243.036442,31.205137 L241.389301,31.205137 L241.38842,31.1998715 L241.383135,31.205137 L240.206354,31.205137 L240.206354,31.1024605 L235.877102,35.5184283 L235.877102,37.0164524 L235.877102,42.9243014 L225.869176,31.6746407 L225.964305,31.205137 L225.240267,31.205137 L216.031248,31.205137 L213.444267,31.205137 L213.444267,31.0998277 L209.115015,35.5184283 Z M242.174115,32.7733672 L252.406652,32.7733672 L252.406652,66.8874212 L244.153328,66.8874212 L225.251718,47.9335114 L225.251718,66.8874212 L215.0183,66.8874212 L215.0183,35.5184283 L215.0183,32.7733672 L225.240267,32.7733672 L242.174115,51.7421959 L242.174115,32.7733672 Z" stroke="none" fill="#FEFEFE" fill-rule="evenodd"></path>
    <path d="M4.35928787,31.2028553 L8.80824366e-05,35.5187794 L0.133973386,35.5187794 L0.133973386,37.0168035 L0.133973386,71.2914541 L0.133973386,72.7684163 L1.63754058,72.7684163 L11.7150521,72.7684163 L13.5145763,72.7684163 L13.5145763,72.7736818 L17.6104096,68.8482795 L17.8438281,68.8482795 L17.8438281,67.0255519 L17.8438281,61.3985276 L19.8776515,63.9513993 L20.3030897,64.5349881 L21.0975933,64.5349881 L21.9158791,64.5349881 L22.6681031,64.5349881 L22.6654607,64.539376 L22.6698648,64.5349881 L22.7112635,64.5349881 L22.8689311,64.3708812 L27.0273029,60.2831271 L26.9903083,60.2216967 L27.0228988,60.2216967 L27.5469893,59.6600474 L29.6512787,57.1554424 L29.6512787,71.2914541 L29.6512787,72.7684163 L31.2737572,72.7684163 L41.6489874,72.7684163 L43.4256101,72.7684163 L43.4256101,72.3770169 L46.9674049,72.3770169 L46.9674049,68.8482795 L47.7548619,68.8482795 L47.7548619,67.0255519 L47.7548619,65.8171282 L47.879939,65.9066411 L47.7548619,65.5424466 L47.7548619,32.7500237 L47.7548619,31.205488 L45.9606227,31.205488 L36.5534184,31.205488 L35.7659615,31.205488 L35.758034,31.1563437 L35.7571532,31.2063656 L31.4631344,35.5187794 L31.4543262,35.5187794 L30.9531371,36.0418153 L25.5404714,42.5534373 L16.6467878,31.7750355 L16.1464795,31.205488 L15.3563801,31.205488 L5.94917585,31.205488 L4.46322514,31.205488 L4.46322514,31.1326491 L4.35928787,31.2028553 Z M36.5534184,32.7737182 L45.7862194,32.7737182 L45.7862194,66.8877723 L35.5545636,66.8877723 L35.5545636,47.1677376 L26.2275144,58.6534665 L25.4092286,58.6534665 L15.8760665,47.1677376 L15.8760665,66.8877723 L6.03637746,66.8877723 L6.03637746,32.7737182 L15.3563801,32.7737182 L25.9306766,45.6328553 L36.5534184,32.7737182 Z" stroke="none" fill="#FEFEFE" fill-rule="evenodd"></path>
    <polygon stroke="none" fill="#FEFEFE" fill-rule="evenodd" points="66.3269556 53.9476349 68.5572029 53.9476349 68.6223839 53.9476349 76.385089 53.9476349 71.3467736 41.5185106"></polygon>
    <path d="M60.1540503,35.4402362 L60.1963299,35.5183406 L60.1655011,35.5183406 L59.7259697,36.4257553 L44.5097288,70.5678918 L43.4738793,72.7688551 L46.0361974,72.7688551 L56.6598201,72.7688551 L57.7793479,72.7688551 L57.7907986,72.8337958 L62.101553,68.6319567 L62.0953872,68.6538961 L62.5155405,67.6920717 L63.1937752,66.1036571 L73.3285404,66.1036571 L75.7129319,71.868461 L76.1330852,72.7688551 L77.2605404,72.7688551 L87.884163,72.7688551 L90.4429578,72.7688551 L89.4106317,70.6091379 L88.5544704,68.8478407 L92.1957983,68.8478407 L94.7545931,68.8478407 L93.7222669,66.4353813 L78.5571138,32.1782822 L78.1184633,31.2050492 L77.0306452,31.2050492 L65.5631928,31.2050492 L64.4771363,31.2050492 L64.4648048,31.1734564 L64.4700897,31.1216794 L60.1540503,35.4402362 Z M65.5631928,32.774157 L77.0306452,32.774157 L79.2608925,37.8026737 L92.1957983,66.8873335 L81.5730564,66.8873335 L78.7685117,60.2212579 L63.8262071,60.2212579 L61.3502098,66.1036571 L61.3907278,66.1036571 L61.2163245,66.3607872 L60.9714554,66.8873335 L50.3478327,66.8873335 L65.5631928,32.774157 Z M92.1350214,66.8873335 L92.1957983,66.8873335 L92.1350214,66.8873335 Z" stroke="none" fill="#FEFEFE" fill-rule="evenodd"></path>
    <path d="M126.588643,54.36738 C125.569529,55.0080113 124.528394,55.568783 123.570058,56.0347765 C122.650477,56.4814632 121.465768,56.8983123 120.083755,57.2730377 C118.745783,57.6363546 117.288899,57.8206458 115.772119,57.8206458 C113.982284,57.8206458 112.360687,57.4546962 110.962818,56.7333278 C109.567593,56.0137146 108.511484,55.079095 107.73812,53.8759368 C106.979731,52.6955956 106.610665,51.4318846 106.610665,50.0110873 C106.610665,49.0018737 106.771856,48.0909487 107.102165,47.2598832 C107.103046,47.2590056 107.104808,47.2590056 107.105689,47.258128 C108.616302,46.5701076 110.27049,46.2217095 112.021569,46.2217095 C114.036895,46.2217095 115.793259,46.5306166 117.242215,47.1414103 C118.816248,47.8048586 120.382354,48.6508429 122.006594,49.6556686 L124.499327,51.2326746 L124.499327,48.2436471 L124.499327,44.3673891 C125.285903,44.6885823 125.682274,45.0246943 126.271546,45.3888888 L128.828579,46.9658949 L128.828579,43.9768673 L128.828579,34.8772705 L128.828579,33.6986845 L127.760139,33.3090403 C122.657524,31.5231709 118.027911,30.6183889 113.952336,30.6183889 C111.188309,30.6183889 108.530862,30.9948695 106.02844,31.7381773 C103.47493,32.4972815 101.169813,33.6907863 99.1659377,35.2844663 C97.9019547,36.2892921 96.80709,37.4643678 95.8857477,38.7921419 C95.5351796,39.0352307 95.1916581,39.2853402 94.8587065,39.5503685 C92.8169556,41.1738861 91.2085704,43.2370698 90.0784727,45.681122 C88.9554216,48.1067451 88.3864091,50.9492172 88.3864091,54.1295566 C88.3864091,56.9027002 88.8655775,59.4950629 89.8107021,61.8346834 C90.7681582,64.2067743 92.2276841,66.3059386 94.1478813,68.0733789 C96.0539852,69.8294106 98.3300354,71.1738587 100.911732,72.0698649 C103.452029,72.9518299 106.346418,73.3985166 109.514743,73.3985166 C111.196237,73.3985166 112.848663,73.2984729 114.42622,73.1018956 C116.023154,72.901808 117.629778,72.5621857 119.20293,72.0926819 C120.784891,71.6196679 122.419701,70.9807918 123.931196,70.1927276 L124.893056,69.7258565 L124.893056,68.7201532 L124.893056,67.4169512 C126.07336,67.00449 127.204339,66.5069038 128.318582,65.9259478 L129.222308,65.4599543 L129.222308,64.4533734 L129.222308,55.7732585 L129.222308,52.7596588 L126.588643,54.36738 Z M90.2713732,50.9641361 C90.1630318,51.7170972 90.0952084,52.4981408 90.0687836,53.309022 C90.0952084,52.4981408 90.1630318,51.7170972 90.2713732,50.9641361 L90.2713732,50.9641361 Z M127.253665,64.4533734 C126.860817,64.705238 126.358747,64.9334081 125.868128,65.1501696 C125.518441,65.3230523 125.242743,65.4862817 124.893056,65.6389801 L124.893056,65.5880806 C124.279121,65.8276591 123.660782,66.0470534 123.035397,66.2339773 C121.545923,66.6789089 120.044118,66.9965918 118.530861,67.1861485 C117.015843,67.3748275 115.447976,67.4704834 113.826378,67.4704834 C110.831576,67.4704834 108.146823,67.0580222 105.77212,66.2339773 C103.397418,65.4099324 101.33717,64.1936106 99.5922567,62.5858894 C97.8455819,60.9790457 96.5393194,59.0992756 95.6699458,56.9483342 C94.8014529,54.7965152 94.3672065,52.4349553 94.3672065,49.8627768 C94.3672065,46.9123627 94.8798463,44.3278981 95.9060067,42.1102609 C96.9321671,39.8935011 98.36703,38.0505893 100.212357,36.5832804 C100.266087,36.5402791 100.32246,36.5016657 100.37619,36.459542 C100.371786,36.4612972 100.367382,36.4621747 100.362978,36.4639299 C100.471319,36.3796825 100.583184,36.3007006 100.694168,36.2190859 C100.788416,36.1488797 100.881784,36.077796 100.977793,36.009345 C101.111679,35.9136891 101.249087,35.822421 101.385615,35.731153 C101.491314,35.6600693 101.596132,35.5872304 101.703593,35.5179018 C101.833955,35.434532 101.96784,35.35555 102.099964,35.2756905 C102.217113,35.2046068 102.332501,35.1326455 102.451413,35.0641944 C102.580013,34.990478 102.712137,34.9211494 102.843379,34.8500656 C102.968456,34.7816146 103.092653,34.712286 103.220372,34.6464677 C103.350734,34.5797719 103.48462,34.5183415 103.616743,34.4542784 C103.747986,34.3910928 103.877467,34.3252745 104.010472,34.2647217 C104.150523,34.2015362 104.294097,34.1436161 104.43591,34.0830633 C104.565391,34.0286535 104.69223,33.9707334 104.822592,33.9189563 C104.989948,33.8522605 105.161709,33.7908301 105.332589,33.7285221 C105.44093,33.6890311 105.54751,33.6460299 105.657613,33.6082941 C105.940358,33.5100054 106.226626,33.4178598 106.517298,33.3309797 C108.875265,32.6306732 111.36007,32.2805199 113.975238,32.2805199 C114.005186,32.2805199 114.035134,32.2822751 114.065082,32.2831527 C117.948636,32.2954387 122.531566,33.1589746 127.253665,34.8772705 L127.253665,43.9768673 L127.253665,43.9768673 L127.253665,43.9768673 C127.251903,43.9759897 127.250142,43.9751122 127.24838,43.973357 C126.490871,43.5047308 125.737766,43.0764732 124.988185,42.6771756 C124.831398,42.6096022 124.671088,42.5429064 124.499327,42.4770881 L124.499327,42.4209231 C123.730368,42.026891 122.96405,41.6644517 122.203899,41.3432585 C120.540903,40.642952 118.583711,40.2927987 116.334085,40.2927987 C114.331091,40.2927987 112.461101,40.688586 110.724115,41.4792829 C108.986249,42.2708575 107.58838,43.4002992 106.529629,44.8676081 C105.746577,45.9522933 105.255077,47.1730031 105.050725,48.5279821 C105.015492,48.7640503 104.988187,49.0036289 104.969689,49.2467177 C104.969689,49.250228 104.968809,49.2537383 104.968809,49.2572486 C104.950311,49.5047254 104.940622,49.7557124 104.940622,50.0110873 L104.940622,50.0110873 C104.940622,50.2497883 104.952073,50.484979 104.969689,50.7184145 C105.011969,51.2888396 105.10974,51.8417131 105.257719,52.3787903 C105.488495,53.2159989 105.844348,54.014594 106.330563,54.771943 C107.25719,56.2146798 108.544075,57.3599178 110.190335,58.2094125 C111.425251,58.8456559 112.778197,59.2440758 114.250936,59.4029173 C114.741555,59.4564495 115.245386,59.4827768 115.76243,59.4827768 C117.434235,59.4827768 119.014434,59.2809341 120.503908,58.8763711 C120.821886,58.7903685 121.124008,58.7008556 121.420846,58.6104652 C121.5424,58.573607 121.661311,58.5358711 121.780222,58.4972577 C121.934367,58.4481134 122.083226,58.397214 122.232085,58.3463145 C122.593223,58.2225761 122.941149,58.0953274 123.267054,57.9645685 L123.267054,57.9645685 C123.618503,57.8232785 123.955859,57.6784783 124.264147,57.5292902 C124.878082,57.2300364 125.504348,56.894802 126.140303,56.5297299 C126.512011,56.2919065 126.882838,56.0409195 127.253665,55.7732585 L127.253665,55.8645265 C127.303872,55.8338113 127.253665,55.8048513 127.253665,55.7732585 L127.253665,64.4533734 Z" stroke="none" fill="#FEFEFE" fill-rule="evenodd"></path>
    <path d="M170.074413,68.8479284 L168.97074,66.4047538 L165.495888,58.9207765 C164.186983,56.0862025 163.152895,54.1994117 162.337252,53.1989739 C162.021036,52.8119624 161.672229,52.4337266 161.293475,52.0862061 C161.464355,51.9694884 161.630831,51.8466276 161.792902,51.7281547 C162.742431,51.0339912 163.589784,50.0045933 164.385169,48.5864287 C165.192884,47.1463247 165.602468,45.3955584 165.602468,43.3850293 C165.602468,41.6553249 165.140916,39.8299646 164.231024,37.9607254 C163.294708,36.037954 161.767359,34.4539273 159.692136,33.1375617 C157.607225,31.8168082 154.950659,31.205137 151.796427,31.205137 L134.149111,31.205137 L132.422695,31.205137 L132.423576,31.2068921 L129.439343,35.5184283 L128.041474,35.5184283 L128.041474,37.0164524 L128.041474,71.2919806 L128.041474,72.7689428 L129.836594,72.7689428 L140.211825,72.7689428 L141.815806,72.7689428 L141.815806,72.9427031 L141.85192,72.9655201 L146.171482,68.6855767 L146.145058,68.6829439 L146.145058,67.0252008 L146.145058,62.7154198 C146.538786,63.5596489 147.183549,64.6162517 147.748158,65.883473 L150.46462,71.8729366 L150.916483,72.7689428 L152.001659,72.7689428 L163.146729,72.7689428 L165.762778,72.7689428 L164.659105,70.5785104 L163.770353,68.8479284 L167.458365,68.8479284 L170.074413,68.8479284 Z M146.192622,59.8115172 L146.192622,59.8115172 C146.332673,59.9721138 146.473605,60.1406086 146.615418,60.3240222 C146.473605,60.1406086 146.332673,59.9721138 146.192622,59.8115172 L146.192622,59.8115172 Z M156.314175,66.8874212 L153.608282,60.8725079 C152.615593,58.6469724 151.722437,57.05417 150.927934,56.0230169 C150.13343,54.9927414 149.360066,54.3055986 148.606962,54.0168757 C147.853857,53.7281528 146.882308,53.5552702 145.690552,53.5552702 L144.571024,53.5552702 L144.571024,60.4337193 C144.571024,60.4486382 144.554289,60.4574139 144.571024,60.4732103 L144.571024,66.8874212 L134.338488,66.8874212 L134.338488,32.7733672 L151.796427,32.7733672 C154.64237,32.7733672 156.975674,33.3394044 158.796338,34.4934183 C160.616121,35.6474322 161.888031,37.0427797 162.690462,38.6908695 C163.492893,40.3398368 163.854912,41.9001689 163.854912,43.3841517 L163.854912,43.3850293 L163.854912,43.3867845 C163.854912,45.1173665 163.559836,46.5794099 162.889529,47.7746699 C162.80585,47.9229804 162.74155,48.0660255 162.656991,48.2038051 C162.654349,48.2090706 162.660514,48.214336 162.657872,48.2196015 C162.580359,48.345095 162.508132,48.4662006 162.430619,48.583796 C162.408599,48.6171439 162.38834,48.6478591 162.366319,48.6803295 C162.307304,48.7672096 162.25005,48.851457 162.191035,48.9330717 C162.158445,48.9778281 162.127616,49.0199518 162.095025,49.0629531 C162.045699,49.1278938 161.997254,49.1919569 161.947928,49.2533873 C161.909171,49.3034092 161.869534,49.3507983 161.829897,49.3990651 C161.787617,49.4482094 161.746219,49.4973537 161.703939,49.5447429 C161.659017,49.5965199 161.613214,49.6474194 161.567411,49.6965637 C161.531298,49.7342995 161.495184,49.7711578 161.459951,49.808016 C161.408863,49.8597931 161.357775,49.9115701 161.306687,49.9607144 C161.276739,49.9887969 161.246791,50.0151242 161.215962,50.0423291 C161.15959,50.0941061 161.134046,50.1458832 161.076792,50.1932723 C161.07415,50.1959051 161.100574,50.1985378 161.100574,50.200293 L161.100574,50.1994154 C161.100574,50.2634785 160.915601,50.3257865 160.838089,50.3819514 C160.092911,50.9260492 159.242035,51.4455748 158.315408,51.9405283 C158.91613,52.2889264 159.448148,52.6759379 159.935244,53.0954198 C159.935244,53.0945422 159.931721,53.0936646 159.932601,53.092787 C160.018922,53.1673811 160.094673,53.2472406 160.178351,53.3235898 C160.284931,53.4218784 160.395034,53.5184119 160.495448,53.6202109 C160.689229,53.8159106 160.872441,54.0168757 161.04244,54.225739 C161.762954,55.107704 162.742431,56.8242448 163.983513,59.5113858 L167.458365,66.8874212 L167.394065,66.8874212 L167.458365,66.8874212 L156.314175,66.8874212 Z" stroke="none" fill="#FEFEFE" fill-rule="evenodd"></path>
    <path d="M151.796427,40.3236894 C150.754411,39.6970994 149.057944,39.4399693 146.707904,39.4399693 L144.571024,39.4399693 L144.571024,45.3706352 C144.571024,45.3715128 144.554289,45.3723904 144.571024,45.3741455 L144.571024,47.6742751 L146.758111,47.6742751 C149.289601,47.6742751 151.023063,47.354837 151.957618,46.802841 C152.892172,46.2499675 153.35989,45.1977526 153.35989,43.6312775 C153.35989,42.0481284 152.839323,40.9502795 151.796427,40.3236894 L151.796427,40.3236894 Z M146.192622,45.925264 L146.192622,45.7532588 C146.347647,45.8138117 146.470963,45.8726093 146.566092,45.925264 L146.192622,45.925264 Z M147.483911,44.5343043 C147.185311,44.354401 146.825054,44.2034577 146.418113,44.0753315 C146.825054,44.2034577 147.185311,44.354401 147.484791,44.5343043 C147.744635,44.6913906 147.972768,44.8774369 148.168311,45.0941985 C147.972768,44.8774369 147.744635,44.6913906 147.483911,44.5343043 L147.483911,44.5343043 Z" stroke="none" fill="#FEFEFE" fill-rule="evenodd"></path>
    <path d="M74.498099,0.573855634 L68.4336232,0.573855634 L68.4336232,17.0082417 C68.4336232,18.8292141 68.3851779,19.9323285 68.289168,20.3175849 C68.1632101,20.809028 67.9500506,21.1732225 67.6505704,21.4092908 C67.3510901,21.645359 66.9591232,21.7971798 66.4755507,21.8647533 C65.9919781,21.9314491 65.3683544,21.975328 64.6037989,21.9946347 L65.5180946,26.8221862 C66.243013,26.9573331 66.9688123,27.0249065 67.6937307,27.0249065 C69.6667773,27.0249065 71.1518472,26.6080574 72.1480596,25.7743592 C73.1442719,24.940661 73.7846312,23.9024873 74.0700183,22.6598381 C74.3554054,21.4163114 74.498099,19.9033685 74.498099,18.1210094 L74.498099,0.573855634 Z M95.0327574,16.5747186 L85.9364842,16.5747186 L85.9364842,12.2956528 L94.3800666,12.2956528 L94.3800666,8.26318605 L85.9364842,8.26318605 L85.9364842,4.5922811 L94.7861266,4.5922811 L94.7861266,0.573855634 L79.8728893,0.573855634 L79.8728893,20.6071853 L95.0327574,20.6071853 L95.0327574,16.5747186 Z M121.856502,0.573855634 L117.127356,12.1368113 L112.528572,0.573855634 L106.217465,0.573855634 L115.111149,20.8669481 L119.114496,20.8669481 L128.181702,0.573855634 L121.856502,0.573855634 Z M151.168575,6.63703571 C150.685003,5.3891211 149.974177,4.29566005 149.036099,3.35665257 C148.098021,2.41676751 146.900981,1.67258214 145.445859,1.12321889 C143.989857,0.573855634 142.333907,0.299174006 140.477129,0.299174006 C137.990562,0.299174006 135.885392,0.778331094 134.158976,1.73752285 C132.43256,2.6967146 131.153603,3.95867045 130.321224,5.52426797 C129.489726,7.09074306 129.073977,8.77393591 129.073977,10.5756017 C129.073977,12.3684916 129.492368,14.0499293 130.329151,15.6207923 C131.165054,17.1907777 132.444011,18.457999 134.166022,19.4215787 C135.887153,20.3851583 137.990562,20.8669481 140.477129,20.8669481 C142.932867,20.8669481 145.017779,20.404465 146.72922,19.4794988 C148.441543,18.5545325 149.730189,17.3066179 150.596039,15.7357549 C151.461009,14.1657695 151.894374,12.4457184 151.894374,10.5756017 C151.894374,9.19780564 151.652148,7.88495032 151.168575,6.63703571 L151.168575,6.63703571 Z M145.10498,13.2425584 C144.698039,14.0183366 144.103483,14.6256199 143.32043,15.0635309 C142.536496,15.5023194 141.588729,15.7217137 140.477129,15.7217137 C138.861697,15.7217137 137.587144,15.2469445 136.654351,14.2982837 C135.720677,13.3487453 135.25384,12.1078513 135.25384,10.5756017 C135.25384,9.04422965 135.718035,7.80596839 136.646424,6.86169544 C137.574813,5.9174225 138.852008,5.44440845 140.477129,5.44440845 C141.328005,5.44440845 142.077587,5.57253471 142.724993,5.82790964 C143.373279,6.08328457 143.922033,6.43958087 144.372134,6.8976761 C144.821355,7.35489377 145.15783,7.89460367 145.379797,8.51592825 C145.602646,9.1381304 145.71363,9.82439568 145.71363,10.5756017 C145.71363,11.5786723 145.51104,12.4667803 145.10498,13.2425584 L145.10498,13.2425584 Z M173.545918,0.573855634 L152.756701,0.573855634 L152.756701,5.44440845 L160.126559,5.44440845 L160.126559,20.6071853 L166.176061,20.6071853 L166.176061,5.44440845 L173.545918,5.44440845 L173.545918,0.573855634 Z M192.543538,16.5747186 L183.447265,16.5747186 L183.447265,12.2956528 L191.890847,12.2956528 L191.890847,8.26318605 L183.447265,8.26318605 L183.447265,4.5922811 L192.296907,4.5922811 L192.296907,0.573855634 L177.382789,0.573855634 L177.382789,20.6071853 L192.543538,20.6071853 L192.543538,16.5747186 Z" stroke="none" fill="#FFFFFF" fill-rule="evenodd"></path>
</svg>
