<svg viewBox="0 0 392 94"><path fill="#1D1D1B" d="M63.7 6.5h3.2v19.4H77v2.9H63.7zm25.8-.1h2.2l10 22.5h-3.3l-3-6.6H86l-2.8 6.6h-3.3l9.6-22.5zm4.7 13l-3.6-8.1-3.3 8.1h6.9zm24.5 9.4V6.5h5.6c2.3 0 4.1.6 5.4 1.7 1.3 1.1 2 2.6 2 4.5 0 1.3-.3 2.4-1 3.4-.7.9-1.6 1.7-2.8 2.1.7.5 1.4 1.1 2.1 1.9.7.8 1.6 2.2 2.9 4.2.8 1.3 1.4 2.2 1.9 2.9l1.2 1.6h-3.8l-1-1.5c0-.1-.1-.1-.2-.3l-.6-.9-1-1.6-1.1-1.7c-.7-.9-1.3-1.6-1.8-2.2-.6-.5-1-.9-1.5-1.2-.4-.2-1.2-.4-2.2-.4h-.8v9.7h-3.3v.1zm4.1-19.6h-1v7.1h1.2c1.6 0 2.7-.1 3.3-.4.6-.3 1.1-.7 1.4-1.3.3-.6.5-1.2.5-1.9s-.2-1.3-.6-1.9c-.4-.6-.9-1-1.6-1.2-.5-.3-1.6-.4-3.2-.4zM141 6.5h12.7v2.8h-9.5v6.8h9.2V19h-9.2v6.9h9.8v2.8h-13V6.5zm9.3-6.5l-3.6 4.8h-1.8l2.2-4.8h3.2zm9.5 28.8V6.4h7.1c2.1 0 3.8.6 5.1 1.7 1.3 1.2 1.9 2.7 1.9 4.6 0 1.3-.3 2.5-1 3.5s-1.5 1.7-2.7 2.2c-1.1.5-2.8.7-4.9.7H163v9.7h-3.2zm6.5-19.5H163v7h3.5c1.3 0 2.3-.3 3-.9.7-.6 1.1-1.5 1.1-2.6 0-2.3-1.4-3.5-4.3-3.5zm28.5-2.8h3.2v12.7c0 1.7-.1 3-.4 3.9-.3.9-.6 1.6-.9 2.2-.4.6-.8 1.1-1.4 1.6-1.8 1.5-4.1 2.3-6.9 2.3-2.9 0-5.2-.8-7-2.3-.5-.5-1-1-1.4-1.6-.4-.6-.7-1.3-.9-2.1-.2-.8-.4-2.2-.4-4V6.5h3.2v12.7c0 2.1.2 3.6.7 4.4.5.8 1.2 1.5 2.2 2 1 .5 2.1.7 3.5.7 1.9 0 3.4-.5 4.6-1.5.6-.5 1.1-1.2 1.4-1.9.3-.7.4-2 .4-3.7V6.5h.1zm17.9 22.3h-7.6V6.5h5.9c1.8 0 3.3.2 4.3.7 1 .5 1.8 1.2 2.4 2 .5.9.8 1.9.8 3 0 2.2-1.1 3.8-3.4 4.7 1.6.3 2.9 1 3.9 2s1.4 2.3 1.4 3.7c0 1.1-.3 2.2-.9 3.1-.6.9-1.4 1.6-2.6 2.2-1.1.7-2.5.9-4.2.9zm-1.6-19.5h-2.8V16h2.1c1.7 0 2.9-.3 3.6-1 .7-.7 1.1-1.5 1.1-2.5.1-2.1-1.3-3.2-4-3.2zm.2 9.6h-3V26h3.2c1.7 0 2.9-.1 3.6-.4.6-.3 1.1-.7 1.5-1.3.4-.6.6-1.2.6-1.9s-.2-1.3-.6-1.9c-.4-.6-1-1-1.7-1.3-.8-.2-2-.3-3.6-.3zm14.9-12.4h3.2v19.4h10.1v2.9h-13.3V6.5zm18.7 0h3.2v22.3h-3.2zm33.3 23.8l-3.2 3.1c-1-.1-2-.2-3.1-.5s-2.2-.7-3.3-1.3c-1.1-.5-2.6-1.4-4.5-2.7-2.7-.5-5-1.8-6.7-3.9-1.8-2.1-2.6-4.5-2.6-7.2 0-3.3 1.1-6.1 3.4-8.3 2.3-2.2 5.1-3.3 8.6-3.3s6.3 1.1 8.6 3.3c2.3 2.2 3.4 4.9 3.4 8.2 0 2.8-.9 5.2-2.6 7.3-1.7 2.1-4 3.4-6.7 4l.8.3c2.6 1 4.5 1.5 5.7 1.5.6-.1 1.3-.3 2.2-.5zM266.7 9.2c-2.5 0-4.6.8-6.2 2.4-1.6 1.6-2.5 3.7-2.5 6.1 0 2.4.8 4.4 2.5 6 1.7 1.6 3.7 2.4 6.2 2.4s4.5-.8 6.2-2.4c1.7-1.6 2.5-3.6 2.5-6s-.8-4.5-2.5-6.1c-1.6-1.6-3.7-2.4-6.2-2.4zm34.1-2.7h3.2v12.7c0 1.7-.1 3-.4 3.9-.3.9-.6 1.6-.9 2.2-.4.6-.8 1.1-1.4 1.6-1.8 1.5-4.1 2.3-6.9 2.3-2.9 0-5.2-.8-7-2.3-.5-.5-1-1-1.4-1.6-.4-.6-.7-1.3-.9-2.1-.2-.8-.4-2.2-.4-4V6.5h3.2v12.7c0 2.1.2 3.6.7 4.4.5.8 1.2 1.5 2.2 2 1 .5 2.1.7 3.5.7 1.9 0 3.4-.5 4.6-1.5.6-.5 1.1-1.2 1.4-1.9.3-.7.4-2 .4-3.7V6.5h.1zm10.3 0h12.7v2.8h-9.5v6.8h9.2V19h-9.2v6.9h9.8v2.8h-13zM7.2 43.8L.1 92.9h36.8l1.2-8.8H14L15.6 72H33l1.3-8.8H17l1.5-10.6h19.9l1.3-8.8zm72.7 23.4c0 .7-.1 2-.4 4l-3.2 21.7H64.6l3.3-22.5c0-.3.1-.7.1-1.2 0-2.3-1-3.4-3-3.4-1.2 0-2.4.4-3.6 1.2-1.2.8-2.8 2.2-4.8 4.1l-3.2 21.8H41.5l5.4-36.1h11.8l-.6 4.2c2.2-1.6 4.1-2.8 5.7-3.6 1.6-.8 3.7-1.3 6.1-1.3 3.7 0 6.3 1.1 7.8 3.4 1.4 2.4 2.2 4.9 2.2 7.7m72.9-23.4L135.9 75l-7.7-31.2H115L98.8 92.9h12.4l10.6-32.4 8.1 32.4h7.6l17-31.4 1.4 31.4h12l-2.3-49.1zm59.4 13.5l-5.5 35.6H195l.6-3.3c-1.4 1.2-2.7 2.2-4 2.9-1.3.7-2.9 1-4.9 1-2.6 0-4.8-.7-6.8-2.1-2-1.4-3.5-3.3-4.5-5.7-1.1-2.4-1.6-5-1.6-7.8 0-2.3.4-4.7 1.2-7.2.8-2.4 2.1-4.8 4.1-7 2-2.2 4.8-4 8.3-5.4 3.6-1.4 8-2.1 13.3-2.1 2.2 0 4 .1 5.5.2 1.4.2 3.4.5 6 .9zm-12.7 7.6h-2.2c-2.1 0-4.1.6-5.8 1.8-1.8 1.2-3.1 2.8-4.1 4.9-1 2.1-1.5 4.3-1.5 6.7 0 1.6.4 3 1.2 4.2.8 1.1 2 1.7 3.5 1.7.8 0 1.6-.2 2.6-.6 1-.4 2.2-1.1 3.7-2l2.6-16.7zm44.5-5l-5.6 11.4c-.6-1.1-1.3-2.1-2.1-2.8-.8-.8-1.8-1.2-3-1.2-2.3 0-4.4 1.7-6.4 5l-3 20.6h-11.7l5.4-36.1h11.7l-.7 5.2c3.2-3.9 6.1-5.8 8.6-5.8 1.3 0 2.5.3 3.5 1 1.1.6 2.1 1.5 3.3 2.7m31.6-2.4L274 68.7c-2.3-.8-3.8-1.2-4.4-1.3-1.3-.3-2.8-.5-4.2-.5-2.7 0-4.9.5-6.7 1.6-1.7 1-3 2.3-3.8 3.8-.8 1.5-1.2 2.9-1.2 4.1 0 1.6.5 3.1 1.6 4.6 1.1 1.5 3.3 2.2 6.6 2.2 1.7 0 3.3-.2 5-.7 1.7-.5 3.9-1.4 6.6-2.7l-1.9 12.1c-1.5.5-2.7.8-3.6 1-.9.2-1.9.4-3 .5-1.1.1-2.2.2-3.3.2-7.7 0-13-1.9-15.8-5.6-2.8-3.7-4.2-7.7-4.2-11.8 0-2.6.7-5.5 2.1-8.6 1.4-3.1 3.8-5.7 7.2-8 3.4-2.3 8.1-3.4 13.9-3.4 3.3 0 6.9.4 10.7 1.3m40.3 9.4c0 1.3-.2 3.1-.5 5.3l-3 20.7h-11.8l3.3-22.2c0-.4.1-.7.1-.9 0-1-.3-2-.8-2.8-.5-.8-1.3-1.2-2.3-1.2-1.2 0-2.4.4-3.6 1.3-1.3.9-2.8 2.2-4.7 4l-3.2 21.7h-11.8l7.3-49.1h11.7L294 60.9c2.2-1.6 4.1-2.8 5.8-3.6 1.7-.8 3.7-1.2 5.9-1.2 2.7 0 4.8.6 6.3 1.8 1.5 1.2 2.5 2.6 3.1 4.2.5 1.8.8 3.4.8 4.8m39.4 5.8c0 1.7-.2 3.5-.5 5.3H332c0 5 2.4 7.5 7.3 7.5 2.4 0 4.6-.3 6.5-.9 1.9-.6 4.2-1.4 6.9-2.5l-1.8 8.9c-2.5 1-4.6 1.7-6.1 2.1-1.5.4-3.4.5-5.8.5-4.9 0-8.8-.9-11.6-2.7-2.8-1.8-4.7-4-5.7-6.5s-1.5-5-1.5-7.5c0-3.7.8-7.1 2.5-10.3 1.7-3.2 4-5.7 7-7.5 3-1.9 6.4-2.8 10.1-2.8 2.8 0 5.4.6 7.7 1.8 2.3 1.2 4.2 3 5.6 5.5 1.5 2.4 2.2 5.5 2.2 9.1zm-11.4-1.1v-1.2c0-4.1-1.4-6.1-4.2-6.1-1.7 0-3 .7-4 2s-1.9 3.1-2.7 5.3h10.9zm43 14.6c0 1.3-.3 2.5-1 3.7-.7 1.1-1.6 2-2.7 2.7-1.1.7-2.4 1-3.7 1-1.3 0-2.6-.3-3.7-1s-2-1.6-2.7-2.7c-.7-1.1-1-2.4-1-3.7 0-1.3.3-2.6 1-3.7s1.6-2 2.7-2.7c1.1-.7 2.4-1 3.7-1 1.3 0 2.5.3 3.7 1 1.1.7 2 1.6 2.7 2.7.7 1.1 1 2.3 1 3.7m5-37.7c0 1.2-.1 2.4-.4 3.7-.3 1.3-.7 2.8-1.2 4.7l-5.6 19.6h-7.5l.6-22.8c.2-3.1.6-5.2 1-6.4.4-1 1.1-2 2.2-2.9 1.1-.9 2.6-1.3 4.6-1.3 2.2 0 3.8.5 4.8 1.6 1 1.2 1.5 2.4 1.5 3.8"/></svg>