<svg xmlns:xlink="http://www.w3.org/1999/xlink" viewBox="0 0 253 126"><defs><path id="a" d="M.293.311h17.782v32.408H.293z"/><path id="c" d="M.046.575h18.197V26.18H.046z"/></defs><g fill="none" fill-rule="evenodd"><path d="M0 0h252.45v125.8H0z"/><path fill="#12100B" d="M35.772 52.74h4.03c1.024 0 1.883-.318 2.576-.955.858-.804 1.288-1.995 1.288-3.574V32.215c0-1.523-.43-2.714-1.288-3.573-.72-.637-1.58-.956-2.576-.956h-4.03V52.74zm4.03 2.95h-5.484a1.38 1.38 0 01-1.04-.436 1.43 1.43 0 01-.415-1.018V26.232c0-.387.139-.727.416-1.018.276-.29.623-.436 1.039-.436h5.484c.831 0 1.647.146 2.451.436a6.12 6.12 0 012.16 1.35c.637.61 1.157 1.386 1.559 2.327.4.942.602 2.05.602 3.324v15.996c0 1.302-.202 2.417-.602 3.344-.402.93-.922 1.705-1.558 2.328a5.98 5.98 0 01-2.16 1.371 7.181 7.181 0 01-2.452.436zm24.741-2.514c.29.291.436.645.436 1.06 0 .388-.145.727-.436 1.018-.29.29-.644.436-1.06.436h-11.01c-.414 0-.768-.146-1.059-.436a1.395 1.395 0 01-.436-1.018V26.232c0-.387.145-.727.436-1.018.291-.29.645-.436 1.06-.436h11.01c.415 0 .768.146 1.06.436.29.291.435.63.435 1.018 0 .416-.145.769-.436 1.06-.29.29-.644.436-1.06.436h-9.556v12.755h7.189c.415 0 .761.146 1.038.436.277.291.416.645.416 1.06 0 .388-.14.727-.416 1.018a1.372 1.372 0 01-1.038.436h-7.189v9.307h9.557c.415 0 .768.145 1.06.436m11.197 2.68c-1.94 0-3.573-.554-4.902-1.662-.528-.443-1.046-1.115-1.559-2.015-.513-.9-.768-2.125-.768-3.677 0-.416.145-.761.436-1.039.29-.276.644-.415 1.059-.415.389 0 .721.14.998.415.276.278.415.623.415 1.04 0 .913.13 1.661.394 2.243.264.581.603 1.032 1.02 1.35.414.319.879.54 1.39.665a6.445 6.445 0 001.517.187 9.56 9.56 0 001.184-.104 3.89 3.89 0 001.517-.561c.498-.305.934-.748 1.308-1.33.375-.581.561-1.398.561-2.45 0-1.025-.145-1.926-.437-2.702a7.032 7.032 0 00-1.204-2.077 11.4 11.4 0 00-1.765-1.683 62.315 62.315 0 00-2.12-1.558 56.03 56.03 0 01-2.014-1.496 12.894 12.894 0 01-1.85-1.744c-1.301-1.524-1.967-3.283-1.993-5.277 0-.11.006-.332.02-.665.013-.332.062-.72.146-1.163.248-1.413.803-2.59 1.661-3.532 1.247-1.302 2.922-1.953 5.028-1.953 2.132 0 3.78.651 4.945 1.953.414.471.747 1.012.996 1.62.25.61.401 1.275.457 1.995.055.498.076.92.063 1.267-.015.347-.035.547-.063.602-.083.36-.18.68-.29.956a2.55 2.55 0 01-.499.582c-.194.166-.485.222-.873.166-.388-.055-.664-.2-.83-.436a1.988 1.988 0 01-.333-.728 2.181 2.181 0 01-.042-.955 3.808 3.808 0 000-1.122 10.26 10.26 0 00-.249-1.018 2.923 2.923 0 00-.54-1.018c-.555-.664-1.468-.997-2.742-.997s-2.23.36-2.868 1.08a3.016 3.016 0 00-.684 1.039 5.643 5.643 0 00-.312 1.039c-.083.388-.111.762-.083 1.122v.124c0 .693.11 1.316.332 1.87.22.554.534 1.067.935 1.537.4.471.886.936 1.454 1.392.567.457 1.211.949 1.932 1.476a34.754 34.754 0 012.347 1.682 13.913 13.913 0 012.14 2.098c1.496 1.829 2.243 4.003 2.243 6.523 0 1.275-.214 2.375-.643 3.303-.43.928-.998 1.69-1.704 2.285a7.057 7.057 0 01-2.41 1.33c-.9.29-1.807.436-2.72.436m29.312-17.076a7.628 7.628 0 00.956-2.182 9.54 9.54 0 000-4.985 7.65 7.65 0 00-.956-2.181c-.332-.554-.7-.977-1.1-1.268-.402-.29-.783-.436-1.143-.436h-4.695v12.755h4.695c.36 0 .74-.145 1.142-.436.402-.29.769-.713 1.101-1.267m2.494-10.927c.553.887.982 1.869 1.287 2.95a12.187 12.187 0 010 6.606 11.335 11.335 0 01-1.287 2.95c-.638.97-1.365 1.718-2.182 2.244-.817.526-1.669.789-2.555.789h-4.695v10.885c0 .416-.139.762-.415 1.039a1.413 1.413 0 01-1.039.416 1.43 1.43 0 01-1.018-.416 1.374 1.374 0 01-.436-1.039V26.316c0-.582.25-1.011.747-1.289.194-.166.443-.249.749-.249h6.107c.886 0 1.738.27 2.555.81.817.54 1.544 1.295 2.182 2.265m9.347 12.672h4.696c.36 0 .74-.152 1.142-.458.401-.304.77-.719 1.101-1.246.415-.636.74-1.363.977-2.18a9.042 9.042 0 00.352-2.514c0-.831-.117-1.655-.352-2.473a8.091 8.091 0 00-.977-2.181c-.332-.554-.7-.976-1.1-1.267-.403-.29-.784-.436-1.143-.436h-4.696v12.755zm12.008 13.17c.166.389.18.769.042 1.143-.14.374-.403.63-.79.769-.111.055-.215.09-.312.103a1.955 1.955 0 01-.27.022 1.57 1.57 0 01-.81-.208c-.235-.138-.422-.36-.56-.666l-4.986-11.425h-4.322v10.844c0 .416-.145.762-.435 1.039a1.484 1.484 0 01-1.06.416 1.43 1.43 0 01-1.018-.416 1.374 1.374 0 01-.436-1.039V26.316c0-.416.145-.769.436-1.06.29-.29.63-.436 1.017-.436h6.192c.885 0 1.737.27 2.555.81.817.54 1.543 1.295 2.181 2.264.554.887.983 1.87 1.288 2.95.304 1.08.457 2.175.457 3.283a12.21 12.21 0 01-.457 3.324 11.387 11.387 0 01-1.288 2.95c-.692 1.052-1.44 1.814-2.244 2.284l4.82 11.01zm6.398-5.276v.457a7.116 7.116 0 00.395 2.244c.152.443.395.83.727 1.163.61.665 1.523.997 2.742.997 1.247 0 2.202-.346 2.868-1.039.304-.332.54-.698.705-1.1.167-.402.285-.782.354-1.143a5 5 0 00.104-.914V32.007c0-1.052-.167-1.876-.499-2.472-.332-.595-.72-1.045-1.163-1.35a3.493 3.493 0 00-1.35-.582c-.458-.083-.797-.124-1.019-.124-1.025 0-1.884.318-2.576.956-.858.803-1.288 1.994-1.288 3.572v16.412zm3.864 7.811c-2.105 0-3.753-.665-4.944-1.994-.914-.997-1.495-2.313-1.745-3.947a7.986 7.986 0 01-.125-1.288c0-.36.014-.609.042-.748V32.007c0-1.273.201-2.381.603-3.323.4-.941.92-1.724 1.557-2.348a5.97 5.97 0 012.161-1.37 7.144 7.144 0 012.451-.437c.5 0 1.178.098 2.036.29.858.195 1.704.652 2.535 1.372.277.25.553.54.83.872.277.333.527.741.749 1.226a9.52 9.52 0 01.56 1.64c.152.61.23 1.303.23 2.078v17.222c0 .347-.043.755-.126 1.226-.277 1.523-.872 2.784-1.787 3.78-1.246 1.33-2.922 1.995-5.027 1.995zm18.24-.124c-2.105 0-3.74-.65-4.903-1.953-.942-1.025-1.537-2.355-1.786-3.99a7.753 7.753 0 01-.105-1.412c.014-.388.02-.609.02-.664.057-.333.14-.637.25-.915.11-.221.27-.422.478-.602.207-.18.506-.242.894-.187.387.056.671.187.851.395.18.207.297.422.353.644.084.277.111.581.084.913-.028.472 0 .942.083 1.414.055.388.159.803.312 1.246a3 3 0 00.726 1.163c.61.693 1.523 1.04 2.743 1.04 1.218 0 2.174-.347 2.866-1.04.305-.332.541-.7.707-1.1.166-.402.283-.783.353-1.143.069-.36.104-.672.104-.935V26.274c0-.388.145-.727.436-1.018.29-.29.63-.436 1.018-.436.416 0 .768.145 1.06.436.29.291.436.63.436 1.018l-.042 22.145c.028.111.035.347.02.707-.013.36-.061.775-.144 1.246a9.258 9.258 0 01-.645 2.098 5.54 5.54 0 01-1.142 1.683c-1.247 1.302-2.923 1.953-5.027 1.953m24.866-2.888c.291.29.436.644.436 1.06 0 .387-.145.727-.436 1.017-.291.29-.643.437-1.06.437h-11.01c-.414 0-.768-.146-1.059-.437a1.395 1.395 0 01-.436-1.018V26.274c0-.388.145-.727.436-1.018.29-.29.645-.436 1.06-.436h11.01c.416 0 .768.145 1.059.436.291.29.436.63.436 1.018 0 .415-.145.768-.436 1.06-.291.29-.643.436-1.06.436h-9.555v12.755h7.187c.416 0 .762.145 1.039.436.277.29.416.644.416 1.06 0 .387-.14.727-.416 1.017a1.375 1.375 0 01-1.039.437h-7.187v9.307h9.555c.417 0 .769.145 1.06.436m18.904-27.962c.291.29.436.644.436 1.06 0 .388-.145.727-.436 1.017-.29.291-.63.437-1.017.437h-5.028v26.507c0 .416-.139.762-.415 1.039a1.414 1.414 0 01-1.04.416 1.43 1.43 0 01-1.017-.416 1.374 1.374 0 01-.436-1.039V27.77h-5.11c-.416 0-.769-.146-1.06-.437a1.392 1.392 0 01-.436-1.017c0-.416.145-.77.436-1.06a1.443 1.443 0 011.06-.436h13.046c.386 0 .727.145 1.017.436m9.744 30.642c-1.94 0-3.574-.554-4.903-1.662-.527-.443-1.046-1.115-1.558-2.015-.513-.9-.77-2.126-.77-3.677 0-.416.147-.762.437-1.039a1.482 1.482 0 011.06-.416c.388 0 .72.14.997.416.276.277.415.623.415 1.039 0 .914.132 1.661.395 2.243.263.582.602 1.033 1.018 1.35.416.32.88.54 1.391.666a6.416 6.416 0 001.518.186c.276 0 .67-.034 1.184-.104a3.892 3.892 0 001.516-.56c.498-.305.934-.749 1.308-1.33.374-.582.562-1.398.562-2.451 0-1.025-.145-1.925-.437-2.701a7.07 7.07 0 00-1.204-2.077 11.436 11.436 0 00-1.767-1.683 62.834 62.834 0 00-2.118-1.558c-.665-.47-1.337-.97-2.015-1.496a12.993 12.993 0 01-1.85-1.745c-1.302-1.523-1.967-3.282-1.993-5.277 0-.11.007-.332.02-.664.014-.333.062-.72.146-1.163.248-1.414.803-2.59 1.66-3.532 1.249-1.302 2.923-1.953 5.03-1.953 2.13 0 3.78.65 4.943 1.953a5.67 5.67 0 01.997 1.62c.25.61.401 1.274.457 1.995.056.498.076.92.063 1.267-.015.347-.036.547-.063.602-.082.36-.18.68-.291.956a2.506 2.506 0 01-.498.581c-.194.166-.485.223-.873.166-.387-.054-.664-.2-.83-.436a2.01 2.01 0 01-.333-.727 2.208 2.208 0 01-.042-.956 3.768 3.768 0 000-1.121 10.082 10.082 0 00-.249-1.018 2.922 2.922 0 00-.54-1.018c-.554-.665-1.468-.997-2.742-.997s-2.23.36-2.867 1.08a3 3 0 00-.685 1.038 5.73 5.73 0 00-.312 1.04c-.082.388-.11.762-.082 1.121v.125c0 .692.11 1.316.331 1.87.221.554.534 1.066.935 1.537a10.7 10.7 0 001.455 1.391c.567.458 1.21.95 1.932 1.476a34.754 34.754 0 012.347 1.682 13.913 13.913 0 012.14 2.099c1.496 1.828 2.243 4.003 2.243 6.523 0 1.274-.215 2.375-.644 3.302-.43.929-.997 1.69-1.703 2.286a7.068 7.068 0 01-2.41 1.33 8.82 8.82 0 01-2.721.436"/><path fill="#E73F5D" d="M150.112 23.132c-2.334 0-4.258-1.925-4.258-4.258s1.924-4.258 4.258-4.258c2.333 0 4.257 1.925 4.257 4.258s-1.924 4.258-4.257 4.258m0-13.357c-5.017 0-9.099 4.083-9.099 9.099 0 5.25 5.716 13.006 9.099 16.506 3.44-3.791 9.099-11.023 9.099-16.506 0-5.016-4.083-9.099-9.1-9.099"/><path fill="#12100B" d="M31.88 89.74c.36-.388.596-.873.707-1.455.11-.581.166-.997.166-1.247l-.042-.125v-.04l.042-16.205c0-.747-.104-1.343-.312-1.786-.208-.443-.457-.79-.747-1.039a2.09 2.09 0 00-.936-.478 4.565 4.565 0 00-.914-.103 3.69 3.69 0 00-.79.103c-.304.07-.595.216-.871.437-.278.221-.52.56-.727 1.017-.208.457-.312 1.06-.312 1.807v16.121l-.042.084c0 .139.007.332.022.582a5.426 5.426 0 00.352 1.64c.11.292.263.534.457.728.056.082.222.215.499.394.277.181.748.27 1.412.27.72 0 1.219-.089 1.496-.27.277-.18.457-.325.54-.436zm5.735 3.49c.442.525.643 1.128.601 1.806-.04.679-.325 1.253-.85 1.725-.5.416-1.054.623-1.663.623-.333 0-.665-.07-.997-.207a2.238 2.238 0 01-.873-.666l-1.288-1.495a6.872 6.872 0 01-1.247.312 9.546 9.546 0 01-1.454.103c-1.468 0-2.652-.25-3.552-.747-.9-.5-1.586-1.011-2.057-1.538a6.843 6.843 0 01-1.267-1.953 10.376 10.376 0 01-.83-3.635c-.015-.485-.008-.824.02-1.018V70.626c0-.83.076-1.577.229-2.243.152-.664.353-1.26.602-1.786.25-.526.52-.983.81-1.371a6.65 6.65 0 01.852-.956c1.468-1.33 3.2-1.994 5.193-1.994.942 0 1.884.166 2.826.498a7.264 7.264 0 012.534 1.538c.748.692 1.357 1.565 1.828 2.617.47 1.053.707 2.3.707 3.74l-.042 16.162v.727c0 .347-.041.755-.125 1.225-.082.472-.207.984-.373 1.538a6.604 6.604 0 01-.748 1.62l1.164 1.288z"/><path fill="#12100B" d="M27.79 89.9c.053.075.172.193.54.432.31.202.806.3 1.514.3.765 0 1.288-.098 1.599-.3.296-.193.481-.344.58-.473.38-.41.631-.93.747-1.539.114-.6.17-1.019.17-1.282 0-.02-.004-.04-.01-.059l-.032-.095.042-16.215c0-.773-.111-1.4-.33-1.866-.218-.466-.485-.836-.794-1.102a2.284 2.284 0 00-1.019-.518 4.761 4.761 0 00-.953-.108c-.235 0-.507.035-.83.108a2.35 2.35 0 00-.948.473c-.299.239-.562.604-.78 1.086-.218.48-.33 1.114-.33 1.884v16.077l-.021.044a.195.195 0 00-.02.084c0 .148.007.347.022.592a5.74 5.74 0 00.365 1.697c.117.308.28.57.487.78m7.914 7.297a2.41 2.41 0 01-.925-.193 2.063 2.063 0 01-.8-.611l-1.292-1.5a.187.187 0 00-.204-.053 6.65 6.65 0 01-1.212.303 9.341 9.341 0 01-1.426.101c-1.429 0-2.593-.243-3.46-.724-.88-.486-1.555-.99-2.009-1.498a6.659 6.659 0 01-1.234-1.901 10.239 10.239 0 01-.613-1.938 9.91 9.91 0 01-.204-1.63c-.014-.472-.007-.803.02-.986a.194.194 0 00.001-.027V70.626c0-.812.076-1.552.224-2.201a8.56 8.56 0 01.59-1.749c.241-.51.507-.96.79-1.338a6.55 6.55 0 01.827-.93c1.426-1.29 3.13-1.945 5.068-1.945a8.29 8.29 0 012.764.487 7.093 7.093 0 012.469 1.499c.725.671 1.326 1.531 1.785 2.557.458 1.024.69 2.256.69 3.662L37.51 86.83v.728c0 .334-.04.735-.12 1.193-.083.461-.207.971-.37 1.516a6.417 6.417 0 01-.727 1.575.186.186 0 00.02.225l1.162 1.287c.411.489.594 1.037.555 1.671-.039.632-.296 1.153-.787 1.595-.462.383-.98.577-1.54.577m21.5-8.351a8.117 8.117 0 01-.227 1.578 10.5 10.5 0 01-.665 1.912 6.764 6.764 0 01-1.288 1.89c-.47.527-1.17 1.04-2.098 1.538-.929.498-2.127.747-3.594.747-1.468 0-2.652-.25-3.552-.747-.9-.499-1.586-1.011-2.057-1.538a6.818 6.818 0 01-1.267-1.953 10.38 10.38 0 01-.624-1.973 8.595 8.595 0 01-.186-1.662V66.182c0-.692.242-1.282.726-1.766a2.406 2.406 0 011.766-.728c.692 0 1.28.243 1.766.728.484.484.727 1.074.727 1.766v22.311c0 .25.027.513.083.79.055.276.139.56.25.85.11.291.262.535.457.728.083.083.263.215.54.395.276.18.733.27 1.371.27.72 0 1.225-.09 1.516-.27.292-.18.478-.312.561-.395.388-.415.624-.914.706-1.495.084-.582.125-.998.125-1.247V66.223c0-.692.242-1.28.728-1.766a2.407 2.407 0 011.765-.727c.692 0 1.28.243 1.765.727.485.485.728 1.074.728 1.766v21.688c0 .166-.007.478-.021.935"/><path fill="#12100B" d="M49.33 96.324c-1.428 0-2.593-.243-3.46-.724-.88-.486-1.555-.99-2.008-1.498a6.675 6.675 0 01-1.235-1.9 10.238 10.238 0 01-.613-1.939 8.472 8.472 0 01-.183-1.625V66.181c0-.647.22-1.18.672-1.633a2.206 2.206 0 011.634-.672c.646 0 1.181.22 1.634.672.452.453.672.987.672 1.633v22.311c0 .262.03.54.087.827.057.286.144.582.258.882.12.314.287.58.5.792.095.094.281.232.57.42.31.201.79.3 1.473.3.763 0 1.292-.098 1.615-.298.305-.188.499-.327.595-.422a2.9 2.9 0 00.758-1.6c.086-.597.127-1.014.127-1.275V66.223c0-.647.22-1.181.672-1.634a2.206 2.206 0 011.634-.672c.646 0 1.18.22 1.633.672.453.453.673.988.673 1.634V87.91c0 .157-.007.46-.021.929a7.955 7.955 0 01-.223 1.542 10.45 10.45 0 01-.654 1.877 6.595 6.595 0 01-1.253 1.838c-.457.512-1.146 1.015-2.05 1.502-.897.482-2.077.725-3.506.725m14.375-32.718c.72 0 1.314.242 1.787.727a2.44 2.44 0 01.706 1.765v27.505c0 .693-.235 1.282-.706 1.766-.473.484-1.066.727-1.787.727a2.41 2.41 0 01-1.766-.727 2.401 2.401 0 01-.726-1.766V66.098c0-.692.241-1.28.726-1.765a2.406 2.406 0 011.766-.727"/><path fill="#12100B" d="M63.706 95.91c-.647 0-1.18-.22-1.634-.673a2.204 2.204 0 01-.672-1.634V66.098c0-.647.22-1.181.672-1.633a2.207 2.207 0 011.634-.673c.672 0 1.213.22 1.653.67.44.454.653.989.653 1.636v27.505c0 .649-.213 1.184-.653 1.636-.44.45-.981.67-1.653.67m34.342-2.285c0 .693-.243 1.282-.728 1.767a2.407 2.407 0 01-1.765.726 2.404 2.404 0 01-1.766-.726 2.402 2.402 0 01-.728-1.767V76.506l-2.617 5.153a2.278 2.278 0 01-1.205 1.329c-.332.166-.679.25-1.039.25h-.165c-.361 0-.708-.084-1.04-.25a2.277 2.277 0 01-1.204-1.33l-2.618-5.152v17.118a2.41 2.41 0 01-.727 1.767 2.407 2.407 0 01-1.765.726 2.404 2.404 0 01-1.766-.726 2.402 2.402 0 01-.727-1.767V65.787c0-.027.006-.041.02-.041s.02-.014.02-.042v-.125c0-.027.007-.048.022-.062.013-.013.021-.034.021-.063.027-.166.082-.317.165-.456 0-.028.007-.042.021-.042.014 0 .021-.014.021-.041l.042-.042.041-.042c0-.027.013-.054.041-.082v-.042l.084-.083c.055-.056.104-.11.145-.167.042-.055.09-.11.146-.166l.083-.083h.041c0-.027.007-.041.02-.041.015 0 .022-.014.022-.042h.041c.028-.027.056-.042.084-.042 0-.027.013-.041.041-.041l.042-.042.083-.04c.027-.028.056-.043.083-.043l.042-.041c.027 0 .055-.014.082-.042.028 0 .048-.006.063-.02.013-.014.035-.022.062-.022.028 0 .048-.005.063-.02.013-.013.034-.02.062-.02.027 0 .055-.014.083-.042h.124l.042-.042h.166c.028-.027.055-.042.083-.042h.54c.028 0 .056.015.083.042h.208c.11.056.207.09.291.104a.647.647 0 01.25.104h.04c0 .028.028.041.084.041 0 .028.014.042.042.042l.041.041c.027 0 .055.014.083.042l.083.083h.042a.959.959 0 01.332.332l.083.083.084.084c0 .028.006.041.02.041s.02.015.02.042l.043.042.04.041c0 .028.015.056.043.083 0 .028.006.049.021.062.013.015.02.035.02.063l5.236 10.262 5.234-10.262c0-.056.014-.097.042-.125.027-.027.041-.055.041-.083.028 0 .042-.013.042-.041l.041-.042c0-.027.014-.055.042-.083l.083-.084.083-.083a.96.96 0 01.333-.332l.083-.083h.042c.026-.028.055-.042.083-.042l.041-.04c.027 0 .042-.015.042-.043.055 0 .083-.013.083-.041h.041a.374.374 0 01.208-.104.727.727 0 00.207-.062c.056 0 .097-.014.125-.042h.208c0-.027.014-.042.042-.042h.54c.055 0 .097.015.124.042h.167l.04.042h.126l.083.041c.027 0 .048.008.062.021.014.015.035.02.062.02.028 0 .055.015.083.042h.042c.028.028.055.042.083.042v.041c.055 0 .097.015.125.042.027.027.055.041.083.041l.041.042.043.041c.026 0 .054.015.082.042l.084.083c.055 0 .082.028.082.083a.96.96 0 01.332.333l.084.083v.042c.027.028.041.055.041.082.028 0 .041.015.041.042l.043.042c0 .027.013.055.04.083.056.139.111.29.167.456 0 .056.014.098.042.125v.125c0 .028.013.056.042.083v27.837z"/><path fill="#12100B" d="M95.554 95.93c-.647 0-1.18-.22-1.633-.672a2.202 2.202 0 01-.672-1.634V76.506a.187.187 0 00-.354-.084l-2.618 5.152a2.08 2.08 0 01-1.119 1.245 2.12 2.12 0 01-.957.231h-.167a2.12 2.12 0 01-.955-.23 2.082 2.082 0 01-1.113-1.225.102.102 0 00-.01-.021l-2.616-5.152a.187.187 0 00-.354.084v17.118c0 .647-.22 1.181-.672 1.634a2.209 2.209 0 01-1.634.672c-.646 0-1.18-.22-1.633-.672a2.202 2.202 0 01-.673-1.634V65.846a.243.243 0 00.042-.142v-.098a.28.28 0 00.04-.133 1.077 1.077 0 01.148-.392.206.206 0 00.045-.073l.044-.044a.19.19 0 00.05-.093.198.198 0 00.042-.082l.032-.034c.065-.063.118-.125.164-.186.038-.05.08-.097.127-.146l.034-.032a.19.19 0 00.127-.1.185.185 0 00.038-.025.19.19 0 00.112-.073.168.168 0 00.022-.02l.02-.02.056-.027a.158.158 0 00.039-.026.19.19 0 00.093-.05l.003-.004a.289.289 0 00.068-.035.26.26 0 00.076-.033.269.269 0 00.125-.041.294.294 0 00.115-.04h.062a.186.186 0 00.118-.042h.09a.186.186 0 00.117-.041h.472a.192.192 0 00.117.041h.165c.112.053.211.086.304.101.056.01.116.035.176.075a.18.18 0 00.05.024c.018.013.04.023.063.032a.224.224 0 00.059.038l.007.007a.194.194 0 00.092.051l.075.074a.18.18 0 00.118.054.779.779 0 01.227.243.161.161 0 00.028.035l.127.128a.2.2 0 00.046.073c.009.018.02.034.035.049l.044.045a.37.37 0 00.036.067c.008.031.02.057.034.078a.178.178 0 00.018.054l5.235 10.262a.186.186 0 00.333 0l5.235-10.262a.183.183 0 00.02-.085v-.007a.338.338 0 00.05-.071.218.218 0 00.054-.074l.008-.007a.188.188 0 00.05-.092l.157-.158a.145.145 0 00.028-.035.772.772 0 01.268-.269.188.188 0 00.037-.028l.033-.033a.191.191 0 00.082-.041.19.19 0 00.093-.05l.007-.008a.224.224 0 00.058-.038.236.236 0 00.064-.032.19.19 0 00.078-.047.192.192 0 01.108-.052.95.95 0 00.22-.062.366.366 0 00.137-.039h.15a.188.188 0 00.118-.041h.472a.185.185 0 00.117.041h.09a.187.187 0 00.118.042h.08l.045.021a.177.177 0 00.051.018c.03.02.07.036.12.041.025.02.055.035.087.04a.187.187 0 00.157.087h.006a.301.301 0 00.109.067l.044.045a.192.192 0 00.092.05l.074.074c.015.014.03.026.048.035a.18.18 0 00.071.076c.112.068.2.156.269.269a.161.161 0 00.028.035l.032.034c.007.03.021.058.041.082.01.046.037.085.074.112a.225.225 0 00.019.022l.003.003c.01.029.026.059.05.089.047.12.094.248.142.391a.367.367 0 00.041.15v.066c0 .04.008.091.041.146v27.774c0 .647-.22 1.181-.672 1.634a2.21 2.21 0 01-1.634.672m11.759-16.764l-1.248 6.107h2.452l-1.204-6.107zm7.935 14.333c.138.693.02 1.323-.353 1.892-.374.566-.907.92-1.6 1.058a1.962 1.962 0 01-.457.042 2.4 2.4 0 01-1.558-.56 2.572 2.572 0 01-.893-1.434l-.872-4.238h-4.446l-.872 4.238a2.373 2.373 0 01-.853 1.433c-.456.374-.976.56-1.557.56-.223 0-.389-.013-.499-.04-.692-.14-1.226-.493-1.6-1.06-.373-.568-.492-1.198-.353-1.89l5.526-27.464v-.124c0-.027.007-.042.02-.042.015 0 .021-.013.021-.041v-.084c.028-.027.042-.054.042-.083 0-.027.006-.042.021-.042.013 0 .02-.013.02-.04v-.042c.084-.222.208-.416.375-.582v-.041c.027 0 .041-.007.041-.021 0-.014.014-.02.041-.02v-.043l.043-.041.04-.041.042-.042.042-.042.042-.041.083-.042a1.61 1.61 0 01.58-.374h.043c.027-.027.055-.041.083-.041.138-.055.263-.09.374-.104.11-.014.235-.035.374-.063h.208c.138.028.262.05.373.063a1.6 1.6 0 01.374.104c.028 0 .055.014.083.04h.041c.222.084.417.209.582.375.028 0 .056.014.084.042l.041.041.041.042.043.042.04.04.042.042.042.042.042.042v.041c.166.166.29.36.374.582v.041c0 .028.006.041.02.041.013 0 .021.015.021.042.055.167.083.291.083.374l5.526 27.463z"/><path fill="#12100B" d="M107.313 78.979a.187.187 0 00-.184.15l-1.246 6.107a.187.187 0 00.182.224h2.452a.187.187 0 00.184-.223l-1.205-6.108a.188.188 0 00-.183-.15zm5.525 17.325a2.2 2.2 0 01-1.44-.518 2.396 2.396 0 01-.829-1.332l-.872-4.233a.186.186 0 00-.182-.149h-4.446a.187.187 0 00-.183.15l-.873 4.238a2.172 2.172 0 01-.787 1.326 2.193 2.193 0 01-1.44.518 2.02 2.02 0 01-.453-.036l-.008-.001c-.648-.13-1.132-.45-1.48-.98-.35-.53-.457-1.102-.327-1.75l5.526-27.464a.19.19 0 00.003-.037v-.065a.243.243 0 00.043-.142v-.02a.292.292 0 00.03-.074.237.237 0 00.052-.156v-.006a1.42 1.42 0 01.32-.484.173.173 0 00.034-.049.186.186 0 00.1-.127l.135-.136.056-.028a.176.176 0 00.048-.035c.14-.139.302-.246.485-.32h.007a.189.189 0 00.123-.044.185.185 0 00.029-.01c.122-.049.232-.08.329-.092.108-.013.229-.033.368-.06h.17c.14.027.261.047.37.06.095.013.206.044.328.092l.03.01a.198.198 0 00.122.045h.007c.183.074.346.18.484.32a.187.187 0 00.093.05l.231.231a.192.192 0 00.05.093c.14.138.246.301.32.484v.006c0 .07.023.125.058.163a1.069 1.069 0 01.07.331l5.526 27.463c.13.65.022 1.222-.326 1.752-.348.528-.833.848-1.48.979l-.009.001a1.826 1.826 0 01-.412.036zm12.588-17.263c.138 0 .326-.09.561-.27.235-.18.506-.491.81-.935a6.36 6.36 0 00.81-1.87 8.37 8.37 0 00.27-2.12c0-.718-.09-1.432-.27-2.139a6.333 6.333 0 00-.81-1.89c-.304-.415-.575-.713-.81-.893-.235-.18-.423-.27-.56-.27h-3.532V79.04h3.531zm8.144 13.545c.304.637.325 1.274.063 1.911a2.477 2.477 0 01-1.351 1.37 2.572 2.572 0 01-.997.209c-.472 0-.914-.132-1.33-.396a2.553 2.553 0 01-.955-1.1l-4.612-10.554h-2.493v9.556c0 .694-.243 1.282-.727 1.766a2.406 2.406 0 01-1.766.728 2.404 2.404 0 01-1.766-.728 2.404 2.404 0 01-.727-1.766v-27.42c0-.693.243-1.282.727-1.767a2.406 2.406 0 011.766-.727h6.024c1.053 0 2.064.298 3.034.893.969.597 1.813 1.448 2.534 2.555 1.246 1.967 1.87 4.212 1.87 6.73 0 1.22-.16 2.398-.478 3.533a11.987 11.987 0 01-1.392 3.158c-.277.415-.568.79-.872 1.121-.306.333-.61.638-.915.915l4.363 10.013z"/><path fill="#12100B" d="M121.895 68.467a.187.187 0 00-.187.187V79.04c0 .103.084.187.187.187h3.532c.182 0 .403-.101.674-.309.254-.194.532-.514.85-.977.372-.572.653-1.22.838-1.929a8.61 8.61 0 00.275-2.166c0-.731-.092-1.467-.275-2.186a6.536 6.536 0 00-.834-1.945l-.007-.01c-.312-.425-.597-.738-.847-.93-.272-.209-.492-.31-.674-.31h-3.532zm9.39 27.422c-.438 0-.84-.12-1.23-.366a2.384 2.384 0 01-.886-1.022l-4.61-10.55a.187.187 0 00-.171-.112h-2.493a.187.187 0 00-.187.187v9.556c0 .648-.22 1.182-.672 1.635a2.208 2.208 0 01-1.633.672c-.648 0-1.182-.22-1.635-.672a2.208 2.208 0 01-.672-1.635v-27.42c0-.647.22-1.182.672-1.635a2.209 2.209 0 011.635-.672h6.024c1.012 0 1.999.291 2.935.865.94.58 1.773 1.42 2.476 2.499 1.22 1.925 1.84 4.156 1.84 6.628 0 1.195-.16 2.366-.472 3.481a11.854 11.854 0 01-1.37 3.11 9.122 9.122 0 01-.852 1.094c-.302.329-.606.632-.902.903a.187.187 0 00-.046.213l4.362 10.012c.287.599.306 1.175.062 1.766a2.281 2.281 0 01-1.253 1.27 2.398 2.398 0 01-.922.193zm20.774-8.123c0 .083-.007.353-.02.81-.016.457-.084.998-.209 1.62-.124.624-.34 1.296-.644 2.015a6.586 6.586 0 01-1.33 1.995c-.47.526-1.17 1.039-2.098 1.537-.928.499-2.126.748-3.594.748-1.467 0-2.652-.25-3.551-.748-.9-.498-1.586-1.01-2.057-1.537a7.165 7.165 0 01-1.288-1.953 9.508 9.508 0 01-.644-1.974 8.604 8.604 0 01-.187-1.66V71.644c0-1.689.276-3.04.831-4.05.553-1.011 1.121-1.794 1.703-2.348a7.58 7.58 0 015.152-1.994c.942 0 1.89.166 2.846.498a7.218 7.218 0 012.555 1.537c.748.693 1.357 1.566 1.829 2.618.47 1.053.706 2.3.706 3.74 0 .72-.242 1.315-.727 1.786a2.44 2.44 0 01-1.766.706c-.693 0-1.282-.235-1.765-.706-.486-.47-.728-1.066-.728-1.787 0-.748-.104-1.343-.311-1.786-.208-.443-.458-.782-.748-1.018a2.392 2.392 0 00-.956-.478 4.035 4.035 0 00-.935-.125 3.54 3.54 0 00-.747.104 2.208 2.208 0 00-.894.457c-.291.236-.54.576-.748 1.018-.207.444-.311 1.053-.311 1.828v16.808a4.99 4.99 0 00.333 1.662c.11.29.262.533.456.726.084.084.263.216.54.396.277.18.748.27 1.412.27.72 0 1.22-.09 1.496-.27.277-.18.458-.326.54-.437.389-.388.63-.872.728-1.454.097-.582.145-1.01.145-1.288V87.6c0-.277.069-.575.208-.894.138-.317.367-.615.686-.893.317-.276.782-.429 1.392-.457.636-.027 1.127.083 1.474.332.346.25.617.528.81.832.222.36.36.775.416 1.246"/><path fill="#12100B" d="M144.165 96.304c-1.43 0-2.594-.243-3.461-.724-.88-.487-1.555-.99-2.009-1.498a7.033 7.033 0 01-1.256-1.904 9.395 9.395 0 01-.631-1.935 8.424 8.424 0 01-.184-1.625V71.646c0-1.651.272-2.984.808-3.962.54-.987 1.102-1.762 1.668-2.302a7.34 7.34 0 012.308-1.436 7.431 7.431 0 012.715-.507c.917 0 1.854.165 2.785.489a7.064 7.064 0 012.49 1.497c.725.672 1.325 1.533 1.784 2.557.458 1.025.69 2.257.69 3.664 0 .673-.22 1.214-.67 1.652-.453.44-.988.654-1.636.654-.649 0-1.184-.214-1.636-.654-.451-.438-.67-.978-.67-1.652 0-.773-.11-1.4-.33-1.866-.218-.467-.487-.832-.798-1.084a2.6 2.6 0 00-1.03-.515 4.24 4.24 0 00-.979-.13 3.69 3.69 0 00-.789.109c-.33.075-.657.241-.97.494-.31.252-.58.617-.799 1.084-.218.466-.33 1.108-.33 1.908v16.806c0 .246.03.524.087.824.057.3.144.605.258.904.12.315.288.581.5.793.094.094.281.231.57.42.31.201.806.3 1.515.3.764 0 1.287-.099 1.598-.301.29-.189.479-.343.578-.47.409-.411.668-.931.77-1.546.1-.599.149-1.03.149-1.32V87.6c0-.25.065-.526.192-.819.127-.291.341-.57.637-.827.284-.247.714-.385 1.278-.411.06-.002.12-.004.178-.004.505 0 .902.102 1.179.301.324.234.581.497.762.78.203.33.333.72.386 1.157 0 .097-.009.388-.02.794a9.847 9.847 0 01-.205 1.589 10.339 10.339 0 01-.633 1.98 6.449 6.449 0 01-1.292 1.937c-.46.512-1.148 1.016-2.052 1.502-.896.481-2.076.725-3.505.725m25.012-32.677c.691 0 1.28.243 1.765.727.485.485.727 1.073.727 1.765v27.505c0 .693-.242 1.282-.727 1.766a2.409 2.409 0 01-1.765.727 2.406 2.406 0 01-1.766-.727 2.4 2.4 0 01-.727-1.766v-9.556h-6.482v9.556c0 .693-.243 1.282-.727 1.766a2.408 2.408 0 01-1.766.727 2.406 2.406 0 01-1.766-.727 2.402 2.402 0 01-.727-1.766V66.12c0-.692.242-1.28.727-1.765a2.403 2.403 0 011.766-.727c.692 0 1.28.243 1.766.727.484.485.727 1.073.727 1.765v12.963h6.482V66.12c0-.692.241-1.28.727-1.765a2.404 2.404 0 011.766-.727"/><path fill="#12100B" d="M169.177 95.93c-.648 0-1.181-.22-1.634-.672a2.202 2.202 0 01-.673-1.634v-9.556a.187.187 0 00-.186-.187h-6.482a.187.187 0 00-.187.187v9.556c0 .647-.22 1.181-.672 1.634a2.209 2.209 0 01-1.634.672 2.21 2.21 0 01-1.634-.672 2.207 2.207 0 01-.672-1.634V66.12c0-.646.22-1.18.672-1.633a2.208 2.208 0 011.634-.672c.646 0 1.18.22 1.634.672.452.453.672.987.672 1.633v12.963c0 .103.083.187.187.187h6.482a.187.187 0 00.186-.187V66.12c0-.647.22-1.18.673-1.633a2.205 2.205 0 011.634-.672c.646 0 1.18.22 1.633.672.452.452.672.986.672 1.633v27.505c0 .648-.22 1.183-.672 1.634a2.235 2.235 0 01-1.633.672m20.545-4.113a2.41 2.41 0 01.727 1.765c0 .693-.244 1.283-.727 1.767a2.406 2.406 0 01-1.766.727h-10.179a2.404 2.404 0 01-1.766-.727 2.404 2.404 0 01-.728-1.767V66.078c0-.692.243-1.281.728-1.766a2.404 2.404 0 011.766-.727h10.179c.692 0 1.28.243 1.766.727a2.41 2.41 0 01.727 1.766c0 .72-.244 1.316-.727 1.786a2.437 2.437 0 01-1.766.707h-7.687v10.47h5.32c.691 0 1.28.243 1.765.727.484.485.727 1.074.727 1.766 0 .693-.243 1.282-.727 1.766a2.405 2.405 0 01-1.766.727h-5.319v7.063h7.687c.692 0 1.28.243 1.766.727"/><path fill="#12100B" d="M177.777 95.889c-.647 0-1.182-.22-1.634-.672a2.205 2.205 0 01-.673-1.634V66.078c0-.647.22-1.18.673-1.634a2.205 2.205 0 011.634-.672h10.179c.645 0 1.18.22 1.634.672.452.454.672.988.672 1.634 0 .673-.22 1.213-.67 1.652-.453.44-.988.654-1.636.654h-7.687a.187.187 0 00-.187.187v10.47c0 .103.084.187.187.187h5.32c.645 0 1.179.22 1.632.672.453.453.673.988.673 1.634 0 .647-.22 1.181-.673 1.634a2.208 2.208 0 01-1.633.672h-5.32a.187.187 0 00-.186.186v7.064c0 .103.084.186.187.186h7.687c.645 0 1.18.22 1.634.673.452.454.672.988.672 1.634 0 .646-.22 1.18-.672 1.634a2.212 2.212 0 01-1.634.672h-10.179zm29.957-32.262c.691 0 1.28.243 1.765.727.485.485.727 1.073.727 1.765v27.879l-.041.042v.166c-.028.028-.041.056-.041.083v.042c0 .028-.008.041-.022.041-.014 0-.02.014-.02.042 0 .028-.008.049-.021.062-.015.015-.021.035-.021.063 0 .028-.007.048-.02.062-.015.014-.021.035-.021.062 0 .028-.007.042-.021.042-.014 0-.02.014-.02.041v.042c-.028 0-.043.014-.043.041l-.042.042c0 .028-.014.055-.04.083l-.042.041v.042c-.028 0-.042.014-.042.041 0 .028-.014.042-.042.042 0 .028-.006.042-.02.042s-.02.014-.02.04h-.042c0 .029-.015.057-.042.084l-.084.083-.082.083-.084.083h-.04l-.084.084c-.028.027-.056.041-.083.041 0 .027-.014.042-.04.042l-.043.042c-.028 0-.042.006-.042.02s-.014.02-.041.02h-.042l-.083.084c-.11.055-.208.097-.29.124a3.041 3.041 0 01-.333.084 2.236 2.236 0 01-.498.041c-.166 0-.291-.014-.375-.041h-.123c-.03 0-.043-.015-.043-.042h-.166v-.042h-.083a.707.707 0 00-.208-.082c-.028 0-.041-.015-.041-.042h-.042c-.028 0-.042-.014-.042-.042-.028 0-.055-.014-.082-.041-.028 0-.042-.015-.042-.041h-.042c-.028 0-.04-.008-.04-.022 0-.014-.016-.02-.043-.02a2.875 2.875 0 01-.748-.79v-.041c-.027 0-.041-.014-.041-.042l-.041-.04v-.043c-.028-.027-.042-.055-.042-.083 0-.027-.015-.055-.043-.083l-7.103-16.411v15.455c0 .693-.243 1.282-.728 1.766a2.407 2.407 0 01-1.765.727 2.407 2.407 0 01-1.766-.727 2.401 2.401 0 01-.727-1.766V65.746l.041-.042v-.167c.028-.026.041-.054.041-.082v-.042c0-.027.007-.042.022-.042.013 0 .02-.013.02-.041 0-.027.007-.048.02-.062.014-.014.022-.035.022-.063a.09.09 0 01.02-.062c.015-.014.022-.035.022-.062 0-.028.006-.042.021-.042.013 0 .02-.013.02-.041v-.042l.083-.083c0-.028.007-.041.02-.041.015 0 .022-.014.022-.042l.04-.042v-.041c.029-.027.042-.055.042-.083h.043c0-.027.006-.042.02-.042s.02-.013.02-.041h.042c0-.028.014-.056.042-.084l.083-.083v-.041c.027 0 .055-.014.083-.042v-.041c.027 0 .055-.014.083-.042h.041l.084-.083.082-.083h.043c0-.027.013-.042.042-.042.026 0 .04-.006.04-.02s.014-.021.042-.021h.041l.084-.084c.193-.11.387-.18.58-.207h.043c.139-.028.346-.041.623-.041h.166l.042.041h.207c0 .028.013.042.041.042h.125c0 .027.027.041.083.041.027.028.07.042.125.042.026.028.054.041.082.041h.042c0 .028.027.041.084.041v.042c.054 0 .083.014.083.042h.042c.026 0 .04.007.04.02 0 .015.014.021.042.021l.042.042.042.042.041.04h.041c.028.029.056.042.084.042v.042c.026 0 .041.008.041.02 0 .015.013.022.041.022v.041c.028 0 .041.007.041.021 0 .015.015.021.043.021v.041l.083.083.083.084.083.083c0 .028.013.056.041.083.028 0 .042.014.042.041 0 .028.014.042.042.042 0 .055.013.083.041.083v.042c.027.027.042.055.042.083h.041c0 .055.007.09.02.104.015.014.022.034.022.062l7.104 16.412V66.119c0-.692.242-1.28.727-1.765a2.406 2.406 0 011.767-.727"/><path fill="#12100B" d="M207.734 95.93c-.19 0-.28-.02-.317-.032a.193.193 0 00-.058-.01h-.048a.19.19 0 00-.118-.04h-.049a.187.187 0 00-.117-.042h-.04a1.17 1.17 0 00-.156-.067.188.188 0 00-.098-.054.186.186 0 00-.08-.04l-.015-.012a.19.19 0 00-.132-.076.21.21 0 00-.07-.032 2.704 2.704 0 01-.636-.67.19.19 0 00-.075-.135l-.011-.013a.18.18 0 00-.04-.082.297.297 0 00-.067-.146l-7.092-16.385a.186.186 0 00-.21-.109.188.188 0 00-.148.184v15.455c0 .647-.22 1.182-.673 1.634a2.208 2.208 0 01-1.633.672 2.21 2.21 0 01-1.634-.672 2.204 2.204 0 01-.673-1.634V65.821a.187.187 0 00.042-.117V65.6a.286.286 0 00.04-.127.23.23 0 00.041-.113.268.268 0 00.043-.125.26.26 0 00.035-.086.229.229 0 00.046-.113l.03-.031a.19.19 0 00.037-.05.214.214 0 00.045-.074l.002-.002a.185.185 0 00.052-.098.182.182 0 00.067-.075.192.192 0 00.098-.126l.074-.074a.203.203 0 00.03-.039.39.39 0 00.054-.045.216.216 0 00.025-.031.185.185 0 00.098-.051l.084-.083.033-.034a.19.19 0 00.094-.052.22.22 0 00.051-.028.188.188 0 00.112-.053l.066-.065c.16-.09.323-.147.481-.17h.028a3.324 3.324 0 01.623-.042h.09a.184.184 0 00.118.041h.114a.234.234 0 00.135.042h.04a.31.31 0 00.1.036.36.36 0 00.12.04.275.275 0 00.108.043c.007.006.016.01.025.015a.186.186 0 00.108.069c.028.024.064.04.103.044.015.012.032.02.05.028l.047.044.039.04a.188.188 0 00.1.053.188.188 0 00.073.066.187.187 0 00.083.083h.001a.18.18 0 00.034.049l.211.21a.32.32 0 00.082.124c.002.001.003.004.006.005.01.022.022.042.038.059a.22.22 0 00.032.062c.007.026.02.049.037.07a.192.192 0 00.055.097.238.238 0 00.028.061c.002.015.007.03.013.043l7.104 16.411a.187.187 0 00.358-.074V66.12c0-.647.22-1.18.673-1.633a2.205 2.205 0 011.634-.672c.646 0 1.18.22 1.633.672.452.452.672.986.672 1.633v27.803a.19.19 0 00-.041.118v.104a.282.282 0 00-.04.125.238.238 0 00-.042.114.267.267 0 00-.042.127.253.253 0 00-.035.084.221.221 0 00-.042.092.242.242 0 00-.028.044l-.007.008a.189.189 0 00-.052.093l-.032.033a.192.192 0 00-.04.063.217.217 0 00-.035.053.19.19 0 00-.043.057.188.188 0 00-.098.125l-.075.075-.082.084-.032.032a.186.186 0 00-.093.05l-.074.075a.189.189 0 00-.092.05l-.02.023c-.007.006-.014.011-.02.018l-.004.003a.238.238 0 00-.051.027.188.188 0 00-.112.053l-.062.062a2.3 2.3 0 01-.24.102 2.84 2.84 0 01-.31.077l-.008.001a2.009 2.009 0 01-.453.036"/><g transform="translate(211.055 63.357)"><mask id="b" fill="#fff"><use xlink:href="#a"/></mask><path fill="#12100B" d="M17.348 1.017c.485.471.727 1.066.727 1.787 0 .693-.242 1.282-.727 1.766a2.406 2.406 0 01-1.766.726h-3.864v24.93c0 .692-.242 1.281-.727 1.766a2.403 2.403 0 01-1.766.727 2.404 2.404 0 01-1.765-.727 2.401 2.401 0 01-.728-1.767V5.296H2.785A2.403 2.403 0 011.02 4.57a2.403 2.403 0 01-.727-1.766c0-.72.242-1.316.727-1.787A2.44 2.44 0 012.785.311h12.797c.692 0 1.282.236 1.766.706" mask="url(#b)"/></g><path fill="#12100B" d="M220.28 95.889c-.647 0-1.18-.22-1.633-.672a2.2 2.2 0 01-.673-1.634V68.654a.187.187 0 00-.186-.187h-3.948a2.21 2.21 0 01-1.634-.672 2.205 2.205 0 01-.671-1.634c0-.674.219-1.214.67-1.653.452-.44.987-.653 1.635-.653h12.797c.648 0 1.183.214 1.636.654.45.438.67.978.67 1.652 0 .647-.22 1.182-.672 1.634a2.208 2.208 0 01-1.634.672h-3.864a.187.187 0 00-.187.187v24.929c0 .646-.22 1.181-.673 1.634a2.204 2.204 0 01-1.633.672"/><g transform="translate(183.09 88.347)"><mask id="d" fill="#fff"><use xlink:href="#c"/></mask><path fill="#3D5BA5" d="M9.144.575C4.128.575.046 4.658.046 9.674c0 5.25 5.715 13.006 9.098 16.506 3.442-3.791 9.099-11.023 9.099-16.506 0-5.016-4.082-9.1-9.099-9.1" mask="url(#d)"/></g><path fill="#FFF" d="M192.234 102.279c-2.333 0-4.257-1.925-4.257-4.258s1.924-4.258 4.257-4.258c2.334 0 4.258 1.925 4.258 4.258s-1.924 4.258-4.258 4.258"/><path fill="#C3C8CF" d="M18.449 50.068c-5.017 0-9.099 4.083-9.099 9.1 0 5.248 5.716 13.006 9.099 16.505 3.44-3.79 9.099-11.023 9.099-16.506 0-5.016-4.083-9.099-9.1-9.099"/><path fill="#FFF" d="M18.449 63.425c-2.333 0-4.258-1.925-4.258-4.258s1.925-4.258 4.258-4.258 4.257 1.925 4.257 4.258-1.924 4.258-4.257 4.258"/></g></svg>