<svg xmlns="http://www.w3.org/2000/svg" xmlns:xlink="http://www.w3.org/1999/xlink" width="253" height="126" viewBox="0 0 253 126">
  <defs>
    <polygon id="logo-projets-qui-marchent-a" points=".293 .311 18.075 .311 18.075 32.719 .293 32.719"/>
    <polygon id="logo-projets-qui-marchent-c" points=".046 .575 18.243 .575 18.243 26.18 .046 26.18"/>
  </defs>
  <g fill="none" fill-rule="evenodd">
    <rect width="252.45" height="125.8"/>
    <g transform="translate(9.35 9.775)">
      <path fill="#12100B" d="M26.4218659 42.965126L27.2524859 42.965126 30.4518007 42.965126C31.4763906 42.965126 32.3349756 42.646801 33.0281505 42.009556 33.8861405 41.2063061 34.3157305 40.0151161 34.3157305 38.4359862L34.3157305 22.4400072C34.3157305 20.9174023 33.8861405 19.7256173 33.0281505 18.8670324 32.3076056 18.2303824 31.4484256 17.9114624 30.4518007 17.9114624L27.2524859 17.9114624 26.4218659 17.9114624 26.4218659 42.965126zM30.4518007 45.9151358L27.2524859 45.9151358 24.967686 45.9151358C24.551781 45.9151358 24.2048961 45.7693608 23.9288161 45.4790008 23.6515461 45.1880458 23.5129111 44.8488958 23.5129111 44.4609559L23.5129111 16.4572825C23.5129111 16.0699376 23.6515461 15.7301926 23.9288161 15.4392376 24.2048961 15.1488776 24.551781 15.0031026 24.967686 15.0031026L27.2524859 15.0031026 30.4518007 15.0031026C31.2830157 15.0031026 32.0993556 15.1488776 32.9032006 15.4392376 33.7064505 15.7301926 34.4264005 16.1806075 35.0636454 16.7892925 35.7002954 17.3991675 36.2203254 18.1750474 36.6219503 19.1163374 37.0223853 20.0582223 37.2240903 21.1667072 37.2240903 22.4400072L37.2240903 38.4359862C37.2240903 39.7384412 37.0223853 40.8534711 36.6219503 41.780481 36.2203254 42.709276 35.7002954 43.4845609 35.0636454 44.1075259 34.4264005 44.7304909 33.7064505 45.1880458 32.9032006 45.4790008 32.0993556 45.7693608 31.2830157 45.9151358 30.4518007 45.9151358L30.4518007 45.9151358zM55.1933867 43.4012014C55.4837467 43.6921564 55.6289267 44.0455864 55.6289267 44.4608964 55.6289267 44.8488363 55.4837467 45.1879863 55.1933867 45.4789413 54.9024318 45.7693013 54.5490018 45.9150763 54.1336918 45.9150763L43.1238125 45.9150763C42.7085025 45.9150763 42.3550725 45.7693013 42.0641175 45.4789413 41.7731625 45.1879863 41.6279825 44.8488363 41.6279825 44.4608964L41.6279825 16.457223C41.6279825 16.0698781 41.7731625 15.7301331 42.0641175 15.4391781 42.3550725 15.1488181 42.7085025 15.0030431 43.1238125 15.0030431L54.1336918 15.0030431C54.5490018 15.0030431 54.9024318 15.1488181 55.1933867 15.4391781 55.4837467 15.7301331 55.6289267 16.0698781 55.6289267 16.457223 55.6289267 16.872533 55.4837467 17.225963 55.1933867 17.516918 54.9024318 17.8072779 54.5490018 17.9530529 54.1336918 17.9530529L44.5773974 17.9530529 44.5773974 30.7080672 51.7655919 30.7080672C52.1814969 30.7080672 52.5271919 30.8538422 52.8038669 31.1442022 53.0805419 31.4351571 53.2197719 31.7885871 53.2197719 32.2038971 53.2197719 32.5918371 53.0805419 32.9309871 52.8038669 33.221942 52.5271919 33.512897 52.1814969 33.658077 51.7655919 33.658077L44.5773974 33.658077 44.5773974 42.9650665 54.1336918 42.9650665C54.5490018 42.9650665 54.9024318 43.1102465 55.1933867 43.4012014M66.3914646 46.0813193C64.4517647 46.0813193 62.8178948 45.5273743 61.4886649 44.4194844 60.9614949 43.9762094 60.4432499 43.3044544 59.93036 42.4042195 59.41747 41.5039845 59.16162 40.2788796 59.16162 38.7271197 59.16162 38.3112147 59.307395 37.9655198 59.597755 37.6882498 59.888115 37.4121698 60.2421399 37.2729398 60.6568549 37.2729398 61.0459849 37.2729398 61.3779949 37.4121698 61.6546699 37.6882498 61.9313448 37.9655198 62.0699798 38.3112147 62.0699798 38.7271197 62.0699798 39.6410397 62.2008798 40.3889546 62.4638698 40.9708646 62.7280498 41.5521795 63.0666048 42.0031895 63.4831047 42.3209195 63.8984147 42.6398395 64.3625147 42.8611795 64.8736197 42.9861295 65.3871046 43.1104845 65.8928546 43.1729594 66.3914646 43.1729594 66.6681396 43.1729594 67.0626245 43.1384495 67.5749195 43.0688345 68.0872145 42.9998145 68.5929644 42.8129845 69.0915744 42.5077495 69.5895894 42.2031095 70.0263194 41.7598345 70.3999793 41.1785196 70.7748293 40.5966096 70.9610643 39.7802696 70.9610643 38.7271197 70.9610643 37.7025298 70.8164793 36.8022948 70.5243343 36.0264149 70.2339743 35.2511299 69.8323494 34.55855 69.3200544 33.94927 68.8083544 33.33999 68.2187095 32.7795001 67.5546895 32.2660151 66.8894795 31.7543151 66.1832146 31.2348802 65.4352996 30.7083052 64.7700897 30.2376602 64.0983347 29.7390502 63.4206298 29.2124753 62.7405448 28.6864953 62.1253148 28.1051803 61.5713699 27.4679354 60.2695099 25.9441405 59.6043 24.1853206 59.577525 22.1908807 59.577525 22.0808057 59.58407 21.8588707 59.597755 21.5262657 59.61144 21.1936607 59.66023 20.8063158 59.74353 20.3630408 59.99224 18.9499159 60.5467799 17.7736009 61.4053649 16.831121 62.6518898 15.5292611 64.3274097 14.8783311 66.4325196 14.8783311 68.5649994 14.8783311 70.2137444 15.5292611 71.3775643 16.831121 71.7916843 17.302361 72.1248842 17.8426209 72.3741892 18.4513059 72.6234942 19.0611809 72.7752192 19.7257958 72.8305542 20.4463408 72.8864842 20.9443558 72.9073092 21.3668057 72.8936242 21.7130957 72.8787492 22.0599807 72.8585192 22.2604957 72.8305542 22.3152357 72.7484442 22.6758057 72.6508642 22.9947256 72.5401942 23.2714006 72.4015592 23.4933356 72.2343642 23.6867106 72.0421792 23.8527156 71.8482093 24.0187206 71.5566593 24.0752456 71.1687193 24.0187206 70.7813743 23.9639806 70.5046993 23.8182056 70.3386943 23.5825856 70.1720944 23.3475606 70.0602344 23.1048006 70.0060894 22.8554956 69.9221944 22.5514507 69.9079144 22.2319357 69.9644394 21.8999257 70.0197744 21.5125807 70.0197744 21.1389208 69.9644394 20.7783508 69.9079144 20.4737108 69.8252094 20.1339658 69.7151344 19.7603058 69.6032744 19.3866459 69.4235844 19.0474959 69.1748744 18.7422609 68.6203344 18.0776459 67.7070095 17.745041 66.4325196 17.745041 65.1592196 17.745041 64.2024597 18.1056109 63.5652147 18.8255609 63.2605748 19.1307959 63.0320948 19.4764908 62.8809648 19.8638358 62.7280498 20.2523708 62.6239248 20.5980658 62.5685898 20.9027058 62.4858848 21.2912407 62.4579198 21.6654957 62.4858848 22.0248757L62.4858848 22.1492307C62.4858848 22.8418106 62.5959598 23.4653706 62.8178948 24.0187206 63.0386398 24.5732605 63.3516098 25.0855555 63.7526397 25.5562005 64.1536697 26.0274405 64.6385947 26.4915404 65.2068196 26.9479054 65.7744496 27.4048654 66.4182396 27.8969304 67.1387845 28.4235053 67.9420345 28.9494853 68.7238644 29.5105703 69.4860594 30.1055702 70.2476593 30.7017602 70.9610643 31.4008851 71.6256793 32.2041351 73.1221042 34.03257 73.8688291 36.2072949 73.8688291 38.7271197 73.8688291 40.0016096 73.6552241 41.1023596 73.2256342 42.0299645 72.7960442 42.9581645 72.2284142 43.7203594 71.5221493 44.3153594 70.8164793 44.9115493 70.0126344 45.3542293 69.1123994 45.6451843 68.2121645 45.9355443 67.3047895 46.0813193 66.3914646 46.0813193M95.7044948 29.0047013C96.1198048 28.3680513 96.4375348 27.6409614 96.6600648 26.8234314 96.8819998 26.0070915 96.9926698 25.1687365 96.9926698 24.3101516 96.9926698 23.4789366 96.8819998 22.6548617 96.6600648 21.8379267 96.4375348 21.0215868 96.1198048 20.2939018 95.7044948 19.6566568 95.3718899 19.1027119 95.0047749 18.6802619 94.6031499 18.3893069 94.2015249 18.0983519 93.820725 17.9531719 93.46075 17.9531719L88.7662003 17.9531719 88.7662003 30.7081862 93.46075 30.7081862C93.820725 30.7081862 94.2015249 30.5630062 94.6031499 30.2720512 95.0047749 29.9810962 95.3718899 29.5592413 95.7044948 29.0047013M98.1975447 18.0781219C98.7508947 18.9646719 99.1804846 19.9470168 99.4851246 21.0275368 99.7897646 22.1080567 99.9420846 23.2022616 99.9420846 24.3101516 99.9420846 25.4460065 99.7897646 26.5533014 99.4851246 27.6338214 99.1804846 28.7143413 98.7508947 29.6978762 98.1975447 30.5832362 97.5597047 31.5536811 96.8326148 32.3015961 96.0156798 32.8275761 95.1987449 33.353556 94.3472999 33.616546 93.46075 33.616546L88.7662003 33.616546 88.7662003 44.5020704C88.7662003 44.9179753 88.6269703 45.2642653 88.3508903 45.5409403 88.0730253 45.8176153 87.7273303 45.9568453 87.3120203 45.9568453 86.9234854 45.9568453 86.5849304 45.8176153 86.2939754 45.5409403 86.0030204 45.2642653 85.8578404 44.9179753 85.8578404 44.5020704L85.8578404 16.540642C85.8578404 15.9587321 86.1071454 15.5297371 86.6051604 15.2524671 86.7985354 15.0864621 87.0478404 15.0031621 87.3536703 15.0031621L93.46075 15.0031621C94.3472999 15.0031621 95.1987449 15.2732921 96.0156798 15.8135521 96.8326148 16.353217 97.5597047 17.108272 98.1975447 18.0781219M107.545232 30.7498957L112.240972 30.7498957C112.600352 30.7498957 112.981152 30.5981707 113.383372 30.2923407 113.784402 29.9882957 114.152112 29.5729858 114.484122 29.0464108 114.899432 28.4097608 115.224302 27.6826709 115.460517 26.8651409 115.695542 26.048801 115.813352 25.210446 115.813352 24.3518611 115.813352 23.5206461 115.695542 22.6965712 115.460517 21.8790412 115.224302 21.0627013 114.899432 20.3356113 114.484122 19.6977713 114.152112 19.1444214 113.784402 18.7219714 113.383372 18.4310164 112.981152 18.1400614 112.600352 17.9948814 112.240972 17.9948814L107.545232 17.9948814 107.545232 30.7498957zM119.552926 43.9202199C119.718931 44.3087549 119.732616 44.6889599 119.594576 45.0632148 119.455941 45.4374698 119.192356 45.6933198 118.805011 45.8319548 118.693746 45.8866948 118.590216 45.9217998 118.493231 45.9354848 118.395652 45.9491698 118.306402 45.9569048 118.223102 45.9569048 117.918462 45.9569048 117.648332 45.8866948 117.413307 45.7486548 117.177687 45.6106148 116.990857 45.3892748 116.852222 45.0834448L111.866717 33.6582555 107.545232 33.6582555 107.545232 44.5021299C107.545232 44.9180348 107.400052 45.2643248 107.109692 45.5409998 106.818142 45.8176748 106.465307 45.9569048 106.049402 45.9569048 105.661462 45.9569048 105.322907 45.8176748 105.031952 45.5409998 104.740997 45.2643248 104.595817 44.9180348 104.595817 44.5021299L104.595817 16.5407015C104.595817 16.1247965 104.740997 15.7719616 105.031952 15.4810066 105.322907 15.1900516 105.661462 15.0448716 106.049402 15.0448716L112.240972 15.0448716C113.126332 15.0448716 113.978372 15.3150016 114.796497 15.8546666 115.612837 16.3949265 116.339332 17.1499815 116.977172 18.1186414 117.530522 19.0063814 117.960112 19.9887263 118.265347 21.0686513 118.569391 22.1491712 118.721711 23.2439711 118.721711 24.3518611 118.721711 25.487716 118.569391 26.5950109 118.265347 27.6755309 117.960112 28.7554558 117.530522 29.7389907 116.977172 30.6255407 116.284592 31.6780956 115.536677 32.4396956 114.733427 32.9103406L119.552926 43.9202199zM125.951318 38.6438197L125.951318 39.1013747C125.951318 39.3786447 125.978688 39.7106547 126.034618 40.0979996 126.089358 40.4865346 126.193483 40.9018446 126.346398 41.3445246 126.498123 41.7883945 126.740883 42.1757395 127.073488 42.5077495 127.682173 43.1729594 128.596093 43.5049694 129.815248 43.5049694 131.061773 43.5049694 132.017343 43.1592744 132.682553 42.4660995 132.986598 42.1340895 133.222218 41.7675695 133.388223 41.3653496 133.554823 40.9643196 133.672633 40.5835196 133.742248 40.2229496 133.810673 39.8629746 133.845778 39.5583347 133.845778 39.3090297L133.845778 38.8931247 133.845778 38.8104197 133.845778 22.2319357C133.845778 21.1799757 133.679178 20.3564958 133.347168 19.7603058 133.014563 19.1653059 132.626623 18.7154859 132.183943 18.4102509 131.740073 18.1056109 131.290253 17.9116409 130.833293 17.8283409 130.376333 17.745041 130.036588 17.703986 129.815248 17.703986 128.790063 17.703986 127.931478 18.0223109 127.239493 18.6595559 126.380908 19.4628058 125.951318 20.6539958 125.951318 22.2319357L125.951318 38.5194647 125.951318 38.6438197zM129.815248 46.4549793C127.710138 46.4549793 126.061988 45.7903643 124.871393 44.4605394 123.956878 43.4639144 123.375563 42.1483695 123.126258 40.5139046 123.042958 40.0152946 123.001308 39.5857047 123.001308 39.2257297 123.001308 38.8663497 123.014993 38.6170447 123.042958 38.4778147L123.042958 22.2319357C123.042958 20.9586358 123.244068 19.8507458 123.645693 18.9088609 124.046723 17.9675709 124.566158 17.184551 125.203403 16.560991 125.840053 15.9380261 126.560598 15.4810661 127.364443 15.1901111 128.167098 14.8991561 128.984628 14.7539761 129.815248 14.7539761 130.314453 14.7539761 130.992753 14.8515561 131.851338 15.0449311 132.709328 15.2389011 133.554823 15.6958611 134.386038 16.415811 134.662713 16.665116 134.939388 16.955476 135.216658 17.288081 135.493332 17.620686 135.742637 18.0294509 135.964572 18.5137809 136.185912 18.9987059 136.373337 19.5461058 136.525657 20.1547908 136.677382 20.7646658 136.754137 21.4572457 136.754137 22.2319357L136.754137 38.7681747 136.754137 39.4542097C136.754137 39.8010946 136.712487 40.2092646 136.629187 40.6799096 136.351917 42.2031095 135.756917 43.4639144 134.842403 44.4605394 133.596473 45.7903643 131.920358 46.4549793 129.815248 46.4549793L129.815248 46.4549793zM148.054615 46.3305648C145.949505 46.3305648 144.315635 45.6802298 143.151815 44.3777749 142.20993 43.3531849 141.61493 42.02336 141.365625 40.3888951 141.28173 39.8349501 141.24722 39.3643052 141.2615 38.9763652 141.27459 38.5884252 141.28173 38.3670852 141.28173 38.3117502 141.33766 37.9791453 141.42096 37.6751003 141.53163 37.3972353 141.641705 37.1758953 141.80176 36.9753803 142.009415 36.7950953 142.216475 36.6154053 142.51457 36.5529303 142.90251 36.6082653 143.289855 36.6636003 143.574265 36.7950953 143.753955 37.0027503 143.93424 37.2104053 144.051455 37.4252003 144.107385 37.6465403 144.190685 37.9244053 144.218055 38.2284502 144.190685 38.5604602 144.16272 39.0322952 144.190685 39.5023452 144.273985 39.9735851 144.328725 40.3621201 144.43285 40.7774301 144.585765 41.2201101 144.73749 41.663385 144.98025 42.051325 145.31226 42.383335 145.92154 43.075915 146.83546 43.4222049 148.054615 43.4222049 149.273175 43.4222049 150.228745 43.075915 150.921325 42.383335 151.225965 42.051325 151.46218 41.683615 151.628185 41.2825851 151.79419 40.8809601 151.911405 40.5001601 151.98102 40.1395901 152.05004 39.7802101 152.08455 39.4684302 152.08455 39.2048452L152.08455 38.7687102 152.08455 38.6854102 152.08455 16.4990515C152.08455 16.1111115 152.230325 15.7719616 152.521279 15.4810066 152.811639 15.1900516 153.150789 15.0448716 153.538729 15.0448716 153.954634 15.0448716 154.307469 15.1900516 154.598424 15.4810066 154.889379 15.7719616 155.034559 16.1111115 155.034559 16.4990515L154.992909 38.6437602C155.020874 38.7550252 155.028014 38.9906452 155.013734 39.3506202 155.000049 39.7105952 154.951854 40.1259051 154.868554 40.5965501 154.729919 41.3444651 154.515124 42.044185 154.224169 42.695115 153.933809 43.3460449 153.553009 43.9071299 153.081769 44.3777749 151.835245 45.6802298 150.15913 46.3305648 148.054615 46.3305648M172.920913 43.4427324C173.212463 43.7336874 173.357048 44.0871174 173.357048 44.5024274 173.357048 44.8903673 173.212463 45.2295173 172.920913 45.5204723 172.629958 45.8108323 172.277718 45.9566073 171.861218 45.9566073L160.851338 45.9566073C160.436624 45.9566073 160.082599 45.8108323 159.792239 45.5204723 159.501284 45.2295173 159.355509 44.8903673 159.355509 44.5024274L159.355509 16.498754C159.355509 16.111409 159.501284 15.7716641 159.792239 15.4807091 160.082599 15.1903491 160.436624 15.0445741 160.851338 15.0445741L171.861218 15.0445741C172.277718 15.0445741 172.629958 15.1903491 172.920913 15.4807091 173.212463 15.7716641 173.357048 16.111409 173.357048 16.498754 173.357048 16.914064 173.212463 17.267494 172.920913 17.558449 172.629958 17.8488089 172.277718 17.9945839 171.861218 17.9945839L162.305518 17.9945839 162.305518 30.7495982 169.493118 30.7495982C169.909023 30.7495982 170.254718 30.8953732 170.531988 31.1857332 170.808663 31.4766881 170.947893 31.8301181 170.947893 32.2454281 170.947893 32.6333681 170.808663 32.9725181 170.531988 33.263473 170.254718 33.554428 169.909023 33.699608 169.493118 33.699608L162.305518 33.699608 162.305518 43.0065975 171.861218 43.0065975C172.277718 43.0065975 172.629958 43.1517774 172.920913 43.4427324M191.824895 15.4809471C192.116445 15.7719021 192.26103 16.125332 192.26103 16.540642 192.26103 16.928582 192.116445 17.267732 191.824895 17.558092 191.534535 17.8490469 191.194195 17.9948219 190.80804 17.9948219L185.78029 17.9948219 185.78029 44.5020704C185.78029 44.9179753 185.64106 45.2642653 185.36498 45.5409403 185.087115 45.8176153 184.740825 45.9568453 184.325515 45.9568453 183.937575 45.9568453 183.598425 45.8176153 183.308065 45.5409403 183.01711 45.2642653 182.87193 44.9179753 182.87193 44.5020704L182.87193 17.9948219 177.761475 17.9948219C177.345571 17.9948219 176.993331 17.8490469 176.701781 17.558092 176.410826 17.267732 176.265646 16.928582 176.265646 16.540642 176.265646 16.125332 176.410826 15.7719021 176.701781 15.4809471 176.993331 15.1899921 177.345571 15.0448121 177.761475 15.0448121L190.80804 15.0448121C191.194195 15.0448121 191.534535 15.1899921 191.824895 15.4809471M201.568614 46.1228503C199.628319 46.1228503 197.995044 45.5689053 196.665814 44.4610154 196.139239 44.0177404 195.619804 43.3459854 195.107509 42.4457505 194.595214 41.5461105 194.33877 40.3204106 194.33877 38.7686507 194.33877 38.3527457 194.484545 38.0070508 194.774904 37.7303758 195.065859 37.4537008 195.419289 37.3144708 195.834599 37.3144708 196.222539 37.3144708 196.554549 37.4537008 196.831819 37.7303758 197.108494 38.0070508 197.246534 38.3527457 197.246534 38.7686507 197.246534 39.6825707 197.378624 40.4304856 197.641614 41.0123956 197.905199 41.5937105 198.244349 42.0447205 198.659659 42.3624505 199.075564 42.6813705 199.539069 42.9027105 200.051364 43.0276605 200.563659 43.1520154 201.069409 43.2144904 201.568614 43.2144904 201.845289 43.2144904 202.239179 43.1799804 202.752664 43.1103655 203.264959 43.0413455 203.769519 42.8545155 204.268724 42.5492805 204.767334 42.2446405 205.203469 41.8013655 205.577129 41.2200506 205.951384 40.6381406 206.138809 39.8218006 206.138809 38.7686507 206.138809 37.7440608 205.993629 36.8438258 205.702079 36.0679459 205.411124 35.2926609 205.008904 34.600081 204.497799 33.990801 203.984909 33.381521 203.395859 32.8210311 202.731244 32.3075461 202.066629 31.7958461 201.359769 31.2764112 200.613044 30.7498362 199.947834 30.2791912 199.276079 29.7805812 198.597779 29.2540063 197.918289 28.7280263 197.303059 28.1467113 196.747924 27.5094664 195.446064 25.9856715 194.781449 24.2268516 194.755269 22.2324117 194.755269 22.1223367 194.761814 21.9004017 194.774904 21.5677967 194.788589 21.2351917 194.837379 20.8478468 194.921274 20.4045718 195.169389 18.9914469 195.723929 17.8151319 196.581919 16.872652 197.829634 15.5707921 199.503964 14.9198621 201.610264 14.9198621 203.741554 14.9198621 205.391489 15.5707921 206.554119 16.872652 206.969429 17.343892 207.302034 17.8841519 207.550744 18.4928369 207.801239 19.1027119 207.952369 19.7673268 208.008299 20.4878718 208.063634 20.9858868 208.083864 21.4083367 208.070774 21.7546267 208.055899 22.1015117 208.035074 22.3020267 208.008299 22.3567667 207.925594 22.7173367 207.827419 23.0362566 207.716749 23.3129316 207.578709 23.5348666 207.412109 23.7282416 207.218734 23.8942466 207.024764 24.0602516 206.734404 24.1167766 206.345869 24.0602516 205.958524 24.0055116 205.681849 23.8597366 205.515844 23.6241166 205.349244 23.3890916 205.237979 23.1463316 205.182644 22.8970266 205.099939 22.5929817 205.085064 22.2734667 205.140994 21.9414567 205.196924 21.5541117 205.196924 21.1804517 205.140994 20.8198818 205.085064 20.5152418 205.002359 20.1754968 204.892284 19.8018368 204.780424 19.4281769 204.601329 19.0890269 204.352619 18.7837919 203.798079 18.1191769 202.883564 17.7865719 201.610264 17.7865719 200.335774 17.7865719 199.380204 18.1471419 198.742959 18.8670919 198.437724 19.1723269 198.209244 19.5180218 198.057519 19.9053668 197.905199 20.2939018 197.801669 20.6395968 197.745739 20.9442368 197.663629 21.3327717 197.635664 21.7070267 197.663629 22.0664067L197.663629 22.1907617C197.663629 22.8833416 197.773704 23.5069016 197.995044 24.0602516 198.216384 24.6147915 198.528759 25.1270865 198.929789 25.5977315 199.330819 26.0689715 199.816339 26.5330714 200.384564 26.9894364 200.952194 27.4469914 201.595389 27.9384613 202.316529 28.4650363 203.119779 28.9910163 203.901609 29.5521013 204.663804 30.1471012 205.425404 30.7432912 206.138809 31.4424161 206.803424 32.2456661 208.299849 34.074101 209.046574 36.2488259 209.046574 38.7686507 209.046574 40.0431406 208.832374 41.1438906 208.403379 42.0714955 207.973789 42.9996955 207.406159 43.7618904 206.699894 44.3568904 205.993629 44.9530803 205.189784 45.3957603 204.290144 45.6867153 203.389909 45.9770753 202.482534 46.1228503 201.568614 46.1228503"/>
      <path fill="#E73F5D" d="M140.761819,13.3566187 C138.428229,13.3566187 136.503999,11.4317938 136.503999,9.09879896 C136.503999,6.7658041 138.428229,4.84097921 140.761819,4.84097921 C143.094814,4.84097921 145.019044,6.7658041 145.019044,9.09879896 C145.019044,11.4317938 143.094814,13.3566187 140.761819,13.3566187 M140.761819,5.94999965e-05 C135.745374,5.94999965e-05 131.66308,4.08294926 131.66308,9.09879896 C131.66308,14.3484837 137.378649,22.1054982 140.761819,25.604693 C144.202704,21.8139482 149.860559,14.5817236 149.860559,9.09879896 C149.860559,4.08294926 145.777669,5.94999965e-05 140.761819,5.94999965e-05"/>
      <path fill="#12100B" d="M22.5305662,79.9640683 C22.8899461,79.5767233 23.1261611,79.0917983 23.2368311,78.5098884 C23.3475011,77.9285734 23.4028361,77.5126684 23.4028361,77.2633634 L23.3611861,77.1384134 L23.3611861,77.0973584 L23.4028361,60.8931294 C23.4028361,60.1458094 23.2993061,59.5502145 23.0910561,59.1069395 C22.8834011,58.6642595 22.6340962,58.3173746 22.3437362,58.0680696 C22.0527812,57.8193596 21.7415962,57.6598996 21.4083962,57.5902846 C21.0763863,57.5218596 20.7711513,57.4867546 20.4944763,57.4867546 C20.2725413,57.4867546 20.0101463,57.5218596 19.7049113,57.5902846 C19.4002714,57.6598996 19.1093164,57.8056746 18.8326414,58.0270146 C18.5553714,58.2483546 18.3132064,58.5875045 18.1055514,59.0444645 C17.8978964,59.5014245 17.7937714,60.1041594 17.7937714,60.8514794 L17.7937714,76.9724085 L17.7521215,77.0557084 C17.7521215,77.1949384 17.7586665,77.3877184 17.7735414,77.6376184 C17.7866314,77.8869234 17.8211414,78.1499134 17.8770714,78.4265884 C17.9318114,78.7038583 18.0151114,78.9876733 18.1263764,79.2786283 C18.2364514,79.5695833 18.3893664,79.8123433 18.5833364,80.0057183 C18.6386714,80.0884233 18.8046764,80.2205133 19.0819464,80.4002032 C19.3586214,80.5810832 19.8298613,80.6703332 20.4944763,80.6703332 C21.2144262,80.6703332 21.7130362,80.5810832 21.9903062,80.4002032 C22.2669812,80.2205133 22.4472662,80.0753333 22.5305662,79.9640683 L22.5305662,79.9640683 Z M28.2645808,83.4543381 C28.7072608,83.980318 28.9083708,84.583053 28.8661258,85.261353 C28.8250708,85.9396529 28.5412558,86.5144229 28.0152758,86.9856629 C27.5160709,87.4015678 26.9615309,87.6092228 26.3528459,87.6092228 C26.020241,87.6092228 25.688231,87.5396078 25.355626,87.4015678 C25.023021,87.2623378 24.732066,87.0409979 24.4827611,86.7363579 L23.1951811,85.240528 C22.8072412,85.379758 22.3913362,85.4832879 21.9480612,85.5529029 C21.5053812,85.6213279 21.0204563,85.6558379 20.4944763,85.6558379 C19.0260164,85.6558379 17.8419664,85.406533 16.9423265,84.908518 C16.0420916,84.409908 15.3560566,83.897613 14.8854116,83.3710381 C14.3314667,82.7623531 13.9096117,82.1108281 13.6180617,81.4182482 C13.3271067,80.7262632 13.1200467,80.0681933 12.9950967,79.4446333 C12.8707417,78.8216683 12.8011267,78.2677234 12.7874417,77.7827984 C12.7731617,77.2984684 12.7797067,76.9587235 12.8082667,76.7653485 L12.8082667,60.8514794 C12.8082667,60.0208595 12.8844267,59.2735395 13.0367467,58.6083295 C13.1890667,57.9437146 13.3901767,57.3481196 13.6394817,56.8215446 C13.8887867,56.2961597 14.1589167,55.8391997 14.4492766,55.4506647 C14.7402316,55.0633197 15.0240466,54.7443998 15.3013166,54.4950948 C16.7685865,53.1652699 18.5006314,52.5006549 20.4944763,52.5006549 C21.4357662,52.5006549 22.3776512,52.6666599 23.3195361,52.9992649 C24.2608261,53.3318698 25.106321,53.8447598 25.854236,54.5367448 C26.6021509,55.2293247 27.2108359,56.1021897 27.6820759,57.1541496 C28.1527208,58.2072996 28.3889358,59.4532295 28.3889358,60.8931294 L28.3472858,77.0557084 L28.3472858,77.7827984 C28.3472858,78.1296834 28.3056358,78.5378534 28.2223358,79.0084983 C28.1396308,79.4797383 28.0152758,79.9920333 27.8486759,80.5459782 C27.6820759,81.0999232 27.4327709,81.6401832 27.1013559,82.1661631 L28.2645808,83.4543381 Z"/>
      <path fill="#12100B" d="M18.4393464 80.1259083C18.4934914 80.2002833 18.6124914 80.3180933 18.9796064 80.5572832 19.2901964 80.7589882 19.7858313 80.8571632 20.4944763 80.8571632 21.2590512 80.8571632 21.7820562 80.7589882 22.0926462 80.5566882 22.3889562 80.3639083 22.5740012 80.2133733 22.6733662 80.0842583 23.0529761 79.6731133 23.3040661 79.1548683 23.4200911 78.5449934 23.5343311 77.9452334 23.5896661 77.5263534 23.5896661 77.2633634 23.5896661 77.2431334 23.5860961 77.2234984 23.5801461 77.2044584L23.5480161 77.1086634 23.5896661 60.8937244C23.5896661 60.1214144 23.4789961 59.4936895 23.2606311 59.0278045 23.0416711 58.5619195 22.7745162 58.1918296 22.4657112 57.9264596 22.1509562 57.6575196 21.8088312 57.4831846 21.4470712 57.4076196 21.1013763 57.3362196 20.7812663 57.2999246 20.4944763 57.2999246 20.2588563 57.2999246 19.9869413 57.3350296 19.6644513 57.4082146 19.3324414 57.4837796 19.0135214 57.6426446 18.7160214 57.8812396 18.4173314 58.1198346 18.1543414 58.4851645 17.9353814 58.9671145 17.7176115 59.4472795 17.6069415 60.0809544 17.6069415 60.8514794L17.6069415 76.9283785 17.5849265 76.9718135C17.5724315 76.9979934 17.5652915 77.0265534 17.5652915 77.0557084 17.5652915 77.2038634 17.5724315 77.4031884 17.5867115 77.6483284 17.6009915 77.9053684 17.6366915 78.1796634 17.6938115 78.4634784 17.7503365 78.7484833 17.8372064 79.0453883 17.9520414 79.3452683 18.0686614 79.6534783 18.2328814 79.9158733 18.4393464 80.1259083M26.3528459 87.4223928C26.047611 87.4223928 25.736426 87.3569428 25.427621 87.2290178 25.124766 87.1022829 24.855826 86.8970079 24.627346 86.6179529L23.3361961 85.118553C23.3004961 85.076903 23.2481361 85.053698 23.1951811 85.053698 23.1737611 85.053698 23.1529361 85.057268 23.1321111 85.065003 22.7584512 85.198878 22.3502812 85.300623 21.9200962 85.367858 21.4881262 85.435093 21.0085563 85.4690079 20.4944763 85.4690079 19.0652864 85.4690079 17.9008714 85.225653 17.0333615 84.744893 16.1545465 84.258778 15.4786266 83.754813 15.0252366 83.2466831 14.4873566 82.6564431 14.0726417 82.0174132 13.7906117 81.3456582 13.5056067 80.6685482 13.2997367 80.0164283 13.1777617 79.4077433 13.0557867 78.7960833 12.9873617 78.2474934 12.9742717 77.7774434 12.9599917 77.3062034 12.9665367 76.9747885 12.9933117 76.7915285 12.9945017 76.7826035 12.9950967 76.7742735 12.9950967 76.7653485L12.9950967 60.8514794C12.9950967 60.0387095 13.0706617 59.2985295 13.2188167 58.6499795 13.3669717 58.0032146 13.5651067 57.4147596 13.8084617 56.9012746 14.0500317 56.3907647 14.3159967 55.9403497 14.5986216 55.5625247 14.8818416 55.1852947 15.1603016 54.8735148 15.4262666 54.6337298 16.8518865 53.3425798 18.5565614 52.6880799 20.4944763 52.6880799 21.4113712 52.6880799 22.3407612 52.8517049 23.2576561 53.1753849 24.1709811 53.4978748 25.001601 54.0018398 25.726906 54.6735948 26.4522109 55.3453497 27.0531609 56.2051247 27.5119059 57.2309046 27.9700558 58.2548996 28.2021058 59.4871445 28.2021058 60.8931294L28.1604558 77.0551134 28.1604558 77.7827984C28.1604558 78.1171884 28.1199958 78.5182184 28.0390758 78.9757733 27.9569658 79.4374933 27.8332059 79.9474083 27.6695809 80.4924282 27.5089309 81.0279282 27.2643859 81.5574782 26.9430859 82.0667981 26.8984609 82.1376031 26.9056009 82.2292331 26.9621259 82.2917081L28.1253508 83.5792881C28.5364958 84.067783 28.7185658 84.615778 28.6804858 85.250048 28.6412158 85.8819379 28.3841758 86.4031579 27.8927059 86.8446479 27.4309859 87.2278278 26.9133359 87.4223928 26.3528459 87.4223928M47.8535267 79.0706758C47.8398417 79.5276358 47.7642767 80.0542108 47.6256417 80.6492107 47.4870067 81.2459957 47.2656667 81.8826457 46.9610267 82.5609456 46.6551967 83.2398406 46.2267968 83.8693505 45.6728518 84.4512605 45.2022068 84.9778355 44.5024869 85.4901304 43.5748819 85.9887404 42.646087 86.4867554 41.4483521 86.7360604 39.9810821 86.7360604 38.5126222 86.7360604 37.3285723 86.4867554 36.4289323 85.9887404 35.5281024 85.4901304 34.8426624 84.9778355 34.3720175 84.4512605 33.8174775 83.8425755 33.3956225 83.1910506 33.1046675 82.4984706 32.8137126 81.8064857 32.6060576 81.1484157 32.4811076 80.5248557 32.3567526 79.9018908 32.2948726 79.3479458 32.2948726 78.8630208L32.2948726 77.8449759 32.2948726 56.4065322C32.2948726 55.7145472 32.5370376 55.1254972 33.0213675 54.6405723 33.5062925 54.1562423 34.0947475 53.9134823 34.7873274 53.9134823 35.4793124 53.9134823 36.0677674 54.1562423 36.5532873 54.6405723 37.0370223 55.1254972 37.2797823 55.7145472 37.2797823 56.4065322L37.2797823 78.0532259 37.2797823 78.1359309 37.2797823 78.7178408C37.2797823 78.9671458 37.3071523 79.2307308 37.3630823 79.5074058 37.4184173 79.7840808 37.5017173 80.0678958 37.6123873 80.3588508 37.7230573 80.6492107 37.8753773 80.8925657 38.0699422 81.0859407 38.1526472 81.1686457 38.3329322 81.3013307 38.6096072 81.4810207 38.8862822 81.6613057 39.3432422 81.7505557 39.9810821 81.7505557 40.7010321 81.7505557 41.2061871 81.6613057 41.497142 81.4810207 41.788692 81.3013307 41.974927 81.1686457 42.058227 81.0859407 42.446167 80.6706307 42.681787 80.1720208 42.764492 79.5907058 42.847792 79.0087958 42.888847 78.5928909 42.888847 78.3435859L42.888847 78.2192309 42.888847 78.1775809 42.888847 56.4481822C42.888847 55.7556022 43.131012 55.1671472 43.6165319 54.6816273 44.1008619 54.1978923 44.6899119 53.9551323 45.3818968 53.9551323 46.0744768 53.9551323 46.6629317 54.1978923 47.1472617 54.6816273 47.6321867 55.1671472 47.8749467 55.7556022 47.8749467 56.4481822L47.8749467 78.1359309C47.8749467 78.3019359 47.8678067 78.6137159 47.8535267 79.0706758"/>
      <path fill="#12100B" d="M39.9807846 86.5494684C38.5515947 86.5494684 37.3871798 86.3061134 36.5196698 85.8253534 35.6408549 85.3386435 34.9649349 84.8346785 34.511545 84.3271435 33.973665 83.7363086 33.55895 83.0972786 33.27692 82.4261186 32.9925101 81.7496037 32.7860451 81.0974837 32.6640701 80.4882037 32.5426901 79.8789238 32.4814051 79.3321188 32.4814051 78.8632588L32.4814051 56.4061752C32.4814051 55.7594102 32.7015551 55.2251002 33.15316 54.7729003 33.605955 54.3201053 34.14086 54.1005503 34.7870299 54.1005503 35.4331999 54.1005503 35.9681049 54.3201053 36.4208998 54.7729003 36.8730998 55.2256952 37.0932498 55.7600052 37.0932498 56.4061752L37.0932498 78.7174838C37.0932498 78.9792838 37.1224048 79.2577438 37.1801198 79.5439388 37.2372398 79.8301338 37.3235148 80.1264438 37.4383498 80.4257287 37.5573498 80.7398887 37.7251398 81.0064487 37.9375548 81.2182687 38.0327548 81.3122787 38.2189897 81.4497237 38.5075647 81.6377437 38.8175597 81.8394487 39.2989147 81.9376237 39.9807846 81.9376237 40.7435746 81.9376237 41.2725296 81.8400437 41.5956145 81.6395287 41.9008495 81.4515087 42.0948195 81.3134687 42.1906145 81.2182687 42.6071145 80.7714237 42.8611795 80.2347338 42.9492395 79.6171238 43.0349195 79.0209338 43.0759745 78.6044339 43.0759745 78.3432289L43.0759745 56.4478252C43.0759745 55.8010602 43.2955294 55.2667502 43.7483244 54.8139553 44.2011194 54.3617553 44.7354294 54.1422003 45.3815993 54.1422003 46.0283643 54.1422003 46.5626742 54.3617553 47.0154692 54.8139553 47.4682642 55.2667502 47.6884142 55.8016552 47.6884142 56.4478252L47.6884142 78.1361689C47.6884142 78.2932489 47.6812742 78.5966989 47.6669942 79.0649638 47.6539042 79.5094288 47.5789342 80.0282688 47.4438692 80.6072037 47.3076142 81.1891137 47.0880592 81.8210037 46.7899642 82.4844286 46.4948443 83.1407136 46.0735843 83.7595135 45.5374893 84.3223835 45.0799343 84.8340835 44.3909244 85.3374535 43.4865244 85.8241634 42.5898595 86.3055184 41.4099746 86.5494684 39.9807846 86.5494684M54.3555078 53.8305393C55.0766477 53.8305393 55.6704577 54.0732993 56.1428877 54.5576293 56.6135327 55.0425542 56.8485576 55.6310092 56.8485576 56.3229942L56.8485576 83.8280575C56.8485576 84.5212325 56.6135327 85.1096875 56.1428877 85.5940174 55.6704577 86.0777524 55.0766477 86.3211074 54.3555078 86.3211074 53.6635228 86.3211074 53.0750679 86.0777524 52.5901429 85.5940174 52.1052179 85.1096875 51.8636479 84.5212325 51.8636479 83.8280575L51.8636479 56.3229942C51.8636479 55.6310092 52.1052179 55.0425542 52.5901429 54.5576293 53.0750679 54.0732993 53.6635228 53.8305393 54.3555078 53.8305393"/>
      <path fill="#12100B" d="M54.3555078 86.1342774C53.7093378 86.1342774 53.1756229 85.9141274 52.7222329 85.4619274 52.2700329 85.0103225 52.0504779 84.4754175 52.0504779 83.8280575L52.0504779 56.3229942C52.0504779 55.6762292 52.2700329 55.1419192 52.7222329 54.6897193 53.1750279 54.2375193 53.7093378 54.0173693 54.3555078 54.0173693 55.0278577 54.0173693 55.5687127 54.2369243 56.0090127 54.6879343 56.4487177 55.1407292 56.6623227 55.6756342 56.6623227 56.3229942L56.6623227 83.8280575C56.6623227 84.4766075 56.4487177 85.0115125 56.0090127 85.4637124 55.5687127 85.9147224 55.0278577 86.1342774 54.3555078 86.1342774M88.6975968 83.8490015C88.6975968 84.5421765 88.4548368 85.1306315 87.9699118 85.6155564 87.4849868 86.0992914 86.8965319 86.3420514 86.2045469 86.3420514 85.5119669 86.3420514 84.922322 86.0992914 84.439182 85.6155564 83.953662 85.1306315 83.7114971 84.5421765 83.7114971 83.8490015L83.7114971 66.7314476 81.0940922 71.8835523C80.8721572 72.4934272 80.4711272 72.9361072 79.8886223 73.2127822 79.5572073 73.3787872 79.2103223 73.4620872 78.8503473 73.4620872L78.8086973 73.4620872 78.7676423 73.4620872 78.7253973 73.4620872 78.6843423 73.4620872C78.3237724 73.4620872 77.9774824 73.3787872 77.6454724 73.2127822 77.0635624 72.9361072 76.6619375 72.4934272 76.4405975 71.8835523L73.8231926 66.7314476 73.8231926 83.8490015C73.8231926 84.5421765 73.5804327 85.1306315 73.0961027 85.6155564 72.6111777 86.0992914 72.0227227 86.3420514 71.3307378 86.3420514 70.6369678 86.3420514 70.0485129 86.0992914 69.5647779 85.6155564 69.0792579 85.1306315 68.8376879 84.5421765 68.8376879 83.8490015L68.8376879 56.3445332 68.8376879 56.2195832 68.8376879 56.0952282 68.8376879 56.0535782 68.8376879 56.0119282C68.8376879 55.9845582 68.8436379 55.9708732 68.8579179 55.9708732 68.8716029 55.9708732 68.8787429 55.9571882 68.8787429 55.9292232L68.8787429 55.8869782 68.8787429 55.8042732C68.8787429 55.7769032 68.8852879 55.7560782 68.8995679 55.7423932 68.9132529 55.7287082 68.9209879 55.7078832 68.9209879 55.6793232 68.9477629 55.5133182 69.0030979 55.3615932 69.0863979 55.2229582 69.0863979 55.1949932 69.0929429 55.1813082 69.1072229 55.1813082 69.1209079 55.1813082 69.1280479 55.1670282 69.1280479 55.1396582L69.1696979 55.0980082 69.2113479 55.0563582C69.2113479 55.0289882 69.2244379 55.0016182 69.2524029 54.9736533L69.2524029 54.9320033 69.3357029 54.8487033C69.3910379 54.7933683 69.4398279 54.7386283 69.4814779 54.6821033 69.5225329 54.6273633 69.5707279 54.5720283 69.6266579 54.5160983L69.7099579 54.4333933 69.7510129 54.4333933C69.7510129 54.4060233 69.7581529 54.3917433 69.7718379 54.3917433 69.7861179 54.3917433 69.7932579 54.3780583 69.7932579 54.3500933L69.8343129 54.3500933C69.8616829 54.3227233 69.8896479 54.3084433 69.9182079 54.3084433 69.9182079 54.2810733 69.9312979 54.2667933 69.9592629 54.2667933L70.0009129 54.2251433 70.0842129 54.1840883C70.1109879 54.1567183 70.1395479 54.1424383 70.1669179 54.1424383L70.2085679 54.1007883C70.2359378 54.1007883 70.2639028 54.0871033 70.2912728 54.0591383 70.3186428 54.0591383 70.3394678 54.0525933 70.3537478 54.0383133 70.3674328 54.0246283 70.3888528 54.0174883 70.4156278 54.0174883 70.4435928 54.0174883 70.4638228 54.0115383 70.4786978 53.9972583 70.4917878 53.9835733 70.5132078 53.9764333 70.5405778 53.9764333 70.5679478 53.9764333 70.5959128 53.9627483 70.6238778 53.9347833L70.6649328 53.9347833 70.7482328 53.9347833 70.7898828 53.8931333 70.8315328 53.8931333 70.9142378 53.8931333 70.9564828 53.8931333C70.9838528 53.8657633 71.0112228 53.8514833 71.0391878 53.8514833L71.0814328 53.8514833 71.2057878 53.8514833 71.3307378 53.8514833 71.4550928 53.8514833 71.5377978 53.8514833 71.5794478 53.8514833C71.6068178 53.8514833 71.6347828 53.8657633 71.6621528 53.8931333L71.7454528 53.8931333 71.7871028 53.8931333 71.8704028 53.8931333C71.9804777 53.9490633 72.0774627 53.9835733 72.1613577 53.9972583 72.2446577 54.0115383 72.3273627 54.0454533 72.4106627 54.1007883L72.4517177 54.1007883C72.4517177 54.1287533 72.4790877 54.1424383 72.5350177 54.1424383 72.5350177 54.1704033 72.5487027 54.1840883 72.5766677 54.1840883L72.6183177 54.2251433C72.6450927 54.2251433 72.6730577 54.2394233 72.7010227 54.2667933L72.7843227 54.3500933 72.8259727 54.3500933C72.9646077 54.4333933 73.0746827 54.5440633 73.1579827 54.6821033L73.2412827 54.7654033 73.3245827 54.8487033C73.3245827 54.8766683 73.3311277 54.8903533 73.3454077 54.8903533 73.3590927 54.8903533 73.3656377 54.9046333 73.3656377 54.9320033L73.4078827 54.9736533 73.4489377 55.0153032C73.4489377 55.0426732 73.4632177 55.0706382 73.4905877 55.0980082 73.4905877 55.1259732 73.4971327 55.1467982 73.5120077 55.1604832 73.5250977 55.1747632 73.5322377 55.1949932 73.5322377 55.2229582L78.7676423 65.4849226 84.001857 55.2229582C84.001857 55.1670282 84.016137 55.1259732 84.044102 55.0980082 84.071472 55.0706382 84.085157 55.0426732 84.085157 55.0153032 84.113122 55.0153032 84.126807 55.0016182 84.126807 54.9736533L84.168457 54.9320033C84.168457 54.9046333 84.182142 54.8766683 84.210107 54.8487033L84.293407 54.7654033 84.376112 54.6821033C84.459412 54.5440633 84.570082 54.4333933 84.708717 54.3500933L84.792017 54.2667933 84.833667 54.2667933C84.860442 54.2394233 84.889002 54.2251433 84.916967 54.2251433L84.958022 54.1840883C84.985392 54.1840883 84.999672 54.1704033 84.999672 54.1424383 85.055007 54.1424383 85.082972 54.1287533 85.082972 54.1007883L85.124027 54.1007883C85.179362 54.0454533 85.248382 54.0115383 85.331682 53.9972583 85.414387 53.9835733 85.4840019 53.9627483 85.5393369 53.9347833 85.5946719 53.9347833 85.6357269 53.9210983 85.6642869 53.8931333L85.7475869 53.8931333 85.7886419 53.8931333 85.8719419 53.8931333C85.8719419 53.8657633 85.8856269 53.8514833 85.9135919 53.8514833L85.9968919 53.8514833 86.0801919 53.8514833 86.2045469 53.8514833 86.3294969 53.8514833 86.4538519 53.8514833C86.5085919 53.8514833 86.5508369 53.8657633 86.5776119 53.8931333L86.6615069 53.8931333 86.7448069 53.8931333 86.7858619 53.9347833 86.8691619 53.9347833 86.9108119 53.9347833 86.9941119 53.9764333C87.0208869 53.9764333 87.0423069 53.9835733 87.0559919 53.9972583 87.0702719 54.0115383 87.0905019 54.0174883 87.1184669 54.0174883 87.1458368 54.0174883 87.1732068 54.0317683 87.2011718 54.0591383L87.2434168 54.0591383C87.2707868 54.0871033 87.2981568 54.1007883 87.3261218 54.1007883L87.3261218 54.1424383C87.3814568 54.1424383 87.4225118 54.1567183 87.4510718 54.1840883 87.4778468 54.2114583 87.5058118 54.2251433 87.5343718 54.2251433L87.5754268 54.2667933 87.6176718 54.3084433C87.6438518 54.3084433 87.6724118 54.3227233 87.7003768 54.3500933L87.7836768 54.4333933C87.8390118 54.4333933 87.8663818 54.4607633 87.8663818 54.5160983 88.0050168 54.5993983 88.1150918 54.7106633 88.1983918 54.8487033L88.2816918 54.9320033 88.2816918 54.9736533C88.3090618 55.0016182 88.3233418 55.0289882 88.3233418 55.0563582 88.3507118 55.0563582 88.3643968 55.0706382 88.3643968 55.0980082L88.4066418 55.1396582C88.4066418 55.1670282 88.4197318 55.1949932 88.4476968 55.2229582 88.5030318 55.3615932 88.5583668 55.5133182 88.6142968 55.6793232 88.6142968 55.7352532 88.6279818 55.7769032 88.6559468 55.8042732L88.6559468 55.8869782 88.6559468 55.9292232C88.6559468 55.9571882 88.6690368 55.9845582 88.6975968 56.0119282L88.6975968 56.0535782 88.6975968 56.0952282 88.6975968 56.2195832 88.6975968 56.3445332 88.6975968 83.8490015z"/>
      <path fill="#12100B" d="M86.2042494 86.1554594C85.5574844 86.1554594 85.0237695 85.9353094 84.5709745 85.4831094 84.1181795 85.0315045 83.8986245 84.4965995 83.8986245 83.8492395L83.8986245 66.7310906C83.8986245 66.6448156 83.8391245 66.5698456 83.7552295 66.5496156 83.7403546 66.5460456 83.7260746 66.5448556 83.7117946 66.5448556 83.6421796 66.5448556 83.5773246 66.5829356 83.5451946 66.6466006L80.9271947 71.7987053C80.9236247 71.8052503 80.9206497 71.8123903 80.9182697 71.8195303 80.7123997 72.3865652 80.3488548 72.7875952 79.8085948 73.0440402 79.5009798 73.1981452 79.1796798 73.2754952 78.8506448 73.2754952L78.6840448 73.2754952C78.3550099 73.2754952 78.0337099 73.1981452 77.7290699 73.0458252 77.1852399 72.7870002 76.821695 72.3865652 76.61642 71.8195303 76.613445 71.8123903 76.61047 71.8052503 76.6069 71.7987053L73.9900901 66.6466006C73.9573651 66.5829356 73.8925101 66.5448556 73.8228951 66.5448556 73.8086151 66.5448556 73.7943351 66.5460456 73.7794601 66.5496156 73.6955651 66.5698456 73.6360651 66.6448156 73.6360651 66.7310906L73.6360651 83.8492395C73.6360651 84.4960045 73.4165102 85.0303145 72.9637152 85.4831094 72.5103252 85.9353094 71.9760152 86.1554594 71.3304403 86.1554594 70.6836753 86.1554594 70.1493654 85.9353094 69.6965704 85.4831094 69.2437754 85.0315045 69.0242204 84.4965995 69.0242204 83.8492395L69.0242204 56.0710712C69.0498054 56.0347762 69.0658704 55.9871762 69.0658704 55.9288662L69.0658704 55.8312862C69.0861004 55.7979662 69.1039504 55.7545312 69.1069254 55.6980062 69.1307254 55.5599662 69.1765404 55.4356112 69.2467504 55.3189912 69.2491304 55.3148262 69.2515104 55.3106612 69.2538904 55.3059012 69.2729304 55.2862662 69.2884004 55.2618712 69.2991104 55.2327162L69.3431404 55.1886862C69.3687254 55.1631012 69.3859804 55.1303762 69.3937154 55.0958662 69.4133504 55.0720662 69.4282254 55.0435062 69.4347704 55.0137562L69.4674954 54.9804363C69.5317554 54.9167713 69.5853054 54.8554863 69.6311204 54.7942013 69.6686054 54.7442213 69.7102554 54.6966213 69.7584504 54.6484263L69.7917704 54.6157013C69.8471054 54.6032063 69.8935154 54.5663163 69.9185054 54.5169313 69.9321904 54.5097913 69.9452804 54.5014613 69.9565854 54.4913463 70.0029954 54.4812313 70.0422654 54.4544563 70.0690404 54.4181613 70.0767754 54.4122113 70.0839154 54.4062613 70.0910554 54.3985263L70.1112854 54.3788913 70.1672154 54.3509263C70.1814954 54.3437863 70.1945854 54.3354563 70.2058904 54.3247463 70.2409953 54.3170113 70.2737203 54.2997563 70.2993053 54.2741713L70.3022803 54.2706013C70.3242953 54.2628663 70.3469053 54.2515613 70.3695153 54.2360913 70.3998603 54.2283563 70.4248503 54.2164563 70.4462703 54.2027713 70.4986303 54.1986063 70.5396853 54.1813513 70.5706253 54.1617163 70.6039453 54.1575513 70.6444053 54.1468413 70.6860553 54.1218513L70.7479353 54.1218513C70.7913703 54.1218513 70.8330203 54.1069763 70.8657453 54.0802013L70.9561853 54.0802013C70.9990253 54.0802013 71.0406753 54.0653263 71.0734003 54.0385513L71.5446403 54.0385513C71.5779603 54.0647313 71.6196103 54.0802013 71.6624503 54.0802013L71.8272653 54.0802013C71.9391252 54.1331563 72.0384902 54.1664763 72.1313102 54.1813513 72.1866452 54.1908713 72.2467402 54.2164563 72.3074302 54.2563213 72.3223052 54.2664363 72.3389652 54.2741713 72.3568152 54.2795263 72.3746652 54.2926163 72.3960852 54.3033263 72.4204802 54.3116563 72.4377352 54.3271263 72.4573702 54.3402163 72.4787902 54.3497363L72.4859302 54.3574713C72.5115152 54.3830563 72.5436452 54.3997163 72.5781552 54.4080463L72.6525302 54.4824213C72.6840652 54.5139563 72.7263102 54.5329963 72.7709352 54.5359713 72.8637552 54.5996363 72.9381302 54.6799613 72.9982252 54.7787313 73.0053652 54.7918213 73.0154802 54.8037213 73.0261902 54.8144313L73.1529252 54.9417613C73.1636352 54.9709163 73.1791052 54.9953112 73.1987402 55.0149462 73.2076652 55.0327962 73.2195652 55.0494562 73.2338452 55.0637362L73.2784702 55.1089562C73.2868002 55.1303762 73.2981052 55.1529862 73.3135752 55.1761912 73.3219052 55.2071312 73.3338052 55.2333112 73.3480852 55.2541362 73.3510602 55.2725812 73.3570102 55.2904312 73.3659352 55.3076862L78.6007449 65.5696506C78.6322799 65.6321256 78.6971348 65.6719906 78.7673448 65.6719906 78.8375548 65.6719906 78.9018148 65.6321256 78.9333498 65.5696506L84.1687545 55.3076862C84.1824395 55.2815062 84.1889845 55.2523512 84.1889845 55.2226012L84.1889845 55.2160562C84.2109995 55.1916612 84.2276595 55.1678612 84.2395595 55.1446562 84.2621695 55.1244262 84.2806145 55.0994362 84.2931095 55.0714712L84.3008445 55.0637362C84.3258345 55.0387462 84.3430895 55.0066162 84.3508245 54.9721063L84.5079045 54.8144313C84.5192095 54.8037213 84.5287295 54.7918213 84.5358695 54.7787313 84.6048895 54.6650863 84.6923545 54.5776213 84.8042145 54.5103863 84.8178995 54.5026513 84.8297995 54.4931313 84.8411045 54.4824213L84.8738295 54.4491013C84.9035795 54.4425563 84.9321395 54.4282763 84.9559395 54.4080463 84.9904495 54.4003113 85.0231745 54.3830563 85.0487595 54.3574713L85.0558995 54.3497363C85.0773195 54.3402163 85.0969545 54.3271263 85.1142095 54.3116563 85.1386045 54.3033263 85.1600245 54.2926163 85.1778745 54.2795263 85.2070295 54.2706013 85.2343995 54.2545363 85.2564145 54.2325213 85.2837845 54.2051513 85.3176995 54.1890863 85.3635145 54.1807563 85.4456244 54.1676663 85.5205944 54.1468413 85.5848544 54.1194713 85.6407844 54.1141163 85.6860044 54.0986463 85.7211094 54.0802013L85.8716444 54.0802013C85.9168644 54.0802013 85.9573244 54.0641363 85.9894544 54.0385513L86.4541494 54.0385513 86.4612894 54.0385513C86.4940144 54.0653263 86.5356644 54.0802013 86.5779094 54.0802013L86.6683494 54.0802013C86.7016694 54.1069763 86.7427244 54.1218513 86.7861594 54.1218513L86.8664844 54.1218513 86.9105144 54.1432713C86.9265794 54.1516013 86.9444294 54.1575513 86.9622794 54.1605263 86.9920294 54.1801613 87.0312994 54.1968213 87.0818744 54.2021763 87.1068644 54.2224063 87.1372093 54.2366863 87.1687443 54.2426363 87.2020643 54.2944013 87.2597793 54.3289113 87.3264193 54.3289113L87.3323693 54.3289113C87.3680693 54.3628263 87.4061493 54.3842463 87.4406593 54.3961463L87.4846893 54.4407713C87.5102743 54.4657613 87.5424043 54.4830163 87.5769143 54.4907513L87.6512893 54.5651263C87.6655693 54.5794063 87.6810393 54.5907113 87.6994843 54.5996363 87.7143593 54.6311713 87.7387543 54.6579463 87.7702893 54.6763913 87.8821493 54.7442213 87.9708043 54.8316863 88.0386343 54.9447363 88.0463693 54.9578263 88.0552943 54.9697263 88.0665993 54.9804363L88.0993243 55.0137562C88.1058693 55.0435062 88.1201493 55.0720662 88.1403793 55.0958662 88.1504943 55.1416812 88.1766743 55.1809512 88.2135643 55.2077262 88.2195143 55.2154612 88.2254643 55.2231962 88.2326043 55.2303362L88.2361743 55.2333112C88.2468843 55.2618712 88.2623543 55.2916212 88.2861543 55.3219662 88.3331593 55.4415612 88.3795693 55.5700812 88.4283593 55.7134762 88.4325243 55.7700012 88.4462093 55.8199812 88.4694143 55.8628212L88.4694143 55.9288662C88.4694143 55.9681362 88.4771493 56.0204962 88.5104693 56.0752362L88.5104693 83.8492395C88.5104693 84.4960045 88.2909143 85.0303145 87.8381193 85.4831094 87.3841343 85.9353094 86.8504194 86.1554594 86.2042494 86.1554594M97.9625197 69.3906214L96.7153998 75.498296 99.1673946 75.498296 97.9625197 69.3906214zM105.898034 83.7241706C106.036074 84.4173455 105.918859 85.0474505 105.544604 85.6156754 105.170944 86.1821154 104.637824 86.5355454 103.945244 86.6741804 103.833979 86.7021454 103.681659 86.7158304 103.488284 86.7158304 102.906969 86.7158304 102.387534 86.5290004 101.929979 86.1553404 101.47302 85.7810854 101.174925 85.3033005 101.036885 84.7219855L100.164615 80.4838007 95.7187748 80.4838007 94.8465049 84.7219855C94.7352399 85.3033005 94.4520199 85.7810854 93.9944649 86.1553404 93.537505 86.5290004 93.01807 86.7158304 92.436755 86.7158304 92.214225 86.7158304 92.0482201 86.7021454 91.9381451 86.6741804 91.2455651 86.5355454 90.7118501 86.1821154 90.3387852 85.6156754 89.9645302 85.0474505 89.8461252 84.4173455 89.9853552 83.7241706L95.5111199 56.2613522 95.5111199 56.2197022 95.5111199 56.1369972C95.5111199 56.1096272 95.5176649 56.0953472 95.5319449 56.0953472 95.5456299 56.0953472 95.5521749 56.0816622 95.5521749 56.0536972L95.5521749 56.0120472 95.5521749 55.9703972C95.5801399 55.9430272 95.5944199 55.9156572 95.5944199 55.8870972 95.5944199 55.8603222 95.6003698 55.8454472 95.6152448 55.8454472 95.6283348 55.8454472 95.6354748 55.8323572 95.6354748 55.8043922L95.6354748 55.7627422C95.7187748 55.5414022 95.8431298 55.3474322 96.0097298 55.1814272L96.0097298 55.1397772C96.0370998 55.1397772 96.0513798 55.1332322 96.0513798 55.1189522 96.0513798 55.1052672 96.0650648 55.0981272 96.0924348 55.0981272L96.0924348 55.0564772 96.1346798 55.0148272 96.1757348 54.9737723 96.2173848 54.9321223 96.2590348 54.8904723 96.3006848 54.8488223 96.3839848 54.8071723C96.5499898 54.6405723 96.7433648 54.5162173 96.9647048 54.4329173L97.0069498 54.4329173C97.0337248 54.4061423 97.0616898 54.3918623 97.0896548 54.3918623 97.2282898 54.3365273 97.3532397 54.3026123 97.4639097 54.2877373 97.5745797 54.2740523 97.6989347 54.2532273 97.8375697 54.2252623L97.8792197 54.2252623 97.9625197 54.2252623 98.0458197 54.2252623C98.1838597 54.2532273 98.3082147 54.2740523 98.4194797 54.2877373 98.5295547 54.3026123 98.6545047 54.3365273 98.7931397 54.3918623 98.8205097 54.3918623 98.8484747 54.4061423 98.8764397 54.4329173L98.9174947 54.4329173C99.1394296 54.5162173 99.3339946 54.6405723 99.4994046 54.8071723 99.5273696 54.8071723 99.5553346 54.8214523 99.5827046 54.8488223L99.6243546 54.8904723 99.6654096 54.9321223 99.7076546 54.9737723 99.7487096 55.0148272 99.7903596 55.0564772 99.8320096 55.0981272 99.8736596 55.1397772 99.8736596 55.1814272C100.039665 55.3474322 100.164615 55.5414022 100.247915 55.7627422L100.247915 55.8043922C100.247915 55.8323572 100.25446 55.8454472 100.268145 55.8454472 100.281235 55.8454472 100.28897 55.8603222 100.28897 55.8870972 100.344305 56.0536972 100.37227 56.1780522 100.37227 56.2613522L105.898034 83.7241706z"/>
      <path fill="#12100B" d="M97.9625197 69.2037914C97.8738647 69.2037914 97.7977047 69.2656714 97.7792597 69.3531364L96.5327348 75.460811C96.5214298 75.515551 96.5357098 75.573266 96.5708148 75.616106 96.6065148 75.660136 96.6600648 75.685126 96.7153998 75.685126L99.1673946 75.685126C99.2233246 75.685126 99.2762796 75.660136 99.3119796 75.616701 99.3470846 75.573861 99.3619596 75.516741 99.3506546 75.462001L98.1463747 69.3543264C98.1285247 69.2668614 98.0517697 69.2037914 97.9631147 69.2037914L97.9625197 69.2037914zM103.488284 86.5290004C102.946239 86.5290004 102.474999 86.3594254 102.048384 86.0107554 101.625339 85.6644654 101.346285 85.2164305 101.218955 84.6785505L100.34728 80.4463157C100.330025 80.3594458 100.25327 80.2969708 100.164615 80.2969708L95.7187748 80.2969708C95.6301198 80.2969708 95.5533649 80.3594458 95.5355149 80.4463157L94.6632449 84.6845005C94.5591199 85.2295205 94.3020799 85.6626804 93.87606 86.0107554 93.449445 86.3594254 92.9788 86.5290004 92.436755 86.5290004 92.1809051 86.5290004 92.0494101 86.5093654 91.9833651 86.4933004L91.9750351 86.4915154C91.3270801 86.3612104 90.8427501 86.0416954 90.4940802 85.5127404 90.1448152 84.9825955 90.0383102 84.4096105 90.1680202 83.7610605L95.6937848 56.2982422C95.6961648 56.2863422 95.6973548 56.2738472 95.6973548 56.2613522L95.6973548 56.1964972C95.7229398 56.1602022 95.7395998 56.1126022 95.7395998 56.0536972L95.7395998 56.0334672C95.7544748 56.0078822 95.7645898 55.9828922 95.7705398 55.9596872 95.8020748 55.9222022 95.8223048 55.8698422 95.8223048 55.8037972L95.8223048 55.7978472C95.8954898 55.6151822 96.0031848 55.4521522 96.1412248 55.3135172 96.1560998 55.2992372 96.1674048 55.2831722 96.1763298 55.2653222 96.2263098 55.2403322 96.2631998 55.1939222 96.2750998 55.1379922L96.4113548 55.0023322 96.4672848 54.9743673C96.4851348 54.9654423 96.5017948 54.9535423 96.5154798 54.9392623 96.6547098 54.8000323 96.8171448 54.6929323 96.9998098 54.6197473L97.0069498 54.6197473C97.0521698 54.6197473 97.0950098 54.6036823 97.1295198 54.5745273 97.1390398 54.5721473 97.1491548 54.5691723 97.1586748 54.5650073 97.2806498 54.5162173 97.3913197 54.4858723 97.4877097 54.4733773 97.5959997 54.4596923 97.7167847 54.4400573 97.8560147 54.4120923L98.0267797 54.4120923C98.1666047 54.4400573 98.2873897 54.4596923 98.3962747 54.4733773 98.4914747 54.4858723 98.6021447 54.5168123 98.7241197 54.5650073 98.7342347 54.5691723 98.7437547 54.5721473 98.7538697 54.5745273 98.7883797 54.6024923 98.8324097 54.6197473 98.8764397 54.6197473L98.8829847 54.6197473C99.0662446 54.6935273 99.2292746 54.8006273 99.3667196 54.9392623 99.3923046 54.9642523 99.4244346 54.9821023 99.4595396 54.9892422L99.6909946 55.2212922C99.6987296 55.2558022 99.7159846 55.2879322 99.7409746 55.3135172 99.8802046 55.4521522 99.9873046 55.6151822 100.06049 55.7978472L100.06049 55.8037972C100.06049 55.8746022 100.083695 55.9287472 100.1188 55.9674222 100.176515 56.1459222 100.18544 56.2274372 100.18544 56.2613522 100.18544 56.2738472 100.18663 56.2863422 100.18901 56.2982422L105.714774 83.7610605C105.844484 84.4102055 105.737384 84.9831905 105.388714 85.5127404 105.040639 86.0411004 104.556309 86.3612104 103.908354 86.4915154 103.905379 86.4921104 103.902999 86.4927054 103.900024 86.4933004 103.803634 86.5171004 103.664999 86.5290004 103.488284 86.5290004L103.488284 86.5290004zM116.076282 69.2656714C116.214322 69.2656714 116.401747 69.1764214 116.637367 68.9955414 116.872392 68.8158514 117.142522 68.5046665 117.447757 68.0607965 117.807137 67.5068515 118.076672 66.8838865 118.257552 66.1913066 118.437837 65.4993216 118.527682 64.7930567 118.527682 64.0719167 118.527682 63.3525618 118.437837 62.6391568 118.257552 61.9322968 118.076672 61.2266269 117.807137 60.5965219 117.447757 60.042577 117.142522 59.626672 116.872392 59.329172 116.637367 59.148887 116.401747 58.969197 116.214322 58.878757 116.076282 58.878757L112.544957 58.878757 112.544957 69.2656714 116.076282 69.2656714zM124.220047 82.8108456C124.524092 83.4480906 124.544917 84.0847405 124.282522 84.7219855 124.018937 85.3592305 123.569117 85.8155954 122.931872 86.0928654 122.599267 86.2315004 122.267257 86.3005204 121.935247 86.3005204 121.463412 86.3005204 121.021327 86.1690254 120.605422 85.9054404 120.189517 85.6424504 119.871192 85.2759305 119.649852 84.8052855L115.038007 74.2511761 112.544957 74.2511761 112.544957 83.8074705C112.544957 84.5006455 112.302197 85.0891005 111.817867 85.5734304 111.332347 86.0583554 110.743892 86.3005204 110.051907 86.3005204 109.359328 86.3005204 108.770873 86.0583554 108.285948 85.5734304 107.801618 85.0891005 107.559453 84.5006455 107.559453 83.8074705L107.559453 56.3863022C107.559453 55.6937222 107.801618 55.1052672 108.285948 54.6203423 108.770873 54.1360123 109.359328 53.8932523 110.051907 53.8932523L116.076282 53.8932523C117.129432 53.8932523 118.139742 54.1913473 119.109592 54.7863473 120.078847 55.3825372 120.923152 56.2339822 121.643697 57.3412771 122.890222 59.308347 123.513782 61.5526869 123.513782 64.0719167 123.513782 65.2916666 123.353727 66.4685766 123.035997 67.6038365 122.717077 68.7396914 122.252977 69.7922464 121.643697 70.7615013 121.367022 71.1768113 121.076067 71.5510663 120.772022 71.8830763 120.466192 72.2156812 120.161552 72.5209162 119.856912 72.7975912L124.220047 82.8108456z"/>
      <path fill="#12100B" d="M112.545255 58.691927C112.441725 58.691927 112.358425 58.775822 112.358425 58.878757L112.358425 69.2656714C112.358425 69.3692014 112.441725 69.4525014 112.545255 69.4525014L116.07658 69.4525014C116.259245 69.4525014 116.47999 69.3519464 116.750715 69.1442914 117.00478 68.9497264 117.28324 68.6302114 117.601565 68.1667065 117.972845 67.5949115 118.253685 66.9475515 118.438729 66.2383116 118.621989 65.5338316 118.714214 64.8049567 118.714214 64.0719167 118.714214 63.3406618 118.621989 62.6052418 118.438729 61.8864818 118.25428 61.1635569 117.972845 60.5090569 117.60454 59.940832 117.60216 59.937262 117.600375 59.934287 117.597995 59.931312 117.286215 59.505887 117.000615 59.192917 116.75131 59.000732 116.4788 58.792482 116.25865 58.691927 116.07658 58.691927L112.545255 58.691927zM121.934949 86.1136904C121.497029 86.1136904 121.094809 85.9940954 120.705084 85.7477654 120.321904 85.5050054 120.023809 85.1610955 119.819129 84.7255555L115.20907 74.1768011C115.17932 74.1083761 115.112085 74.0643461 115.03771 74.0643461L112.545255 74.0643461C112.441725 74.0643461 112.358425 74.1482411 112.358425 74.2511761L112.358425 83.8074705C112.358425 84.4548305 112.138275 84.9891405 111.686075 85.4419355 111.232685 85.8941354 110.698375 86.1136904 110.0528 86.1136904 109.40544 86.1136904 108.870535 85.8941354 108.41774 85.4419355 107.966135 84.9897355 107.745985 84.4548305 107.745985 83.8074705L107.745985 56.3863022C107.745985 55.7395372 107.966135 55.2046322 108.41774 54.7524323 108.870535 54.3002323 109.40544 54.0800823 110.0528 54.0800823L116.07658 54.0800823C117.088675 54.0800823 118.07578 54.3710373 119.011714 54.9452123 119.952409 55.5241472 120.785409 56.3642872 121.487509 57.4436171 122.707854 59.369037 123.327249 61.6002869 123.327249 64.0719167 123.327249 65.2672716 123.168384 66.4382316 122.856009 67.5532615 122.543634 68.6665064 122.082509 69.7125164 121.485724 70.6621363 121.216784 71.0649513 120.929399 71.4350413 120.634279 71.7569363 120.332019 72.0859712 120.027974 72.3894212 119.731664 72.6595512 119.672759 72.7131012 119.653719 72.7987812 119.685849 72.8725612L124.048389 82.8852206C124.334584 83.4837906 124.354219 84.0597505 124.110269 84.6505855 123.863344 85.2461805 123.453389 85.6620854 122.857199 85.9215054 122.551369 86.0488354 122.240184 86.1136904 121.934949 86.1136904L121.934949 86.1136904zM142.708957 77.9911079C142.708957 78.0744079 142.701817 78.3439429 142.688132 78.8014978 142.673257 79.2578628 142.604832 79.7987178 142.480477 80.4210877 142.355527 81.0446477 142.140732 81.7169977 141.836092 82.4363526 141.531452 83.1574926 141.088772 83.8221075 140.506862 84.4307925 140.035622 84.9573675 139.336497 85.4696624 138.408297 85.9682724 137.480097 86.4668824 136.282362 86.7161874 134.814497 86.7161874 133.346632 86.7161874 132.161987 86.4668824 131.262942 85.9682724 130.362112 85.4696624 129.676672 84.9573675 129.206027 84.4307925 128.651487 83.8221075 128.221897 83.1711776 127.918447 82.4780026 127.612617 81.7860177 127.398417 81.1279477 127.274062 80.5043877 127.149707 79.8814228 127.086637 79.3274778 127.086637 78.8431478L127.086637 77.8251029 127.086637 61.8701788C127.086637 60.1809739 127.363312 58.830919 127.918447 57.8194191 128.471202 56.8085141 129.039427 56.0260892 129.621337 55.4715492 130.313322 54.8354943 131.102292 54.3434293 131.989437 53.9971393 132.875987 53.6508493 133.802997 53.4777043 134.772847 53.4777043 135.714732 53.4777043 136.663757 53.6437093 137.619327 53.9763143 138.574897 54.3083243 139.426342 54.8218093 140.174257 55.5131992 140.922172 56.2063742 141.531452 57.0786441 142.002692 58.1311991 142.473337 59.183754 142.708957 60.4302789 142.708957 61.8701788 142.708957 62.5913188 142.466792 63.1863188 141.981867 63.6569637 141.496942 64.1282037 140.908487 64.3632287 140.215907 64.3632287 139.523327 64.3632287 138.934277 64.1282037 138.450542 63.6569637 137.965022 63.1863188 137.722857 62.5913188 137.722857 61.8701788 137.722857 61.1222639 137.619327 60.5272639 137.411672 60.0839889 137.204017 59.641309 136.954117 59.301564 136.663757 59.065944 136.373397 58.830919 136.053882 58.670864 135.707592 58.588159 135.361302 58.504859 135.050117 58.463209 134.772847 58.463209 134.579472 58.463209 134.330167 58.498314 134.025527 58.567334 133.720887 58.636354 133.423387 58.789269 133.131837 59.024294 132.840882 59.259914 132.592172 59.599659 132.383922 60.042339 132.176862 60.4856139 132.072737 61.0954889 132.072737 61.8701788L132.072737 77.9078079 132.072737 78.1154629 132.072737 78.6765478C132.072737 78.9121678 132.100107 79.1751578 132.156037 79.4661128 132.210182 79.7570678 132.294077 80.0480228 132.405342 80.3383828 132.515417 80.6293377 132.667737 80.8720977 132.862302 81.0654727 132.945602 81.1487727 133.125292 81.2808627 133.401967 81.4605527 133.678642 81.6408377 134.149882 81.7306827 134.814497 81.7306827 135.534447 81.7306827 136.033652 81.6408377 136.310327 81.4605527 136.587002 81.2808627 136.767882 81.1350877 136.850587 81.0238227 137.238527 80.6364777 137.480097 80.1515528 137.577677 79.5702378 137.674662 78.9883278 137.722857 78.5593329 137.722857 78.2820629L137.722857 77.8251029C137.722857 77.5484279 137.791877 77.2503329 137.931107 76.931413 138.069147 76.613683 138.297627 76.315588 138.616547 76.038318 138.934277 75.761643 139.398972 75.609323 140.008847 75.581358 140.644902 75.553988 141.136372 75.664063 141.483257 75.913368 141.828952 76.162673 142.099677 76.440538 142.293647 76.744583 142.514987 77.1045579 142.653027 77.5204629 142.708957 77.9911079"/>
      <path fill="#12100B" d="M134.814735 86.5291194C133.385545 86.5291194 132.22113 86.2857644 131.35362 85.8050044 130.474805 85.3182945 129.798885 84.8143295 129.345495 84.3067945 128.80583 83.7141746 128.38338 83.0745496 128.088855 82.4027946 127.791355 81.7280647 127.57894 81.0771347 127.45756 80.4678547 127.335585 79.8591698 127.273705 79.3123648 127.273705 78.8429098L127.273705 61.8705358C127.273705 60.2200059 127.54562 58.886611 128.08231 57.9090261 128.62257 56.9219211 129.183655 56.1472312 129.750095 55.6069712 130.41947 54.9911462 131.197135 54.5074113 132.057505 54.1712363 132.917875 53.8350613 133.831795 53.6642963 134.773085 53.6642963 135.68998 53.6642963 136.627105 53.8291113 137.557685 54.1527913 138.483505 54.4740913 139.32067 54.9786513 140.04776 55.6504062 140.773065 56.3221612 141.372825 57.1825311 141.832165 58.2071211 142.28972 59.231711 142.522365 60.4639559 142.522365 61.8705358 142.522365 62.5440758 142.30281 63.0849308 141.8518 63.5228507 141.399005 63.9625557 140.8641 64.1767557 140.21555 64.1767557 139.567 64.1767557 139.032095 63.9625557 138.58049 63.5228507 138.128885 63.0849308 137.909925 62.5446708 137.909925 61.8705358 137.909925 61.0982259 137.799255 60.4705009 137.580295 60.004616 137.36193 59.538136 137.09299 59.173401 136.781805 58.920526 136.46943 58.668246 136.122545 58.495696 135.751265 58.406446 135.39248 58.3201711 135.063445 58.2767361 134.773085 58.2767361 134.56424 58.2767361 134.306605 58.3118411 133.984115 58.385026 133.65389 58.459996 133.327235 58.626001 133.01486 58.878876 132.70308 59.131156 132.43414 59.495891 132.21518 59.962966 131.996815 60.4294459 131.88555 61.0714509 131.88555 61.8705358L131.88555 78.6769048C131.88555 78.9232348 131.914705 79.2005048 131.97242 79.5009798 132.028945 79.8014548 132.11641 80.1060948 132.230055 80.4053797 132.349055 80.7195397 132.518035 80.9860997 132.73045 81.1979197 132.82446 81.2919297 133.01129 81.4293747 133.30046 81.6173947 133.610455 81.8190997 134.10609 81.9172747 134.814735 81.9172747 135.57931 81.9172747 136.10172 81.8190997 136.412905 81.6167997 136.70267 81.4281847 136.89188 81.2740797 136.991245 81.1473447 137.40001 80.7356047 137.658835 80.2155748 137.76177 79.6009398 137.86173 79.0023698 137.909925 78.5709949 137.909925 78.2818249L137.909925 77.8248649C137.909925 77.5749649 137.97478 77.2994799 138.10211 77.0061449 138.228845 76.714595 138.443045 76.43673 138.739355 76.179095 139.02317 75.931575 139.453355 75.793535 140.01682 75.76795 140.07751 75.76557 140.13701 75.76438 140.194725 75.76438 140.69988 75.76438 141.096745 75.86553 141.374015 76.06545 141.69829 76.299285 141.95533 76.56168 142.13621 76.845495 142.33851 77.1745299 142.468815 77.5642549 142.522365 78.0015799 142.52177 78.0985649 142.51344 78.3901149 142.50154 78.7959048 142.487855 79.2433448 142.41824 79.7776548 142.29686 80.3845547 142.17548 80.9926447 141.963065 81.6584497 141.664375 82.3641196 141.36985 83.0602696 140.934905 83.7129846 140.372035 84.3020345 139.912695 84.8143295 139.22428 85.3176995 138.320475 85.8038144 137.42381 86.2851694 136.243925 86.5291194 134.814735 86.5291194M159.826808 53.8517808C160.518198 53.8517808 161.107248 54.0945408 161.592173 54.5788708 162.076503 55.0637957 162.318668 55.6522507 162.318668 56.3442357L162.318668 83.849299C162.318668 84.542474 162.076503 85.130929 161.592173 85.6152589 161.107248 86.0989939 160.518198 86.3423489 159.826808 86.3423489 159.134228 86.3423489 158.544583 86.0989939 158.060848 85.6152589 157.575328 85.130929 157.333758 84.542474 157.333758 83.849299L157.333758 74.2930046 150.851829 74.2930046 150.851829 83.849299C150.851829 84.542474 150.609069 85.130929 150.124739 85.6152589 149.639814 86.0989939 149.051359 86.3423489 148.359374 86.3423489 147.666199 86.3423489 147.077149 86.0989939 146.593414 85.6152589 146.108489 85.130929 145.866324 84.542474 145.866324 83.849299L145.866324 56.3442357C145.866324 55.6522507 146.108489 55.0637957 146.593414 54.5788708 147.077149 54.0945408 147.666199 53.8517808 148.359374 53.8517808 149.051359 53.8517808 149.639814 54.0945408 150.124739 54.5788708 150.609069 55.0637957 150.851829 55.6522507 150.851829 56.3442357L150.851829 69.3074999 157.333758 69.3074999 157.333758 56.3442357C157.333758 55.6522507 157.575328 55.0637957 158.060848 54.5788708 158.544583 54.0945408 159.134228 53.8517808 159.826808 53.8517808"/>
      <path fill="#12100B" d="M159.826808 86.1554594C159.179448 86.1554594 158.645733 85.9353094 158.192938 85.4831094 157.740143 85.0315045 157.519993 84.4971945 157.519993 83.8492395L157.519993 74.2929451C157.519993 74.1900101 157.436098 74.1061151 157.333758 74.1061151L150.851829 74.1061151C150.748299 74.1061151 150.664999 74.1900101 150.664999 74.2929451L150.664999 83.8492395C150.664999 84.4960045 150.444849 85.0303145 149.992649 85.4831094 149.539259 85.9353094 149.004949 86.1554594 148.359374 86.1554594 147.712609 86.1554594 147.178299 85.9353094 146.724909 85.4831094 146.273304 85.0309095 146.053154 84.4965995 146.053154 83.8492395L146.053154 56.3441762C146.053154 55.6980062 146.273304 55.1631012 146.724909 54.7109013 147.177704 54.2587013 147.712609 54.0385513 148.359374 54.0385513 149.004949 54.0385513 149.539854 54.2587013 149.992649 54.7109013 150.444849 55.1636962 150.664999 55.6980062 150.664999 56.3441762L150.664999 69.3074404C150.664999 69.4103754 150.748299 69.4942704 150.851829 69.4942704L157.333758 69.4942704C157.436098 69.4942704 157.519993 69.4103754 157.519993 69.3074404L157.519993 56.3441762C157.519993 55.6974112 157.740143 55.1631012 158.192938 54.7109013 158.645138 54.2587013 159.179448 54.0385513 159.826808 54.0385513 160.472978 54.0385513 161.007288 54.2587013 161.460083 54.7109013 161.912283 55.1631012 162.131838 55.6974112 162.131838 56.3441762L162.131838 83.8492395C162.131838 84.4965995 161.912283 85.0315045 161.460083 85.4831094 161.013238 85.9293594 160.463458 86.1554594 159.826808 86.1554594M180.37174 82.0419272C180.855475 82.5268521 181.099425 83.1159021 181.099425 83.807292 181.099425 84.500467 180.855475 85.089517 180.37174 85.5738469 179.886815 86.0581769 179.29836 86.3009369 178.60578 86.3009369L168.427116 86.3009369C167.734536 86.3009369 167.144891 86.0581769 166.661156 85.5738469 166.176231 85.089517 165.933471 84.500467 165.933471 83.807292L165.933471 56.3028237C165.933471 55.6108387 166.176231 55.0217887 166.661156 54.5368638 167.144891 54.0525338 167.734536 53.8103688 168.427116 53.8103688L178.60578 53.8103688C179.29836 53.8103688 179.886815 54.0525338 180.37174 54.5368638 180.855475 55.0217887 181.099425 55.6108387 181.099425 56.3028237 181.099425 57.0233686 180.855475 57.6189636 180.37174 58.0890136 179.886815 58.5608485 179.29836 58.7958735 178.60578 58.7958735L170.918976 58.7958735 170.918976 69.2654929 176.238276 69.2654929C176.930261 69.2654929 177.518716 69.5088479 178.00364 69.9931779 178.48797 70.4781028 178.73073 71.0671528 178.73073 71.7585428 178.73073 72.4517177 178.48797 73.0407677 178.00364 73.5250977 177.518716 74.0094276 176.930261 74.2515926 176.238276 74.2515926L170.918976 74.2515926 170.918976 81.3148372 178.60578 81.3148372C179.29836 81.3148372 179.886815 81.5575972 180.37174 82.0419272"/>
      <path fill="#12100B" d="M168.426997 86.1139284C167.779637 86.1139284 167.245327 85.8937784 166.793127 85.4415785 166.340332 84.9893785 166.120182 84.4544735 166.120182 83.8077085L166.120182 56.3026452C166.120182 55.6564752 166.340332 55.1221652 166.793127 54.6693703 167.245327 54.2171703 167.779637 53.9970203 168.426997 53.9970203L178.605661 53.9970203C179.251236 53.9970203 179.786141 54.2171703 180.240126 54.6693703 180.692326 55.1227602 180.912476 55.6570702 180.912476 56.3026452 180.912476 56.9761851 180.692921 57.5164451 180.241316 57.9549601 179.789116 58.39526 179.253616 58.608865 178.605661 58.608865L170.918857 58.608865C170.815922 58.608865 170.732027 58.69276 170.732027 58.795695L170.732027 69.2659094C170.732027 69.3688444 170.815922 69.4527394 170.918857 69.4527394L176.238157 69.4527394C176.884327 69.4527394 177.418042 69.6728894 177.871431 70.1250894 178.324226 70.5778843 178.544376 71.1127893 178.544376 71.7589593 178.544376 72.4057242 178.324226 72.9400342 177.871431 73.3928292 177.418637 73.8444341 176.884922 74.0645841 176.238157 74.0645841L170.918857 74.0645841C170.815922 74.0645841 170.732027 74.1484791 170.732027 74.2514141L170.732027 81.3146587C170.732027 81.4175937 170.815922 81.5014887 170.918857 81.5014887L178.605661 81.5014887C179.251236 81.5014887 179.786141 81.7216387 180.240126 82.1738386 180.692326 82.6278236 180.912476 83.1621336 180.912476 83.8077085 180.912476 84.4538785 180.692326 84.9881885 180.240126 85.4415785 179.786141 85.8937784 179.251236 86.1139284 178.605661 86.1139284L168.426997 86.1139284zM198.383877 53.8517808C199.075267 53.8517808 199.664317 54.0945408 200.149242 54.5788708 200.633572 55.0637957 200.875737 55.6522507 200.875737 56.3442357L200.875737 83.807649 200.875737 83.973654 200.875737 84.098604 200.875737 84.140254 200.875737 84.222959 200.834682 84.264609 200.834682 84.306259 200.834682 84.389559 200.834682 84.431209C200.806717 84.459174 200.793627 84.487139 200.793627 84.513914L200.793627 84.555564C200.793627 84.583529 200.785892 84.597214 200.772207 84.597214 200.757927 84.597214 200.751382 84.611494 200.751382 84.638864 200.751382 84.666829 200.744242 84.687654 200.730557 84.700744 200.716277 84.715619 200.709732 84.735849 200.709732 84.763814 200.709732 84.791779 200.702592 84.812009 200.690097 84.825694 200.675222 84.839974 200.668677 84.860799 200.668677 84.888169 200.668677 84.915539 200.661537 84.929819 200.647852 84.929819 200.633572 84.929819 200.627622 84.943504 200.627622 84.971469L200.627622 85.013119C200.599657 85.013119 200.585377 85.026804 200.585377 85.054174L200.543132 85.095824C200.543132 85.123789 200.528852 85.151159 200.502672 85.178529L200.461022 85.220179 200.461022 85.261829C200.433057 85.261829 200.419372 85.276109 200.419372 85.303479 200.419372 85.331444 200.405092 85.345129 200.377127 85.345129 200.377127 85.373094 200.370582 85.386779 200.356897 85.386779 200.342617 85.386779 200.336072 85.401059 200.336072 85.427834L200.295017 85.427834C200.295017 85.4557989 200.280142 85.4843589 200.252772 85.5111339L200.169472 85.5944339 200.087362 85.6771389 200.003467 85.7604389 199.962412 85.7604389 199.879112 85.8437389C199.851147 85.8705139 199.823182 85.8853889 199.795812 85.8853889 199.795812 85.9121639 199.781532 85.9270389 199.755352 85.9270389L199.712512 85.9686889C199.685142 85.9686889 199.670862 85.9746389 199.670862 85.9889189 199.670862 86.0026039 199.657177 86.0097439 199.629807 86.0097439L199.588157 86.0097439 199.504857 86.0930439C199.394187 86.1483789 199.297202 86.1900289 199.214497 86.2173989 199.131197 86.2447689 199.019932 86.2727339 198.881892 86.3006989 198.770627 86.3280689 198.604622 86.3423489 198.383877 86.3423489 198.217872 86.3423489 198.092922 86.3280689 198.009027 86.3006989L197.925727 86.3006989 197.885267 86.3006989C197.856707 86.3006989 197.843022 86.2864189 197.843022 86.2590489L197.677017 86.2590489 197.677017 86.2173989 197.593717 86.2173989C197.483047 86.1614689 197.413432 86.1346939 197.386062 86.1346939 197.358097 86.1346939 197.345007 86.1198189 197.345007 86.0930439L197.303357 86.0930439C197.275392 86.0930439 197.261112 86.0787639 197.261112 86.0513939 197.233147 86.0513939 197.205777 86.0371139 197.179002 86.0097439 197.151037 86.0097439 197.136757 85.9954639 197.136757 85.9686889L197.095107 85.9686889C197.067142 85.9686889 197.054052 85.9609539 197.054052 85.9472689 197.054052 85.9329889 197.039177 85.9270389 197.012402 85.9270389 196.706572 85.7056989 196.458457 85.442709 196.263892 85.137474L196.263892 85.095824C196.237117 85.095824 196.222837 85.082139 196.222837 85.054174L196.181782 85.013119 196.181782 84.971469C196.153817 84.943504 196.139537 84.915539 196.139537 84.888169 196.139537 84.860799 196.125257 84.832834 196.097292 84.804869L188.993587 68.39358 188.993587 83.849299C188.993587 84.542474 188.750827 85.130929 188.265902 85.6152589 187.781572 86.0989939 187.192522 86.3423489 186.500537 86.3423489 185.807363 86.3423489 185.219503 86.0989939 184.734578 85.6152589 184.249653 85.130929 184.008083 84.542474 184.008083 83.849299L184.008083 56.3858857 184.008083 56.2198807 184.008083 56.0955257 184.008083 56.0538757 184.008083 55.9705757 184.049138 55.9289257 184.049138 55.8872757 184.049138 55.8039757 184.049138 55.7623257C184.077103 55.7355507 184.090193 55.7075857 184.090193 55.6796207L184.090193 55.6379707C184.090193 55.6111957 184.096738 55.5963207 184.111613 55.5963207 184.124703 55.5963207 184.132438 55.5826357 184.132438 55.5546707 184.132438 55.5278957 184.138983 55.5070707 184.152668 55.4927907 184.166353 55.4791057 184.174088 55.4582807 184.174088 55.4303157 184.174088 55.4029457 184.180633 55.3827157 184.194318 55.3678407 184.208598 55.3541557 184.215738 55.3333307 184.215738 55.3059607 184.215738 55.2779957 184.221688 55.2643107 184.237158 55.2643107 184.249653 55.2643107 184.256793 55.2506257 184.256793 55.2226607L184.256793 55.1810107 184.340093 55.0983057C184.340093 55.0703407 184.346638 55.0566557 184.360918 55.0566557 184.375198 55.0566557 184.381743 55.0429707 184.381743 55.0150057L184.422798 54.9733558 184.422798 54.9317058C184.450763 54.9049308 184.464448 54.8769658 184.464448 54.8490008L184.506693 54.8490008C184.506693 54.8216308 184.513238 54.8073508 184.527518 54.8073508 184.541203 54.8073508 184.547748 54.7936658 184.547748 54.7657008L184.588803 54.7657008C184.588803 54.7383308 184.603083 54.7103658 184.631048 54.6824008L184.713753 54.5991008 184.713753 54.5580458C184.741123 54.5580458 184.769088 54.5443608 184.797053 54.5163958L184.797053 54.4747458C184.824423 54.4747458 184.852388 54.4610608 184.880353 54.4330958L184.921408 54.4330958 185.005303 54.3497958 185.087413 54.2670908 185.129658 54.2670908C185.129658 54.2397208 185.143343 54.2254408 185.171903 54.2254408 185.198083 54.2254408 185.212363 54.2194908 185.212363 54.2046158 185.212363 54.1909308 185.226048 54.1837908 185.254013 54.1837908L185.295068 54.1837908 185.378963 54.1004908C185.572338 53.9904158 185.765713 53.9208008 185.959683 53.8934308L186.001928 53.8934308C186.140562 53.8654658 186.348217 53.8517808 186.624892 53.8517808L186.749842 53.8517808 186.791492 53.8517808 186.832547 53.8934308 186.916442 53.8934308 186.957497 53.8934308 187.040797 53.8934308C187.040797 53.9208008 187.054482 53.9350808 187.082447 53.9350808L187.165152 53.9350808 187.206802 53.9350808C187.206802 53.9624508 187.234172 53.9761358 187.289507 53.9761358 187.316877 54.0041008 187.359122 54.0177858 187.415052 54.0177858 187.441232 54.0457508 187.469197 54.0594358 187.497162 54.0594358L187.538812 54.0594358C187.538812 54.0874008 187.566182 54.1004908 187.622707 54.1004908L187.622707 54.1421408C187.677447 54.1421408 187.706007 54.1564208 187.706007 54.1837908L187.747657 54.1837908C187.773837 54.1837908 187.788712 54.1909308 187.788712 54.2046158 187.788712 54.2194908 187.801802 54.2254408 187.829767 54.2254408L187.872012 54.2670908 187.913662 54.3087408 187.955312 54.3497958 187.996367 54.3497958C188.024332 54.3777608 188.052297 54.3914458 188.079667 54.3914458L188.079667 54.4330958C188.106442 54.4330958 188.121317 54.4408308 188.121317 54.4539208 188.121317 54.4682008 188.133812 54.4747458 188.162372 54.4747458L188.162372 54.5163958C188.190337 54.5163958 188.203427 54.5229408 188.203427 54.5372208 188.203427 54.5515008 188.217707 54.5580458 188.245672 54.5580458L188.245672 54.5991008 188.328972 54.6824008 188.411677 54.7657008 188.494977 54.8490008C188.494977 54.8769658 188.508067 54.9049308 188.536032 54.9317058 188.563997 54.9317058 188.578277 54.9459858 188.578277 54.9733558 188.578277 55.0013207 188.591962 55.0150057 188.619927 55.0150057 188.619927 55.0703407 188.633017 55.0983057 188.660982 55.0983057L188.660982 55.1399557C188.688352 55.1673257 188.702632 55.1952907 188.702632 55.2226607L188.744282 55.2226607C188.744282 55.2779957 188.750827 55.3131007 188.764512 55.3267857 188.778792 55.3410657 188.785932 55.3612957 188.785932 55.3886657L195.890232 71.8005498 195.890232 56.3442357C195.890232 55.6522507 196.132397 55.0637957 196.617322 54.5788708 197.101652 54.0945408 197.690702 53.8517808 198.383877 53.8517808"/>
      <path fill="#12100B" d="M198.383877,86.1554594 C198.194667,86.1554594 198.104227,86.1352294 198.067337,86.1233294 C198.048892,86.1173794 198.028662,86.1138094 198.009027,86.1138094 L197.960832,86.1138094 C197.928107,86.0882244 197.887647,86.0721594 197.843022,86.0721594 L197.794232,86.0721594 C197.762102,86.0465744 197.721642,86.0311044 197.677017,86.0311044 L197.637747,86.0311044 C197.569322,85.9971894 197.519342,85.9769594 197.480667,85.9644644 C197.455082,85.9370944 197.421167,85.9180544 197.383087,85.9097244 C197.359882,85.8894944 197.331322,85.8758094 197.302167,85.8692644 C197.297407,85.8650994 197.292647,85.8615294 197.287887,85.8579594 C197.257542,85.8169044 197.210537,85.7883444 197.156392,85.7823944 C197.136757,85.7681144 197.113552,85.7568094 197.086777,85.7496694 C196.833902,85.5604594 196.619107,85.3355495 196.450127,85.0808895 C196.445367,85.0249595 196.416807,84.9761695 196.374562,84.9446345 C196.370992,84.9404695 196.367422,84.9363045 196.363852,84.9321395 C196.357902,84.9017945 196.343622,84.8738295 196.323392,84.8500295 C196.317442,84.8071895 196.299592,84.7560195 196.257347,84.7036595 L189.164947,68.3191455 C189.135197,68.2495305 189.066772,68.2066905 188.993587,68.2066905 C188.981092,68.2066905 188.968597,68.2078805 188.955507,68.2102605 C188.869232,68.2287055 188.806757,68.3048655 188.806757,68.3935205 L188.806757,83.8492395 C188.806757,84.4960045 188.586607,85.0309095 188.133812,85.4831094 C187.681017,85.9353094 187.146112,86.1554594 186.500537,86.1554594 C185.854368,86.1554594 185.320058,85.9353094 184.866668,85.4831094 C184.414468,85.0315045 184.194318,84.4965995 184.194318,83.8492395 L184.194318,56.0460812 C184.221093,56.0127612 184.235968,55.9717062 184.235968,55.9288662 L184.235968,55.8259312 C184.263933,55.7795212 184.273453,55.7354912 184.276428,55.6991962 C184.297848,55.6688512 184.313318,55.6313662 184.317483,55.5855512 C184.337118,55.5558012 184.354968,55.5141512 184.359728,55.4606012 C184.374008,55.4385862 184.387098,55.4100262 184.394833,55.3749212 C184.418038,55.3451712 184.434698,55.3076862 184.440648,55.2618712 L184.471588,55.2309312 C184.487058,55.2160562 184.498958,55.1988012 184.508478,55.1803562 C184.526923,55.1607212 184.542393,55.1363262 184.553103,55.1071712 L184.555483,55.1047912 C184.582258,55.0780162 184.600108,55.0435062 184.606653,55.0066162 C184.635808,54.9881712 184.659013,54.9625863 184.673888,54.9316463 C184.691143,54.9233163 184.707208,54.9114163 184.720893,54.8977313 C184.746478,54.8721463 184.763138,54.8406113 184.771468,54.8061013 L184.845843,54.7317263 C184.857743,54.7198263 184.867263,54.7067363 184.875593,54.6930513 C184.893443,54.6811513 184.911293,54.6662763 184.929738,54.6484263 C184.938663,54.6389063 184.947588,54.6281963 184.954728,54.6168913 C184.991618,54.6103463 185.026128,54.5924963 185.052903,54.5657213 L185.136798,54.4830163 L185.170118,54.4491013 C185.206413,54.4413663 185.238543,54.4223263 185.264128,54.3967413 C185.283168,54.3896013 185.300423,54.3800813 185.315298,54.3693713 C185.356948,54.3646113 185.396813,54.3461663 185.426563,54.3164163 L185.492608,54.2509663 C185.653853,54.1617163 185.816288,54.1040013 185.973963,54.0802013 L186.001928,54.0802013 C186.014423,54.0802013 186.026323,54.0790113 186.038818,54.0760363 C186.164957,54.0510463 186.362497,54.0385513 186.624892,54.0385513 L186.715332,54.0385513 C186.747462,54.0653263 186.789707,54.0802013 186.832547,54.0802013 L186.947382,54.0802013 C186.984867,54.1063813 187.031277,54.1218513 187.082447,54.1218513 L187.122907,54.1218513 C187.149682,54.1379163 187.183002,54.1510063 187.222867,54.1581463 C187.254402,54.1754013 187.293077,54.1908713 187.341272,54.1986063 C187.379352,54.2235963 187.416242,54.2360913 187.449562,54.2414463 C187.457297,54.2468013 187.465627,54.2515613 187.474552,54.2563213 C187.501327,54.2908313 187.538812,54.3152263 187.583437,54.3247463 C187.611402,54.3491413 187.646507,54.3652063 187.686372,54.3693713 C187.701247,54.3806763 187.717907,54.3896013 187.736947,54.3967413 L187.782762,54.4413663 L187.822032,54.4812313 C187.849402,54.5086013 187.884507,54.5270463 187.921992,54.5335913 C187.939842,54.5621513 187.965427,54.5847613 187.995177,54.6002313 C188.013027,54.6359313 188.042777,54.6650863 188.078477,54.6829363 L188.079072,54.6835313 C188.087402,54.7007863 188.099302,54.7174463 188.112987,54.7317263 L188.324212,54.9423563 C188.337897,54.9816263 188.362887,55.0244662 188.405727,55.0661162 C188.407512,55.0673062 188.409297,55.0696862 188.411677,55.0714712 C188.421792,55.0928912 188.434287,55.1125262 188.450352,55.1297812 C188.458087,55.1541762 188.469392,55.1750012 188.481887,55.1922562 C188.489027,55.2178412 188.502117,55.2410462 188.519372,55.2612762 C188.527702,55.2993562 188.547337,55.3332712 188.574112,55.3588562 C188.580657,55.3802762 188.589582,55.4011012 188.602077,55.4201412 C188.604457,55.4350162 188.608622,55.4492962 188.614572,55.4629812 L195.718872,71.8742703 C195.748622,71.9438852 195.817047,71.9873202 195.890232,71.9873202 C195.902727,71.9873202 195.915817,71.9861302 195.928312,71.9831552 C196.015182,71.9653052 196.077062,71.8885503 196.077062,71.8004903 L196.077062,56.3441762 C196.077062,55.6974112 196.297212,55.1631012 196.750007,54.7109013 C197.202207,54.2587013 197.736517,54.0385513 198.383877,54.0385513 C199.030047,54.0385513 199.563762,54.2587013 200.017152,54.7109013 C200.469352,55.1631012 200.688907,55.6974112 200.688907,56.3441762 L200.688907,84.1473345 C200.662727,84.1806545 200.647852,84.2217095 200.647852,84.2645495 L200.647852,84.3686745 C200.620482,84.4144895 200.609772,84.4585195 200.607392,84.4942195 C200.585972,84.5245645 200.571097,84.5626445 200.566337,84.6078645 C200.546702,84.6382095 200.528257,84.6798595 200.524092,84.7345995 C200.509812,84.7560195 200.496722,84.7845795 200.488987,84.8190895 C200.469352,84.8440795 200.454477,84.8744245 200.446742,84.9107195 C200.436032,84.9244045 200.427107,84.9392795 200.419372,84.9553445 L200.411637,84.9630795 C200.386052,84.9886645 200.368202,85.0207945 200.360467,85.0558995 L200.328337,85.0886245 C200.310487,85.1070695 200.296802,85.1278945 200.287282,85.1516945 C200.273597,85.1671645 200.261697,85.1856095 200.252772,85.2052445 C200.234922,85.2213095 200.220642,85.2403495 200.209932,85.2617695 C200.161142,85.2867595 200.124847,85.3325745 200.112352,85.3873145 L200.037382,85.4622844 L199.954677,85.5461794 L199.922547,85.5777144 C199.887442,85.5854494 199.855907,85.6027044 199.830322,85.6282894 L199.755947,85.7026644 C199.721437,85.7103994 199.689307,85.7276544 199.663722,85.7532394 C199.657177,85.7603794 199.650037,85.7681144 199.644087,85.7758494 C199.636947,85.7817994 199.630402,85.7871544 199.623262,85.7942944 L199.620287,85.7966744 C199.601247,85.8038144 199.583992,85.8133344 199.568522,85.8240444 C199.526872,85.8288044 199.487007,85.8472494 199.457257,85.8769994 L199.394782,85.9388794 C199.304342,85.9829094 199.223422,86.0174194 199.154402,86.0406244 C199.078837,86.0656144 198.973522,86.0917944 198.844407,86.1179744 C198.842622,86.1185694 198.840242,86.1185694 198.837267,86.1191644 C198.769437,86.1358244 198.636157,86.1554594 198.383877,86.1554594"/>
      <g transform="translate(201.705 53.582)">
        <mask id="logo-projets-qui-marchent-b" fill="#fff">
          <use xlink:href="#logo-projets-qui-marchent-a"/>
        </mask>
        <path fill="#12100B" d="M17.348176,1.01715244 C17.8325059,1.48839241 18.0752659,2.08339238 18.0752659,2.80393733 C18.0752659,3.49651729 17.8325059,4.08556726 17.348176,4.56989723 C16.863846,5.0542272 16.274201,5.29639219 15.5816211,5.29639219 L11.7182863,5.29639219 L11.7182863,30.2251057 C11.7182863,30.9182807 11.4755263,31.5073306 10.9906014,31.9916606 C10.5068664,32.4759906 9.91781641,32.7187506 9.22523645,32.7187506 C8.5332515,32.7187506 7.94360653,32.4759906 7.45987156,31.9916606 C6.97435159,31.5073306 6.7321866,30.9182807 6.7321866,30.2251057 L6.7321866,5.29639219 L2.78495684,5.29639219 C2.09237688,5.29639219 1.50392191,5.0542272 1.01959194,4.56989723 C0.534666968,4.08556726 0.292501983,3.49651729 0.292501983,2.80393733 C0.292501983,2.08339238 0.534666968,1.48839241 1.01959194,1.01715244 C1.50392191,0.546507468 2.09237688,0.310887482 2.78495684,0.310887482 L15.5816211,0.310887482 C16.274201,0.310887482 16.863846,0.546507468 17.348176,1.01715244" mask="url(#logo-projets-qui-marchent-b)"/>
      </g>
      <path fill="#12100B" d="M210.929987,86.1139284 C210.283222,86.1139284 209.749507,85.8937784 209.297307,85.4415785 C208.843917,84.9899735 208.624362,84.4556635 208.624362,83.8077085 L208.624362,58.878995 C208.624362,58.775465 208.540467,58.692165 208.437532,58.692165 L204.490302,58.692165 C203.843537,58.692165 203.308632,58.472015 202.856432,58.0198151 C202.404232,57.5676151 202.184677,57.0333051 202.184677,56.3859452 C202.184677,55.7124052 202.403637,55.1715502 202.854647,54.7330353 C203.306847,54.2939253 203.842347,54.0803203 204.490302,54.0803203 L217.286966,54.0803203 C217.934921,54.0803203 218.470421,54.2939253 218.923216,54.7336303 C219.373631,55.1715502 219.593186,55.7124052 219.593186,56.3859452 C219.593186,57.0333051 219.373036,57.5676151 218.921431,58.0198151 C218.468636,58.472015 217.933731,58.692165 217.286966,58.692165 L213.423036,58.692165 C213.320101,58.692165 213.236206,58.775465 213.236206,58.878995 L213.236206,83.8077085 C213.236206,84.4544735 213.016056,84.9893785 212.563261,85.4415785 C212.111061,85.8937784 211.577346,86.1139284 210.929987,86.1139284"/>
      <g transform="translate(173.74 78.572)">
        <mask id="logo-projets-qui-marchent-d" fill="#fff">
          <use xlink:href="#logo-projets-qui-marchent-c"/>
        </mask>
        <path fill="#3D5BA5" d="M9.14425696,0.574948466 C4.12840726,0.574948466 0.0455174973,4.65783822 0.0455174973,9.67368793 C0.0455174973,14.9233726 5.76108716,22.6803872 9.14425696,26.180177 C12.5857368,22.3888372 18.2429964,15.1566126 18.2429964,9.67368793 C18.2429964,4.65783822 14.1607017,0.574948466 9.14425696,0.574948466" mask="url(#logo-projets-qui-marchent-d)"/>
      </g>
      <path fill="#FFF" d="M182.884247,92.5038115 C180.551252,92.5038115 178.627022,90.5789866 178.627022,88.2459918 C178.627022,85.9129969 180.551252,83.988172 182.884247,83.988172 C185.217837,83.988172 187.142066,85.9129969 187.142066,88.2459918 C187.142066,90.5789866 185.217837,92.5038115 182.884247,92.5038115"/>
      <path fill="#C3C8CF" d="M9.09891796,40.2933976 C4.08247326,40.2933976 0.000178499989,44.3762874 0.000178499989,49.3921371 C0.000178499989,54.6412268 5.71574816,62.3988363 9.09891796,65.8980311 C12.5398028,62.1072863 18.1976574,54.8750618 18.1976574,49.3921371 C18.1976574,44.3762874 14.1147677,40.2933976 9.09891796,40.2933976"/>
      <path fill="#FFF" d="M9.09891796,53.6501353 C6.7659231,53.6501353 4.84109821,51.7253104 4.84109821,49.3923156 C4.84109821,47.0593207 6.7659231,45.1344958 9.09891796,45.1344958 C11.4319128,45.1344958 13.3561427,47.0593207 13.3561427,49.3923156 C13.3561427,51.7253104 11.4319128,53.6501353 9.09891796,53.6501353"/>
    </g>
  </g>
</svg>
