<svg xmlns="http://www.w3.org/2000/svg" width="18" height="18" viewBox="0 0 18 18">
  <g fill="none" fill-rule="evenodd">
    <rect width="18" height="18"/>
    <path fill="#8C8C8C" fill-rule="nonzero" d="M12.5025,9.8475 C13.53,10.545 14.25,11.49 14.25,12.75 L14.25,15 L17.25,15 L17.25,12.75 C17.25,11.115 14.5725,10.1475 12.5025,9.8475 Z"/>
    <circle cx="6.75" cy="6" r="3" fill="#8C8C8C" fill-rule="nonzero"/>
    <path fill="#8C8C8C" fill-rule="nonzero" d="M11.25 9C12.9075 9 14.25 7.6575 14.25 6 14.25 4.3425 12.9075 3 11.25 3 10.8975 3 10.5675 3.075 10.2525 3.18 10.875 3.9525 11.25 4.935 11.25 6 11.25 7.065 10.875 8.0475 10.2525 8.82 10.5675 8.925 10.8975 9 11.25 9zM6.75 9.75C4.7475 9.75.75 10.755.75 12.75L.75 15 12.75 15 12.75 12.75C12.75 10.755 8.7525 9.75 6.75 9.75z"/>
  </g>
</svg>
