<svg viewBox="0 0 18 18"><g fill="none" fill-rule="evenodd"><path d="M0 0h18v18H0z"/><path fill="#8C8C8C" fill-rule="nonzero" d="M12.502 9.848c1.028.697 1.748 1.642 1.748 2.902V15h3v-2.25c0-1.635-2.678-2.602-4.748-2.902z"/><circle cx="6.75" cy="6" r="3" fill="#8C8C8C" fill-rule="nonzero"/><path fill="#8C8C8C" fill-rule="nonzero" d="M11.25 9a3 3 0 100-6c-.352 0-.682.075-.998.18a4.485 4.485 0 010 5.64c.316.105.646.18.998.18zm-4.5.75c-2.003 0-6 1.005-6 3V15h12v-2.25c0-1.995-3.998-3-6-3z"/></g></svg>