<svg xmlns="http://www.w3.org/2000/svg" width="18" height="18" viewBox="0 0 18 18">
  <g fill="none" fill-rule="evenodd">
    <polygon points="0 0 18 0 18 18 0 18"/>
    <path fill="#8C8C8C" fill-rule="nonzero" d="M9,1.5 C6.0975,1.5 3.75,3.8475 3.75,6.75 C3.75,10.6875 9,16.5 9,16.5 C9,16.5 14.25,10.6875 14.25,6.75 C14.25,3.8475 11.9025,1.5 9,1.5 Z M9,8.625 C7.965,8.625 7.125,7.785 7.125,6.75 C7.125,5.715 7.965,4.875 9,4.875 C10.035,4.875 10.875,5.715 10.875,6.75 C10.875,7.785 10.035,8.625 9,8.625 Z"/>
  </g>
</svg>
