<svg fill="none" viewBox="0 0 39 34"><rect width="37" height="33" x=".7" y=".5" fill="#000" stroke="#fff" rx="7.5"/><path fill="#fff" d="M28.462 10.45c0 .8-.73 1.45-1.63 1.45-.902 0-1.632-.65-1.632-1.45 0-.8.73-1.45 1.631-1.45s1.631.65 1.631 1.45z"/><path fill="#fff" fill-rule="evenodd" d="M26.2 7h-13a5 5 0 00-5 5v10a5 5 0 005 5h13a5 5 0 005-5V12a5 5 0 00-5-5zm-13-2a7 7 0 00-7 7v10a7 7 0 007 7h13a7 7 0 007-7V12a7 7 0 00-7-7h-13z" clip-rule="evenodd"/><path fill="#fff" fill-rule="evenodd" d="M20.2 13.45h-1a3.55 3.55 0 000 7.1h1a3.55 3.55 0 000-7.1zm-1-2.45a6 6 0 000 12h1a6 6 0 000-12h-1z" clip-rule="evenodd"/></svg>