<svg fill="none" viewBox="0 0 39 34"><rect width="37" height="33" x="1.3" y=".5" fill="#000" stroke="#fff" rx="7.5"/><path fill="#fff" fill-rule="evenodd" d="M32.514 9L6.8 16.467l6.336 2.027 3.33 7.047a.432.432 0 00.12.152.41.41 0 00.517.013l4.888-3.743L28.228 25l4.286-16zM20.918 21.44l.268.13-3.877 2.97.3-4.198 3.31 1.098zm-6.752-2.644l2.348 4.965.178-4.091 7.526-5.449-10.052 4.575z" clip-rule="evenodd"/><path fill="#000" fill-rule="evenodd" d="M20.918 21.44l.268.13-3.877 2.97.3-4.198 3.31 1.098z" clip-rule="evenodd"/><path fill="#000" fill-rule="evenodd" d="M14.166 18.796l2.348 4.965.178-4.091 7.526-5.449-10.052 4.575z" clip-rule="evenodd"/></svg>