<svg fill="none" viewBox="0 0 39 34"><rect width="37" height="33" x=".9" y=".5" fill="#000" stroke="#fff" rx="7.5"/><path fill="#000" fill-rule="evenodd" d="M29.494 10.255v3.855s-3.752-.14-5.726-1.78v7.392c.008.097.008.194.008.292a6.541 6.541 0 01-1.296 3.881c-.845 1.149-2.045 2.044-3.45 2.573a8.407 8.407 0 01-4.442.398c-1.491-.27-2.861-.935-3.936-1.912-1.076-.977-1.808-2.222-2.104-3.577a6.396 6.396 0 01.437-4.036c.582-1.277 1.567-2.368 2.832-3.135a8.246 8.246 0 014.27-1.178c.332 0 .663.02.99.058v3.976a3.718 3.718 0 00-2.089.032c-.675.21-1.26.61-1.672 1.14a2.893 2.893 0 00-.62 1.813c.007.649.24 1.279.665 1.8.425.522 1.02.908 1.7 1.105a3.72 3.72 0 002.09-.01 3.395 3.395 0 001.688-1.122 2.899 2.899 0 00.645-1.806V5h4.286v.032c0 .43.178 5.01 5.724 5.223z" clip-rule="evenodd"/><path fill="#000" fill-rule="evenodd" d="M31.494 12.255v3.855s-3.752-.14-5.726-1.78v7.392c.008.097.008.194.008.292a6.541 6.541 0 01-1.296 3.881c-.845 1.149-2.045 2.044-3.45 2.573a8.407 8.407 0 01-4.442.398c-1.491-.27-2.861-.935-3.936-1.912-1.075-.977-1.808-2.222-2.104-3.577a6.396 6.396 0 01.437-4.036c.582-1.277 1.567-2.368 2.832-3.135a8.246 8.246 0 014.27-1.178c.332 0 .663.02.99.058v3.976a3.718 3.718 0 00-2.089.032c-.675.21-1.26.61-1.672 1.14a2.893 2.893 0 00-.62 1.813c.007.649.24 1.279.665 1.8.425.522 1.02.908 1.7 1.105a3.72 3.72 0 002.09-.01 3.395 3.395 0 001.688-1.122 2.899 2.899 0 00.645-1.806V7h4.286v.032c0 .43.178 5.01 5.724 5.223z" clip-rule="evenodd"/><path fill="#fff" fill-rule="evenodd" d="M30.494 11.255v3.855s-3.752-.14-5.726-1.78v7.392c.008.097.008.194.008.292a6.541 6.541 0 01-1.296 3.881c-.845 1.149-2.045 2.044-3.45 2.573a8.407 8.407 0 01-4.442.398c-1.491-.27-2.861-.935-3.936-1.912-1.075-.977-1.808-2.222-2.104-3.577a6.396 6.396 0 01.437-4.036c.582-1.277 1.567-2.368 2.832-3.135a8.246 8.246 0 014.27-1.178c.332 0 .663.02.99.058v3.976a3.718 3.718 0 00-2.089.032c-.675.21-1.26.61-1.672 1.14a2.893 2.893 0 00-.62 1.813c.007.649.24 1.279.665 1.8.425.522 1.02.908 1.7 1.105a3.72 3.72 0 002.09-.01 3.395 3.395 0 001.688-1.122 2.899 2.899 0 00.645-1.806V6h4.286v.032c0 .43.178 5.01 5.724 5.223z" clip-rule="evenodd"/></svg>