<svg fill="none" viewBox="0 0 38 34"><rect width="37" height="33" x=".5" y=".5" fill="#000" stroke="#fff" rx="7.5"/><path fill="#fff" fill-rule="evenodd" d="M24.623 18.787c-.266-.112-1.577-.651-1.821-.725-.245-.075-.422-.112-.6.111s-.689.725-.844.874c-.156.149-.311.167-.578.056-.266-.112-1.125-.347-2.144-1.107a7.055 7.055 0 01-1.483-1.543c-.155-.223-.016-.344.117-.455.12-.1.267-.26.4-.39s.178-.224.267-.373c.088-.148.044-.278-.023-.39-.066-.112-.6-1.208-.822-1.655-.216-.434-.436-.375-.6-.382a12.905 12.905 0 00-.51-.008c-.178 0-.467.056-.711.279-.245.223-.933.762-.933 1.859s.955 2.157 1.088 2.306c.134.148 1.88 2.4 4.554 3.365.636.23 1.133.366 1.52.47.639.169 1.22.145 1.68.087.512-.064 1.577-.539 1.799-1.06.222-.52.222-.966.155-1.059-.066-.093-.244-.149-.51-.26zm-4.864 5.552h-.003c-1.592 0-3.152-.358-4.514-1.033l-.324-.161-3.356.736.896-2.736-.211-.28c-.888-1.18-1.357-2.545-1.356-3.946.002-4.087 3.98-7.413 8.872-7.413 2.368.001 4.595.773 6.27 2.175 1.673 1.4 2.595 3.264 2.594 5.244-.002 4.088-3.98 7.414-8.868 7.414zm7.547-13.723C25.293 8.93 22.614 8 19.76 8c-5.88 0-10.667 4.001-10.67 8.919 0 1.572.491 3.106 1.425 4.459L9 26l5.656-1.24a12.35 12.35 0 005.099 1.085h.004c5.88 0 10.667-4.001 10.67-8.92 0-2.382-1.108-4.623-3.122-6.31z" clip-rule="evenodd"/></svg>