<?xml version="1.0" standalone="no"?>
<!DOCTYPE svg PUBLIC "-//W3C//DTD SVG 20010904//EN"
 "http://www.w3.org/TR/2001/REC-SVG-20010904/DTD/svg10.dtd">
<svg version="1.0" xmlns="http://www.w3.org/2000/svg"
 width="16.000000pt" height="16.000000pt" viewBox="0 0 16.000000 16.000000"
 preserveAspectRatio="xMidYMid meet">
<metadata>
Created by potrace 1.11, written by Peter Selinger 2001-2013
</metadata>
<g transform="translate(0.000000,16.000000) scale(0.004000,-0.004000)"
fill="#000000" stroke="none">
<path d="M3672 2719 c-55 -13 -116 -71 -131 -124 -11 -38 -23 -259 -35 -622
l-5 -163 104 0 c90 0 104 2 109 18 3 9 46 161 96 337 103 359 114 437 74 492
-43 57 -126 82 -212 62z"/>
<path d="M316 2658 c-12 -70 -186 -1280 -186 -1299 0 -19 12 -19 504 -19 l504
0 11 83 c7 45 15 99 18 120 l6 37 -332 0 c-258 0 -331 3 -331 13 0 6 10 83 21
170 l22 157 238 0 c132 0 239 1 240 3 0 1 8 55 18 120 l18 117 -239 0 -239 0
6 33 c9 53 35 236 35 247 0 6 97 10 275 10 l274 0 6 33 c14 87 25 164 25 185
l0 22 -444 0 -444 0 -6 -32z"/>
<path d="M1724 2675 c-4 -8 -104 -312 -224 -675 l-218 -660 171 2 171 3 145
439 c106 322 147 435 153 420 4 -10 51 -192 103 -404 53 -212 100 -402 106
-422 l10 -38 104 0 103 0 234 429 c128 236 234 428 235 427 1 -1 9 -175 18
-386 8 -212 18 -404 21 -427 l5 -43 164 0 165 0 -6 108 c-4 59 -18 361 -33
672 l-26 565 -179 0 -179 0 -214 -395 c-118 -217 -221 -408 -230 -425 -16 -30
-17 -26 -123 395 l-106 425 -182 3 c-157 2 -183 0 -188 -13z"/>
<path d="M3506 1738 c-24 -7 -56 -28 -82 -53 -101 -102 -71 -267 61 -326 58
-27 113 -24 176 9 43 22 59 38 81 81 47 90 30 182 -45 248 -56 49 -113 61
-191 41z"/>
</g>
</svg>
