<svg version="1.0" viewBox="0 0 16 16"><path d="M14.688 5.124c-.22.052-.464.284-.524.496-.044.152-.092 1.036-.14 2.488l-.02.652h.416c.36 0 .416-.008.436-.072.012-.036.184-.644.384-1.348.412-1.436.456-1.748.296-1.968-.172-.228-.504-.328-.848-.248zm-13.424.244c-.048.28-.744 5.12-.744 5.196 0 .076.048.076 2.016.076h2.016l.044-.332.072-.48.024-.148H3.364c-1.032 0-1.324-.012-1.324-.052 0-.024.04-.332.084-.68l.088-.628h.952c.528 0 .956-.004.96-.012l.072-.48.072-.468H2.356l.024-.132c.036-.212.14-.944.14-.988 0-.024.388-.04 1.1-.04h1.096l.024-.132c.056-.348.1-.656.1-.74V5.24H1.288l-.024.128zM6.896 5.3C6.88 5.332 6.48 6.548 6 8l-.872 2.64.684-.008.684-.012.58-1.756c.424-1.288.588-1.74.612-1.68.016.04.204.768.412 1.616.212.848.4 1.608.424 1.688l.04.152h.828l.936-1.716c.512-.944.936-1.712.94-1.708.004.004.036.7.072 1.544.032.848.072 1.616.084 1.708l.02.172h1.316l-.024-.432c-.016-.236-.072-1.444-.132-2.688L12.5 5.26h-1.432l-.856 1.58c-.472.868-.884 1.632-.92 1.7-.064.12-.068.104-.492-1.58l-.424-1.7-.728-.012c-.628-.008-.732 0-.752.052zm7.128 3.748a.91.91 0 00-.328.212.797.797 0 00.244 1.304c.232.108.452.096.704-.036a.611.611 0 00.324-.324c.188-.36.12-.728-.18-.992-.224-.196-.452-.244-.764-.164z"/></svg>