<?xml version='1.0' encoding='utf-8'?>
<svg xmlns="http://www.w3.org/2000/svg" version="1.2" fill="none" stroke="#0B3282"  baseProfile="tiny" id="Capa_2" x="0px" y="0px" viewBox="0 0 612 1008">
    <path id="XMLID_2_" stroke-width="4.252" stroke-miterlimit="10" d="M84,428.6 c9.3,8.4,18.6,16.8,28.2,25c6.5,5.6,13.1,11.1,20.5,15.4c11.7,6.9,25,10.8,36.9,17.5c8.2,4.6,15.7,10.6,22.1,17.6 c-5.8,54.5-0.4,111.1,14.1,163.9c-26.1-11-52.3-21.9-78.4-32.9c-2-0.8-4-1.7-5.5-3.3c-1.5-1.6-2.2-3.7-2.8-5.8 c-8.6-30.2-12.7-63.4-16.2-94.6c-3.9-35.2-9.5-66.9-19.2-101"/>
    <path id="XMLID_3_" stroke-width="4.252" stroke-miterlimit="10" d="M85.7,428.3 c31.3-6.2,62.2-13.9,93.2-21.6c11.5-2.9,23-5.7,34.5-8.6c3.9-1,7.8-1.9,11.8-2.9"/>
    <path id="XMLID_4_" stroke-width="4.252" stroke-miterlimit="10" d="M192.6,504.9 c24.3-6.3,48.5-12.6,72.2-20.8c9.3-3.2,18.4-6.7,27.8-9.3c10.2-2.9,20.6-4.9,31-6.9c50.8-9.7,102.4-19.9,148-44.2 c0.9-0.5,1.8-1,2.1-2c0.2-1-0.5-2-1.2-2.8c-3.7-4-9-6.3-14-8.5c-31.8-13.7-63.6-27.4-95.3-41.1c-2.4-1-4.8-2.1-7.4-2 c-2.7,0.1-5.2,1.4-7.6,2.6c-11.1,5.5-22.9,9.4-35.1,11.5"/>
    <path id="XMLID_5_" stroke-width="4.252" stroke-miterlimit="10" d="M187.3,446.3 c15.9-7.2,32.6-12.3,49.8-15.3c7.3-1.3,14.7-2.1,21.9-4c12.6-3.3,24.2-9.5,36.7-13.1c16.3-4.8,33.9-5.2,49.1-12.6 c0.7-0.3,1-1.3,1.8-1.5s0.3,1.5,0.1,0.8"/>
    <path id="XMLID_6_" stroke-width="4.252" stroke-miterlimit="10" d="M250.5,635.1 c-2.2-7-4.3-14-6.5-21.1c-3.8-12.4-7.7-25.1-7.5-38.1c27.2-1.3,54.2-7.3,79.4-17.7c-2.8,14.5,7.3,27.9,11.6,42.1 c2.7,8.8,3.7,19.3,11.2,24.7"/>
    <path id="XMLID_7_" stroke-width="4.252" stroke-miterlimit="10" d="M265.8,567.8 c12.5-14,17.9-32.9,28.3-48.5c0.5-0.8,1.1-1.6,2-2.2c2.1-1.3,4.8-0.2,7,0.9c15.8,7.6,33.1,12,50.6,12.9 c-12.3,18.1-17,40.2-21.3,61.6"/>
    <path id="XMLID_8_" stroke-width="4.252" stroke-miterlimit="10" d="M336.8,523.8 c10.2-14.3,20.5-28.6,30.7-43c0.4-0.5,0.7-1,1.3-1.3c0.7-0.4,1.6-0.2,2.3-0.1c19.1,3.3,38.2,6.7,57.3,10c-3.6,3.9-7.2,7.9-10.8,11.8 c-5.6,6.1-11.2,12.3-16.2,19c-9.4,12.6-16.3,27-20.4,42.2"/>
    <path id="XMLID_9_" stroke-width="4.252" stroke-miterlimit="10" d="M360.8,558.3 c8.6,5.5,18.7,8.3,28.6,11c13,3.5,26,7.1,39,10.6c-8.3,18-19.7,34.4-33.7,48.5c-18.5-10.3-38.1-18.5-58.5-24.3c0.9,0,1.7,0,2.6,0"/>
    <path id="XMLID_10_" stroke-width="4.252" stroke-miterlimit="10" d="M206.4,668 c72.6-1.9,145.1-9,216.7-21.2c1.7-0.3,3.6-0.6,4.8-1.8c1.3-1.2,1.8-2.9,2.2-4.6c18.6-72.5,34.2-145.8,46.7-219.6"/>
    <path id="XMLID_11_" stroke-width="4.252" stroke-miterlimit="10" d="M221.7,433.5 c2.2-20.1,7.1-39.8,14.5-58.6c5.4-13.6,12.1-26.9,15.2-41.2c1.6-7.1,2.3-14.7,6-21c1.2-2.2,2.9-4.2,5-5.4c3.3-1.8,7.2-1.5,11-1.1 c7.9,0.8,15.7,1.6,23.6,2.4"/>
    <path id="XMLID_19_" stroke-width="4.252" stroke-miterlimit="10" d="M330.5,344.4 c-8.2,19.8-17.8,45.3-24.6,65.7"/>
    <path id="XMLID_17_" stroke-width="4.252" stroke-miterlimit="10" d="M338.9,314.9 c1.3,0.4,2.6,0.9,3.8,1.5c-1.7,3.6-5.3,11.7-6.9,15.4"/>
    <path id="XMLID_16_" stroke-width="4.252" stroke-miterlimit="10" d="M318.8,311.5 c3.4,0.3,1.7-0.5,5,0"/>
    <path id="XMLID_12_" stroke-width="4.252" stroke-miterlimit="10" d="M303.8,417.7 c-4.2,13.4-9,26.5-14.4,39.4c-0.8,1.8-1.7,3.8-3.5,4.7c-1.4,0.7-3.1,0.5-4.6,0.3c-21.5-2.8-42.8-6.2-64.1-10.1 c3.3-3.8,5.1-8.8,5.1-13.8c0.1,0.9,0.2,1.7,0.4,2.6"/>
    <path id="XMLID_14_" stroke-width="4.252" stroke-miterlimit="10" d="M524.8,113.5 c-27.4,13.4-54.4,27.4-81.1,42c-8.3,4.5-16.6,9.2-24.5,14.4c-7.1,4.8-13.9,10-20.7,15.3c-20.5,16-41.2,32.2-58.1,52.1 c-17.6,20.8-30.6,45-43.4,69.1c-3.7,6.9-7.4,14-8.8,21.7s-0.1,16.4,5.3,22.1c0.5,0.5,1,1,1.6,1.1c2.1,0.6,3.5-2,4.2-4 c5.9-17.6,15.9-33.8,29-46.9c-3.6,8.2-7.3,16.7-7.1,25.7s5.5,18.5,14.3,20.5c-1-14.5,1.6-29.3,7.3-42.6c0.6,9.6,1.3,19.3,1.9,28.9 c0.2,3.4,0.5,7,2.2,10s5.3,5.2,8.6,4.2c-2.5-14.2-0.6-29.1,5.4-42.2c0.6,6.3,1.1,12.5,1.7,18.8c0.7,7.3,1.5,15.1,6.3,20.6 c3.5,4,9.4,6.4,14.3,4.3c4.9-2.1,7.1-9.4,3.3-13.1c-2.8-2.7-7.6-2.7-10.1-5.7c-2.1-2.5-1.8-6.2-0.3-9.1c1.5-2.8,4-5,6.3-7.2 c16.8-15.7,28.8-36.5,34.1-58.9c0.9-3.7,1.6-7.4,3.4-10.7c2.3-4.1,6.1-7.1,10.1-9.6c10-6.4,21.2-10.5,32.1-15.2 c27.7-12,53.5-28.1,76.4-47.8"/>
    <path id="XMLID_15_" stroke-width="4.252" stroke-miterlimit="10" d="M446.4,147.2 c17.7,29.4,48.7,50.5,82.6,56"/>
</svg>
