<svg width="113" height="112" viewBox="0 0 113 112" fill="none" xmlns="http://www.w3.org/2000/svg">
<rect x="0.5" width="112" height="112" rx="56" fill="white"/>
<path d="M26.0498 38.4508H37.4845C44.8441 38.4508 49.4819 42.5517 49.4819 48.8715C49.4819 54.013 46.4864 57.6472 41.5141 58.8714L50.2802 71.4649H46.015L37.4389 59.2998H29.6156V71.4649H26.0498V38.4508ZM38.0015 55.9487C42.6849 55.9487 45.9238 53.684 45.9238 48.8715C45.9238 44.2962 42.7838 41.8402 38.0015 41.8402H29.6156V55.941H38.0015V55.9487Z" fill="#182026"/>
<path d="M57.5283 38.4508H81.7587V44.9082H64.5078V51.4193H80.9604V57.7849H64.5078V64.9998H81.7587V71.4649H57.5283V38.4508Z" fill="#182026"/>
<path d="M95.498 15.5277C76.7873 -2.27619 51.8347 -3.75284 32.3181 5.941C13.5541 14.7014 0.5 33.8366 0.5 55.9863C0.5 77.8682 13.2272 96.8121 31.6262 105.71C51.2492 115.794 76.5821 114.478 95.5057 96.4525C118.177 75.0756 118.155 36.9047 95.498 15.5277ZM2.19544 55.9863C2.19544 37.4632 11.6154 21.113 25.8784 11.5262C39.9666 2.60515 58.1679 0.256296 75.0615 7.97617C116.018 26.8665 116.003 85.0908 75.0539 103.973C58.0614 111.747 39.7385 109.329 25.6123 100.27C11.4938 90.6607 2.19544 74.3946 2.19544 55.9863Z" fill="#182026"/>
</svg>
