<svg width="170" height="15" viewBox="0 0 170 15" fill="none" xmlns="http://www.w3.org/2000/svg">
<path d="M0 0.248606H4.81335C8.21541 0.248606 10.1033 1.76361 10.1033 4.75111C10.1033 7.26117 8.77552 8.69287 6.32751 9.10742L10.2695 14.7718H9.02475L5.16566 9.21133H0.995901V14.7718H0V0.248606ZM5.1036 8.21542C7.59326 8.21542 9.04537 7.11583 9.04537 4.75111C9.04537 2.46842 7.59326 1.24451 5.1036 1.24451H0.995901V8.21542H5.1036Z" fill="white"/>
<path d="M16.4126 0.248606H25.6451V1.24451H17.4085V6.86722H25.251V7.86312H17.4085V13.7761H25.6451V14.7718H16.4126V0.248606Z" fill="white"/>
<path d="M31.3124 0.248606H32.9305L41.1875 12.0541V0.248606H42.7852V14.7718H41.1467L32.8888 3.00811V14.7718H31.3124V0.248606Z" fill="white"/>
<path d="M53.3017 0.248597H55.0857L60.7501 14.7718H59.0485L57.7209 11.4311H50.6255L49.3394 14.7718H47.6176L53.3017 0.248597ZM57.1402 9.91697L54.1733 2.28206L51.2479 9.91697H57.1402Z" fill="white"/>
<path d="M65.5815 14.7718H67.1588V0.248635H65.5815V14.7718Z" fill="white"/>
<path d="M72.5746 12.2201L74.2555 10.5187C75.1475 11.6806 76.351 12.7589 78.6747 12.7589C80.521 12.7589 81.4342 11.8882 81.4342 10.7884C81.4342 9.85472 80.8529 9.04538 79.1515 8.75513L77.3879 8.46466C74.7323 8.02907 73.1353 6.53512 73.1353 4.16998C73.1353 1.57642 75.5 0 78.2593 0C80.8324 0 82.4709 1.0996 83.6328 2.32371L81.9108 4.14936C81.1021 3.17407 79.9396 2.24042 78.1556 2.24042C76.3716 2.24042 75.6243 3.23633 75.6243 4.10772C75.6243 5.08301 76.2471 5.76742 77.9274 6.05767L79.3795 6.30711C82.4922 6.8466 83.923 8.44363 83.923 10.7467C83.923 13.1947 81.8692 15 78.3632 15C75.6659 15 73.7781 13.7344 72.5746 12.2201Z" fill="white"/>
<path d="M88.7509 12.2201L90.4321 10.5187C91.3241 11.6806 92.5274 12.7589 94.851 12.7589C96.6973 12.7589 97.6105 11.8882 97.6105 10.7884C97.6105 9.85472 97.0292 9.04538 95.3278 8.75513L93.5642 8.46466C90.9087 8.02907 89.3119 6.53512 89.3119 4.16998C89.3119 1.57642 91.6764 0 94.4358 0C97.0088 0 98.6472 1.0996 99.8091 2.32371L98.0873 4.14936C97.2786 3.17407 96.1161 2.24042 94.3319 2.24042C92.548 2.24042 91.8007 3.23633 91.8007 4.10772C91.8007 5.08301 92.4237 5.76742 94.1039 6.05767L95.5558 6.30711C98.6685 6.8466 100.099 8.44363 100.099 10.7467C100.099 13.1947 98.0455 15 94.5395 15C91.8423 15 89.9546 13.7344 88.7509 12.2201Z" fill="white"/>
<path d="M109.658 0.248606H112.604L118.289 14.7718H115.094L113.932 11.9086H108.309L107.168 14.7718H103.973L109.658 0.248606ZM112.936 9.17031L111.131 4.43961L109.326 9.17031H112.936Z" fill="white"/>
<path d="M122.786 0.248597H126.499L132.37 10.0829V0.248597H135.441V14.7718H131.748L125.877 4.9793V14.7718H122.786V0.248597Z" fill="white"/>
<path d="M140.638 7.48938C140.638 3.25737 143.812 1.92561e-05 148.086 1.92561e-05C150.721 1.92561e-05 152.484 1.01632 153.833 2.59358L151.447 5.04138C150.638 4.10773 149.911 3.42332 148.273 3.42332C146.198 3.42332 144.538 5.14527 144.538 7.48938C144.538 9.87513 146.156 11.5767 148.314 11.5767C150.036 11.5767 150.928 10.8506 151.862 9.56448L154.144 12.0949C152.795 13.9002 150.741 15 148.003 15C143.708 15 140.638 11.763 140.638 7.48938Z" fill="white"/>
<path d="M158.529 0.248606H169.483V3.56822H162.305V5.76741H169.131V8.96272H162.305V11.4524H169.483V14.7718H158.529V0.248606Z" fill="white"/>
</svg>
