<?xml version="1.0" encoding="utf-8"?>
<!-- Generator: Adobe Illustrator 26.0.3, SVG Export Plug-In . SVG Version: 6.00 Build 0)  -->
<svg version="1.1" id="Calque_1" xmlns="http://www.w3.org/2000/svg" xmlns:xlink="http://www.w3.org/1999/xlink" x="0px" y="0px"
	 viewBox="0 0 1006.3 1000" style="enable-background:new 0 0 1006.3 1000;" xml:space="preserve">
<style type="text/css">
	.st0{fill:#FFFFFF;}
</style>
<g>
	<g>
		<g>
			<path class="st0" d="M229.54,343.29h102.75c66.12,0,107.8,36.63,107.8,93.05c0,45.9-26.95,78.33-71.58,89.28l78.74,112.43h-38.31
				l-77.05-108.64h-70.33v108.64h-32.01V343.29z M336.92,499.51c42.11,0,71.17-20.22,71.17-63.17c0-40.84-28.22-62.74-71.17-62.74
				h-75.37v125.91H336.92z"/>
		</g>
		<g>
			<path class="st0" d="M512.59,343.29H730.3v57.69H575.33v58.1h147.81v56.85H575.33v64.42H730.3v57.69H512.59V343.29z"/>
		</g>
	</g>
	<path class="st0" d="M853.56,138.65C685.45-20.31,461.28-33.52,285.91,53.06C117.28,131.28,0,302.08,0,499.86
		c0,195.36,114.38,364.49,279.68,443.99c176.31,90.03,403.92,78.27,573.97-82.68C1057.28,670.33,1057.12,329.48,853.56,138.65z
		 M15.21,499.86c0-165.37,84.6-311.32,212.77-396.96C354.58,23.27,518.09,2.31,669.88,71.23c367.98,168.63,367.88,688.47-0.06,857.1
		c-152.67,69.37-317.28,47.8-444.2-33.04C98.76,809.45,15.21,664.23,15.21,499.86z"/>
</g>
</svg>
