<svg fill="none" viewBox="0 0 181 16"><path fill="#3F4951" d="M0 .266h5.133c3.63 0 5.644 1.617 5.644 4.802 0 2.679-1.417 4.206-4.027 4.647l4.207 6.044H9.629L5.513 9.826H1.062v5.93H0V.265zm5.444 8.498c2.654 0 4.206-1.172 4.206-3.696 0-2.434-1.548-3.74-4.206-3.74H1.062v7.436h4.382zM17.516.266h9.85v1.061h-8.789v6h8.368v1.061h-8.368v6.31h8.788v1.061h-9.85V.266zm15.902 0h1.727l8.809 12.594V.266h1.703v15.493h-1.748L35.1 3.21v12.55h-1.682V.265zm23.463 0h1.903l6.044 15.493H63.01l-1.417-3.565h-7.567l-1.372 3.565h-1.838L56.881.266zm4.096 10.315l-3.165-8.143-3.12 8.143h6.285zM69.992.266h1.683v15.493h-1.683V.266zm7.465 12.77l1.793-1.814c.951 1.242 2.238 2.389 4.716 2.389 1.969 0 2.945-.931 2.945-2.103 0-.996-.62-1.858-2.434-2.169l-1.883-.31c-2.834-.465-4.537-2.058-4.537-4.582C78.057 1.682 80.581 0 83.525 0c2.745 0 4.492 1.172 5.734 2.479l-1.838 1.948c-.861-1.042-2.103-2.038-4.006-2.038s-2.7 1.062-2.7 1.993c0 1.041.666 1.772 2.46 2.078l1.547.266c3.32.576 4.847 2.279 4.847 4.737 0 2.614-2.189 4.537-5.93 4.537-2.886.004-4.9-1.348-6.182-2.965zm17.262 0l1.793-1.814c.951 1.242 2.237 2.389 4.716 2.389 1.969 0 2.945-.931 2.945-2.103 0-.996-.621-1.858-2.434-2.169l-1.883-.31c-2.834-.465-4.537-2.058-4.537-4.582C95.32 1.682 97.843 0 100.787 0c2.744 0 4.492 1.172 5.734 2.479l-1.838 1.948c-.862-1.042-2.103-2.038-4.006-2.038s-2.7 1.062-2.7 1.993c0 1.041.662 1.772 2.459 2.078l1.548.266c3.32.576 4.847 2.279 4.847 4.737 0 2.614-2.189 4.537-5.93 4.537-2.883.004-4.896-1.348-6.182-2.965zM117.025.265h3.145l6.064 15.493h-3.41l-1.237-3.054h-5.999l-1.217 3.054h-3.41L117.025.266zm3.5 9.519l-1.927-5.048-1.924 5.048h3.851zm10.518-9.52h3.961l6.265 10.492V.266h3.275v15.493h-3.941l-6.264-10.446V15.76h-3.296V.266zm19.051 7.727c0-4.517 3.385-7.992 7.947-7.992 2.809 0 4.692 1.086 6.129 2.765l-2.544 2.613c-.862-.996-1.637-1.727-3.385-1.727-2.214 0-3.986 1.838-3.986 4.337 0 2.544 1.727 4.361 4.027 4.361 1.837 0 2.789-.776 3.785-2.148l2.434 2.7c-1.437 1.927-3.63 3.099-6.55 3.099-4.582.004-7.857-3.45-7.857-8.008zM169.188.266h11.687v3.54h-7.661v2.348h7.281V9.56h-7.281v2.659h7.661v3.54h-11.687V.266z"/></svg>