<?xml version="1.0" encoding="utf-8"?>
<!-- Generator: Adobe Illustrator 26.0.3, SVG Export Plug-In . SVG Version: 6.00 Build 0)  -->
<svg version="1.1" id="Calque_1" xmlns="http://www.w3.org/2000/svg" xmlns:xlink="http://www.w3.org/1999/xlink" x="0px" y="0px"
	 viewBox="0 0 2272.89 201.08" height="15" style="enable-background:new 0 0 2272.89 201.08;" xml:space="preserve">
<style type="text/css">
	.st0{fill:#FFFFFF;}
</style>
<g>
	<g>
		<g>
			<path class="st0" d="M0,3.34h64.53c45.61,0,70.92,20.3,70.92,60.35c0,33.65-17.8,52.85-50.61,58.41l52.84,75.93h-16.68
				l-51.74-74.53h-55.9v74.53H0V3.34z M68.42,110.14c33.37,0,52.84-14.74,52.84-46.45c0-30.59-19.47-47-52.84-47H13.35v93.45H68.42z
				"/>
			<path class="st0" d="M220.1,3.34h123.77v13.35H233.45v75.37h105.14v13.35H233.45v79.26h110.42v13.35H220.1V3.34z"/>
			<path class="st0" d="M419.94,3.34h21.69l110.69,158.25V3.34h21.42v194.68h-21.98L441.08,40.33v157.7h-21.13V3.34z"/>
			<path class="st0" d="M714.81,3.34h23.92l75.92,194.68h-22.81l-17.8-44.78h-95.11l-17.24,44.78H638.6L714.81,3.34z M766.27,132.94
				L726.49,30.59l-39.21,102.35H766.27z"/>
			<path class="st0" d="M879.52,3.34h21.13v194.68h-21.13V3.34z"/>
			<path class="st0" d="M973.31,163.81l22.52-22.8c11.96,15.57,28.1,30.03,59.25,30.03c24.74,0,36.99-11.68,36.99-26.42
				c0-12.51-7.78-23.36-30.59-27.26l-23.65-3.89c-35.6-5.84-57.01-25.86-57.01-57.57c0-34.76,31.71-55.9,68.7-55.9
				c34.48,0,56.46,14.74,72.03,31.15l-23.08,24.47c-10.85-13.07-26.43-25.58-50.34-25.58c-23.92,0-33.94,13.35-33.94,25.03
				c0,13.07,8.34,22.25,30.88,26.14l19.46,3.34c41.72,7.23,60.91,28.65,60.91,59.52c0,32.82-27.53,57.02-74.53,57.02
				C1014.75,201.08,989.44,184.12,973.31,163.81z"/>
			<path class="st0" d="M1190.25,163.81l22.52-22.8c11.96,15.57,28.1,30.03,59.25,30.03c24.74,0,36.99-11.68,36.99-26.42
				c0-12.51-7.79-23.36-30.59-27.26l-23.65-3.89c-35.6-5.84-57.01-25.86-57.01-57.57c0-34.76,31.71-55.9,68.7-55.9
				c34.48,0,56.46,14.74,72.03,31.15l-23.08,24.47c-10.85-13.07-26.43-25.58-50.34-25.58c-23.92,0-33.94,13.35-33.94,25.03
				c0,13.07,8.34,22.25,30.88,26.14l19.46,3.34c41.72,7.23,60.91,28.65,60.91,59.52c0,32.82-27.53,57.02-74.53,57.02
				C1231.69,201.08,1206.38,184.12,1190.25,163.81z"/>
			<path class="st0" d="M1470.6,3.34h39.49l76.21,194.68h-42.84l-15.57-38.38h-75.38l-15.3,38.38h-42.83L1470.6,3.34z
				 M1514.54,122.93l-24.2-63.41l-24.2,63.41H1514.54z"/>
			<path class="st0" d="M1646.68,3.34h49.78l78.71,131.83V3.34h41.15v194.68h-49.5l-78.71-131.27v131.27h-41.44V3.34z"/>
			<path class="st0" d="M1886.1,100.4c0-56.74,42.55-100.4,99.85-100.4c35.32,0,58.96,13.63,77.04,34.76l-31.98,32.82
				c-10.85-12.52-20.59-21.7-42.55-21.7c-27.81,0-50.06,23.09-50.06,54.51c0,31.99,21.69,54.79,50.62,54.79
				c23.08,0,35.04-9.73,47.56-26.98l30.59,33.93c-18.08,24.2-45.61,38.94-82.33,38.94C1927.27,201.08,1886.1,157.7,1886.1,100.4z"/>
			<path class="st0" d="M2126.04,3.34h146.85v44.5h-96.23v29.48h91.49v42.83h-91.49v33.37h96.23v44.5h-146.85V3.34z"/>
		</g>
	</g>
</g>
</svg>
