<svg fill="none" viewBox="0 0 113 112"><rect width="112" height="112" x=".5" fill="#fff" rx="56"/><path fill="#182026" d="M26.05 38.45h11.434c7.36 0 11.998 4.102 11.998 10.421 0 5.142-2.996 8.776-7.968 10l8.766 12.594h-4.265L37.439 59.3h-7.823v12.165H26.05V38.45zM38 55.95c4.684 0 7.923-2.265 7.923-7.078 0-4.575-3.14-7.03-7.922-7.03h-8.386v14.1h8.386v.008zm19.529-17.5h24.23v6.457h-17.25v6.511H80.96v6.366H64.508V65h17.25v6.465h-24.23V38.45z"/><path fill="#182026" d="M95.498 15.528C76.788-2.276 51.835-3.752 32.318 5.94 13.554 14.701.5 33.837.5 55.986c0 21.882 12.727 40.826 31.126 49.724 19.623 10.084 44.956 8.768 63.88-9.257 22.671-21.377 22.649-59.548-.008-80.925zM2.195 55.986c0-18.523 9.42-34.873 23.683-44.46 14.089-8.92 32.29-11.27 49.183-3.55 40.957 18.89 40.942 77.115-.007 95.997-16.993 7.774-35.316 5.356-49.442-3.703C11.494 90.66 2.195 74.395 2.195 55.986z"/></svg>