<svg aria-labelledby="title" viewBox="462 369 109 41"><path fill-rule="evenodd" d="M468.671 369.536L463 408.635h29.31l.988-6.997h-19.24l1.327-9.647h13.85l.987-6.997h-13.737l1.212-8.49h15.827l.987-6.968zm70.298 0l-13.4 24.824-6.178-24.824h-10.522l-12.891 39.099h9.844l8.491-25.813 6.461 25.813h6.008l13.569-25.023 1.1 25.023h9.592l-1.834-39.099zm31.429 3.695c0 .96-.109 1.947-.325 2.962a61.055 61.055 0 01-.945 3.725l-4.458 15.6h-5.952l.509-18.14c.188-2.462.442-4.156.762-5.077.3-.828.887-1.585 1.762-2.272.875-.687 2.101-1.029 3.682-1.029 1.768 0 3.037.438 3.808 1.312.77.875 1.157 1.847 1.157 2.92m-3.95 30.042a5.733 5.733 0 01-.79 2.935 5.855 5.855 0 01-2.144 2.144c-.903.525-1.88.79-2.933.79a5.778 5.778 0 01-2.962-.79 5.86 5.86 0 01-2.144-2.144 5.723 5.723 0 01-.79-2.935c0-1.07.263-2.058.79-2.962a5.87 5.87 0 012.144-2.144 5.778 5.778 0 012.962-.79c1.053 0 2.03.264 2.933.79a5.865 5.865 0 012.144 2.144c.526.904.79 1.892.79 2.962"/></svg>