<svg xmlns="http://www.w3.org/2000/svg" width="24" height="24" viewBox="0 0 24 24">
  <path fill="#444" d="M8,0 C12.4182773,0 16,3.58172179 16,8 C16,12.1489747 12.8415965,15.5602662 8.7979623,15.9607018 L8.79999948,15.999999 L8.79999948,21.9480218 C8.79999948,22.3898495 8.4418273,22.7480217 7.99999952,22.7480217 C7.55817175,22.7480217 7.19999957,22.3898495 7.19999957,21.9480218 L7.19999957,21.9480218 L7.19999957,15.999999 C7.19999957,15.9867442 7.20032193,15.9735647 7.20095922,15.9604678 C3.15840262,15.5602662 0,12.1489747 0,8 C0,3.58172179 3.58172179,0 8,0 Z M8,1.5999999 C4.46537734,1.5999999 1.5999999,4.46537734 1.5999999,8 C1.5999999,11.5346221 4.46537769,14.4000001 8,14.4000001 C11.5346217,14.4000001 14.4000001,11.5346217 14.4000001,8 C14.4000001,4.46537769 11.5346221,1.5999999 8,1.5999999 Z" transform="rotate(-45 12.45 5.157)"/>
</svg>
