<svg xmlns="http://www.w3.org/2000/svg" width="180" height="180" viewBox="0 0 180 180">
  <g fill="none" fill-rule="evenodd" transform="translate(11 11)">
    <circle cx="79" cy="79" r="63.5" stroke="#FAE9E6" stroke-width="15"/>
    <g transform="translate(17 1)">
      <path stroke="#FF4E89" d="M144,115 C144,117.208228 142.208604,119 140.000839,119 C137.791396,119 136,117.208228 136,115 C136,112.790092 137.791396,111 140.000839,111 C142.208604,111 144,112.790092 144,115 Z"/>
      <path fill="#FF4A22" d="M4,136 C4,137.104746 3.10474632,138 2,138 C0.896890344,138 0,137.104746 0,136 C0,134.895254 0.896890344,134 2,134 C3.10474632,134 4,134.895254 4,136"/>
      <path fill="#FF4E89" d="M4,2 C4,3.10474632 3.10474632,4 2,4 C0.896890344,4 0,3.10474632 0,2 C0,0.895253682 0.896890344,0 2,0 C3.10474632,0 4,0.895253682 4,2"/>
    </g>
    <path stroke="#FF4A22" stroke-linecap="round" stroke-width="2" d="M79,23 C48.072054,23 23,48.072054 23,79 C23,109.927946 48.072054,135 79,135 C109.927946,135 135,109.927946 135,79 C135,54.1379611 118.798276,33.0600378 96.3769665,25.7483695" transform="rotate(-53 79 79)"/>
    <path stroke="#FF4A22" stroke-linecap="round" stroke-width="2" d="M49.5,100.5 L112,90"/>
    <g fill="#FF4A22" transform="translate(60 59)">
      <circle cx="38" cy="3" r="3"/>
      <circle cx="3" cy="3" r="3"/>
    </g>
  </g>
</svg>
