<svg xmlns="http://www.w3.org/2000/svg" width="16" height="16" viewBox="0 0 16 16">
  <g fill="none" fill-rule="evenodd">
    <path fill="#FF4E89" d="M6.46926627,14.5920955 L6.46926627,14.5920955 C5.76143693,14.9615351 4.88813787,14.6872161 4.51869824,13.9793867 C4.47927678,13.903857 4.44660915,13.8249904 4.42107676,13.7437076 L4.42107676,13.7437076 C4.09685839,12.7115534 3.28844665,11.9031416 2.25629236,11.5789232 L2.25629236,11.5789232 C1.49454816,11.3396456 1.07100535,10.528157 1.31028301,9.76641283 C1.33581539,9.68513008 1.36848303,9.60626344 1.40790449,9.53073373 L1.40790449,9.53073373 C1.90849078,8.57163343 1.90849078,7.42836657 1.40790449,6.46926627 L1.40790449,6.46926627 C1.03846486,5.76143693 1.31278392,4.88813787 2.02061326,4.51869824 C2.09614297,4.47927678 2.17500961,4.44660915 2.25629236,4.42107676 L2.25629236,4.42107676 C3.28844665,4.09685839 4.09685839,3.28844665 4.42107676,2.25629236 L4.42107676,2.25629236 C4.66035442,1.49454816 5.47184297,1.07100535 6.23358717,1.31028301 C6.31486992,1.33581539 6.39373656,1.36848303 6.46926627,1.40790449 L6.46926627,1.40790449 C7.42836657,1.90849078 8.57163343,1.90849078 9.53073373,1.40790449 L9.53073373,1.40790449 C10.2385631,1.03846486 11.1118621,1.31278392 11.4813018,2.02061326 C11.5207232,2.09614297 11.5533909,2.17500961 11.5789232,2.25629236 L11.5789232,2.25629236 C11.9031416,3.28844665 12.7115534,4.09685839 13.7437076,4.42107676 L13.7437076,4.42107676 C14.5054518,4.66035442 14.9289947,5.47184297 14.689717,6.23358717 C14.6641846,6.31486992 14.631517,6.39373656 14.5920955,6.46926627 L14.5920955,6.46926627 C14.0915092,7.42836657 14.0915092,8.57163343 14.5920955,9.53073373 L14.5920955,9.53073373 C14.9615351,10.2385631 14.6872161,11.1118621 13.9793867,11.4813018 C13.903857,11.5207232 13.8249904,11.5533909 13.7437076,11.5789232 L13.7437076,11.5789232 C12.7115534,11.9031416 11.9031416,12.7115534 11.5789232,13.7437076 L11.5789232,13.7437076 C11.3396456,14.5054518 10.528157,14.9289947 9.76641283,14.689717 C9.68513008,14.6641846 9.60626344,14.631517 9.53073373,14.5920955 L9.53073373,14.5920955 C8.57163343,14.0915092 7.42836657,14.0915092 6.46926627,14.5920955 Z"/>
    <polyline stroke="#FFF" stroke-width="1.632" points="11.336 8.669 5.182 8.669 5.182 5.387" transform="rotate(-45 8.26 7.028)"/>
  </g>
</svg>
