<svg xmlns="http://www.w3.org/2000/svg" width="62" height="81" viewBox="0 0 62 81">
  <g fill="none" fill-rule="evenodd">
    <path fill="#FFF" stroke="#E5E5E5" d="M1,5 L1,76 C1,78.209139 2.790861,80 5,80 L57,80 C59.209139,80 61,78.209139 61,76 L61,15.0149809 L46.8862599,1 L5,1 C2.790861,1 1,2.790861 1,5 Z"/>
    <polyline fill="#FFF" stroke="#E5E5E5" stroke-linejoin="round" points="61 16 46 16 46 1"/>
    <path fill="#9EAFC4" d="M17.6186523,41.9902344 L17.6186523,47 L15.9311523,47 L15.9311523,34.203125 L20.6508789,34.203125 C22.0512765,34.203125 23.1484335,34.5605433 23.9423828,35.2753906 C24.7363321,35.9902379 25.1333008,36.9365175 25.1333008,38.1142578 C25.1333008,39.3564515 24.7451211,40.3129849 23.96875,40.9838867 C23.1923789,41.6547885 22.0805736,41.9902344 20.6333008,41.9902344 L17.6186523,41.9902344 Z M17.6186523,40.6103516 L20.6508789,40.6103516 C21.5532272,40.6103516 22.2446265,40.3979513 22.7250977,39.9731445 C23.2055688,39.5483377 23.4458008,38.9345743 23.4458008,38.1318359 C23.4458008,37.3701134 23.2055688,36.7607445 22.7250977,36.3037109 C22.2446265,35.8466774 21.5854534,35.6093751 20.7475586,35.5917969 L17.6186523,35.5917969 L17.6186523,40.6103516 Z M27.2866211,47 L27.2866211,34.203125 L30.8989258,34.203125 C32.0122126,34.203125 32.9965778,34.4492163 33.8520508,34.9414062 C34.7075238,35.4335962 35.3681617,36.1337845 35.8339844,37.0419922 C36.299807,37.9501999 36.5356445,38.9931582 36.5415039,40.1708984 L36.5415039,40.9882812 C36.5415039,42.1953185 36.3085961,43.2529251 35.8427734,44.1611328 C35.3769508,45.0693405 34.7119184,45.7665991 33.8476562,46.2529297 C32.9833941,46.7392602 31.9770565,46.9882812 30.8286133,47 L27.2866211,47 Z M28.9741211,35.5917969 L28.9741211,45.6201172 L30.7495117,45.6201172 C32.0502995,45.6201172 33.0624964,45.2158244 33.7861328,44.4072266 C34.5097692,43.5986288 34.871582,42.4472731 34.871582,40.953125 L34.871582,40.2060547 C34.871582,38.7529224 34.5302769,37.6235392 33.8476562,36.8178711 C33.1650356,36.012203 32.1967836,35.6035157 30.9428711,35.5917969 L28.9741211,35.5917969 Z M46.1479492,41.3486328 L40.777832,41.3486328 L40.777832,47 L39.090332,47 L39.090332,34.203125 L47.0180664,34.203125 L47.0180664,35.5917969 L40.777832,35.5917969 L40.777832,39.96875 L46.1479492,39.96875 L46.1479492,41.3486328 Z"/>
  </g>
</svg>
