<svg xmlns="http://www.w3.org/2000/svg" width="216" height="216" viewBox="0 0 216 216">
  <g fill="none" fill-rule="evenodd" transform="translate(9 13)">
    <polygon fill="#FFF" points="49 164 160 164 160 0 49 0"/>
    <polygon stroke="#E5E5E5" stroke-linejoin="round" points="49 164 160 164 160 0 49 0"/>
    <polygon fill="#FFF" points="88 121 199 121 199 52 88 52"/>
    <polygon stroke="#E5E5E5" stroke-linejoin="round" points="88 120 199 120 199 51 88 51"/>
    <path fill="#EBF0F4" d="M144.237794 25L64.7622058 25C62.1316062 25 60 22.7615615 60 19.9991208 60 17.2384385 62.1316062 15 64.7622058 15L144.237794 15C146.866719 15 149 17.2384385 149 19.9991208 149 22.7615615 146.866719 25 144.237794 25M129.237259 41L64.762741 41C62.1318457 41 60 38.7615615 60 35.9991208 60 33.2366801 62.1318457 31 64.762741 31L129.237259 31C131.86648 31 134 33.2366801 134 35.9991208 134 38.7615615 131.86648 41 129.237259 41M143.128862 134L66.8711378 134C65.8385532 134 65 133.1055 65 132 65 130.896303 65.8385532 130 66.8711378 130L143.128862 130C144.161447 130 145 130.896303 145 132 145 133.1055 144.161447 134 143.128862 134"/>
    <path fill="#045BFF" d="M138.146807,144 L66.8515218,144 C65.8288401,144 65,143.103697 65,142 C65,140.896303 65.8288401,140 66.8515218,140 L138.146807,140 C139.17116,140 140,140.896303 140,142 C140,143.103697 139.17116,144 138.146807,144"/>
    <path fill="#EBF0F4" d="M124.138391,154 L66.8599301,154 C65.8326041,154 65,153.103697 65,152 C65,150.896303 65.8326041,150 66.8599301,150 L124.138391,150 C125.165717,150 126,150.896303 126,152 C126,153.103697 125.165717,154 124.138391,154"/>
    <path stroke="#FF4E89" d="M184 10L184 20M189 15L179 15"/>
    <path stroke="#46C4DB" d="M37 161L37 171M42 166L32 166"/>
    <path fill="#FF4E89" d="M55,174 C55,175.104746 54.1047463,176 53,176 C51.8952537,176 51,175.104746 51,174 C51,172.895254 51.8952537,172 53,172 C54.1047463,172 55,172.895254 55,174"/>
    <path fill="#045BFF" d="M177,1.5 C177,2.32698413 176.328571,3 175.5,3 C174.671429,3 174,2.32698413 174,1.5 C174,0.671428571 174.671429,-2.27373675e-13 175.5,-2.27373675e-13 C176.328571,-2.27373675e-13 177,0.671428571 177,1.5"/>
    <path stroke="#0098FF" d="M182 140C182 138.342857 183.342857 137 185 137 186.657143 137 188 138.342857 188 140 188 141.655556 186.657143 143 185 143 183.342857 143 182 141.655556 182 140zM27 27C27 25.3428571 28.3432125 24 30.0007939 24 31.6567875 24 33 25.3428571 33 27 33 28.6555556 31.6567875 30 30.0007939 30 28.3432125 30 27 28.6555556 27 27z"/>
    <path fill="#46C4DB" d="M175,153.5 C175,152.673016 175.671429,152 176.5,152 C177.328571,152 178,152.673016 178,153.5 C178,154.328571 177.328571,155 176.5,155 C175.671429,155 175,154.328571 175,153.5"/>
    <path fill="#96ACBF" d="M172.137123,68 L99.8628768,68 C98.834851,68 98,67.2160883 98,66.2507886 L98,65.7507886 C98,64.7839117 98.834851,64 99.8628768,64 L172.137123,64 C173.166829,64 174,64.7839117 174,65.7507886 L174,66.2507886 C174,67.2160883 173.166829,68 172.137123,68"/>
    <path fill="#EBF0F4" d="M187.138163,80 L99.8618368,80 C98.8343849,80 98,79.2160883 98,78.2507886 L98,77.7492114 C98,76.7839117 98.8343849,76 99.8618368,76 L187.138163,76 C188.165615,76 189,76.7839117 189,77.7492114 L189,78.2507886 C189,79.2160883 188.165615,80 187.138163,80"/>
    <path fill="#045BFF" d="M182.141184 91L99.8588162 91C98.8313551 91 98 90.2160883 98 89.2507886L98 88.7492114C98 87.7839117 98.8313551 87 99.8588162 87L182.141184 87C183.166969 87 184 87.7839117 184 88.7492114L184 89.2507886C184 90.2160883 183.166969 91 182.141184 91M166.131334 102L99.8686662 102C98.8374455 102 98 101.216088 98 100.250789L98 99.7492114C98 98.7823344 98.8374455 98 99.8686662 98L166.131334 98C167.162554 98 168 98.7823344 168 99.7492114L168 100.250789C168 101.216088 167.162554 102 166.131334 102"/>
    <polygon fill="#FFF" points="0 92 61 92 61 48 0 48"/>
    <polygon stroke="#E5E5E5" stroke-linejoin="round" points="0 92 61 92 61 48 0 48"/>
    <path fill="#96ACBF" d="M49.1366691,60 L11.8633309,60 C10.8333743,60 10,59.2160883 10,58.2507886 L10,57.7492114 C10,56.7839117 10.8333743,56 11.8633309,56 L49.1366691,56 C50.1666257,56 51,56.7839117 51,57.7492114 L51,58.2507886 C51,59.2160883 50.1666257,60 49.1366691,60"/>
    <path fill="#EBF0F4" d="M47.1276623 72L11.874026 72C10.8390909 72 10 71.2160883 10 70.2507886L10 69.7492114C10 68.7823344 10.8390909 68 11.874026 68L47.1276623 68C48.1609091 68 49 68.7823344 49 69.7492114L49 70.2507886C49 71.2160883 48.1609091 72 47.1276623 72M39.1618457 83L11.8398118 83C10.8237716 83 10 82.2160883 10 81.2507886L10 80.7507886C10 79.7839117 10.8237716 79 11.8398118 79L39.1618457 79C40.1762284 79 41 79.7839117 41 80.7507886L41 81.2507886C41 82.2160883 40.1762284 83 39.1618457 83"/>
  </g>
</svg>
