<svg width="148" height="207" viewBox="0 0 148 207" fill="none" xmlns="http://www.w3.org/2000/svg">
<path d="M148 162.049L104.878 186.389L97.3359 175.273L130.879 57.3378L109.403 138.773L148 162.049Z" fill="black"/>
<path d="M60.9605 1.84275L137.991 45.7867C141.029 47.52 142.521 51.0788 141.627 54.459L107.645 182.854C107.363 183.921 107.375 185.318 106.38 185.794L102.217 187.786L101.551 187.52L101.069 187.187L48.8447 9.8887L54.0374 0.711426L58.9565 1.20302C59.662 1.27352 60.3447 1.49148 60.9605 1.84275Z" fill="#87847D"/>
<path fill-rule="evenodd" clip-rule="evenodd" d="M53.9283 0.5L58.9769 1.00454C59.7102 1.07783 60.4199 1.30439 61.06 1.66953L138.09 45.6135C141.207 47.3916 142.738 51.0425 141.82 54.51L107.42 184.487C107.41 185.123 107.041 185.699 106.467 185.974L102.224 188.004L101.457 187.697L100.898 187.311L48.6299 9.86406L53.9283 0.5ZM54.1476 0.922936L49.0606 9.91343L101.237 187.05L102.221 187.563L106.294 185.614C106.738 185.401 107.021 184.953 107.021 184.461V184.435L141.434 54.408C142.306 51.1153 140.852 47.6485 137.892 45.96L60.862 2.01606C60.2706 1.67866 59.6148 1.4693 58.9371 1.40158L54.1476 0.922936Z" fill="black"/>
<path d="M65.4403 167.278C81.7155 176.667 95.8067 184.8 100.787 187.675C101.772 188.244 102.994 187.703 103.289 186.604L138.455 55.2016C139.358 51.8288 137.881 48.2706 134.855 46.5261L56.6501 1.44229C53.6218 -0.303506 49.7603 1.29222 48.85 4.6656L28.8406 78.8201C19.5682 113.184 34.597 149.484 65.4403 167.278Z" fill="#F5F2EA"/>
<path fill-rule="evenodd" clip-rule="evenodd" d="M56.5499 1.61515C53.6351 -0.0651777 49.9183 1.47071 49.0422 4.71759L29.0328 78.8721C19.7839 113.148 34.7746 149.357 65.5395 167.105C81.8147 176.495 95.906 184.628 100.886 187.502C101.752 188.002 102.833 187.531 103.095 186.552L138.262 55.1501C139.141 51.8645 137.703 48.3984 134.755 46.699L56.5499 1.61515ZM48.6567 4.6137C49.6011 1.11382 53.6074 -0.541751 56.7494 1.26952L134.954 46.3533C138.059 48.143 139.573 51.7932 138.647 55.2532L103.481 186.655C103.155 187.874 101.792 188.486 100.687 187.848C95.7064 184.973 81.6151 176.84 65.3399 167.451C34.4183 149.612 19.3513 113.219 28.6473 78.7682L48.6567 4.6137Z" fill="black"/>
<path d="M54.1298 10.8375L21.6289 131.282L98.7957 175.842L131.47 55.4214L54.1298 10.8375Z" fill="black"/>
<path fill-rule="evenodd" clip-rule="evenodd" d="M54.0049 10.5349L131.703 55.3252L98.9207 176.144L21.3965 131.377L54.0049 10.5349ZM54.2552 11.1398L21.8619 131.185L98.6712 175.539L131.237 55.5173L54.2552 11.1398Z" fill="black"/>
<path d="M52.7392 11.1851L20.2383 131.629L97.4051 176.19L130.079 55.7689L52.7392 11.1851Z" fill="#D9D9D9"/>
<path fill-rule="evenodd" clip-rule="evenodd" d="M52.6133 10.8827L130.312 55.6729L97.5291 176.492L20.0049 131.725L52.6133 10.8827ZM52.8636 11.4876L20.4703 131.533L97.2796 175.887L129.846 55.8651L52.8636 11.4876Z" fill="black"/>
<path d="M51.3476 11.359L18.8467 131.803L96.0135 176.364L128.688 55.9428L51.3476 11.359Z" fill="white"/>
<path fill-rule="evenodd" clip-rule="evenodd" d="M51.2227 11.0565L128.921 55.8468L96.1385 176.666L18.6143 131.899L51.2227 11.0565ZM51.473 11.6615L19.0796 131.707L95.889 176.061L128.455 56.0389L51.473 11.6615Z" fill="black"/>
<path d="M116.367 35.879L71.1797 9.82568H74.9169L120.583 35.879H116.367Z" fill="#363636"/>
<path fill-rule="evenodd" clip-rule="evenodd" d="M70.4346 9.62622H74.9703L121.336 36.0786H116.314L70.4346 9.62622ZM71.9256 10.0252L116.421 35.6796H119.831L74.8643 10.0252H71.9256Z" fill="black"/>
<path d="M44.1487 99.2794L47.8753 85.4726C47.9436 85.2196 48.2332 85.0999 48.4603 85.2309L60.2283 92.0158C60.5415 92.1964 60.6942 92.5646 60.6006 92.9136L56.874 106.812C56.8058 107.066 56.5142 107.186 56.2868 107.053L44.5167 100.176C44.2056 99.9945 44.0549 99.6271 44.1487 99.2794Z" fill="white"/>
<path fill-rule="evenodd" clip-rule="evenodd" d="M48.36 85.4036C48.2465 85.3381 48.1016 85.398 48.0675 85.5245L44.3409 99.3313C44.2706 99.592 44.3836 99.8676 44.6169 100.004L56.387 106.88C56.5007 106.947 56.6465 106.887 56.6806 106.76L60.4072 92.8619C60.4774 92.6002 60.3629 92.324 60.128 92.1885L48.36 85.4036ZM47.682 85.4205C47.7844 85.041 48.2189 84.8616 48.5595 85.058L60.3276 91.8429C60.719 92.0686 60.9099 92.529 60.7929 92.9652L57.0663 106.863C56.964 107.245 56.5266 107.424 56.1855 107.225L44.4154 100.348C44.0266 100.121 43.8381 99.6619 43.9554 99.2274L47.682 85.4205Z" fill="black"/>
<path d="M38.0257 119.762L41.7522 105.956C41.8205 105.703 42.1101 105.583 42.3373 105.714L54.1053 112.499C54.4184 112.679 54.5711 113.048 54.4776 113.397L50.7509 127.295C50.6827 127.549 50.3912 127.669 50.1637 127.536L38.3936 120.659C38.0826 120.477 37.9318 120.11 38.0257 119.762Z" fill="white"/>
<path fill-rule="evenodd" clip-rule="evenodd" d="M42.2379 105.887C42.1244 105.821 41.9796 105.881 41.9454 106.008L38.2189 119.814C38.1485 120.075 38.2615 120.351 38.4948 120.487L50.2649 127.364C50.3786 127.43 50.5244 127.37 50.5585 127.243L54.2852 113.345C54.3554 113.083 54.2408 112.807 54.006 112.672L42.2379 105.887ZM41.5599 105.904C41.6624 105.524 42.0968 105.345 42.4375 105.541L54.2055 112.326C54.5969 112.552 54.7878 113.012 54.6708 113.448L50.9442 127.346C50.8419 127.728 50.4045 127.907 50.0634 127.708L38.2933 120.831C37.9045 120.604 37.7161 120.145 37.8334 119.711L41.5599 105.904Z" fill="black"/>
<path d="M46.1449 98.4803L48.9454 88.1316C49.0137 87.879 49.3029 87.7594 49.5299 87.89L58.3629 92.9696C58.6767 93.15 58.8298 93.5189 58.7358 93.8683L55.9354 104.285C55.8671 104.539 55.5759 104.659 55.3486 104.527L46.5136 99.378C46.2018 99.1964 46.0508 98.8284 46.1449 98.4803Z" fill="black"/>
<path fill-rule="evenodd" clip-rule="evenodd" d="M49.4308 88.0629C49.3173 87.9976 49.1727 88.0574 49.1385 88.1838L46.3381 98.5324C46.2675 98.7935 46.3808 99.0695 46.6146 99.2057L46.514 99.3781L46.6146 99.2057L55.4496 104.354C55.5633 104.42 55.7089 104.361 55.743 104.234L58.5435 93.8166C58.6139 93.5545 58.4991 93.2779 58.2638 93.1425L49.4308 88.0629ZM48.7531 88.0796C48.8556 87.7006 49.2894 87.5212 49.6299 87.7171L58.4629 92.7967C58.8552 93.0223 59.0465 93.4833 58.9291 93.9201L56.1286 104.337C56.0262 104.718 55.5895 104.898 55.2485 104.699L46.4134 99.5504C46.0238 99.3234 45.8349 98.8634 45.9527 98.4283L48.7531 88.0796Z" fill="black"/>
<path d="M40.0239 118.963L42.8243 108.615C42.8926 108.362 43.1818 108.243 43.4088 108.373L52.2418 113.453C52.5556 113.633 52.7087 114.002 52.6148 114.351L49.8143 124.769C49.746 125.023 49.4549 125.142 49.2275 125.01L40.3925 119.861C40.0808 119.68 39.9297 119.312 40.0239 118.963Z" fill="black"/>
<path fill-rule="evenodd" clip-rule="evenodd" d="M43.3087 108.546C43.1952 108.481 43.0506 108.54 43.0164 108.667L40.216 119.015C40.1454 119.277 40.2587 119.553 40.4925 119.689L40.3919 119.861L40.4925 119.689L49.3276 124.837C49.4412 124.904 49.5868 124.844 49.6209 124.717L52.4214 114.3C52.4919 114.038 52.3771 113.761 52.1417 113.626L43.3087 108.546ZM42.631 108.563C42.7336 108.184 43.1673 108.004 43.5079 108.2L52.3409 113.28C52.7331 113.505 52.9244 113.966 52.807 114.403L50.0065 124.82C49.9041 125.201 49.4674 125.381 49.1264 125.182L40.2914 120.033C39.9017 119.806 39.7129 119.346 39.8306 118.911L42.631 108.563Z" fill="black"/>
<path d="M53.988 90.4536L58.363 92.9696C58.6768 93.1501 58.8299 93.5189 58.7359 93.8684L58.1214 96.1541L57.3476 99.0326L56.8444 100.904C56.7079 101.412 56.1265 101.651 55.6719 101.387L49.7421 97.9431C49.4299 97.7617 49.2783 97.3935 49.3724 97.0451L49.9867 94.7713L51.264 90.0432C51.4006 89.5377 51.9791 89.2984 52.4333 89.5596L53.988 90.4536Z" fill="#F8F5EE"/>
<path fill-rule="evenodd" clip-rule="evenodd" d="M51.0717 89.9913C51.2424 89.3594 51.9656 89.0602 52.5333 89.3867L58.463 92.7967C58.8553 93.0223 59.0466 93.4834 58.9291 93.9202L57.0376 100.956C56.8671 101.591 56.1403 101.89 55.572 101.56L49.6422 98.1156C49.2519 97.8889 49.0624 97.4287 49.1801 96.9931L51.0717 89.9913ZM52.3341 89.7325C51.9935 89.5367 51.5596 89.7161 51.4572 90.0953L49.5656 97.0972C49.495 97.3585 49.6087 97.6346 49.8428 97.7706L55.7727 101.215C56.1136 101.413 56.5497 101.233 56.652 100.853L58.5435 93.8166C58.614 93.5546 58.4992 93.2779 58.2639 93.1426L52.3341 89.7325Z" fill="black"/>
<path d="M47.8659 110.937L52.2409 113.453C52.5547 113.633 52.7078 114.002 52.6138 114.351L51.9993 116.637L51.2255 119.516L50.7223 121.387C50.5859 121.895 50.0044 122.134 49.5498 121.87L43.62 118.426C43.3078 118.245 43.1562 117.877 43.2503 117.528L43.8646 115.254L45.142 110.526C45.2785 110.021 45.857 109.781 46.3112 110.043L47.8659 110.937Z" fill="#DA6B5D"/>
<path fill-rule="evenodd" clip-rule="evenodd" d="M44.9497 110.474C45.1204 109.842 45.8435 109.543 46.4112 109.87L52.3409 113.28C52.7332 113.505 52.9245 113.966 52.8071 114.403L50.9155 121.439C50.745 122.074 50.0182 122.373 49.45 122.043L43.5201 118.599C43.1298 118.372 42.9404 117.912 43.058 117.476L44.9497 110.474ZM46.2121 110.216C45.8714 110.02 45.4376 110.199 45.3351 110.578L43.4435 117.58C43.3729 117.842 43.4866 118.118 43.7208 118.254L49.6506 121.698C49.9915 121.896 50.4276 121.716 50.5299 121.336L52.4215 114.3C52.4919 114.038 52.3771 113.761 52.1418 113.626L46.2121 110.216Z" fill="black"/>
<path d="M50.4026 78.9292L54.1292 65.1224C54.1975 64.8694 54.4871 64.7497 54.7142 64.8807L66.4822 71.6656C66.7954 71.8461 66.9481 72.2144 66.8545 72.5634L63.1279 86.4614C63.0597 86.7157 62.7681 86.8355 62.5407 86.7026L50.7706 79.826C50.4595 79.6442 50.3088 79.2768 50.4026 78.9292Z" fill="white"/>
<path fill-rule="evenodd" clip-rule="evenodd" d="M54.6149 65.0535C54.5013 64.988 54.3565 65.0479 54.3224 65.1744L50.5958 78.9812C50.5254 79.2419 50.6385 79.5175 50.8718 79.6538L62.6419 86.5304C62.7556 86.5968 62.9014 86.5369 62.9355 86.4098L66.6621 72.5118C66.7323 72.2501 66.6178 71.9739 66.3829 71.8385L54.6149 65.0535ZM53.9369 65.0704C54.0393 64.691 54.4737 64.5115 54.8144 64.7079L66.5824 71.4928C66.9739 71.7185 67.1648 72.1789 67.0478 72.6151L63.3211 86.5131C63.2189 86.8945 62.7815 87.0742 62.4404 86.8749L50.6703 79.9982C50.2815 79.7711 50.093 79.3118 50.2103 78.8773L53.9369 65.0704Z" fill="black"/>
<path d="M52.3998 78.1302L55.2002 67.7815C55.2686 67.5289 55.5578 67.4093 55.7848 67.5399L64.6178 72.6195C64.9316 72.7999 65.0847 73.1688 64.9907 73.5182L62.1902 83.9353C62.122 84.1893 61.8308 84.3089 61.6035 84.1765L52.7684 79.0279C52.4567 78.8463 52.3056 78.4783 52.3998 78.1302Z" fill="black"/>
<path fill-rule="evenodd" clip-rule="evenodd" d="M55.6857 67.7128C55.5722 67.6475 55.4276 67.7073 55.3934 67.8337L52.593 78.1823C52.5223 78.4434 52.6357 78.7194 52.8694 78.8556L52.7689 79.028L52.8694 78.8556L61.7045 84.0042C61.8182 84.0704 61.9637 84.0106 61.9979 83.8836L64.7984 73.4665C64.8688 73.2044 64.754 72.9278 64.5187 72.7924L55.6857 67.7128ZM55.008 67.7295C55.1105 67.3505 55.5443 67.1711 55.8848 67.367L64.7178 72.4466C65.1101 72.6722 65.3014 73.1332 65.184 73.57L62.3835 83.9871C62.2811 84.3681 61.8444 84.5476 61.5034 84.3489L52.6683 79.2003C52.2787 78.9733 52.0898 78.5133 52.2076 78.0782L55.008 67.7295Z" fill="black"/>
<path d="M60.2429 70.1036L64.6179 72.6195C64.9317 72.8 65.0847 73.1688 64.9908 73.5183L64.3763 75.804L63.6025 78.6825L63.0993 80.5543C62.9628 81.0617 62.3814 81.3012 61.9268 81.0372L55.997 77.593C55.6847 77.4116 55.5332 77.0434 55.6273 76.695L56.2416 74.4212L57.5189 69.6932C57.6555 69.1876 58.234 68.9483 58.6881 69.2095L60.2429 70.1036Z" fill="#D5DF95"/>
<path fill-rule="evenodd" clip-rule="evenodd" d="M57.3266 69.6411C57.4973 69.0092 58.2205 68.71 58.7881 69.0365L64.7179 72.4465C65.1101 72.6721 65.3015 73.1332 65.184 73.5699L63.2925 80.6059C63.122 81.2403 62.3952 81.5396 61.8269 81.2096L55.8971 77.7654C55.5068 77.5387 55.3173 77.0785 55.435 76.6429L57.3266 69.6411ZM58.589 69.3823C58.2484 69.1864 57.8145 69.3659 57.7121 69.7451L55.8205 76.7469C55.7499 77.0083 55.8635 77.2844 56.0977 77.4204L62.0275 80.8646C62.3685 81.0626 62.8046 80.883 62.9069 80.5024L64.7984 73.4664C64.8689 73.2043 64.7541 72.9277 64.5187 72.7923L58.589 69.3823Z" fill="black"/>
<path d="M56.7913 57.515L60.5179 43.7082C60.5862 43.4552 60.8758 43.3355 61.1029 43.4665L72.8709 50.2514C73.1841 50.432 73.3368 50.8002 73.2432 51.1492L69.5165 65.0472C69.4484 65.3015 69.1568 65.4213 68.9294 65.2884L57.1593 58.4118C56.8482 58.2301 56.6975 57.8627 56.7913 57.515Z" fill="white"/>
<path fill-rule="evenodd" clip-rule="evenodd" d="M61.0036 43.6393C60.89 43.5739 60.7452 43.6337 60.7111 43.7602L56.9845 57.567C56.9141 57.8277 57.0272 58.1033 57.2605 58.2396L69.0306 65.1162C69.1443 65.1826 69.29 65.1228 69.3241 64.9956L73.0508 51.0976C73.121 50.8359 73.0065 50.5597 72.7716 50.4243L61.0036 43.6393ZM60.3256 43.6563C60.428 43.2768 60.8624 43.0973 61.2031 43.2937L72.9711 50.0786C73.3626 50.3043 73.5534 50.7647 73.4365 51.2009L69.7098 65.0989C69.6075 65.4803 69.1702 65.66 68.829 65.4607L57.0589 58.5841C56.6701 58.3569 56.4817 57.8977 56.599 57.4631L60.3256 43.6563Z" fill="black"/>
<path d="M58.7885 56.716L61.5889 46.3674C61.6573 46.1147 61.9465 45.9951 62.1735 46.1257L71.0065 51.2053C71.3203 51.3857 71.4733 51.7546 71.3794 52.104L68.5789 62.5211C68.5106 62.7751 68.2195 62.8948 67.9922 62.7623L59.1571 57.6137C58.8454 57.4321 58.6943 57.0641 58.7885 56.716Z" fill="black"/>
<path fill-rule="evenodd" clip-rule="evenodd" d="M62.0743 46.2986C61.9608 46.2334 61.8162 46.2931 61.7821 46.4195L58.9817 56.7681C58.911 57.0292 59.0243 57.3052 59.2581 57.4414L59.1575 57.6138L59.2581 57.4414L68.0932 62.59C68.2068 62.6562 68.3524 62.5964 68.3865 62.4694L71.187 52.0523C71.2575 51.7902 71.1427 51.5136 70.9073 51.3782L62.0743 46.2986ZM61.3966 46.3153C61.4992 45.9363 61.933 45.757 62.2735 45.9528L71.1065 51.0324C71.4987 51.258 71.6901 51.7191 71.5726 52.1558L68.7721 62.5729C68.6697 62.9539 68.233 63.1334 67.8921 62.9347L59.057 57.7861C58.6673 57.5591 58.4785 57.0991 58.5962 56.664L61.3966 46.3153Z" fill="black"/>
<path d="M66.6315 48.6893L71.0065 51.2053C71.3204 51.3857 71.4734 51.7546 71.3795 52.104L70.765 54.3898L69.9911 57.2683L69.2173 60.1468L62.3856 56.1788C62.0734 55.9974 61.9218 55.6292 62.016 55.2808L62.6302 53.007L64.1779 47.2783L66.6315 48.6893Z" fill="#74CB91"/>
<path fill-rule="evenodd" clip-rule="evenodd" d="M64.0532 46.9762L71.1066 51.0324C71.4988 51.258 71.6901 51.719 71.5727 52.1558L69.3429 60.4502L62.2858 56.3513C61.8955 56.1246 61.706 55.6644 61.8237 55.2288L64.0532 46.9762ZM64.3035 47.5805L62.2091 55.3328C62.1385 55.5942 62.2522 55.8703 62.4864 56.0063L69.0926 59.8433L71.1871 52.0523C71.2576 51.7902 71.1428 51.5136 70.9074 51.3782L64.3035 47.5805Z" fill="black"/>
<path d="M71.0506 9.82568L68.1955 20.691C66.6732 26.484 69.2131 32.5793 74.3998 35.5802L95.3852 47.7218C102.704 51.9562 112.067 48.3844 114.701 40.3533L116.194 35.8012L71.0506 9.82568Z" fill="#E6E6E6"/>
<path fill-rule="evenodd" clip-rule="evenodd" d="M70.9233 9.52246L116.433 35.7092L114.89 40.4154C112.217 48.567 102.713 52.1923 95.2847 47.8944L74.2993 35.7528C69.0347 32.7069 66.4567 26.5202 68.0018 20.6403L70.9233 9.52246ZM71.1768 10.1288L68.388 20.7416C66.8886 26.4477 69.3904 32.4516 74.4993 35.4075L95.4847 47.5491C102.694 51.72 111.916 48.2018 114.511 40.2911L115.953 35.8931L71.1768 10.1288Z" fill="black"/>
<path d="M100.242 41.6174L76.8754 28.0203C75.845 27.4207 75.3393 26.2094 75.6377 25.0557L76.86 20.33L105.187 36.8634L104.111 40.1461C103.584 41.7555 101.707 42.4695 100.242 41.6174Z" fill="#F8F8F8"/>
<path fill-rule="evenodd" clip-rule="evenodd" d="M76.7322 20.0247L105.426 36.7724L104.301 40.2082C103.734 41.9383 101.715 42.7059 100.141 41.7899L76.7744 28.1927C75.6667 27.5481 75.1231 26.246 75.4438 25.0058L76.7322 20.0247ZM76.9867 20.6353L75.8304 25.1056C75.5544 26.1728 76.0222 27.2932 76.9753 27.8479L100.342 41.445C101.697 42.2332 103.434 41.5727 103.921 40.0841L104.946 36.9545L76.9867 20.6353Z" fill="black"/>
<path fill-rule="evenodd" clip-rule="evenodd" d="M93.8305 136.826L54.2812 114.007L54.4809 113.661L94.0301 136.48L93.8305 136.826Z" fill="black"/>
<path fill-rule="evenodd" clip-rule="evenodd" d="M92.5443 141.321L52.9951 118.502L53.1948 118.156L92.744 140.976L92.5443 141.321Z" fill="black"/>
<path fill-rule="evenodd" clip-rule="evenodd" d="M91.6459 145.174L52.0967 122.354L52.2963 122.009L91.8455 144.828L91.6459 145.174Z" fill="black"/>
<path fill-rule="evenodd" clip-rule="evenodd" d="M90.3598 149.669L50.8105 126.849L51.0102 126.504L90.5594 149.323L90.3598 149.669Z" fill="black"/>
<path fill-rule="evenodd" clip-rule="evenodd" d="M99.9515 116.742L60.4023 93.9227L60.602 93.5772L100.151 116.396L99.9515 116.742Z" fill="black"/>
<path fill-rule="evenodd" clip-rule="evenodd" d="M98.6664 121.237L59.1172 98.4178L59.3168 98.0723L98.866 120.892L98.6664 121.237Z" fill="black"/>
<path fill-rule="evenodd" clip-rule="evenodd" d="M97.768 125.09L58.2188 102.271L58.4184 101.925L97.9676 124.744L97.768 125.09Z" fill="black"/>
<path fill-rule="evenodd" clip-rule="evenodd" d="M96.4818 129.585L56.9326 106.765L57.1323 106.42L96.6815 129.239L96.4818 129.585Z" fill="black"/>
<path fill-rule="evenodd" clip-rule="evenodd" d="M106.34 95.7269L66.791 72.9076L66.9907 72.562L106.54 95.3813L106.34 95.7269Z" fill="black"/>
<path fill-rule="evenodd" clip-rule="evenodd" d="M105.054 100.222L65.5049 77.4027L65.7045 77.0571L105.254 99.8764L105.054 100.222Z" fill="black"/>
<path fill-rule="evenodd" clip-rule="evenodd" d="M104.155 104.075L64.6055 81.2554L64.8051 80.9098L104.354 103.729L104.155 104.075Z" fill="black"/>
<path fill-rule="evenodd" clip-rule="evenodd" d="M102.87 108.57L63.3203 85.7502L63.5199 85.4047L103.069 108.224L102.87 108.57Z" fill="black"/>
<path fill-rule="evenodd" clip-rule="evenodd" d="M112.596 74.9777L73.0469 52.1584L73.2465 51.8129L112.796 74.6322L112.596 74.9777Z" fill="black"/>
<path fill-rule="evenodd" clip-rule="evenodd" d="M111.31 79.4728L71.7607 56.6536L71.9604 56.308L111.51 79.1273L111.31 79.4728Z" fill="black"/>
<path fill-rule="evenodd" clip-rule="evenodd" d="M110.411 83.3255L70.8613 60.5062L71.061 60.1607L110.61 82.9799L110.411 83.3255Z" fill="black"/>
<path fill-rule="evenodd" clip-rule="evenodd" d="M109.125 87.8204L69.5762 65.0011L69.7758 64.6555L109.325 87.4748L109.125 87.8204Z" fill="black"/>
<path d="M36.9646 199.747L5.04832 144.449C3.63611 142.002 4.79488 138.875 7.4611 137.938C9.4898 137.224 11.7404 138.04 12.8402 139.887L46.1332 195.799C46.3321 196.133 46.4554 196.507 46.4942 196.893L47.185 203.775C47.2941 204.863 46.1164 205.61 45.1775 205.049L37.904 200.701C37.5147 200.468 37.1913 200.14 36.9646 199.747Z" fill="black"/>
<path fill-rule="evenodd" clip-rule="evenodd" d="M7.39535 137.749C9.51373 137.005 11.8638 137.856 13.0122 139.785L46.3052 195.697C46.5191 196.056 46.6516 196.458 46.6934 196.874L47.3841 203.755C47.5097 205.006 46.1552 205.866 45.0755 205.22L37.802 200.873C37.3835 200.622 37.0359 200.269 36.7922 199.847L4.87589 144.549C3.40125 141.994 4.61124 138.728 7.39535 137.749ZM12.6691 139.989C11.6179 138.224 9.46687 137.444 7.52786 138.126C4.97952 139.022 3.87198 142.011 5.22176 144.349L37.138 199.648C37.3477 200.011 37.6468 200.315 38.007 200.53L45.2805 204.878C46.0785 205.355 47.0796 204.719 46.9868 203.795L46.2961 196.913C46.2602 196.556 46.1462 196.21 45.9621 195.901L12.6691 139.989Z" fill="black"/>
<path d="M33.1191 200.719L0.809445 144.547C-0.614617 142.071 0.557037 138.911 3.25154 137.96C5.30933 137.234 7.59371 138.063 8.70686 139.938L42.396 196.71C42.594 197.043 42.7166 197.416 42.7552 197.802L43.4587 204.835C43.5676 205.924 42.3881 206.671 41.4495 206.108L34.0571 201.674C33.6681 201.44 33.3452 201.112 33.1191 200.719Z" fill="white"/>
<path fill-rule="evenodd" clip-rule="evenodd" d="M3.18558 137.772C5.33321 137.015 7.71733 137.879 8.87908 139.837L42.5682 196.608C42.781 196.966 42.9128 197.367 42.9543 197.782L43.6579 204.815C43.7831 206.067 42.4267 206.926 41.3473 206.279L33.9548 201.845C33.5367 201.594 33.1896 201.241 32.9466 200.818L0.636868 144.646C-0.849367 142.062 0.37344 138.764 3.18558 137.772ZM8.53565 140.04C7.4711 138.246 5.28645 137.454 3.3185 138.149C0.741639 139.058 -0.378862 142.08 0.983027 144.447L33.2927 200.619C33.5018 200.983 33.8005 201.287 34.1603 201.503L41.5527 205.937C42.3506 206.415 43.3531 205.78 43.2606 204.855L42.557 197.822C42.5213 197.465 42.4079 197.12 42.2248 196.811L8.53565 140.04Z" fill="black"/>
<path fill-rule="evenodd" clip-rule="evenodd" d="M41.9956 196.47C38.6077 192.452 32.1217 195.824 33.4688 200.902L33.0828 201.005C31.6266 195.514 38.6384 191.869 42.3009 196.213L42.5452 196.502L42.2399 196.759L41.9956 196.47Z" fill="black"/>
</svg>
