<svg fill="none" viewBox="0 0 148 207"><path fill="#000" d="M148 162.049l-43.122 24.34-7.542-11.116 33.543-117.935-21.476 81.435L148 162.049z"/><path fill="#87847D" d="M60.96 1.843l77.031 43.944a7.714 7.714 0 013.636 8.672l-33.982 128.395c-.282 1.067-.27 2.464-1.265 2.94l-4.163 1.992-.666-.266-.482-.333L48.845 9.889 54.037.71l4.92.492a5.06 5.06 0 012.004.64z"/><path fill="#000" fill-rule="evenodd" d="M53.928.5l5.049.505a5.26 5.26 0 012.083.665l77.03 43.944a7.912 7.912 0 013.73 8.896l-34.4 129.977a1.678 1.678 0 01-.953 1.487l-4.243 2.03-.767-.307-.559-.386L48.63 9.864 53.928.5zm.22.423l-5.087 8.99 52.176 177.137.984.513 4.073-1.949a1.28 1.28 0 00.727-1.153v-.026l34.413-130.027a7.512 7.512 0 00-3.542-8.448L60.862 2.016a4.86 4.86 0 00-1.925-.614l-4.79-.48z" clip-rule="evenodd"/><path fill="#F5F2EA" d="M65.44 167.278c16.276 9.389 30.367 17.522 35.347 20.397.985.569 2.207.028 2.502-1.071l35.166-131.402a7.712 7.712 0 00-3.6-8.676L56.65 1.442c-3.028-1.746-6.89-.15-7.8 3.224L28.84 78.82c-9.272 34.364 5.757 70.664 36.6 88.458z"/><path fill="#000" fill-rule="evenodd" d="M56.55 1.615c-2.915-1.68-6.632-.144-7.508 3.103l-20.01 74.154c-9.248 34.276 5.743 70.485 36.508 88.233 16.275 9.39 30.366 17.523 35.346 20.397.866.5 1.947.029 2.209-.95L138.262 55.15a7.513 7.513 0 00-3.507-8.451L56.55 1.615zm-7.893 2.999c.944-3.5 4.95-5.156 8.092-3.344l78.205 45.083a7.911 7.911 0 013.693 8.9l-35.166 131.402c-.326 1.219-1.689 1.831-2.794 1.193-4.98-2.875-19.072-11.008-35.347-20.397-30.922-17.839-45.989-54.232-36.693-88.683l20.01-74.154z" clip-rule="evenodd"/><path fill="#000" d="M54.13 10.838L21.629 131.281l77.167 44.56 32.674-120.42-77.34-44.584z"/><path fill="#000" fill-rule="evenodd" d="M54.005 10.535l77.698 44.79-32.782 120.819-77.525-44.767 32.61-120.842zm.25.605L21.862 131.185l76.81 44.354 32.565-120.022L54.255 11.14z" clip-rule="evenodd"/><path fill="#D9D9D9" d="M52.74 11.185L20.237 131.63l77.167 44.561L130.08 55.769 52.74 11.185z"/><path fill="#000" fill-rule="evenodd" d="M52.613 10.883l77.699 44.79-32.783 120.819-77.524-44.767L52.613 10.883zm.25.605L20.47 131.533l76.81 44.354 32.566-120.022-76.982-44.377z" clip-rule="evenodd"/><path fill="#fff" d="M51.348 11.359L18.847 131.803l77.166 44.561 32.675-120.421-77.34-44.584z"/><path fill="#000" fill-rule="evenodd" d="M51.223 11.056l77.698 44.79-32.782 120.82-77.525-44.767L51.223 11.056zm.25.606L19.08 131.707l76.809 44.354 32.566-120.022-76.982-44.377z" clip-rule="evenodd"/><path fill="#363636" d="M116.367 35.879L71.18 9.826h3.737l45.666 26.053h-4.216z"/><path fill="#000" fill-rule="evenodd" d="M70.435 9.626h4.535l46.366 26.453h-5.022L70.434 9.626zm1.49.4l44.496 25.654h3.41L74.864 10.025h-2.938z" clip-rule="evenodd"/><path fill="#fff" d="M44.149 99.28l3.726-13.807a.4.4 0 01.585-.242l11.768 6.785a.8.8 0 01.373.898l-3.727 13.898a.4.4 0 01-.587.241l-11.77-6.877a.797.797 0 01-.368-.897z"/><path fill="#000" fill-rule="evenodd" d="M48.36 85.404a.2.2 0 00-.292.12L44.34 99.332a.6.6 0 00.276.673l11.77 6.876a.2.2 0 00.294-.12l3.726-13.898a.598.598 0 00-.279-.673L48.36 85.404zm-.678.017a.599.599 0 01.877-.363l11.769 6.785a.997.997 0 01.465 1.122l-3.727 13.898a.599.599 0 01-.88.362l-11.77-6.877a.997.997 0 01-.46-1.12l3.726-13.807z" clip-rule="evenodd"/><path fill="#fff" d="M38.026 119.762l3.726-13.806a.4.4 0 01.585-.242l11.768 6.785a.8.8 0 01.373.898l-3.727 13.898a.4.4 0 01-.587.241l-11.77-6.877a.798.798 0 01-.368-.897z"/><path fill="#000" fill-rule="evenodd" d="M42.238 105.887a.2.2 0 00-.293.121l-3.726 13.806a.599.599 0 00.276.673l11.77 6.877a.2.2 0 00.294-.121l3.726-13.898a.598.598 0 00-.279-.673l-11.768-6.785zm-.678.017a.6.6 0 01.877-.363l11.769 6.785a.997.997 0 01.465 1.122l-3.727 13.898a.599.599 0 01-.88.362l-11.77-6.877a.996.996 0 01-.46-1.12l3.726-13.807z" clip-rule="evenodd"/><path fill="#000" d="M46.145 98.48l2.8-10.348a.4.4 0 01.585-.242l8.833 5.08c.314.18.467.549.373.898l-2.8 10.417a.4.4 0 01-.587.242l-8.835-5.149a.798.798 0 01-.37-.898z"/><path fill="#000" fill-rule="evenodd" d="M49.43 88.063a.2.2 0 00-.291.12l-2.8 10.35a.598.598 0 00.276.673l-.101.172.1-.172 8.836 5.148a.2.2 0 00.293-.12l2.8-10.417a.599.599 0 00-.28-.674l-8.832-5.08zm-.677.017a.599.599 0 01.877-.363l8.833 5.08a.997.997 0 01.466 1.123l-2.8 10.417a.599.599 0 01-.88.362l-8.836-5.149a.997.997 0 01-.46-1.122l2.8-10.348z" clip-rule="evenodd"/><path fill="#000" d="M40.024 118.963l2.8-10.348a.4.4 0 01.585-.242l8.833 5.08c.314.18.467.549.373.898l-2.8 10.418a.4.4 0 01-.587.241l-8.836-5.149a.797.797 0 01-.368-.898z"/><path fill="#000" fill-rule="evenodd" d="M43.309 108.546a.2.2 0 00-.293.121l-2.8 10.348a.599.599 0 00.276.674l-.1.172.1-.172 8.836 5.148a.199.199 0 00.293-.12l2.8-10.417a.598.598 0 00-.28-.674l-8.832-5.08zm-.678.017a.6.6 0 01.877-.363l8.833 5.08a.996.996 0 01.466 1.123l-2.8 10.417a.599.599 0 01-.88.362l-8.836-5.149a.997.997 0 01-.46-1.122l2.8-10.348z" clip-rule="evenodd"/><path fill="#F8F5EE" d="M53.988 90.454l4.375 2.516c.314.18.467.549.373.898l-.615 2.286-.773 2.879-.504 1.871a.799.799 0 01-1.172.483l-5.93-3.444a.798.798 0 01-.37-.898l.615-2.274 1.277-4.728a.799.799 0 011.17-.483l1.554.894z"/><path fill="#000" fill-rule="evenodd" d="M51.072 89.991a.998.998 0 011.461-.604l5.93 3.41a.997.997 0 01.466 1.123l-1.891 7.036a.998.998 0 01-1.466.604l-5.93-3.444a.997.997 0 01-.462-1.123l1.892-7.002zm1.262-.258a.599.599 0 00-.877.362l-1.891 7.002a.598.598 0 00.277.674l5.93 3.444a.6.6 0 00.879-.362l1.892-7.036a.598.598 0 00-.28-.674l-5.93-3.41z" clip-rule="evenodd"/><path fill="#DA6B5D" d="M47.866 110.937l4.375 2.516c.314.18.467.549.373.898l-.615 2.286-.774 2.879-.503 1.871a.798.798 0 01-1.172.483l-5.93-3.444a.797.797 0 01-.37-.898l.615-2.274 1.277-4.728a.798.798 0 011.17-.483l1.554.894z"/><path fill="#000" fill-rule="evenodd" d="M44.95 110.474a.998.998 0 011.461-.604l5.93 3.41a.996.996 0 01.466 1.123l-1.892 7.036a.998.998 0 01-1.465.604l-5.93-3.444a.998.998 0 01-.462-1.123l1.892-7.002zm1.262-.258a.599.599 0 00-.877.362l-1.892 7.002a.599.599 0 00.278.674l5.93 3.444a.6.6 0 00.879-.362l1.892-7.036a.598.598 0 00-.28-.674l-5.93-3.41z" clip-rule="evenodd"/><path fill="#fff" d="M50.403 78.93l3.726-13.808a.4.4 0 01.585-.241l11.768 6.785c.313.18.466.548.373.897l-3.727 13.898a.4.4 0 01-.587.242l-11.77-6.877a.798.798 0 01-.368-.897z"/><path fill="#000" fill-rule="evenodd" d="M54.615 65.053a.2.2 0 00-.293.121l-3.726 13.807a.6.6 0 00.276.673l11.77 6.876a.2.2 0 00.293-.12l3.727-13.898a.598.598 0 00-.28-.674l-11.767-6.784zm-.678.017a.599.599 0 01.877-.362l11.768 6.785a.997.997 0 01.466 1.122L63.32 86.513a.599.599 0 01-.88.362l-11.77-6.877a.997.997 0 01-.46-1.12l3.726-13.808z" clip-rule="evenodd"/><path fill="#000" d="M52.4 78.13l2.8-10.349a.4.4 0 01.585-.241l8.833 5.08c.314.18.467.549.373.898l-2.8 10.417a.4.4 0 01-.588.242l-8.835-5.15a.798.798 0 01-.368-.897z"/><path fill="#000" fill-rule="evenodd" d="M55.686 67.713a.2.2 0 00-.293.12l-2.8 10.35a.598.598 0 00.276.673l-.1.172.1-.172 8.836 5.148a.2.2 0 00.293-.12l2.8-10.418a.599.599 0 00-.28-.674l-8.832-5.08zm-.678.017a.599.599 0 01.877-.363l8.833 5.08a.997.997 0 01.466 1.123l-2.8 10.417a.599.599 0 01-.88.362L52.667 79.2a.997.997 0 01-.46-1.122l2.8-10.349z" clip-rule="evenodd"/><path fill="#D5DF95" d="M60.243 70.104l4.375 2.516c.314.18.467.549.373.898l-.615 2.286-.774 2.879-.503 1.871a.799.799 0 01-1.172.483l-5.93-3.444a.798.798 0 01-.37-.898l.615-2.274 1.277-4.728a.799.799 0 011.17-.483l1.554.894z"/><path fill="#000" fill-rule="evenodd" d="M57.327 69.641a.998.998 0 011.461-.605l5.93 3.41a.997.997 0 01.466 1.124l-1.892 7.036a.998.998 0 01-1.465.604l-5.93-3.445a.997.997 0 01-.462-1.122l1.892-7.002zm1.262-.259a.599.599 0 00-.877.363l-1.892 7.002a.598.598 0 00.278.673l5.93 3.445a.6.6 0 00.879-.363l1.891-7.036a.598.598 0 00-.28-.674l-5.929-3.41z" clip-rule="evenodd"/><path fill="#fff" d="M56.791 57.515l3.727-13.807a.4.4 0 01.585-.241L72.87 50.25c.313.181.466.55.372.898l-3.727 13.898a.4.4 0 01-.587.241l-11.77-6.876a.798.798 0 01-.368-.897z"/><path fill="#000" fill-rule="evenodd" d="M61.004 43.64a.2.2 0 00-.293.12l-3.727 13.807a.6.6 0 00.276.673l11.77 6.876a.2.2 0 00.294-.12l3.727-13.898a.598.598 0 00-.28-.674L61.005 43.64zm-.678.016a.599.599 0 01.877-.362l11.768 6.785a.997.997 0 01.465 1.122L69.71 65.099a.6.6 0 01-.881.362l-11.77-6.877a.997.997 0 01-.46-1.12l3.727-13.808z" clip-rule="evenodd"/><path fill="#000" d="M58.788 56.716l2.8-10.349a.4.4 0 01.585-.241l8.834 5.08c.313.18.466.549.372.898l-2.8 10.417a.4.4 0 01-.587.241l-8.835-5.148a.798.798 0 01-.368-.898z"/><path fill="#000" fill-rule="evenodd" d="M62.074 46.299a.2.2 0 00-.292.12l-2.8 10.35a.598.598 0 00.276.672l-.1.173.1-.173 8.835 5.149a.2.2 0 00.293-.12l2.801-10.418a.598.598 0 00-.28-.674l-8.833-5.08zm-.677.016a.6.6 0 01.877-.362l8.832 5.08a.997.997 0 01.467 1.123l-2.8 10.417a.599.599 0 01-.88.362l-8.836-5.149a.997.997 0 01-.46-1.122l2.8-10.349z" clip-rule="evenodd"/><path fill="#74CB91" d="M66.632 48.69l4.374 2.515c.314.18.467.55.373.899l-.614 2.286-.774 2.878-.774 2.879-6.831-3.968a.798.798 0 01-.37-.898l.614-2.274 1.548-5.729 2.454 1.411z"/><path fill="#000" fill-rule="evenodd" d="M64.053 46.976l7.054 4.056a.997.997 0 01.466 1.124l-2.23 8.294-7.057-4.099a.997.997 0 01-.462-1.122l2.23-8.253zm.25.605l-2.094 7.752a.598.598 0 00.277.673l6.607 3.837 2.094-7.79a.598.598 0 00-.28-.675l-6.603-3.797z" clip-rule="evenodd"/><path fill="#E6E6E6" d="M71.05 9.826L68.196 20.69a13.297 13.297 0 006.205 14.89l20.985 12.14c7.319 4.235 16.682.663 19.316-7.368l1.493-4.552L71.051 9.826z"/><path fill="#000" fill-rule="evenodd" d="M70.923 9.522l45.51 26.187-1.543 4.706c-2.673 8.152-12.177 11.777-19.605 7.48L74.299 35.752a13.497 13.497 0 01-6.297-15.113l2.921-11.118zm.254.607l-2.789 10.613a13.098 13.098 0 006.111 14.665L95.485 47.55c7.209 4.171 16.431.653 19.026-7.258l1.442-4.398L71.177 10.13z" clip-rule="evenodd"/><path fill="#F8F8F8" d="M100.242 41.617L76.875 28.02a2.66 2.66 0 01-1.237-2.964l1.222-4.726 28.327 16.533-1.076 3.283a2.662 2.662 0 01-3.869 1.471z"/><path fill="#000" fill-rule="evenodd" d="M76.732 20.025l28.694 16.747-1.125 3.436a2.863 2.863 0 01-4.16 1.582L76.774 28.193a2.86 2.86 0 01-1.33-3.187l1.288-4.981zm.255.61l-1.157 4.47a2.46 2.46 0 001.145 2.743l23.367 13.597a2.463 2.463 0 003.579-1.36l1.025-3.13-27.96-16.32zM93.83 136.826l-39.55-22.819.2-.346 39.55 22.819-.2.346zm-1.287 4.495l-39.549-22.819.2-.346 39.549 22.82-.2.345zm-.898 3.853l-39.55-22.82.2-.345 39.55 22.819-.2.346zm-1.286 4.495l-39.55-22.82.2-.345 39.55 22.819-.2.346zm9.591-32.927l-39.549-22.82.2-.345 39.549 22.819-.2.346zm-1.285 4.495l-39.549-22.82.2-.345 39.549 22.82-.2.345zm-.898 3.853l-39.55-22.819.2-.346 39.55 22.819-.2.346zm-1.286 4.495l-39.55-22.82.2-.345 39.55 22.819-.2.346zm9.858-33.858L66.79 72.907l.2-.345 39.549 22.82-.2.345zm-1.286 4.495l-39.55-22.82.2-.345 39.55 22.82-.2.345zm-.899 3.853l-39.55-22.82.2-.345 39.549 22.819-.199.346zm-1.285 4.495L63.32 85.75l.2-.345 39.549 22.819-.199.346zm9.726-33.592l-39.55-22.82.2-.345 39.55 22.82-.2.345zm-1.286 4.495l-39.55-22.82.2-.345 39.55 22.82-.2.345zm-.899 3.853l-39.55-22.82.2-.345 39.55 22.819-.199.346zm-1.286 4.494L69.576 65.001l.2-.346 39.549 22.82-.2.345z" clip-rule="evenodd"/><path fill="#000" d="M36.965 199.747L5.048 144.449a4.51 4.51 0 012.413-6.511 4.516 4.516 0 015.38 1.949l33.292 55.912c.2.334.322.708.361 1.094l.691 6.882c.11 1.088-1.069 1.835-2.008 1.274l-7.273-4.348a2.662 2.662 0 01-.94-.954z"/><path fill="#000" fill-rule="evenodd" d="M7.395 137.749a4.717 4.717 0 015.617 2.036l33.293 55.912c.214.359.347.761.388 1.177l.691 6.881c.126 1.251-1.229 2.111-2.309 1.465l-7.273-4.347a2.87 2.87 0 01-1.01-1.026L4.876 144.549c-1.475-2.555-.265-5.821 2.52-6.8zm5.274 2.24a4.317 4.317 0 00-5.141-1.863 4.312 4.312 0 00-2.306 6.223l31.916 55.299c.21.363.509.667.869.882l7.274 4.348c.797.477 1.799-.159 1.706-1.083l-.69-6.882a2.46 2.46 0 00-.335-1.012L12.67 139.989z" clip-rule="evenodd"/><path fill="#fff" d="M33.12 200.719L.81 144.547a4.57 4.57 0 012.442-6.587 4.575 4.575 0 015.455 1.978l33.689 56.772c.198.333.32.706.36 1.092l.703 7.033c.109 1.089-1.07 1.836-2.01 1.273l-7.392-4.434a2.667 2.667 0 01-.938-.955z"/><path fill="#000" fill-rule="evenodd" d="M3.186 137.772a4.775 4.775 0 015.693 2.065l33.69 56.771c.212.358.344.759.385 1.174l.704 7.033c.125 1.252-1.231 2.111-2.31 1.464l-7.393-4.434a2.859 2.859 0 01-1.008-1.027L.637 144.646a4.768 4.768 0 012.549-6.874zm5.35 2.268a4.373 4.373 0 00-5.217-1.891 4.368 4.368 0 00-2.336 6.298l32.31 56.172c.209.364.508.668.867.884l7.393 4.434c.798.478 1.8-.157 1.708-1.082l-.704-7.033a2.464 2.464 0 00-.332-1.011L8.535 140.04z" clip-rule="evenodd"/><path fill="#000" fill-rule="evenodd" d="M41.996 196.47c-3.388-4.018-9.874-.646-8.527 4.432l-.386.103c-1.456-5.491 5.555-9.136 9.218-4.792l.244.289-.305.257-.244-.289z" clip-rule="evenodd"/></svg>