<svg fill="none" viewBox="0 0 131 126"><g filter="url(#filter0_d_1870_48782)"><ellipse cx="58.875" cy="58.273" fill="#FFE7D3" rx="50.152" ry="50"/></g><g filter="url(#filter1_d_1870_48782)"><ellipse cx="58.875" cy="58.273" fill="#82A5FF" rx="50.152" ry="50"/></g><g fill-rule="evenodd" clip-rule="evenodd" filter="url(#filter2_d_1870_48782)"><path fill="#F2F5F7" d="M58.875 8.766C31.45 8.766 9.218 30.93 9.218 58.273S31.45 107.78 58.875 107.78c27.425 0 49.658-22.165 49.658-49.507S86.3 8.766 58.875 8.766zM1.43 58.273C1.429 26.642 27.149 1 58.875 1c31.727 0 57.447 25.642 57.447 57.273 0 31.63-25.72 57.272-57.447 57.272-31.727 0-57.446-25.641-57.446-57.272z"/><path stroke="#000" d="M58.875 8.766C31.45 8.766 9.218 30.93 9.218 58.273S31.45 107.78 58.875 107.78c27.425 0 49.658-22.165 49.658-49.507S86.3 8.766 58.875 8.766zM1.43 58.273C1.429 26.642 27.149 1 58.875 1c31.727 0 57.447 25.642 57.447 57.273 0 31.63-25.72 57.272-57.447 57.272-31.727 0-57.446-25.641-57.446-57.272z"/></g><g filter="url(#filter3_d_1870_48782)"><path fill="#fff" d="M107.797 118.993L97.196 87.898c-.109-.318.193-.623.505-.51l30.34 10.985a.405.405 0 01.041.74l-10.877 5.425a.143.143 0 00-.037.227l12.19 12.422a2.264 2.264 0 010 3.159 2.164 2.164 0 01-3.1 0l-12.19-12.422a.138.138 0 00-.223.038l-5.321 11.075a.392.392 0 01-.727-.044z"/><path stroke="#182026" d="M107.324 119.154L96.723 88.06c-.237-.694.42-1.406 1.148-1.142m9.453 32.236l-9.453-32.236m9.453 32.236c.258.758 1.301.827 1.651.1l5.097-10.611 11.829 12.053a2.664 2.664 0 003.814 0 2.764 2.764 0 000-3.86l-11.846-12.07 10.437-5.206c.704-.352.651-1.388-.095-1.657l-30.34-10.986m9.453 32.237l-9.453-32.236"/></g><path fill="#FFCF55" stroke="#000" d="M63.7 79.932c.872-.002 1.233-1.12.526-1.63l-3.527-2.542 1.336-4.132c.268-.829-.682-1.515-1.387-1.002l-3.519 2.561-3.53-2.544c-.706-.51-1.654.183-1.382 1.011l1.354 4.124-3.515 2.558c-.706.513-.342 1.628.53 1.626l4.356-.01 1.356 4.128c.272.827 1.444.823 1.712-.006l1.337-4.132 4.352-.01zm-6.63-6.702h.001zm-3.44 2.505h0zm1.29 4.148h0zm8.78-36.506c.872-.002 1.233-1.12.526-1.63l-3.527-2.542 1.336-4.132c.268-.83-.682-1.515-1.387-1.002l-3.519 2.561-3.53-2.544c-.706-.51-1.654.183-1.382 1.011l1.354 4.123-3.515 2.559c-.706.513-.342 1.628.53 1.626l4.356-.01 1.356 4.128c.272.827 1.444.823 1.712-.006l1.337-4.132 4.352-.01zm-6.63-6.702h.001zm-3.44 2.504h0zm1.29 4.149h0zM36.367 83.462c.27.828 1.442.828 1.711 0l1.278-3.92h4.133c.872 0 1.235-1.118.528-1.63l-3.341-2.42 1.276-3.917c.27-.829-.677-1.519-1.383-1.008l-3.346 2.424-3.346-2.424c-.706-.51-1.654.18-1.384 1.008l1.277 3.917-3.342 2.42c-.706.512-.344 1.63.528 1.63h4.133l1.278 3.92zm4.286-7.9h0zm-3.489-2.528s0 0 0 0h0zm-.797-26.127c.27.828 1.442.828 1.711 0l1.278-3.92h4.133c.872 0 1.235-1.118.528-1.63l-3.341-2.42 1.276-3.917c.27-.829-.677-1.519-1.383-1.008l-3.346 2.424-3.346-2.424c-.706-.511-1.654.18-1.384 1.008l1.277 3.917-3.342 2.42c-.706.512-.344 1.63.528 1.63h4.133l1.278 3.92zm4.286-7.9h0zm-3.489-2.529s0 0 0 0h0zm40.137 46.984c.27.828 1.441.828 1.711 0l1.278-3.92h4.133c.872 0 1.234-1.118.528-1.63l-3.341-2.42 1.276-3.917c.27-.829-.677-1.519-1.383-1.008l-3.346 2.424-3.346-2.424c-.706-.51-1.654.18-1.384 1.008l1.276 3.917-3.34 2.42c-.707.512-.345 1.63.527 1.63h4.133l1.278 3.92zm4.286-7.9h0zm-3.49-2.528h.001zm-.796-26.127c.27.828 1.441.828 1.711 0l1.278-3.92h4.133c.872 0 1.234-1.118.528-1.63l-3.341-2.42 1.276-3.917c.27-.829-.677-1.519-1.383-1.008l-3.346 2.424-3.346-2.424c-.706-.511-1.654.18-1.384 1.008l1.276 3.917-3.34 2.42c-.707.512-.345 1.63.527 1.63h4.133l1.278 3.92zm4.286-7.9h0zm-3.49-2.529h.001zm-7.192 14.625c-.27-.828-1.441-.828-1.711 0l-1.278 3.92h-4.133c-.872 0-1.234 1.118-.528 1.63l3.341 2.42-1.276 3.917c-.27.829.678 1.519 1.383 1.008l3.346-2.424 3.346 2.424c.706.51 1.654-.18 1.384-1.008l-1.276-3.917 3.34-2.42c.707-.512.345-1.63-.527-1.63h-4.133l-1.278-3.92zm-4.286 7.9h0zm3.49 2.528h-.001 0zM50.744 51.103c-.27-.828-1.441-.828-1.711 0l-1.278 3.92h-4.133c-.872 0-1.234 1.118-.528 1.63l3.341 2.42-1.276 3.917c-.27.829.678 1.519 1.383 1.008l3.346-2.424 3.347 2.424c.706.51 1.653-.18 1.383-1.008l-1.276-3.917 3.34-2.42c.707-.512.345-1.63-.527-1.63h-4.133l-1.278-3.92zm-4.286 7.9h0zm3.49 2.528h-.001 0zm-26.536-6.898c-.873.002-1.234 1.12-.527 1.63l3.528 2.542-1.336 4.132c-.268.829.68 1.515 1.386 1.002l3.519-2.561 3.53 2.544c.707.51 1.655-.183 1.383-1.011l-1.355-4.123 3.515-2.559c.706-.513.342-1.628-.53-1.626l-4.356.01-1.356-4.128c-.271-.827-1.444-.823-1.712.006l-1.336 4.132-4.353.01zm10.07 4.197h0zm50.113-4.197c-.874.002-1.235 1.12-.527 1.63l3.527 2.542-1.336 4.132c-.268.829.681 1.515 1.386 1.002l3.52-2.561 3.529 2.544c.707.51 1.655-.183 1.383-1.011l-1.354-4.123 3.514-2.559c.706-.513.343-1.628-.53-1.626l-4.356.01-1.356-4.128c-.271-.827-1.444-.823-1.712.006l-1.336 4.132-4.352.01zm10.069 4.197h0z"/><defs><filter id="filter0_d_1870_48782" width="100.304" height="104" x="8.723" y="8.273" color-interpolation-filters="sRGB" filterUnits="userSpaceOnUse"><feFlood flood-opacity="0" result="BackgroundImageFix"/><feColorMatrix in="SourceAlpha" result="hardAlpha" values="0 0 0 0 0 0 0 0 0 0 0 0 0 0 0 0 0 0 127 0"/><feOffset dy="4"/><feComposite in2="hardAlpha" operator="out"/><feColorMatrix values="0 0 0 0 0 0 0 0 0 0 0 0 0 0 0 0 0 0 1 0"/><feBlend in2="BackgroundImageFix" result="effect1_dropShadow_1870_48782"/><feBlend in="SourceGraphic" in2="effect1_dropShadow_1870_48782" result="shape"/></filter><filter id="filter1_d_1870_48782" width="100.304" height="104" x="8.723" y="8.273" color-interpolation-filters="sRGB" filterUnits="userSpaceOnUse"><feFlood flood-opacity="0" result="BackgroundImageFix"/><feColorMatrix in="SourceAlpha" result="hardAlpha" values="0 0 0 0 0 0 0 0 0 0 0 0 0 0 0 0 0 0 127 0"/><feOffset dy="4"/><feComposite in2="hardAlpha" operator="out"/><feColorMatrix values="0 0 0 0 0 0 0 0 0 0 0 0 0 0 0 0 0 0 1 0"/><feBlend in2="BackgroundImageFix" result="effect1_dropShadow_1870_48782"/><feBlend in="SourceGraphic" in2="effect1_dropShadow_1870_48782" result="shape"/></filter><filter id="filter2_d_1870_48782" width="115.894" height="119.545" x=".929" y=".5" color-interpolation-filters="sRGB" filterUnits="userSpaceOnUse"><feFlood flood-opacity="0" result="BackgroundImageFix"/><feColorMatrix in="SourceAlpha" result="hardAlpha" values="0 0 0 0 0 0 0 0 0 0 0 0 0 0 0 0 0 0 127 0"/><feOffset dy="4"/><feComposite in2="hardAlpha" operator="out"/><feColorMatrix values="0 0 0 0 0 0 0 0 0 0 0 0 0 0 0 0 0 0 1 0"/><feBlend in2="BackgroundImageFix" result="effect1_dropShadow_1870_48782"/><feBlend in="SourceGraphic" in2="effect1_dropShadow_1870_48782" result="shape"/></filter><filter id="filter3_d_1870_48782" width="34.826" height="39.641" x="96.174" y="86.359" color-interpolation-filters="sRGB" filterUnits="userSpaceOnUse"><feFlood flood-opacity="0" result="BackgroundImageFix"/><feColorMatrix in="SourceAlpha" result="hardAlpha" values="0 0 0 0 0 0 0 0 0 0 0 0 0 0 0 0 0 0 127 0"/><feOffset dy="4"/><feComposite in2="hardAlpha" operator="out"/><feColorMatrix values="0 0 0 0 0 0 0 0 0 0 0 0 0 0 0 0 0 0 1 0"/><feBlend in2="BackgroundImageFix" result="effect1_dropShadow_1870_48782"/><feBlend in="SourceGraphic" in2="effect1_dropShadow_1870_48782" result="shape"/></filter></defs></svg>