<svg fill="none" viewBox="0 0 34 16"><path fill="#000" fill-rule="evenodd" d="M19.296 1.8a3.004 3.004 0 00-2.519-.159L10.03 4.265H7.706v6.466h3.833a2.81 2.81 0 001.035-.198l3.452-1.37h3.227a2.658 2.658 0 002.616-2.187h-7.142a.718.718 0 010-1.437h2.971v-1.47c0-.685.556-1.24 1.241-1.24h2.259l-1.902-1.03zm4.92 1.029L19.98.536a4.44 4.44 0 00-3.724-.234L9.76 2.829H7.706v-.196c0-.794-.643-1.437-1.436-1.437H1.437C.643 1.196 0 1.839 0 2.633v10.22c0 .794.643 1.437 1.437 1.437H6.27c.793 0 1.436-.643 1.436-1.437v-.685h3.833c.536 0 1.067-.102 1.565-.3L16.3 10.6h1.397V16h15.674V4.07a1.24 1.24 0 00-1.24-1.241h-7.917zm-5.08 7.771v3.963h12.8V4.265h-12.8V5.54h3.244c.534 0 .967.433.967.967a4.094 4.094 0 01-4.094 4.094h-.118zM6.27 2.633H1.437v10.22H6.27V2.633z" clip-rule="evenodd"/></svg>