<svg fill="none" viewBox="0 0 36 20"><path fill="#000" fill-rule="evenodd" d="M19.408 6.395a5.503 5.503 0 1110.913-.418 5.63 5.63 0 011.305-.573c.514-.147 1.252-.259 1.88.088l.015.008h.002c.217.12.475.263.704.424.232.163.496.386.674.694.194.337.26.733.149 1.156-.102.392-.343.763-.67 1.124-.497.549-1.664 1.572-2.873 2.593a187.43 187.43 0 01-3.385 2.787c-.506.418-1.392 1.018-2.464 1.516-1.071.499-2.38.92-3.714.92h-.102c-1.394 0-2.334 0-3.166-.212-.888-.226-1.613-.68-2.653-1.444-.361-.266-.651-.488-.877-.66v-.001l-.258-.196a7.246 7.246 0 00-.235-.171c.058.798-.32 1.615-1.072 2.002l-7.323 3.766c-.976.502-2.077.024-2.52-.928L.594 12.103c-.457-.983-.115-2.248.882-2.758L8.8 5.6c.952-.487 2.02-.043 2.482.862l2.042-1.458.032-.018a5.601 5.601 0 011.85-.596c.763-.107 1.675-.072 2.54.349.44.214.73.578.918.833.193.262.449.557.744.823zm1.41-.892a4.021 4.021 0 117.47 2.068l-1.327 1.051a2.055 2.055 0 00-.863-1.276 2.583 2.583 0 00-1.408-.429h-.022l-3.495.241a4.008 4.008 0 01-.355-1.655zm-5.412.334c.577-.081 1.178-.04 1.708.217.1.05.213.156.384.389.324.439.799.97 1.38 1.398.576.425 1.316.79 2.15.79h.022l3.66-.252c.161.004.397.056.574.177a.597.597 0 01.196.21c.05.093.086.22.086.397v.042l.006.053c.021.163.011.424-.076.66a.832.832 0 01-.225.345.886.886 0 01-.465.2c-1.277.201-3.882.588-5.027.756l-.095.014.21 1.446.095-.014c1.144-.168 3.756-.556 5.042-.759.913-.144 1.457-.68 1.739-1.273l4.287-3.396c.225-.138.591-.32.966-.427.21-.06.381-.085.514-.086a.57.57 0 01.271.049c.237.13.43.238.588.349.161.113.226.19.249.23a.112.112 0 01.007.013c0 .001 0 .01-.006.038-.02.074-.093.24-.339.51-.418.462-1.501 1.418-2.734 2.46a186.012 186.012 0 01-3.36 2.766l-.005.003v.001l-.004.003c-.41.34-1.193.875-2.155 1.322-.965.449-2.059.785-3.105.785-1.525 0-2.276-.005-2.911-.167-.6-.152-1.133-.457-2.153-1.207a49.45 49.45 0 01-.841-.634l-.28-.213c-.239-.18-.49-.367-.745-.46a1.143 1.143 0 00-.496-.068 1.289 1.289 0 00-.374.094L11.91 7.805l2.179-1.556a4.213 4.213 0 011.317-.412zM9.458 6.903c.164-.084.409-.041.542.245l3.144 6.746c.161.346.002.721-.223.837l-7.324 3.766c-.164.084-.41.041-.543-.246l-3.145-6.767c-.16-.346 0-.721.225-.836l7.324-3.745z" clip-rule="evenodd"/></svg>