<svg fill="none" viewBox="0 0 32 30"><path fill="#1C2B36" fill-rule="evenodd" d="M29.12 24.125L17.43 3.875c-.77-1.333-2.695-1.333-3.465 0L2.274 24.125c-.77 1.333.192 3 1.732 3h23.383c1.54 0 2.502-1.667 1.732-3zm-9.959-21.25c-1.54-2.667-5.388-2.667-6.928 0L.542 23.125c-1.54 2.667.385 6 3.464 6h23.383c3.079 0 5.003-3.333 3.464-6L19.16 2.875z" clip-rule="evenodd"/><path fill="#1C2B36" fill-rule="evenodd" d="M14.697 19.875v-11h2v11h-2z" clip-rule="evenodd"/><path fill="#1C2B36" d="M17.197 23.375a1.5 1.5 0 11-3 0 1.5 1.5 0 013 0z"/><path fill="#1C2B36" fill-rule="evenodd" d="M15.697 22.875a.5.5 0 100 1 .5.5 0 000-1zm0 2a1.5 1.5 0 100-3 1.5 1.5 0 000 3z" clip-rule="evenodd"/></svg>