<svg width="90" height="154" viewBox="0 0 90 154" fill="none" xmlns="http://www.w3.org/2000/svg">
<path d="M6.45117 62.6132C-1.32811 58.1222 -1.32813 50.8409 6.45115 46.3499C14.2304 41.8589 26.8431 41.8589 34.6224 46.3499L83.598 74.6235C91.3773 79.1145 91.3773 86.3958 83.598 90.8868C75.8187 95.3778 63.206 95.3778 55.4267 90.8868L6.45117 62.6132Z" fill="#D9D9D9"/>
<path d="M89.3318 141.21V84.4204C89.9085 81.1053 87.9964 77.6731 83.5975 75.1335L34.6222 46.8601C26.8418 42.3689 14.2301 42.3689 6.45091 46.8601C2.4915 49.1459 0.546129 52.1544 0.617078 55.15L0.567871 55.1337V113.724L0.625088 113.742C0.464881 116.801 2.40682 119.889 6.45091 122.223L55.4262 150.497C63.2054 154.988 75.8183 154.988 83.5975 150.497C87.9964 147.957 89.9085 144.525 89.3318 141.21Z" fill="#989898"/>
<path d="M89.3318 141.21V84.4204C89.9085 81.1053 87.9964 77.6731 83.5975 75.1335L34.6222 46.8601C26.8418 42.3689 14.2301 42.3689 6.45091 46.8601C2.4915 49.1459 0.546129 52.1544 0.617078 55.15L0.567871 55.1337V113.724L0.625088 113.742C0.464881 116.801 2.40682 119.889 6.45091 122.223L55.4262 150.497C63.2054 154.988 75.8183 154.988 83.5975 150.497C87.9964 147.957 89.9085 144.525 89.3318 141.21Z" fill="url(#paint0_linear_9709_74085)"/>
<path d="M6.45117 62.6132C-1.32811 58.1222 -1.32813 50.8409 6.45115 46.3499C14.2304 41.8589 26.8431 41.8589 34.6224 46.3499L83.598 74.6235C91.3773 79.1145 91.3773 86.3958 83.598 90.8868C75.8187 95.3778 63.206 95.3778 55.4267 90.8868L6.45117 62.6132Z" fill="#E6E6E6"/>
<path d="M6.45117 62.6132C-1.32811 58.1222 -1.32813 50.8409 6.45115 46.3499C14.2304 41.8589 26.8431 41.8589 34.6224 46.3499L83.598 74.6235C91.3773 79.1145 91.3773 86.3958 83.598 90.8868C75.8187 95.3778 63.206 95.3778 55.4267 90.8868L6.45117 62.6132Z" fill="url(#paint1_linear_9709_74085)"/>
<path d="M6.45117 62.6132C-1.32811 58.1222 -1.32813 50.8409 6.45115 46.3499C14.2304 41.8589 26.8431 41.8589 34.6224 46.3499L83.598 74.6235C91.3773 79.1145 91.3773 86.3958 83.598 90.8868C75.8187 95.3778 63.206 95.3778 55.4267 90.8868L6.45117 62.6132Z" fill="#3E4852" fill-opacity="0.05"/>
<path d="M6.45041 62.6134C2.66894 60.4304 0.725622 57.588 0.620447 54.7273C0.614864 54.8682 0.613741 55.0091 0.617078 55.15L0.567871 55.1337V113.724L0.625088 113.742C0.464881 116.801 2.40682 119.889 6.45091 122.223L55.4262 150.497C60.6569 153.516 68.073 154.506 74.7356 153.464C76.9539 151.098 78.3485 147.896 78.3198 144.228L77.9194 93.1841C70.5475 95.1645 61.509 94.3988 55.426 90.887L6.45041 62.6134Z" fill="#CCCCCC"/>
<path d="M6.45041 62.6134C2.66894 60.4304 0.725622 57.588 0.620447 54.7273C0.614864 54.8682 0.613741 55.0091 0.617078 55.15L0.567871 55.1337V113.724L0.625088 113.742C0.464881 116.801 2.40682 119.889 6.45091 122.223L55.4262 150.497C60.6569 153.516 68.073 154.506 74.7356 153.464C76.9539 151.098 78.3485 147.896 78.3198 144.228L77.9194 93.1841C70.5475 95.1645 61.509 94.3988 55.426 90.887L6.45041 62.6134Z" fill="url(#paint2_linear_9709_74085)"/>
<path d="M6.45041 62.6134C2.66894 60.4304 0.725622 57.588 0.620447 54.7273C0.614864 54.8682 0.613741 55.0091 0.617078 55.15L0.567871 55.1337V113.724L0.625088 113.742C0.464881 116.801 2.40682 119.889 6.45091 122.223L55.4262 150.497C60.6569 153.516 68.073 154.506 74.7356 153.464C76.9539 151.098 78.3485 147.896 78.3198 144.228L77.9194 93.1841C70.5475 95.1645 61.509 94.3988 55.426 90.887L6.45041 62.6134Z" fill="url(#paint3_linear_9709_74085)"/>
<path d="M6.45041 62.6134C2.66894 60.4304 0.725622 57.588 0.620447 54.7273C0.614864 54.8682 0.613741 55.0091 0.617078 55.15L0.567871 55.1337V113.724L0.625088 113.742C0.464881 116.801 2.40682 119.889 6.45091 122.223L55.4262 150.497C60.6569 153.516 68.073 154.506 74.7356 153.464C76.9539 151.098 78.3485 147.896 78.3198 144.228L77.9194 93.1841C70.5475 95.1645 61.509 94.3988 55.426 90.887L6.45041 62.6134Z" fill="white" fill-opacity="0.2"/>
<path opacity="0.5" d="M24.6075 93.5824C24.6076 97.2303 26.2586 101.386 28.7448 104.637L27.8947 117.697L35.9036 122.321L36.1207 125.903L24.9469 119.451L25.797 106.391C23.3108 103.14 21.6598 98.9845 21.6597 95.3367C21.6595 91.6562 23.3399 89.3993 25.8631 89.0496C25.0657 90.1263 24.6074 91.6602 24.6075 93.5824Z" fill="#D9D9D9"/>
<path opacity="0.5" d="M25.7969 106.392C23.3107 103.141 21.6597 98.9849 21.6596 95.337C21.6593 89.6781 25.6319 87.3846 30.5325 90.2142C35.4331 93.0438 39.4059 99.925 39.4061 105.584C39.4063 109.232 37.7555 111.481 35.2695 111.861L36.1206 125.903L24.9468 119.451L25.7969 106.392Z" fill="#D9D9D9"/>
<path d="M24.6089 93.5828C24.609 97.2306 26.26 101.387 28.7462 104.638L27.8961 117.697L35.905 122.321L35.271 111.861C37.757 111.481 39.4078 109.232 39.4077 105.584C39.4074 99.9251 35.4346 93.0439 30.534 90.2143C28.8207 89.225 27.2208 88.8619 25.8645 89.0499C25.0671 90.1266 24.6088 91.6605 24.6089 93.5828Z" fill="#333333"/>
<path d="M24.6089 93.5828C24.609 97.2306 26.26 101.387 28.7462 104.638L27.8961 117.697L35.905 122.321L35.271 111.861C37.757 111.481 39.4078 109.232 39.4077 105.584C39.4074 99.9251 35.4346 93.0439 30.534 90.2143C28.8207 89.225 27.2208 88.8619 25.8645 89.0499C25.0671 90.1266 24.6088 91.6605 24.6089 93.5828Z" fill="url(#paint4_linear_9709_74085)"/>
<path d="M24.6089 93.5828C24.609 97.2306 26.26 101.387 28.7462 104.638L27.8961 117.697L35.905 122.321L35.271 111.861C37.757 111.481 39.4078 109.232 39.4077 105.584C39.4074 99.9251 35.4346 93.0439 30.534 90.2143C28.8207 89.225 27.2208 88.8619 25.8645 89.0499C25.0671 90.1266 24.6088 91.6605 24.6089 93.5828Z" fill="#3E4852" fill-opacity="0.38"/>
<g opacity="0.5">
<path d="M24.6075 93.5824C24.6076 97.2303 26.2586 101.386 28.7448 104.637L27.8947 117.697L35.9036 122.321L36.1207 125.903L24.9469 119.451L25.797 106.391C23.3108 103.14 21.6598 98.9845 21.6597 95.3367C21.6595 91.6562 23.3399 89.3993 25.8631 89.0496C25.0657 90.1263 24.6074 91.6602 24.6075 93.5824Z" fill="#E7E7E7"/>
<path d="M24.6075 93.5824C24.6076 97.2303 26.2586 101.386 28.7448 104.637L27.8947 117.697L35.9036 122.321L36.1207 125.903L24.9469 119.451L25.797 106.391C23.3108 103.14 21.6598 98.9845 21.6597 95.3367C21.6595 91.6562 23.3399 89.3993 25.8631 89.0496C25.0657 90.1263 24.6074 91.6602 24.6075 93.5824Z" fill="url(#paint5_linear_9709_74085)"/>
</g>
<path d="M24.6075 93.5824C24.6076 97.2303 26.2586 101.386 28.7448 104.637L27.5187 109.702L26.6398 111.46L25.797 106.391C23.3108 103.14 21.6598 98.9845 21.6597 95.3367C21.6595 91.6562 23.3399 89.3993 25.8631 89.0496C25.0657 90.1263 24.6074 91.6602 24.6075 93.5824Z" fill="#7C7C7C"/>
<path d="M24.6075 93.5824C24.6076 97.2303 26.2586 101.386 28.7448 104.637L27.5187 109.702L26.6398 111.46L25.797 106.391C23.3108 103.14 21.6598 98.9845 21.6597 95.3367C21.6595 91.6562 23.3399 89.3993 25.8631 89.0496C25.0657 90.1263 24.6074 91.6602 24.6075 93.5824Z" fill="url(#paint6_linear_9709_74085)"/>
<path d="M24.9487 119.448L25.7958 106.434L28.7464 104.638L27.8975 117.678L24.9487 119.448Z" fill="#9B9B9B"/>
<path d="M24.9487 119.448L25.7958 106.434L28.7464 104.638L27.8975 117.678L24.9487 119.448Z" fill="url(#paint7_linear_9709_74085)"/>
<path d="M24.9487 119.448L25.7958 106.434L28.7464 104.638L27.8975 117.678L24.9487 119.448Z" fill="#3E4852" fill-opacity="0.08"/>
<path d="M37.4119 47.9612L83.5967 74.6237C88.3899 77.3908 90.2297 81.2173 89.1163 84.7977H69.9965L65.0163 70.736C62.6727 69.2713 55.9349 65.2872 47.7323 61.0687C39.5297 56.8502 27.3234 56.9674 22.2456 57.5533L28.9835 47.0071L37.4119 47.9612Z" fill="#A8A8A8"/>
<path d="M37.4119 47.9612L83.5967 74.6237C88.3899 77.3908 90.2297 81.2173 89.1163 84.7977H69.9965L65.0163 70.736C62.6727 69.2713 55.9349 65.2872 47.7323 61.0687C39.5297 56.8502 27.3234 56.9674 22.2456 57.5533L28.9835 47.0071L37.4119 47.9612Z" fill="url(#paint8_linear_9709_74085)"/>
<path d="M37.4119 47.9612L83.5967 74.6237C88.3899 77.3908 90.2297 81.2173 89.1163 84.7977H69.9965L65.0163 70.736C62.6727 69.2713 55.9349 65.2872 47.7323 61.0687C39.5297 56.8502 27.3234 56.9674 22.2456 57.5533L28.9835 47.0071L37.4119 47.9612Z" fill="#3E4852" fill-opacity="0.08"/>
<path d="M58.9887 53.8126V75.5751C58.9887 80.7358 63.2049 84.9182 68.4073 84.9182H69.5727C74.7751 84.9182 78.9913 80.7358 78.9913 75.5751V56.8717C78.9113 48.9814 77.4416 38.227 71.4547 27.3742C69.7118 24.2167 56.8058 1.53102 36.7961 0.238686C34.0862 0.0644204 26.833 -0.40489 20.2965 4.1036C19.5903 4.59016 16.0281 7.11271 13.3303 11.8334C12.0189 14.1265 10.8309 17.0838 10.0308 23.5627V48.4155C10.0308 53.6003 14.2679 57.8051 19.4964 57.8051H20.9001C26.1268 57.8051 30.3657 53.6021 30.3657 48.4155V25.4348C30.3657 25.4348 30.4335 21.6424 32.7225 20.5778C33.667 20.1395 34.6323 20.3259 35.2829 20.4881C40.5114 21.7925 44.7067 25.9766 44.7067 25.9766C48.3368 29.5982 53.7393 35.1109 57.171 44.6127C57.5119 45.5582 57.8024 46.452 58.0477 47.2802C58.6756 49.4024 58.9921 51.6006 58.9921 53.8126H58.9887Z" fill="#989898"/>
<path d="M58.9887 53.8126V75.5751C58.9887 80.7358 63.2049 84.9182 68.4073 84.9182H69.5727C74.7751 84.9182 78.9913 80.7358 78.9913 75.5751V56.8717C78.9113 48.9814 77.4416 38.227 71.4547 27.3742C69.7118 24.2167 56.8058 1.53102 36.7961 0.238686C34.0862 0.0644204 26.833 -0.40489 20.2965 4.1036C19.5903 4.59016 16.0281 7.11271 13.3303 11.8334C12.0189 14.1265 10.8309 17.0838 10.0308 23.5627V48.4155C10.0308 53.6003 14.2679 57.8051 19.4964 57.8051H20.9001C26.1268 57.8051 30.3657 53.6021 30.3657 48.4155V25.4348C30.3657 25.4348 30.4335 21.6424 32.7225 20.5778C33.667 20.1395 34.6323 20.3259 35.2829 20.4881C40.5114 21.7925 44.7067 25.9766 44.7067 25.9766C48.3368 29.5982 53.7393 35.1109 57.171 44.6127C57.5119 45.5582 57.8024 46.452 58.0477 47.2802C58.6756 49.4024 58.9921 51.6006 58.9921 53.8126H58.9887Z" fill="url(#paint9_linear_9709_74085)"/>
<path d="M58.9887 75.5751V53.8126H58.9921C58.9921 51.6006 58.6756 49.4024 58.0477 47.2802C57.8024 46.452 57.5119 45.5582 57.171 44.6127C53.7392 35.1109 48.3368 29.5982 44.7067 25.9766C44.7067 25.9766 40.5114 21.7925 35.2829 20.4881C34.6323 20.3259 33.667 20.1395 32.7225 20.5778C30.4335 21.6424 30.3657 25.4348 30.3657 25.4348V48.4155C30.3657 53.6021 26.1268 57.8051 20.9001 57.8051H19.4964C14.2679 57.8051 10.0308 53.6003 10.0308 48.4155V23.5627C10.8309 17.0838 12.0189 14.1265 13.3303 11.8334C16.0281 7.11271 19.5903 4.59016 20.2965 4.1036C26.8292 -0.402256 34.0777 0.0638738 36.7913 0.238381L36.7961 0.238686C44.7379 0.751609 51.5607 4.63457 57.0106 9.32907C57.0423 9.36029 57.0742 9.39172 57.1066 9.42337C68.3558 20.4383 73.5118 36.0818 73.5118 46.0421V74.1654C73.5118 81.09 71.9808 83.9535 70.394 84.8832C70.1233 84.9063 69.8494 84.9182 69.5727 84.9182H68.4073C63.2049 84.9182 58.9887 80.7358 58.9887 75.5751Z" fill="#CCCCCC"/>
<path d="M58.9887 75.5751V53.8126H58.9921C58.9921 51.6006 58.6756 49.4024 58.0477 47.2802C57.8024 46.452 57.5119 45.5582 57.171 44.6127C53.7392 35.1109 48.3368 29.5982 44.7067 25.9766C44.7067 25.9766 40.5114 21.7925 35.2829 20.4881C34.6323 20.3259 33.667 20.1395 32.7225 20.5778C30.4335 21.6424 30.3657 25.4348 30.3657 25.4348V48.4155C30.3657 53.6021 26.1268 57.8051 20.9001 57.8051H19.4964C14.2679 57.8051 10.0308 53.6003 10.0308 48.4155V23.5627C10.8309 17.0838 12.0189 14.1265 13.3303 11.8334C16.0281 7.11271 19.5903 4.59016 20.2965 4.1036C26.8292 -0.402256 34.0777 0.0638738 36.7913 0.238381L36.7961 0.238686C44.7379 0.751609 51.5607 4.63457 57.0106 9.32907C57.0423 9.36029 57.0742 9.39172 57.1066 9.42337C68.3558 20.4383 73.5118 36.0818 73.5118 46.0421V74.1654C73.5118 81.09 71.9808 83.9535 70.394 84.8832C70.1233 84.9063 69.8494 84.9182 69.5727 84.9182H68.4073C63.2049 84.9182 58.9887 80.7358 58.9887 75.5751Z" fill="url(#paint10_linear_9709_74085)"/>
<path d="M33.3776 20.3657V19.9695C29.171 19.9695 25.7608 23.3796 25.7608 27.5862V49.2207C25.7608 52.9026 23.7125 56.1445 20.6479 57.805H20.8997C26.127 57.805 30.3657 53.6021 30.3657 48.4154V25.4348C30.3657 25.4348 30.4332 21.6422 32.723 20.5777C32.9416 20.4764 33.1613 20.4083 33.3776 20.3657Z" fill="#999999"/>
<path d="M33.3776 20.3657V19.9695C29.171 19.9695 25.7608 23.3796 25.7608 27.5862V49.2207C25.7608 52.9026 23.7125 56.1445 20.6479 57.805H20.8997C26.127 57.805 30.3657 53.6021 30.3657 48.4154V25.4348C30.3657 25.4348 30.4332 21.6422 32.723 20.5777C32.9416 20.4764 33.1613 20.4083 33.3776 20.3657Z" fill="url(#paint11_linear_9709_74085)"/>
<defs>
<linearGradient id="paint0_linear_9709_74085" x1="50.4118" y1="154.637" x2="87.8153" y2="161.344" gradientUnits="userSpaceOnUse">
<stop stop-color="#C8D1DA"/>
<stop offset="1" stop-color="#8797A8"/>
</linearGradient>
<linearGradient id="paint1_linear_9709_74085" x1="78.7621" y1="70.8574" x2="56.1118" y2="97.8087" gradientUnits="userSpaceOnUse">
<stop stop-color="#EAEDEF"/>
<stop offset="1" stop-color="#D2DCE5"/>
</linearGradient>
<linearGradient id="paint2_linear_9709_74085" x1="39.444" y1="54.7273" x2="39.444" y2="153.865" gradientUnits="userSpaceOnUse">
<stop stop-color="#D2DCE5"/>
<stop offset="1" stop-color="#B1BCC8"/>
</linearGradient>
<linearGradient id="paint3_linear_9709_74085" x1="80.649" y1="128.465" x2="3.3964" y2="97.6717" gradientUnits="userSpaceOnUse">
<stop stop-color="#EAEDEF"/>
<stop offset="1" stop-color="#D2DCE5"/>
</linearGradient>
<linearGradient id="paint4_linear_9709_74085" x1="32.9095" y1="122.555" x2="51.6591" y2="110.541" gradientUnits="userSpaceOnUse">
<stop stop-color="#C8D1DA"/>
<stop offset="1" stop-color="#8797A8"/>
</linearGradient>
<linearGradient id="paint5_linear_9709_74085" x1="34.3833" y1="109.085" x2="26.0773" y2="111.324" gradientUnits="userSpaceOnUse">
<stop stop-color="#EAEDEF"/>
<stop offset="1" stop-color="#D2DCE5"/>
</linearGradient>
<linearGradient id="paint6_linear_9709_74085" x1="27.8936" y1="101.233" x2="23.725" y2="102.139" gradientUnits="userSpaceOnUse">
<stop stop-color="#EAEDEF"/>
<stop offset="1" stop-color="#D2DCE5"/>
</linearGradient>
<linearGradient id="paint7_linear_9709_74085" x1="27.0788" y1="119.551" x2="33.0486" y2="117.343" gradientUnits="userSpaceOnUse">
<stop stop-color="#C8D1DA"/>
<stop offset="1" stop-color="#8797A8"/>
</linearGradient>
<linearGradient id="paint8_linear_9709_74085" x1="59.93" y1="85.0621" x2="75.7751" y2="44.4248" gradientUnits="userSpaceOnUse">
<stop stop-color="#C8D1DA"/>
<stop offset="1" stop-color="#8797A8"/>
</linearGradient>
<linearGradient id="paint9_linear_9709_74085" x1="48.7108" y1="85.5114" x2="100.562" y2="24.6715" gradientUnits="userSpaceOnUse">
<stop stop-color="#C8D1DA"/>
<stop offset="1" stop-color="#8797A8"/>
</linearGradient>
<linearGradient id="paint10_linear_9709_74085" x1="41.7713" y1="0.13501" x2="41.7713" y2="84.9182" gradientUnits="userSpaceOnUse">
<stop stop-color="#D2DCE5"/>
<stop offset="1" stop-color="#B1BCC8"/>
</linearGradient>
<linearGradient id="paint11_linear_9709_74085" x1="27.788" y1="58.0697" x2="46.1997" y2="49.1336" gradientUnits="userSpaceOnUse">
<stop stop-color="#C8D1DA"/>
<stop offset="1" stop-color="#8797A8"/>
</linearGradient>
</defs>
</svg>
