<svg fill="none" viewBox="0 0 90 154"><path fill="#D9D9D9" d="M6.451 62.613c-7.78-4.49-7.78-11.772 0-16.263 7.78-4.491 20.392-4.491 28.171 0l48.976 28.274c7.78 4.49 7.78 11.772 0 16.263-7.78 4.49-20.392 4.49-28.171 0L6.45 62.613z"/><path fill="#989898" d="M89.332 141.21V84.42c.577-3.315-1.336-6.747-5.734-9.287L34.621 46.86c-7.78-4.491-20.392-4.491-28.171 0C2.49 49.146.546 52.154.617 55.15l-.05-.016v58.59l.058.018c-.16 3.059 1.782 6.147 5.826 8.481l48.975 28.274c7.78 4.491 20.392 4.491 28.171 0 4.4-2.54 6.312-5.972 5.735-9.287z"/><path fill="url(#paint0_linear_9709_74085)" d="M89.332 141.21V84.42c.577-3.315-1.336-6.747-5.734-9.287L34.621 46.86c-7.78-4.491-20.392-4.491-28.171 0C2.49 49.146.546 52.154.617 55.15l-.05-.016v58.59l.058.018c-.16 3.059 1.782 6.147 5.826 8.481l48.975 28.274c7.78 4.491 20.392 4.491 28.171 0 4.4-2.54 6.312-5.972 5.735-9.287z"/><path fill="#E6E6E6" d="M6.451 62.613c-7.78-4.49-7.78-11.772 0-16.263 7.78-4.491 20.392-4.491 28.171 0l48.976 28.274c7.78 4.49 7.78 11.772 0 16.263-7.78 4.49-20.392 4.49-28.171 0L6.45 62.613z"/><path fill="url(#paint1_linear_9709_74085)" d="M6.451 62.613c-7.78-4.49-7.78-11.772 0-16.263 7.78-4.491 20.392-4.491 28.171 0l48.976 28.274c7.78 4.49 7.78 11.772 0 16.263-7.78 4.49-20.392 4.49-28.171 0L6.45 62.613z"/><path fill="#3E4852" fill-opacity=".05" d="M6.451 62.613c-7.78-4.49-7.78-11.772 0-16.263 7.78-4.491 20.392-4.491 28.171 0l48.976 28.274c7.78 4.49 7.78 11.772 0 16.263-7.78 4.49-20.392 4.49-28.171 0L6.45 62.613z"/><path fill="#CCC" d="M6.45 62.613C2.67 60.43.726 57.588.62 54.727a6.68 6.68 0 00-.003.423l-.05-.016v58.59l.058.018c-.16 3.059 1.782 6.147 5.826 8.481l48.975 28.274c5.23 3.019 12.647 4.009 19.31 2.967 2.218-2.366 3.612-5.568 3.584-9.236l-.4-51.044c-7.373 1.98-16.411 1.215-22.494-2.297L6.45 62.613z"/><path fill="url(#paint2_linear_9709_74085)" d="M6.45 62.613C2.67 60.43.726 57.588.62 54.727a6.68 6.68 0 00-.003.423l-.05-.016v58.59l.058.018c-.16 3.059 1.782 6.147 5.826 8.481l48.975 28.274c5.23 3.019 12.647 4.009 19.31 2.967 2.218-2.366 3.612-5.568 3.584-9.236l-.4-51.044c-7.373 1.98-16.411 1.215-22.494-2.297L6.45 62.613z"/><path fill="url(#paint3_linear_9709_74085)" d="M6.45 62.613C2.67 60.43.726 57.588.62 54.727a6.68 6.68 0 00-.003.423l-.05-.016v58.59l.058.018c-.16 3.059 1.782 6.147 5.826 8.481l48.975 28.274c5.23 3.019 12.647 4.009 19.31 2.967 2.218-2.366 3.612-5.568 3.584-9.236l-.4-51.044c-7.373 1.98-16.411 1.215-22.494-2.297L6.45 62.613z"/><path fill="#fff" fill-opacity=".2" d="M6.45 62.613C2.67 60.43.726 57.588.62 54.727a6.68 6.68 0 00-.003.423l-.05-.016v58.59l.058.018c-.16 3.059 1.782 6.147 5.826 8.481l48.975 28.274c5.23 3.019 12.647 4.009 19.31 2.967 2.218-2.366 3.612-5.568 3.584-9.236l-.4-51.044c-7.373 1.98-16.411 1.215-22.494-2.297L6.45 62.613z"/><path fill="#D9D9D9" d="M24.608 93.582c0 3.648 1.65 7.804 4.137 11.055l-.85 13.06 8.009 4.624.217 3.582-11.174-6.452.85-13.06c-2.486-3.251-4.137-7.407-4.137-11.054 0-3.68 1.68-5.938 4.203-6.287-.797 1.076-1.256 2.61-1.255 4.532z" opacity=".5"/><path fill="#D9D9D9" d="M25.797 106.392c-2.486-3.251-4.137-7.407-4.137-11.055 0-5.659 3.972-7.952 8.872-5.123 4.901 2.83 8.874 9.711 8.874 15.37 0 3.648-1.65 5.897-4.136 6.277l.85 14.042-11.173-6.452.85-13.059z" opacity=".5"/><path fill="#333" d="M24.609 93.583c0 3.648 1.651 7.804 4.137 11.055l-.85 13.059 8.009 4.624-.634-10.46c2.486-.38 4.137-2.629 4.137-6.277 0-5.659-3.973-12.54-8.874-15.37-1.713-.989-3.313-1.352-4.67-1.164-.797 1.077-1.255 2.61-1.255 4.533z"/><path fill="url(#paint4_linear_9709_74085)" d="M24.609 93.583c0 3.648 1.651 7.804 4.137 11.055l-.85 13.059 8.009 4.624-.634-10.46c2.486-.38 4.137-2.629 4.137-6.277 0-5.659-3.973-12.54-8.874-15.37-1.713-.989-3.313-1.352-4.67-1.164-.797 1.077-1.255 2.61-1.255 4.533z"/><path fill="#3E4852" fill-opacity=".38" d="M24.609 93.583c0 3.648 1.651 7.804 4.137 11.055l-.85 13.059 8.009 4.624-.634-10.46c2.486-.38 4.137-2.629 4.137-6.277 0-5.659-3.973-12.54-8.874-15.37-1.713-.989-3.313-1.352-4.67-1.164-.797 1.077-1.255 2.61-1.255 4.533z"/><g opacity=".5"><path fill="#E7E7E7" d="M24.608 93.582c0 3.648 1.65 7.804 4.137 11.055l-.85 13.06 8.009 4.624.217 3.582-11.174-6.452.85-13.06c-2.486-3.251-4.137-7.407-4.137-11.054 0-3.68 1.68-5.938 4.203-6.287-.797 1.076-1.256 2.61-1.255 4.532z"/><path fill="url(#paint5_linear_9709_74085)" d="M24.608 93.582c0 3.648 1.65 7.804 4.137 11.055l-.85 13.06 8.009 4.624.217 3.582-11.174-6.452.85-13.06c-2.486-3.251-4.137-7.407-4.137-11.054 0-3.68 1.68-5.938 4.203-6.287-.797 1.076-1.256 2.61-1.255 4.532z"/></g><path fill="#7C7C7C" d="M24.608 93.582c0 3.648 1.65 7.804 4.137 11.055l-1.226 5.065-.88 1.758-.842-5.069c-2.486-3.251-4.137-7.407-4.137-11.054 0-3.68 1.68-5.938 4.203-6.287-.797 1.076-1.256 2.61-1.255 4.532z"/><path fill="url(#paint6_linear_9709_74085)" d="M24.608 93.582c0 3.648 1.65 7.804 4.137 11.055l-1.226 5.065-.88 1.758-.842-5.069c-2.486-3.251-4.137-7.407-4.137-11.054 0-3.68 1.68-5.938 4.203-6.287-.797 1.076-1.256 2.61-1.255 4.532z"/><path fill="#9B9B9B" d="M24.949 119.448l.847-13.014 2.95-1.796-.848 13.04-2.95 1.77z"/><path fill="url(#paint7_linear_9709_74085)" d="M24.949 119.448l.847-13.014 2.95-1.796-.848 13.04-2.95 1.77z"/><path fill="#3E4852" fill-opacity=".08" d="M24.949 119.448l.847-13.014 2.95-1.796-.848 13.04-2.95 1.77z"/><path fill="#A8A8A8" d="M37.412 47.961l46.185 26.663c4.793 2.767 6.633 6.593 5.52 10.174h-19.12l-4.98-14.062c-2.344-1.465-9.082-5.449-17.285-9.667-8.202-4.219-20.409-4.102-25.486-3.516l6.738-10.546 8.428.954z"/><path fill="url(#paint8_linear_9709_74085)" d="M37.412 47.961l46.185 26.663c4.793 2.767 6.633 6.593 5.52 10.174h-19.12l-4.98-14.062c-2.344-1.465-9.082-5.449-17.285-9.667-8.202-4.219-20.409-4.102-25.486-3.516l6.738-10.546 8.428.954z"/><path fill="#3E4852" fill-opacity=".08" d="M37.412 47.961l46.185 26.663c4.793 2.767 6.633 6.593 5.52 10.174h-19.12l-4.98-14.062c-2.344-1.465-9.082-5.449-17.285-9.667-8.202-4.219-20.409-4.102-25.486-3.516l6.738-10.546 8.428.954z"/><path fill="#989898" d="M58.989 53.813v21.762c0 5.16 4.216 9.343 9.418 9.343h1.166c5.202 0 9.418-4.182 9.418-9.343V56.872c-.08-7.89-1.55-18.645-7.536-29.498C69.712 24.217 56.805 1.531 36.796.24c-2.71-.175-9.963-.644-16.5 3.865-.706.486-4.268 3.009-6.966 7.73-1.311 2.293-2.5 5.25-3.3 11.729v24.853c0 5.184 4.238 9.39 9.466 9.39H20.9c5.227 0 9.466-4.204 9.466-9.39V25.434s.067-3.793 2.356-4.857c.945-.438 1.91-.252 2.56-.09 5.23 1.305 9.425 5.489 9.425 5.489 3.63 3.621 9.032 9.134 12.464 18.636.34.945.631 1.839.877 2.667.628 2.122.944 4.32.944 6.533h-.003z"/><path fill="url(#paint9_linear_9709_74085)" d="M58.989 53.813v21.762c0 5.16 4.216 9.343 9.418 9.343h1.166c5.202 0 9.418-4.182 9.418-9.343V56.872c-.08-7.89-1.55-18.645-7.536-29.498C69.712 24.217 56.805 1.531 36.796.24c-2.71-.175-9.963-.644-16.5 3.865-.706.486-4.268 3.009-6.966 7.73-1.311 2.293-2.5 5.25-3.3 11.729v24.853c0 5.184 4.238 9.39 9.466 9.39H20.9c5.227 0 9.466-4.204 9.466-9.39V25.434s.067-3.793 2.356-4.857c.945-.438 1.91-.252 2.56-.09 5.23 1.305 9.425 5.489 9.425 5.489 3.63 3.621 9.032 9.134 12.464 18.636.34.945.631 1.839.877 2.667.628 2.122.944 4.32.944 6.533h-.003z"/><path fill="#CCC" d="M58.989 75.575V53.813h.003c0-2.212-.316-4.41-.944-6.533a48.433 48.433 0 00-.877-2.667c-3.432-9.502-8.834-15.015-12.464-18.636 0 0-4.196-4.184-9.424-5.489-.65-.162-1.616-.348-2.56.09-2.29 1.064-2.357 4.857-2.357 4.857v22.98c0 5.187-4.24 9.39-9.466 9.39h-1.404c-5.228 0-9.465-4.205-9.465-9.39V23.564c.8-6.48 1.988-9.436 3.3-11.73 2.697-4.72 6.26-7.243 6.966-7.73C26.829-.401 34.077.064 36.79.239h.005C44.737.753 51.56 4.636 57.01 9.33l.096.094c11.249 11.015 16.405 26.659 16.405 36.62v28.122c0 6.925-1.531 9.788-3.118 10.718-.27.023-.545.035-.821.035h-1.166c-5.202 0-9.418-4.182-9.418-9.343z"/><path fill="url(#paint10_linear_9709_74085)" d="M58.989 75.575V53.813h.003c0-2.212-.316-4.41-.944-6.533a48.433 48.433 0 00-.877-2.667c-3.432-9.502-8.834-15.015-12.464-18.636 0 0-4.196-4.184-9.424-5.489-.65-.162-1.616-.348-2.56.09-2.29 1.064-2.357 4.857-2.357 4.857v22.98c0 5.187-4.24 9.39-9.466 9.39h-1.404c-5.228 0-9.465-4.205-9.465-9.39V23.564c.8-6.48 1.988-9.436 3.3-11.73 2.697-4.72 6.26-7.243 6.966-7.73C26.829-.401 34.077.064 36.79.239h.005C44.737.753 51.56 4.636 57.01 9.33l.096.094c11.249 11.015 16.405 26.659 16.405 36.62v28.122c0 6.925-1.531 9.788-3.118 10.718-.27.023-.545.035-.821.035h-1.166c-5.202 0-9.418-4.182-9.418-9.343z"/><path fill="#999" d="M33.378 20.366v-.396a7.617 7.617 0 00-7.617 7.616v21.635a9.76 9.76 0 01-5.113 8.584h.252c5.227 0 9.466-4.203 9.466-9.39v-22.98s.067-3.793 2.357-4.857c.219-.102.438-.17.655-.212z"/><path fill="url(#paint11_linear_9709_74085)" d="M33.378 20.366v-.396a7.617 7.617 0 00-7.617 7.616v21.635a9.76 9.76 0 01-5.113 8.584h.252c5.227 0 9.466-4.203 9.466-9.39v-22.98s.067-3.793 2.357-4.857c.219-.102.438-.17.655-.212z"/><defs><linearGradient id="paint0_linear_9709_74085" x1="50.412" x2="87.815" y1="154.637" y2="161.344" gradientUnits="userSpaceOnUse"><stop stop-color="#C8D1DA"/><stop offset="1" stop-color="#8797A8"/></linearGradient><linearGradient id="paint1_linear_9709_74085" x1="78.762" x2="56.112" y1="70.857" y2="97.809" gradientUnits="userSpaceOnUse"><stop stop-color="#EAEDEF"/><stop offset="1" stop-color="#D2DCE5"/></linearGradient><linearGradient id="paint2_linear_9709_74085" x1="39.444" x2="39.444" y1="54.727" y2="153.865" gradientUnits="userSpaceOnUse"><stop stop-color="#D2DCE5"/><stop offset="1" stop-color="#B1BCC8"/></linearGradient><linearGradient id="paint3_linear_9709_74085" x1="80.649" x2="3.396" y1="128.465" y2="97.672" gradientUnits="userSpaceOnUse"><stop stop-color="#EAEDEF"/><stop offset="1" stop-color="#D2DCE5"/></linearGradient><linearGradient id="paint4_linear_9709_74085" x1="32.91" x2="51.659" y1="122.555" y2="110.541" gradientUnits="userSpaceOnUse"><stop stop-color="#C8D1DA"/><stop offset="1" stop-color="#8797A8"/></linearGradient><linearGradient id="paint5_linear_9709_74085" x1="34.383" x2="26.077" y1="109.085" y2="111.324" gradientUnits="userSpaceOnUse"><stop stop-color="#EAEDEF"/><stop offset="1" stop-color="#D2DCE5"/></linearGradient><linearGradient id="paint6_linear_9709_74085" x1="27.894" x2="23.725" y1="101.233" y2="102.139" gradientUnits="userSpaceOnUse"><stop stop-color="#EAEDEF"/><stop offset="1" stop-color="#D2DCE5"/></linearGradient><linearGradient id="paint7_linear_9709_74085" x1="27.079" x2="33.049" y1="119.551" y2="117.343" gradientUnits="userSpaceOnUse"><stop stop-color="#C8D1DA"/><stop offset="1" stop-color="#8797A8"/></linearGradient><linearGradient id="paint8_linear_9709_74085" x1="59.93" x2="75.775" y1="85.062" y2="44.425" gradientUnits="userSpaceOnUse"><stop stop-color="#C8D1DA"/><stop offset="1" stop-color="#8797A8"/></linearGradient><linearGradient id="paint9_linear_9709_74085" x1="48.711" x2="100.562" y1="85.511" y2="24.672" gradientUnits="userSpaceOnUse"><stop stop-color="#C8D1DA"/><stop offset="1" stop-color="#8797A8"/></linearGradient><linearGradient id="paint10_linear_9709_74085" x1="41.771" x2="41.771" y1=".135" y2="84.918" gradientUnits="userSpaceOnUse"><stop stop-color="#D2DCE5"/><stop offset="1" stop-color="#B1BCC8"/></linearGradient><linearGradient id="paint11_linear_9709_74085" x1="27.788" x2="46.2" y1="58.07" y2="49.134" gradientUnits="userSpaceOnUse"><stop stop-color="#C8D1DA"/><stop offset="1" stop-color="#8797A8"/></linearGradient></defs></svg>