<svg fill="none" viewBox="0 0 625 333"><path fill="#182026" fill-rule="evenodd" d="M376.542 60.674a5.999 5.999 0 00-4.098 7.43l8.388 29.02 34.094.663a2.909 2.909 0 011.889.746c15.696 14.125 9.756 39.999-10.53 45.863l-10.879 3.145 35.736 123.628a6 6 0 007.43 4.098l178.032-51.462a6 6 0 004.098-7.43L562.004 13.31a6 6 0 00-7.431-4.098L376.542 60.674zm-6.02 7.986a8 8 0 015.464-9.907L554.018 7.29a8 8 0 019.907 5.463l58.698 203.065a8 8 0 01-5.464 9.907l-178.032 51.463a8 8 0 01-9.906-5.464l-36.292-125.55 12.801-3.7c18.778-5.429 24.277-29.38 9.747-42.455a.906.906 0 00-.59-.234l-35.567-.692-8.798-30.434z" clip-rule="evenodd"/><path fill="url(#paint0_linear_1870_48567)" d="M554.3 8.252l-109.219 31.57-68.813 19.892a7 7 0 00-4.781 8.669l8.593 29.727 34.83.677c.459.01.899.183 1.24.49 15.113 13.6 9.393 38.513-10.139 44.159l-11.84 3.422 36.014 124.59a7 7 0 008.669 4.78l178.032-51.462a7 7 0 004.78-8.668L562.968 13.033a7 7 0 00-8.668-4.781z"/><path fill="#182026" fill-rule="evenodd" d="M376.542 60.674a5.999 5.999 0 00-4.098 7.43l8.388 29.02 34.094.663a2.909 2.909 0 011.889.746c15.696 14.125 9.756 39.999-10.53 45.863l-10.879 3.145 35.736 123.628a6 6 0 007.43 4.098l178.032-51.462a6 6 0 004.098-7.43L562.004 13.31a6 6 0 00-7.431-4.098L376.542 60.674zm-6.02 7.986a8 8 0 015.464-9.907L554.018 7.29a8 8 0 019.907 5.463l58.698 203.065a8 8 0 01-5.464 9.907l-178.032 51.463a8 8 0 01-9.906-5.464l-36.292-125.55 12.801-3.7c18.778-5.429 24.277-29.38 9.747-42.455a.906.906 0 00-.59-.234l-35.567-.692-8.798-30.434z" clip-rule="evenodd"/><path fill="#005CC5" d="M429.414 167.932l-23.134 16.755a1 1 0 01-1.548-.537l-24.609-86.625 49.922-8.595c5.899-1.015 11.363 3.345 11.682 9.323l2.106 39.468a35.003 35.003 0 01-14.419 30.211z"/><path fill="#4D9FFF" d="M608.884 208.874l-18.261-59.477c-.442-1.441-2.572-1.1-2.542.407l.461 23.523a62.002 62.002 0 01-17.297 44.188l-9.899 10.294c-.936.973.049 2.552 1.335 2.139l42.304-13.6a6 6 0 003.899-7.474z"/><path fill="url(#paint1_linear_1870_48567)" d="M337.198 33.195a44 44 0 0136.089-8.021l67.722 14.778-64.061 18.518a9 9 0 00-6.147 11.145l8.038 27.806-48.667 14.067a1.002 1.002 0 00.556 1.922l95.183-27.514c5.598-1.618 11.449 1.608 13.067 7.206 5.857 20.264-5.821 41.439-26.085 47.297l-37.556 10.856a65.004 65.004 0 00-21.754 11.056l-29.219 22.632a52.991 52.991 0 01-17.737 9.015l-59.394 17.169-30.167-104.36 10.733-3.102a153.004 153.004 0 0050.384-25.394l59.015-45.076z"/><path fill="#FDFDFD" d="M467.84 130.548l9.346-2.701c6.015-1.739 10.774.517 12.267 5.683 1.215 4.202-.375 7.88-4.15 10.055l10.14 8.222-3.486 1.007-9.883-7.916-6.394 1.848 2.874 9.943-2.914.842-7.8-26.983zm13.902 11.478c3.828-1.106 5.94-3.723 4.803-7.656-1.081-3.739-4.228-5.005-8.136-3.875l-6.854 1.981 3.331 11.525 6.854-1.981.002.006zm11.82-18.915l19.804-5.725 1.526 5.278-14.1 4.076 1.539 5.321 13.447-3.887 1.504 5.203-13.447 3.887 1.704 5.897 14.1-4.076 1.527 5.284-19.804 5.725-7.8-26.983z"/><path fill="#FDFDFD" d="M519.182 95.41c-19.498-10.132-40.241-5.443-53.902 7.09-13.266 11.593-19.415 30.317-14.182 48.42 5.17 17.884 20.047 30.36 37.187 33.286 18.421 3.606 38.815-3.455 50.022-22.658 13.48-22.828 4.443-54.02-19.125-66.139zm-66.698 55.109c-4.376-15.139-.54-30.727 8.852-41.932 9.407-10.62 23.728-16.84 39.359-14.522 37.938 5.764 51.681 53.354 22.674 78.462-12.052 10.368-27.599 12.72-41.284 8.654-13.81-4.519-25.252-15.616-29.601-30.662z"/><path fill="#D9D9D9" d="M228.996 151.02l-13.402-44.566c22.176-6.647 20.344-4.763 27.902-9.43-23.7 14.636-13.239 38.978-14.5 53.996zm103.632-38.986l46.493-13.271c-3.78-15.974-4.967-19.624-5.244-23.56-.113-1.616-.331 1.905-.254-.678 0 0-.082-1.278-.389.508-4.597 26.793-29.004 28.937-40.606 37.001z"/><path fill="#182026" fill-rule="evenodd" d="M373.286 25.175a44 44 0 00-36.089 8.022l-59.015 45.076a153.004 153.004 0 01-50.385 25.393l-10.732 3.103 30.167 104.359 59.394-17.168a53.028 53.028 0 0017.737-9.015l29.219-22.633a65.013 65.013 0 0121.754-11.056l37.556-10.856c20.264-5.857 31.942-27.033 26.085-47.297-1.619-5.598-7.469-8.824-13.067-7.206l-95.184 27.514a1 1 0 11-.555-1.921l48.666-14.068-8.037-27.806a8.999 8.999 0 016.147-11.145l64.061-18.517-67.722-14.779zm7.473 71.692l-8.038-27.806a7 7 0 014.781-8.669l67.853-19.613-.064-1.938-71.579-15.62a45.998 45.998 0 00-37.729 8.386l-59.015 45.076a150.996 150.996 0 01-49.726 25.062l-12.654 3.658 31.278 108.202 61.315-17.724a55.003 55.003 0 0018.407-9.355l29.219-22.633a62.98 62.98 0 0121.084-10.715l37.556-10.856c21.325-6.165 33.615-28.449 27.451-49.774-1.925-6.66-8.884-10.497-15.543-8.572l-44.596 12.89z" clip-rule="evenodd"/><path fill="url(#paint2_linear_1870_48567)" d="M254.662 237.618l-43.1-149.1a4 4 0 00-4.953-2.733l-76.637 22.153a4.001 4.001 0 00-2.732 4.954l43.1 149.101a4 4 0 004.953 2.732l76.637-22.153a4.001 4.001 0 002.732-4.954z"/><path fill="#B0E0FF" d="M247.556 232.781l-31.704-109.728 20.514 85.974a33.534 33.534 0 01-13.147 35.085c-.11.078-.024.251.106.209l21.819-7.011a3.683 3.683 0 002.412-4.529z" opacity=".6"/><path fill="#005CC5" d="M133.395 106.998l71.875-21.59a4 4 0 012.238-.019l.023.007c.242.068.477.159.701.271l2.663 1.331c-53.959 14.458-71.153 41.87-73.127 54.143l-6.606-24.653c-2.642-9.862-2.267-8.49 2.233-9.49z"/><path fill="#182026" fill-rule="evenodd" d="M210.602 88.795a3 3 0 00-3.715-2.049L130.25 108.9a3 3 0 00-2.049 3.715l43.1 149.101a3 3 0 003.715 2.049l76.636-22.153a3 3 0 002.049-3.715l-43.099-149.1zm-4.27-3.97a5 5 0 016.191 3.415l43.1 149.101a5 5 0 01-3.415 6.192l-76.637 22.152a5 5 0 01-6.192-3.414L126.28 113.17a5 5 0 013.415-6.192l76.637-22.153z" clip-rule="evenodd"/><path fill="url(#paint3_linear_1870_48567)" d="M175.365 271.016l-48.18-167.981a4 4 0 00-4.956-2.74L1 135.337v195.546l171.74-54.955a3.999 3.999 0 002.625-4.912z"/><path fill="#544590" d="M167.126 266.565l-38.767-129.776 26.204 105.901a35.45 35.45 0 01-11.693 35.728c-.106.089-.011.259.12.216l21.559-7.126a4 4 0 002.577-4.943z" opacity=".6"/><path fill="#2A334B" d="M120.954 100.812l1.103-.306a3.976 3.976 0 014.617 2.053l.721 1.441c-38.834 10.77-86.666 21.264-107.686 41.413-20.15 19.316-17.307 48.93-18.717 57.002-1.456-5.251 1.099-37.391.136-51.915a55.541 55.541 0 00-.136-1.684v-10.29a4 4 0 012.912-3.849l8.99-2.542 108.06-31.323z"/><path fill="#182026" fill-rule="evenodd" d="M121.952 99.335a5 5 0 016.194 3.425l48.181 167.98a5 5 0 01-3.283 6.141L.001 332.253 0 134.585l121.952-35.25zm4.272 3.976a3 3 0 00-3.717-2.055L2 136.089v193.424l170.435-54.537a3 3 0 001.969-3.684l-48.18-167.981z" clip-rule="evenodd"/><defs><linearGradient id="paint0_linear_1870_48567" x1="465.284" x2="527.87" y1="33.983" y2="250.497" gradientUnits="userSpaceOnUse"><stop stop-color="#0370ED"/><stop offset="1" stop-color="#4399FA"/></linearGradient><linearGradient id="paint1_linear_1870_48567" x1="318.014" x2="361.177" y1="29.911" y2="179.231" gradientUnits="userSpaceOnUse"><stop stop-color="#F9F8F8"/><stop offset="1" stop-color="#fff"/></linearGradient><linearGradient id="paint2_linear_1870_48567" x1="168.29" x2="213.611" y1="96.862" y2="253.648" gradientUnits="userSpaceOnUse"><stop stop-color="#0370ED"/><stop offset="1" stop-color="#4399FA"/></linearGradient><linearGradient id="paint3_linear_1870_48567" x1="82.984" x2="89.442" y1="100.401" y2="328.376" gradientUnits="userSpaceOnUse"><stop stop-color="#2D3368"/><stop offset="1" stop-color="#3D2D6C"/></linearGradient></defs></svg>