<svg viewBox="503 375 28 27"><path fill="#999" fill-rule="evenodd" d="M517.174 375c-7.276 0-13.174 5.898-13.174 13.174s5.898 13.174 13.174 13.174 13.174-5.898 13.174-13.174S524.45 375 517.174 375m0 1c6.713 0 12.174 5.461 12.174 12.174 0 6.712-5.461 12.174-12.174 12.174-6.713 0-12.174-5.462-12.174-12.174 0-6.713 5.46-12.174 12.174-12.174"/><path fill="#999" fill-rule="evenodd" d="M517.174 379.983a4.19 4.19 0 100 8.38 4.19 4.19 0 000-8.38m0 1a3.194 3.194 0 013.19 3.19 3.194 3.194 0 01-3.19 3.191 3.194 3.194 0 01-3.19-3.19 3.194 3.194 0 013.19-3.19m-8.75 16.17c2.343-3.314 5.397-5.686 8.914-5.686 3.506 0 6.454 2.337 8.663 5.612a.5.5 0 00.829-.559c-2.377-3.523-5.567-6.053-9.492-6.053-3.928 0-7.218 2.555-9.73 6.108a.5.5 0 10.817.577z"/></svg>