<svg viewBox="0 0 45 45" style="enable-background:new 0 0 45 45"><defs><clipPath id="a" clipPathUnits="userSpaceOnUse"><path d="M0 36h36V0H0v36z"/></clipPath></defs><g clip-path="url(#a)" transform="matrix(1.25 0 0 -1.25 0 45)"><path d="M4.861 26.853c.941.657 2.357.531 3.201-.166l-.969 1.407c-.779 1.111-.5 2.313.613 3.092a2.461 2.461 0 003.426-.604L19.962 18l.07.031-8.064 11.844c-.786 1.122-.638 2.544.484 3.331a2.483 2.483 0 003.456-.611l10.42-14.72c.786-1.123.401-2.661-.72-3.447a2.43 2.43 0 00-.608-.299V5H15v3.113c-.147.129-.967.763-1.083.929L4.25 23.375a2.495 2.495 0 00.611 3.478" style="fill:#ef9645;fill-opacity:1;fill-rule:nonzero;stroke:none"/><path d="M2.695 18.664s-1.132 1.65.52 2.78c1.648 1.132 2.78-.518 2.78-.518l5.25-7.658c.18.302.38.6.6.893L4.555 24.79s-1.13 1.649.52 2.78c1.648 1.132 2.78-.518 2.78-.518l6.855-9.997c.255.209.515.417.785.622L7.55 29.268s-1.13 1.649.518 2.78c1.65 1.132 2.78-.518 2.78-.518l7.948-11.59c.292.18.581.336.87.499L12.238 31.27s-1.13 1.649.52 2.78c1.648 1.132 2.78-.518 2.78-.518l7.853-11.454.63-.917.564-.825c-4.948-3.393-5.419-9.78-2.592-13.902.566-.825 1.391-.26 1.391-.26-3.394 4.949-2.357 10.51 2.592 13.903l-1.462 7.302s-.545 1.925 1.38 2.47c1.923.545 2.468-1.38 2.468-1.38l1.685-5.003c.668-1.984 1.38-3.961 2.32-5.83 2.657-5.28 1.07-11.843-3.94-15.28C22.96-1.388 15.49.004 11.742 5.468c-.198.29-.364.574-.522.857l-.044-.031-8.482 12.37z" style="fill:#ffdc5d;fill-opacity:1;fill-rule:nonzero;stroke:none"/><path d="M12 3.958C8 3.958 3.958 8 3.958 12c0 .553-.405 1-.958 1-.553 0-1.042-.447-1.042-1C1.958 6 6 1.958 12 1.958c.553 0 1 .489 1 1.042s-.447.958-1 .958" style="fill:#77b255;fill-opacity:1;fill-rule:nonzero;stroke:none"/><path d="M7 2C4 2 2 4 2 7a1 1 0 11-2 0c0-4 3-7 7-7a1 1 0 110 2m17 32a1 1 0 010-2c4 0 8-3.589 8-8a1 1 0 012 0c0 5.514-4 10-10 10" style="fill:#77b255;fill-opacity:1;fill-rule:nonzero;stroke:none"/><path style="fill:#77b255;fill-opacity:1;fill-rule:nonzero;stroke:none" d="M29 35.959c-.552 0-1-.407-1-.959s.448-1.041 1-1.041c3 0 4.958-2.226 4.958-4.959 0-.552.49-1 1.042-1s.958.448.958 1c0 3.837-2.958 6.959-6.958 6.959"/></g></svg>