<svg xmlns="http://www.w3.org/2000/svg" width="19" height="18" viewBox="0 0 19 18">
  <g fill="none" fill-rule="evenodd">
    <path fill="#2CBAFF" d="M9.5,0 C11.0041119,0 12.2837073,0.961269531 12.7579574,2.30297985 C14.0928087,1.8402925 15.6325588,2.23202722 16.5736037,3.3941209 C17.5259916,4.57022204 17.5790831,6.18209695 16.820333,7.39766921 C18.025654,8.15951546 18.677979,9.62570901 18.3388965,11.0944371 C18.001145,12.5573993 16.7804072,13.5869024 15.3695831,13.7499745 C15.5252529,15.1570166 14.7969498,16.5738858 13.4500386,17.2308183 C12.0926507,17.8928606 10.5138734,17.5846497 9.49989021,16.5768904 C8.48617158,17.584641 6.90736859,17.89287 5.54996141,17.2308183 C4.20305024,16.5738858 3.47474714,15.1570166 3.629537,13.7483304 C2.21959282,13.5869024 0.998854977,12.5573993 0.661103542,11.0944371 C0.322020952,9.62570901 0.974345996,8.15951546 2.1799671,7.3969815 C1.42091686,6.18209695 1.47400839,4.57022204 2.42639631,3.3941209 C3.36745396,2.23201149 4.90723298,1.8402819 6.24300195,2.3033026 C6.7162927,0.961269531 7.99588808,0 9.5,0 Z"/>
    <polyline stroke="#FFF" stroke-linecap="round" stroke-linejoin="round" stroke-width="1.727" points="12.748 8.869 6.735 9.601 6.735 6.578" transform="rotate(-45 9.742 8.09)"/>
  </g>
</svg>
