<svg viewBox="0 0 38 37"><g fill="none"><path fill="#E5E5E5" d="M18.502.005a7.882 7.882 0 00-6.717 4.246l-.07.137-.205-.042A7.882 7.882 0 003.916 7.13l-.188.242a7.883 7.883 0 00-.93 7.828l.107.237-.12.099A7.882 7.882 0 00.203 23.32l.068.271a7.882 7.882 0 005.631 5.586l.147.035.003.15a7.882 7.882 0 004.424 6.853l.27.126a7.88 7.88 0 007.858-.862l.176-.136.177.136a7.882 7.882 0 008.13.736l.247-.126a7.88 7.88 0 004.176-6.727l.001-.15.148-.035a7.882 7.882 0 005.7-5.857l.058-.274a7.882 7.882 0 00-2.64-7.51l-.121-.099.108-.237a7.883 7.883 0 00-1.118-8.07l-.19-.225a7.881 7.881 0 00-7.403-2.559l-.207.043-.068-.138A7.882 7.882 0 0018.781 0l-.28.005zM18.782 2a5.882 5.882 0 015.545 3.92l.331.937.94-.325a5.88 5.88 0 016.914 8.671l-.526.844.84.53a5.881 5.881 0 01-2.469 10.814l-.987.114.108.988a5.88 5.88 0 01-9.993 4.811l-.705-.7-.705.7a5.882 5.882 0 01-9.992-4.812l.109-.988-.988-.114a5.881 5.881 0 01-2.467-10.813l.84-.531-.527-.843a5.882 5.882 0 016.916-8.671l.939.325.33-.937A5.882 5.882 0 0118.782 2z"/><path fill="#FF4B4B" d="M15.613 14.21l.094.083 3.535 3.535 3.536-3.535a1 1 0 011.498 1.32l-.084.094-3.535 3.535 3.535 3.536a1 1 0 01-1.32 1.498l-.094-.084-3.536-3.535-3.535 3.535a1 1 0 01-1.497-1.32l.083-.094 3.535-3.536-3.535-3.535a1 1 0 011.32-1.497z"/></g></svg>