<svg xmlns="http://www.w3.org/2000/svg" width="36" height="35" viewBox="0 0 36 35">
  <g fill="none" fill-rule="evenodd" transform="translate(-1 -1)">
    <rect width="38" height="38"/>
    <path fill="#2CBAFF" stroke="#2BBAFF" stroke-width="2" d="M18.92,2 C17.6577181,2 16.4882115,2.39751864 15.5303064,3.07466273 C14.545401,3.77089336 13.7836131,4.7619952 13.3745552,5.91974131 C13.2510439,6.26931223 13.1620969,6.62726489 13.1071556,6.98861158 C12.7903102,6.80651248 12.4548241,6.65289125 12.1044203,6.53153665 C10.9516061,6.13228488 9.70967112,6.10733685 8.55658987,6.43706549 C7.43564159,6.75760556 6.39887745,7.41418728 5.60950577,8.38898012 C4.81014228,9.37611182 4.38272482,10.5435539 4.31006478,11.7216078 C4.23538968,12.9323324 4.53447432,14.1542654 5.18893483,15.2027752 C5.38534489,15.5174433 5.60984642,15.8102184 5.85817441,16.078462 C5.51808875,16.2125262 5.18877276,16.378994 4.87530271,16.5773306 C3.83522712,17.2354003 3.03748606,18.2013503 2.57838945,19.3192156 C2.13182238,20.4065724 2.00647604,21.6380444 2.29100996,22.8704962 C2.57435535,24.0978 3.22259709,25.1460526 4.09510897,25.9265289 C4.99229918,26.7290802 6.12602933,27.2492157 7.34319936,27.3900906 C7.71152999,27.4327211 8.0803548,27.4397939 8.44493033,27.4129528 C8.33779322,27.7624368 8.26265029,28.123675 8.22228554,28.4923074 C8.08919317,29.7077778 8.34263953,30.9265871 8.92310052,31.9787238 C9.48746996,33.0016932 10.3617656,33.8667046 11.4915575,34.4177409 C12.6309281,34.9734491 13.8619521,35.1277966 15.0239955,34.9353183 C16.2182496,34.7375047 17.3398564,34.1742872 18.2139302,33.3046997 C18.4770485,33.0429318 18.7125206,32.7585908 18.9187115,32.4564388 C19.1252208,32.7583551 19.3609131,33.0426688 19.6242249,33.3044256 C20.4991185,34.1741524 21.621231,34.7374893 22.8158514,34.9353241 C23.9780536,35.1277903 25.2090741,34.9734481 26.3484425,34.4177409 C27.478143,33.8667492 28.3523906,33.0018319 28.9166437,31.9789154 C29.4968911,30.9270034 29.7501494,29.7084339 29.6168307,28.4930693 C29.5763891,28.1243949 29.5011575,27.7631439 29.3937873,27.4135844 C29.758443,27.4403914 30.1274114,27.4333142 30.4958806,27.390662 C31.713263,27.2497436 32.8472379,26.729523 33.7446221,25.9268344 C34.6172615,25.1462795 35.2656138,24.0979336 35.54899,22.8704962 C35.8335234,21.6380468 35.708179,20.4065759 35.2615722,19.3192674 C34.8024755,18.2015513 34.0047488,17.2357759 32.9646441,16.5779301 C32.6511652,16.3796609 32.3218487,16.2132713 31.9816823,16.0793121 C32.2297972,15.8110195 32.4543727,15.5181217 32.6508517,15.2033172 C33.3054087,14.1545662 33.6045597,12.9325051 33.5299139,11.7217003 C33.4572831,10.5435807 33.0298667,9.37612285 32.2304942,8.38898012 C31.4410759,7.41412973 30.404237,6.75752524 29.2832927,6.43703578 C28.1303103,6.10738626 26.888566,6.13243415 25.7361411,6.53188013 C25.3857853,6.65331815 25.0503606,6.80704635 24.7334548,6.98953312 C24.6784061,6.62815827 24.5893906,6.26999889 24.4657841,5.92022148 C24.0565765,4.76225964 23.2947138,3.77102893 22.3097507,3.07472713 C21.3518088,2.39752746 20.1822932,2 18.92,2 Z"/>
    <path fill="#FFF" fill-rule="nonzero" d="M13.4131995,13.1008613 C13.9260353,13.1008613 14.3487066,13.4869015 14.4064717,13.9842401 L14.4131995,14.1008613 L14.413,18.992 L25.2681047,17.671463 C25.7771881,17.6095382 26.2433809,17.9417163 26.3607769,18.4284408 L26.3815373,18.5433963 C26.4434621,19.0524797 26.111284,19.5186726 25.6245595,19.6360685 L25.509604,19.6568289 L13.5339491,21.1135443 C12.9778886,21.1811833 12.4835102,20.7806409 12.4200645,20.2389737 L12.4131995,20.1208613 L12.4131995,14.1008613 C12.4131995,13.5485765 12.8609147,13.1008613 13.4131995,13.1008613 Z" transform="rotate(-45 19.401 17.11)"/>
  </g>
</svg>
