<svg xmlns="http://www.w3.org/2000/svg" width="687" height="160" viewBox="0 0 687 160">
  <g fill="none" fill-rule="evenodd" transform="translate(-2)">
    <polygon fill="#2BBAFF" fill-opacity=".2" points="6.707 6 15 6 12.293 20 4 20" transform="rotate(-40 9.5 13)"/>
    <polygon fill="#2BBAFF" points="500.215 22 507 22 504.785 33 498 33" transform="rotate(-53 502.5 27.5)"/>
    <polygon fill="#FF4D89" fill-opacity=".6" points="408.461 1 416 1 413.539 14 406 14" transform="rotate(13 411 7.5)"/>
    <polygon fill="#2BBAFF" fill-opacity=".6" points="254.969 22 261 22 259.031 32 253 32" transform="rotate(100 257 27)"/>
    <polygon fill="#2BBAFF" points="41.894 17.883 48.68 17.883 46.465 29.883 39.68 29.883" transform="rotate(24 44.18 23.883)"/>
    <polygon fill="#FF4D89" points="644.694 21.516 650.725 21.516 648.756 31.516 642.725 31.516" transform="rotate(-26 646.725 26.516)"/>
    <polygon fill="#FF4D89" fill-opacity=".5" points="155.707 4 164 4 161.293 18 153 18" transform="rotate(-152 158.5 11)"/>
    <polygon fill="#2BBAFF" fill-opacity=".5" points="679.707 3 688 3 685.293 17 677 17" transform="rotate(7 682.5 10)"/>
    <polygon fill="#2BBAFF" fill-opacity=".2" points="93.215 65 100 65 97.785 76 91 76" transform="rotate(15 95.5 70.5)"/>
    <polygon fill="#FF4D89" fill-opacity=".5" points="611.707 49 620 49 617.293 63 609 63" transform="rotate(17 614.5 56)"/>
    <polygon fill="#FF4D89" fill-opacity=".5" points="36.476 151 41 151 39.524 159 35 159" transform="rotate(-34 38 155)"/>
    <polygon fill="#2BBAFF" fill-opacity=".2" points="664.707 139 673 139 670.293 153 662 153" transform="rotate(42 667.5 146)"/>
  </g>
</svg>
