<svg viewBox="0 0 687 160"><g fill="none" fill-rule="evenodd"><path fill="#2BBAFF" fill-opacity=".2" d="M.86 9.433l6.354-5.33 6.925 12.464-6.353 5.33z"/><path fill="#2BBAFF" d="M494.732 26.015l4.084-5.419 7.452 8.39-4.084 5.418z"/><path fill="#FF4D89" fill-opacity=".6" d="M407.988.595l7.346 1.696-5.322 12.114-7.346-1.696z"/><path fill="#2BBAFF" fill-opacity=".6" d="M260.277 25.868l-1.048 5.94-9.506-3.676 1.048-5.94z"/><path fill="#2BBAFF" d="M42.532 17.472l6.2 2.76-6.905 10.062-6.198-2.76z"/><path fill="#FF4D89" d="M640.708 22.912l5.42-2.643 2.614 9.85-5.42 2.644z"/><path fill="#FF4D89" fill-opacity=".5" d="M155.68 18.492l-7.323-3.893 8.963-11.09 7.323 3.892z"/><path fill="#2BBAFF" fill-opacity=".5" d="M678.58 2.712l8.232 1.01-4.393 13.566-8.231-1.01z"/><path fill="#2BBAFF" fill-opacity=".2" d="M92.716 64.596l6.554 1.756-4.986 10.052-6.554-1.756z"/><path fill="#FF4D89" fill-opacity=".5" d="M611.876 48.49l7.93 2.424-6.682 12.597-7.93-2.425zM32.5 152.536l3.75-2.53 3.25 7.458-3.75 2.53z"/><path fill="#2BBAFF" fill-opacity=".2" d="M668.108 138.93l6.163 5.548-11.38 8.593-6.162-5.55z"/></g></svg>