<svg viewBox="0 0 36 35"><g fill="none" fill-rule="evenodd"><path d="M-1-1h38v38H-1z"/><path fill="#2CBAFF" stroke="#2BBAFF" stroke-width="2" d="M17.92 1a5.852 5.852 0 00-3.39 1.075 5.896 5.896 0 00-2.423 3.914 5.863 5.863 0 00-4.55-.552A5.852 5.852 0 004.61 7.39a5.852 5.852 0 00-1.3 3.333 5.895 5.895 0 001.548 4.356 5.897 5.897 0 00-3.28 3.24 5.852 5.852 0 00-.287 3.552 5.851 5.851 0 001.804 3.057 5.896 5.896 0 004.35 1.486 5.898 5.898 0 00.478 4.566 5.852 5.852 0 002.569 2.439 5.85 5.85 0 003.532.517 5.89 5.89 0 003.895-2.479 5.862 5.862 0 003.897 2.48 5.852 5.852 0 003.532-.518 5.85 5.85 0 002.569-2.44 5.895 5.895 0 00.477-4.564 5.898 5.898 0 004.35-1.487 5.852 5.852 0 001.805-3.057 5.851 5.851 0 00-.287-3.55 5.895 5.895 0 00-3.28-3.24 5.86 5.86 0 001.548-4.358 5.852 5.852 0 00-1.3-3.333 5.852 5.852 0 00-2.947-1.952 5.895 5.895 0 00-4.55.553 5.897 5.897 0 00-2.424-3.915A5.852 5.852 0 0017.92 1z"/><path fill="#FFF" fill-rule="nonzero" d="M11.332 17.51a1 1 0 011.327-.079l.087.078 3.459 3.459 6.742-8.61a1 1 0 011.308-.237l.096.067a1 1 0 01.237 1.307l-.067.096-7.438 9.499a1 1 0 01-1.406.169l-.088-.079-4.257-4.257a1 1 0 010-1.414z"/></g></svg>