<svg viewBox="0 0 38 37"><g fill="none"><path fill="#E5E5E5" d="M18.64.005a7.882 7.882 0 00-6.717 4.246l-.069.137-.205-.042A7.882 7.882 0 004.055 7.13l-.188.242a7.883 7.883 0 00-.93 7.828l.106.236-.12.1a7.882 7.882 0 00-2.58 7.784l.067.271a7.882 7.882 0 005.631 5.586l.147.035.003.15a7.882 7.882 0 004.424 6.853l.27.126a7.88 7.88 0 007.858-.862l.176-.136.177.136a7.882 7.882 0 008.13.736l.247-.126a7.88 7.88 0 004.176-6.727l.001-.15.148-.035a7.882 7.882 0 005.7-5.857l.058-.274a7.882 7.882 0 00-2.64-7.51l-.121-.099.108-.237a7.883 7.883 0 00-1.118-8.07l-.19-.225a7.881 7.881 0 00-7.404-2.559l-.206.043-.068-.138A7.882 7.882 0 0018.92 0l-.28.005zM18.92 2a5.882 5.882 0 015.546 3.92l.331.937.94-.325a5.88 5.88 0 016.914 8.671l-.526.844.84.53a5.881 5.881 0 01-2.47 10.814l-.987.114.109.988a5.88 5.88 0 01-9.993 4.811l-.705-.7-.705.7a5.882 5.882 0 01-9.992-4.812l.108-.988-.987-.114a5.881 5.881 0 01-2.468-10.813l.84-.531-.526-.843a5.882 5.882 0 016.915-8.671l.94.325.33-.937A5.882 5.882 0 0118.92 2z"/><path fill="#8C8C8C" d="M12.332 18.51a1 1 0 011.327-.079l.087.078 3.459 3.459 6.742-8.61a1 1 0 011.308-.237l.096.067a1 1 0 01.237 1.307l-.067.096-7.438 9.499a1 1 0 01-1.406.169l-.088-.079-4.257-4.257a1 1 0 010-1.414z"/></g></svg>