<svg fill="none" viewBox="0 0 200 60"><path fill="#D9D9D9" d="M9.563 22.086h5.133c3.63 0 5.643 1.655 5.643 4.914 0 2.741-1.417 4.304-4.026 4.755l4.206 6.184h-1.327l-4.117-6.071h-4.45v6.067H9.561v-15.85zm5.443 8.695c2.654 0 4.206-1.199 4.206-3.781 0-2.49-1.547-3.828-4.206-3.828h-4.382v7.61h4.382zm12.072-8.695h9.85v1.086H28.14v6.139h8.367v1.086H28.14v6.456h8.788v1.086h-9.85V22.086zm15.902 0h1.728l8.809 12.886V22.086h1.702v15.853h-1.748L44.663 25.1v12.84h-1.682V22.086zm23.463 0h1.903l6.044 15.853h-1.817l-1.417-3.648h-7.567l-1.372 3.648h-1.838l6.064-15.853zM70.54 32.64l-3.165-8.332-3.12 8.332h6.285zm9.016-10.555h1.682v15.853h-1.682V22.086zm7.464 13.066l1.793-1.855c.952 1.27 2.238 2.444 4.717 2.444 1.968 0 2.944-.953 2.944-2.152 0-1.02-.62-1.901-2.434-2.218l-1.882-.318c-2.834-.476-4.537-2.106-4.537-4.688 0-2.83 2.524-4.55 5.468-4.55 2.744 0 4.492 1.198 5.734 2.536l-1.838 1.993c-.862-1.066-2.103-2.085-4.006-2.085s-2.7 1.086-2.7 2.039c0 1.065.666 1.813 2.459 2.127l1.547.271c3.32.59 4.848 2.332 4.848 4.847 0 2.675-2.189 4.643-5.93 4.643-2.887.004-4.9-1.38-6.183-3.034zm17.262 0l1.793-1.855c.951 1.27 2.238 2.444 4.717 2.444 1.968 0 2.944-.953 2.944-2.152 0-1.02-.621-1.901-2.434-2.218l-1.882-.318c-2.835-.476-4.537-2.106-4.537-4.688 0-2.83 2.523-4.55 5.468-4.55 2.744 0 4.492 1.198 5.733 2.536l-1.837 1.993c-.862-1.066-2.104-2.085-4.007-2.085-1.903 0-2.699 1.086-2.699 2.039 0 1.065.662 1.813 2.458 2.127l1.548.271c3.32.59 4.848 2.332 4.848 4.847 0 2.675-2.189 4.643-5.93 4.643-2.883.004-4.896-1.38-6.183-3.034zm22.307-13.066h3.144l6.065 15.853h-3.41l-1.238-3.125h-5.999l-1.217 3.125h-3.41l6.065-15.853zm3.5 9.74l-1.928-5.165-1.923 5.165h3.851zm10.517-9.74h3.962l6.264 10.735V22.086h3.275v15.853h-3.941l-6.264-10.688v10.688h-3.296V22.086zm19.051 7.906c0-4.622 3.386-8.178 7.947-8.178 2.81 0 4.692 1.112 6.13 2.83l-2.544 2.673c-.862-1.02-1.638-1.767-3.386-1.767-2.213 0-3.985 1.88-3.985 4.437 0 2.604 1.727 4.463 4.026 4.463 1.838 0 2.789-.794 3.786-2.198l2.434 2.762c-1.438 1.972-3.631 3.172-6.551 3.172-4.582.004-7.857-3.531-7.857-8.194zm19.094-7.906h11.688v3.623h-7.661v2.402h7.281v3.485h-7.281v2.72h7.661v3.623H178.75V22.086z"/></svg>