<svg width="175" height="88" viewBox="0 0 175 88" fill="none" xmlns="http://www.w3.org/2000/svg">
<path d="M121.215 2.66025L122.325 23.8406L0 30.2511L1.80174 64.6423L3.02596 88L34.2302 86.3649L33.1232 65.2453L174.997 57.8096L172.685 13.6726L171.967 0L121.215 2.66025Z" fill="url(#paint0_linear_20723_64299)"/>
<path d="M4.38574 36.9626L13.362 36.4924C18.7545 36.21 22.0515 39.058 22.2986 43.753C22.5316 48.1938 19.774 51.4231 13.9705 51.7267L10.8937 51.8876L11.2934 59.4999L5.58455 59.7992L4.38715 36.9626H4.38574ZM13.5342 46.4697C15.3416 46.3751 16.2157 45.4389 16.1422 44.0425C16.0688 42.6474 15.0013 41.6844 13.6048 41.7578L10.3699 41.9272L10.6156 46.6222L13.5342 46.4697Z" fill="#211B27"/>
<path d="M24.5566 35.9051L33.3112 35.4462C38.3224 35.1836 41.4049 38.1714 41.6308 42.4851C41.7522 44.8009 40.9841 47.1307 38.3394 48.859L43.4523 57.8141L36.7918 58.1628L33.0189 50.5054L31.0519 50.6085L31.4628 58.4424L25.754 58.7418L24.5566 35.9051ZM33.0909 45.2216C34.8347 45.1299 35.545 44.1076 35.4814 42.9017C35.408 41.5066 34.4422 40.6665 32.92 40.7455L30.5408 40.8698L30.7752 45.3417L33.0909 45.2202V45.2216Z" fill="#211B27"/>
<path d="M44.7895 34.8458L58.808 34.1115L59.0834 39.3769L50.7736 39.8118L50.9304 42.7926L58.8603 42.3775L59.1356 47.6429L51.2057 48.0581L51.4189 52.1176L60.1099 51.6615L60.3853 56.927L45.9855 57.681L44.7881 34.8444L44.7895 34.8458ZM50.4771 29.2683L56.5982 28.9478L53.4494 33.1838L49.1046 33.4112L50.4771 29.2683Z" fill="#211B27"/>
<path d="M62.019 51.6889L67.1348 48.5584C68.3082 50.3093 69.6002 51.2921 71.3765 51.1989C72.7405 51.1269 73.3124 50.5254 73.27 49.7007C73.2319 48.9707 72.8902 48.5118 71.4302 47.9837L67.7999 46.679C64.2995 45.4308 62.5683 43.3593 62.4059 40.2515C62.2167 36.6353 64.8784 33.4117 69.6044 33.1631C73.3152 32.9683 75.8611 34.8067 77.3691 36.8909L72.9481 40.5254C71.666 39.1303 70.5589 38.6474 69.5451 38.6997C68.5934 38.7491 68.0484 39.2546 68.0837 39.9535C68.119 40.62 68.6824 41.0676 69.7866 41.487L73.712 42.9668C77.1503 44.2503 79.0254 46.0281 79.2146 49.6442C79.4194 53.5457 76.6137 56.4601 71.7295 56.7157C66.6547 56.9811 63.8787 54.9958 62.0205 51.6903L62.019 51.6889Z" fill="#211B27"/>
<path d="M81.0713 32.9424L86.7801 32.6431L87.9775 55.4797L82.2687 55.779L81.0713 32.9424Z" fill="#211B27"/>
<path d="M90.8398 32.432L99.182 31.9943C106.033 31.6356 110.899 35.8646 111.262 42.8118C111.606 49.3777 107.229 54.4723 100.187 54.8422L92.0358 55.2701L90.8384 32.4334L90.8398 32.432ZM99.6268 49.5909C103.274 49.4003 105.422 46.6793 105.235 43.1267C105.039 39.3834 102.629 37.0931 99.1396 37.2752L96.8239 37.3967L97.4692 49.7039L99.6254 49.5909H99.6268Z" fill="#211B27"/>
<path d="M113.706 31.2328L127.725 30.4985L128 35.764L119.69 36.1989L119.847 39.1796L127.777 38.7645L128.052 44.0299L120.122 44.4451L120.335 48.5046L129.026 48.0485L129.302 53.314L114.902 54.068L113.705 31.2314L113.706 31.2328Z" fill="#211B27"/>
<path d="M131.339 30.3104L136.985 30.0139L145.649 42.4086L144.977 29.5945L150.306 29.3149L151.503 52.1516L145.445 52.4693L137.216 40.4967L137.864 52.866L132.535 53.1456L131.338 30.309L131.339 30.3104Z" fill="#211B27"/>
<path d="M159.366 34.1191L153.118 34.4467L152.843 29.1812L170.986 28.231L171.261 33.4964L165.077 33.8212L165.997 51.3923L160.288 51.6917L159.368 34.1205L159.366 34.1191Z" fill="#211B27"/>
<path d="M83.1523 4.65354L89.2734 4.33301L99.0023 26.7234L92.9122 27.0426L91.5313 23.7441L82.5875 24.2129L81.5906 27.637L75.8818 27.9364L83.1537 4.65495L83.1523 4.65354ZM89.3977 18.8302L86.3619 11.2604L84.3554 19.0943L89.3977 18.8302Z" fill="#211B27"/>
<path d="M101.728 8.96137L95.4794 9.28896L95.2041 4.02353L113.347 3.07324L113.623 8.33867L107.438 8.66343L108.358 26.2346L102.65 26.534L101.729 8.96278L101.728 8.96137Z" fill="#211B27"/>
<path d="M121.517 7.92426L115.269 8.25185L114.994 2.98642L133.137 2.03613L133.412 7.30156L127.227 7.62633L128.148 25.1975L122.439 25.4969L121.519 7.92567L121.517 7.92426Z" fill="#211B27"/>
<path d="M139.318 1.71213L145.439 1.3916L155.168 23.782L149.078 24.1011L147.697 20.8027L138.754 21.2715L137.757 24.6956L132.048 24.995L139.32 1.71354L139.318 1.71213ZM145.564 15.8874L142.528 8.31757L140.521 16.1515L145.564 15.8874Z" fill="#211B27"/>
<path d="M156.063 0.833528L161.772 0.53418L162.693 18.1054L170.432 17.7001L170.707 22.9656L157.259 23.6702L156.062 0.833528H156.063Z" fill="#211B27"/>
<path d="M6.70147 82.974C7.07565 81.6185 8.04712 80.1358 9.13438 79.0302L13.0894 75.006C14.7486 73.2974 14.8601 72.3683 14.8248 71.7033C14.757 70.4028 13.8223 69.5612 12.5854 69.6262C11.2213 69.6982 10.4702 70.5327 9.84886 72.028L5.23438 70.1387C6.23832 66.8417 8.62464 64.4271 12.5571 64.221C17.2196 63.9767 20.2766 67.093 20.4927 71.2161C20.6579 74.3564 19.7062 76.25 16.8087 78.5967L13.6345 81.1483C13.1459 81.5239 12.7534 81.9263 12.6743 82.2482L21.2382 81.7992L21.5122 87.0322L6.44589 87.8215L6.39647 86.8698C6.27503 84.5541 6.48684 83.7478 6.70147 82.974Z" fill="#211B27"/>
<path d="M26.8512 85.1619C24.8136 83.2966 23.3677 80.001 23.1319 75.498C22.8961 70.9937 23.989 67.5653 25.8204 65.4981C27.0531 64.1298 28.636 63.3786 30.634 63.2742C32.632 63.1697 34.2855 63.7514 35.6537 64.9827C37.6913 66.848 39.1358 70.1436 39.373 74.648C39.6088 79.1523 38.5159 82.5807 36.6845 84.6479C35.4518 86.0162 33.8689 86.7674 31.8709 86.8719C29.8729 86.9763 28.2208 86.3946 26.8512 85.1633V85.1619ZM29.6653 79.9897C30.1765 81.2351 30.8656 81.6446 31.5942 81.6064C32.9257 81.5372 33.8972 80.0221 33.6303 74.9473C33.5004 72.4735 33.1629 70.8694 32.6969 69.8754C32.2296 68.8502 31.5758 68.5029 30.9093 68.5382C29.5778 68.6074 28.6063 70.1225 28.8732 75.1973C28.9918 77.4494 29.294 78.9914 29.6653 79.9897Z" fill="#211B27"/>
<path d="M42.4749 81.0985C42.8491 79.743 43.8206 78.2604 44.9078 77.1547L48.8629 73.1305C50.522 71.4219 50.6336 70.4928 50.5983 69.8278C50.5305 68.5273 49.5957 67.6857 48.3588 67.7507C46.9948 67.8227 46.2436 68.6572 45.6223 70.1525L41.0078 68.2632C42.0118 64.9662 44.3981 62.5516 48.3306 62.3455C52.993 62.1012 56.0501 65.2175 56.2661 69.3406C56.4313 72.481 55.4796 74.3745 52.5822 76.7213L49.4079 79.2728C48.9194 79.6484 48.5268 80.0508 48.4477 80.3727L57.0117 79.9237L57.2856 85.1567L42.2193 85.946L42.1699 84.9943C42.0485 82.6786 42.2603 81.8723 42.4749 81.0985Z" fill="#211B27"/>
<path d="M69.5249 66.8625L58.8359 67.423L58.562 62.1901L74.6746 61.3457L74.9019 65.6919C70.9582 71.1465 68.6834 76.8949 68.449 84.572L62.1373 84.9025C62.366 78.9437 64.9613 72.6362 69.5249 66.8639V66.8625Z" fill="#211B27"/>
<defs>
<linearGradient id="paint0_linear_20723_64299" x1="9.30864e-09" y1="61.347" x2="175.412" y2="54.2664" gradientUnits="userSpaceOnUse">
<stop stop-color="#FFFFCC" stop-opacity="0.6"/>
<stop offset="0.451923" stop-color="#FFFFAC"/>
<stop offset="0.728886" stop-color="#FFFFAC"/>
<stop offset="0.871775" stop-color="#FFFFCC"/>
<stop offset="1" stop-color="#FFFFCC" stop-opacity="0"/>
</linearGradient>
</defs>
</svg>
